<svg width="48" height="48" viewBox="0 0 48 48" fill="none" xmlns="http://www.w3.org/2000/svg">
<rect width="48" height="48" rx="8" fill="#363737"/>
<path d="M15.908 17.2461L17.608 22.9114M25.084 30.3901L30.752 32.0901" stroke="white" stroke-width="1.5" stroke-linecap="round" stroke-linejoin="round"/>
<path d="M23.5773 24.4209L31.256 16.7422" stroke="white" stroke-width="1.5" stroke-linecap="round" stroke-linejoin="round"/>
<path d="M13.3333 15.332C13.3333 15.5947 13.385 15.8547 13.4856 16.0974C13.5861 16.34 13.7334 16.5605 13.9191 16.7462C14.1048 16.932 14.3253 17.0793 14.5679 17.1798C14.8106 17.2803 15.0707 17.332 15.3333 17.332C15.596 17.332 15.856 17.2803 16.0987 17.1798C16.3413 17.0793 16.5618 16.932 16.7475 16.7462C16.9332 16.5605 17.0806 16.34 17.1811 16.0974C17.2816 15.8547 17.3333 15.5947 17.3333 15.332C17.3333 15.0694 17.2816 14.8093 17.1811 14.5667C17.0806 14.324 16.9332 14.1035 16.7475 13.9178C16.5618 13.7321 16.3413 13.5848 16.0987 13.4843C15.856 13.3838 15.596 13.332 15.3333 13.332C15.0707 13.332 14.8106 13.3838 14.5679 13.4843C14.3253 13.5848 14.1048 13.7321 13.9191 13.9178C13.7334 14.1035 13.5861 14.324 13.4856 14.5667C13.385 14.8093 13.3333 15.0694 13.3333 15.332Z" stroke="white" stroke-width="1.5" stroke-linecap="round" stroke-linejoin="round"/>
<path d="M30.6667 15.332C30.6667 15.8625 30.8774 16.3712 31.2525 16.7462C31.6275 17.1213 32.1363 17.332 32.6667 17.332C33.1971 17.332 33.7058 17.1213 34.0809 16.7462C34.456 16.3712 34.6667 15.8625 34.6667 15.332C34.6667 14.8016 34.456 14.2929 34.0809 13.9178C33.7058 13.5427 33.1971 13.332 32.6667 13.332C32.1363 13.332 31.6275 13.5427 31.2525 13.9178C30.8774 14.2929 30.6667 14.8016 30.6667 15.332Z" stroke="white" stroke-width="1.5" stroke-linecap="round" stroke-linejoin="round"/>
<path d="M30.6667 32.668C30.6667 33.1984 30.8774 33.7071 31.2525 34.0822C31.6275 34.4573 32.1363 34.668 32.6667 34.668C33.1971 34.668 33.7058 34.4573 34.0809 34.0822C34.456 33.7071 34.6667 33.1984 34.6667 32.668C34.6667 32.1375 34.456 31.6288 34.0809 31.2538C33.7058 30.8787 33.1971 30.668 32.6667 30.668C32.1363 30.668 31.6275 30.8787 31.2525 31.2538C30.8774 31.6288 30.6667 32.1375 30.6667 32.668Z" stroke="white" stroke-width="1.5" stroke-linecap="round" stroke-linejoin="round"/>
<path d="M13.3333 28.668C13.3333 30.2593 13.9655 31.7854 15.0907 32.9106C16.2159 34.0358 17.742 34.668 19.3333 34.668C20.9246 34.668 22.4507 34.0358 23.576 32.9106C24.7012 31.7854 25.3333 30.2593 25.3333 28.668C25.3333 27.0767 24.7012 25.5505 23.576 24.4253C22.4507 23.3001 20.9246 22.668 19.3333 22.668C17.742 22.668 16.2159 23.3001 15.0907 24.4253C13.9655 25.5505 13.3333 27.0767 13.3333 28.668Z" stroke="white" stroke-width="1.5" stroke-linecap="round" stroke-linejoin="round"/>
</svg>
