<svg width="48" height="48" viewBox="0 0 48 48" fill="none" xmlns="http://www.w3.org/2000/svg">
<rect width="48" height="48" rx="8" fill="#363737"/>
<path d="M34 24.7609L24 34.6649L14 24.7609C13.3404 24.1191 12.8209 23.3476 12.4741 22.4951C12.1273 21.6426 11.9607 20.7276 11.985 19.8075C12.0092 18.8875 12.2237 17.9825 12.6149 17.1494C13.0061 16.3163 13.5655 15.5733 14.258 14.9671C14.9504 14.3608 15.7609 13.9045 16.6384 13.6269C17.5159 13.3493 18.4413 13.2564 19.3565 13.354C20.2716 13.4516 21.1567 13.7377 21.9558 14.1942C22.755 14.6506 23.451 15.2676 24 16.0063C24.5514 15.273 25.2482 14.6614 26.0468 14.2098C26.8454 13.7581 27.7287 13.4762 28.6412 13.3816C29.5538 13.2871 30.4761 13.3819 31.3504 13.6601C32.2246 13.9384 33.032 14.3941 33.7221 14.9988C34.4121 15.6034 34.9699 16.344 35.3606 17.1741C35.7512 18.0043 35.9663 18.9061 35.9924 19.8232C36.0185 20.7403 35.855 21.6529 35.5122 22.5039C35.1693 23.355 34.6545 24.126 34 24.7689" stroke="white" stroke-width="1.5" stroke-linecap="round" stroke-linejoin="round"/>
<path d="M24 16L19.6094 20.3907C19.3594 20.6407 19.219 20.9798 19.219 21.3333C19.219 21.6869 19.3594 22.026 19.6094 22.276L20.3334 23C21.2534 23.92 22.7467 23.92 23.6667 23L25 21.6667C25.7957 20.871 26.8748 20.424 28 20.424C29.1253 20.424 30.2044 20.871 31 21.6667L34 24.6667" stroke="white" stroke-width="1.5" stroke-linecap="round" stroke-linejoin="round"/>
<path d="M24.6666 28.668L27.3333 31.3346" stroke="white" stroke-width="1.5" stroke-linecap="round" stroke-linejoin="round"/>
<path d="M28 25.332L30.6667 27.9987" stroke="white" stroke-width="1.5" stroke-linecap="round" stroke-linejoin="round"/>
</svg>
