<svg width="48" height="48" viewBox="0 0 48 48" fill="none" xmlns="http://www.w3.org/2000/svg">
<rect width="48" height="48" rx="8" fill="#363737"/>
<path d="M24 27.9987H15.3333C14.4493 27.9987 13.6014 27.6475 12.9763 27.0224C12.3512 26.3973 12 25.5494 12 24.6654C12 23.7813 12.3512 22.9335 12.9763 22.3083C13.6014 21.6832 14.4493 21.332 15.3333 21.332H16" stroke="white" stroke-width="1.5" stroke-linecap="round" stroke-linejoin="round"/>
<path d="M28 24V32.6667C28 33.5507 27.6489 34.3986 27.0237 35.0237C26.3986 35.6488 25.5508 36 24.6667 36C23.7827 36 22.9348 35.6488 22.3097 35.0237C21.6846 34.3986 21.3334 33.5507 21.3334 32.6667V32" stroke="white" stroke-width="1.5" stroke-linecap="round" stroke-linejoin="round"/>
<path d="M24 20H32.6667C33.5507 20 34.3986 20.3512 35.0237 20.9763C35.6488 21.6014 36 22.4493 36 23.3333C36 24.2174 35.6488 25.0652 35.0237 25.6904C34.3986 26.3155 33.5507 26.6667 32.6667 26.6667H32" stroke="white" stroke-width="1.5" stroke-linecap="round" stroke-linejoin="round"/>
<path d="M20 24V15.3333C20 14.4493 20.3512 13.6014 20.9763 12.9763C21.6014 12.3512 22.4493 12 23.3333 12C24.2174 12 25.0652 12.3512 25.6904 12.9763C26.3155 13.6014 26.6667 14.4493 26.6667 15.3333V16" stroke="white" stroke-width="1.5" stroke-linecap="round" stroke-linejoin="round"/>
</svg>
