<svg width="48" height="48" viewBox="0 0 48 48" fill="none" xmlns="http://www.w3.org/2000/svg">
<rect width="48" height="48" rx="8" fill="#363737"/>
<path d="M14.6667 25.3346C14.6667 24.6274 14.9476 23.9491 15.4477 23.449C15.9478 22.9489 16.6261 22.668 17.3334 22.668H30.6667C31.3739 22.668 32.0522 22.9489 32.5523 23.449C33.0524 23.9491 33.3334 24.6274 33.3334 25.3346V33.3346C33.3334 34.0419 33.0524 34.7202 32.5523 35.2203C32.0522 35.7203 31.3739 36.0013 30.6667 36.0013H17.3334C16.6261 36.0013 15.9478 35.7203 15.4477 35.2203C14.9476 34.7202 14.6667 34.0419 14.6667 33.3346V25.3346Z" stroke="white" stroke-width="1.5" stroke-linecap="round" stroke-linejoin="round"/>
<path d="M22.6667 29.3333C22.6667 29.687 22.8072 30.0261 23.0572 30.2761C23.3073 30.5262 23.6464 30.6667 24 30.6667C24.3536 30.6667 24.6928 30.5262 24.9428 30.2761C25.1929 30.0261 25.3334 29.687 25.3334 29.3333C25.3334 28.9797 25.1929 28.6406 24.9428 28.3905C24.6928 28.1405 24.3536 28 24 28C23.6464 28 23.3073 28.1405 23.0572 28.3905C22.8072 28.6406 22.6667 28.9797 22.6667 29.3333Z" stroke="white" stroke-width="1.5" stroke-linecap="round" stroke-linejoin="round"/>
<path d="M18.6667 22.6667V17.3333C18.6667 15.9188 19.2286 14.5623 20.2288 13.5621C21.229 12.5619 22.5855 12 24 12C25.4145 12 26.7711 12.5619 27.7713 13.5621C28.7715 14.5623 29.3334 15.9188 29.3334 17.3333V22.6667" stroke="white" stroke-width="1.5" stroke-linecap="round" stroke-linejoin="round"/>
</svg>
