<svg width="48" height="48" viewBox="0 0 48 48" fill="none" xmlns="http://www.w3.org/2000/svg">
<rect width="48" height="48" rx="8" fill="#363737"/>
<path d="M30.6666 18.6654V14.6654C30.6666 14.3117 30.5262 13.9726 30.2761 13.7226C30.0261 13.4725 29.6869 13.332 29.3333 13.332H16C15.2927 13.332 14.6145 13.613 14.1144 14.1131C13.6143 14.6132 13.3333 15.2915 13.3333 15.9987M13.3333 15.9987C13.3333 16.7059 13.6143 17.3842 14.1144 17.8843C14.6145 18.3844 15.2927 18.6654 16 18.6654H32C32.3536 18.6654 32.6927 18.8058 32.9428 19.0559C33.1928 19.3059 33.3333 19.6451 33.3333 19.9987V23.9987M13.3333 15.9987V31.9987C13.3333 32.7059 13.6143 33.3842 14.1144 33.8843C14.6145 34.3844 15.2927 34.6654 16 34.6654H32C32.3536 34.6654 32.6927 34.5249 32.9428 34.2748C33.1928 34.0248 33.3333 33.6857 33.3333 33.332V29.332" stroke="white" stroke-width="1.5" stroke-linecap="round" stroke-linejoin="round"/>
<path d="M34.6667 24V29.3333H29.3334C28.6261 29.3333 27.9478 29.0524 27.4477 28.5523C26.9476 28.0522 26.6667 27.3739 26.6667 26.6667C26.6667 25.9594 26.9476 25.2811 27.4477 24.781C27.9478 24.281 28.6261 24 29.3334 24H34.6667Z" stroke="white" stroke-width="1.5" stroke-linecap="round" stroke-linejoin="round"/>
</svg>
