<svg width="226" height="502" viewBox="0 0 226 502" fill="none" xmlns="http://www.w3.org/2000/svg">
<g clip-path="url(#clip0_267_10698)">
<rect width="225.798" height="501.772" fill="white"/>
<rect x="0.62793" width="225.798" height="18.6338" fill="#F1F1F1"/>
<circle cx="19.8098" cy="9.86762" r="3.83637" fill="#C4C4C4"/>
<circle cx="195.186" cy="9.86762" r="3.83637" fill="#C4C4C4"/>
<rect x="204.503" y="6.57422" width="6.57663" height="6.57663" fill="#C4C4C4"/>
<path d="M182.033 13.1562L178.236 6.57962L185.83 6.57962L182.033 13.1562Z" fill="#C4C4C4"/>
<rect x="12.5446" y="446.578" width="200.709" height="33.562" rx="3.13608" fill="#F7931A"/>
<path d="M96.5344 464.091H97.4752C97.4262 464.541 97.2972 464.945 97.0881 465.301C96.879 465.657 96.5834 465.94 96.2012 466.149C95.819 466.354 95.342 466.457 94.7703 466.457C94.3522 466.457 93.9716 466.379 93.6286 466.222C93.2889 466.065 92.9965 465.843 92.7515 465.556C92.5065 465.265 92.317 464.917 92.1831 464.512C92.0524 464.104 91.9871 463.65 91.9871 463.15V462.439C91.9871 461.939 92.0524 461.487 92.1831 461.082C92.317 460.674 92.5081 460.324 92.7564 460.033C93.0079 459.743 93.3101 459.519 93.6629 459.362C94.0157 459.205 94.4126 459.127 94.8536 459.127C95.3926 459.127 95.8484 459.228 96.2208 459.431C96.5932 459.633 96.8823 459.914 97.0881 460.273C97.2972 460.629 97.4262 461.043 97.4752 461.513H96.5344C96.4886 461.18 96.4037 460.894 96.2796 460.656C96.1554 460.414 95.979 460.228 95.7504 460.097C95.5217 459.966 95.2228 459.901 94.8536 459.901C94.5368 459.901 94.2575 459.961 94.0157 460.082C93.7772 460.203 93.5763 460.375 93.413 460.597C93.2529 460.819 93.1321 461.085 93.0504 461.396C92.9687 461.706 92.9279 462.051 92.9279 462.429V463.15C92.9279 463.499 92.9638 463.828 93.0357 464.135C93.1108 464.442 93.2235 464.711 93.3738 464.943C93.5241 465.175 93.7152 465.358 93.9471 465.492C94.1791 465.623 94.4535 465.688 94.7703 465.688C95.1721 465.688 95.4923 465.624 95.7308 465.497C95.9692 465.37 96.1489 465.187 96.2698 464.948C96.3939 464.71 96.4821 464.424 96.5344 464.091ZM98.7002 463.767V463.655C98.7002 463.272 98.7558 462.918 98.8668 462.591C98.9779 462.261 99.138 461.975 99.347 461.734C99.5561 461.489 99.8093 461.299 100.107 461.165C100.404 461.028 100.737 460.959 101.106 460.959C101.479 460.959 101.813 461.028 102.111 461.165C102.411 461.299 102.666 461.489 102.875 461.734C103.087 461.975 103.249 462.261 103.36 462.591C103.471 462.918 103.527 463.272 103.527 463.655V463.767C103.527 464.149 103.471 464.504 103.36 464.831C103.249 465.157 103.087 465.443 102.875 465.688C102.666 465.93 102.413 466.119 102.116 466.256C101.822 466.39 101.488 466.457 101.116 466.457C100.744 466.457 100.409 466.39 100.111 466.256C99.8142 466.119 99.5594 465.93 99.347 465.688C99.138 465.443 98.9779 465.157 98.8668 464.831C98.7558 464.504 98.7002 464.149 98.7002 463.767ZM99.6068 463.655V463.767C99.6068 464.032 99.6378 464.282 99.6999 464.517C99.7619 464.749 99.855 464.955 99.9792 465.134C100.107 465.314 100.265 465.456 100.454 465.561C100.644 465.662 100.864 465.713 101.116 465.713C101.364 465.713 101.582 465.662 101.768 465.561C101.957 465.456 102.114 465.314 102.238 465.134C102.362 464.955 102.455 464.749 102.517 464.517C102.583 464.282 102.615 464.032 102.615 463.767V463.655C102.615 463.393 102.583 463.147 102.517 462.915C102.455 462.679 102.361 462.472 102.233 462.292C102.109 462.109 101.952 461.966 101.763 461.861C101.577 461.757 101.358 461.704 101.106 461.704C100.858 461.704 100.639 461.757 100.45 461.861C100.263 461.966 100.107 462.109 99.9792 462.292C99.855 462.472 99.7619 462.679 99.6999 462.915C99.6378 463.147 99.6068 463.393 99.6068 463.655ZM105.884 462.189V466.359H104.977V461.057H105.835L105.884 462.189ZM105.668 463.508L105.291 463.493C105.294 463.13 105.348 462.795 105.453 462.488C105.557 462.178 105.704 461.908 105.894 461.68C106.083 461.451 106.308 461.275 106.57 461.151C106.834 461.023 107.127 460.959 107.447 460.959C107.708 460.959 107.943 460.995 108.153 461.067C108.362 461.136 108.54 461.247 108.687 461.4C108.837 461.554 108.951 461.753 109.03 461.998C109.108 462.24 109.147 462.536 109.147 462.885V466.359H108.236V462.875C108.236 462.598 108.195 462.376 108.113 462.209C108.032 462.039 107.912 461.917 107.756 461.841C107.599 461.763 107.406 461.724 107.177 461.724C106.952 461.724 106.746 461.771 106.56 461.866C106.377 461.961 106.219 462.091 106.085 462.258C105.954 462.425 105.851 462.616 105.776 462.831C105.704 463.044 105.668 463.269 105.668 463.508ZM113.058 461.057V461.753H110.191V461.057H113.058ZM111.161 459.769H112.068V465.046C112.068 465.226 112.096 465.361 112.151 465.453C112.207 465.544 112.278 465.605 112.367 465.634C112.455 465.664 112.55 465.678 112.651 465.678C112.726 465.678 112.804 465.672 112.886 465.659C112.971 465.642 113.035 465.629 113.077 465.619L113.082 466.359C113.01 466.382 112.915 466.403 112.798 466.423C112.684 466.446 112.545 466.457 112.381 466.457C112.159 466.457 111.955 466.413 111.769 466.325C111.583 466.237 111.434 466.09 111.323 465.884C111.215 465.675 111.161 465.394 111.161 465.041V459.769ZM115.419 461.057V466.359H114.508V461.057H115.419ZM114.439 459.651C114.439 459.504 114.484 459.38 114.572 459.279C114.663 459.177 114.797 459.127 114.974 459.127C115.147 459.127 115.279 459.177 115.37 459.279C115.465 459.38 115.513 459.504 115.513 459.651C115.513 459.792 115.465 459.912 115.37 460.014C115.279 460.112 115.147 460.161 114.974 460.161C114.797 460.161 114.663 460.112 114.572 460.014C114.484 459.912 114.439 459.792 114.439 459.651ZM118.095 462.189V466.359H117.188V461.057H118.046L118.095 462.189ZM117.879 463.508L117.502 463.493C117.505 463.13 117.559 462.795 117.664 462.488C117.768 462.178 117.915 461.908 118.105 461.68C118.294 461.451 118.52 461.275 118.781 461.151C119.046 461.023 119.338 460.959 119.658 460.959C119.919 460.959 120.155 460.995 120.364 461.067C120.573 461.136 120.751 461.247 120.898 461.4C121.048 461.554 121.162 461.753 121.241 461.998C121.319 462.24 121.358 462.536 121.358 462.885V466.359H120.447V462.875C120.447 462.598 120.406 462.376 120.324 462.209C120.243 462.039 120.124 461.917 119.967 461.841C119.81 461.763 119.617 461.724 119.389 461.724C119.163 461.724 118.957 461.771 118.771 461.866C118.588 461.961 118.43 462.091 118.296 462.258C118.165 462.425 118.062 462.616 117.987 462.831C117.915 463.044 117.879 463.269 117.879 463.508ZM126.293 465.134V461.057H127.204V466.359H126.337L126.293 465.134ZM126.464 464.017L126.842 464.007C126.842 464.36 126.804 464.687 126.729 464.987C126.657 465.285 126.539 465.543 126.376 465.762C126.213 465.98 125.999 466.152 125.734 466.276C125.47 466.397 125.148 466.457 124.769 466.457C124.511 466.457 124.274 466.42 124.058 466.345C123.846 466.27 123.663 466.154 123.51 465.997C123.356 465.84 123.237 465.636 123.152 465.384C123.07 465.133 123.029 464.831 123.029 464.478V461.057H123.936V464.488C123.936 464.726 123.962 464.924 124.014 465.08C124.07 465.234 124.143 465.356 124.235 465.448C124.329 465.536 124.434 465.598 124.548 465.634C124.666 465.67 124.787 465.688 124.911 465.688C125.296 465.688 125.602 465.615 125.827 465.468C126.053 465.317 126.214 465.116 126.312 464.865C126.414 464.61 126.464 464.327 126.464 464.017ZM131.1 466.457C130.731 466.457 130.396 466.395 130.095 466.271C129.798 466.144 129.542 465.966 129.326 465.737C129.114 465.508 128.95 465.237 128.836 464.924C128.722 464.61 128.664 464.267 128.664 463.895V463.689C128.664 463.258 128.728 462.874 128.856 462.537C128.983 462.198 129.156 461.91 129.375 461.675C129.594 461.44 129.842 461.262 130.12 461.141C130.397 461.02 130.685 460.959 130.982 460.959C131.361 460.959 131.688 461.025 131.962 461.155C132.24 461.286 132.467 461.469 132.643 461.704C132.82 461.936 132.95 462.211 133.035 462.527C133.12 462.841 133.163 463.184 133.163 463.557V463.963H129.203V463.223H132.256V463.155C132.243 462.919 132.194 462.691 132.109 462.469C132.028 462.247 131.897 462.064 131.717 461.92C131.538 461.776 131.293 461.704 130.982 461.704C130.776 461.704 130.587 461.748 130.414 461.837C130.241 461.921 130.092 462.049 129.968 462.219C129.844 462.389 129.747 462.596 129.679 462.841C129.61 463.086 129.576 463.369 129.576 463.689V463.895C129.576 464.146 129.61 464.383 129.679 464.605C129.751 464.824 129.854 465.017 129.988 465.183C130.125 465.35 130.29 465.481 130.482 465.575C130.678 465.67 130.901 465.717 131.149 465.717C131.469 465.717 131.74 465.652 131.962 465.521C132.184 465.391 132.379 465.216 132.545 464.997L133.094 465.433C132.98 465.606 132.834 465.771 132.658 465.928C132.482 466.085 132.264 466.212 132.006 466.31C131.752 466.408 131.449 466.457 131.1 466.457Z" fill="white"/>
<rect x="94.3961" y="72.1289" width="37.6329" height="37.6329" rx="18.8165" fill="#27AE60"/>
<path d="M104.804 92.0496L111.153 97.5391L120.311 83.5391" stroke="white" stroke-width="1.25443" stroke-linecap="round" stroke-linejoin="round"/>
<path d="M40.6007 128.631L43.1475 133.557L45.7011 128.631H47.1767L43.7944 134.776V138.441H42.494V134.776L39.1117 128.631H40.6007ZM47.4731 134.877V134.722C47.4731 134.197 47.5495 133.709 47.7022 133.26C47.8549 132.806 48.075 132.413 48.3625 132.081C48.65 131.744 48.9981 131.484 49.4068 131.299C49.8156 131.111 50.2737 131.016 50.7813 131.016C51.2934 131.016 51.7538 131.111 52.1625 131.299C52.5758 131.484 52.9261 131.744 53.2136 132.081C53.5056 132.413 53.7279 132.806 53.8806 133.26C54.0334 133.709 54.1097 134.197 54.1097 134.722V134.877C54.1097 135.403 54.0334 135.89 53.8806 136.339C53.7279 136.788 53.5056 137.181 53.2136 137.518C52.9261 137.851 52.578 138.111 52.1693 138.3C51.765 138.484 51.3069 138.576 50.7948 138.576C50.2827 138.576 49.8223 138.484 49.4136 138.3C49.0048 138.111 48.6545 137.851 48.3625 137.518C48.075 137.181 47.8549 136.788 47.7022 136.339C47.5495 135.89 47.4731 135.403 47.4731 134.877ZM48.7196 134.722V134.877C48.7196 135.241 48.7623 135.585 48.8476 135.908C48.9329 136.227 49.061 136.51 49.2317 136.757C49.4068 137.004 49.6247 137.199 49.8852 137.343C50.1457 137.482 50.4489 137.552 50.7948 137.552C51.1362 137.552 51.4349 137.482 51.6909 137.343C51.9514 137.199 52.167 137.004 52.3377 136.757C52.5084 136.51 52.6364 136.227 52.7218 135.908C52.8116 135.585 52.8565 135.241 52.8565 134.877V134.722C52.8565 134.363 52.8116 134.024 52.7218 133.705C52.6364 133.381 52.5062 133.096 52.331 132.849C52.1603 132.598 51.9447 132.4 51.6842 132.256C51.4281 132.112 51.1272 132.041 50.7813 132.041C50.4399 132.041 50.139 132.112 49.8785 132.256C49.6224 132.4 49.4068 132.598 49.2317 132.849C49.061 133.096 48.9329 133.381 48.8476 133.705C48.7623 134.024 48.7196 134.363 48.7196 134.722ZM60.1332 136.757V131.151H61.3864V138.441H60.1938L60.1332 136.757ZM60.369 135.221L60.8878 135.207C60.8878 135.692 60.8362 136.142 60.7329 136.555C60.634 136.964 60.4723 137.318 60.2477 137.619C60.0232 137.92 59.7289 138.156 59.3651 138.327C59.0013 138.493 58.5588 138.576 58.0378 138.576C57.6829 138.576 57.3573 138.525 57.0608 138.421C56.7689 138.318 56.5173 138.158 56.3062 137.943C56.0951 137.727 55.9311 137.446 55.8144 137.101C55.7021 136.755 55.6459 136.339 55.6459 135.854V131.151H56.8924V135.868C56.8924 136.196 56.9283 136.467 57.0002 136.683C57.0765 136.894 57.1776 137.062 57.3034 137.188C57.4336 137.309 57.5774 137.395 57.7346 137.444C57.8963 137.494 58.0625 137.518 58.2332 137.518C58.7632 137.518 59.1832 137.417 59.4931 137.215C59.8031 137.009 60.0254 136.732 60.1602 136.386C60.2994 136.036 60.369 135.648 60.369 135.221ZM64.5329 132.297V138.441H63.2864V131.151H64.4992L64.5329 132.297ZM66.8102 131.111L66.8035 132.27C66.7002 132.247 66.6014 132.234 66.507 132.229C66.4172 132.22 66.3139 132.216 66.1971 132.216C65.9096 132.216 65.6558 132.261 65.4357 132.351C65.2156 132.44 65.0292 132.566 64.8765 132.728C64.7238 132.89 64.6025 133.083 64.5127 133.307C64.4273 133.527 64.3712 133.77 64.3442 134.035L63.9939 134.237C63.9939 133.797 64.0366 133.384 64.1219 132.997C64.2117 132.611 64.3487 132.27 64.5329 131.973C64.7171 131.672 64.9506 131.439 65.2336 131.273C65.5211 131.102 65.8625 131.016 66.2577 131.016C66.3476 131.016 66.4509 131.028 66.5677 131.05C66.6845 131.068 66.7653 131.088 66.8102 131.111ZM73.2312 137.148L75.1043 131.151H75.9263L75.7646 132.344L73.8578 138.441H73.056L73.2312 137.148ZM71.9713 131.151L73.5681 137.215L73.6826 138.441H72.8404L70.7248 131.151H71.9713ZM77.7185 137.168L79.2412 131.151H80.481L78.3653 138.441H77.5299L77.7185 137.168ZM76.1082 131.151L77.9409 137.047L78.1497 138.441H77.3547L75.394 132.33L75.2323 131.151H76.1082ZM86.0597 137.195V133.442C86.0597 133.155 86.0013 132.905 85.8846 132.694C85.7723 132.479 85.6016 132.312 85.3725 132.196C85.1434 132.079 84.8604 132.02 84.5236 132.02C84.2091 132.02 83.9329 132.074 83.6948 132.182C83.4612 132.29 83.2771 132.431 83.1423 132.607C83.0121 132.782 82.9469 132.97 82.9469 133.173H81.7005C81.7005 132.912 81.7678 132.654 81.9026 132.398C82.0374 132.142 82.2305 131.91 82.482 131.704C82.7381 131.493 83.0435 131.326 83.3984 131.205C83.7577 131.079 84.1575 131.016 84.5977 131.016C85.1277 131.016 85.5948 131.106 85.9991 131.286C86.4079 131.466 86.7268 131.737 86.9558 132.101C87.1894 132.461 87.3062 132.912 87.3062 133.456V136.851C87.3062 137.094 87.3264 137.352 87.3668 137.626C87.4118 137.9 87.4769 138.136 87.5622 138.334V138.441H86.2619C86.199 138.298 86.1496 138.107 86.1136 137.869C86.0777 137.626 86.0597 137.402 86.0597 137.195ZM86.2753 134.021L86.2888 134.897H85.0289C84.674 134.897 84.3574 134.927 84.0789 134.985C83.8004 135.039 83.5668 135.122 83.3781 135.234C83.1895 135.347 83.0458 135.488 82.9469 135.659C82.8481 135.825 82.7987 136.02 82.7987 136.245C82.7987 136.474 82.8504 136.683 82.9537 136.872C83.057 137.06 83.212 137.211 83.4186 137.323C83.6297 137.431 83.888 137.485 84.1934 137.485C84.5752 137.485 84.9121 137.404 85.2041 137.242C85.496 137.08 85.7273 136.883 85.898 136.649C86.0732 136.416 86.1675 136.189 86.181 135.969L86.7133 136.568C86.6819 136.757 86.5965 136.966 86.4573 137.195C86.318 137.424 86.1316 137.644 85.898 137.855C85.669 138.062 85.395 138.235 85.076 138.374C84.7616 138.509 84.4068 138.576 84.0115 138.576C83.5174 138.576 83.0839 138.48 82.7111 138.286C82.3428 138.093 82.0553 137.835 81.8487 137.512C81.6466 137.184 81.5455 136.818 81.5455 136.413C81.5455 136.023 81.6219 135.679 81.7746 135.383C81.9273 135.082 82.1474 134.832 82.4349 134.635C82.7223 134.432 83.0682 134.28 83.4725 134.176C83.8767 134.073 84.3282 134.021 84.8267 134.021H86.2753ZM90.6211 128.092V138.441H89.3679V128.092H90.6211ZM93.9765 128.092V138.441H92.7233V128.092H93.9765ZM99.0028 138.576C98.4952 138.576 98.0348 138.491 97.6216 138.32C97.2128 138.145 96.8602 137.9 96.5638 137.586C96.2718 137.271 96.0472 136.898 95.89 136.467C95.7328 136.036 95.6542 135.564 95.6542 135.052V134.769C95.6542 134.176 95.7418 133.649 95.9169 133.186C96.0921 132.719 96.3302 132.324 96.6311 132C96.9321 131.677 97.2735 131.432 97.6553 131.266C98.0371 131.1 98.4323 131.016 98.8411 131.016C99.3621 131.016 99.8113 131.106 100.189 131.286C100.57 131.466 100.883 131.717 101.125 132.041C101.368 132.36 101.547 132.737 101.664 133.173C101.781 133.604 101.839 134.075 101.839 134.587V135.147H96.3953V134.129H100.593V134.035C100.575 133.712 100.508 133.397 100.391 133.092C100.278 132.786 100.099 132.535 99.8517 132.337C99.6047 132.139 99.2678 132.041 98.8411 132.041C98.5581 132.041 98.2976 132.101 98.0595 132.223C97.8215 132.339 97.6171 132.515 97.4464 132.748C97.2757 132.982 97.1432 133.267 97.0489 133.604C96.9545 133.941 96.9074 134.329 96.9074 134.769V135.052C96.9074 135.398 96.9545 135.724 97.0489 136.029C97.1477 136.33 97.2892 136.595 97.4733 136.824C97.662 137.053 97.8888 137.233 98.1539 137.363C98.4234 137.494 98.7288 137.559 99.0702 137.559C99.5104 137.559 99.8832 137.469 100.189 137.289C100.494 137.11 100.761 136.869 100.99 136.568L101.745 137.168C101.588 137.406 101.388 137.633 101.145 137.848C100.903 138.064 100.604 138.239 100.249 138.374C99.8989 138.509 99.4834 138.576 99.0028 138.576ZM106.347 131.151V132.108H102.405V131.151H106.347ZM103.739 129.379H104.986V136.636C104.986 136.883 105.024 137.069 105.1 137.195C105.177 137.321 105.276 137.404 105.397 137.444C105.518 137.485 105.648 137.505 105.788 137.505C105.891 137.505 105.999 137.496 106.111 137.478C106.228 137.455 106.315 137.437 106.374 137.424L106.381 138.441C106.282 138.473 106.151 138.502 105.99 138.529C105.833 138.56 105.642 138.576 105.417 138.576C105.112 138.576 104.831 138.516 104.575 138.394C104.319 138.273 104.114 138.071 103.962 137.788C103.813 137.5 103.739 137.114 103.739 136.629V129.379ZM112.586 131.151V138.441H111.333V131.151H112.586ZM111.238 129.218C111.238 129.015 111.299 128.845 111.42 128.705C111.546 128.566 111.73 128.497 111.973 128.497C112.211 128.497 112.393 128.566 112.519 128.705C112.649 128.845 112.714 129.015 112.714 129.218C112.714 129.411 112.649 129.577 112.519 129.716C112.393 129.851 112.211 129.918 111.973 129.918C111.73 129.918 111.546 129.851 111.42 129.716C111.299 129.577 111.238 129.411 111.238 129.218ZM118.832 136.508C118.832 136.328 118.791 136.162 118.71 136.009C118.634 135.852 118.475 135.71 118.232 135.585C117.994 135.454 117.635 135.342 117.154 135.248C116.75 135.162 116.384 135.061 116.056 134.945C115.732 134.828 115.456 134.686 115.227 134.52C115.003 134.354 114.83 134.158 114.708 133.934C114.587 133.709 114.526 133.447 114.526 133.146C114.526 132.858 114.589 132.586 114.715 132.33C114.845 132.074 115.027 131.847 115.261 131.65C115.499 131.452 115.784 131.297 116.116 131.185C116.449 131.073 116.819 131.016 117.228 131.016C117.812 131.016 118.311 131.12 118.724 131.326C119.137 131.533 119.454 131.809 119.674 132.155C119.894 132.497 120.004 132.876 120.004 133.294H118.758C118.758 133.092 118.697 132.896 118.576 132.708C118.459 132.515 118.286 132.355 118.057 132.229C117.832 132.104 117.556 132.041 117.228 132.041C116.882 132.041 116.602 132.095 116.386 132.202C116.175 132.306 116.02 132.438 115.921 132.6C115.827 132.762 115.78 132.932 115.78 133.112C115.78 133.247 115.802 133.368 115.847 133.476C115.896 133.579 115.982 133.676 116.103 133.765C116.224 133.851 116.395 133.932 116.615 134.008C116.835 134.084 117.116 134.161 117.457 134.237C118.055 134.372 118.547 134.534 118.933 134.722C119.319 134.911 119.607 135.142 119.795 135.416C119.984 135.69 120.078 136.023 120.078 136.413C120.078 136.732 120.011 137.024 119.876 137.289C119.746 137.554 119.555 137.783 119.303 137.977C119.056 138.165 118.76 138.313 118.414 138.421C118.073 138.525 117.689 138.576 117.262 138.576C116.62 138.576 116.076 138.462 115.631 138.233C115.187 138.003 114.85 137.707 114.621 137.343C114.392 136.979 114.277 136.595 114.277 136.191H115.53C115.548 136.532 115.647 136.804 115.827 137.006C116.006 137.204 116.227 137.345 116.487 137.431C116.748 137.512 117.006 137.552 117.262 137.552C117.603 137.552 117.888 137.507 118.118 137.417C118.351 137.327 118.529 137.204 118.65 137.047C118.771 136.889 118.832 136.71 118.832 136.508ZM125.131 128.092H126.385V137.026L126.277 138.441H125.131V128.092ZM131.31 134.736V134.877C131.31 135.407 131.247 135.899 131.121 136.353C130.995 136.802 130.811 137.193 130.569 137.525C130.326 137.857 130.03 138.116 129.679 138.3C129.329 138.484 128.927 138.576 128.473 138.576C128.011 138.576 127.604 138.498 127.254 138.34C126.908 138.179 126.616 137.947 126.378 137.646C126.14 137.345 125.949 136.982 125.805 136.555C125.666 136.128 125.569 135.648 125.516 135.113V134.493C125.569 133.954 125.666 133.471 125.805 133.045C125.949 132.618 126.14 132.254 126.378 131.953C126.616 131.648 126.908 131.416 127.254 131.259C127.6 131.097 128.002 131.016 128.46 131.016C128.918 131.016 129.325 131.106 129.679 131.286C130.034 131.461 130.331 131.713 130.569 132.041C130.811 132.369 130.995 132.762 131.121 133.22C131.247 133.673 131.31 134.179 131.31 134.736ZM130.057 134.877V134.736C130.057 134.372 130.023 134.03 129.956 133.712C129.888 133.388 129.78 133.105 129.632 132.863C129.484 132.616 129.289 132.422 129.046 132.283C128.804 132.139 128.505 132.068 128.15 132.068C127.836 132.068 127.562 132.121 127.328 132.229C127.099 132.337 126.903 132.483 126.742 132.667C126.58 132.847 126.448 133.054 126.344 133.287C126.245 133.516 126.171 133.754 126.122 134.001V135.625C126.194 135.939 126.311 136.243 126.472 136.535C126.638 136.822 126.859 137.058 127.133 137.242C127.411 137.426 127.755 137.518 128.163 137.518C128.5 137.518 128.788 137.451 129.026 137.316C129.268 137.177 129.464 136.986 129.612 136.744C129.765 136.501 129.877 136.22 129.949 135.901C130.021 135.582 130.057 135.241 130.057 134.877ZM137.185 137.195V133.442C137.185 133.155 137.127 132.905 137.01 132.694C136.898 132.479 136.727 132.312 136.498 132.196C136.269 132.079 135.986 132.02 135.649 132.02C135.335 132.02 135.058 132.074 134.82 132.182C134.587 132.29 134.403 132.431 134.268 132.607C134.137 132.782 134.072 132.97 134.072 133.173H132.826C132.826 132.912 132.893 132.654 133.028 132.398C133.163 132.142 133.356 131.91 133.607 131.704C133.863 131.493 134.169 131.326 134.524 131.205C134.883 131.079 135.283 131.016 135.723 131.016C136.253 131.016 136.72 131.106 137.125 131.286C137.533 131.466 137.852 131.737 138.081 132.101C138.315 132.461 138.432 132.912 138.432 133.456V136.851C138.432 137.094 138.452 137.352 138.492 137.626C138.537 137.9 138.602 138.136 138.688 138.334V138.441H137.387C137.324 138.298 137.275 138.107 137.239 137.869C137.203 137.626 137.185 137.402 137.185 137.195ZM137.401 134.021L137.414 134.897H136.154C135.799 134.897 135.483 134.927 135.204 134.985C134.926 135.039 134.692 135.122 134.504 135.234C134.315 135.347 134.171 135.488 134.072 135.659C133.974 135.825 133.924 136.02 133.924 136.245C133.924 136.474 133.976 136.683 134.079 136.872C134.182 137.06 134.337 137.211 134.544 137.323C134.755 137.431 135.013 137.485 135.319 137.485C135.701 137.485 136.038 137.404 136.329 137.242C136.621 137.08 136.853 136.883 137.023 136.649C137.199 136.416 137.293 136.189 137.306 135.969L137.839 136.568C137.807 136.757 137.722 136.966 137.583 137.195C137.443 137.424 137.257 137.644 137.023 137.855C136.794 138.062 136.52 138.235 136.201 138.374C135.887 138.509 135.532 138.576 135.137 138.576C134.643 138.576 134.209 138.48 133.837 138.286C133.468 138.093 133.181 137.835 132.974 137.512C132.772 137.184 132.671 136.818 132.671 136.413C132.671 136.023 132.747 135.679 132.9 135.383C133.053 135.082 133.273 134.832 133.56 134.635C133.848 134.432 134.194 134.28 134.598 134.176C135.002 134.073 135.454 134.021 135.952 134.021H137.401ZM143.31 137.552C143.606 137.552 143.88 137.491 144.132 137.37C144.383 137.249 144.59 137.083 144.752 136.872C144.913 136.656 145.005 136.411 145.028 136.137H146.214C146.191 136.568 146.045 136.97 145.776 137.343C145.511 137.711 145.163 138.01 144.731 138.239C144.3 138.464 143.826 138.576 143.31 138.576C142.762 138.576 142.283 138.48 141.875 138.286C141.47 138.093 141.133 137.828 140.864 137.491C140.599 137.155 140.399 136.768 140.264 136.333C140.134 135.892 140.069 135.427 140.069 134.938V134.655C140.069 134.165 140.134 133.703 140.264 133.267C140.399 132.827 140.599 132.438 140.864 132.101C141.133 131.764 141.47 131.499 141.875 131.306C142.283 131.113 142.762 131.016 143.31 131.016C143.88 131.016 144.379 131.133 144.805 131.367C145.232 131.596 145.567 131.91 145.809 132.31C146.056 132.705 146.191 133.155 146.214 133.658H145.028C145.005 133.357 144.92 133.085 144.772 132.842C144.628 132.6 144.43 132.407 144.179 132.263C143.932 132.115 143.642 132.041 143.31 132.041C142.928 132.041 142.607 132.117 142.346 132.27C142.09 132.418 141.886 132.62 141.733 132.876C141.585 133.128 141.477 133.408 141.41 133.718C141.347 134.024 141.315 134.336 141.315 134.655V134.938C141.315 135.257 141.347 135.571 141.41 135.881C141.473 136.191 141.578 136.472 141.726 136.723C141.879 136.975 142.083 137.177 142.339 137.33C142.6 137.478 142.923 137.552 143.31 137.552ZM148.868 128.092V138.441H147.615V128.092H148.868ZM153.322 131.151L150.142 134.554L148.363 136.4L148.262 135.073L149.535 133.55L151.799 131.151H153.322ZM152.183 138.441L149.582 134.965L150.229 133.853L153.652 138.441H152.183ZM157.499 138.576C156.992 138.576 156.531 138.491 156.118 138.32C155.709 138.145 155.357 137.9 155.06 137.586C154.768 137.271 154.544 136.898 154.386 136.467C154.229 136.036 154.151 135.564 154.151 135.052V134.769C154.151 134.176 154.238 133.649 154.413 133.186C154.589 132.719 154.827 132.324 155.128 132C155.429 131.677 155.77 131.432 156.152 131.266C156.533 131.1 156.929 131.016 157.338 131.016C157.859 131.016 158.308 131.106 158.685 131.286C159.067 131.466 159.379 131.717 159.622 132.041C159.864 132.36 160.044 132.737 160.161 133.173C160.277 133.604 160.336 134.075 160.336 134.587V135.147H154.892V134.129H159.089V134.035C159.071 133.712 159.004 133.397 158.887 133.092C158.775 132.786 158.595 132.535 158.348 132.337C158.101 132.139 157.764 132.041 157.338 132.041C157.055 132.041 156.794 132.101 156.556 132.223C156.318 132.339 156.114 132.515 155.943 132.748C155.772 132.982 155.64 133.267 155.545 133.604C155.451 133.941 155.404 134.329 155.404 134.769V135.052C155.404 135.398 155.451 135.724 155.545 136.029C155.644 136.33 155.786 136.595 155.97 136.824C156.158 137.053 156.385 137.233 156.65 137.363C156.92 137.494 157.225 137.559 157.567 137.559C158.007 137.559 158.38 137.469 158.685 137.289C158.99 137.11 159.258 136.869 159.487 136.568L160.241 137.168C160.084 137.406 159.884 137.633 159.642 137.848C159.399 138.064 159.101 138.239 158.746 138.374C158.395 138.509 157.98 138.576 157.499 138.576ZM166.386 137.026V128.092H167.639V138.441H166.494L166.386 137.026ZM161.481 134.877V134.736C161.481 134.179 161.549 133.673 161.683 133.22C161.823 132.762 162.018 132.369 162.269 132.041C162.526 131.713 162.829 131.461 163.179 131.286C163.534 131.106 163.929 131.016 164.365 131.016C164.823 131.016 165.223 131.097 165.564 131.259C165.91 131.416 166.202 131.648 166.44 131.953C166.683 132.254 166.874 132.618 167.013 133.045C167.152 133.471 167.249 133.954 167.303 134.493V135.113C167.253 135.648 167.157 136.128 167.013 136.555C166.874 136.982 166.683 137.345 166.44 137.646C166.202 137.947 165.91 138.179 165.564 138.34C165.218 138.498 164.814 138.576 164.351 138.576C163.925 138.576 163.534 138.484 163.179 138.3C162.829 138.116 162.526 137.857 162.269 137.525C162.018 137.193 161.823 136.802 161.683 136.353C161.549 135.899 161.481 135.407 161.481 134.877ZM162.734 134.736V134.877C162.734 135.241 162.77 135.582 162.842 135.901C162.919 136.22 163.035 136.501 163.193 136.744C163.35 136.986 163.55 137.177 163.792 137.316C164.035 137.451 164.324 137.518 164.661 137.518C165.075 137.518 165.414 137.431 165.679 137.256C165.948 137.08 166.164 136.849 166.326 136.562C166.487 136.274 166.613 135.962 166.703 135.625V134.001C166.649 133.754 166.57 133.516 166.467 133.287C166.368 133.054 166.238 132.847 166.076 132.667C165.919 132.483 165.724 132.337 165.49 132.229C165.261 132.121 164.989 132.068 164.675 132.068C164.333 132.068 164.039 132.139 163.792 132.283C163.55 132.422 163.35 132.616 163.193 132.863C163.035 133.105 162.919 133.388 162.842 133.712C162.77 134.03 162.734 134.372 162.734 134.736ZM177.463 136.757V131.151H178.716V138.441H177.524L177.463 136.757ZM177.699 135.221L178.218 135.207C178.218 135.692 178.166 136.142 178.063 136.555C177.964 136.964 177.802 137.318 177.577 137.619C177.353 137.92 177.059 138.156 176.695 138.327C176.331 138.493 175.889 138.576 175.368 138.576C175.013 138.576 174.687 138.525 174.391 138.421C174.099 138.318 173.847 138.158 173.636 137.943C173.425 137.727 173.261 137.446 173.144 137.101C173.032 136.755 172.976 136.339 172.976 135.854V131.151H174.222V135.868C174.222 136.196 174.258 136.467 174.33 136.683C174.406 136.894 174.507 137.062 174.633 137.188C174.763 137.309 174.907 137.395 175.064 137.444C175.226 137.494 175.392 137.518 175.563 137.518C176.093 137.518 176.513 137.417 176.823 137.215C177.133 137.009 177.355 136.732 177.49 136.386C177.629 136.036 177.699 135.648 177.699 135.221ZM181.863 132.553V141.244H180.609V131.151H181.755L181.863 132.553ZM186.774 134.736V134.877C186.774 135.407 186.711 135.899 186.586 136.353C186.46 136.802 186.276 137.193 186.033 137.525C185.795 137.857 185.501 138.116 185.151 138.3C184.8 138.484 184.398 138.576 183.945 138.576C183.482 138.576 183.073 138.5 182.718 138.347C182.363 138.194 182.063 137.972 181.815 137.68C181.568 137.388 181.371 137.038 181.223 136.629C181.079 136.22 180.98 135.76 180.926 135.248V134.493C180.98 133.954 181.081 133.471 181.229 133.045C181.378 132.618 181.573 132.254 181.815 131.953C182.063 131.648 182.361 131.416 182.712 131.259C183.062 131.097 183.466 131.016 183.924 131.016C184.383 131.016 184.789 131.106 185.144 131.286C185.499 131.461 185.797 131.713 186.04 132.041C186.283 132.369 186.464 132.762 186.586 133.22C186.711 133.673 186.774 134.179 186.774 134.736ZM185.521 134.877V134.736C185.521 134.372 185.483 134.03 185.407 133.712C185.33 133.388 185.211 133.105 185.05 132.863C184.892 132.616 184.69 132.422 184.443 132.283C184.196 132.139 183.902 132.068 183.561 132.068C183.246 132.068 182.972 132.121 182.739 132.229C182.509 132.337 182.314 132.483 182.152 132.667C181.991 132.847 181.858 133.054 181.755 133.287C181.656 133.516 181.582 133.754 181.532 134.001V135.746C181.622 136.061 181.748 136.357 181.91 136.636C182.071 136.91 182.287 137.132 182.557 137.303C182.826 137.469 183.165 137.552 183.574 137.552C183.911 137.552 184.201 137.482 184.443 137.343C184.69 137.199 184.892 137.004 185.05 136.757C185.211 136.51 185.33 136.227 185.407 135.908C185.483 135.585 185.521 135.241 185.521 134.877Z" fill="black"/>
<path d="M13.1423 153.58V160.715H12.1965V153.58H13.1423ZM16.391 160.715H15.4845V154.854C15.4845 154.472 15.5531 154.15 15.6903 153.889C15.8308 153.624 16.0317 153.425 16.293 153.291C16.5544 153.154 16.8647 153.085 17.2241 153.085C17.3286 153.085 17.4331 153.092 17.5377 153.105C17.6455 153.118 17.75 153.138 17.8513 153.164L17.8023 153.904C17.7337 153.887 17.6553 153.876 17.5671 153.869C17.4821 153.863 17.3972 153.86 17.3123 153.86C17.1195 153.86 16.9529 153.899 16.8124 153.977C16.6752 154.052 16.5707 154.163 16.4988 154.31C16.427 154.457 16.391 154.639 16.391 154.854V160.715ZM17.5181 155.413V156.109H14.6466V155.413H17.5181ZM23.1336 160.166L24.6085 155.413H25.5788L23.4521 161.533C23.4031 161.664 23.3378 161.804 23.2561 161.955C23.1777 162.108 23.0764 162.253 22.9523 162.391C22.8282 162.528 22.6779 162.639 22.5015 162.724C22.3284 162.812 22.1209 162.856 21.8792 162.856C21.8073 162.856 21.7158 162.846 21.6048 162.827C21.4937 162.807 21.4153 162.791 21.3696 162.778L21.3647 162.043C21.3908 162.046 21.4316 162.049 21.4872 162.053C21.546 162.059 21.5868 162.062 21.6097 162.062C21.8155 162.062 21.9902 162.035 22.134 161.979C22.2777 161.927 22.3986 161.837 22.4966 161.71C22.5979 161.585 22.6844 161.414 22.7563 161.195L23.1336 160.166ZM22.0507 155.413L23.4276 159.529L23.6628 160.485L23.0111 160.818L21.0609 155.413H22.0507ZM26.3922 158.123V158.01C26.3922 157.628 26.4477 157.273 26.5588 156.947C26.6699 156.617 26.8299 156.331 27.039 156.089C27.2481 155.844 27.5012 155.655 27.7985 155.521C28.0958 155.384 28.429 155.315 28.7981 155.315C29.1706 155.315 29.5054 155.384 29.8027 155.521C30.1032 155.655 30.358 155.844 30.5671 156.089C30.7794 156.331 30.9411 156.617 31.0522 156.947C31.1633 157.273 31.2188 157.628 31.2188 158.01V158.123C31.2188 158.505 31.1633 158.859 31.0522 159.186C30.9411 159.513 30.7794 159.799 30.5671 160.044C30.358 160.285 30.1048 160.475 29.8076 160.612C29.5136 160.746 29.1804 160.813 28.8079 160.813C28.4355 160.813 28.1007 160.746 27.8034 160.612C27.5061 160.475 27.2513 160.285 27.039 160.044C26.8299 159.799 26.6699 159.513 26.5588 159.186C26.4477 158.859 26.3922 158.505 26.3922 158.123ZM27.2987 158.01V158.123C27.2987 158.387 27.3297 158.637 27.3918 158.872C27.4539 159.104 27.547 159.31 27.6711 159.49C27.7985 159.669 27.957 159.812 28.1464 159.916C28.3359 160.017 28.5564 160.068 28.8079 160.068C29.0562 160.068 29.2735 160.017 29.4597 159.916C29.6491 159.812 29.8059 159.669 29.9301 159.49C30.0542 159.31 30.1473 159.104 30.2094 158.872C30.2747 158.637 30.3074 158.387 30.3074 158.123V158.01C30.3074 157.749 30.2747 157.502 30.2094 157.27C30.1473 157.035 30.0526 156.827 29.9252 156.648C29.801 156.465 29.6442 156.321 29.4548 156.217C29.2686 156.112 29.0497 156.06 28.7981 156.06C28.5499 156.06 28.331 156.112 28.1415 156.217C27.9553 156.321 27.7985 156.465 27.6711 156.648C27.547 156.827 27.4539 157.035 27.3918 157.27C27.3297 157.502 27.2987 157.749 27.2987 158.01ZM35.9131 159.49V155.413H36.8245V160.715H35.9572L35.9131 159.49ZM36.0846 158.373L36.4619 158.363C36.4619 158.716 36.4244 159.042 36.3492 159.343C36.2774 159.64 36.1598 159.898 35.9964 160.117C35.8331 160.336 35.6191 160.507 35.3545 160.632C35.0899 160.752 34.7681 160.813 34.3892 160.813C34.1311 160.813 33.8943 160.775 33.6787 160.7C33.4663 160.625 33.2834 160.509 33.1299 160.352C32.9763 160.195 32.8571 159.991 32.7721 159.74C32.6905 159.488 32.6496 159.186 32.6496 158.833V155.413H33.5562V158.843C33.5562 159.081 33.5823 159.279 33.6346 159.436C33.6901 159.589 33.7636 159.712 33.8551 159.803C33.9498 159.892 34.0543 159.954 34.1687 159.99C34.2863 160.026 34.4072 160.044 34.5313 160.044C34.9168 160.044 35.2222 159.97 35.4476 159.823C35.673 159.673 35.8347 159.472 35.9327 159.22C36.034 158.966 36.0846 158.683 36.0846 158.373ZM39.5049 153.188V160.715H38.5935V153.188H39.5049ZM41.0338 158.123V158.01C41.0338 157.628 41.0893 157.273 41.2004 156.947C41.3114 156.617 41.4715 156.331 41.6806 156.089C41.8896 155.844 42.1428 155.655 42.4401 155.521C42.7374 155.384 43.0706 155.315 43.4397 155.315C43.8121 155.315 44.147 155.384 44.4442 155.521C44.7448 155.655 44.9996 155.844 45.2087 156.089C45.421 156.331 45.5827 156.617 45.6938 156.947C45.8048 157.273 45.8604 157.628 45.8604 158.01V158.123C45.8604 158.505 45.8048 158.859 45.6938 159.186C45.5827 159.513 45.421 159.799 45.2087 160.044C44.9996 160.285 44.7464 160.475 44.4491 160.612C44.1551 160.746 43.8219 160.813 43.4495 160.813C43.0771 160.813 42.7423 160.746 42.445 160.612C42.1477 160.475 41.8929 160.285 41.6806 160.044C41.4715 159.799 41.3114 159.513 41.2004 159.186C41.0893 158.859 41.0338 158.505 41.0338 158.123ZM41.9403 158.01V158.123C41.9403 158.387 41.9713 158.637 42.0334 158.872C42.0954 159.104 42.1885 159.31 42.3127 159.49C42.4401 159.669 42.5985 159.812 42.788 159.916C42.9775 160.017 43.198 160.068 43.4495 160.068C43.6978 160.068 43.915 160.017 44.1012 159.916C44.2907 159.812 44.4475 159.669 44.5716 159.49C44.6958 159.31 44.7889 159.104 44.8509 158.872C44.9163 158.637 44.9489 158.387 44.9489 158.123V158.01C44.9489 157.749 44.9163 157.502 44.8509 157.27C44.7889 157.035 44.6941 156.827 44.5667 156.648C44.4426 156.465 44.2858 156.321 44.0963 156.217C43.9101 156.112 43.6912 156.06 43.4397 156.06C43.1914 156.06 42.9726 156.112 42.7831 156.217C42.5969 156.321 42.4401 156.465 42.3127 156.648C42.1885 156.827 42.0954 157.035 42.0334 157.27C41.9713 157.502 41.9403 157.749 41.9403 158.01ZM50.3979 159.309C50.3979 159.178 50.3685 159.057 50.3097 158.946C50.2541 158.832 50.1382 158.729 49.9618 158.637C49.7886 158.542 49.5273 158.461 49.1778 158.392C48.8837 158.33 48.6175 158.257 48.379 158.172C48.1438 158.087 47.9429 157.984 47.7763 157.863C47.613 157.742 47.4872 157.6 47.399 157.437C47.3108 157.273 47.2667 157.082 47.2667 156.863C47.2667 156.654 47.3124 156.457 47.4039 156.27C47.4986 156.084 47.6309 155.919 47.8008 155.776C47.974 155.632 48.1814 155.519 48.4231 155.437C48.6649 155.356 48.9344 155.315 49.2317 155.315C49.6563 155.315 50.0189 155.39 50.3195 155.54C50.62 155.691 50.8503 155.891 51.0104 156.143C51.1705 156.391 51.2505 156.667 51.2505 156.971H50.344C50.344 156.824 50.2999 156.682 50.2117 156.545C50.1267 156.404 50.001 156.288 49.8344 156.197C49.671 156.105 49.4701 156.06 49.2317 156.06C48.9801 156.06 48.7759 156.099 48.6191 156.177C48.4656 156.252 48.3529 156.349 48.281 156.466C48.2124 156.584 48.1781 156.708 48.1781 156.839C48.1781 156.937 48.1945 157.025 48.2271 157.103C48.2631 157.179 48.3251 157.249 48.4133 157.314C48.5015 157.376 48.6257 157.435 48.7857 157.491C48.9458 157.546 49.15 157.602 49.3983 157.657C49.8327 157.755 50.1904 157.873 50.4714 158.01C50.7523 158.147 50.9614 158.315 51.0986 158.515C51.2358 158.714 51.3044 158.956 51.3044 159.24C51.3044 159.472 51.2554 159.684 51.1574 159.877C51.0627 160.07 50.9238 160.236 50.7409 160.377C50.5612 160.514 50.3456 160.622 50.0941 160.7C49.8458 160.775 49.5665 160.813 49.2562 160.813C48.789 160.813 48.3937 160.73 48.0703 160.563C47.7469 160.396 47.5019 160.181 47.3353 159.916C47.1687 159.652 47.0854 159.372 47.0854 159.078H47.9968C48.0099 159.326 48.0818 159.524 48.2124 159.671C48.3431 159.815 48.5032 159.918 48.6926 159.98C48.8821 160.039 49.0699 160.068 49.2562 160.068C49.5044 160.068 49.7119 160.035 49.8785 159.97C50.0483 159.905 50.1774 159.815 50.2656 159.701C50.3538 159.586 50.3979 159.456 50.3979 159.309ZM55.0089 160.813C54.6398 160.813 54.3049 160.751 54.0044 160.627C53.7071 160.499 53.4507 160.321 53.2351 160.093C53.0227 159.864 52.8594 159.593 52.745 159.279C52.6307 158.966 52.5735 158.622 52.5735 158.25V158.044C52.5735 157.613 52.6372 157.229 52.7646 156.893C52.892 156.553 53.0652 156.266 53.2841 156.03C53.5029 155.795 53.7512 155.617 54.0289 155.496C54.3065 155.375 54.594 155.315 54.8913 155.315C55.2702 155.315 55.5969 155.38 55.8713 155.511C56.149 155.642 56.376 155.825 56.5524 156.06C56.7288 156.292 56.8595 156.566 56.9444 156.883C57.0294 157.197 57.0718 157.54 57.0718 157.912V158.319H53.1125V157.579H56.1653V157.51C56.1523 157.275 56.1033 157.046 56.0183 156.824C55.9367 156.602 55.806 156.419 55.6263 156.275C55.4466 156.132 55.2016 156.06 54.8913 156.06C54.6855 156.06 54.496 156.104 54.3229 156.192C54.1497 156.277 54.0011 156.404 53.877 156.574C53.7528 156.744 53.6565 156.952 53.5879 157.197C53.5193 157.442 53.485 157.724 53.485 158.044V158.25C53.485 158.502 53.5193 158.738 53.5879 158.961C53.6597 159.179 53.7626 159.372 53.8966 159.539C54.0338 159.705 54.1987 159.836 54.3915 159.931C54.5875 160.026 54.8096 160.073 55.0579 160.073C55.378 160.073 55.6492 160.008 55.8713 159.877C56.0935 159.746 56.2878 159.571 56.4544 159.353L57.0032 159.789C56.8889 159.962 56.7435 160.127 56.5671 160.284C56.3907 160.44 56.1735 160.568 55.9154 160.666C55.6606 160.764 55.3584 160.813 55.0089 160.813ZM63.4665 155.413V156.109H60.5999V155.413H63.4665ZM61.5702 154.124H62.4767V159.402C62.4767 159.581 62.5045 159.717 62.56 159.808C62.6155 159.9 62.6874 159.96 62.7756 159.99C62.8638 160.019 62.9585 160.034 63.0598 160.034C63.1349 160.034 63.2133 160.027 63.295 160.014C63.3799 159.998 63.4436 159.985 63.4861 159.975L63.491 160.715C63.4191 160.738 63.3244 160.759 63.2068 160.779C63.0925 160.801 62.9536 160.813 62.7903 160.813C62.5682 160.813 62.364 160.769 62.1778 160.681C61.9916 160.592 61.8429 160.445 61.7319 160.24C61.6241 160.03 61.5702 159.75 61.5702 159.397V154.124ZM65.75 153.188V160.715H64.8434V153.188H65.75ZM65.5344 157.863L65.157 157.848C65.1603 157.486 65.2142 157.151 65.3188 156.844C65.4233 156.533 65.5703 156.264 65.7598 156.035C65.9492 155.807 66.1746 155.63 66.436 155.506C66.7006 155.379 66.993 155.315 67.3131 155.315C67.5744 155.315 67.8096 155.351 68.0187 155.423C68.2278 155.491 68.4058 155.602 68.5528 155.756C68.7031 155.909 68.8174 156.109 68.8958 156.354C68.9742 156.595 69.0134 156.891 69.0134 157.241V160.715H68.102V157.231C68.102 156.953 68.0612 156.731 67.9795 156.564C67.8978 156.395 67.7786 156.272 67.6218 156.197C67.465 156.119 67.2723 156.079 67.0436 156.079C66.8182 156.079 66.6124 156.127 66.4262 156.221C66.2432 156.316 66.0848 156.447 65.9509 156.613C65.8202 156.78 65.7173 156.971 65.6422 157.187C65.5703 157.399 65.5344 157.625 65.5344 157.863ZM71.6693 155.413V160.715H70.7579V155.413H71.6693ZM70.6893 154.007C70.6893 153.86 70.7334 153.735 70.8216 153.634C70.9131 153.533 71.047 153.482 71.2234 153.482C71.3965 153.482 71.5288 153.533 71.6203 153.634C71.715 153.735 71.7624 153.86 71.7624 154.007C71.7624 154.147 71.715 154.268 71.6203 154.369C71.5288 154.467 71.3965 154.516 71.2234 154.516C71.047 154.516 70.9131 154.467 70.8216 154.369C70.7334 154.268 70.6893 154.147 70.6893 154.007ZM76.5253 159.309C76.5253 159.178 76.4959 159.057 76.4371 158.946C76.3816 158.832 76.2656 158.729 76.0892 158.637C75.9161 158.542 75.6547 158.461 75.3052 158.392C75.0112 158.33 74.745 158.257 74.5065 158.172C74.2713 158.087 74.0704 157.984 73.9038 157.863C73.7404 157.742 73.6147 157.6 73.5265 157.437C73.4383 157.273 73.3942 157.082 73.3942 156.863C73.3942 156.654 73.4399 156.457 73.5314 156.27C73.6261 156.084 73.7584 155.919 73.9283 155.776C74.1014 155.632 74.3088 155.519 74.5506 155.437C74.7923 155.356 75.0618 155.315 75.3591 155.315C75.7838 155.315 76.1464 155.39 76.4469 155.54C76.7475 155.691 76.9778 155.891 77.1378 156.143C77.2979 156.391 77.378 156.667 77.378 156.971H76.4714C76.4714 156.824 76.4273 156.682 76.3391 156.545C76.2542 156.404 76.1284 156.288 75.9618 156.197C75.7985 156.105 75.5976 156.06 75.3591 156.06C75.1076 156.06 74.9034 156.099 74.7466 156.177C74.593 156.252 74.4803 156.349 74.4085 156.466C74.3399 156.584 74.3056 156.708 74.3056 156.839C74.3056 156.937 74.3219 157.025 74.3546 157.103C74.3905 157.179 74.4526 157.249 74.5408 157.314C74.629 157.376 74.7531 157.435 74.9132 157.491C75.0733 157.546 75.2774 157.602 75.5257 157.657C75.9602 157.755 76.3179 157.873 76.5988 158.01C76.8798 158.147 77.0888 158.315 77.226 158.515C77.3633 158.714 77.4319 158.956 77.4319 159.24C77.4319 159.472 77.3829 159.684 77.2848 159.877C77.1901 160.07 77.0513 160.236 76.8683 160.377C76.6887 160.514 76.4731 160.622 76.2215 160.7C75.9733 160.775 75.6939 160.813 75.3836 160.813C74.9165 160.813 74.5212 160.73 74.1978 160.563C73.8744 160.396 73.6294 160.181 73.4628 159.916C73.2962 159.652 73.2128 159.372 73.2128 159.078H74.1243C74.1373 159.326 74.2092 159.524 74.3399 159.671C74.4705 159.815 74.6306 159.918 74.8201 159.98C75.0096 160.039 75.1974 160.068 75.3836 160.068C75.6319 160.068 75.8393 160.035 76.0059 159.97C76.1758 159.905 76.3048 159.815 76.393 159.701C76.4812 159.586 76.5253 159.456 76.5253 159.309ZM85.0809 159.686V153.188H85.9924V160.715H85.1593L85.0809 159.686ZM81.5137 158.123V158.02C81.5137 157.615 81.5627 157.247 81.6607 156.917C81.7619 156.584 81.904 156.298 82.087 156.06C82.2732 155.821 82.4937 155.638 82.7485 155.511C83.0066 155.38 83.294 155.315 83.6109 155.315C83.9441 155.315 84.2349 155.374 84.4831 155.491C84.7347 155.606 84.947 155.774 85.1201 155.996C85.2965 156.215 85.4354 156.48 85.5367 156.79C85.6379 157.1 85.7082 157.451 85.7474 157.843V158.294C85.7114 158.683 85.6412 159.032 85.5367 159.343C85.4354 159.653 85.2965 159.918 85.1201 160.137C84.947 160.356 84.7347 160.524 84.4831 160.641C84.2316 160.756 83.9376 160.813 83.6011 160.813C83.2908 160.813 83.0066 160.746 82.7485 160.612C82.4937 160.478 82.2732 160.29 82.087 160.048C81.904 159.807 81.7619 159.522 81.6607 159.196C81.5627 158.866 81.5137 158.508 81.5137 158.123ZM82.4251 158.02V158.123C82.4251 158.387 82.4512 158.636 82.5035 158.867C82.559 159.099 82.6439 159.304 82.7583 159.48C82.8726 159.656 83.018 159.795 83.1944 159.897C83.3708 159.995 83.5815 160.044 83.8265 160.044C84.1271 160.044 84.3737 159.98 84.5664 159.852C84.7624 159.725 84.9192 159.557 85.0368 159.348C85.1544 159.139 85.2459 158.912 85.3112 158.667V157.486C85.272 157.306 85.2149 157.133 85.1397 156.966C85.0679 156.796 84.9731 156.646 84.8555 156.515C84.7412 156.382 84.5991 156.275 84.4292 156.197C84.2626 156.119 84.065 156.079 83.8363 156.079C83.588 156.079 83.3741 156.132 83.1944 156.236C83.018 156.337 82.8726 156.478 82.7583 156.658C82.6439 156.834 82.559 157.04 82.5035 157.275C82.4512 157.507 82.4251 157.755 82.4251 158.02ZM89.9174 160.813C89.5482 160.813 89.2134 160.751 88.9128 160.627C88.6156 160.499 88.3591 160.321 88.1435 160.093C87.9312 159.864 87.7678 159.593 87.6535 159.279C87.5392 158.966 87.482 158.622 87.482 158.25V158.044C87.482 157.613 87.5457 157.229 87.6731 156.893C87.8005 156.553 87.9736 156.266 88.1925 156.03C88.4114 155.795 88.6597 155.617 88.9373 155.496C89.215 155.375 89.5025 155.315 89.7998 155.315C90.1787 155.315 90.5054 155.38 90.7798 155.511C91.0575 155.642 91.2845 155.825 91.4609 156.06C91.6373 156.292 91.768 156.566 91.8529 156.883C91.9378 157.197 91.9803 157.54 91.9803 157.912V158.319H88.021V157.579H91.0738V157.51C91.0607 157.275 91.0117 157.046 90.9268 156.824C90.8451 156.602 90.7144 156.419 90.5348 156.275C90.3551 156.132 90.1101 156.06 89.7998 156.06C89.594 156.06 89.4045 156.104 89.2313 156.192C89.0582 156.277 88.9096 156.404 88.7854 156.574C88.6613 156.744 88.5649 156.952 88.4963 157.197C88.4277 157.442 88.3934 157.724 88.3934 158.044V158.25C88.3934 158.502 88.4277 158.738 88.4963 158.961C88.5682 159.179 88.6711 159.372 88.805 159.539C88.9422 159.705 89.1072 159.836 89.2999 159.931C89.496 160.026 89.7181 160.073 89.9664 160.073C90.2865 160.073 90.5576 160.008 90.7798 159.877C91.0019 159.746 91.1963 159.571 91.3629 159.353L91.9117 159.789C91.7974 159.962 91.652 160.127 91.4756 160.284C91.2992 160.44 91.082 160.568 90.8239 160.666C90.5691 160.764 90.2669 160.813 89.9174 160.813ZM94.8959 159.897L96.3463 155.413H97.2724L95.3663 160.715H94.7587L94.8959 159.897ZM93.6856 155.413L95.1801 159.921L95.283 160.715H94.6754L92.7545 155.413H93.6856ZM99.4432 155.413V160.715H98.5318V155.413H99.4432ZM98.4632 154.007C98.4632 153.86 98.5073 153.735 98.5955 153.634C98.6869 153.533 98.8209 153.482 98.9973 153.482C99.1704 153.482 99.3027 153.533 99.3942 153.634C99.4889 153.735 99.5363 153.86 99.5363 154.007C99.5363 154.147 99.4889 154.268 99.3942 154.369C99.3027 154.467 99.1704 154.516 98.9973 154.516C98.8209 154.516 98.6869 154.467 98.5955 154.369C98.5073 154.268 98.4632 154.147 98.4632 154.007ZM103.334 160.068C103.55 160.068 103.749 160.024 103.932 159.936C104.115 159.848 104.265 159.727 104.383 159.573C104.5 159.416 104.567 159.238 104.583 159.039H105.446C105.43 159.353 105.323 159.645 105.127 159.916C104.935 160.184 104.681 160.401 104.368 160.568C104.054 160.731 103.71 160.813 103.334 160.813C102.935 160.813 102.587 160.743 102.29 160.602C101.996 160.462 101.751 160.269 101.555 160.024C101.362 159.779 101.217 159.498 101.119 159.181C101.024 158.861 100.977 158.523 100.977 158.167V157.961C100.977 157.605 101.024 157.268 101.119 156.952C101.217 156.631 101.362 156.349 101.555 156.104C101.751 155.859 101.996 155.666 102.29 155.526C102.587 155.385 102.935 155.315 103.334 155.315C103.749 155.315 104.111 155.4 104.422 155.57C104.732 155.736 104.975 155.965 105.152 156.256C105.332 156.543 105.43 156.87 105.446 157.236H104.583C104.567 157.017 104.505 156.819 104.397 156.643C104.293 156.466 104.149 156.326 103.966 156.221C103.786 156.114 103.576 156.06 103.334 156.06C103.056 156.06 102.823 156.115 102.633 156.226C102.447 156.334 102.298 156.481 102.187 156.667C102.079 156.85 102.001 157.054 101.952 157.28C101.906 157.502 101.883 157.729 101.883 157.961V158.167C101.883 158.399 101.906 158.627 101.952 158.853C101.998 159.078 102.075 159.282 102.182 159.465C102.293 159.648 102.442 159.795 102.628 159.906C102.818 160.014 103.053 160.068 103.334 160.068ZM108.979 160.813C108.61 160.813 108.275 160.751 107.974 160.627C107.677 160.499 107.421 160.321 107.205 160.093C106.993 159.864 106.829 159.593 106.715 159.279C106.601 158.966 106.543 158.622 106.543 158.25V158.044C106.543 157.613 106.607 157.229 106.735 156.893C106.862 156.553 107.035 156.266 107.254 156.03C107.473 155.795 107.721 155.617 107.999 155.496C108.276 155.375 108.564 155.315 108.861 155.315C109.24 155.315 109.567 155.38 109.841 155.511C110.119 155.642 110.346 155.825 110.522 156.06C110.699 156.292 110.829 156.566 110.914 156.883C110.999 157.197 111.042 157.54 111.042 157.912V158.319H107.082V157.579H110.135V157.51C110.122 157.275 110.073 157.046 109.988 156.824C109.907 156.602 109.776 156.419 109.596 156.275C109.417 156.132 109.172 156.06 108.861 156.06C108.655 156.06 108.466 156.104 108.293 156.192C108.12 156.277 107.971 156.404 107.847 156.574C107.723 156.744 107.626 156.952 107.558 157.197C107.489 157.442 107.455 157.724 107.455 158.044V158.25C107.455 158.502 107.489 158.738 107.558 158.961C107.63 159.179 107.733 159.372 107.867 159.539C108.004 159.705 108.169 159.836 108.361 159.931C108.557 160.026 108.78 160.073 109.028 160.073C109.348 160.073 109.619 160.008 109.841 159.877C110.063 159.746 110.258 159.571 110.424 159.353L110.973 159.789C110.859 159.962 110.713 160.127 110.537 160.284C110.361 160.44 110.143 160.568 109.885 160.666C109.631 160.764 109.328 160.813 108.979 160.813ZM113.237 159.637V160.367C113.237 160.664 113.162 160.978 113.012 161.308C112.861 161.641 112.651 161.919 112.38 162.141L111.865 161.783C111.97 161.639 112.058 161.492 112.13 161.342C112.201 161.195 112.255 161.042 112.291 160.881C112.331 160.725 112.35 160.558 112.35 160.382V159.637H113.237ZM119 160.166L120.475 155.413H121.445L119.318 161.533C119.269 161.664 119.204 161.804 119.122 161.955C119.044 162.108 118.942 162.253 118.818 162.391C118.694 162.528 118.544 162.639 118.367 162.724C118.194 162.812 117.987 162.856 117.745 162.856C117.673 162.856 117.582 162.846 117.471 162.827C117.36 162.807 117.281 162.791 117.236 162.778L117.231 162.043C117.257 162.046 117.298 162.049 117.353 162.053C117.412 162.059 117.453 162.062 117.476 162.062C117.681 162.062 117.856 162.035 118 161.979C118.144 161.927 118.265 161.837 118.363 161.71C118.464 161.585 118.55 161.414 118.622 161.195L119 160.166ZM117.917 155.413L119.294 159.529L119.529 160.485L118.877 160.818L116.927 155.413H117.917ZM122.258 158.123V158.01C122.258 157.628 122.314 157.273 122.425 156.947C122.536 156.617 122.696 156.331 122.905 156.089C123.114 155.844 123.367 155.655 123.665 155.521C123.962 155.384 124.295 155.315 124.664 155.315C125.037 155.315 125.371 155.384 125.669 155.521C125.969 155.655 126.224 155.844 126.433 156.089C126.645 156.331 126.807 156.617 126.918 156.947C127.029 157.273 127.085 157.628 127.085 158.01V158.123C127.085 158.505 127.029 158.859 126.918 159.186C126.807 159.513 126.645 159.799 126.433 160.044C126.224 160.285 125.971 160.475 125.674 160.612C125.38 160.746 125.046 160.813 124.674 160.813C124.302 160.813 123.967 160.746 123.669 160.612C123.372 160.475 123.117 160.285 122.905 160.044C122.696 159.799 122.536 159.513 122.425 159.186C122.314 158.859 122.258 158.505 122.258 158.123ZM123.165 158.01V158.123C123.165 158.387 123.196 158.637 123.258 158.872C123.32 159.104 123.413 159.31 123.537 159.49C123.665 159.669 123.823 159.812 124.012 159.916C124.202 160.017 124.422 160.068 124.674 160.068C124.922 160.068 125.139 160.017 125.326 159.916C125.515 159.812 125.672 159.669 125.796 159.49C125.92 159.31 126.013 159.104 126.075 158.872C126.141 158.637 126.173 158.387 126.173 158.123V158.01C126.173 157.749 126.141 157.502 126.075 157.27C126.013 157.035 125.919 156.827 125.791 156.648C125.667 156.465 125.51 156.321 125.321 156.217C125.135 156.112 124.916 156.06 124.664 156.06C124.416 156.06 124.197 156.112 124.008 156.217C123.821 156.321 123.665 156.465 123.537 156.648C123.413 156.827 123.32 157.035 123.258 157.27C123.196 157.502 123.165 157.749 123.165 158.01ZM131.779 159.49V155.413H132.691V160.715H131.823L131.779 159.49ZM131.951 158.373L132.328 158.363C132.328 158.716 132.29 159.042 132.215 159.343C132.143 159.64 132.026 159.898 131.862 160.117C131.699 160.336 131.485 160.507 131.22 160.632C130.956 160.752 130.634 160.813 130.255 160.813C129.997 160.813 129.76 160.775 129.545 160.7C129.332 160.625 129.149 160.509 128.996 160.352C128.842 160.195 128.723 159.991 128.638 159.74C128.556 159.488 128.516 159.186 128.516 158.833V155.413H129.422V158.843C129.422 159.081 129.448 159.279 129.501 159.436C129.556 159.589 129.63 159.712 129.721 159.803C129.816 159.892 129.92 159.954 130.035 159.99C130.152 160.026 130.273 160.044 130.397 160.044C130.783 160.044 131.088 159.97 131.314 159.823C131.539 159.673 131.701 159.472 131.799 159.22C131.9 158.966 131.951 158.683 131.951 158.373ZM139.311 160.068C139.526 160.068 139.725 160.024 139.908 159.936C140.091 159.848 140.242 159.727 140.359 159.573C140.477 159.416 140.544 159.238 140.56 159.039H141.423C141.406 159.353 141.3 159.645 141.104 159.916C140.911 160.184 140.658 160.401 140.345 160.568C140.031 160.731 139.686 160.813 139.311 160.813C138.912 160.813 138.564 160.743 138.267 160.602C137.973 160.462 137.728 160.269 137.532 160.024C137.339 159.779 137.194 159.498 137.096 159.181C137.001 158.861 136.954 158.523 136.954 158.167V157.961C136.954 157.605 137.001 157.268 137.096 156.952C137.194 156.631 137.339 156.349 137.532 156.104C137.728 155.859 137.973 155.666 138.267 155.526C138.564 155.385 138.912 155.315 139.311 155.315C139.725 155.315 140.088 155.4 140.398 155.57C140.709 155.736 140.952 155.965 141.129 156.256C141.308 156.543 141.406 156.87 141.423 157.236H140.56C140.544 157.017 140.482 156.819 140.374 156.643C140.269 156.466 140.126 156.326 139.943 156.221C139.763 156.114 139.552 156.06 139.311 156.06C139.033 156.06 138.799 156.115 138.61 156.226C138.424 156.334 138.275 156.481 138.164 156.667C138.056 156.85 137.978 157.054 137.929 157.28C137.883 157.502 137.86 157.729 137.86 157.961V158.167C137.86 158.399 137.883 158.627 137.929 158.853C137.974 159.078 138.051 159.282 138.159 159.465C138.27 159.648 138.419 159.795 138.605 159.906C138.794 160.014 139.03 160.068 139.311 160.068ZM145.882 159.808V157.079C145.882 156.87 145.839 156.689 145.754 156.535C145.673 156.378 145.548 156.257 145.382 156.172C145.215 156.087 145.009 156.045 144.764 156.045C144.536 156.045 144.335 156.084 144.162 156.163C143.992 156.241 143.858 156.344 143.76 156.471C143.665 156.599 143.618 156.736 143.618 156.883H142.711C142.711 156.693 142.76 156.506 142.858 156.319C142.956 156.133 143.097 155.965 143.28 155.815C143.466 155.661 143.688 155.54 143.946 155.452C144.207 155.361 144.498 155.315 144.818 155.315C145.204 155.315 145.544 155.38 145.838 155.511C146.135 155.642 146.367 155.839 146.533 156.104C146.703 156.365 146.788 156.693 146.788 157.089V159.558C146.788 159.735 146.803 159.923 146.832 160.122C146.865 160.321 146.912 160.493 146.974 160.636V160.715H146.029C145.983 160.61 145.947 160.471 145.921 160.298C145.895 160.122 145.882 159.959 145.882 159.808ZM146.038 157.5L146.048 158.137H145.132C144.874 158.137 144.644 158.159 144.441 158.201C144.238 158.24 144.069 158.301 143.931 158.382C143.794 158.464 143.69 158.567 143.618 158.691C143.546 158.812 143.51 158.954 143.51 159.117C143.51 159.284 143.548 159.436 143.623 159.573C143.698 159.71 143.811 159.82 143.961 159.901C144.114 159.98 144.302 160.019 144.524 160.019C144.802 160.019 145.047 159.96 145.259 159.843C145.472 159.725 145.64 159.581 145.764 159.411C145.891 159.242 145.96 159.077 145.97 158.916L146.357 159.353C146.334 159.49 146.272 159.642 146.171 159.808C146.069 159.975 145.934 160.135 145.764 160.289C145.597 160.439 145.398 160.565 145.166 160.666C144.938 160.764 144.679 160.813 144.392 160.813C144.033 160.813 143.717 160.743 143.446 160.602C143.178 160.462 142.969 160.274 142.819 160.039C142.672 159.8 142.599 159.534 142.599 159.24C142.599 158.956 142.654 158.706 142.765 158.49C142.876 158.271 143.036 158.09 143.245 157.946C143.454 157.799 143.706 157.688 144 157.613C144.294 157.538 144.622 157.5 144.985 157.5H146.038ZM149.434 156.545V160.715H148.528V155.413H149.385L149.434 156.545ZM149.219 157.863L148.841 157.848C148.845 157.486 148.898 157.151 149.003 156.844C149.108 156.533 149.255 156.264 149.444 156.035C149.634 155.807 149.859 155.63 150.12 155.506C150.385 155.379 150.677 155.315 150.997 155.315C151.259 155.315 151.494 155.351 151.703 155.423C151.912 155.491 152.09 155.602 152.237 155.756C152.387 155.909 152.502 156.109 152.58 156.354C152.659 156.595 152.698 156.891 152.698 157.241V160.715H151.786V157.231C151.786 156.953 151.745 156.731 151.664 156.564C151.582 156.395 151.463 156.272 151.306 156.197C151.149 156.119 150.957 156.079 150.728 156.079C150.502 156.079 150.297 156.127 150.11 156.221C149.928 156.316 149.769 156.447 149.635 156.613C149.504 156.78 149.402 156.971 149.326 157.187C149.255 157.399 149.219 157.625 149.219 157.863ZM158.098 156.246V160.715H157.191V155.413H158.073L158.098 156.246ZM159.754 155.384L159.749 156.226C159.674 156.21 159.602 156.2 159.533 156.197C159.468 156.19 159.393 156.187 159.308 156.187C159.099 156.187 158.914 156.22 158.754 156.285C158.594 156.35 158.459 156.442 158.348 156.56C158.236 156.677 158.148 156.818 158.083 156.981C158.021 157.141 157.98 157.317 157.96 157.51L157.706 157.657C157.706 157.337 157.737 157.036 157.799 156.756C157.864 156.475 157.964 156.226 158.098 156.011C158.232 155.792 158.401 155.622 158.607 155.501C158.816 155.377 159.065 155.315 159.352 155.315C159.417 155.315 159.493 155.323 159.577 155.339C159.662 155.352 159.721 155.367 159.754 155.384ZM163.008 160.813C162.638 160.813 162.304 160.751 162.003 160.627C161.706 160.499 161.449 160.321 161.234 160.093C161.021 159.864 160.858 159.593 160.744 159.279C160.629 158.966 160.572 158.622 160.572 158.25V158.044C160.572 157.613 160.636 157.229 160.763 156.893C160.891 156.553 161.064 156.266 161.283 156.03C161.502 155.795 161.75 155.617 162.028 155.496C162.305 155.375 162.593 155.315 162.89 155.315C163.269 155.315 163.596 155.38 163.87 155.511C164.148 155.642 164.375 155.825 164.551 156.06C164.728 156.292 164.858 156.566 164.943 156.883C165.028 157.197 165.071 157.54 165.071 157.912V158.319H161.111V157.579H164.164V157.51C164.151 157.275 164.102 157.046 164.017 156.824C163.935 156.602 163.805 156.419 163.625 156.275C163.445 156.132 163.2 156.06 162.89 156.06C162.684 156.06 162.495 156.104 162.322 156.192C162.148 156.277 162 156.404 161.876 156.574C161.752 156.744 161.655 156.952 161.587 157.197C161.518 157.442 161.484 157.724 161.484 158.044V158.25C161.484 158.502 161.518 158.738 161.587 158.961C161.658 159.179 161.761 159.372 161.895 159.539C162.032 159.705 162.197 159.836 162.39 159.931C162.586 160.026 162.808 160.073 163.057 160.073C163.377 160.073 163.648 160.008 163.87 159.877C164.092 159.746 164.287 159.571 164.453 159.353L165.002 159.789C164.888 159.962 164.742 160.127 164.566 160.284C164.389 160.44 164.172 160.568 163.914 160.666C163.659 160.764 163.357 160.813 163.008 160.813ZM168.564 160.068C168.78 160.068 168.979 160.024 169.162 159.936C169.345 159.848 169.495 159.727 169.613 159.573C169.731 159.416 169.798 159.238 169.814 159.039H170.676C170.66 159.353 170.554 159.645 170.358 159.916C170.165 160.184 169.912 160.401 169.598 160.568C169.285 160.731 168.94 160.813 168.564 160.813C168.166 160.813 167.818 160.743 167.521 160.602C167.227 160.462 166.982 160.269 166.786 160.024C166.593 159.779 166.447 159.498 166.349 159.181C166.255 158.861 166.207 158.523 166.207 158.167V157.961C166.207 157.605 166.255 157.268 166.349 156.952C166.447 156.631 166.593 156.349 166.786 156.104C166.982 155.859 167.227 155.666 167.521 155.526C167.818 155.385 168.166 155.315 168.564 155.315C168.979 155.315 169.342 155.4 169.652 155.57C169.962 155.736 170.206 155.965 170.382 156.256C170.562 156.543 170.66 156.87 170.676 157.236H169.814C169.798 157.017 169.735 156.819 169.628 156.643C169.523 156.466 169.379 156.326 169.196 156.221C169.017 156.114 168.806 156.06 168.564 156.06C168.287 156.06 168.053 156.115 167.864 156.226C167.677 156.334 167.529 156.481 167.418 156.667C167.31 156.85 167.231 157.054 167.182 157.28C167.137 157.502 167.114 157.729 167.114 157.961V158.167C167.114 158.399 167.137 158.627 167.182 158.853C167.228 159.078 167.305 159.282 167.413 159.465C167.524 159.648 167.672 159.795 167.859 159.906C168.048 160.014 168.283 160.068 168.564 160.068ZM171.769 158.123V158.01C171.769 157.628 171.825 157.273 171.936 156.947C172.047 156.617 172.207 156.331 172.416 156.089C172.625 155.844 172.878 155.655 173.175 155.521C173.473 155.384 173.806 155.315 174.175 155.315C174.547 155.315 174.882 155.384 175.179 155.521C175.48 155.655 175.735 155.844 175.944 156.089C176.156 156.331 176.318 156.617 176.429 156.947C176.54 157.273 176.596 157.628 176.596 158.01V158.123C176.596 158.505 176.54 158.859 176.429 159.186C176.318 159.513 176.156 159.799 175.944 160.044C175.735 160.285 175.482 160.475 175.184 160.612C174.89 160.746 174.557 160.813 174.185 160.813C173.812 160.813 173.477 160.746 173.18 160.612C172.883 160.475 172.628 160.285 172.416 160.044C172.207 159.799 172.047 159.513 171.936 159.186C171.825 158.859 171.769 158.505 171.769 158.123ZM172.676 158.01V158.123C172.676 158.387 172.707 158.637 172.769 158.872C172.831 159.104 172.924 159.31 173.048 159.49C173.175 159.669 173.334 159.812 173.523 159.916C173.713 160.017 173.933 160.068 174.185 160.068C174.433 160.068 174.65 160.017 174.836 159.916C175.026 159.812 175.183 159.669 175.307 159.49C175.431 159.31 175.524 159.104 175.586 158.872C175.652 158.637 175.684 158.387 175.684 158.123V158.01C175.684 157.749 175.652 157.502 175.586 157.27C175.524 157.035 175.429 156.827 175.302 156.648C175.178 156.465 175.021 156.321 174.832 156.217C174.645 156.112 174.426 156.06 174.175 156.06C173.927 156.06 173.708 156.112 173.518 156.217C173.332 156.321 173.175 156.465 173.048 156.648C172.924 156.827 172.831 157.035 172.769 157.27C172.707 157.502 172.676 157.749 172.676 158.01ZM179.58 159.897L181.03 155.413H181.956L180.05 160.715H179.443L179.58 159.897ZM178.369 155.413L179.864 159.921L179.967 160.715H179.359L177.438 155.413H178.369ZM185.274 160.813C184.905 160.813 184.57 160.751 184.269 160.627C183.972 160.499 183.715 160.321 183.5 160.093C183.288 159.864 183.124 159.593 183.01 159.279C182.896 158.966 182.838 158.622 182.838 158.25V158.044C182.838 157.613 182.902 157.229 183.029 156.893C183.157 156.553 183.33 156.266 183.549 156.03C183.768 155.795 184.016 155.617 184.294 155.496C184.571 155.375 184.859 155.315 185.156 155.315C185.535 155.315 185.862 155.38 186.136 155.511C186.414 155.642 186.641 155.825 186.817 156.06C186.994 156.292 187.124 156.566 187.209 156.883C187.294 157.197 187.337 157.54 187.337 157.912V158.319H183.377V157.579H186.43V157.51C186.417 157.275 186.368 157.046 186.283 156.824C186.201 156.602 186.071 156.419 185.891 156.275C185.711 156.132 185.466 156.06 185.156 156.06C184.95 156.06 184.761 156.104 184.588 156.192C184.415 156.277 184.266 156.404 184.142 156.574C184.018 156.744 183.921 156.952 183.853 157.197C183.784 157.442 183.75 157.724 183.75 158.044V158.25C183.75 158.502 183.784 158.738 183.853 158.961C183.925 159.179 184.027 159.372 184.161 159.539C184.299 159.705 184.464 159.836 184.656 159.931C184.852 160.026 185.074 160.073 185.323 160.073C185.643 160.073 185.914 160.008 186.136 159.877C186.358 159.746 186.553 159.571 186.719 159.353L187.268 159.789C187.154 159.962 187.008 160.127 186.832 160.284C186.656 160.44 186.438 160.568 186.18 160.666C185.925 160.764 185.623 160.813 185.274 160.813ZM189.615 156.246V160.715H188.709V155.413H189.591L189.615 156.246ZM191.271 155.384L191.267 156.226C191.191 156.21 191.12 156.2 191.051 156.197C190.986 156.19 190.91 156.187 190.826 156.187C190.616 156.187 190.432 156.22 190.272 156.285C190.112 156.35 189.976 156.442 189.865 156.56C189.754 156.677 189.666 156.818 189.601 156.981C189.538 157.141 189.498 157.317 189.478 157.51L189.223 157.657C189.223 157.337 189.254 157.036 189.316 156.756C189.382 156.475 189.481 156.226 189.615 156.011C189.749 155.792 189.919 155.622 190.125 155.501C190.334 155.377 190.582 155.315 190.87 155.315C190.935 155.315 191.01 155.323 191.095 155.339C191.18 155.352 191.239 155.367 191.271 155.384ZM196.716 160.166L198.19 155.413H199.161L197.034 161.533C196.985 161.664 196.92 161.804 196.838 161.955C196.76 162.108 196.658 162.253 196.534 162.391C196.41 162.528 196.26 162.639 196.083 162.724C195.91 162.812 195.703 162.856 195.461 162.856C195.389 162.856 195.298 162.846 195.187 162.827C195.076 162.807 194.997 162.791 194.951 162.778L194.947 162.043C194.973 162.046 195.014 162.049 195.069 162.053C195.128 162.059 195.169 162.062 195.192 162.062C195.397 162.062 195.572 162.035 195.716 161.979C195.86 161.927 195.981 161.837 196.079 161.71C196.18 161.585 196.266 161.414 196.338 161.195L196.716 160.166ZM195.633 155.413L197.01 159.529L197.245 160.485L196.593 160.818L194.643 155.413H195.633ZM199.974 158.123V158.01C199.974 157.628 200.03 157.273 200.141 156.947C200.252 156.617 200.412 156.331 200.621 156.089C200.83 155.844 201.083 155.655 201.38 155.521C201.678 155.384 202.011 155.315 202.38 155.315C202.752 155.315 203.087 155.384 203.385 155.521C203.685 155.655 203.94 155.844 204.149 156.089C204.361 156.331 204.523 156.617 204.634 156.947C204.745 157.273 204.801 157.628 204.801 158.01V158.123C204.801 158.505 204.745 158.859 204.634 159.186C204.523 159.513 204.361 159.799 204.149 160.044C203.94 160.285 203.687 160.475 203.389 160.612C203.095 160.746 202.762 160.813 202.39 160.813C202.017 160.813 201.683 160.746 201.385 160.612C201.088 160.475 200.833 160.285 200.621 160.044C200.412 159.799 200.252 159.513 200.141 159.186C200.03 158.859 199.974 158.505 199.974 158.123ZM200.881 158.01V158.123C200.881 158.387 200.912 158.637 200.974 158.872C201.036 159.104 201.129 159.31 201.253 159.49C201.38 159.669 201.539 159.812 201.728 159.916C201.918 160.017 202.138 160.068 202.39 160.068C202.638 160.068 202.855 160.017 203.042 159.916C203.231 159.812 203.388 159.669 203.512 159.49C203.636 159.31 203.729 159.104 203.791 158.872C203.857 158.637 203.889 158.387 203.889 158.123V158.01C203.889 157.749 203.857 157.502 203.791 157.27C203.729 157.035 203.634 156.827 203.507 156.648C203.383 156.465 203.226 156.321 203.037 156.217C202.85 156.112 202.632 156.06 202.38 156.06C202.132 156.06 201.913 156.112 201.723 156.217C201.537 156.321 201.38 156.465 201.253 156.648C201.129 156.827 201.036 157.035 200.974 157.27C200.912 157.502 200.881 157.749 200.881 158.01ZM209.495 159.49V155.413H210.406V160.715H209.539L209.495 159.49ZM209.667 158.373L210.044 158.363C210.044 158.716 210.006 159.042 209.931 159.343C209.859 159.64 209.742 159.898 209.578 160.117C209.415 160.336 209.201 160.507 208.936 160.632C208.672 160.752 208.35 160.813 207.971 160.813C207.713 160.813 207.476 160.775 207.261 160.7C207.048 160.625 206.865 160.509 206.712 160.352C206.558 160.195 206.439 159.991 206.354 159.74C206.272 159.488 206.232 159.186 206.232 158.833V155.413H207.138V158.843C207.138 159.081 207.164 159.279 207.216 159.436C207.272 159.589 207.346 159.712 207.437 159.803C207.532 159.892 207.636 159.954 207.751 159.99C207.868 160.026 207.989 160.044 208.113 160.044C208.499 160.044 208.804 159.97 209.03 159.823C209.255 159.673 209.417 159.472 209.515 159.22C209.616 158.966 209.667 158.683 209.667 158.373ZM213.008 156.246V160.715H212.102V155.413H212.984L213.008 156.246ZM214.665 155.384L214.66 156.226C214.585 156.21 214.513 156.2 214.444 156.197C214.379 156.19 214.304 156.187 214.219 156.187C214.01 156.187 213.825 156.22 213.665 156.285C213.505 156.35 213.369 156.442 213.258 156.56C213.147 156.677 213.059 156.818 212.994 156.981C212.932 157.141 212.891 157.317 212.871 157.51L212.616 157.657C212.616 157.337 212.647 157.036 212.71 156.756C212.775 156.475 212.874 156.226 213.008 156.011C213.142 155.792 213.312 155.622 213.518 155.501C213.727 155.377 213.975 155.315 214.263 155.315C214.328 155.315 214.403 155.323 214.488 155.339C214.573 155.352 214.632 155.367 214.665 155.384ZM27.8034 175.813C27.4343 175.813 27.0994 175.751 26.7989 175.627C26.5016 175.499 26.2452 175.321 26.0296 175.093C25.8172 174.864 25.6539 174.593 25.5396 174.279C25.4252 173.966 25.3681 173.622 25.3681 173.25V173.044C25.3681 172.613 25.4318 172.229 25.5592 171.893C25.6866 171.553 25.8597 171.266 26.0786 171.03C26.2974 170.795 26.5457 170.617 26.8234 170.496C27.1011 170.375 27.3885 170.315 27.6858 170.315C28.0648 170.315 28.3914 170.38 28.6658 170.511C28.9435 170.642 29.1706 170.825 29.347 171.06C29.5234 171.292 29.654 171.566 29.739 171.883C29.8239 172.197 29.8664 172.54 29.8664 172.912V173.319H25.9071V172.579H28.9598V172.51C28.9468 172.275 28.8978 172.046 28.8128 171.824C28.7312 171.602 28.6005 171.419 28.4208 171.275C28.2412 171.132 27.9962 171.06 27.6858 171.06C27.48 171.06 27.2905 171.104 27.1174 171.192C26.9443 171.277 26.7956 171.404 26.6715 171.574C26.5474 171.744 26.451 171.952 26.3824 172.197C26.3138 172.442 26.2795 172.724 26.2795 173.044V173.25C26.2795 173.502 26.3138 173.738 26.3824 173.961C26.4543 174.179 26.5572 174.372 26.6911 174.539C26.8283 174.705 26.9933 174.836 27.186 174.931C27.382 175.026 27.6041 175.073 27.8524 175.073C28.1726 175.073 28.4437 175.008 28.6658 174.877C28.888 174.746 29.0823 174.571 29.249 174.353L29.7978 174.789C29.6834 174.962 29.5381 175.127 29.3617 175.284C29.1853 175.44 28.968 175.568 28.7099 175.666C28.4551 175.764 28.153 175.813 27.8034 175.813ZM32.1449 171.545V175.715H31.2384V170.413H32.0959L32.1449 171.545ZM31.9293 172.863L31.552 172.848C31.5553 172.486 31.6092 172.151 31.7137 171.844C31.8183 171.533 31.9653 171.264 32.1547 171.035C32.3442 170.807 32.5696 170.63 32.8309 170.506C33.0955 170.379 33.3879 170.315 33.7081 170.315C33.9694 170.315 34.2046 170.351 34.4137 170.423C34.6228 170.491 34.8008 170.602 34.9478 170.756C35.0981 170.909 35.2124 171.109 35.2908 171.354C35.3692 171.595 35.4084 171.891 35.4084 172.241V175.715H34.497V172.231C34.497 171.953 34.4561 171.731 34.3745 171.564C34.2928 171.395 34.1736 171.272 34.0168 171.197C33.86 171.119 33.6672 171.079 33.4386 171.079C33.2132 171.079 33.0073 171.127 32.8211 171.221C32.6382 171.316 32.4798 171.447 32.3458 171.613C32.2152 171.78 32.1123 171.971 32.0371 172.187C31.9653 172.399 31.9293 172.625 31.9293 172.863ZM39.2207 175.068C39.4363 175.068 39.6356 175.024 39.8185 174.936C40.0015 174.848 40.1517 174.727 40.2693 174.573C40.3869 174.416 40.4539 174.238 40.4702 174.039H41.3327C41.3163 174.353 41.2102 174.645 41.0141 174.916C40.8214 175.184 40.5682 175.401 40.2546 175.568C39.941 175.731 39.5964 175.813 39.2207 175.813C38.8222 175.813 38.4742 175.743 38.177 175.602C37.883 175.462 37.638 175.269 37.442 175.024C37.2492 174.779 37.1038 174.498 37.0058 174.181C36.9111 173.861 36.8637 173.523 36.8637 173.167V172.961C36.8637 172.605 36.9111 172.268 37.0058 171.952C37.1038 171.631 37.2492 171.349 37.442 171.104C37.638 170.859 37.883 170.666 38.177 170.526C38.4742 170.385 38.8222 170.315 39.2207 170.315C39.6356 170.315 39.9982 170.4 40.3085 170.57C40.6189 170.736 40.8622 170.965 41.0386 171.256C41.2183 171.543 41.3163 171.87 41.3327 172.236H40.4702C40.4539 172.017 40.3918 171.819 40.284 171.643C40.1795 171.466 40.0358 171.326 39.8528 171.221C39.6731 171.114 39.4624 171.06 39.2207 171.06C38.943 171.06 38.7095 171.115 38.52 171.226C38.3338 171.334 38.1851 171.481 38.0741 171.667C37.9663 171.85 37.8879 172.054 37.8389 172.28C37.7931 172.502 37.7703 172.729 37.7703 172.961V173.167C37.7703 173.399 37.7931 173.627 37.8389 173.853C37.8846 174.078 37.9614 174.282 38.0692 174.465C38.1802 174.648 38.3289 174.795 38.5151 174.906C38.7046 175.014 38.9398 175.068 39.2207 175.068ZM43.572 171.246V175.715H42.6655V170.413H43.5475L43.572 171.246ZM45.2283 170.384L45.2234 171.226C45.1482 171.21 45.0763 171.2 45.0077 171.197C44.9424 171.19 44.8673 171.187 44.7823 171.187C44.5733 171.187 44.3887 171.22 44.2286 171.285C44.0686 171.35 43.933 171.442 43.8219 171.56C43.7108 171.677 43.6226 171.818 43.5573 171.981C43.4952 172.141 43.4544 172.317 43.4348 172.51L43.18 172.657C43.18 172.337 43.211 172.036 43.2731 171.756C43.3384 171.475 43.4381 171.226 43.572 171.011C43.7059 170.792 43.8758 170.622 44.0816 170.501C44.2907 170.377 44.539 170.315 44.8264 170.315C44.8918 170.315 44.9669 170.323 45.0518 170.339C45.1368 170.352 45.1956 170.367 45.2283 170.384ZM47.9576 175.166L49.4326 170.413H50.4028L48.2761 176.533C48.2271 176.664 48.1618 176.804 48.0801 176.955C48.0017 177.108 47.9004 177.253 47.7763 177.391C47.6522 177.528 47.5019 177.639 47.3255 177.724C47.1524 177.812 46.9449 177.856 46.7032 177.856C46.6313 177.856 46.5398 177.846 46.4288 177.827C46.3177 177.807 46.2393 177.791 46.1936 177.778L46.1887 177.043C46.2148 177.046 46.2556 177.049 46.3112 177.053C46.37 177.059 46.4108 177.062 46.4337 177.062C46.6395 177.062 46.8143 177.035 46.958 176.979C47.1017 176.927 47.2226 176.837 47.3206 176.71C47.4219 176.585 47.5084 176.414 47.5803 176.195L47.9576 175.166ZM46.8747 170.413L48.2516 174.529L48.4868 175.485L47.8351 175.818L45.8849 170.413H46.8747ZM52.4412 171.432V177.753H51.5298V170.413H52.3628L52.4412 171.432ZM56.0134 173.02V173.123C56.0134 173.508 55.9677 173.866 55.8762 174.196C55.7847 174.522 55.6508 174.807 55.4744 175.048C55.3013 175.29 55.0873 175.478 54.8325 175.612C54.5777 175.746 54.2853 175.813 53.9554 175.813C53.6189 175.813 53.3216 175.757 53.0635 175.646C52.8055 175.535 52.5866 175.373 52.4069 175.161C52.2273 174.949 52.0835 174.694 51.9757 174.397C51.8712 174.099 51.7993 173.765 51.7601 173.392V172.843C51.7993 172.451 51.8728 172.1 51.9806 171.79C52.0884 171.48 52.2305 171.215 52.4069 170.996C52.5866 170.774 52.8038 170.606 53.0586 170.491C53.3134 170.374 53.6075 170.315 53.9407 170.315C54.2739 170.315 54.5695 170.38 54.8276 170.511C55.0857 170.638 55.3029 170.821 55.4793 171.06C55.6557 171.298 55.788 171.584 55.8762 171.917C55.9677 172.247 56.0134 172.615 56.0134 173.02ZM55.102 173.123V173.02C55.102 172.755 55.0742 172.507 55.0187 172.275C54.9632 172.04 54.8766 171.834 54.759 171.658C54.6446 171.478 54.4976 171.337 54.318 171.236C54.1383 171.132 53.9243 171.079 53.6761 171.079C53.4474 171.079 53.2481 171.119 53.0782 171.197C52.9116 171.275 52.7695 171.382 52.6519 171.515C52.5343 171.646 52.438 171.796 52.3628 171.966C52.291 172.133 52.2371 172.306 52.2011 172.486V173.755C52.2665 173.983 52.3579 174.199 52.4755 174.402C52.5931 174.601 52.7499 174.763 52.9459 174.887C53.1419 175.008 53.3886 175.068 53.6859 175.068C53.9309 175.068 54.1416 175.017 54.318 174.916C54.4976 174.812 54.6446 174.669 54.759 174.49C54.8766 174.31 54.9632 174.104 55.0187 173.872C55.0742 173.637 55.102 173.387 55.102 173.123ZM59.7032 170.413V171.109H56.8366V170.413H59.7032ZM57.8069 169.124H58.7134V174.402C58.7134 174.581 58.7412 174.717 58.7967 174.808C58.8522 174.9 58.9241 174.96 59.0123 174.99C59.1005 175.019 59.1952 175.034 59.2965 175.034C59.3716 175.034 59.45 175.027 59.5317 175.014C59.6166 174.998 59.6803 174.985 59.7228 174.975L59.7277 175.715C59.6558 175.738 59.5611 175.759 59.4435 175.779C59.3292 175.801 59.1903 175.813 59.027 175.813C58.8049 175.813 58.6007 175.769 58.4145 175.681C58.2283 175.592 58.0796 175.445 57.9686 175.24C57.8608 175.03 57.8069 174.75 57.8069 174.397V169.124ZM63.2803 175.813C62.9112 175.813 62.5763 175.751 62.2758 175.627C61.9785 175.499 61.7221 175.321 61.5065 175.093C61.2941 174.864 61.1308 174.593 61.0164 174.279C60.9021 173.966 60.8449 173.622 60.8449 173.25V173.044C60.8449 172.613 60.9086 172.229 61.036 171.893C61.1634 171.553 61.3366 171.266 61.5555 171.03C61.7743 170.795 62.0226 170.617 62.3003 170.496C62.5779 170.375 62.8654 170.315 63.1627 170.315C63.5416 170.315 63.8683 170.38 64.1427 170.511C64.4204 170.642 64.6474 170.825 64.8238 171.06C65.0002 171.292 65.1309 171.566 65.2158 171.883C65.3008 172.197 65.3432 172.54 65.3432 172.912V173.319H61.3839V172.579H64.4367V172.51C64.4237 172.275 64.3747 172.046 64.2897 171.824C64.2081 171.602 64.0774 171.419 63.8977 171.275C63.718 171.132 63.473 171.06 63.1627 171.06C62.9569 171.06 62.7674 171.104 62.5943 171.192C62.4211 171.277 62.2725 171.404 62.1484 171.574C62.0242 171.744 61.9279 171.952 61.8593 172.197C61.7907 172.442 61.7564 172.724 61.7564 173.044V173.25C61.7564 173.502 61.7907 173.738 61.8593 173.961C61.9311 174.179 62.034 174.372 62.168 174.539C62.3052 174.705 62.4701 174.836 62.6629 174.931C62.8589 175.026 63.081 175.073 63.3293 175.073C63.6494 175.073 63.9206 175.008 64.1427 174.877C64.3649 174.746 64.5592 174.571 64.7258 174.353L65.2746 174.789C65.1603 174.962 65.0149 175.127 64.8385 175.284C64.6621 175.44 64.4449 175.568 64.1868 175.666C63.932 175.764 63.6298 175.813 63.2803 175.813ZM70.0572 174.686V168.188H70.9686V175.715H70.1356L70.0572 174.686ZM66.4899 173.123V173.02C66.4899 172.615 66.5389 172.247 66.6369 171.917C66.7382 171.584 66.8803 171.298 67.0632 171.06C67.2494 170.821 67.4699 170.638 67.7247 170.511C67.9828 170.38 68.2703 170.315 68.5871 170.315C68.9203 170.315 69.2111 170.374 69.4594 170.491C69.7109 170.606 69.9232 170.774 70.0964 170.996C70.2728 171.215 70.4116 171.48 70.5129 171.79C70.6141 172.1 70.6844 172.451 70.7236 172.843V173.294C70.6877 173.683 70.6174 174.032 70.5129 174.343C70.4116 174.653 70.2728 174.918 70.0964 175.137C69.9232 175.356 69.7109 175.524 69.4594 175.641C69.2078 175.756 68.9138 175.813 68.5773 175.813C68.267 175.813 67.9828 175.746 67.7247 175.612C67.4699 175.478 67.2494 175.29 67.0632 175.048C66.8803 174.807 66.7382 174.522 66.6369 174.196C66.5389 173.866 66.4899 173.508 66.4899 173.123ZM67.4013 173.02V173.123C67.4013 173.387 67.4274 173.636 67.4797 173.867C67.5352 174.099 67.6202 174.304 67.7345 174.48C67.8488 174.656 67.9942 174.795 68.1706 174.897C68.347 174.995 68.5577 175.044 68.8027 175.044C69.1033 175.044 69.3499 174.98 69.5427 174.852C69.7387 174.725 69.8955 174.557 70.0131 174.348C70.1307 174.139 70.2221 173.912 70.2875 173.667V172.486C70.2483 172.306 70.1911 172.133 70.116 171.966C70.0441 171.796 69.9494 171.646 69.8318 171.515C69.7174 171.382 69.5753 171.275 69.4055 171.197C69.2388 171.119 69.0412 171.079 68.8125 171.079C68.5643 171.079 68.3503 171.132 68.1706 171.236C67.9942 171.337 67.8488 171.478 67.7345 171.658C67.6202 171.834 67.5352 172.04 67.4797 172.275C67.4274 172.507 67.4013 172.755 67.4013 173.02ZM76.8389 174.774L78.2012 170.413H78.799L78.6814 171.28L77.2947 175.715H76.7115L76.8389 174.774ZM75.9226 170.413L77.0839 174.823L77.1672 175.715H76.5547L75.0161 170.413H75.9226ZM80.1024 174.789L81.2098 170.413H82.1115L80.5728 175.715H79.9652L80.1024 174.789ZM78.9313 170.413L80.2641 174.701L80.416 175.715H79.8378L78.4119 171.27L78.2943 170.413H78.9313ZM86.4824 174.808V172.079C86.4824 171.87 86.4399 171.689 86.355 171.535C86.2733 171.378 86.1492 171.257 85.9826 171.172C85.816 171.087 85.6101 171.045 85.3651 171.045C85.1365 171.045 84.9356 171.084 84.7624 171.163C84.5926 171.241 84.4586 171.344 84.3606 171.471C84.2659 171.599 84.2185 171.736 84.2185 171.883H83.312C83.312 171.693 83.361 171.506 83.459 171.319C83.557 171.133 83.6975 170.965 83.8804 170.815C84.0666 170.661 84.2888 170.54 84.5468 170.452C84.8082 170.361 85.0989 170.315 85.419 170.315C85.8045 170.315 86.1443 170.38 86.4383 170.511C86.7355 170.642 86.9675 170.839 87.1341 171.104C87.304 171.365 87.3889 171.693 87.3889 172.089V174.558C87.3889 174.735 87.4036 174.923 87.433 175.122C87.4657 175.321 87.513 175.493 87.5751 175.636V175.715H86.6294C86.5836 175.61 86.5477 175.471 86.5216 175.298C86.4954 175.122 86.4824 174.959 86.4824 174.808ZM86.6392 172.5L86.649 173.137H85.7327C85.4746 173.137 85.2443 173.159 85.0417 173.201C84.8392 173.24 84.6693 173.301 84.5321 173.382C84.3949 173.464 84.2904 173.567 84.2185 173.691C84.1466 173.812 84.1107 173.954 84.1107 174.117C84.1107 174.284 84.1483 174.436 84.2234 174.573C84.2986 174.71 84.4113 174.82 84.5615 174.901C84.7151 174.98 84.9029 175.019 85.125 175.019C85.4027 175.019 85.6477 174.96 85.8601 174.843C86.0724 174.725 86.2406 174.581 86.3648 174.411C86.4922 174.242 86.5608 174.077 86.5706 173.916L86.9577 174.353C86.9348 174.49 86.8727 174.642 86.7715 174.808C86.6702 174.975 86.5346 175.135 86.3648 175.289C86.1982 175.439 85.9989 175.565 85.767 175.666C85.5383 175.764 85.2802 175.813 84.9927 175.813C84.6334 175.813 84.3182 175.743 84.047 175.602C83.7791 175.462 83.5701 175.274 83.4198 175.039C83.2728 174.8 83.1993 174.534 83.1993 174.24C83.1993 173.956 83.2548 173.706 83.3659 173.49C83.477 173.271 83.637 173.09 83.8461 172.946C84.0552 172.799 84.3067 172.688 84.6007 172.613C84.8947 172.538 85.223 172.5 85.5856 172.5H86.6392ZM90.1134 168.188V175.715H89.2019V168.188H90.1134ZM92.8672 168.188V175.715H91.9558V168.188H92.8672ZM96.8363 175.813C96.4672 175.813 96.1323 175.751 95.8318 175.627C95.5345 175.499 95.2781 175.321 95.0625 175.093C94.8501 174.864 94.6868 174.593 94.5725 174.279C94.4581 173.966 94.401 173.622 94.401 173.25V173.044C94.401 172.613 94.4647 172.229 94.5921 171.893C94.7195 171.553 94.8926 171.266 95.1115 171.03C95.3304 170.795 95.5786 170.617 95.8563 170.496C96.134 170.375 96.4215 170.315 96.7187 170.315C97.0977 170.315 97.4243 170.38 97.6988 170.511C97.9764 170.642 98.2035 170.825 98.3799 171.06C98.5563 171.292 98.6869 171.566 98.7719 171.883C98.8568 172.197 98.8993 172.54 98.8993 172.912V173.319H94.94V172.579H97.9928V172.51C97.9797 172.275 97.9307 172.046 97.8458 171.824C97.7641 171.602 97.6334 171.419 97.4537 171.275C97.2741 171.132 97.0291 171.06 96.7187 171.06C96.5129 171.06 96.3235 171.104 96.1503 171.192C95.9772 171.277 95.8285 171.404 95.7044 171.574C95.5803 171.744 95.4839 171.952 95.4153 172.197C95.3467 172.442 95.3124 172.724 95.3124 173.044V173.25C95.3124 173.502 95.3467 173.738 95.4153 173.961C95.4872 174.179 95.5901 174.372 95.724 174.539C95.8612 174.705 96.0262 174.836 96.2189 174.931C96.4149 175.026 96.6371 175.073 96.8853 175.073C97.2055 175.073 97.4766 175.008 97.6988 174.877C97.9209 174.746 98.1153 174.571 98.2819 174.353L98.8307 174.789C98.7163 174.962 98.571 175.127 98.3946 175.284C98.2182 175.44 98.0009 175.568 97.7429 175.666C97.488 175.764 97.1859 175.813 96.8363 175.813ZM102.491 170.413V171.109H99.6245V170.413H102.491ZM100.595 169.124H101.501V174.402C101.501 174.581 101.529 174.717 101.585 174.808C101.64 174.9 101.712 174.96 101.8 174.99C101.888 175.019 101.983 175.034 102.084 175.034C102.159 175.034 102.238 175.027 102.32 175.014C102.405 174.998 102.468 174.985 102.511 174.975L102.516 175.715C102.444 175.738 102.349 175.759 102.231 175.779C102.117 175.801 101.978 175.813 101.815 175.813C101.593 175.813 101.389 175.769 101.202 175.681C101.016 175.592 100.867 175.445 100.756 175.24C100.649 175.03 100.595 174.75 100.595 174.397V169.124ZM106.666 168.188H107.577V174.686L107.499 175.715H106.666V168.188ZM111.159 173.02V173.123C111.159 173.508 111.114 173.866 111.022 174.196C110.931 174.522 110.797 174.807 110.62 175.048C110.444 175.29 110.228 175.478 109.974 175.612C109.719 175.746 109.426 175.813 109.096 175.813C108.76 175.813 108.464 175.756 108.21 175.641C107.958 175.524 107.746 175.356 107.572 175.137C107.399 174.918 107.261 174.653 107.156 174.343C107.055 174.032 106.984 173.683 106.945 173.294V172.843C106.984 172.451 107.055 172.1 107.156 171.79C107.261 171.48 107.399 171.215 107.572 170.996C107.746 170.774 107.958 170.606 108.21 170.491C108.461 170.374 108.753 170.315 109.087 170.315C109.42 170.315 109.715 170.38 109.974 170.511C110.232 170.638 110.447 170.821 110.62 171.06C110.797 171.298 110.931 171.584 111.022 171.917C111.114 172.247 111.159 172.615 111.159 173.02ZM110.248 173.123V173.02C110.248 172.755 110.223 172.507 110.174 172.275C110.125 172.04 110.047 171.834 109.939 171.658C109.831 171.478 109.689 171.337 109.513 171.236C109.337 171.132 109.119 171.079 108.861 171.079C108.633 171.079 108.433 171.119 108.263 171.197C108.097 171.275 107.955 171.382 107.837 171.515C107.72 171.646 107.623 171.796 107.548 171.966C107.476 172.133 107.422 172.306 107.386 172.486V173.667C107.439 173.895 107.523 174.116 107.641 174.328C107.762 174.537 107.922 174.709 108.121 174.843C108.324 174.977 108.574 175.044 108.871 175.044C109.116 175.044 109.325 174.995 109.498 174.897C109.675 174.795 109.817 174.656 109.925 174.48C110.036 174.304 110.117 174.099 110.17 173.867C110.222 173.636 110.248 173.387 110.248 173.123ZM115.746 174.808V172.079C115.746 171.87 115.703 171.689 115.618 171.535C115.537 171.378 115.413 171.257 115.246 171.172C115.079 171.087 114.874 171.045 114.629 171.045C114.4 171.045 114.199 171.084 114.026 171.163C113.856 171.241 113.722 171.344 113.624 171.471C113.529 171.599 113.482 171.736 113.482 171.883H112.576C112.576 171.693 112.625 171.506 112.723 171.319C112.821 171.133 112.961 170.965 113.144 170.815C113.33 170.661 113.552 170.54 113.81 170.452C114.072 170.361 114.362 170.315 114.683 170.315C115.068 170.315 115.408 170.38 115.702 170.511C115.999 170.642 116.231 170.839 116.398 171.104C116.567 171.365 116.652 171.693 116.652 172.089V174.558C116.652 174.735 116.667 174.923 116.697 175.122C116.729 175.321 116.777 175.493 116.839 175.636V175.715H115.893C115.847 175.61 115.811 175.471 115.785 175.298C115.759 175.122 115.746 174.959 115.746 174.808ZM115.903 172.5L115.913 173.137H114.996C114.738 173.137 114.508 173.159 114.305 173.201C114.103 173.24 113.933 173.301 113.796 173.382C113.658 173.464 113.554 173.567 113.482 173.691C113.41 173.812 113.374 173.954 113.374 174.117C113.374 174.284 113.412 174.436 113.487 174.573C113.562 174.71 113.675 174.82 113.825 174.901C113.979 174.98 114.166 175.019 114.389 175.019C114.666 175.019 114.911 174.96 115.124 174.843C115.336 174.725 115.504 174.581 115.628 174.411C115.756 174.242 115.824 174.077 115.834 173.916L116.221 174.353C116.198 174.49 116.136 174.642 116.035 174.808C115.934 174.975 115.798 175.135 115.628 175.289C115.462 175.439 115.262 175.565 115.03 175.666C114.802 175.764 114.544 175.813 114.256 175.813C113.897 175.813 113.582 175.743 113.311 175.602C113.043 175.462 112.834 175.274 112.683 175.039C112.536 174.8 112.463 174.534 112.463 174.24C112.463 173.956 112.518 173.706 112.629 173.49C112.74 173.271 112.901 173.09 113.11 172.946C113.319 172.799 113.57 172.688 113.864 172.613C114.158 172.538 114.487 172.5 114.849 172.5H115.903ZM120.514 175.068C120.729 175.068 120.929 175.024 121.112 174.936C121.294 174.848 121.445 174.727 121.562 174.573C121.68 174.416 121.747 174.238 121.763 174.039H122.626C122.609 174.353 122.503 174.645 122.307 174.916C122.114 175.184 121.861 175.401 121.548 175.568C121.234 175.731 120.889 175.813 120.514 175.813C120.115 175.813 119.767 175.743 119.47 175.602C119.176 175.462 118.931 175.269 118.735 175.024C118.542 174.779 118.397 174.498 118.299 174.181C118.204 173.861 118.157 173.523 118.157 173.167V172.961C118.157 172.605 118.204 172.268 118.299 171.952C118.397 171.631 118.542 171.349 118.735 171.104C118.931 170.859 119.176 170.666 119.47 170.526C119.767 170.385 120.115 170.315 120.514 170.315C120.929 170.315 121.291 170.4 121.602 170.57C121.912 170.736 122.155 170.965 122.332 171.256C122.511 171.543 122.609 171.87 122.626 172.236H121.763C121.747 172.017 121.685 171.819 121.577 171.643C121.473 171.466 121.329 171.326 121.146 171.221C120.966 171.114 120.755 171.06 120.514 171.06C120.236 171.06 120.002 171.115 119.813 171.226C119.627 171.334 119.478 171.481 119.367 171.667C119.259 171.85 119.181 172.054 119.132 172.28C119.086 172.502 119.063 172.729 119.063 172.961V173.167C119.063 173.399 119.086 173.627 119.132 173.853C119.178 174.078 119.254 174.282 119.362 174.465C119.473 174.648 119.622 174.795 119.808 174.906C119.998 175.014 120.233 175.068 120.514 175.068ZM124.87 168.188V175.715H123.959V168.188H124.87ZM128.109 170.413L125.796 172.887L124.502 174.23L124.429 173.265L125.355 172.157L127.001 170.413H128.109ZM127.281 175.715L125.389 173.186L125.86 172.378L128.349 175.715H127.281ZM132.602 174.49V170.413H133.514V175.715H132.646L132.602 174.49ZM132.774 173.373L133.151 173.363C133.151 173.716 133.114 174.042 133.038 174.343C132.967 174.64 132.849 174.898 132.686 175.117C132.522 175.336 132.308 175.507 132.044 175.632C131.779 175.752 131.457 175.813 131.078 175.813C130.82 175.813 130.583 175.775 130.368 175.7C130.156 175.625 129.973 175.509 129.819 175.352C129.666 175.195 129.546 174.991 129.461 174.74C129.38 174.488 129.339 174.186 129.339 173.833V170.413H130.245V173.843C130.245 174.081 130.271 174.279 130.324 174.436C130.379 174.589 130.453 174.712 130.544 174.803C130.639 174.892 130.744 174.954 130.858 174.99C130.975 175.026 131.096 175.044 131.22 175.044C131.606 175.044 131.911 174.97 132.137 174.823C132.362 174.673 132.524 174.472 132.622 174.22C132.723 173.966 132.774 173.683 132.774 173.373ZM136.116 171.432V177.753H135.204V170.413H136.037L136.116 171.432ZM139.688 173.02V173.123C139.688 173.508 139.642 173.866 139.551 174.196C139.459 174.522 139.325 174.807 139.149 175.048C138.976 175.29 138.762 175.478 138.507 175.612C138.252 175.746 137.96 175.813 137.63 175.813C137.293 175.813 136.996 175.757 136.738 175.646C136.48 175.535 136.261 175.373 136.081 175.161C135.902 174.949 135.758 174.694 135.65 174.397C135.546 174.099 135.474 173.765 135.435 173.392V172.843C135.474 172.451 135.547 172.1 135.655 171.79C135.763 171.48 135.905 171.215 136.081 170.996C136.261 170.774 136.478 170.606 136.733 170.491C136.988 170.374 137.282 170.315 137.615 170.315C137.948 170.315 138.244 170.38 138.502 170.511C138.76 170.638 138.977 170.821 139.154 171.06C139.33 171.298 139.462 171.584 139.551 171.917C139.642 172.247 139.688 172.615 139.688 173.02ZM138.776 173.123V173.02C138.776 172.755 138.749 172.507 138.693 172.275C138.638 172.04 138.551 171.834 138.433 171.658C138.319 171.478 138.172 171.337 137.992 171.236C137.813 171.132 137.599 171.079 137.351 171.079C137.122 171.079 136.923 171.119 136.753 171.197C136.586 171.275 136.444 171.382 136.326 171.515C136.209 171.646 136.112 171.796 136.037 171.966C135.965 172.133 135.912 172.306 135.876 172.486V173.755C135.941 173.983 136.032 174.199 136.15 174.402C136.268 174.601 136.424 174.763 136.62 174.887C136.816 175.008 137.063 175.068 137.36 175.068C137.605 175.068 137.816 175.017 137.992 174.916C138.172 174.812 138.319 174.669 138.433 174.49C138.551 174.31 138.638 174.104 138.693 173.872C138.749 173.637 138.776 173.387 138.776 173.123ZM145.313 175.715H144.407V169.854C144.407 169.472 144.475 169.15 144.613 168.889C144.753 168.624 144.954 168.425 145.215 168.291C145.477 168.154 145.787 168.085 146.146 168.085C146.251 168.085 146.355 168.092 146.46 168.105C146.568 168.118 146.672 168.138 146.773 168.164L146.724 168.904C146.656 168.887 146.577 168.876 146.489 168.869C146.404 168.863 146.319 168.86 146.234 168.86C146.042 168.86 145.875 168.899 145.735 168.977C145.597 169.052 145.493 169.163 145.421 169.31C145.349 169.457 145.313 169.639 145.313 169.854V175.715ZM146.44 170.413V171.109H143.569V170.413H146.44ZM148.67 171.246V175.715H147.763V170.413H148.645L148.67 171.246ZM150.326 170.384L150.321 171.226C150.246 171.21 150.174 171.2 150.106 171.197C150.04 171.19 149.965 171.187 149.88 171.187C149.671 171.187 149.487 171.22 149.326 171.285C149.166 171.35 149.031 171.442 148.92 171.56C148.809 171.677 148.72 171.818 148.655 171.981C148.593 172.141 148.552 172.317 148.533 172.51L148.278 172.657C148.278 172.337 148.309 172.036 148.371 171.756C148.436 171.475 148.536 171.226 148.67 171.011C148.804 170.792 148.974 170.622 149.179 170.501C149.389 170.377 149.637 170.315 149.924 170.315C149.99 170.315 150.065 170.323 150.15 170.339C150.235 170.352 150.293 170.367 150.326 170.384ZM151.139 173.123V173.01C151.139 172.628 151.195 172.273 151.306 171.947C151.417 171.617 151.577 171.331 151.786 171.089C151.995 170.844 152.249 170.655 152.546 170.521C152.843 170.384 153.176 170.315 153.545 170.315C153.918 170.315 154.253 170.384 154.55 170.521C154.85 170.655 155.105 170.844 155.314 171.089C155.527 171.331 155.688 171.617 155.799 171.947C155.911 172.273 155.966 172.628 155.966 173.01V173.123C155.966 173.505 155.911 173.859 155.799 174.186C155.688 174.513 155.527 174.799 155.314 175.044C155.105 175.285 154.852 175.475 154.555 175.612C154.261 175.746 153.928 175.813 153.555 175.813C153.183 175.813 152.848 175.746 152.551 175.612C152.253 175.475 151.999 175.285 151.786 175.044C151.577 174.799 151.417 174.513 151.306 174.186C151.195 173.859 151.139 173.505 151.139 173.123ZM152.046 173.01V173.123C152.046 173.387 152.077 173.637 152.139 173.872C152.201 174.104 152.294 174.31 152.418 174.49C152.546 174.669 152.704 174.812 152.894 174.916C153.083 175.017 153.304 175.068 153.555 175.068C153.804 175.068 154.021 175.017 154.207 174.916C154.396 174.812 154.553 174.669 154.677 174.49C154.801 174.31 154.895 174.104 154.957 173.872C155.022 173.637 155.055 173.387 155.055 173.123V173.01C155.055 172.749 155.022 172.502 154.957 172.27C154.895 172.035 154.8 171.827 154.672 171.648C154.548 171.465 154.392 171.321 154.202 171.217C154.016 171.112 153.797 171.06 153.545 171.06C153.297 171.06 153.078 171.112 152.889 171.217C152.703 171.321 152.546 171.465 152.418 171.648C152.294 171.827 152.201 172.035 152.139 172.27C152.077 172.502 152.046 172.749 152.046 173.01ZM158.318 171.466V175.715H157.407V170.413H158.269L158.318 171.466ZM158.132 172.863L157.711 172.848C157.714 172.486 157.761 172.151 157.853 171.844C157.944 171.533 158.08 171.264 158.259 171.035C158.439 170.807 158.663 170.63 158.931 170.506C159.199 170.379 159.509 170.315 159.862 170.315C160.11 170.315 160.339 170.351 160.548 170.423C160.757 170.491 160.938 170.601 161.092 170.751C161.245 170.901 161.364 171.094 161.449 171.329C161.534 171.564 161.577 171.849 161.577 172.182V175.715H160.67V172.226C160.67 171.948 160.623 171.726 160.528 171.56C160.437 171.393 160.306 171.272 160.136 171.197C159.966 171.119 159.767 171.079 159.538 171.079C159.27 171.079 159.047 171.127 158.867 171.221C158.687 171.316 158.544 171.447 158.436 171.613C158.328 171.78 158.25 171.971 158.201 172.187C158.155 172.399 158.132 172.625 158.132 172.863ZM161.567 172.363L160.959 172.549C160.963 172.259 161.01 171.979 161.101 171.711C161.196 171.444 161.332 171.205 161.508 170.996C161.688 170.787 161.908 170.622 162.17 170.501C162.431 170.377 162.73 170.315 163.066 170.315C163.351 170.315 163.602 170.352 163.821 170.428C164.043 170.503 164.229 170.619 164.38 170.776C164.533 170.929 164.649 171.127 164.728 171.368C164.806 171.61 164.845 171.898 164.845 172.231V175.715H163.934V172.221C163.934 171.924 163.886 171.693 163.792 171.53C163.7 171.364 163.569 171.248 163.4 171.182C163.233 171.114 163.034 171.079 162.802 171.079C162.602 171.079 162.426 171.114 162.273 171.182C162.119 171.251 161.99 171.346 161.885 171.466C161.781 171.584 161.701 171.72 161.645 171.873C161.593 172.027 161.567 172.19 161.567 172.363ZM170.319 170.413V175.715H169.407V170.413H170.319ZM169.339 169.007C169.339 168.86 169.383 168.735 169.471 168.634C169.562 168.533 169.696 168.482 169.873 168.482C170.046 168.482 170.178 168.533 170.27 168.634C170.364 168.735 170.412 168.86 170.412 169.007C170.412 169.147 170.364 169.268 170.27 169.369C170.178 169.467 170.046 169.516 169.873 169.516C169.696 169.516 169.562 169.467 169.471 169.369C169.383 169.268 169.339 169.147 169.339 169.007ZM176.532 173.446H177.473C177.424 173.897 177.295 174.3 177.086 174.656C176.877 175.012 176.581 175.295 176.199 175.504C175.816 175.71 175.34 175.813 174.768 175.813C174.35 175.813 173.969 175.734 173.626 175.578C173.286 175.421 172.994 175.199 172.749 174.911C172.504 174.62 172.315 174.273 172.181 173.867C172.05 173.459 171.985 173.005 171.985 172.505V171.795C171.985 171.295 172.05 170.842 172.181 170.437C172.315 170.029 172.506 169.68 172.754 169.389C173.005 169.098 173.308 168.874 173.66 168.717C174.013 168.561 174.41 168.482 174.851 168.482C175.39 168.482 175.846 168.584 176.218 168.786C176.591 168.989 176.88 169.27 177.086 169.629C177.295 169.985 177.424 170.398 177.473 170.869H176.532C176.486 170.535 176.401 170.25 176.277 170.011C176.153 169.769 175.977 169.583 175.748 169.452C175.519 169.322 175.22 169.256 174.851 169.256C174.534 169.256 174.255 169.317 174.013 169.438C173.775 169.559 173.574 169.73 173.411 169.952C173.25 170.174 173.13 170.441 173.048 170.751C172.966 171.061 172.925 171.406 172.925 171.785V172.505C172.925 172.855 172.961 173.183 173.033 173.49C173.108 173.797 173.221 174.067 173.371 174.299C173.522 174.531 173.713 174.714 173.945 174.848C174.177 174.978 174.451 175.044 174.768 175.044C175.17 175.044 175.49 174.98 175.728 174.852C175.967 174.725 176.146 174.542 176.267 174.304C176.391 174.065 176.48 173.779 176.532 173.446ZM179.923 168.188V175.715H179.011V168.188H179.923ZM181.452 173.123V173.01C181.452 172.628 181.507 172.273 181.618 171.947C181.729 171.617 181.889 171.331 182.098 171.089C182.308 170.844 182.561 170.655 182.858 170.521C183.155 170.384 183.488 170.315 183.858 170.315C184.23 170.315 184.565 170.384 184.862 170.521C185.163 170.655 185.417 170.844 185.627 171.089C185.839 171.331 186.001 171.617 186.112 171.947C186.223 172.273 186.278 172.628 186.278 173.01V173.123C186.278 173.505 186.223 173.859 186.112 174.186C186.001 174.513 185.839 174.799 185.627 175.044C185.417 175.285 185.164 175.475 184.867 175.612C184.573 175.746 184.24 175.813 183.867 175.813C183.495 175.813 183.16 175.746 182.863 175.612C182.566 175.475 182.311 175.285 182.098 175.044C181.889 174.799 181.729 174.513 181.618 174.186C181.507 173.859 181.452 173.505 181.452 173.123ZM182.358 173.01V173.123C182.358 173.387 182.389 173.637 182.451 173.872C182.513 174.104 182.606 174.31 182.731 174.49C182.858 174.669 183.016 174.812 183.206 174.916C183.395 175.017 183.616 175.068 183.867 175.068C184.116 175.068 184.333 175.017 184.519 174.916C184.709 174.812 184.865 174.669 184.99 174.49C185.114 174.31 185.207 174.104 185.269 173.872C185.334 173.637 185.367 173.387 185.367 173.123V173.01C185.367 172.749 185.334 172.502 185.269 172.27C185.207 172.035 185.112 171.827 184.985 171.648C184.86 171.465 184.704 171.321 184.514 171.217C184.328 171.112 184.109 171.06 183.858 171.06C183.609 171.06 183.39 171.112 183.201 171.217C183.015 171.321 182.858 171.465 182.731 171.648C182.606 171.827 182.513 172.035 182.451 172.27C182.389 172.502 182.358 172.749 182.358 173.01ZM190.973 174.49V170.413H191.884V175.715H191.017L190.973 174.49ZM191.144 173.373L191.521 173.363C191.521 173.716 191.484 174.042 191.409 174.343C191.337 174.64 191.219 174.898 191.056 175.117C190.893 175.336 190.679 175.507 190.414 175.632C190.149 175.752 189.828 175.813 189.449 175.813C189.191 175.813 188.954 175.775 188.738 175.7C188.526 175.625 188.343 175.509 188.189 175.352C188.036 175.195 187.917 174.991 187.832 174.74C187.75 174.488 187.709 174.186 187.709 173.833V170.413H188.616V173.843C188.616 174.081 188.642 174.279 188.694 174.436C188.75 174.589 188.823 174.712 188.915 174.803C189.009 174.892 189.114 174.954 189.228 174.99C189.346 175.026 189.467 175.044 189.591 175.044C189.976 175.044 190.282 174.97 190.507 174.823C190.732 174.673 190.894 174.472 190.992 174.22C191.093 173.966 191.144 173.683 191.144 173.373ZM196.921 174.686V168.188H197.833V175.715H197L196.921 174.686ZM193.354 173.123V173.02C193.354 172.615 193.403 172.247 193.501 171.917C193.602 171.584 193.744 171.298 193.927 171.06C194.114 170.821 194.334 170.638 194.589 170.511C194.847 170.38 195.134 170.315 195.451 170.315C195.784 170.315 196.075 170.374 196.324 170.491C196.575 170.606 196.787 170.774 196.961 170.996C197.137 171.215 197.276 171.48 197.377 171.79C197.478 172.1 197.549 172.451 197.588 172.843V173.294C197.552 173.683 197.482 174.032 197.377 174.343C197.276 174.653 197.137 174.918 196.961 175.137C196.787 175.356 196.575 175.524 196.324 175.641C196.072 175.756 195.778 175.813 195.441 175.813C195.131 175.813 194.847 175.746 194.589 175.612C194.334 175.478 194.114 175.29 193.927 175.048C193.744 174.807 193.602 174.522 193.501 174.196C193.403 173.866 193.354 173.508 193.354 173.123ZM194.265 173.02V173.123C194.265 173.387 194.292 173.636 194.344 173.867C194.399 174.099 194.484 174.304 194.599 174.48C194.713 174.656 194.858 174.795 195.035 174.897C195.211 174.995 195.422 175.044 195.667 175.044C195.967 175.044 196.214 174.98 196.407 174.852C196.603 174.725 196.76 174.557 196.877 174.348C196.995 174.139 197.086 173.912 197.152 173.667V172.486C197.112 172.306 197.055 172.133 196.98 171.966C196.908 171.796 196.814 171.646 196.696 171.515C196.582 171.382 196.439 171.275 196.27 171.197C196.103 171.119 195.905 171.079 195.677 171.079C195.428 171.079 195.214 171.132 195.035 171.236C194.858 171.337 194.713 171.478 194.599 171.658C194.484 171.834 194.399 172.04 194.344 172.275C194.292 172.507 194.265 172.755 194.265 173.02ZM199.572 175.235C199.572 175.081 199.62 174.952 199.714 174.848C199.812 174.74 199.953 174.686 200.136 174.686C200.319 174.686 200.458 174.74 200.552 174.848C200.65 174.952 200.699 175.081 200.699 175.235C200.699 175.385 200.65 175.512 200.552 175.617C200.458 175.721 200.319 175.774 200.136 175.774C199.953 175.774 199.812 175.721 199.714 175.617C199.62 175.512 199.572 175.385 199.572 175.235Z" fill="#777777"/>
</g>
<defs>
<clipPath id="clip0_267_10698">
<rect width="225.798" height="501.772" fill="white"/>
</clipPath>
</defs>
</svg>
