<svg width="226" height="502" viewBox="0 0 226 502" fill="none" xmlns="http://www.w3.org/2000/svg">
<g clip-path="url(#clip0_258_10136)">
<rect width="225.822" height="501.827" fill="white"/>
<rect x="0.627563" width="225.822" height="18.6358" fill="#F1F1F1"/>
<circle cx="19.8115" cy="9.86804" r="3.83679" fill="#C4C4C4"/>
<circle cx="195.208" cy="9.86804" r="3.83679" fill="#C4C4C4"/>
<rect x="204.525" y="6.57812" width="6.57735" height="6.57735" fill="#C4C4C4"/>
<path d="M182.053 13.1562L178.255 6.5789L185.85 6.5789L182.053 13.1562Z" fill="#C4C4C4"/>
<path fill-rule="evenodd" clip-rule="evenodd" d="M105.641 157.765C122.464 161.952 139.472 151.699 143.657 134.907C147.832 118.104 137.595 101.045 120.761 96.9091C103.98 92.7213 86.9825 102.975 82.7973 119.767C78.6121 136.559 88.8494 153.567 105.641 157.765ZM121.107 115.404C125.463 116.882 128.641 119.068 128.077 123.256C127.647 126.305 125.986 127.794 123.69 128.317C126.827 129.929 128.395 132.372 126.96 136.652C125.176 142.021 120.779 142.503 114.896 141.456L113.543 147.174L110.099 146.342L111.452 140.717C110.581 140.501 109.669 140.276 108.705 140.019L107.352 145.685L103.908 144.854L105.261 139.136C104.788 138.999 104.295 138.881 103.795 138.761C103.473 138.683 103.147 138.605 102.822 138.52L98.3324 137.473L99.9621 133.501C99.9621 133.501 102.535 134.158 102.494 134.117C103.447 134.332 103.888 133.716 104.062 133.285L106.153 124.252C106.22 124.273 106.273 124.283 106.327 124.293C106.381 124.303 106.435 124.314 106.501 124.334C106.415 124.275 106.333 124.253 106.261 124.235C106.222 124.225 106.185 124.215 106.153 124.201L107.68 117.744C107.731 117.046 107.465 116.133 106.071 115.784C106.163 115.732 103.59 115.168 103.59 115.168L104.462 111.503L109.207 112.643C109.576 112.73 109.948 112.807 110.319 112.884C110.691 112.961 111.063 113.038 111.432 113.125L112.785 107.459L116.269 108.29L114.957 113.833C115.87 114.018 116.792 114.234 117.704 114.449L119.016 108.906L122.46 109.738L121.107 115.404ZM110.387 136.015C113.156 136.726 119.4 138.33 120.328 134.373C121.263 130.364 115.409 129.102 112.472 128.468C112.123 128.393 111.815 128.327 111.565 128.266L109.781 135.862C109.957 135.904 110.16 135.957 110.387 136.015ZM112.867 124.906C115.177 125.503 120.434 126.863 121.282 123.256C122.142 119.637 117.235 118.586 114.809 118.066C114.517 118.004 114.261 117.949 114.055 117.898L112.395 124.786C112.533 124.82 112.692 124.861 112.867 124.906Z" fill="#F7931A"/>
<path d="M53.3953 192.01H49.3266L49.3045 190.301H52.9984C53.6085 190.301 54.1415 190.198 54.5972 189.993C55.053 189.787 55.4058 189.493 55.6558 189.111C55.913 188.721 56.0417 188.258 56.0417 187.721C56.0417 187.133 55.9277 186.655 55.6999 186.288C55.4793 185.913 55.1375 185.641 54.6744 185.472C54.2186 185.295 53.6379 185.207 52.9322 185.207H49.8007V199.52H47.6726V183.465H52.9322C53.7555 183.465 54.4906 183.55 55.1375 183.719C55.7844 183.88 56.3321 184.138 56.7805 184.49C57.2362 184.836 57.5817 185.277 57.817 185.814C58.0522 186.35 58.1698 186.993 58.1698 187.743C58.1698 188.405 58.0007 189.004 57.6626 189.541C57.3244 190.07 56.854 190.504 56.2512 190.842C55.6558 191.18 54.9574 191.397 54.1562 191.492L53.3953 192.01ZM53.2961 199.52H48.4885L49.6904 197.788H53.2961C53.9724 197.788 54.5458 197.671 55.0162 197.436C55.494 197.2 55.8579 196.87 56.1078 196.443C56.3578 196.009 56.4827 195.499 56.4827 194.91C56.4827 194.315 56.3762 193.8 56.163 193.367C55.9498 192.933 55.6153 192.599 55.1596 192.363C54.7038 192.128 54.1157 192.01 53.3953 192.01H50.363L50.3851 190.301H54.5311L54.9831 190.919C55.755 190.985 56.4092 191.206 56.9459 191.58C57.4825 191.948 57.8905 192.418 58.1698 192.992C58.4565 193.565 58.5998 194.197 58.5998 194.888C58.5998 195.888 58.3793 196.734 57.9382 197.424C57.5045 198.108 56.8907 198.63 56.0968 198.99C55.3029 199.343 54.3693 199.52 53.2961 199.52ZM63.65 187.589V199.52H61.599V187.589H63.65ZM61.4447 184.424C61.4447 184.093 61.5439 183.814 61.7424 183.586C61.9482 183.358 62.2496 183.244 62.6465 183.244C63.0362 183.244 63.3339 183.358 63.5397 183.586C63.7529 183.814 63.8595 184.093 63.8595 184.424C63.8595 184.74 63.7529 185.012 63.5397 185.24C63.3339 185.461 63.0362 185.571 62.6465 185.571C62.2496 185.571 61.9482 185.461 61.7424 185.24C61.5439 185.012 61.4447 184.74 61.4447 184.424ZM71.9198 187.589V189.155H65.4693V187.589H71.9198ZM67.6526 184.689H69.6925V196.564C69.6925 196.969 69.755 197.274 69.8799 197.48C70.0049 197.685 70.1666 197.821 70.3651 197.888C70.5636 197.954 70.7767 197.987 71.0046 197.987C71.1737 197.987 71.3501 197.972 71.5339 197.943C71.725 197.906 71.8684 197.877 71.9639 197.855L71.975 199.52C71.8132 199.571 71.6001 199.619 71.3354 199.663C71.0781 199.714 70.7657 199.74 70.3982 199.74C69.8983 199.74 69.4389 199.641 69.0199 199.442C68.6008 199.244 68.2664 198.913 68.0164 198.45C67.7739 197.979 67.6526 197.347 67.6526 196.553V184.689ZM79.087 198.064C79.5722 198.064 80.0206 197.965 80.4323 197.766C80.8439 197.568 81.1821 197.296 81.4467 196.95C81.7113 196.598 81.862 196.197 81.8988 195.748H83.8394C83.8027 196.454 83.5638 197.112 83.1227 197.722C82.689 198.325 82.1193 198.814 81.4136 199.189C80.7079 199.556 79.9324 199.74 79.087 199.74C78.1902 199.74 77.4073 199.582 76.7384 199.266C76.0768 198.95 75.5255 198.516 75.0844 197.965C74.6507 197.413 74.3236 196.781 74.1031 196.068C73.8899 195.348 73.7833 194.587 73.7833 193.786V193.323C73.7833 192.521 73.8899 191.764 74.1031 191.051C74.3236 190.331 74.6507 189.695 75.0844 189.144C75.5255 188.592 76.0768 188.159 76.7384 187.842C77.4073 187.526 78.1902 187.368 79.087 187.368C80.0206 187.368 80.8366 187.559 81.5349 187.942C82.2333 188.317 82.7809 188.831 83.1779 189.485C83.5822 190.132 83.8027 190.867 83.8394 191.691H81.8988C81.862 191.198 81.7224 190.753 81.4798 190.357C81.2446 189.96 80.9211 189.643 80.5095 189.408C80.1051 189.166 79.631 189.044 79.087 189.044C78.4622 189.044 77.9366 189.169 77.5102 189.419C77.0912 189.662 76.7568 189.993 76.5068 190.412C76.2643 190.823 76.0878 191.283 75.9776 191.79C75.8747 192.29 75.8232 192.801 75.8232 193.323V193.786C75.8232 194.308 75.8747 194.822 75.9776 195.329C76.0805 195.837 76.2532 196.296 76.4958 196.708C76.7457 197.119 77.0802 197.45 77.4992 197.7C77.9256 197.943 78.4549 198.064 79.087 198.064ZM85.5927 193.687V193.433C85.5927 192.573 85.7176 191.775 85.9676 191.04C86.2175 190.298 86.5777 189.655 87.0482 189.111C87.5186 188.559 88.0883 188.133 88.7573 187.831C89.4262 187.523 90.176 187.368 91.0067 187.368C91.8447 187.368 92.5982 187.523 93.2671 187.831C93.9434 188.133 94.5168 188.559 94.9872 189.111C95.465 189.655 95.8289 190.298 96.0788 191.04C96.3288 191.775 96.4537 192.573 96.4537 193.433V193.687C96.4537 194.547 96.3288 195.344 96.0788 196.079C95.8289 196.814 95.465 197.458 94.9872 198.009C94.5168 198.553 93.9471 198.979 93.2781 199.288C92.6165 199.589 91.8667 199.74 91.0287 199.74C90.1907 199.74 89.4372 199.589 88.7683 199.288C88.0993 198.979 87.526 198.553 87.0482 198.009C86.5777 197.458 86.2175 196.814 85.9676 196.079C85.7176 195.344 85.5927 194.547 85.5927 193.687ZM87.6326 193.433V193.687C87.6326 194.282 87.7024 194.844 87.8421 195.374C87.9817 195.895 88.1912 196.359 88.4706 196.763C88.7573 197.167 89.1138 197.487 89.5401 197.722C89.9665 197.95 90.4627 198.064 91.0287 198.064C91.5874 198.064 92.0762 197.95 92.4952 197.722C92.9216 197.487 93.2744 197.167 93.5538 196.763C93.8331 196.359 94.0426 195.895 94.1823 195.374C94.3293 194.844 94.4028 194.282 94.4028 193.687V193.433C94.4028 192.845 94.3293 192.29 94.1823 191.768C94.0426 191.239 93.8294 190.772 93.5428 190.368C93.2634 189.956 92.9106 189.632 92.4842 189.397C92.0652 189.162 91.5727 189.044 91.0067 189.044C90.448 189.044 89.9555 189.162 89.5291 189.397C89.1101 189.632 88.7573 189.956 88.4706 190.368C88.1912 190.772 87.9817 191.239 87.8421 191.768C87.7024 192.29 87.6326 192.845 87.6326 193.433ZM101.228 187.589V199.52H99.1773V187.589H101.228ZM99.0229 184.424C99.0229 184.093 99.1222 183.814 99.3206 183.586C99.5265 183.358 99.8278 183.244 100.225 183.244C100.614 183.244 100.912 183.358 101.118 183.586C101.331 183.814 101.438 184.093 101.438 184.424C101.438 184.74 101.331 185.012 101.118 185.24C100.912 185.461 100.614 185.571 100.225 185.571C99.8278 185.571 99.5265 185.461 99.3206 185.24C99.1222 185.012 99.0229 184.74 99.0229 184.424ZM106.543 190.136V199.52H104.503V187.589H106.433L106.543 190.136ZM106.058 193.102L105.209 193.069C105.216 192.253 105.337 191.5 105.573 190.809C105.808 190.11 106.139 189.504 106.565 188.989C106.991 188.475 107.499 188.078 108.087 187.798C108.682 187.512 109.34 187.368 110.06 187.368C110.649 187.368 111.178 187.449 111.648 187.611C112.119 187.765 112.519 188.015 112.85 188.361C113.188 188.706 113.446 189.155 113.622 189.706C113.798 190.25 113.887 190.915 113.887 191.702V199.52H111.836V191.68C111.836 191.055 111.744 190.555 111.56 190.18C111.376 189.798 111.108 189.522 110.755 189.353C110.402 189.177 109.969 189.088 109.454 189.088C108.947 189.088 108.484 189.195 108.065 189.408C107.653 189.621 107.296 189.915 106.995 190.29C106.701 190.665 106.469 191.095 106.3 191.58C106.139 192.058 106.058 192.565 106.058 193.102ZM125.608 197.402L128.673 187.589H130.018L129.754 189.541L126.633 199.52H125.321L125.608 197.402ZM123.546 187.589L126.159 197.513L126.347 199.52H124.968L121.506 187.589H123.546ZM132.951 197.436L135.443 187.589H137.472L134.01 199.52H132.643L132.951 197.436ZM130.316 187.589L133.315 197.237L133.657 199.52H132.356L129.147 189.519L128.883 187.589H130.316ZM146.602 197.48V191.338C146.602 190.867 146.507 190.459 146.315 190.114C146.132 189.761 145.852 189.489 145.477 189.298C145.103 189.107 144.639 189.011 144.088 189.011C143.574 189.011 143.121 189.1 142.732 189.276C142.35 189.452 142.048 189.684 141.828 189.971C141.615 190.257 141.508 190.566 141.508 190.897H139.468C139.468 190.47 139.578 190.048 139.799 189.629C140.019 189.21 140.335 188.831 140.747 188.493C141.166 188.148 141.666 187.876 142.247 187.677C142.835 187.471 143.489 187.368 144.209 187.368C145.077 187.368 145.841 187.515 146.503 187.809C147.172 188.103 147.694 188.548 148.069 189.144C148.451 189.732 148.642 190.47 148.642 191.36V196.917C148.642 197.314 148.675 197.737 148.741 198.185C148.815 198.634 148.921 199.02 149.061 199.343V199.52H146.933C146.83 199.284 146.749 198.972 146.69 198.582C146.632 198.185 146.602 197.818 146.602 197.48ZM146.955 192.286L146.977 193.72H144.915C144.334 193.72 143.816 193.767 143.36 193.863C142.905 193.951 142.522 194.087 142.214 194.271C141.905 194.455 141.67 194.686 141.508 194.966C141.346 195.238 141.265 195.557 141.265 195.925C141.265 196.3 141.35 196.642 141.519 196.95C141.688 197.259 141.942 197.505 142.28 197.689C142.625 197.866 143.048 197.954 143.548 197.954C144.173 197.954 144.724 197.821 145.202 197.557C145.68 197.292 146.058 196.969 146.338 196.586C146.624 196.204 146.779 195.833 146.801 195.473L147.672 196.454C147.62 196.763 147.481 197.105 147.253 197.48C147.025 197.855 146.72 198.215 146.338 198.56C145.963 198.898 145.514 199.181 144.992 199.409C144.478 199.63 143.897 199.74 143.25 199.74C142.442 199.74 141.732 199.582 141.122 199.266C140.519 198.95 140.049 198.527 139.711 197.998C139.38 197.461 139.214 196.862 139.214 196.201C139.214 195.561 139.339 194.999 139.589 194.514C139.839 194.021 140.199 193.613 140.67 193.29C141.14 192.959 141.706 192.709 142.368 192.54C143.03 192.371 143.768 192.286 144.584 192.286H146.955ZM154.067 182.583V199.52H152.016V182.583H154.067ZM159.558 182.583V199.52H157.507V182.583H159.558ZM167.784 199.74C166.953 199.74 166.2 199.6 165.524 199.321C164.855 199.034 164.278 198.634 163.792 198.119C163.315 197.605 162.947 196.994 162.69 196.289C162.433 195.583 162.304 194.811 162.304 193.973V193.51C162.304 192.54 162.447 191.676 162.734 190.919C163.021 190.154 163.41 189.507 163.903 188.978C164.395 188.449 164.954 188.048 165.579 187.776C166.204 187.504 166.85 187.368 167.519 187.368C168.372 187.368 169.107 187.515 169.725 187.809C170.35 188.103 170.86 188.515 171.257 189.044C171.654 189.566 171.948 190.184 172.14 190.897C172.331 191.603 172.426 192.374 172.426 193.212V194.128H163.517V192.463H170.386V192.308C170.357 191.779 170.247 191.264 170.056 190.765C169.872 190.265 169.578 189.853 169.173 189.53C168.769 189.206 168.218 189.044 167.519 189.044C167.056 189.044 166.63 189.144 166.24 189.342C165.851 189.533 165.516 189.82 165.237 190.202C164.958 190.584 164.741 191.051 164.586 191.603C164.432 192.154 164.355 192.79 164.355 193.51V193.973C164.355 194.539 164.432 195.072 164.586 195.572C164.748 196.065 164.98 196.498 165.281 196.873C165.59 197.248 165.961 197.542 166.395 197.755C166.836 197.968 167.336 198.075 167.894 198.075C168.615 198.075 169.225 197.928 169.725 197.634C170.225 197.34 170.662 196.947 171.037 196.454L172.272 197.436C172.015 197.825 171.687 198.196 171.29 198.549C170.894 198.902 170.405 199.189 169.824 199.409C169.251 199.63 168.571 199.74 167.784 199.74ZM179.803 187.589V189.155H173.352V187.589H179.803ZM175.536 184.689H177.576V196.564C177.576 196.969 177.638 197.274 177.763 197.48C177.888 197.685 178.05 197.821 178.248 197.888C178.447 197.954 178.66 197.987 178.888 197.987C179.057 197.987 179.233 197.972 179.417 197.943C179.608 197.906 179.751 197.877 179.847 197.855L179.858 199.52C179.696 199.571 179.483 199.619 179.219 199.663C178.961 199.714 178.649 199.74 178.281 199.74C177.781 199.74 177.322 199.641 176.903 199.442C176.484 199.244 176.149 198.913 175.9 198.45C175.657 197.979 175.536 197.347 175.536 196.553V184.689Z" fill="black"/>
<path d="M66.1419 223.559L68.2664 216.09H69.2955L68.7001 218.994L66.4139 226.793H65.3921L66.1419 223.559ZM63.944 216.09L65.6347 223.412L66.1419 226.793H65.1275L62.5326 216.09H63.944ZM72.0448 223.404L73.6988 216.09H75.1175L72.53 226.793H71.5155L72.0448 223.404ZM69.4499 216.09L71.5155 223.559L72.2653 226.793H71.2435L69.0382 218.994L68.4355 216.09H69.4499ZM79.5501 226.94C78.9964 226.94 78.494 226.847 78.0432 226.661C77.5972 226.47 77.2125 226.202 76.8891 225.859C76.5705 225.516 76.3255 225.11 76.154 224.639C75.9825 224.169 75.8967 223.654 75.8967 223.095V222.787C75.8967 222.14 75.9923 221.564 76.1834 221.059C76.3745 220.55 76.6342 220.118 76.9626 219.765C77.2909 219.413 77.6634 219.145 78.0799 218.964C78.4965 218.783 78.9278 218.692 79.3737 218.692C79.9422 218.692 80.4323 218.79 80.8439 218.986C81.2605 219.182 81.6011 219.457 81.8657 219.81C82.1303 220.157 82.3264 220.569 82.4538 221.044C82.5812 221.515 82.6449 222.03 82.6449 222.588V223.198H76.7053V222.088H81.285V221.985C81.2654 221.633 81.1919 221.29 81.0644 220.956C80.9419 220.623 80.7459 220.349 80.4764 220.133C80.2068 219.917 79.8393 219.81 79.3737 219.81C79.065 219.81 78.7807 219.876 78.521 220.008C78.2613 220.135 78.0383 220.327 77.8521 220.581C77.6658 220.836 77.5213 221.147 77.4184 221.515C77.3154 221.883 77.264 222.306 77.264 222.787V223.095C77.264 223.473 77.3154 223.828 77.4184 224.161C77.5262 224.49 77.6805 224.779 77.8815 225.029C78.0873 225.279 78.3348 225.475 78.6239 225.617C78.918 225.759 79.2512 225.83 79.6237 225.83C80.1039 225.83 80.5107 225.732 80.8439 225.536C81.1772 225.34 81.4687 225.078 81.7187 224.749L82.542 225.404C82.3705 225.663 82.1524 225.911 81.8878 226.146C81.6231 226.381 81.2972 226.572 80.9101 226.719C80.5278 226.866 80.0745 226.94 79.5501 226.94ZM85.7103 215.502V226.793H84.343V215.502H85.7103ZM91.0765 225.823C91.3999 225.823 91.6989 225.756 91.9733 225.624C92.2477 225.492 92.4732 225.311 92.6496 225.08C92.826 224.845 92.9265 224.578 92.951 224.279H94.2448C94.2203 224.749 94.061 225.188 93.767 225.595C93.4778 225.997 93.098 226.323 92.6276 226.572C92.1571 226.817 91.6401 226.94 91.0765 226.94C90.4786 226.94 89.9567 226.835 89.5107 226.624C89.0697 226.413 88.7021 226.124 88.4081 225.756C88.1189 225.389 87.9009 224.967 87.7538 224.492C87.6117 224.012 87.5407 223.505 87.5407 222.97V222.662C87.5407 222.128 87.6117 221.623 87.7538 221.147C87.9009 220.667 88.1189 220.243 88.4081 219.876C88.7021 219.508 89.0697 219.219 89.5107 219.008C89.9567 218.798 90.4786 218.692 91.0765 218.692C91.6989 218.692 92.2428 218.82 92.7084 219.074C93.174 219.324 93.5391 219.667 93.8037 220.104C94.0732 220.535 94.2203 221.025 94.2448 221.574H92.951C92.9265 221.245 92.8334 220.949 92.6717 220.684C92.5148 220.42 92.2992 220.209 92.0248 220.052C91.7552 219.89 91.4391 219.81 91.0765 219.81C90.6599 219.81 90.3095 219.893 90.0253 220.059C89.746 220.221 89.523 220.442 89.3564 220.721C89.1946 220.995 89.077 221.302 89.0035 221.64C88.9349 221.973 88.9006 222.314 88.9006 222.662V222.97C88.9006 223.318 88.9349 223.661 89.0035 224C89.0721 224.338 89.1873 224.644 89.349 224.918C89.5156 225.193 89.7386 225.413 90.0179 225.58C90.3022 225.742 90.655 225.823 91.0765 225.823ZM95.4136 222.904V222.735C95.4136 222.162 95.4969 221.63 95.6635 221.14C95.8301 220.645 96.0703 220.216 96.3839 219.854C96.6976 219.486 97.0774 219.202 97.5233 219.001C97.9693 218.795 98.4691 218.692 99.0229 218.692C99.5816 218.692 100.084 218.795 100.53 219.001C100.981 219.202 101.363 219.486 101.677 219.854C101.995 220.216 102.238 220.645 102.404 221.14C102.571 221.63 102.654 222.162 102.654 222.735V222.904C102.654 223.478 102.571 224.009 102.404 224.499C102.238 224.99 101.995 225.418 101.677 225.786C101.363 226.149 100.983 226.433 100.537 226.639C100.096 226.84 99.5963 226.94 99.0376 226.94C98.4789 226.94 97.9766 226.84 97.5307 226.639C97.0847 226.433 96.7025 226.149 96.3839 225.786C96.0703 225.418 95.8301 224.99 95.6635 224.499C95.4969 224.009 95.4136 223.478 95.4136 222.904ZM96.7735 222.735V222.904C96.7735 223.301 96.8201 223.676 96.9132 224.029C97.0063 224.377 97.146 224.686 97.3322 224.955C97.5233 225.225 97.761 225.438 98.0452 225.595C98.3295 225.747 98.6603 225.823 99.0376 225.823C99.4101 225.823 99.736 225.747 100.015 225.595C100.3 225.438 100.535 225.225 100.721 224.955C100.907 224.686 101.047 224.377 101.14 224.029C101.238 223.676 101.287 223.301 101.287 222.904V222.735C101.287 222.343 101.238 221.973 101.14 221.625C101.047 221.272 100.905 220.961 100.714 220.692C100.527 220.417 100.292 220.202 100.008 220.045C99.7286 219.888 99.4003 219.81 99.0229 219.81C98.6505 219.81 98.3221 219.888 98.0379 220.045C97.7585 220.202 97.5233 220.417 97.3322 220.692C97.146 220.961 97.0063 221.272 96.9132 221.625C96.8201 221.973 96.7735 222.343 96.7735 222.735ZM105.712 220.42V226.793H104.345V218.839H105.639L105.712 220.42ZM105.433 222.515L104.801 222.493C104.806 221.949 104.877 221.446 105.014 220.986C105.151 220.52 105.355 220.116 105.624 219.773C105.894 219.43 106.229 219.165 106.631 218.979C107.033 218.788 107.499 218.692 108.028 218.692C108.4 218.692 108.743 218.746 109.057 218.854C109.371 218.957 109.643 219.121 109.873 219.346C110.103 219.572 110.282 219.861 110.41 220.214C110.537 220.567 110.601 220.993 110.601 221.493V226.793H109.241V221.559C109.241 221.143 109.17 220.809 109.028 220.559C108.89 220.309 108.694 220.128 108.44 220.015C108.185 219.898 107.886 219.839 107.543 219.839C107.141 219.839 106.805 219.91 106.536 220.052C106.266 220.194 106.05 220.39 105.889 220.64C105.727 220.89 105.609 221.177 105.536 221.5C105.467 221.819 105.433 222.157 105.433 222.515ZM110.586 221.765L109.674 222.044C109.679 221.608 109.75 221.189 109.888 220.787C110.03 220.385 110.233 220.028 110.498 219.714C110.767 219.4 111.098 219.153 111.49 218.972C111.882 218.785 112.331 218.692 112.835 218.692C113.262 218.692 113.639 218.749 113.967 218.861C114.301 218.974 114.58 219.148 114.805 219.383C115.036 219.614 115.21 219.91 115.327 220.273C115.445 220.635 115.504 221.067 115.504 221.566V226.793H114.137V221.552C114.137 221.106 114.065 220.76 113.923 220.515C113.786 220.265 113.59 220.091 113.335 219.993C113.085 219.89 112.786 219.839 112.438 219.839C112.14 219.839 111.875 219.89 111.645 219.993C111.414 220.096 111.221 220.238 111.064 220.42C110.907 220.596 110.787 220.799 110.704 221.03C110.625 221.26 110.586 221.505 110.586 221.765ZM120.863 226.94C120.309 226.94 119.807 226.847 119.356 226.661C118.91 226.47 118.525 226.202 118.202 225.859C117.883 225.516 117.638 225.11 117.467 224.639C117.295 224.169 117.209 223.654 117.209 223.095V222.787C117.209 222.14 117.305 221.564 117.496 221.059C117.687 220.55 117.947 220.118 118.275 219.765C118.603 219.413 118.976 219.145 119.393 218.964C119.809 218.783 120.24 218.692 120.686 218.692C121.255 218.692 121.745 218.79 122.156 218.986C122.573 219.182 122.914 219.457 123.178 219.81C123.443 220.157 123.639 220.569 123.766 221.044C123.894 221.515 123.957 222.03 123.957 222.588V223.198H118.018V222.088H122.598V221.985C122.578 221.633 122.504 221.29 122.377 220.956C122.254 220.623 122.058 220.349 121.789 220.133C121.519 219.917 121.152 219.81 120.686 219.81C120.378 219.81 120.093 219.876 119.834 220.008C119.574 220.135 119.351 220.327 119.165 220.581C118.978 220.836 118.834 221.147 118.731 221.515C118.628 221.883 118.577 222.306 118.577 222.787V223.095C118.577 223.473 118.628 223.828 118.731 224.161C118.839 224.49 118.993 224.779 119.194 225.029C119.4 225.279 119.647 225.475 119.936 225.617C120.231 225.759 120.564 225.83 120.936 225.83C121.416 225.83 121.823 225.732 122.156 225.536C122.49 225.34 122.781 225.078 123.031 224.749L123.855 225.404C123.683 225.663 123.465 225.911 123.2 226.146C122.936 226.381 122.61 226.572 122.223 226.719C121.84 226.866 121.387 226.94 120.863 226.94ZM129.272 215.502H130.64V225.249L130.522 226.793H129.272V215.502ZM136.013 222.75V222.904C136.013 223.483 135.944 224.019 135.807 224.514C135.67 225.004 135.469 225.431 135.204 225.793C134.94 226.156 134.616 226.438 134.234 226.639C133.852 226.84 133.413 226.94 132.918 226.94C132.414 226.94 131.97 226.854 131.588 226.683C131.21 226.506 130.892 226.254 130.632 225.926C130.372 225.597 130.164 225.2 130.007 224.735C129.855 224.269 129.75 223.745 129.691 223.162V222.485C129.75 221.897 129.855 221.37 130.007 220.905C130.164 220.439 130.372 220.042 130.632 219.714C130.892 219.381 131.21 219.128 131.588 218.957C131.965 218.78 132.404 218.692 132.904 218.692C133.403 218.692 133.847 218.79 134.234 218.986C134.621 219.177 134.945 219.452 135.204 219.81C135.469 220.167 135.67 220.596 135.807 221.096C135.944 221.591 136.013 222.142 136.013 222.75ZM134.646 222.904V222.75C134.646 222.353 134.609 221.981 134.536 221.633C134.462 221.28 134.344 220.971 134.183 220.706C134.021 220.437 133.808 220.226 133.543 220.074C133.279 219.917 132.953 219.839 132.565 219.839C132.222 219.839 131.923 219.898 131.669 220.015C131.419 220.133 131.206 220.292 131.029 220.493C130.853 220.689 130.708 220.915 130.595 221.169C130.488 221.419 130.407 221.679 130.353 221.949V223.72C130.431 224.063 130.559 224.394 130.735 224.713C130.916 225.026 131.157 225.284 131.455 225.484C131.759 225.685 132.134 225.786 132.58 225.786C132.948 225.786 133.261 225.712 133.521 225.565C133.786 225.413 133.999 225.205 134.161 224.941C134.327 224.676 134.45 224.37 134.528 224.022C134.607 223.674 134.646 223.301 134.646 222.904ZM142.423 225.433V221.339C142.423 221.025 142.359 220.753 142.232 220.523C142.109 220.287 141.923 220.106 141.673 219.979C141.423 219.851 141.115 219.787 140.747 219.787C140.404 219.787 140.103 219.846 139.843 219.964C139.588 220.082 139.387 220.236 139.24 220.427C139.098 220.618 139.027 220.824 139.027 221.044H137.667C137.667 220.76 137.741 220.478 137.888 220.199C138.035 219.92 138.245 219.667 138.52 219.442C138.799 219.212 139.132 219.03 139.519 218.898C139.912 218.761 140.348 218.692 140.828 218.692C141.406 218.692 141.916 218.79 142.357 218.986C142.803 219.182 143.151 219.479 143.401 219.876C143.656 220.268 143.783 220.76 143.783 221.353V225.058C143.783 225.323 143.805 225.605 143.849 225.903C143.898 226.202 143.969 226.46 144.062 226.675V226.793H142.644C142.575 226.636 142.521 226.428 142.482 226.168C142.443 225.903 142.423 225.658 142.423 225.433ZM142.658 221.971L142.673 222.926H141.298C140.911 222.926 140.566 222.958 140.262 223.022C139.958 223.081 139.703 223.171 139.497 223.294C139.292 223.416 139.135 223.571 139.027 223.757C138.919 223.938 138.865 224.152 138.865 224.397C138.865 224.646 138.922 224.874 139.034 225.08C139.147 225.286 139.316 225.45 139.542 225.573C139.772 225.69 140.054 225.749 140.387 225.749C140.803 225.749 141.171 225.661 141.49 225.484C141.808 225.308 142.06 225.092 142.247 224.838C142.438 224.583 142.541 224.335 142.555 224.095L143.136 224.749C143.102 224.955 143.009 225.183 142.857 225.433C142.705 225.683 142.502 225.923 142.247 226.153C141.997 226.379 141.698 226.568 141.35 226.719C141.007 226.866 140.62 226.94 140.188 226.94C139.649 226.94 139.176 226.835 138.77 226.624C138.368 226.413 138.054 226.131 137.829 225.779C137.608 225.421 137.498 225.021 137.498 224.58C137.498 224.154 137.581 223.779 137.748 223.456C137.915 223.127 138.155 222.855 138.468 222.64C138.782 222.419 139.159 222.253 139.6 222.14C140.041 222.027 140.534 221.971 141.078 221.971H142.658ZM149.105 225.823C149.429 225.823 149.728 225.756 150.002 225.624C150.276 225.492 150.502 225.311 150.678 225.08C150.855 224.845 150.955 224.578 150.98 224.279H152.273C152.249 224.749 152.09 225.188 151.796 225.595C151.507 225.997 151.127 226.323 150.656 226.572C150.186 226.817 149.669 226.94 149.105 226.94C148.507 226.94 147.985 226.835 147.539 226.624C147.098 226.413 146.731 226.124 146.437 225.756C146.148 225.389 145.93 224.967 145.783 224.492C145.64 224.012 145.569 223.505 145.569 222.97V222.662C145.569 222.128 145.64 221.623 145.783 221.147C145.93 220.667 146.148 220.243 146.437 219.876C146.731 219.508 147.098 219.219 147.539 219.008C147.985 218.798 148.507 218.692 149.105 218.692C149.728 218.692 150.272 218.82 150.737 219.074C151.203 219.324 151.568 219.667 151.832 220.104C152.102 220.535 152.249 221.025 152.273 221.574H150.98C150.955 221.245 150.862 220.949 150.7 220.684C150.544 220.42 150.328 220.209 150.053 220.052C149.784 219.89 149.468 219.81 149.105 219.81C148.689 219.81 148.338 219.893 148.054 220.059C147.775 220.221 147.552 220.442 147.385 220.721C147.223 220.995 147.106 221.302 147.032 221.64C146.964 221.973 146.929 222.314 146.929 222.662V222.97C146.929 223.318 146.964 223.661 147.032 224C147.101 224.338 147.216 224.644 147.378 224.918C147.544 225.193 147.767 225.413 148.047 225.58C148.331 225.742 148.684 225.823 149.105 225.823ZM155.17 215.502V226.793H153.802V215.502H155.17ZM160.029 218.839L156.559 222.551L154.618 224.566L154.508 223.117L155.898 221.456L158.367 218.839H160.029ZM158.786 226.793L155.949 223L156.655 221.787L160.389 226.793H158.786ZM161.455 226.073C161.455 225.842 161.526 225.649 161.668 225.492C161.815 225.33 162.026 225.249 162.3 225.249C162.575 225.249 162.783 225.33 162.925 225.492C163.072 225.649 163.146 225.842 163.146 226.073C163.146 226.298 163.072 226.489 162.925 226.646C162.783 226.803 162.575 226.881 162.3 226.881C162.026 226.881 161.815 226.803 161.668 226.646C161.526 226.489 161.455 226.298 161.455 226.073Z" fill="#777777"/>
<rect x="8.15491" y="264.16" width="210.631" height="33.605" rx="3.14375" fill="#F7931A"/>
<path d="M105.138 283.19V283.961H101.562V283.19H105.138ZM101.749 276.809V283.961H100.801V276.809H101.749ZM106.16 281.362V281.249C106.16 280.866 106.216 280.511 106.327 280.184C106.438 279.853 106.599 279.566 106.808 279.324C107.018 279.078 107.272 278.888 107.57 278.754C107.868 278.617 108.202 278.548 108.572 278.548C108.945 278.548 109.281 278.617 109.579 278.754C109.88 278.888 110.135 279.078 110.345 279.324C110.558 279.566 110.72 279.853 110.831 280.184C110.943 280.511 110.998 280.866 110.998 281.249V281.362C110.998 281.746 110.943 282.101 110.831 282.428C110.72 282.756 110.558 283.042 110.345 283.288C110.135 283.53 109.882 283.72 109.584 283.858C109.289 283.992 108.955 284.059 108.582 284.059C108.208 284.059 107.873 283.992 107.575 283.858C107.277 283.72 107.021 283.53 106.808 283.288C106.599 283.042 106.438 282.756 106.327 282.428C106.216 282.101 106.16 281.746 106.16 281.362ZM107.069 281.249V281.362C107.069 281.628 107.1 281.878 107.162 282.114C107.224 282.346 107.317 282.553 107.442 282.733C107.57 282.913 107.728 283.055 107.918 283.16C108.108 283.262 108.329 283.313 108.582 283.313C108.83 283.313 109.048 283.262 109.235 283.16C109.425 283.055 109.582 282.913 109.706 282.733C109.831 282.553 109.924 282.346 109.986 282.114C110.052 281.878 110.085 281.628 110.085 281.362V281.249C110.085 280.987 110.052 280.74 109.986 280.508C109.924 280.272 109.829 280.064 109.701 279.884C109.577 279.701 109.42 279.556 109.23 279.452C109.043 279.347 108.824 279.294 108.572 279.294C108.323 279.294 108.103 279.347 107.913 279.452C107.727 279.556 107.57 279.701 107.442 279.884C107.317 280.064 107.224 280.272 107.162 280.508C107.1 280.74 107.069 280.987 107.069 281.249ZM115.896 278.646H116.721V283.848C116.721 284.316 116.626 284.716 116.436 285.047C116.246 285.377 115.981 285.628 115.64 285.798C115.303 285.972 114.913 286.058 114.471 286.058C114.288 286.058 114.072 286.029 113.823 285.97C113.577 285.914 113.335 285.818 113.096 285.68C112.86 285.546 112.662 285.364 112.501 285.135L112.978 284.595C113.201 284.863 113.433 285.05 113.675 285.155C113.921 285.259 114.163 285.312 114.402 285.312C114.691 285.312 114.939 285.258 115.149 285.15C115.359 285.042 115.521 284.881 115.635 284.668C115.753 284.459 115.812 284.2 115.812 283.892V279.815L115.896 278.646ZM112.236 281.362V281.259C112.236 280.853 112.284 280.485 112.379 280.154C112.477 279.82 112.616 279.533 112.796 279.294C112.979 279.055 113.201 278.872 113.459 278.744C113.718 278.613 114.009 278.548 114.334 278.548C114.668 278.548 114.959 278.607 115.208 278.725C115.46 278.839 115.673 279.008 115.847 279.231C116.023 279.45 116.163 279.715 116.264 280.026C116.366 280.337 116.436 280.689 116.475 281.082V281.534C116.439 281.924 116.369 282.274 116.264 282.586C116.163 282.897 116.023 283.162 115.847 283.381C115.673 283.601 115.46 283.769 115.208 283.887C114.956 284.002 114.661 284.059 114.324 284.059C114.006 284.059 113.718 283.992 113.459 283.858C113.204 283.724 112.984 283.535 112.801 283.293C112.618 283.051 112.477 282.766 112.379 282.438C112.284 282.107 112.236 281.749 112.236 281.362ZM113.145 281.259V281.362C113.145 281.628 113.171 281.877 113.223 282.109C113.279 282.342 113.363 282.546 113.474 282.723C113.589 282.9 113.734 283.039 113.911 283.141C114.088 283.239 114.299 283.288 114.545 283.288C114.846 283.288 115.095 283.224 115.291 283.096C115.488 282.969 115.643 282.8 115.758 282.59C115.876 282.381 115.968 282.153 116.033 281.908V280.724C115.997 280.544 115.941 280.37 115.866 280.203C115.794 280.033 115.699 279.882 115.581 279.751C115.467 279.617 115.324 279.511 115.154 279.432C114.984 279.353 114.784 279.314 114.555 279.314C114.306 279.314 114.091 279.366 113.911 279.471C113.734 279.573 113.589 279.714 113.474 279.894C113.363 280.071 113.279 280.277 113.223 280.513C113.171 280.745 113.145 280.994 113.145 281.259ZM119.403 278.646V283.961H118.489V278.646H119.403ZM118.42 277.236C118.42 277.089 118.465 276.964 118.553 276.863C118.645 276.761 118.779 276.711 118.956 276.711C119.129 276.711 119.262 276.761 119.354 276.863C119.449 276.964 119.496 277.089 119.496 277.236C119.496 277.377 119.449 277.498 119.354 277.6C119.262 277.698 119.129 277.747 118.956 277.747C118.779 277.747 118.645 277.698 118.553 277.6C118.465 277.498 118.42 277.377 118.42 277.236ZM122.085 279.781V283.961H121.176V278.646H122.036L122.085 279.781ZM121.869 281.102L121.491 281.087C121.494 280.724 121.548 280.388 121.653 280.08C121.757 279.769 121.905 279.499 122.095 279.27C122.285 279.041 122.511 278.864 122.773 278.739C123.038 278.612 123.331 278.548 123.652 278.548C123.914 278.548 124.15 278.584 124.359 278.656C124.569 278.725 124.747 278.836 124.895 278.99C125.045 279.144 125.16 279.344 125.238 279.589C125.317 279.831 125.356 280.128 125.356 280.478V283.961H124.443V280.468C124.443 280.19 124.402 279.967 124.32 279.8C124.238 279.63 124.119 279.507 123.961 279.432C123.804 279.353 123.611 279.314 123.382 279.314C123.156 279.314 122.949 279.362 122.763 279.457C122.579 279.552 122.421 279.682 122.286 279.85C122.155 280.017 122.052 280.208 121.977 280.424C121.905 280.637 121.869 280.863 121.869 281.102Z" fill="white"/>
<path d="M76.2244 417.63H79.4723C80.2091 417.63 80.8313 417.743 81.3389 417.967C81.851 418.192 82.2396 418.524 82.5046 418.964C82.7742 419.4 82.9089 419.937 82.9089 420.575C82.9089 421.024 82.8168 421.435 82.6327 421.808C82.453 422.176 82.1924 422.491 81.851 422.751C81.5141 423.008 81.1098 423.198 80.6381 423.324L80.2742 423.466H77.2217L77.2082 422.408H79.5128C79.98 422.408 80.3686 422.327 80.6785 422.165C80.9885 421.999 81.2221 421.777 81.3793 421.498C81.5365 421.22 81.6152 420.912 81.6152 420.575C81.6152 420.198 81.541 419.867 81.3928 419.584C81.2446 419.301 81.011 419.084 80.692 418.931C80.3775 418.774 79.971 418.695 79.4723 418.695H77.525V427.441H76.2244V417.63ZM81.9588 427.441L79.5734 422.994L80.9278 422.987L83.3469 427.361V427.441H81.9588ZM87.5652 427.576C87.0575 427.576 86.5971 427.491 86.1838 427.32C85.775 427.145 85.4224 426.9 85.1259 426.586C84.8339 426.271 84.6093 425.898 84.452 425.467C84.2948 425.036 84.2162 424.564 84.2162 424.052V423.769C84.2162 423.176 84.3038 422.648 84.479 422.185C84.6542 421.718 84.8923 421.323 85.1933 420.999C85.4942 420.676 85.8357 420.431 86.2175 420.265C86.5993 420.099 86.9947 420.016 87.4035 420.016C87.9246 420.016 88.3738 420.106 88.7511 420.285C89.133 420.465 89.4452 420.716 89.6878 421.04C89.9304 421.359 90.11 421.736 90.2268 422.172C90.3436 422.603 90.402 423.075 90.402 423.587V424.146H84.9574V423.129H89.1554V423.034C89.1375 422.711 89.0701 422.397 88.9533 422.091C88.841 421.786 88.6613 421.534 88.4142 421.336C88.1671 421.139 87.8302 421.04 87.4035 421.04C87.1204 421.04 86.8599 421.101 86.6218 421.222C86.3837 421.339 86.1793 421.514 86.0086 421.747C85.8379 421.981 85.7054 422.266 85.611 422.603C85.5167 422.94 85.4695 423.329 85.4695 423.769V424.052C85.4695 424.398 85.5167 424.724 85.611 425.029C85.7099 425.33 85.8514 425.595 86.0356 425.824C86.2242 426.053 86.4511 426.233 86.7161 426.363C86.9857 426.494 87.2911 426.559 87.6326 426.559C88.0728 426.559 88.4457 426.469 88.7511 426.289C89.0566 426.109 89.3239 425.869 89.553 425.568L90.3077 426.168C90.1505 426.406 89.9506 426.633 89.708 426.848C89.4654 427.064 89.1667 427.239 88.8118 427.374C88.4614 427.509 88.0458 427.576 87.5652 427.576ZM96.1027 425.507C96.1027 425.328 96.0623 425.162 95.9814 425.009C95.9051 424.852 95.7456 424.71 95.503 424.584C95.2649 424.454 94.9055 424.342 94.4249 424.247C94.0206 424.162 93.6544 424.061 93.3265 423.944C93.0031 423.827 92.7268 423.686 92.4977 423.52C92.2731 423.353 92.1001 423.158 91.9788 422.933C91.8575 422.709 91.7969 422.446 91.7969 422.145C91.7969 421.858 91.8598 421.586 91.9856 421.33C92.1158 421.074 92.2978 420.847 92.5314 420.649C92.7695 420.451 93.0547 420.296 93.3872 420.184C93.7196 420.072 94.0902 420.016 94.499 420.016C95.083 420.016 95.5816 420.119 95.9949 420.326C96.4082 420.532 96.7249 420.809 96.945 421.154C97.1652 421.496 97.2752 421.875 97.2752 422.293H96.0286C96.0286 422.091 95.968 421.896 95.8467 421.707C95.7299 421.514 95.5569 421.354 95.3278 421.229C95.1032 421.103 94.8269 421.04 94.499 421.04C94.1531 421.04 93.8723 421.094 93.6567 421.202C93.4456 421.305 93.2906 421.437 93.1917 421.599C93.0974 421.761 93.0502 421.932 93.0502 422.111C93.0502 422.246 93.0727 422.367 93.1176 422.475C93.167 422.579 93.2524 422.675 93.3737 422.765C93.495 422.85 93.6657 422.931 93.8858 423.008C94.1059 423.084 94.3867 423.16 94.7281 423.237C95.3256 423.371 95.8175 423.533 96.2038 423.722C96.5901 423.91 96.8777 424.142 97.0663 424.416C97.255 424.69 97.3493 425.022 97.3493 425.413C97.3493 425.732 97.282 426.024 97.1472 426.289C97.0169 426.554 96.826 426.783 96.5744 426.976C96.3273 427.165 96.0309 427.313 95.685 427.421C95.3435 427.525 94.9595 427.576 94.5327 427.576C93.8903 427.576 93.3467 427.462 92.902 427.233C92.4573 427.003 92.1203 426.707 91.8912 426.343C91.6621 425.979 91.5476 425.595 91.5476 425.191H92.8009C92.8189 425.532 92.9177 425.804 93.0974 426.006C93.2771 426.204 93.4972 426.345 93.7578 426.431C94.0183 426.512 94.2766 426.552 94.5327 426.552C94.8741 426.552 95.1594 426.507 95.3885 426.417C95.6221 426.327 95.7995 426.204 95.9208 426.047C96.0421 425.889 96.1027 425.71 96.1027 425.507ZM102.012 427.576C101.505 427.576 101.044 427.491 100.631 427.32C100.222 427.145 99.8695 426.9 99.573 426.586C99.281 426.271 99.0564 425.898 98.8992 425.467C98.7419 425.036 98.6633 424.564 98.6633 424.052V423.769C98.6633 423.176 98.7509 422.648 98.9261 422.185C99.1013 421.718 99.3394 421.323 99.6404 420.999C99.9414 420.676 100.283 420.431 100.665 420.265C101.046 420.099 101.442 420.016 101.851 420.016C102.372 420.016 102.821 420.106 103.198 420.285C103.58 420.465 103.892 420.716 104.135 421.04C104.377 421.359 104.557 421.736 104.674 422.172C104.791 422.603 104.849 423.075 104.849 423.587V424.146H99.4046V423.129H103.603V423.034C103.585 422.711 103.517 422.397 103.4 422.091C103.288 421.786 103.108 421.534 102.861 421.336C102.614 421.139 102.277 421.04 101.851 421.04C101.568 421.04 101.307 421.101 101.069 421.222C100.831 421.339 100.626 421.514 100.456 421.747C100.285 421.981 100.153 422.266 100.058 422.603C99.9638 422.94 99.9167 423.329 99.9167 423.769V424.052C99.9167 424.398 99.9638 424.724 100.058 425.029C100.157 425.33 100.299 425.595 100.483 425.824C100.671 426.053 100.898 426.233 101.163 426.363C101.433 426.494 101.738 426.559 102.08 426.559C102.52 426.559 102.893 426.469 103.198 426.289C103.504 426.109 103.771 425.869 104 425.568L104.755 426.168C104.598 426.406 104.398 426.633 104.155 426.848C103.913 427.064 103.614 427.239 103.259 427.374C102.909 427.509 102.493 427.576 102.012 427.576ZM109.357 420.15V421.107H105.415V420.15H109.357ZM106.749 418.378H107.996V425.636C107.996 425.883 108.034 426.069 108.111 426.195C108.187 426.321 108.286 426.404 108.407 426.444C108.528 426.485 108.659 426.505 108.798 426.505C108.901 426.505 109.009 426.496 109.121 426.478C109.238 426.455 109.326 426.437 109.384 426.424L109.391 427.441C109.292 427.473 109.162 427.502 109 427.529C108.843 427.56 108.652 427.576 108.427 427.576C108.122 427.576 107.841 427.516 107.585 427.394C107.329 427.273 107.125 427.071 106.972 426.788C106.824 426.5 106.749 426.114 106.749 425.629V418.378ZM117.012 424.477L118.959 417.63H119.903L119.357 420.292L117.261 427.441H116.325L117.012 424.477ZM114.997 417.63L116.547 424.342L117.012 427.441H116.082L113.703 417.63H114.997ZM122.423 424.335L123.939 417.63H125.24L122.868 427.441H121.938L122.423 424.335ZM120.044 417.63L121.938 424.477L122.625 427.441H121.688L119.667 420.292L119.114 417.63H120.044ZM130.563 426.195V422.442C130.563 422.154 130.505 421.905 130.388 421.694C130.275 421.478 130.105 421.312 129.876 421.195C129.647 421.078 129.364 421.02 129.027 421.02C128.712 421.02 128.436 421.074 128.198 421.181C127.964 421.289 127.78 421.431 127.645 421.606C127.515 421.781 127.45 421.97 127.45 422.172H126.203C126.203 421.911 126.271 421.653 126.405 421.397C126.54 421.141 126.733 420.91 126.985 420.703C127.241 420.492 127.546 420.326 127.901 420.204C128.261 420.079 128.66 420.016 129.101 420.016C129.631 420.016 130.098 420.106 130.502 420.285C130.911 420.465 131.23 420.737 131.459 421.101C131.693 421.46 131.81 421.911 131.81 422.455V425.851C131.81 426.094 131.83 426.352 131.87 426.626C131.915 426.9 131.98 427.136 132.066 427.334V427.441H130.765C130.702 427.298 130.653 427.107 130.617 426.869C130.581 426.626 130.563 426.401 130.563 426.195ZM130.779 423.021L130.792 423.897H129.532C129.177 423.897 128.86 423.926 128.582 423.985C128.303 424.039 128.07 424.122 127.881 424.234C127.692 424.346 127.549 424.488 127.45 424.658C127.351 424.825 127.302 425.02 127.302 425.245C127.302 425.474 127.353 425.683 127.457 425.871C127.56 426.06 127.715 426.211 127.921 426.323C128.133 426.431 128.391 426.485 128.696 426.485C129.078 426.485 129.415 426.404 129.707 426.242C129.999 426.08 130.231 425.883 130.401 425.649C130.576 425.415 130.671 425.189 130.684 424.968L131.217 425.568C131.185 425.757 131.1 425.966 130.961 426.195C130.821 426.424 130.635 426.644 130.401 426.855C130.172 427.062 129.898 427.235 129.579 427.374C129.265 427.509 128.91 427.576 128.514 427.576C128.02 427.576 127.587 427.48 127.214 427.286C126.846 427.093 126.558 426.835 126.351 426.512C126.149 426.184 126.048 425.817 126.048 425.413C126.048 425.022 126.125 424.679 126.277 424.382C126.43 424.081 126.65 423.832 126.938 423.634C127.225 423.432 127.571 423.279 127.975 423.176C128.38 423.073 128.831 423.021 129.33 423.021H130.779ZM135.125 417.091V427.441H133.872V417.091H135.125ZM138.481 417.091V427.441H137.227V417.091H138.481ZM143.507 427.576C143 427.576 142.539 427.491 142.126 427.32C141.717 427.145 141.365 426.9 141.068 426.586C140.776 426.271 140.552 425.898 140.394 425.467C140.237 425.036 140.158 424.564 140.158 424.052V423.769C140.158 423.176 140.246 422.648 140.421 422.185C140.596 421.718 140.835 421.323 141.136 420.999C141.436 420.676 141.778 420.431 142.16 420.265C142.542 420.099 142.937 420.016 143.346 420.016C143.867 420.016 144.316 420.106 144.693 420.285C145.075 420.465 145.387 420.716 145.63 421.04C145.873 421.359 146.052 421.736 146.169 422.172C146.286 422.603 146.344 423.075 146.344 423.587V424.146H140.9V423.129H145.098V423.034C145.08 422.711 145.012 422.397 144.896 422.091C144.783 421.786 144.604 421.534 144.356 421.336C144.109 421.139 143.772 421.04 143.346 421.04C143.063 421.04 142.802 421.101 142.564 421.222C142.326 421.339 142.122 421.514 141.951 421.747C141.78 421.981 141.648 422.266 141.553 422.603C141.459 422.94 141.412 423.329 141.412 423.769V424.052C141.412 424.398 141.459 424.724 141.553 425.029C141.652 425.33 141.794 425.595 141.978 425.824C142.166 426.053 142.393 426.233 142.658 426.363C142.928 426.494 143.233 426.559 143.575 426.559C144.015 426.559 144.388 426.469 144.693 426.289C144.999 426.109 145.266 425.869 145.495 425.568L146.25 426.168C146.093 426.406 145.893 426.633 145.65 426.848C145.408 427.064 145.109 427.239 144.754 427.374C144.404 427.509 143.988 427.576 143.507 427.576ZM150.852 420.15V421.107H146.91V420.15H150.852ZM148.245 418.378H149.491V425.636C149.491 425.883 149.529 426.069 149.606 426.195C149.682 426.321 149.781 426.404 149.902 426.444C150.023 426.485 150.154 426.505 150.293 426.505C150.396 426.505 150.504 426.496 150.616 426.478C150.733 426.455 150.821 426.437 150.879 426.424L150.886 427.441C150.787 427.473 150.657 427.502 150.495 427.529C150.338 427.56 150.147 427.576 149.922 427.576C149.617 427.576 149.336 427.516 149.08 427.394C148.824 427.273 148.62 427.071 148.467 426.788C148.319 426.5 148.245 426.114 148.245 425.629V418.378Z" fill="#F7931A"/>
<path d="M61.0331 452.74L62.8855 456.322L64.7429 452.74H65.8161L63.356 457.209V459.875H62.4102V457.209L59.95 452.74H61.0331ZM66.3454 457.283V457.17C66.3454 456.788 66.4009 456.433 66.512 456.106C66.6231 455.776 66.7832 455.491 66.9923 455.249C67.2014 455.004 67.4546 454.814 67.7519 454.68C68.0492 454.543 68.3824 454.474 68.7516 454.474C69.1241 454.474 69.459 454.543 69.7563 454.68C70.0568 454.814 70.3117 455.004 70.5208 455.249C70.7331 455.491 70.8948 455.776 71.0059 456.106C71.117 456.433 71.1725 456.788 71.1725 457.17V457.283C71.1725 457.665 71.117 458.019 71.0059 458.346C70.8948 458.673 70.7331 458.959 70.5208 459.204C70.3117 459.445 70.0585 459.635 69.7612 459.772C69.4671 459.906 69.1339 459.973 68.7614 459.973C68.389 459.973 68.0541 459.906 67.7568 459.772C67.4595 459.635 67.2046 459.445 66.9923 459.204C66.7832 458.959 66.6231 458.673 66.512 458.346C66.4009 458.019 66.3454 457.665 66.3454 457.283ZM67.252 457.17V457.283C67.252 457.547 67.2831 457.797 67.3451 458.032C67.4072 458.264 67.5003 458.47 67.6245 458.65C67.7519 458.83 67.9103 458.972 68.0998 459.076C68.2893 459.177 68.5099 459.228 68.7614 459.228C69.0097 459.228 69.227 459.177 69.4132 459.076C69.6027 458.972 69.7595 458.83 69.8837 458.65C70.0078 458.47 70.1009 458.264 70.163 458.032C70.2284 457.797 70.261 457.547 70.261 457.283V457.17C70.261 456.908 70.2284 456.662 70.163 456.43C70.1009 456.195 70.0062 455.987 69.8788 455.807C69.7546 455.624 69.5978 455.481 69.4083 455.376C69.2221 455.272 69.0032 455.219 68.7516 455.219C68.5033 455.219 68.2844 455.272 68.0949 455.376C67.9087 455.481 67.7519 455.624 67.6245 455.807C67.5003 455.987 67.4072 456.195 67.3451 456.43C67.2831 456.662 67.252 456.908 67.252 457.17ZM75.8674 458.65V454.572H76.7789V459.875H75.9115L75.8674 458.65ZM76.0389 457.532L76.4163 457.523C76.4163 457.876 76.3787 458.202 76.3035 458.503C76.2317 458.8 76.114 459.058 75.9507 459.277C75.7873 459.496 75.5733 459.668 75.3087 459.792C75.0441 459.913 74.7223 459.973 74.3433 459.973C74.0852 459.973 73.8483 459.935 73.6327 459.86C73.4203 459.785 73.2374 459.669 73.0838 459.512C72.9303 459.356 72.811 459.151 72.7261 458.9C72.6444 458.648 72.6035 458.346 72.6035 457.993V454.572H73.5102V458.003C73.5102 458.241 73.5363 458.439 73.5886 458.596C73.6441 458.749 73.7176 458.872 73.8091 458.963C73.9039 459.052 74.0084 459.114 74.1227 459.15C74.2404 459.186 74.3612 459.204 74.4854 459.204C74.8709 459.204 75.1764 459.13 75.4018 458.983C75.6272 458.833 75.789 458.632 75.887 458.38C75.9883 458.125 76.0389 457.843 76.0389 457.532ZM79.3811 455.406V459.875H78.4745V454.572H79.3566L79.3811 455.406ZM81.0376 454.543L81.0327 455.386C80.9575 455.37 80.8857 455.36 80.817 455.357C80.7517 455.35 80.6766 455.347 80.5916 455.347C80.3825 455.347 80.1979 455.379 80.0378 455.445C79.8777 455.51 79.7422 455.602 79.6311 455.719C79.52 455.837 79.4318 455.977 79.3664 456.141C79.3044 456.301 79.2635 456.477 79.2439 456.67L78.9891 456.817C78.9891 456.497 79.0201 456.196 79.0822 455.915C79.1476 455.634 79.2472 455.386 79.3811 455.17C79.5151 454.951 79.685 454.782 79.8908 454.661C80.0999 454.537 80.3482 454.474 80.6357 454.474C80.7011 454.474 80.7762 454.483 80.8611 454.499C80.9461 454.512 81.0049 454.527 81.0376 454.543ZM86.3352 458.934L87.6976 454.572H88.2955L88.1778 455.44L86.7909 459.875H86.2078L86.3352 458.934ZM85.4188 454.572L86.5802 458.983L86.6635 459.875H86.0509L84.5121 454.572H85.4188ZM89.599 458.949L90.7066 454.572H91.6083L90.0695 459.875H89.4618L89.599 458.949ZM88.4278 454.572L89.7607 458.861L89.9127 459.875H89.3344L87.9083 455.43L87.7907 454.572H88.4278ZM95.9797 458.968V456.239C95.9797 456.03 95.9372 455.848 95.8523 455.695C95.7706 455.538 95.6464 455.417 95.4798 455.332C95.3132 455.247 95.1074 455.205 94.8623 455.205C94.6336 455.205 94.4327 455.244 94.2595 455.322C94.0897 455.401 93.9557 455.504 93.8577 455.631C93.7629 455.758 93.7156 455.896 93.7156 456.043H92.809C92.809 455.853 92.858 455.665 92.956 455.479C93.054 455.293 93.1945 455.125 93.3774 454.974C93.5637 454.821 93.7858 454.7 94.0439 454.612C94.3053 454.52 94.5961 454.474 94.9162 454.474C95.3018 454.474 95.6415 454.54 95.9356 454.671C96.2329 454.801 96.4648 454.999 96.6315 455.263C96.8014 455.525 96.8863 455.853 96.8863 456.249V458.718C96.8863 458.895 96.901 459.083 96.9304 459.282C96.9631 459.481 97.0105 459.653 97.0725 459.797V459.875H96.1267C96.081 459.77 96.045 459.632 96.0189 459.458C95.9927 459.282 95.9797 459.119 95.9797 458.968ZM96.1365 456.66L96.1463 457.297H95.2299C94.9718 457.297 94.7414 457.318 94.5389 457.361C94.3363 457.4 94.1664 457.461 94.0292 457.542C93.892 457.624 93.7875 457.727 93.7156 457.851C93.6437 457.972 93.6078 458.114 93.6078 458.277C93.6078 458.444 93.6453 458.596 93.7205 458.733C93.7956 458.87 93.9083 458.98 94.0586 459.061C94.2122 459.14 94.4 459.179 94.6222 459.179C94.8999 459.179 95.1449 459.12 95.3573 459.003C95.5697 458.885 95.7379 458.741 95.8621 458.571C95.9895 458.402 96.0581 458.237 96.0679 458.076L96.455 458.513C96.4322 458.65 96.3701 458.802 96.2688 458.968C96.1675 459.135 96.032 459.295 95.8621 459.449C95.6954 459.599 95.4961 459.725 95.2642 459.826C95.0355 459.924 94.7774 459.973 94.4899 459.973C94.1305 459.973 93.8152 459.903 93.5441 459.762C93.2762 459.622 93.0671 459.434 92.9168 459.199C92.7697 458.96 92.6962 458.694 92.6962 458.4C92.6962 458.116 92.7518 457.866 92.8629 457.65C92.9739 457.431 93.134 457.25 93.3431 457.106C93.5522 456.959 93.8038 456.848 94.0978 456.773C94.3919 456.698 94.7202 456.66 95.0829 456.66H96.1365ZM99.6111 452.348V459.875H98.6995V452.348H99.6111ZM102.365 452.348V459.875H101.454V452.348H102.365ZM106.335 459.973C105.966 459.973 105.631 459.911 105.33 459.787C105.033 459.659 104.776 459.481 104.561 459.253C104.348 459.024 104.185 458.753 104.071 458.439C103.956 458.125 103.899 457.782 103.899 457.41V457.204C103.899 456.773 103.963 456.389 104.09 456.052C104.218 455.713 104.391 455.425 104.61 455.19C104.829 454.955 105.077 454.777 105.355 454.656C105.632 454.535 105.92 454.474 106.217 454.474C106.596 454.474 106.923 454.54 107.197 454.671C107.475 454.801 107.702 454.984 107.878 455.219C108.055 455.451 108.186 455.726 108.271 456.043C108.355 456.356 108.398 456.699 108.398 457.072V457.479H104.438V456.739H107.491V456.67C107.478 456.435 107.429 456.206 107.344 455.984C107.263 455.762 107.132 455.579 106.952 455.435C106.773 455.291 106.528 455.219 106.217 455.219C106.011 455.219 105.822 455.263 105.649 455.352C105.476 455.437 105.327 455.564 105.203 455.734C105.079 455.904 104.982 456.111 104.914 456.356C104.845 456.601 104.811 456.884 104.811 457.204V457.41C104.811 457.662 104.845 457.898 104.914 458.121C104.985 458.339 105.088 458.532 105.222 458.699C105.36 458.865 105.525 458.996 105.717 459.091C105.913 459.186 106.135 459.233 106.384 459.233C106.704 459.233 106.975 459.168 107.197 459.037C107.419 458.906 107.614 458.732 107.78 458.513L108.329 458.949C108.215 459.122 108.07 459.287 107.893 459.444C107.717 459.601 107.499 459.728 107.241 459.826C106.987 459.924 106.684 459.973 106.335 459.973ZM111.99 454.572V455.268H109.123V454.572H111.99ZM110.094 453.284H111V458.562C111 458.741 111.028 458.877 111.084 458.968C111.139 459.06 111.211 459.12 111.299 459.15C111.387 459.179 111.482 459.194 111.583 459.194C111.659 459.194 111.737 459.187 111.819 459.174C111.904 459.158 111.967 459.145 112.01 459.135L112.015 459.875C111.943 459.898 111.848 459.919 111.73 459.939C111.616 459.962 111.477 459.973 111.314 459.973C111.092 459.973 110.887 459.929 110.701 459.841C110.515 459.752 110.366 459.605 110.255 459.4C110.147 459.191 110.094 458.91 110.094 458.557V453.284ZM114.191 458.797V459.527C114.191 459.824 114.115 460.138 113.965 460.468C113.815 460.801 113.604 461.079 113.333 461.301L112.818 460.943C112.923 460.8 113.011 460.653 113.083 460.502C113.155 460.355 113.209 460.202 113.245 460.042C113.284 459.885 113.304 459.718 113.304 459.542V458.797H114.191ZM119.954 459.326L121.429 454.572H122.399L120.272 460.693C120.223 460.824 120.158 460.965 120.076 461.115C119.998 461.268 119.897 461.414 119.772 461.551C119.648 461.688 119.498 461.799 119.322 461.884C119.148 461.972 118.941 462.017 118.699 462.017C118.627 462.017 118.536 462.007 118.425 461.987C118.314 461.968 118.235 461.951 118.189 461.938L118.185 461.203C118.211 461.206 118.252 461.21 118.307 461.213C118.366 461.219 118.407 461.223 118.43 461.223C118.635 461.223 118.81 461.195 118.954 461.139C119.098 461.087 119.219 460.997 119.317 460.87C119.418 460.746 119.504 460.574 119.576 460.355L119.954 459.326ZM118.871 454.572L120.248 458.689L120.483 459.645L119.831 459.978L117.881 454.572H118.871ZM123.213 457.283V457.17C123.213 456.788 123.268 456.433 123.379 456.106C123.49 455.776 123.65 455.491 123.86 455.249C124.069 455.004 124.322 454.814 124.619 454.68C124.916 454.543 125.25 454.474 125.619 454.474C125.991 454.474 126.326 454.543 126.623 454.68C126.924 454.814 127.179 455.004 127.388 455.249C127.6 455.491 127.762 455.776 127.873 456.106C127.984 456.433 128.04 456.788 128.04 457.17V457.283C128.04 457.665 127.984 458.019 127.873 458.346C127.762 458.673 127.6 458.959 127.388 459.204C127.179 459.445 126.926 459.635 126.628 459.772C126.334 459.906 126.001 459.973 125.629 459.973C125.256 459.973 124.921 459.906 124.624 459.772C124.327 459.635 124.072 459.445 123.86 459.204C123.65 458.959 123.49 458.673 123.379 458.346C123.268 458.019 123.213 457.665 123.213 457.283ZM124.119 457.17V457.283C124.119 457.547 124.15 457.797 124.212 458.032C124.274 458.264 124.368 458.47 124.492 458.65C124.619 458.83 124.778 458.972 124.967 459.076C125.157 459.177 125.377 459.228 125.629 459.228C125.877 459.228 126.094 459.177 126.28 459.076C126.47 458.972 126.627 458.83 126.751 458.65C126.875 458.47 126.968 458.264 127.03 458.032C127.096 457.797 127.128 457.547 127.128 457.283V457.17C127.128 456.908 127.096 456.662 127.03 456.43C126.968 456.195 126.873 455.987 126.746 455.807C126.622 455.624 126.465 455.481 126.276 455.376C126.089 455.272 125.87 455.219 125.619 455.219C125.371 455.219 125.152 455.272 124.962 455.376C124.776 455.481 124.619 455.624 124.492 455.807C124.368 455.987 124.274 456.195 124.212 456.43C124.15 456.662 124.119 456.908 124.119 457.17ZM132.735 458.65V454.572H133.646V459.875H132.779L132.735 458.65ZM132.906 457.532L133.283 457.523C133.283 457.876 133.246 458.202 133.171 458.503C133.099 458.8 132.981 459.058 132.818 459.277C132.655 459.496 132.441 459.668 132.176 459.792C131.911 459.913 131.59 459.973 131.211 459.973C130.952 459.973 130.716 459.935 130.5 459.86C130.288 459.785 130.105 459.669 129.951 459.512C129.797 459.356 129.678 459.151 129.593 458.9C129.512 458.648 129.471 458.346 129.471 457.993V454.572H130.377V458.003C130.377 458.241 130.404 458.439 130.456 458.596C130.511 458.749 130.585 458.872 130.676 458.963C130.771 459.052 130.876 459.114 130.99 459.15C131.108 459.186 131.228 459.204 131.353 459.204C131.738 459.204 132.044 459.13 132.269 458.983C132.494 458.833 132.656 458.632 132.754 458.38C132.856 458.125 132.906 457.843 132.906 457.532ZM136.248 455.406V459.875H135.342V454.572H136.224L136.248 455.406ZM137.905 454.543L137.9 455.386C137.825 455.37 137.753 455.36 137.684 455.357C137.619 455.35 137.544 455.347 137.459 455.347C137.25 455.347 137.065 455.379 136.905 455.445C136.745 455.51 136.609 455.602 136.498 455.719C136.387 455.837 136.299 455.977 136.234 456.141C136.172 456.301 136.131 456.477 136.111 456.67L135.856 456.817C135.856 456.497 135.887 456.196 135.949 455.915C136.015 455.634 136.114 455.386 136.248 455.17C136.382 454.951 136.552 454.782 136.758 454.661C136.967 454.537 137.215 454.474 137.503 454.474C137.568 454.474 137.643 454.483 137.728 454.499C137.813 454.512 137.872 454.527 137.905 454.543ZM143.982 459.228C144.197 459.228 144.397 459.184 144.58 459.096C144.762 459.008 144.913 458.887 145.03 458.733C145.148 458.576 145.215 458.398 145.231 458.199H146.094C146.077 458.513 145.971 458.805 145.775 459.076C145.583 459.344 145.329 459.561 145.016 459.728C144.702 459.891 144.357 459.973 143.982 459.973C143.583 459.973 143.235 459.903 142.938 459.762C142.644 459.622 142.399 459.429 142.203 459.184C142.01 458.939 141.865 458.658 141.767 458.341C141.672 458.021 141.624 457.683 141.624 457.327V457.121C141.624 456.765 141.672 456.428 141.767 456.111C141.865 455.791 142.01 455.509 142.203 455.263C142.399 455.018 142.644 454.826 142.938 454.685C143.235 454.545 143.583 454.474 143.982 454.474C144.397 454.474 144.759 454.559 145.07 454.729C145.38 454.896 145.623 455.125 145.8 455.415C145.979 455.703 146.077 456.03 146.094 456.396H145.231C145.215 456.177 145.153 455.979 145.045 455.803C144.941 455.626 144.797 455.486 144.614 455.381C144.434 455.273 144.223 455.219 143.982 455.219C143.704 455.219 143.47 455.275 143.281 455.386C143.095 455.494 142.946 455.641 142.835 455.827C142.727 456.01 142.649 456.214 142.6 456.44C142.554 456.662 142.531 456.889 142.531 457.121V457.327C142.531 457.559 142.554 457.787 142.6 458.013C142.645 458.238 142.722 458.442 142.83 458.625C142.941 458.808 143.09 458.955 143.276 459.066C143.465 459.174 143.701 459.228 143.982 459.228ZM147.187 457.283V457.17C147.187 456.788 147.242 456.433 147.353 456.106C147.464 455.776 147.624 455.491 147.834 455.249C148.043 455.004 148.296 454.814 148.593 454.68C148.89 454.543 149.224 454.474 149.593 454.474C149.965 454.474 150.3 454.543 150.598 454.68C150.898 454.814 151.153 455.004 151.362 455.249C151.574 455.491 151.736 455.776 151.847 456.106C151.958 456.433 152.014 456.788 152.014 457.17V457.283C152.014 457.665 151.958 458.019 151.847 458.346C151.736 458.673 151.574 458.959 151.362 459.204C151.153 459.445 150.9 459.635 150.602 459.772C150.308 459.906 149.975 459.973 149.603 459.973C149.23 459.973 148.895 459.906 148.598 459.772C148.301 459.635 148.046 459.445 147.834 459.204C147.624 458.959 147.464 458.673 147.353 458.346C147.242 458.019 147.187 457.665 147.187 457.283ZM148.093 457.17V457.283C148.093 457.547 148.124 457.797 148.186 458.032C148.248 458.264 148.342 458.47 148.466 458.65C148.593 458.83 148.752 458.972 148.941 459.076C149.131 459.177 149.351 459.228 149.603 459.228C149.851 459.228 150.068 459.177 150.254 459.076C150.444 458.972 150.601 458.83 150.725 458.65C150.849 458.47 150.942 458.264 151.004 458.032C151.07 457.797 151.102 457.547 151.102 457.283V457.17C151.102 456.908 151.07 456.662 151.004 456.43C150.942 456.195 150.847 455.987 150.72 455.807C150.596 455.624 150.439 455.481 150.25 455.376C150.063 455.272 149.844 455.219 149.593 455.219C149.345 455.219 149.126 455.272 148.936 455.376C148.75 455.481 148.593 455.624 148.466 455.807C148.342 455.987 148.248 456.195 148.186 456.43C148.124 456.662 148.093 456.908 148.093 457.17ZM154.449 454.572V459.875H153.538V454.572H154.449ZM153.469 453.166C153.469 453.019 153.513 452.895 153.602 452.794C153.693 452.692 153.827 452.642 154.003 452.642C154.177 452.642 154.309 452.692 154.4 452.794C154.495 452.895 154.543 453.019 154.543 453.166C154.543 453.306 154.495 453.427 154.4 453.529C154.309 453.627 154.177 453.676 154.003 453.676C153.827 453.676 153.693 453.627 153.602 453.529C153.513 453.427 153.469 453.306 153.469 453.166ZM157.125 455.705V459.875H156.219V454.572H157.076L157.125 455.705ZM156.91 457.023L156.532 457.008C156.535 456.645 156.589 456.311 156.694 456.003C156.798 455.693 156.946 455.424 157.135 455.195C157.324 454.966 157.55 454.79 157.811 454.666C158.076 454.538 158.368 454.474 158.689 454.474C158.95 454.474 159.185 454.51 159.394 454.582C159.603 454.651 159.781 454.762 159.928 454.916C160.079 455.069 160.193 455.268 160.271 455.513C160.35 455.755 160.389 456.051 160.389 456.4V459.875H159.478V456.391C159.478 456.113 159.437 455.891 159.355 455.724C159.273 455.554 159.154 455.432 158.997 455.357C158.84 455.278 158.648 455.239 158.419 455.239C158.194 455.239 157.988 455.286 157.801 455.381C157.619 455.476 157.46 455.607 157.326 455.773C157.195 455.94 157.093 456.131 157.017 456.347C156.946 456.559 156.91 456.784 156.91 457.023ZM165.167 458.469C165.167 458.338 165.138 458.217 165.079 458.106C165.023 457.992 164.907 457.889 164.731 457.797C164.558 457.702 164.296 457.621 163.947 457.552C163.653 457.49 163.387 457.417 163.148 457.332C162.913 457.247 162.712 457.144 162.545 457.023C162.382 456.902 162.256 456.76 162.168 456.596C162.08 456.433 162.036 456.242 162.036 456.023C162.036 455.814 162.081 455.616 162.173 455.43C162.268 455.244 162.4 455.079 162.57 454.935C162.743 454.791 162.95 454.679 163.192 454.597C163.434 454.515 163.704 454.474 164.001 454.474C164.426 454.474 164.788 454.55 165.089 454.7C165.389 454.85 165.62 455.051 165.78 455.303C165.94 455.551 166.02 455.827 166.02 456.131H165.113C165.113 455.984 165.069 455.842 164.981 455.705C164.896 455.564 164.77 455.448 164.604 455.357C164.44 455.265 164.239 455.219 164.001 455.219C163.749 455.219 163.545 455.259 163.388 455.337C163.235 455.412 163.122 455.509 163.05 455.626C162.981 455.744 162.947 455.868 162.947 455.999C162.947 456.097 162.964 456.185 162.996 456.263C163.032 456.338 163.094 456.409 163.182 456.474C163.271 456.536 163.395 456.595 163.555 456.65C163.715 456.706 163.919 456.761 164.167 456.817C164.602 456.915 164.96 457.033 165.241 457.17C165.522 457.307 165.731 457.475 165.868 457.675C166.005 457.874 166.074 458.116 166.074 458.4C166.074 458.632 166.025 458.844 165.927 459.037C165.832 459.23 165.693 459.396 165.51 459.537C165.331 459.674 165.115 459.782 164.863 459.86C164.615 459.935 164.336 459.973 164.025 459.973C163.558 459.973 163.163 459.89 162.839 459.723C162.516 459.556 162.271 459.341 162.104 459.076C161.938 458.812 161.854 458.532 161.854 458.238H162.766C162.779 458.486 162.851 458.684 162.981 458.831C163.112 458.975 163.272 459.078 163.462 459.14C163.651 459.199 163.839 459.228 164.025 459.228C164.274 459.228 164.481 459.195 164.648 459.13C164.818 459.065 164.947 458.975 165.035 458.861C165.123 458.746 165.167 458.616 165.167 458.469ZM38.1862 467.7V474.875H37.2796V468.832L35.4516 469.499V468.681L38.0441 467.7H38.1862ZM45.645 470.739V471.827C45.645 472.412 45.5927 472.905 45.4882 473.307C45.3836 473.709 45.2334 474.032 45.0373 474.277C44.8413 474.522 44.6044 474.7 44.3267 474.811C44.0523 474.919 43.7419 474.973 43.3956 474.973C43.1212 474.973 42.868 474.939 42.636 474.87C42.404 474.801 42.195 474.692 42.0087 474.542C41.8258 474.388 41.6689 474.189 41.5383 473.944C41.4076 473.699 41.3079 473.402 41.2393 473.052C41.1707 472.702 41.1364 472.294 41.1364 471.827V470.739C41.1364 470.154 41.1887 469.664 41.2932 469.269C41.401 468.873 41.553 468.556 41.749 468.318C41.945 468.076 42.1802 467.903 42.4547 467.798C42.7324 467.694 43.0428 467.642 43.3858 467.642C43.6635 467.642 43.9183 467.676 44.1503 467.745C44.3855 467.81 44.5946 467.916 44.7776 468.063C44.9606 468.207 45.1157 468.4 45.2432 468.641C45.3738 468.88 45.4735 469.172 45.5421 469.519C45.6107 469.865 45.645 470.272 45.645 470.739ZM44.7335 471.974V470.587C44.7335 470.267 44.7139 469.986 44.6747 469.744C44.6387 469.499 44.5848 469.29 44.513 469.117C44.4411 468.944 44.3496 468.803 44.2385 468.695C44.1307 468.587 44.0049 468.509 43.8612 468.46C43.7207 468.408 43.5622 468.382 43.3858 468.382C43.1702 468.382 42.9791 468.422 42.8124 468.504C42.6458 468.583 42.5053 468.708 42.391 468.881C42.2799 469.055 42.195 469.282 42.1361 469.563C42.0773 469.844 42.0479 470.185 42.0479 470.587V471.974C42.0479 472.294 42.0659 472.577 42.1018 472.822C42.141 473.067 42.1982 473.279 42.2734 473.459C42.3485 473.635 42.44 473.781 42.5478 473.895C42.6556 474.009 42.7798 474.094 42.9202 474.15C43.064 474.202 43.2225 474.228 43.3956 474.228C43.6178 474.228 43.8122 474.186 43.9788 474.101C44.1454 474.016 44.2843 473.883 44.3953 473.704C44.5097 473.521 44.5946 473.287 44.6502 473.003C44.7057 472.715 44.7335 472.372 44.7335 471.974ZM51.6042 470.739V471.827C51.6042 472.412 51.5519 472.905 51.4474 473.307C51.3428 473.709 51.1926 474.032 50.9965 474.277C50.8005 474.522 50.5636 474.7 50.2859 474.811C50.0115 474.919 49.7011 474.973 49.3548 474.973C49.0804 474.973 48.8272 474.939 48.5952 474.87C48.3632 474.801 48.1542 474.692 47.9679 474.542C47.785 474.388 47.6281 474.189 47.4975 473.944C47.3668 473.699 47.2671 473.402 47.1985 473.052C47.1299 472.702 47.0956 472.294 47.0956 471.827V470.739C47.0956 470.154 47.1479 469.664 47.2524 469.269C47.3602 468.873 47.5122 468.556 47.7082 468.318C47.9042 468.076 48.1394 467.903 48.4139 467.798C48.6916 467.694 49.002 467.642 49.345 467.642C49.6227 467.642 49.8775 467.676 50.1095 467.745C50.3447 467.81 50.5538 467.916 50.7368 468.063C50.9198 468.207 51.0749 468.4 51.2024 468.641C51.333 468.88 51.4327 469.172 51.5013 469.519C51.5699 469.865 51.6042 470.272 51.6042 470.739ZM50.6927 471.974V470.587C50.6927 470.267 50.6731 469.986 50.6339 469.744C50.5979 469.499 50.544 469.29 50.4722 469.117C50.4003 468.944 50.3088 468.803 50.1977 468.695C50.0899 468.587 49.9641 468.509 49.8204 468.46C49.6799 468.408 49.5214 468.382 49.345 468.382C49.1294 468.382 48.9383 468.422 48.7716 468.504C48.605 468.583 48.4645 468.708 48.3502 468.881C48.2391 469.055 48.1542 469.282 48.0953 469.563C48.0365 469.844 48.0071 470.185 48.0071 470.587V471.974C48.0071 472.294 48.0251 472.577 48.061 472.822C48.1002 473.067 48.1574 473.279 48.2326 473.459C48.3077 473.635 48.3992 473.781 48.507 473.895C48.6148 474.009 48.739 474.094 48.8794 474.15C49.0232 474.202 49.1817 474.228 49.3548 474.228C49.577 474.228 49.7714 474.186 49.938 474.101C50.1046 474.016 50.2435 473.883 50.3545 473.704C50.4689 473.521 50.5538 473.287 50.6094 473.003C50.6649 472.715 50.6927 472.372 50.6927 471.974ZM53.0058 469.489V469.112C53.0058 468.841 53.0646 468.594 53.1822 468.372C53.2998 468.15 53.4681 467.972 53.687 467.838C53.9059 467.704 54.1656 467.637 54.4662 467.637C54.7733 467.637 55.0347 467.704 55.2503 467.838C55.4692 467.972 55.6375 468.15 55.7551 468.372C55.8727 468.594 55.9315 468.841 55.9315 469.112V469.489C55.9315 469.754 55.8727 469.997 55.7551 470.219C55.6407 470.442 55.4741 470.62 55.2552 470.754C55.0396 470.887 54.7798 470.954 54.476 470.954C54.1722 470.954 53.9092 470.887 53.687 470.754C53.4681 470.62 53.2998 470.442 53.1822 470.219C53.0646 469.997 53.0058 469.754 53.0058 469.489ZM53.687 469.112V469.489C53.687 469.639 53.7148 469.782 53.7703 469.916C53.8291 470.049 53.9173 470.159 54.0349 470.244C54.1526 470.326 54.2996 470.366 54.476 470.366C54.6524 470.366 54.7978 470.326 54.9122 470.244C55.0265 470.159 55.1115 470.049 55.167 469.916C55.2225 469.782 55.2503 469.639 55.2503 469.489V469.112C55.2503 468.958 55.2209 468.815 55.1621 468.681C55.1066 468.543 55.02 468.434 54.9024 468.352C54.788 468.267 54.6426 468.225 54.4662 468.225C54.293 468.225 54.1477 468.267 54.03 468.352C53.9157 468.434 53.8291 468.543 53.7703 468.681C53.7148 468.815 53.687 468.958 53.687 469.112ZM56.4804 473.508V473.125C56.4804 472.858 56.5392 472.613 56.6568 472.39C56.7744 472.168 56.9427 471.99 57.1616 471.856C57.3805 471.722 57.6402 471.655 57.9408 471.655C58.2479 471.655 58.5092 471.722 58.7249 471.856C58.9438 471.99 59.112 472.168 59.2296 472.39C59.3473 472.613 59.4061 472.858 59.4061 473.125V473.508C59.4061 473.776 59.3473 474.021 59.2296 474.243C59.1153 474.465 58.9487 474.643 58.7298 474.777C58.5141 474.911 58.2544 474.978 57.9506 474.978C57.6467 474.978 57.3854 474.911 57.1665 474.777C56.9476 474.643 56.7777 474.465 56.6568 474.243C56.5392 474.021 56.4804 473.776 56.4804 473.508ZM57.1616 473.125V473.508C57.1616 473.658 57.1893 473.802 57.2449 473.939C57.3037 474.073 57.3919 474.182 57.5095 474.267C57.6271 474.349 57.7741 474.39 57.9506 474.39C58.127 474.39 58.2724 474.349 58.3867 474.267C58.5043 474.182 58.5909 474.073 58.6465 473.939C58.702 473.805 58.7298 473.661 58.7298 473.508V473.125C58.7298 472.972 58.7004 472.828 58.6416 472.694C58.586 472.56 58.4994 472.452 58.3818 472.371C58.2675 472.286 58.1205 472.243 57.9408 472.243C57.7676 472.243 57.6222 472.286 57.5046 472.371C57.3903 472.452 57.3037 472.56 57.2449 472.694C57.1893 472.828 57.1616 472.972 57.1616 473.125ZM58.1662 468.754L54.6818 474.331L54.1722 474.008L57.6565 468.431L58.1662 468.754ZM63.4099 472.283V472.17C63.4099 471.788 63.4654 471.433 63.5765 471.106C63.6876 470.776 63.8477 470.491 64.0568 470.249C64.2659 470.004 64.5191 469.814 64.8164 469.68C65.1137 469.543 65.4469 469.474 65.8161 469.474C66.1886 469.474 66.5235 469.543 66.8208 469.68C67.1213 469.814 67.3762 470.004 67.5853 470.249C67.7976 470.491 67.9593 470.776 68.0704 471.106C68.1815 471.433 68.237 471.788 68.237 472.17V472.283C68.237 472.665 68.1815 473.019 68.0704 473.346C67.9593 473.673 67.7976 473.959 67.5853 474.204C67.3762 474.445 67.123 474.635 66.8257 474.772C66.5316 474.906 66.1984 474.973 65.8259 474.973C65.4535 474.973 65.1186 474.906 64.8213 474.772C64.524 474.635 64.2691 474.445 64.0568 474.204C63.8477 473.959 63.6876 473.673 63.5765 473.346C63.4654 473.019 63.4099 472.665 63.4099 472.283ZM64.3165 472.17V472.283C64.3165 472.547 64.3476 472.797 64.4096 473.032C64.4717 473.264 64.5648 473.47 64.689 473.65C64.8164 473.83 64.9748 473.972 65.1643 474.076C65.3538 474.177 65.5744 474.228 65.8259 474.228C66.0742 474.228 66.2915 474.177 66.4777 474.076C66.6672 473.972 66.824 473.83 66.9482 473.65C67.0723 473.47 67.1654 473.264 67.2275 473.032C67.2929 472.797 67.3255 472.547 67.3255 472.283V472.17C67.3255 471.908 67.2929 471.662 67.2275 471.43C67.1654 471.195 67.0707 470.987 66.9433 470.807C66.8191 470.624 66.6623 470.481 66.4728 470.376C66.2866 470.272 66.0677 470.219 65.8161 470.219C65.5678 470.219 65.3489 470.272 65.1594 470.376C64.9732 470.481 64.8164 470.624 64.689 470.807C64.5648 470.987 64.4717 471.195 64.4096 471.43C64.3476 471.662 64.3165 471.908 64.3165 472.17ZM70.5943 470.592V476.914H69.6827V469.572H70.5159L70.5943 470.592ZM74.1668 472.18V472.283C74.1668 472.668 74.1211 473.026 74.0296 473.356C73.9381 473.683 73.8042 473.967 73.6278 474.209C73.4546 474.45 73.2406 474.638 72.9858 474.772C72.731 474.906 72.4385 474.973 72.1086 474.973C71.7721 474.973 71.4748 474.917 71.2166 474.806C70.9585 474.695 70.7397 474.534 70.56 474.321C70.3803 474.109 70.2365 473.854 70.1287 473.557C70.0242 473.259 69.9523 472.925 69.9131 472.552V472.003C69.9523 471.611 70.0258 471.26 70.1336 470.95C70.2414 470.639 70.3835 470.375 70.56 470.156C70.7397 469.934 70.9569 469.765 71.2117 469.651C71.4666 469.533 71.7606 469.474 72.0939 469.474C72.4271 469.474 72.7228 469.54 72.9809 469.671C73.239 469.798 73.4562 469.981 73.6327 470.219C73.8091 470.458 73.9414 470.744 74.0296 471.077C74.1211 471.407 74.1668 471.775 74.1668 472.18ZM73.2553 472.283V472.18C73.2553 471.915 73.2276 471.667 73.172 471.435C73.1165 471.2 73.0299 470.994 72.9123 470.817C72.7979 470.638 72.6509 470.497 72.4712 470.396C72.2915 470.291 72.0775 470.239 71.8292 470.239C71.6005 470.239 71.4012 470.278 71.2314 470.357C71.0647 470.435 70.9226 470.541 70.805 470.675C70.6874 470.806 70.591 470.956 70.5159 471.126C70.444 471.293 70.3901 471.466 70.3541 471.645V472.915C70.4195 473.143 70.511 473.359 70.6286 473.562C70.7462 473.761 70.903 473.923 71.099 474.047C71.2951 474.168 71.5417 474.228 71.839 474.228C72.0841 474.228 72.2948 474.177 72.4712 474.076C72.6509 473.972 72.7979 473.83 72.9123 473.65C73.0299 473.47 73.1165 473.264 73.172 473.032C73.2276 472.797 73.2553 472.547 73.2553 472.283ZM77.8374 474.973C77.4683 474.973 77.1334 474.911 76.8328 474.787C76.5355 474.659 76.279 474.481 76.0634 474.253C75.851 474.024 75.6877 473.753 75.5733 473.439C75.459 473.125 75.4018 472.782 75.4018 472.41V472.204C75.4018 471.773 75.4655 471.389 75.5929 471.052C75.7204 470.713 75.8935 470.425 76.1124 470.19C76.3313 469.955 76.5796 469.777 76.8573 469.656C77.135 469.535 77.4225 469.474 77.7198 469.474C78.0988 469.474 78.4255 469.54 78.7 469.671C78.9777 469.801 79.2047 469.984 79.3811 470.219C79.5576 470.451 79.6883 470.726 79.7732 471.043C79.8581 471.356 79.9006 471.699 79.9006 472.072V472.479H75.9409V471.739H78.994V471.67C78.9809 471.435 78.9319 471.206 78.847 470.984C78.7653 470.762 78.6346 470.579 78.4549 470.435C78.2752 470.291 78.0302 470.219 77.7198 470.219C77.514 470.219 77.3245 470.263 77.1513 470.352C76.9782 470.437 76.8295 470.564 76.7054 470.734C76.5812 470.904 76.4849 471.111 76.4163 471.356C76.3476 471.601 76.3133 471.884 76.3133 472.204V472.41C76.3133 472.662 76.3476 472.898 76.4163 473.121C76.4881 473.339 76.591 473.532 76.725 473.699C76.8622 473.865 77.0272 473.996 77.22 474.091C77.416 474.186 77.6381 474.233 77.8864 474.233C78.2066 474.233 78.4778 474.168 78.7 474.037C78.9221 473.906 79.1165 473.732 79.2831 473.513L79.832 473.949C79.7177 474.122 79.5723 474.287 79.3959 474.444C79.2194 474.601 79.0022 474.728 78.7441 474.826C78.4892 474.924 78.187 474.973 77.8374 474.973ZM82.1794 470.705V474.875H81.2728V469.572H82.1304L82.1794 470.705ZM81.9638 472.023L81.5864 472.008C81.5897 471.645 81.6436 471.311 81.7482 471.003C81.8527 470.693 81.9997 470.424 82.1892 470.195C82.3787 469.966 82.6041 469.79 82.8655 469.666C83.1302 469.538 83.4226 469.474 83.7427 469.474C84.0041 469.474 84.2393 469.51 84.4484 469.582C84.6575 469.651 84.8356 469.762 84.9826 469.916C85.1329 470.069 85.2472 470.268 85.3256 470.513C85.4041 470.755 85.4433 471.051 85.4433 471.4V474.875H84.5317V471.391C84.5317 471.113 84.4909 470.891 84.4092 470.724C84.3275 470.554 84.2083 470.432 84.0515 470.357C83.8947 470.278 83.7019 470.239 83.4732 470.239C83.2478 470.239 83.0419 470.286 82.8557 470.381C82.6728 470.476 82.5143 470.607 82.3804 470.773C82.2497 470.94 82.1468 471.131 82.0716 471.347C81.9997 471.559 81.9638 471.784 81.9638 472.023ZM89.0207 471.469V472.214H86.6292V471.469H89.0207ZM93.3088 473.469C93.3088 473.338 93.2794 473.217 93.2206 473.106C93.1651 472.992 93.0491 472.889 92.8727 472.797C92.6995 472.702 92.4381 472.621 92.0886 472.552C91.7945 472.49 91.5282 472.417 91.2897 472.332C91.0545 472.247 90.8536 472.144 90.687 472.023C90.5236 471.902 90.3978 471.76 90.3096 471.596C90.2214 471.433 90.1773 471.242 90.1773 471.023C90.1773 470.814 90.223 470.616 90.3145 470.43C90.4093 470.244 90.5416 470.079 90.7115 469.935C90.8846 469.791 91.0921 469.679 91.3339 469.597C91.5756 469.515 91.8452 469.474 92.1425 469.474C92.5672 469.474 92.9298 469.55 93.2304 469.7C93.531 469.85 93.7613 470.051 93.9214 470.303C94.0815 470.551 94.1615 470.827 94.1615 471.131H93.2549C93.2549 470.984 93.2108 470.842 93.1226 470.705C93.0376 470.564 92.9119 470.448 92.7452 470.357C92.5819 470.265 92.381 470.219 92.1425 470.219C91.8909 470.219 91.6867 470.259 91.5299 470.337C91.3763 470.412 91.2636 470.509 91.1917 470.626C91.1231 470.744 91.0888 470.868 91.0888 470.999C91.0888 471.097 91.1052 471.185 91.1378 471.263C91.1738 471.338 91.2358 471.409 91.3241 471.474C91.4123 471.536 91.5364 471.595 91.6965 471.65C91.8566 471.706 92.0608 471.761 92.3091 471.817C92.7436 471.915 93.1014 472.033 93.3823 472.17C93.6633 472.307 93.8724 472.475 94.0096 472.675C94.1468 472.874 94.2154 473.116 94.2154 473.4C94.2154 473.632 94.1664 473.844 94.0684 474.037C93.9737 474.23 93.8348 474.396 93.6519 474.537C93.4722 474.674 93.2565 474.782 93.005 474.86C92.7567 474.935 92.4773 474.973 92.167 474.973C91.6998 474.973 91.3044 474.89 90.981 474.723C90.6576 474.556 90.4125 474.341 90.2459 474.076C90.0793 473.812 89.996 473.532 89.996 473.238H90.9075C90.9206 473.486 90.9924 473.684 91.1231 473.831C91.2538 473.975 91.4139 474.078 91.6034 474.14C91.7929 474.199 91.9807 474.228 92.167 474.228C92.4153 474.228 92.6227 474.195 92.7893 474.13C92.9592 474.065 93.0883 473.975 93.1765 473.861C93.2647 473.746 93.3088 473.616 93.3088 473.469ZM95.4798 472.283V472.17C95.4798 471.788 95.5354 471.433 95.6464 471.106C95.7575 470.776 95.9176 470.491 96.1267 470.249C96.3358 470.004 96.589 469.814 96.8863 469.68C97.1836 469.543 97.5169 469.474 97.886 469.474C98.2585 469.474 98.5934 469.543 98.8907 469.68C99.1912 469.814 99.4461 470.004 99.6552 470.249C99.8675 470.491 100.029 470.776 100.14 471.106C100.251 471.433 100.307 471.788 100.307 472.17V472.283C100.307 472.665 100.251 473.019 100.14 473.346C100.029 473.673 99.8675 473.959 99.6552 474.204C99.4461 474.445 99.1929 474.635 98.8956 474.772C98.6015 474.906 98.2683 474.973 97.8958 474.973C97.5234 474.973 97.1885 474.906 96.8912 474.772C96.5939 474.635 96.3391 474.445 96.1267 474.204C95.9176 473.959 95.7575 473.673 95.6464 473.346C95.5354 473.019 95.4798 472.665 95.4798 472.283ZM96.3864 472.17V472.283C96.3864 472.547 96.4175 472.797 96.4795 473.032C96.5416 473.264 96.6347 473.47 96.7589 473.65C96.8863 473.83 97.0448 473.972 97.2342 474.076C97.4237 474.177 97.6443 474.228 97.8958 474.228C98.1441 474.228 98.3614 474.177 98.5476 474.076C98.7371 473.972 98.8939 473.83 99.0181 473.65C99.1422 473.47 99.2353 473.264 99.2974 473.032C99.3628 472.797 99.3954 472.547 99.3954 472.283V472.17C99.3954 471.908 99.3628 471.662 99.2974 471.43C99.2353 471.195 99.1406 470.987 99.0132 470.807C98.889 470.624 98.7322 470.481 98.5427 470.376C98.3565 470.272 98.1376 470.219 97.886 470.219C97.6377 470.219 97.4188 470.272 97.2293 470.376C97.0431 470.481 96.8863 470.624 96.7589 470.807C96.6347 470.987 96.5416 471.195 96.4795 471.43C96.4175 471.662 96.3864 471.908 96.3864 472.17ZM105.002 473.65V469.572H105.913V474.875H105.046L105.002 473.65ZM105.173 472.532L105.551 472.523C105.551 472.876 105.513 473.202 105.438 473.503C105.366 473.8 105.248 474.058 105.085 474.277C104.922 474.496 104.708 474.668 104.443 474.792C104.178 474.913 103.857 474.973 103.478 474.973C103.22 474.973 102.983 474.935 102.767 474.86C102.555 474.785 102.372 474.669 102.218 474.512C102.065 474.356 101.945 474.151 101.86 473.9C101.779 473.648 101.738 473.346 101.738 472.993V469.572H102.645V473.003C102.645 473.241 102.671 473.439 102.723 473.596C102.779 473.749 102.852 473.872 102.944 473.963C103.038 474.052 103.143 474.114 103.257 474.15C103.375 474.186 103.496 474.204 103.62 474.204C104.005 474.204 104.311 474.13 104.536 473.983C104.762 473.833 104.923 473.632 105.021 473.38C105.123 473.125 105.173 472.843 105.173 472.532ZM108.516 470.406V474.875H107.609V469.572H108.491L108.516 470.406ZM110.172 469.543L110.167 470.386C110.092 470.37 110.02 470.36 109.951 470.357C109.886 470.35 109.811 470.347 109.726 470.347C109.517 470.347 109.332 470.379 109.172 470.445C109.012 470.51 108.877 470.602 108.765 470.719C108.654 470.837 108.566 470.977 108.501 471.141C108.439 471.301 108.398 471.477 108.378 471.67L108.124 471.817C108.124 471.497 108.155 471.196 108.217 470.915C108.282 470.634 108.382 470.386 108.516 470.17C108.65 469.951 108.819 469.782 109.025 469.661C109.234 469.537 109.483 469.474 109.77 469.474C109.835 469.474 109.911 469.483 109.996 469.499C110.081 469.512 110.139 469.527 110.172 469.543ZM113.348 474.228C113.563 474.228 113.763 474.184 113.945 474.096C114.128 474.008 114.279 473.887 114.396 473.733C114.514 473.576 114.581 473.398 114.597 473.199H115.46C115.443 473.513 115.337 473.805 115.141 474.076C114.948 474.344 114.695 474.561 114.382 474.728C114.068 474.891 113.723 474.973 113.348 474.973C112.949 474.973 112.601 474.903 112.304 474.762C112.01 474.622 111.765 474.429 111.569 474.184C111.376 473.939 111.231 473.658 111.133 473.341C111.038 473.021 110.99 472.683 110.99 472.327V472.121C110.99 471.765 111.038 471.428 111.133 471.111C111.231 470.791 111.376 470.509 111.569 470.263C111.765 470.018 112.01 469.826 112.304 469.685C112.601 469.545 112.949 469.474 113.348 469.474C113.763 469.474 114.125 469.559 114.436 469.729C114.746 469.896 114.989 470.125 115.166 470.415C115.345 470.703 115.443 471.03 115.46 471.396H114.597C114.581 471.177 114.519 470.979 114.411 470.803C114.307 470.626 114.163 470.486 113.98 470.381C113.8 470.273 113.589 470.219 113.348 470.219C113.07 470.219 112.836 470.275 112.647 470.386C112.461 470.494 112.312 470.641 112.201 470.827C112.093 471.01 112.015 471.214 111.966 471.44C111.92 471.662 111.897 471.889 111.897 472.121V472.327C111.897 472.559 111.92 472.787 111.966 473.013C112.011 473.238 112.088 473.442 112.196 473.625C112.307 473.808 112.456 473.955 112.642 474.066C112.831 474.174 113.067 474.228 113.348 474.228ZM118.993 474.973C118.624 474.973 118.289 474.911 117.989 474.787C117.691 474.659 117.435 474.481 117.219 474.253C117.007 474.024 116.843 473.753 116.729 473.439C116.615 473.125 116.558 472.782 116.558 472.41V472.204C116.558 471.773 116.621 471.389 116.749 471.052C116.876 470.713 117.049 470.425 117.268 470.19C117.487 469.955 117.735 469.777 118.013 469.656C118.291 469.535 118.578 469.474 118.876 469.474C119.255 469.474 119.581 469.54 119.856 469.671C120.133 469.801 120.36 469.984 120.537 470.219C120.713 470.451 120.844 470.726 120.929 471.043C121.014 471.356 121.056 471.699 121.056 472.072V472.479H117.097V471.739H120.15V471.67C120.137 471.435 120.088 471.206 120.003 470.984C119.921 470.762 119.79 470.579 119.611 470.435C119.431 470.291 119.186 470.219 118.876 470.219C118.67 470.219 118.48 470.263 118.307 470.352C118.134 470.437 117.985 470.564 117.861 470.734C117.737 470.904 117.641 471.111 117.572 471.356C117.503 471.601 117.469 471.884 117.469 472.204V472.41C117.469 472.662 117.503 472.898 117.572 473.121C117.644 473.339 117.747 473.532 117.881 473.699C118.018 473.865 118.183 473.996 118.376 474.091C118.572 474.186 118.794 474.233 119.042 474.233C119.362 474.233 119.634 474.168 119.856 474.037C120.078 473.906 120.272 473.732 120.439 473.513L120.988 473.949C120.873 474.122 120.728 474.287 120.552 474.444C120.375 474.601 120.158 474.728 119.9 474.826C119.645 474.924 119.343 474.973 118.993 474.973ZM126.55 470.915L127.618 470.156C127.824 470.015 127.983 469.875 128.094 469.734C128.208 469.59 128.265 469.394 128.265 469.146C128.265 468.953 128.19 468.779 128.04 468.622C127.89 468.462 127.677 468.382 127.403 468.382C127.213 468.382 127.053 468.426 126.922 468.514C126.792 468.602 126.694 468.72 126.628 468.867C126.563 469.011 126.53 469.169 126.53 469.342C126.53 469.489 126.566 469.641 126.638 469.798C126.71 469.955 126.81 470.118 126.937 470.288C127.065 470.458 127.21 470.638 127.373 470.827L130.75 474.875H129.662L126.893 471.562C126.648 471.275 126.429 471.012 126.236 470.773C126.044 470.531 125.892 470.298 125.781 470.072C125.673 469.847 125.619 469.613 125.619 469.372C125.619 468.999 125.692 468.685 125.839 468.431C125.99 468.173 126.199 467.977 126.467 467.843C126.735 467.709 127.048 467.642 127.408 467.642C127.757 467.642 128.058 467.712 128.309 467.852C128.564 467.99 128.76 468.173 128.897 468.401C129.035 468.627 129.103 468.875 129.103 469.146C129.103 469.375 129.062 469.581 128.981 469.764C128.899 469.943 128.785 470.108 128.638 470.259C128.494 470.409 128.326 470.556 128.133 470.7L126.717 471.753C126.481 471.926 126.31 472.091 126.202 472.248C126.094 472.405 126.024 472.544 125.991 472.665C125.962 472.786 125.947 472.882 125.947 472.954C125.947 473.186 125.998 473.398 126.099 473.591C126.2 473.784 126.354 473.939 126.56 474.057C126.769 474.171 127.03 474.228 127.344 474.228C127.618 474.228 127.885 474.166 128.143 474.042C128.404 473.914 128.638 473.735 128.843 473.503C129.049 473.268 129.213 472.988 129.334 472.665C129.458 472.338 129.52 471.977 129.52 471.582H130.333C130.333 471.905 130.302 472.211 130.24 472.498C130.178 472.786 130.082 473.054 129.951 473.302C129.824 473.547 129.66 473.771 129.461 473.973C129.432 474.003 129.409 474.037 129.392 474.076C129.376 474.115 129.353 474.15 129.324 474.179C129.079 474.444 128.777 474.643 128.417 474.777C128.061 474.908 127.703 474.973 127.344 474.973C126.87 474.973 126.46 474.886 126.114 474.713C125.771 474.54 125.506 474.302 125.32 473.998C125.134 473.694 125.041 473.346 125.041 472.954C125.041 472.653 125.104 472.389 125.232 472.16C125.362 471.931 125.54 471.717 125.766 471.518C125.995 471.319 126.256 471.118 126.55 470.915ZM134.352 472.283V472.17C134.352 471.788 134.407 471.433 134.518 471.106C134.63 470.776 134.79 470.491 134.999 470.249C135.208 470.004 135.461 469.814 135.758 469.68C136.056 469.543 136.389 469.474 136.758 469.474C137.131 469.474 137.465 469.543 137.763 469.68C138.063 469.814 138.318 470.004 138.527 470.249C138.74 470.491 138.901 470.776 139.012 471.106C139.123 471.433 139.179 471.788 139.179 472.17V472.283C139.179 472.665 139.123 473.019 139.012 473.346C138.901 473.673 138.74 473.959 138.527 474.204C138.318 474.445 138.065 474.635 137.768 474.772C137.474 474.906 137.14 474.973 136.768 474.973C136.395 474.973 136.061 474.906 135.763 474.772C135.466 474.635 135.211 474.445 134.999 474.204C134.79 473.959 134.63 473.673 134.518 473.346C134.407 473.019 134.352 472.665 134.352 472.283ZM135.258 472.17V472.283C135.258 472.547 135.289 472.797 135.352 473.032C135.414 473.264 135.507 473.47 135.631 473.65C135.758 473.83 135.917 473.972 136.106 474.076C136.296 474.177 136.516 474.228 136.768 474.228C137.016 474.228 137.233 474.177 137.42 474.076C137.609 473.972 137.766 473.83 137.89 473.65C138.014 473.47 138.107 473.264 138.169 473.032C138.235 472.797 138.267 472.547 138.267 472.283V472.17C138.267 471.908 138.235 471.662 138.169 471.43C138.107 471.195 138.013 470.987 137.885 470.807C137.761 470.624 137.604 470.481 137.415 470.376C137.229 470.272 137.01 470.219 136.758 470.219C136.51 470.219 136.291 470.272 136.101 470.376C135.915 470.481 135.758 470.624 135.631 470.807C135.507 470.987 135.414 471.195 135.352 471.43C135.289 471.662 135.258 471.908 135.258 472.17ZM141.536 470.592V476.914H140.625V469.572H141.458L141.536 470.592ZM145.109 472.18V472.283C145.109 472.668 145.063 473.026 144.972 473.356C144.88 473.683 144.746 473.967 144.57 474.209C144.397 474.45 144.183 474.638 143.928 474.772C143.673 474.906 143.38 474.973 143.051 474.973C142.714 474.973 142.417 474.917 142.159 474.806C141.9 474.695 141.682 474.534 141.502 474.321C141.322 474.109 141.178 473.854 141.071 473.557C140.966 473.259 140.894 472.925 140.855 472.552V472.003C140.894 471.611 140.968 471.26 141.076 470.95C141.183 470.639 141.325 470.375 141.502 470.156C141.682 469.934 141.899 469.765 142.154 469.651C142.409 469.533 142.703 469.474 143.036 469.474C143.369 469.474 143.665 469.54 143.923 469.671C144.181 469.798 144.398 469.981 144.575 470.219C144.751 470.458 144.883 470.744 144.972 471.077C145.063 471.407 145.109 471.775 145.109 472.18ZM144.197 472.283V472.18C144.197 471.915 144.169 471.667 144.114 471.435C144.058 471.2 143.972 470.994 143.854 470.817C143.74 470.638 143.593 470.497 143.413 470.396C143.233 470.291 143.019 470.239 142.771 470.239C142.542 470.239 142.343 470.278 142.173 470.357C142.007 470.435 141.865 470.541 141.747 470.675C141.629 470.806 141.533 470.956 141.458 471.126C141.386 471.293 141.332 471.466 141.296 471.645V472.915C141.361 473.143 141.453 473.359 141.571 473.562C141.688 473.761 141.845 473.923 142.041 474.047C142.237 474.168 142.484 474.228 142.781 474.228C143.026 474.228 143.237 474.177 143.413 474.076C143.593 473.972 143.74 473.83 143.854 473.65C143.972 473.47 144.058 473.264 144.114 473.032C144.169 472.797 144.197 472.547 144.197 472.283ZM148.779 474.973C148.41 474.973 148.075 474.911 147.775 474.787C147.477 474.659 147.221 474.481 147.005 474.253C146.793 474.024 146.63 473.753 146.515 473.439C146.401 473.125 146.344 472.782 146.344 472.41V472.204C146.344 471.773 146.407 471.389 146.535 471.052C146.662 470.713 146.835 470.425 147.054 470.19C147.273 469.955 147.522 469.777 147.799 469.656C148.077 469.535 148.364 469.474 148.662 469.474C149.041 469.474 149.367 469.54 149.642 469.671C149.92 469.801 150.147 469.984 150.323 470.219C150.5 470.451 150.63 470.726 150.715 471.043C150.8 471.356 150.843 471.699 150.843 472.072V472.479H146.883V471.739H149.936V471.67C149.923 471.435 149.874 471.206 149.789 470.984C149.707 470.762 149.577 470.579 149.397 470.435C149.217 470.291 148.972 470.219 148.662 470.219C148.456 470.219 148.266 470.263 148.093 470.352C147.92 470.437 147.771 470.564 147.647 470.734C147.523 470.904 147.427 471.111 147.358 471.356C147.29 471.601 147.255 471.884 147.255 472.204V472.41C147.255 472.662 147.29 472.898 147.358 473.121C147.43 473.339 147.533 473.532 147.667 473.699C147.804 473.865 147.969 473.996 148.162 474.091C148.358 474.186 148.58 474.233 148.828 474.233C149.149 474.233 149.42 474.168 149.642 474.037C149.864 473.906 150.058 473.732 150.225 473.513L150.774 473.949C150.66 474.122 150.514 474.287 150.338 474.444C150.161 474.601 149.944 474.728 149.686 474.826C149.431 474.924 149.129 474.973 148.779 474.973ZM153.121 470.705V474.875H152.215V469.572H153.072L153.121 470.705ZM152.906 472.023L152.528 472.008C152.532 471.645 152.586 471.311 152.69 471.003C152.795 470.693 152.942 470.424 153.131 470.195C153.321 469.966 153.546 469.79 153.807 469.666C154.072 469.538 154.364 469.474 154.685 469.474C154.946 469.474 155.181 469.51 155.39 469.582C155.599 469.651 155.778 469.762 155.925 469.916C156.075 470.069 156.189 470.268 156.268 470.513C156.346 470.755 156.385 471.051 156.385 471.4V474.875H155.474V471.391C155.474 471.113 155.433 470.891 155.351 470.724C155.269 470.554 155.15 470.432 154.993 470.357C154.837 470.278 154.644 470.239 154.415 470.239C154.19 470.239 153.984 470.286 153.798 470.381C153.615 470.476 153.456 470.607 153.322 470.773C153.192 470.94 153.089 471.131 153.014 471.347C152.942 471.559 152.906 471.784 152.906 472.023ZM159.963 471.469V472.214H157.571V471.469H159.963ZM164.506 473.846V467.348H165.417V474.875H164.584L164.506 473.846ZM160.938 472.283V472.18C160.938 471.775 160.987 471.407 161.085 471.077C161.186 470.744 161.328 470.458 161.511 470.219C161.698 469.981 161.918 469.798 162.173 469.671C162.431 469.54 162.718 469.474 163.035 469.474C163.369 469.474 163.659 469.533 163.908 469.651C164.159 469.765 164.372 469.934 164.545 470.156C164.721 470.375 164.86 470.639 164.961 470.95C165.063 471.26 165.133 471.611 165.172 472.003V472.454C165.136 472.843 165.066 473.192 164.961 473.503C164.86 473.813 164.721 474.078 164.545 474.297C164.372 474.516 164.159 474.684 163.908 474.801C163.656 474.916 163.362 474.973 163.026 474.973C162.715 474.973 162.431 474.906 162.173 474.772C161.918 474.638 161.698 474.45 161.511 474.209C161.328 473.967 161.186 473.683 161.085 473.356C160.987 473.026 160.938 472.668 160.938 472.283ZM161.849 472.18V472.283C161.849 472.547 161.876 472.795 161.928 473.027C161.983 473.259 162.068 473.464 162.183 473.64C162.297 473.816 162.442 473.955 162.619 474.057C162.795 474.155 163.006 474.204 163.251 474.204C163.552 474.204 163.798 474.14 163.991 474.012C164.187 473.885 164.344 473.717 164.461 473.508C164.579 473.299 164.671 473.072 164.736 472.827V471.645C164.697 471.466 164.64 471.293 164.564 471.126C164.493 470.956 164.398 470.806 164.28 470.675C164.166 470.541 164.024 470.435 163.854 470.357C163.687 470.278 163.49 470.239 163.261 470.239C163.013 470.239 162.799 470.291 162.619 470.396C162.442 470.497 162.297 470.638 162.183 470.817C162.068 470.994 161.983 471.2 161.928 471.435C161.876 471.667 161.849 471.915 161.849 472.18ZM169.343 474.973C168.973 474.973 168.638 474.911 168.338 474.787C168.041 474.659 167.784 474.481 167.568 474.253C167.356 474.024 167.193 473.753 167.078 473.439C166.964 473.125 166.907 472.782 166.907 472.41V472.204C166.907 471.773 166.971 471.389 167.098 471.052C167.225 470.713 167.399 470.425 167.617 470.19C167.836 469.955 168.085 469.777 168.362 469.656C168.64 469.535 168.928 469.474 169.225 469.474C169.604 469.474 169.931 469.54 170.205 469.671C170.483 469.801 170.71 469.984 170.886 470.219C171.063 470.451 171.193 470.726 171.278 471.043C171.363 471.356 171.406 471.699 171.406 472.072V472.479H167.446V471.739H170.499V471.67C170.486 471.435 170.437 471.206 170.352 470.984C170.27 470.762 170.14 470.579 169.96 470.435C169.78 470.291 169.535 470.219 169.225 470.219C169.019 470.219 168.83 470.263 168.656 470.352C168.483 470.437 168.335 470.564 168.21 470.734C168.086 470.904 167.99 471.111 167.921 471.356C167.853 471.601 167.818 471.884 167.818 472.204V472.41C167.818 472.662 167.853 472.898 167.921 473.121C167.993 473.339 168.096 473.532 168.23 473.699C168.367 473.865 168.532 473.996 168.725 474.091C168.921 474.186 169.143 474.233 169.392 474.233C169.712 474.233 169.983 474.168 170.205 474.037C170.427 473.906 170.622 473.732 170.788 473.513L171.337 473.949C171.223 474.122 171.077 474.287 170.901 474.444C170.725 474.601 170.507 474.728 170.249 474.826C169.994 474.924 169.692 474.973 169.343 474.973ZM175.865 473.469C175.865 473.338 175.836 473.217 175.777 473.106C175.722 472.992 175.606 472.889 175.429 472.797C175.256 472.702 174.995 472.621 174.645 472.552C174.351 472.49 174.085 472.417 173.846 472.332C173.611 472.247 173.41 472.144 173.243 472.023C173.08 471.902 172.954 471.76 172.866 471.596C172.778 471.433 172.734 471.242 172.734 471.023C172.734 470.814 172.78 470.616 172.871 470.43C172.966 470.244 173.098 470.079 173.268 469.935C173.441 469.791 173.649 469.679 173.89 469.597C174.132 469.515 174.402 469.474 174.699 469.474C175.124 469.474 175.486 469.55 175.787 469.7C176.087 469.85 176.318 470.051 176.478 470.303C176.638 470.551 176.718 470.827 176.718 471.131H175.811C175.811 470.984 175.767 470.842 175.679 470.705C175.594 470.564 175.468 470.448 175.302 470.357C175.138 470.265 174.937 470.219 174.699 470.219C174.447 470.219 174.243 470.259 174.086 470.337C173.933 470.412 173.82 470.509 173.748 470.626C173.68 470.744 173.645 470.868 173.645 470.999C173.645 471.097 173.662 471.185 173.694 471.263C173.73 471.338 173.792 471.409 173.881 471.474C173.969 471.536 174.093 471.595 174.253 471.65C174.413 471.706 174.617 471.761 174.866 471.817C175.3 471.915 175.658 472.033 175.939 472.17C176.22 472.307 176.429 472.475 176.566 472.675C176.703 472.874 176.772 473.116 176.772 473.4C176.772 473.632 176.723 473.844 176.625 474.037C176.53 474.23 176.391 474.396 176.208 474.537C176.029 474.674 175.813 474.782 175.561 474.86C175.313 474.935 175.034 474.973 174.723 474.973C174.256 474.973 173.861 474.89 173.537 474.723C173.214 474.556 172.969 474.341 172.802 474.076C172.636 473.812 172.552 473.532 172.552 473.238H173.464C173.477 473.486 173.549 473.684 173.68 473.831C173.81 473.975 173.97 474.078 174.16 474.14C174.349 474.199 174.537 474.228 174.723 474.228C174.972 474.228 175.179 474.195 175.346 474.13C175.516 474.065 175.645 473.975 175.733 473.861C175.821 473.746 175.865 473.616 175.865 473.469ZM179.261 469.572V474.875H178.35V469.572H179.261ZM178.281 468.166C178.281 468.019 178.325 467.895 178.414 467.794C178.505 467.692 178.639 467.642 178.815 467.642C178.989 467.642 179.121 467.692 179.212 467.794C179.307 467.895 179.355 468.019 179.355 468.166C179.355 468.306 179.307 468.427 179.212 468.529C179.121 468.627 178.989 468.676 178.815 468.676C178.639 468.676 178.505 468.627 178.414 468.529C178.325 468.427 178.281 468.306 178.281 468.166ZM184.466 469.572H185.289V474.762C185.289 475.229 185.195 475.628 185.005 475.958C184.816 476.288 184.551 476.538 184.211 476.708C183.875 476.881 183.486 476.968 183.045 476.968C182.862 476.968 182.646 476.938 182.398 476.879C182.153 476.824 181.911 476.727 181.673 476.59C181.437 476.456 181.24 476.275 181.08 476.046L181.555 475.507C181.777 475.775 182.009 475.961 182.251 476.066C182.496 476.17 182.738 476.223 182.976 476.223C183.264 476.223 183.512 476.169 183.721 476.061C183.93 475.953 184.092 475.793 184.206 475.581C184.324 475.372 184.383 475.113 184.383 474.806V470.739L184.466 469.572ZM180.815 472.283V472.18C180.815 471.775 180.862 471.407 180.957 471.077C181.055 470.744 181.194 470.458 181.374 470.219C181.557 469.981 181.777 469.798 182.035 469.671C182.293 469.54 182.584 469.474 182.908 469.474C183.241 469.474 183.532 469.533 183.78 469.651C184.031 469.765 184.244 469.934 184.417 470.156C184.593 470.375 184.732 470.639 184.834 470.95C184.935 471.26 185.005 471.611 185.044 472.003V472.454C185.008 472.843 184.938 473.192 184.834 473.503C184.732 473.813 184.593 474.078 184.417 474.297C184.244 474.516 184.031 474.684 183.78 474.801C183.528 474.916 183.234 474.973 182.898 474.973C182.581 474.973 182.293 474.906 182.035 474.772C181.78 474.638 181.562 474.45 181.379 474.209C181.196 473.967 181.055 473.683 180.957 473.356C180.862 473.026 180.815 472.668 180.815 472.283ZM181.722 472.18V472.283C181.722 472.547 181.748 472.795 181.8 473.027C181.856 473.259 181.939 473.464 182.05 473.64C182.164 473.816 182.31 473.955 182.486 474.057C182.663 474.155 182.873 474.204 183.118 474.204C183.419 474.204 183.667 474.14 183.863 474.012C184.059 473.885 184.214 473.717 184.329 473.508C184.446 473.299 184.538 473.072 184.603 472.827V471.645C184.567 471.466 184.512 471.293 184.437 471.126C184.365 470.956 184.27 470.806 184.152 470.675C184.038 470.541 183.896 470.435 183.726 470.357C183.556 470.278 183.357 470.239 183.128 470.239C182.88 470.239 182.666 470.291 182.486 470.396C182.31 470.497 182.164 470.638 182.05 470.817C181.939 470.994 181.856 471.2 181.8 471.435C181.748 471.667 181.722 471.915 181.722 472.18ZM187.887 470.705V474.875H186.98V469.572H187.838L187.887 470.705ZM187.671 472.023L187.294 472.008C187.297 471.645 187.351 471.311 187.455 471.003C187.56 470.693 187.707 470.424 187.896 470.195C188.086 469.966 188.311 469.79 188.573 469.666C188.837 469.538 189.13 469.474 189.45 469.474C189.711 469.474 189.947 469.51 190.156 469.582C190.365 469.651 190.543 469.762 190.69 469.916C190.84 470.069 190.954 470.268 191.033 470.513C191.111 470.755 191.15 471.051 191.15 471.4V474.875H190.239V471.391C190.239 471.113 190.198 470.891 190.116 470.724C190.035 470.554 189.916 470.432 189.759 470.357C189.602 470.278 189.409 470.239 189.18 470.239C188.955 470.239 188.749 470.286 188.563 470.381C188.38 470.476 188.222 470.607 188.088 470.773C187.957 470.94 187.854 471.131 187.779 471.347C187.707 471.559 187.671 471.784 187.671 472.023Z" fill="#777777"/>
</g>
<defs>
<clipPath id="clip0_258_10136">
<rect width="225.822" height="501.827" fill="white"/>
</clipPath>
</defs>
</svg>
