<svg width="220" height="487" viewBox="0 0 220 487" fill="none" xmlns="http://www.w3.org/2000/svg">
<g clip-path="url(#clip0_267_11217)">
<rect width="219.15" height="487" fill="white"/>
<rect width="219.15" height="18.0852" fill="#F1F1F1"/>
<circle cx="18.6171" cy="9.57498" r="3.72342" fill="#C4C4C4"/>
<circle cx="188.831" cy="9.57498" r="3.72342" fill="#C4C4C4"/>
<rect x="197.873" y="6.38281" width="6.38301" height="6.38301" fill="#C4C4C4"/>
<path d="M176.065 12.7656L172.379 6.38262L179.75 6.38262L176.065 12.7656Z" fill="#C4C4C4"/>
<rect width="228.281" height="55.3962" transform="translate(-4.26111 438.91)" fill="white"/>
<rect x="-4.26111" y="438.91" width="228.281" height="0.60875" fill="#EDEDED"/>
<path d="M39.8564 450.479C39.6755 450.655 39.6712 450.944 39.8469 451.125C40.0225 451.306 40.3116 451.31 40.4925 451.134L41.8485 449.817V457.26C41.8485 457.512 42.0529 457.717 42.305 457.717C42.5572 457.717 42.7616 457.512 42.7616 457.26V449.818L44.1176 451.134C44.2985 451.31 44.5876 451.306 44.7632 451.125C44.9389 450.944 44.9346 450.655 44.7537 450.479L42.6231 448.41C42.4459 448.238 42.1641 448.238 41.987 448.41L39.8564 450.479Z" fill="#F7931A"/>
<path d="M36.3698 456.181L35.0139 454.864C34.833 454.688 34.5439 454.693 34.3683 454.874C34.1926 455.054 34.1969 455.343 34.3778 455.519L36.5084 457.588C36.6855 457.76 36.9673 457.76 37.1445 457.588L39.2751 455.519C39.456 455.343 39.4603 455.054 39.2846 454.874C39.109 454.693 38.8199 454.688 38.639 454.864L37.2829 456.181L37.2829 448.738C37.2829 448.486 37.0785 448.281 36.8263 448.281C36.5742 448.281 36.3698 448.486 36.3698 448.738V456.181Z" fill="#F7931A"/>
<path d="M19.6751 466.978V472.172H18.9974V466.978H19.6751ZM21.3444 466.978V467.542H17.3317V466.978H21.3444ZM22.6473 468.919V472.172H21.9874V468.312H22.6295L22.6473 468.919ZM23.8529 468.291L23.8493 468.905C23.7947 468.893 23.7423 468.886 23.6924 468.883C23.6448 468.878 23.5902 468.876 23.5283 468.876C23.3761 468.876 23.2418 468.9 23.1253 468.947C23.0087 468.995 22.9101 469.062 22.8292 469.147C22.7484 469.233 22.6842 469.335 22.6366 469.454C22.5914 469.57 22.5617 469.699 22.5474 469.839L22.362 469.946C22.362 469.713 22.3845 469.494 22.4297 469.29C22.4773 469.085 22.5498 468.905 22.6473 468.748C22.7448 468.588 22.8685 468.465 23.0183 468.377C23.1704 468.286 23.3512 468.241 23.5604 468.241C23.608 468.241 23.6627 468.247 23.7245 468.259C23.7863 468.269 23.8291 468.279 23.8529 468.291ZM26.8394 471.512V469.525C26.8394 469.373 26.8084 469.241 26.7466 469.129C26.6872 469.015 26.5968 468.927 26.4755 468.865C26.3543 468.804 26.2044 468.773 26.0261 468.773C25.8596 468.773 25.7134 468.801 25.5874 468.858C25.4637 468.915 25.3662 468.99 25.2949 469.083C25.2259 469.176 25.1914 469.276 25.1914 469.383H24.5316C24.5316 469.245 24.5672 469.108 24.6386 468.972C24.7099 468.837 24.8122 468.714 24.9453 468.605C25.0809 468.493 25.2426 468.405 25.4304 468.341C25.6207 468.274 25.8323 468.241 26.0653 468.241C26.3459 468.241 26.5932 468.289 26.8073 468.384C27.0236 468.479 27.1925 468.623 27.3138 468.815C27.4374 469.006 27.4992 469.245 27.4992 469.532V471.33C27.4992 471.458 27.5099 471.595 27.5313 471.74C27.5551 471.885 27.5896 472.01 27.6348 472.115V472.172H26.9464C26.9131 472.096 26.8869 471.995 26.8679 471.869C26.8489 471.74 26.8394 471.621 26.8394 471.512ZM26.9535 469.832L26.9606 470.296H26.2936C26.1058 470.296 25.9381 470.311 25.7907 470.342C25.6433 470.371 25.5196 470.415 25.4197 470.474C25.3199 470.533 25.2438 470.608 25.1914 470.699C25.1391 470.787 25.113 470.89 25.113 471.009C25.113 471.13 25.1403 471.241 25.195 471.341C25.2497 471.441 25.3317 471.52 25.4411 471.58C25.5529 471.637 25.6896 471.665 25.8513 471.665C26.0534 471.665 26.2318 471.623 26.3864 471.537C26.5409 471.451 26.6634 471.347 26.7537 471.223C26.8465 471.099 26.8964 470.979 26.9036 470.863L27.1853 471.18C27.1687 471.28 27.1235 471.391 27.0498 471.512C26.9761 471.633 26.8774 471.75 26.7537 471.862C26.6325 471.971 26.4874 472.062 26.3186 472.136C26.1521 472.208 25.9643 472.243 25.755 472.243C25.4934 472.243 25.264 472.192 25.0666 472.09C24.8716 471.988 24.7194 471.851 24.61 471.68C24.503 471.506 24.4495 471.312 24.4495 471.098C24.4495 470.891 24.49 470.709 24.5708 470.553C24.6517 470.393 24.7682 470.261 24.9204 470.157C25.0726 470.05 25.2557 469.969 25.4697 469.914C25.6837 469.859 25.9227 469.832 26.1866 469.832H26.9535ZM29.4406 469.136V472.172H28.7807V468.312H29.4049L29.4406 469.136ZM29.2836 470.096L29.009 470.085C29.0114 469.821 29.0506 469.578 29.1267 469.354C29.2028 469.128 29.3098 468.932 29.4477 468.765C29.5856 468.599 29.7497 468.471 29.9399 468.38C30.1325 468.288 30.3454 468.241 30.5784 468.241C30.7686 468.241 30.9399 468.267 31.092 468.32C31.2442 468.37 31.3738 468.45 31.4808 468.562C31.5902 468.674 31.6734 468.819 31.7305 468.997C31.7876 469.173 31.8161 469.389 31.8161 469.643V472.172H31.1527V469.636C31.1527 469.434 31.123 469.272 31.0635 469.151C31.0041 469.027 30.9173 468.938 30.8031 468.883C30.689 468.826 30.5487 468.798 30.3822 468.798C30.2182 468.798 30.0683 468.832 29.9328 468.901C29.7996 468.97 29.6843 469.065 29.5868 469.186C29.4917 469.308 29.4168 469.447 29.3621 469.604C29.3098 469.758 29.2836 469.922 29.2836 470.096ZM35.3091 471.148C35.3091 471.053 35.2877 470.965 35.2449 470.884C35.2044 470.801 35.12 470.726 34.9916 470.66C34.8656 470.591 34.6753 470.531 34.4209 470.481C34.2069 470.436 34.0131 470.382 33.8395 470.321C33.6683 470.259 33.5221 470.184 33.4008 470.096C33.2819 470.008 33.1903 469.905 33.1261 469.786C33.0619 469.667 33.0298 469.528 33.0298 469.368C33.0298 469.216 33.0631 469.072 33.1297 468.937C33.1987 468.801 33.295 468.681 33.4186 468.576C33.5446 468.472 33.6956 468.39 33.8716 468.33C34.0476 468.271 34.2438 468.241 34.4601 468.241C34.7693 468.241 35.0332 468.296 35.252 468.405C35.4708 468.515 35.6384 468.661 35.7549 468.844C35.8714 469.025 35.9297 469.226 35.9297 469.447H35.2698C35.2698 469.34 35.2377 469.236 35.1735 469.136C35.1117 469.034 35.0201 468.95 34.8989 468.883C34.78 468.817 34.6337 468.783 34.4601 468.783C34.277 468.783 34.1284 468.812 34.0143 468.869C33.9025 468.924 33.8205 468.994 33.7682 469.079C33.7182 469.165 33.6933 469.255 33.6933 469.35C33.6933 469.422 33.7052 469.486 33.7289 469.543C33.7551 469.598 33.8003 469.649 33.8645 469.696C33.9287 469.742 34.019 469.784 34.1356 469.825C34.2521 469.865 34.4007 469.906 34.5814 469.946C34.8977 470.017 35.1581 470.103 35.3626 470.203C35.5671 470.303 35.7193 470.425 35.8191 470.57C35.919 470.715 35.9689 470.891 35.9689 471.098C35.9689 471.267 35.9333 471.422 35.8619 471.562C35.793 471.702 35.6919 471.824 35.5587 471.926C35.428 472.026 35.271 472.104 35.0879 472.161C34.9072 472.216 34.7039 472.243 34.478 472.243C34.1379 472.243 33.8502 472.183 33.6148 472.061C33.3794 471.94 33.201 471.783 33.0798 471.59C32.9585 471.398 32.8978 471.195 32.8978 470.981H33.5613C33.5708 471.161 33.6231 471.305 33.7182 471.412C33.8133 471.517 33.9299 471.592 34.0678 471.637C34.2057 471.68 34.3424 471.701 34.478 471.701C34.6587 471.701 34.8097 471.677 34.931 471.63C35.0546 471.582 35.1486 471.517 35.2128 471.434C35.277 471.35 35.3091 471.255 35.3091 471.148ZM39.3549 471.512V469.525C39.3549 469.373 39.324 469.241 39.2621 469.129C39.2027 469.015 39.1123 468.927 38.9911 468.865C38.8698 468.804 38.72 468.773 38.5416 468.773C38.3752 468.773 38.2289 468.801 38.1029 468.858C37.9792 468.915 37.8817 468.99 37.8104 469.083C37.7414 469.176 37.707 469.276 37.707 469.383H37.0471C37.0471 469.245 37.0828 469.108 37.1541 468.972C37.2254 468.837 37.3277 468.714 37.4609 468.605C37.5964 468.493 37.7581 468.405 37.946 468.341C38.1362 468.274 38.3478 468.241 38.5809 468.241C38.8615 468.241 39.1088 468.289 39.3228 468.384C39.5392 468.479 39.708 468.623 39.8293 468.815C39.9529 469.006 40.0147 469.245 40.0147 469.532V471.33C40.0147 471.458 40.0255 471.595 40.0469 471.74C40.0706 471.885 40.1051 472.01 40.1503 472.115V472.172H39.4619C39.4286 472.096 39.4024 471.995 39.3834 471.869C39.3644 471.74 39.3549 471.621 39.3549 471.512ZM39.469 469.832L39.4761 470.296H38.8091C38.6213 470.296 38.4536 470.311 38.3062 470.342C38.1588 470.371 38.0351 470.415 37.9353 470.474C37.8354 470.533 37.7593 470.608 37.707 470.699C37.6547 470.787 37.6285 470.89 37.6285 471.009C37.6285 471.13 37.6558 471.241 37.7105 471.341C37.7652 471.441 37.8473 471.52 37.9567 471.58C38.0684 471.637 38.2051 471.665 38.3668 471.665C38.569 471.665 38.7473 471.623 38.9019 471.537C39.0564 471.451 39.1789 471.347 39.2693 471.223C39.362 471.099 39.4119 470.979 39.4191 470.863L39.7009 471.18C39.6842 471.28 39.639 471.391 39.5653 471.512C39.4916 471.633 39.3929 471.75 39.2693 471.862C39.148 471.971 39.0029 472.062 38.8341 472.136C38.6677 472.208 38.4798 472.243 38.2705 472.243C38.009 472.243 37.7795 472.192 37.5821 472.09C37.3871 471.988 37.2349 471.851 37.1256 471.68C37.0186 471.506 36.9651 471.312 36.9651 471.098C36.9651 470.891 37.0055 470.709 37.0863 470.553C37.1672 470.393 37.2837 470.261 37.4359 470.157C37.5881 470.05 37.7712 469.969 37.9852 469.914C38.1992 469.859 38.4382 469.832 38.7021 469.832H39.469ZM42.8407 471.701C42.9976 471.701 43.1427 471.669 43.2758 471.605C43.409 471.541 43.5184 471.453 43.604 471.341C43.6896 471.227 43.7383 471.097 43.7502 470.952H44.378C44.3661 471.18 44.2888 471.393 44.1462 471.59C44.0059 471.785 43.8216 471.944 43.5933 472.065C43.365 472.184 43.1141 472.243 42.8407 472.243C42.5506 472.243 42.2973 472.192 42.0809 472.09C41.8669 471.988 41.6886 471.847 41.5459 471.669C41.4056 471.491 41.2998 471.286 41.2284 471.055C41.1595 470.822 41.125 470.576 41.125 470.317V470.167C41.125 469.908 41.1595 469.663 41.2284 469.433C41.2998 469.199 41.4056 468.994 41.5459 468.815C41.6886 468.637 41.8669 468.497 42.0809 468.395C42.2973 468.292 42.5506 468.241 42.8407 468.241C43.1427 468.241 43.4066 468.303 43.6325 468.427C43.8584 468.548 44.0356 468.714 44.164 468.926C44.2948 469.135 44.3661 469.373 44.378 469.639H43.7502C43.7383 469.48 43.6932 469.336 43.6147 469.208C43.5386 469.079 43.434 468.977 43.3008 468.901C43.17 468.823 43.0166 468.783 42.8407 468.783C42.6386 468.783 42.4685 468.824 42.3306 468.905C42.1951 468.983 42.0869 469.09 42.006 469.226C41.9276 469.359 41.8705 469.507 41.8348 469.671C41.8015 469.833 41.7849 469.998 41.7849 470.167V470.317C41.7849 470.486 41.8015 470.652 41.8348 470.816C41.8681 470.981 41.924 471.129 42.0025 471.262C42.0833 471.395 42.1915 471.502 42.327 471.583C42.465 471.662 42.6362 471.701 42.8407 471.701ZM46.9792 468.312V468.819H44.8926V468.312H46.9792ZM45.5988 467.374H46.2587V471.216C46.2587 471.347 46.2789 471.445 46.3194 471.512C46.3598 471.579 46.4121 471.623 46.4763 471.644C46.5405 471.665 46.6095 471.676 46.6832 471.676C46.7379 471.676 46.7949 471.671 46.8544 471.662C46.9162 471.65 46.9626 471.64 46.9935 471.633L46.9971 472.172C46.9447 472.189 46.8758 472.204 46.7902 472.218C46.707 472.235 46.6059 472.243 46.487 472.243C46.3253 472.243 46.1767 472.211 46.0411 472.147C45.9056 472.083 45.7974 471.976 45.7165 471.826C45.6381 471.674 45.5988 471.469 45.5988 471.212V467.374ZM48.7137 468.312V472.172H48.0503V468.312H48.7137ZM48.0003 467.289C48.0003 467.182 48.0324 467.091 48.0966 467.018C48.1632 466.944 48.2607 466.907 48.3891 466.907C48.5151 466.907 48.6114 466.944 48.678 467.018C48.747 467.091 48.7815 467.182 48.7815 467.289C48.7815 467.391 48.747 467.479 48.678 467.553C48.6114 467.624 48.5151 467.66 48.3891 467.66C48.2607 467.66 48.1632 467.624 48.0966 467.553C48.0324 467.479 48.0003 467.391 48.0003 467.289ZM49.8418 470.285V470.203C49.8418 469.925 49.8822 469.667 49.9631 469.429C50.0439 469.189 50.1604 468.981 50.3126 468.805C50.4648 468.626 50.6491 468.488 50.8655 468.391C51.0819 468.291 51.3244 468.241 51.5931 468.241C51.8642 468.241 52.1079 468.291 52.3243 468.391C52.5431 468.488 52.7286 468.626 52.8808 468.805C53.0353 468.981 53.153 469.189 53.2339 469.429C53.3147 469.667 53.3552 469.925 53.3552 470.203V470.285C53.3552 470.563 53.3147 470.821 53.2339 471.059C53.153 471.297 53.0353 471.505 52.8808 471.683C52.7286 471.859 52.5443 471.997 52.3279 472.097C52.1139 472.194 51.8713 472.243 51.6003 472.243C51.3292 472.243 51.0854 472.194 50.869 472.097C50.6527 471.997 50.4672 471.859 50.3126 471.683C50.1604 471.505 50.0439 471.297 49.9631 471.059C49.8822 470.821 49.8418 470.563 49.8418 470.285ZM50.5017 470.203V470.285C50.5017 470.478 50.5242 470.66 50.5694 470.831C50.6146 471 50.6824 471.149 50.7727 471.28C50.8655 471.411 50.9808 471.514 51.1187 471.59C51.2566 471.664 51.4172 471.701 51.6003 471.701C51.781 471.701 51.9391 471.664 52.0747 471.59C52.2126 471.514 52.3267 471.411 52.4171 471.28C52.5074 471.149 52.5752 471 52.6204 470.831C52.6679 470.66 52.6917 470.478 52.6917 470.285V470.203C52.6917 470.013 52.6679 469.833 52.6204 469.664C52.5752 469.493 52.5063 469.342 52.4135 469.211C52.3231 469.078 52.209 468.974 52.0711 468.897C51.9355 468.821 51.7762 468.783 51.5931 468.783C51.4124 468.783 51.2531 468.821 51.1152 468.897C50.9796 468.974 50.8655 469.078 50.7727 469.211C50.6824 469.342 50.6146 469.493 50.5694 469.664C50.5242 469.833 50.5017 470.013 50.5017 470.203ZM55.0861 469.136V472.172H54.4262V468.312H55.0504L55.0861 469.136ZM54.9291 470.096L54.6545 470.085C54.6569 469.821 54.6961 469.578 54.7722 469.354C54.8483 469.128 54.9553 468.932 55.0932 468.765C55.2311 468.599 55.3952 468.471 55.5854 468.38C55.778 468.288 55.9909 468.241 56.2239 468.241C56.4141 468.241 56.5854 468.267 56.7375 468.32C56.8897 468.37 57.0193 468.45 57.1263 468.562C57.2357 468.674 57.3189 468.819 57.376 468.997C57.4331 469.173 57.4616 469.389 57.4616 469.643V472.172H56.7982V469.636C56.7982 469.434 56.7685 469.272 56.709 469.151C56.6496 469.027 56.5628 468.938 56.4486 468.883C56.3345 468.826 56.1942 468.798 56.0277 468.798C55.8637 468.798 55.7138 468.832 55.5783 468.901C55.4451 468.97 55.3298 469.065 55.2323 469.186C55.1372 469.308 55.0623 469.447 55.0076 469.604C54.9553 469.758 54.9291 469.922 54.9291 470.096ZM60.9546 471.148C60.9546 471.053 60.9332 470.965 60.8904 470.884C60.8499 470.801 60.7655 470.726 60.6371 470.66C60.5111 470.591 60.3208 470.531 60.0664 470.481C59.8524 470.436 59.6586 470.382 59.485 470.321C59.3138 470.259 59.1675 470.184 59.0463 470.096C58.9274 470.008 58.8358 469.905 58.7716 469.786C58.7074 469.667 58.6753 469.528 58.6753 469.368C58.6753 469.216 58.7086 469.072 58.7752 468.937C58.8441 468.801 58.9405 468.681 59.0641 468.576C59.1901 468.472 59.3411 468.39 59.5171 468.33C59.6931 468.271 59.8892 468.241 60.1056 468.241C60.4148 468.241 60.6787 468.296 60.8975 468.405C61.1163 468.515 61.2839 468.661 61.4004 468.844C61.5169 469.025 61.5752 469.226 61.5752 469.447H60.9153C60.9153 469.34 60.8832 469.236 60.819 469.136C60.7572 469.034 60.6656 468.95 60.5444 468.883C60.4255 468.817 60.2792 468.783 60.1056 468.783C59.9225 468.783 59.7739 468.812 59.6598 468.869C59.548 468.924 59.466 468.994 59.4137 469.079C59.3637 469.165 59.3388 469.255 59.3388 469.35C59.3388 469.422 59.3506 469.486 59.3744 469.543C59.4006 469.598 59.4458 469.649 59.51 469.696C59.5742 469.742 59.6645 469.784 59.7811 469.825C59.8976 469.865 60.0462 469.906 60.2269 469.946C60.5432 470.017 60.8036 470.103 61.0081 470.203C61.2126 470.303 61.3648 470.425 61.4646 470.57C61.5645 470.715 61.6144 470.891 61.6144 471.098C61.6144 471.267 61.5788 471.422 61.5074 471.562C61.4385 471.702 61.3374 471.824 61.2042 471.926C61.0735 472.026 60.9165 472.104 60.7334 472.161C60.5527 472.216 60.3494 472.243 60.1235 472.243C59.7834 472.243 59.4957 472.183 59.2603 472.061C59.0249 471.94 58.8465 471.783 58.7252 471.59C58.604 471.398 58.5433 471.195 58.5433 470.981H59.2068C59.2163 471.161 59.2686 471.305 59.3637 471.412C59.4588 471.517 59.5754 471.592 59.7133 471.637C59.8512 471.68 59.9879 471.701 60.1235 471.701C60.3042 471.701 60.4552 471.677 60.5765 471.63C60.7001 471.582 60.794 471.517 60.8583 471.434C60.9225 471.35 60.9546 471.255 60.9546 471.148Z" fill="#F7931A"/>
<path d="M106.528 450.261C106.528 450.765 106.12 451.174 105.615 451.174C105.111 451.174 104.702 450.765 104.702 450.261C104.702 449.756 105.111 449.348 105.615 449.348C106.12 449.348 106.528 449.756 106.528 450.261Z" fill="#777777"/>
<path d="M107.137 449.652C107.137 449.484 107.273 449.348 107.442 449.348H114.138C114.306 449.348 114.442 449.484 114.442 449.652C114.442 449.82 114.306 449.956 114.138 449.956H107.442C107.273 449.956 107.137 449.82 107.137 449.652Z" fill="#777777"/>
<path d="M107.442 450.565C107.273 450.565 107.137 450.701 107.137 450.87C107.137 451.038 107.273 451.174 107.442 451.174H111.094C111.262 451.174 111.398 451.038 111.398 450.87C111.398 450.701 111.262 450.565 111.094 450.565H107.442Z" fill="#777777"/>
<path d="M106.528 453C106.528 453.504 106.12 453.913 105.615 453.913C105.111 453.913 104.702 453.504 104.702 453C104.702 452.496 105.111 452.087 105.615 452.087C106.12 452.087 106.528 452.496 106.528 453Z" fill="#777777"/>
<path d="M107.442 452.087C107.273 452.087 107.137 452.223 107.137 452.391C107.137 452.56 107.273 452.696 107.442 452.696H112.312C112.48 452.696 112.616 452.56 112.616 452.391C112.616 452.223 112.48 452.087 112.312 452.087H107.442Z" fill="#777777"/>
<path d="M107.137 453.609C107.137 453.441 107.273 453.305 107.442 453.305H111.703C111.871 453.305 112.007 453.441 112.007 453.609C112.007 453.777 111.871 453.913 111.703 453.913H107.442C107.273 453.913 107.137 453.777 107.137 453.609Z" fill="#777777"/>
<path d="M105.615 456.653C106.12 456.653 106.528 456.244 106.528 455.74C106.528 455.235 106.12 454.826 105.615 454.826C105.111 454.826 104.702 455.235 104.702 455.74C104.702 456.244 105.111 456.653 105.615 456.653Z" fill="#777777"/>
<path d="M107.137 455.131C107.137 454.963 107.273 454.826 107.442 454.826H113.225C113.393 454.826 113.529 454.963 113.529 455.131C113.529 455.299 113.393 455.435 113.225 455.435H107.442C107.273 455.435 107.137 455.299 107.137 455.131Z" fill="#777777"/>
<path d="M107.442 456.044C107.273 456.044 107.137 456.18 107.137 456.348C107.137 456.516 107.273 456.653 107.442 456.653H109.877C110.045 456.653 110.181 456.516 110.181 456.348C110.181 456.18 110.045 456.044 109.877 456.044H107.442Z" fill="#777777"/>
<path d="M99.2853 467.439L97.5661 472.172H96.8634L98.843 466.978H99.296L99.2853 467.439ZM100.726 472.172L99.0036 467.439L98.9929 466.978H99.4458L101.433 472.172H100.726ZM100.637 470.249V470.813H97.7195V470.249H100.637ZM103.816 471.701C103.973 471.701 104.118 471.669 104.251 471.605C104.385 471.541 104.494 471.453 104.58 471.341C104.665 471.227 104.714 471.097 104.726 470.952H105.354C105.342 471.18 105.264 471.393 105.122 471.59C104.981 471.785 104.797 471.944 104.569 472.065C104.341 472.184 104.09 472.243 103.816 472.243C103.526 472.243 103.273 472.192 103.056 472.09C102.842 471.988 102.664 471.847 102.521 471.669C102.381 471.491 102.275 471.286 102.204 471.055C102.135 470.822 102.101 470.576 102.101 470.317V470.167C102.101 469.908 102.135 469.663 102.204 469.433C102.275 469.199 102.381 468.994 102.521 468.815C102.664 468.637 102.842 468.497 103.056 468.395C103.273 468.292 103.526 468.241 103.816 468.241C104.118 468.241 104.382 468.303 104.608 468.427C104.834 468.548 105.011 468.714 105.14 468.926C105.27 469.135 105.342 469.373 105.354 469.639H104.726C104.714 469.48 104.669 469.336 104.59 469.208C104.514 469.079 104.41 468.977 104.276 468.901C104.146 468.823 103.992 468.783 103.816 468.783C103.614 468.783 103.444 468.824 103.306 468.905C103.171 468.983 103.062 469.09 102.982 469.226C102.903 469.359 102.846 469.507 102.81 469.671C102.777 469.833 102.76 469.998 102.76 470.167V470.317C102.76 470.486 102.777 470.652 102.81 470.816C102.844 470.981 102.9 471.129 102.978 471.262C103.059 471.395 103.167 471.502 103.303 471.583C103.441 471.662 103.612 471.701 103.816 471.701ZM107.955 468.312V468.819H105.868V468.312H107.955ZM106.574 467.374H107.234V471.216C107.234 471.347 107.254 471.445 107.295 471.512C107.335 471.579 107.388 471.623 107.452 471.644C107.516 471.665 107.585 471.676 107.659 471.676C107.713 471.676 107.771 471.671 107.83 471.662C107.892 471.65 107.938 471.64 107.969 471.633L107.973 472.172C107.92 472.189 107.851 472.204 107.766 472.218C107.683 472.235 107.581 472.243 107.463 472.243C107.301 472.243 107.152 472.211 107.017 472.147C106.881 472.083 106.773 471.976 106.692 471.826C106.614 471.674 106.574 471.469 106.574 471.212V467.374ZM109.689 468.312V472.172H109.026V468.312H109.689ZM108.976 467.289C108.976 467.182 109.008 467.091 109.072 467.018C109.139 466.944 109.236 466.907 109.365 466.907C109.491 466.907 109.587 466.944 109.654 467.018C109.723 467.091 109.757 467.182 109.757 467.289C109.757 467.391 109.723 467.479 109.654 467.553C109.587 467.624 109.491 467.66 109.365 467.66C109.236 467.66 109.139 467.624 109.072 467.553C109.008 467.479 108.976 467.391 108.976 467.289ZM112.166 471.576L113.221 468.312H113.896L112.508 472.172H112.066L112.166 471.576ZM111.285 468.312L112.373 471.594L112.447 472.172H112.005L110.607 468.312H111.285ZM115.491 468.312V472.172H114.827V468.312H115.491ZM114.778 467.289C114.778 467.182 114.81 467.091 114.874 467.018C114.94 466.944 115.038 466.907 115.166 466.907C115.292 466.907 115.389 466.944 115.455 467.018C115.524 467.091 115.559 467.182 115.559 467.289C115.559 467.391 115.524 467.479 115.455 467.553C115.389 467.624 115.292 467.66 115.166 467.66C115.038 467.66 114.94 467.624 114.874 467.553C114.81 467.479 114.778 467.391 114.778 467.289ZM118.41 468.312V468.819H116.323V468.312H118.41ZM117.029 467.374H117.689V471.216C117.689 471.347 117.709 471.445 117.75 471.512C117.79 471.579 117.842 471.623 117.907 471.644C117.971 471.665 118.04 471.676 118.114 471.676C118.168 471.676 118.225 471.671 118.285 471.662C118.347 471.65 118.393 471.64 118.424 471.633L118.427 472.172C118.375 472.189 118.306 472.204 118.221 472.218C118.137 472.235 118.036 472.243 117.917 472.243C117.756 472.243 117.607 472.211 117.472 472.147C117.336 472.083 117.228 471.976 117.147 471.826C117.068 471.674 117.029 471.469 117.029 471.212V467.374ZM120.511 471.772L121.585 468.312H122.291L120.743 472.768C120.708 472.863 120.66 472.965 120.601 473.074C120.544 473.186 120.47 473.292 120.379 473.392C120.289 473.492 120.18 473.572 120.051 473.634C119.925 473.699 119.774 473.731 119.598 473.731C119.546 473.731 119.479 473.723 119.399 473.709C119.318 473.695 119.261 473.683 119.227 473.674L119.224 473.139C119.243 473.141 119.273 473.143 119.313 473.146C119.356 473.15 119.386 473.153 119.402 473.153C119.552 473.153 119.679 473.133 119.784 473.092C119.888 473.054 119.976 472.989 120.048 472.896C120.121 472.806 120.184 472.681 120.237 472.521L120.511 471.772ZM119.723 468.312L120.725 471.309L120.897 472.004L120.422 472.247L119.003 468.312H119.723Z" fill="#777777"/>
<path fill-rule="evenodd" clip-rule="evenodd" d="M184.31 451.619L186.031 451.901C186.172 451.924 186.275 452.045 186.275 452.188V453.789C186.275 453.931 186.173 454.052 186.034 454.076L184.311 454.379C184.211 454.724 184.074 455.056 183.901 455.371L184.919 456.785C185.003 456.901 184.99 457.06 184.889 457.161L183.757 458.294C183.657 458.394 183.5 458.408 183.384 458.326L181.956 457.324C181.641 457.5 181.306 457.639 180.957 457.742L180.653 459.457C180.628 459.596 180.507 459.697 180.366 459.697H178.765C178.622 459.697 178.501 459.594 178.478 459.454L178.194 457.748C177.845 457.647 177.509 457.508 177.191 457.333L175.773 458.326C175.657 458.408 175.5 458.394 175.4 458.294L174.268 457.161C174.167 457.06 174.154 456.901 174.237 456.786L175.239 455.385C175.062 455.065 174.922 454.727 174.82 454.377L173.122 454.076C172.983 454.051 172.882 453.931 172.882 453.789V452.188C172.882 452.046 172.985 451.924 173.125 451.901L174.823 451.618C174.925 451.267 175.066 450.93 175.242 450.611L174.252 449.195C174.171 449.08 174.185 448.922 174.285 448.822L175.417 447.691C175.518 447.59 175.676 447.577 175.792 447.66L177.198 448.664C177.514 448.491 177.85 448.354 178.199 448.253L178.477 446.549C178.5 446.408 178.622 446.305 178.765 446.305H180.366C180.508 446.305 180.629 446.407 180.653 446.546L180.953 448.259C181.301 448.36 181.635 448.5 181.953 448.675L183.363 447.661C183.479 447.578 183.637 447.591 183.739 447.692L184.871 448.823C184.971 448.924 184.985 449.081 184.903 449.197L183.899 450.628C184.071 450.942 184.209 451.274 184.31 451.619ZM177.54 453.001C177.54 454.126 178.453 455.039 179.578 455.039C180.704 455.039 181.616 454.126 181.616 453.001C181.616 451.875 180.704 450.963 179.578 450.963C178.453 450.963 177.54 451.875 177.54 453.001Z" fill="#777777"/>
<path d="M168.757 470.859C168.757 470.738 168.738 470.631 168.699 470.538C168.664 470.443 168.6 470.358 168.507 470.281C168.416 470.205 168.29 470.133 168.129 470.064C167.969 469.995 167.767 469.925 167.522 469.853C167.266 469.777 167.034 469.693 166.827 469.6C166.62 469.505 166.443 469.397 166.295 469.276C166.148 469.154 166.035 469.015 165.957 468.858C165.878 468.701 165.839 468.522 165.839 468.32C165.839 468.118 165.88 467.931 165.964 467.76C166.047 467.588 166.166 467.44 166.32 467.314C166.477 467.185 166.664 467.085 166.88 467.014C167.097 466.943 167.338 466.907 167.604 466.907C167.994 466.907 168.325 466.982 168.596 467.132C168.869 467.279 169.078 467.473 169.22 467.713C169.363 467.951 169.434 468.205 169.434 468.477H168.749C168.749 468.282 168.708 468.109 168.625 467.959C168.541 467.807 168.415 467.688 168.246 467.603C168.078 467.515 167.864 467.471 167.604 467.471C167.359 467.471 167.157 467.508 166.998 467.581C166.839 467.655 166.72 467.755 166.641 467.881C166.565 468.007 166.527 468.151 166.527 468.312C166.527 468.422 166.55 468.522 166.595 468.612C166.643 468.7 166.715 468.782 166.813 468.858C166.912 468.934 167.038 469.004 167.191 469.069C167.345 469.133 167.53 469.195 167.744 469.254C168.038 469.337 168.293 469.43 168.507 469.532C168.721 469.635 168.897 469.75 169.035 469.878C169.175 470.004 169.278 470.148 169.345 470.31C169.414 470.469 169.449 470.65 169.449 470.852C169.449 471.064 169.406 471.255 169.32 471.426C169.234 471.598 169.112 471.744 168.953 471.865C168.793 471.986 168.602 472.08 168.378 472.147C168.157 472.211 167.91 472.243 167.637 472.243C167.396 472.243 167.16 472.21 166.927 472.143C166.696 472.077 166.486 471.977 166.295 471.844C166.108 471.711 165.957 471.546 165.842 471.351C165.731 471.154 165.675 470.926 165.675 470.667H166.36C166.36 470.845 166.394 470.998 166.463 471.127C166.532 471.253 166.626 471.357 166.745 471.441C166.866 471.524 167.003 471.586 167.155 471.626C167.31 471.664 167.47 471.683 167.637 471.683C167.877 471.683 168.08 471.65 168.246 471.583C168.413 471.517 168.539 471.422 168.625 471.298C168.713 471.174 168.757 471.028 168.757 470.859ZM172.071 472.243C171.802 472.243 171.559 472.198 171.34 472.108C171.124 472.015 170.937 471.885 170.78 471.719C170.625 471.552 170.506 471.355 170.423 471.127C170.34 470.898 170.298 470.649 170.298 470.378V470.228C170.298 469.914 170.345 469.635 170.437 469.39C170.53 469.142 170.656 468.933 170.816 468.762C170.975 468.591 171.156 468.461 171.358 468.373C171.56 468.285 171.769 468.241 171.986 468.241C172.261 468.241 172.499 468.289 172.699 468.384C172.901 468.479 173.066 468.612 173.195 468.783C173.323 468.952 173.418 469.152 173.48 469.383C173.542 469.611 173.573 469.861 173.573 470.132V470.428H170.691V469.889H172.913V469.839C172.903 469.668 172.868 469.501 172.806 469.34C172.746 469.178 172.651 469.045 172.521 468.94C172.39 468.836 172.211 468.783 171.986 468.783C171.836 468.783 171.698 468.815 171.572 468.88C171.446 468.941 171.338 469.034 171.247 469.158C171.157 469.282 171.087 469.433 171.037 469.611C170.987 469.789 170.962 469.995 170.962 470.228V470.378C170.962 470.561 170.987 470.733 171.037 470.895C171.089 471.054 171.164 471.195 171.261 471.316C171.361 471.437 171.481 471.532 171.622 471.601C171.764 471.67 171.926 471.705 172.107 471.705C172.34 471.705 172.537 471.657 172.699 471.562C172.861 471.467 173.002 471.34 173.123 471.18L173.523 471.498C173.44 471.624 173.334 471.744 173.205 471.858C173.077 471.972 172.919 472.065 172.731 472.136C172.546 472.208 172.326 472.243 172.071 472.243ZM176.203 468.312V468.819H174.116V468.312H176.203ZM174.822 467.374H175.482V471.216C175.482 471.347 175.502 471.445 175.543 471.512C175.583 471.579 175.635 471.623 175.7 471.644C175.764 471.665 175.833 471.676 175.906 471.676C175.961 471.676 176.018 471.671 176.078 471.662C176.14 471.65 176.186 471.64 176.217 471.633L176.22 472.172C176.168 472.189 176.099 472.204 176.013 472.218C175.93 472.235 175.829 472.243 175.71 472.243C175.549 472.243 175.4 472.211 175.264 472.147C175.129 472.083 175.021 471.976 174.94 471.826C174.861 471.674 174.822 471.469 174.822 471.212V467.374ZM178.836 468.312V468.819H176.749V468.312H178.836ZM177.455 467.374H178.115V471.216C178.115 471.347 178.136 471.445 178.176 471.512C178.216 471.579 178.269 471.623 178.333 471.644C178.397 471.665 178.466 471.676 178.54 471.676C178.594 471.676 178.652 471.671 178.711 471.662C178.773 471.65 178.819 471.64 178.85 471.633L178.854 472.172C178.801 472.189 178.732 472.204 178.647 472.218C178.564 472.235 178.463 472.243 178.344 472.243C178.182 472.243 178.033 472.211 177.898 472.147C177.762 472.083 177.654 471.976 177.573 471.826C177.495 471.674 177.455 471.469 177.455 471.212V467.374ZM180.57 468.312V472.172H179.907V468.312H180.57ZM179.857 467.289C179.857 467.182 179.889 467.091 179.953 467.018C180.02 466.944 180.117 466.907 180.246 466.907C180.372 466.907 180.468 466.944 180.535 467.018C180.604 467.091 180.638 467.182 180.638 467.289C180.638 467.391 180.604 467.479 180.535 467.553C180.468 467.624 180.372 467.66 180.246 467.66C180.117 467.66 180.02 467.624 179.953 467.553C179.889 467.479 179.857 467.391 179.857 467.289ZM182.533 469.136V472.172H181.873V468.312H182.497L182.533 469.136ZM182.376 470.096L182.101 470.085C182.104 469.821 182.143 469.578 182.219 469.354C182.295 469.128 182.402 468.932 182.54 468.765C182.678 468.599 182.842 468.471 183.032 468.38C183.225 468.288 183.438 468.241 183.671 468.241C183.861 468.241 184.032 468.267 184.185 468.32C184.337 468.37 184.466 468.45 184.573 468.562C184.683 468.674 184.766 468.819 184.823 468.997C184.88 469.173 184.909 469.389 184.909 469.643V472.172H184.245V469.636C184.245 469.434 184.215 469.272 184.156 469.151C184.097 469.027 184.01 468.938 183.896 468.883C183.781 468.826 183.641 468.798 183.475 468.798C183.311 468.798 183.161 468.832 183.025 468.901C182.892 468.97 182.777 469.065 182.679 469.186C182.584 469.308 182.509 469.447 182.455 469.604C182.402 469.758 182.376 469.922 182.376 470.096ZM188.655 468.312H189.254V472.09C189.254 472.43 189.185 472.72 189.047 472.96C188.909 473.2 188.717 473.382 188.469 473.506C188.224 473.632 187.941 473.695 187.62 473.695C187.487 473.695 187.33 473.674 187.15 473.631C186.971 473.59 186.795 473.52 186.622 473.42C186.45 473.323 186.307 473.191 186.19 473.024L186.536 472.632C186.698 472.827 186.867 472.963 187.043 473.039C187.221 473.115 187.397 473.153 187.57 473.153C187.78 473.153 187.96 473.114 188.113 473.035C188.265 472.957 188.383 472.84 188.466 472.686C188.551 472.533 188.594 472.345 188.594 472.122V469.161L188.655 468.312ZM185.997 470.285V470.21C185.997 469.915 186.032 469.648 186.101 469.408C186.172 469.165 186.273 468.957 186.404 468.783C186.537 468.61 186.698 468.477 186.886 468.384C187.073 468.289 187.285 468.241 187.521 468.241C187.763 468.241 187.975 468.284 188.155 468.37C188.339 468.453 188.493 468.575 188.619 468.737C188.748 468.896 188.849 469.089 188.922 469.315C188.996 469.541 189.047 469.796 189.076 470.082V470.41C189.05 470.693 188.998 470.947 188.922 471.173C188.849 471.399 188.748 471.592 188.619 471.751C188.493 471.91 188.339 472.033 188.155 472.118C187.972 472.202 187.758 472.243 187.513 472.243C187.283 472.243 187.073 472.194 186.886 472.097C186.7 471.999 186.541 471.863 186.408 471.687C186.274 471.511 186.172 471.304 186.101 471.066C186.032 470.826 185.997 470.566 185.997 470.285ZM186.657 470.21V470.285C186.657 470.478 186.676 470.658 186.714 470.827C186.755 470.996 186.815 471.145 186.896 471.273C186.98 471.401 187.085 471.502 187.214 471.576C187.342 471.648 187.496 471.683 187.674 471.683C187.893 471.683 188.073 471.637 188.216 471.544C188.359 471.451 188.472 471.329 188.555 471.177C188.641 471.025 188.707 470.859 188.755 470.681V469.821C188.729 469.691 188.688 469.564 188.633 469.443C188.581 469.32 188.512 469.21 188.427 469.115C188.343 469.018 188.24 468.94 188.116 468.883C187.993 468.826 187.847 468.798 187.681 468.798C187.5 468.798 187.345 468.836 187.214 468.912C187.085 468.985 186.98 469.088 186.896 469.218C186.815 469.347 186.755 469.497 186.714 469.668C186.676 469.837 186.657 470.017 186.657 470.21ZM192.747 471.148C192.747 471.053 192.726 470.965 192.683 470.884C192.642 470.801 192.558 470.726 192.43 470.66C192.304 470.591 192.113 470.531 191.859 470.481C191.645 470.436 191.451 470.382 191.277 470.321C191.106 470.259 190.96 470.184 190.839 470.096C190.72 470.008 190.628 469.905 190.564 469.786C190.5 469.667 190.468 469.528 190.468 469.368C190.468 469.216 190.501 469.072 190.568 468.937C190.637 468.801 190.733 468.681 190.857 468.576C190.983 468.472 191.134 468.39 191.31 468.33C191.485 468.271 191.682 468.241 191.898 468.241C192.207 468.241 192.471 468.296 192.69 468.405C192.909 468.515 193.076 468.661 193.193 468.844C193.309 469.025 193.368 469.226 193.368 469.447H192.708C192.708 469.34 192.676 469.236 192.611 469.136C192.55 469.034 192.458 468.95 192.337 468.883C192.218 468.817 192.072 468.783 191.898 468.783C191.715 468.783 191.566 468.812 191.452 468.869C191.34 468.924 191.258 468.994 191.206 469.079C191.156 469.165 191.131 469.255 191.131 469.35C191.131 469.422 191.143 469.486 191.167 469.543C191.193 469.598 191.238 469.649 191.302 469.696C191.367 469.742 191.457 469.784 191.573 469.825C191.69 469.865 191.839 469.906 192.019 469.946C192.336 470.017 192.596 470.103 192.8 470.203C193.005 470.303 193.157 470.425 193.257 470.57C193.357 470.715 193.407 470.891 193.407 471.098C193.407 471.267 193.371 471.422 193.3 471.562C193.231 471.702 193.13 471.824 192.997 471.926C192.866 472.026 192.709 472.104 192.526 472.161C192.345 472.216 192.142 472.243 191.916 472.243C191.576 472.243 191.288 472.183 191.053 472.061C190.817 471.94 190.639 471.783 190.518 471.59C190.396 471.398 190.336 471.195 190.336 470.981H190.999C191.009 471.161 191.061 471.305 191.156 471.412C191.251 471.517 191.368 471.592 191.506 471.637C191.644 471.68 191.78 471.701 191.916 471.701C192.097 471.701 192.248 471.677 192.369 471.63C192.493 471.582 192.586 471.517 192.651 471.434C192.715 471.35 192.747 471.255 192.747 471.148Z" fill="#777777"/>
<rect x="14.0015" y="394.469" width="70.9194" height="32.045" rx="3.04375" fill="#F7931A"/>
<path d="M31.2649 407.068H33.5572C34.0772 407.068 34.5163 407.147 34.8746 407.305C35.2361 407.464 35.5103 407.699 35.6974 408.009C35.8876 408.317 35.9827 408.696 35.9827 409.146C35.9827 409.463 35.9177 409.753 35.7877 410.016C35.6609 410.276 35.477 410.498 35.2361 410.682C34.9983 410.863 34.7129 410.998 34.38 411.086L34.1232 411.186H31.9688L31.9593 410.44H33.5858C33.9155 410.44 34.1898 410.382 34.4085 410.268C34.6273 410.151 34.7922 409.994 34.9032 409.798C35.0141 409.601 35.0696 409.384 35.0696 409.146C35.0696 408.88 35.0173 408.647 34.9127 408.447C34.808 408.247 34.6432 408.093 34.4181 407.986C34.1961 407.875 33.9092 407.819 33.5572 407.819H32.1828V413.992H31.2649V407.068ZM35.3122 413.992L33.6286 410.853L34.5845 410.849L36.2919 413.935V413.992H35.3122ZM39.5734 414.087C39.2151 414.087 38.8901 414.027 38.5985 413.907C38.3099 413.783 38.061 413.61 37.8518 413.388C37.6457 413.166 37.4872 412.903 37.3762 412.599C37.2652 412.294 37.2097 411.961 37.2097 411.6V411.4C37.2097 410.982 37.2716 410.609 37.3952 410.283C37.5189 409.953 37.6869 409.674 37.8993 409.446C38.1118 409.217 38.3527 409.045 38.6222 408.927C38.8917 408.81 39.1707 408.751 39.4593 408.751C39.8271 408.751 40.1441 408.815 40.4104 408.941C40.6799 409.068 40.9003 409.246 41.0715 409.474C41.2427 409.699 41.3695 409.966 41.452 410.273C41.5344 410.577 41.5756 410.91 41.5756 411.272V411.667H37.7329V410.948H40.6958V410.882C40.6831 410.654 40.6356 410.432 40.5531 410.216C40.4739 410 40.347 409.823 40.1726 409.683C39.9983 409.544 39.7605 409.474 39.4593 409.474C39.2595 409.474 39.0756 409.517 38.9076 409.603C38.7395 409.685 38.5953 409.809 38.4748 409.973C38.3543 410.138 38.2608 410.34 38.1942 410.577C38.1276 410.815 38.0943 411.09 38.0943 411.4V411.6C38.0943 411.844 38.1276 412.074 38.1942 412.29C38.264 412.502 38.3638 412.689 38.4938 412.851C38.627 413.012 38.7871 413.139 38.9742 413.231C39.1644 413.323 39.38 413.369 39.621 413.369C39.9317 413.369 40.1948 413.306 40.4104 413.179C40.626 413.052 40.8147 412.882 40.9764 412.67L41.509 413.093C41.3981 413.261 41.257 413.421 41.0858 413.574C40.9146 413.726 40.7037 413.85 40.4532 413.945C40.2059 414.04 39.9127 414.087 39.5734 414.087ZM46.146 415.971V409.836L46.2221 408.846H47.0306V415.971H46.146ZM42.6885 411.476V411.376C42.6885 410.983 42.7345 410.627 42.8264 410.306C42.9184 409.983 43.0531 409.706 43.2307 409.474C43.4082 409.243 43.6222 409.065 43.8727 408.941C44.1264 408.815 44.4149 408.751 44.7383 408.751C45.0617 408.751 45.3454 408.808 45.5896 408.922C45.8369 409.033 46.0461 409.197 46.2173 409.412C46.3917 409.625 46.5296 409.882 46.6311 410.183C46.7326 410.484 46.8023 410.825 46.8404 411.205V411.643C46.8055 412.02 46.7373 412.359 46.6359 412.661C46.5344 412.962 46.3965 413.219 46.2221 413.431C46.0509 413.643 45.84 413.807 45.5896 413.921C45.3423 414.032 45.0553 414.087 44.7288 414.087C44.4117 414.087 44.1264 414.022 43.8727 413.892C43.6222 413.762 43.4082 413.58 43.2307 413.345C43.0563 413.111 42.9215 412.835 42.8264 412.518C42.7345 412.198 42.6885 411.85 42.6885 411.476ZM43.5731 411.376V411.476C43.5731 411.733 43.6 411.976 43.6539 412.204C43.7078 412.429 43.7903 412.629 43.9012 412.803C44.0154 412.978 44.1581 413.116 44.3293 413.217C44.5036 413.315 44.7097 413.364 44.9475 413.364C45.2392 413.364 45.4818 413.301 45.6752 413.174C45.8718 413.047 46.0287 412.881 46.146 412.675C46.2633 412.466 46.3537 412.242 46.4171 412.004V410.858C46.3822 410.684 46.3267 410.514 46.2506 410.349C46.1777 410.184 46.0826 410.037 45.9653 409.907C45.848 409.774 45.7053 409.669 45.5373 409.593C45.3724 409.514 45.179 409.474 44.957 409.474C44.7161 409.474 44.5084 409.525 44.334 409.626C44.1596 409.728 44.0154 409.867 43.9012 410.045C43.7903 410.219 43.7078 410.421 43.6539 410.649C43.6 410.877 43.5731 411.12 43.5731 411.376ZM51.8958 412.803V408.846H52.7804V413.992H51.9386L51.8958 412.803ZM52.0623 411.719L52.4285 411.709C52.4285 412.052 52.392 412.369 52.3191 412.661C52.2494 412.949 52.1352 413.2 51.9767 413.412C51.8182 413.624 51.6105 413.791 51.3537 413.911C51.0969 414.029 50.7846 414.087 50.4168 414.087C50.1663 414.087 49.9364 414.051 49.7272 413.978C49.5211 413.905 49.3435 413.792 49.1945 413.64C49.0455 413.488 48.9298 413.29 48.8473 413.046C48.7681 412.802 48.7284 412.508 48.7284 412.166V408.846H49.6083V412.175C49.6083 412.407 49.6336 412.599 49.6844 412.751C49.7383 412.9 49.8096 413.019 49.8984 413.108C49.9903 413.193 50.0918 413.253 50.2028 413.288C50.3169 413.323 50.4342 413.341 50.5547 413.341C50.9288 413.341 51.2253 413.269 51.444 413.127C51.6628 412.981 51.8197 412.786 51.9149 412.542C52.0131 412.294 52.0623 412.02 52.0623 411.719ZM56.5613 414.087C56.2031 414.087 55.8781 414.027 55.5864 413.907C55.2979 413.783 55.049 413.61 54.8397 413.388C54.6336 413.166 54.4751 412.903 54.3641 412.599C54.2532 412.294 54.1977 411.961 54.1977 411.6V411.4C54.1977 410.982 54.2595 410.609 54.3832 410.283C54.5068 409.953 54.6748 409.674 54.8873 409.446C55.0997 409.217 55.3407 409.045 55.6102 408.927C55.8797 408.81 56.1587 408.751 56.4472 408.751C56.815 408.751 57.132 408.815 57.3984 408.941C57.6679 409.068 57.8882 409.246 58.0594 409.474C58.2306 409.699 58.3575 409.966 58.4399 410.273C58.5223 410.577 58.5636 410.91 58.5636 411.272V411.667H54.7208V410.948H57.6837V410.882C57.671 410.654 57.6235 410.432 57.541 410.216C57.4618 410 57.335 409.823 57.1606 409.683C56.9862 409.544 56.7484 409.474 56.4472 409.474C56.2475 409.474 56.0636 409.517 55.8955 409.603C55.7275 409.685 55.5832 409.809 55.4627 409.973C55.3423 410.138 55.2487 410.34 55.1821 410.577C55.1156 410.815 55.0823 411.09 55.0823 411.4V411.6C55.0823 411.844 55.1156 412.074 55.1821 412.29C55.2519 412.502 55.3518 412.689 55.4818 412.851C55.6149 413.012 55.775 413.139 55.9621 413.231C56.1523 413.323 56.3679 413.369 56.6089 413.369C56.9196 413.369 57.1828 413.306 57.3984 413.179C57.614 413.052 57.8026 412.882 57.9643 412.67L58.497 413.093C58.386 413.261 58.2449 413.421 58.0737 413.574C57.9025 413.726 57.6916 413.85 57.4412 413.945C57.1939 414.04 56.9006 414.087 56.5613 414.087ZM62.8914 412.627C62.8914 412.5 62.8629 412.383 62.8058 412.275C62.7519 412.164 62.6393 412.064 62.4681 411.976C62.3001 411.884 62.0464 411.804 61.7072 411.738C61.4218 411.678 61.1634 411.606 60.932 411.524C60.7037 411.441 60.5087 411.342 60.347 411.224C60.1885 411.107 60.0664 410.969 59.9808 410.811C59.8952 410.652 59.8524 410.467 59.8524 410.254C59.8524 410.051 59.8968 409.859 59.9856 409.679C60.0775 409.498 60.2059 409.338 60.3708 409.198C60.5388 409.059 60.7402 408.949 60.9748 408.87C61.2094 408.791 61.471 408.751 61.7595 408.751C62.1717 408.751 62.5236 408.824 62.8153 408.97C63.107 409.116 63.3305 409.311 63.4859 409.555C63.6412 409.796 63.7189 410.064 63.7189 410.359H62.8391C62.8391 410.216 62.7963 410.078 62.7107 409.945C62.6282 409.809 62.5062 409.696 62.3445 409.607C62.1859 409.519 61.9909 409.474 61.7595 409.474C61.5154 409.474 61.3172 409.512 61.165 409.588C61.016 409.661 60.9066 409.755 60.8369 409.869C60.7703 409.983 60.737 410.103 60.737 410.23C60.737 410.325 60.7528 410.411 60.7845 410.487C60.8194 410.56 60.8797 410.628 60.9653 410.692C61.0509 410.752 61.1714 410.809 61.3267 410.863C61.4821 410.917 61.6802 410.971 61.9212 411.025C62.3429 411.12 62.6901 411.234 62.9627 411.367C63.2354 411.5 63.4383 411.663 63.5715 411.857C63.7046 412.05 63.7712 412.285 63.7712 412.561C63.7712 412.786 63.7237 412.992 63.6285 413.179C63.5366 413.366 63.4018 413.528 63.2243 413.664C63.0499 413.797 62.8407 413.902 62.5965 413.978C62.3556 414.051 62.0845 414.087 61.7833 414.087C61.3299 414.087 60.9462 414.006 60.6324 413.845C60.3185 413.683 60.0807 413.474 59.919 413.217C59.7573 412.96 59.6764 412.689 59.6764 412.404H60.561C60.5737 412.645 60.6435 412.837 60.7703 412.979C60.8971 413.119 61.0525 413.219 61.2363 413.279C61.4202 413.336 61.6025 413.364 61.7833 413.364C62.0242 413.364 62.2256 413.333 62.3873 413.269C62.5521 413.206 62.6774 413.119 62.763 413.008C62.8486 412.897 62.8914 412.77 62.8914 412.627ZM67.3857 408.846V409.522H64.6035V408.846H67.3857ZM65.5452 407.596H66.425V412.718C66.425 412.892 66.4519 413.024 66.5058 413.112C66.5597 413.201 66.6295 413.26 66.7151 413.288C66.8007 413.317 66.8926 413.331 66.9909 413.331C67.0639 413.331 67.14 413.325 67.2192 413.312C67.3017 413.296 67.3635 413.284 67.4047 413.274L67.4095 413.992C67.3397 414.014 67.2478 414.035 67.1336 414.054C67.0226 414.076 66.8879 414.087 66.7294 414.087C66.5138 414.087 66.3156 414.045 66.1349 413.959C65.9542 413.873 65.8099 413.731 65.7021 413.531C65.5975 413.328 65.5452 413.055 65.5452 412.713V407.596Z" fill="white"/>
<rect x="94.052" y="394.469" width="31.655" height="31.655" rx="3.44076" fill="#F7931A"/>
<rect x="109.535" y="409.953" width="0.688152" height="0.688152" fill="white" stroke="white" stroke-width="0.688152"/>
<rect x="109.535" y="407.203" width="0.688152" height="0.688152" fill="white" stroke="white" stroke-width="0.688152"/>
<rect x="106.783" y="409.953" width="0.688152" height="0.688152" fill="white" stroke="white" stroke-width="0.688152"/>
<rect x="104.03" y="409.953" width="0.688152" height="0.688152" fill="white" stroke="white" stroke-width="0.688152"/>
<rect x="109.535" y="404.45" width="0.688152" height="0.688152" fill="white" stroke="white" stroke-width="0.688152"/>
<rect x="109.535" y="412.707" width="0.688152" height="0.688152" fill="white" stroke="white" stroke-width="0.688152"/>
<rect x="109.535" y="415.461" width="0.688152" height="0.688152" fill="white" stroke="white" stroke-width="0.688152"/>
<rect x="112.288" y="409.953" width="0.688152" height="0.688152" fill="white" stroke="white" stroke-width="0.688152"/>
<rect x="112.288" y="412.707" width="0.688152" height="0.688152" fill="white" stroke="white" stroke-width="0.688152"/>
<rect x="112.288" y="415.461" width="0.688152" height="0.688152" fill="white" stroke="white" stroke-width="0.688152"/>
<rect x="115.041" y="409.953" width="0.688152" height="0.688152" fill="white" stroke="white" stroke-width="0.688152"/>
<rect x="115.041" y="412.707" width="0.688152" height="0.688152" fill="white" stroke="white" stroke-width="0.688152"/>
<rect x="115.041" y="415.461" width="0.688152" height="0.688152" fill="white" stroke="white" stroke-width="0.688152"/>
<mask id="path-29-inside-1_267_11217" fill="white">
<rect x="103.686" y="404.105" width="4.12891" height="4.12891" rx="0.688152"/>
</mask>
<rect x="103.686" y="404.105" width="4.12891" height="4.12891" rx="0.688152" stroke="white" stroke-width="2.75261" mask="url(#path-29-inside-1_267_11217)"/>
<mask id="path-30-inside-2_267_11217" fill="white">
<rect x="103.686" y="412.363" width="4.12891" height="4.12891" rx="0.688152"/>
</mask>
<rect x="103.686" y="412.363" width="4.12891" height="4.12891" rx="0.688152" stroke="white" stroke-width="2.75261" mask="url(#path-30-inside-2_267_11217)"/>
<mask id="path-31-inside-3_267_11217" fill="white">
<rect x="111.944" y="404.105" width="4.12891" height="4.12891" rx="0.688152"/>
</mask>
<rect x="111.944" y="404.105" width="4.12891" height="4.12891" rx="0.688152" stroke="white" stroke-width="2.75261" mask="url(#path-31-inside-3_267_11217)"/>
<rect x="134.838" y="394.469" width="70.9194" height="32.045" rx="3.04375" fill="#F7931A"/>
<path d="M165.156 411.277H163.306V410.53H165.156C165.514 410.53 165.804 410.473 166.026 410.359C166.248 410.245 166.41 410.086 166.511 409.883C166.616 409.68 166.668 409.449 166.668 409.189C166.668 408.951 166.616 408.727 166.511 408.518C166.41 408.309 166.248 408.141 166.026 408.014C165.804 407.884 165.514 407.819 165.156 407.819H163.52V413.992H162.602V407.068H165.156C165.679 407.068 166.121 407.158 166.482 407.339C166.844 407.519 167.118 407.77 167.305 408.09C167.492 408.407 167.586 408.77 167.586 409.179C167.586 409.623 167.492 410.002 167.305 410.316C167.118 410.63 166.844 410.869 166.482 411.034C166.121 411.196 165.679 411.277 165.156 411.277ZM171.895 413.112V410.463C171.895 410.26 171.853 410.084 171.771 409.935C171.692 409.783 171.571 409.666 171.41 409.584C171.248 409.501 171.048 409.46 170.81 409.46C170.588 409.46 170.393 409.498 170.225 409.574C170.06 409.65 169.93 409.75 169.835 409.874C169.743 409.997 169.697 410.13 169.697 410.273H168.818C168.818 410.089 168.865 409.907 168.96 409.726C169.055 409.545 169.192 409.382 169.369 409.236C169.55 409.087 169.766 408.97 170.016 408.884C170.27 408.796 170.552 408.751 170.863 408.751C171.237 408.751 171.567 408.815 171.852 408.941C172.14 409.068 172.365 409.26 172.527 409.517C172.692 409.771 172.774 410.089 172.774 410.473V412.87C172.774 413.041 172.789 413.223 172.817 413.417C172.849 413.61 172.895 413.777 172.955 413.916V413.992H172.037C171.993 413.891 171.958 413.756 171.933 413.588C171.907 413.417 171.895 413.258 171.895 413.112ZM172.047 410.872L172.056 411.491H171.167C170.917 411.491 170.693 411.511 170.496 411.552C170.3 411.59 170.135 411.649 170.002 411.728C169.869 411.808 169.767 411.908 169.697 412.028C169.628 412.145 169.593 412.283 169.593 412.442C169.593 412.603 169.629 412.751 169.702 412.884C169.775 413.017 169.885 413.123 170.03 413.203C170.179 413.279 170.362 413.317 170.577 413.317C170.847 413.317 171.085 413.26 171.291 413.146C171.497 413.032 171.66 412.892 171.781 412.727C171.904 412.562 171.971 412.402 171.98 412.247L172.356 412.67C172.334 412.803 172.274 412.951 172.175 413.112C172.077 413.274 171.945 413.429 171.781 413.578C171.619 413.724 171.425 413.846 171.2 413.945C170.978 414.04 170.728 414.087 170.449 414.087C170.1 414.087 169.794 414.019 169.531 413.883C169.271 413.746 169.068 413.564 168.922 413.336C168.78 413.104 168.708 412.846 168.708 412.561C168.708 412.285 168.762 412.042 168.87 411.833C168.978 411.621 169.133 411.445 169.336 411.305C169.539 411.162 169.783 411.055 170.068 410.982C170.354 410.909 170.672 410.872 171.024 410.872H172.047ZM175.833 413.46L177.264 408.846H178.206L176.142 414.786C176.094 414.913 176.031 415.05 175.951 415.195C175.875 415.344 175.777 415.486 175.657 415.619C175.536 415.752 175.39 415.86 175.219 415.942C175.051 416.028 174.85 416.07 174.615 416.07C174.545 416.07 174.456 416.061 174.349 416.042C174.241 416.023 174.165 416.007 174.12 415.994L174.116 415.281C174.141 415.284 174.181 415.287 174.235 415.291C174.292 415.297 174.331 415.3 174.353 415.3C174.553 415.3 174.723 415.273 174.862 415.219C175.002 415.168 175.119 415.081 175.214 414.958C175.313 414.837 175.397 414.671 175.466 414.458L175.833 413.46ZM174.781 408.846L176.118 412.841L176.346 413.769L175.714 414.092L173.821 408.846H174.781Z" fill="white"/>
<path d="M26.6591 189.052V199.496H25.3393V190.7L22.6784 191.67V190.479L26.4522 189.052H26.6591Z" fill="black"/>
<path d="M113.135 198.412V199.496H106.336V198.547L109.739 194.759C110.158 194.293 110.481 193.898 110.709 193.575C110.942 193.247 111.104 192.954 111.194 192.698C111.29 192.436 111.337 192.17 111.337 191.899C111.337 191.556 111.266 191.247 111.123 190.971C110.985 190.691 110.781 190.467 110.51 190.301C110.238 190.134 109.91 190.051 109.525 190.051C109.064 190.051 108.679 190.141 108.369 190.322C108.065 190.498 107.837 190.745 107.685 191.064C107.532 191.383 107.456 191.749 107.456 192.163H106.137C106.137 191.578 106.265 191.043 106.522 190.557C106.779 190.072 107.159 189.687 107.663 189.402C108.167 189.112 108.788 188.967 109.525 188.967C110.181 188.967 110.743 189.083 111.209 189.316C111.675 189.544 112.031 189.868 112.279 190.286C112.531 190.7 112.657 191.185 112.657 191.742C112.657 192.046 112.605 192.355 112.5 192.669C112.4 192.978 112.26 193.287 112.079 193.596C111.903 193.906 111.696 194.21 111.458 194.51C111.225 194.809 110.976 195.104 110.709 195.394L107.927 198.412H113.135Z" fill="black"/>
<path d="M192.263 193.654H193.205C193.666 193.654 194.046 193.577 194.346 193.425C194.65 193.268 194.876 193.057 195.024 192.79C195.176 192.519 195.252 192.215 195.252 191.877C195.252 191.478 195.185 191.142 195.052 190.871C194.919 190.6 194.719 190.396 194.453 190.258C194.187 190.12 193.849 190.051 193.44 190.051C193.069 190.051 192.741 190.125 192.455 190.272C192.175 190.415 191.954 190.619 191.792 190.886C191.635 191.152 191.557 191.466 191.557 191.827H190.237C190.237 191.299 190.37 190.819 190.636 190.386C190.903 189.953 191.276 189.609 191.756 189.352C192.241 189.095 192.803 188.967 193.44 188.967C194.068 188.967 194.617 189.078 195.088 189.302C195.559 189.521 195.925 189.849 196.186 190.286C196.448 190.719 196.579 191.259 196.579 191.906C196.579 192.167 196.517 192.448 196.393 192.748C196.274 193.042 196.087 193.318 195.83 193.575C195.578 193.832 195.25 194.044 194.845 194.21C194.441 194.372 193.956 194.453 193.39 194.453H192.263V193.654ZM192.263 194.738V193.946H193.39C194.051 193.946 194.598 194.024 195.031 194.181C195.464 194.338 195.804 194.548 196.051 194.809C196.303 195.071 196.479 195.358 196.579 195.672C196.683 195.982 196.736 196.291 196.736 196.6C196.736 197.085 196.653 197.515 196.486 197.891C196.324 198.267 196.094 198.585 195.794 198.847C195.499 199.108 195.152 199.306 194.753 199.439C194.353 199.572 193.918 199.639 193.447 199.639C192.995 199.639 192.57 199.575 192.17 199.446C191.775 199.318 191.426 199.132 191.121 198.89C190.817 198.642 190.579 198.34 190.408 197.984C190.237 197.622 190.151 197.211 190.151 196.75H191.471C191.471 197.111 191.549 197.427 191.706 197.698C191.868 197.969 192.096 198.181 192.391 198.333C192.691 198.481 193.043 198.554 193.447 198.554C193.851 198.554 194.198 198.485 194.489 198.348C194.783 198.205 195.009 197.991 195.166 197.706C195.328 197.42 195.409 197.061 195.409 196.628C195.409 196.196 195.318 195.841 195.138 195.565C194.957 195.285 194.7 195.078 194.367 194.945C194.039 194.807 193.652 194.738 193.205 194.738H192.263Z" fill="black"/>
<path d="M29.3414 250.18V251.265H21.8366V250.487L26.4879 243.289H27.5651L26.4094 245.372L23.3347 250.18H29.3414ZM27.8932 243.289V253.676H26.5735V243.289H27.8932Z" fill="black"/>
<path d="M107.998 248.732L106.943 248.461L107.463 243.289H112.792V244.509H108.583L108.27 247.334C108.46 247.224 108.7 247.122 108.99 247.027C109.285 246.932 109.623 246.884 110.003 246.884C110.483 246.884 110.914 246.968 111.294 247.134C111.675 247.296 111.998 247.529 112.264 247.833C112.536 248.138 112.742 248.504 112.885 248.932C113.028 249.36 113.099 249.838 113.099 250.366C113.099 250.865 113.03 251.324 112.892 251.743C112.759 252.161 112.557 252.527 112.286 252.841C112.015 253.15 111.672 253.39 111.259 253.562C110.85 253.733 110.367 253.818 109.81 253.818C109.392 253.818 108.995 253.761 108.619 253.647C108.248 253.528 107.915 253.35 107.62 253.112C107.33 252.87 107.092 252.57 106.907 252.213C106.726 251.852 106.612 251.429 106.565 250.944H107.82C107.877 251.334 107.991 251.662 108.163 251.928C108.334 252.194 108.557 252.396 108.833 252.534C109.114 252.668 109.439 252.734 109.81 252.734C110.124 252.734 110.403 252.679 110.645 252.57C110.888 252.461 111.092 252.304 111.259 252.099C111.425 251.895 111.551 251.647 111.637 251.357C111.727 251.067 111.772 250.741 111.772 250.38C111.772 250.052 111.727 249.747 111.637 249.467C111.546 249.186 111.411 248.941 111.23 248.732C111.054 248.523 110.838 248.361 110.581 248.247C110.324 248.128 110.029 248.069 109.696 248.069C109.254 248.069 108.919 248.128 108.69 248.247C108.467 248.366 108.236 248.528 107.998 248.732Z" fill="black"/>
<path d="M195.402 243.275H195.516V244.395H195.402C194.703 244.395 194.118 244.509 193.647 244.737C193.176 244.961 192.803 245.263 192.527 245.643C192.251 246.019 192.051 246.442 191.928 246.913C191.809 247.384 191.749 247.862 191.749 248.347V249.873C191.749 250.335 191.804 250.744 191.913 251.1C192.023 251.452 192.172 251.75 192.363 251.992C192.553 252.235 192.767 252.418 193.005 252.542C193.247 252.665 193.499 252.727 193.761 252.727C194.065 252.727 194.336 252.67 194.574 252.556C194.812 252.437 195.012 252.273 195.173 252.064C195.34 251.85 195.466 251.597 195.552 251.307C195.637 251.017 195.68 250.699 195.68 250.351C195.68 250.042 195.642 249.745 195.566 249.46C195.49 249.17 195.373 248.913 195.216 248.689C195.059 248.461 194.862 248.283 194.624 248.154C194.391 248.021 194.113 247.954 193.789 247.954C193.423 247.954 193.081 248.045 192.762 248.226C192.448 248.402 192.189 248.635 191.985 248.925C191.785 249.21 191.671 249.522 191.642 249.859L190.943 249.852C191.01 249.319 191.133 248.865 191.314 248.49C191.5 248.109 191.728 247.8 191.999 247.562C192.275 247.32 192.581 247.144 192.919 247.034C193.262 246.92 193.623 246.863 194.004 246.863C194.522 246.863 194.969 246.961 195.345 247.155C195.72 247.35 196.029 247.612 196.272 247.94C196.515 248.264 196.693 248.63 196.807 249.039C196.926 249.443 196.985 249.859 196.985 250.287C196.985 250.777 196.916 251.236 196.779 251.664C196.641 252.092 196.434 252.468 196.158 252.791C195.887 253.115 195.552 253.367 195.152 253.547C194.753 253.728 194.289 253.818 193.761 253.818C193.2 253.818 192.71 253.704 192.291 253.476C191.873 253.243 191.526 252.934 191.25 252.549C190.974 252.163 190.767 251.735 190.629 251.265C190.491 250.794 190.422 250.316 190.422 249.831V249.21C190.422 248.478 190.496 247.759 190.643 247.056C190.791 246.352 191.045 245.714 191.407 245.144C191.773 244.573 192.28 244.119 192.926 243.781C193.573 243.444 194.398 243.275 195.402 243.275Z" fill="black"/>
<path d="M29.0346 297.469V298.211L24.7329 307.855H23.3419L27.6364 298.553H22.015V297.469H29.0346Z" fill="black"/>
<path d="M112.878 305.045C112.878 305.677 112.731 306.215 112.436 306.657C112.146 307.095 111.751 307.427 111.251 307.656C110.757 307.884 110.198 307.998 109.575 307.998C108.952 307.998 108.391 307.884 107.891 307.656C107.392 307.427 106.997 307.095 106.707 306.657C106.417 306.215 106.272 305.677 106.272 305.045C106.272 304.631 106.351 304.253 106.508 303.91C106.669 303.563 106.895 303.261 107.185 303.004C107.48 302.748 107.827 302.55 108.227 302.412C108.631 302.27 109.076 302.198 109.561 302.198C110.198 302.198 110.766 302.322 111.266 302.569C111.765 302.812 112.157 303.147 112.443 303.575C112.733 304.003 112.878 304.493 112.878 305.045ZM111.551 305.016C111.551 304.631 111.468 304.291 111.301 303.996C111.135 303.696 110.902 303.463 110.602 303.297C110.303 303.131 109.956 303.047 109.561 303.047C109.157 303.047 108.807 303.131 108.512 303.297C108.222 303.463 107.996 303.696 107.834 303.996C107.673 304.291 107.592 304.631 107.592 305.016C107.592 305.416 107.67 305.758 107.827 306.043C107.989 306.324 108.217 306.54 108.512 306.693C108.812 306.84 109.166 306.914 109.575 306.914C109.984 306.914 110.336 306.84 110.631 306.693C110.926 306.54 111.152 306.324 111.309 306.043C111.47 305.758 111.551 305.416 111.551 305.016ZM112.635 300.172C112.635 300.676 112.502 301.131 112.236 301.535C111.97 301.939 111.606 302.258 111.144 302.491C110.683 302.724 110.16 302.84 109.575 302.84C108.981 302.84 108.45 302.724 107.984 302.491C107.523 302.258 107.161 301.939 106.9 301.535C106.638 301.131 106.508 300.676 106.508 300.172C106.508 299.568 106.638 299.055 106.9 298.631C107.166 298.208 107.53 297.885 107.991 297.661C108.453 297.438 108.978 297.326 109.568 297.326C110.162 297.326 110.69 297.438 111.152 297.661C111.613 297.885 111.974 298.208 112.236 298.631C112.502 299.055 112.635 299.568 112.635 300.172ZM111.316 300.194C111.316 299.847 111.242 299.54 111.095 299.274C110.947 299.007 110.743 298.798 110.481 298.646C110.219 298.489 109.915 298.41 109.568 298.41C109.221 298.41 108.916 298.484 108.655 298.631C108.398 298.774 108.196 298.979 108.048 299.245C107.906 299.511 107.834 299.828 107.834 300.194C107.834 300.55 107.906 300.862 108.048 301.128C108.196 301.395 108.4 301.602 108.662 301.749C108.923 301.896 109.228 301.97 109.575 301.97C109.922 301.97 110.224 301.896 110.481 301.749C110.743 301.602 110.947 301.395 111.095 301.128C111.242 300.862 111.316 300.55 111.316 300.194Z" fill="black"/>
<path d="M191.649 306.75H191.785C192.546 306.75 193.164 306.643 193.64 306.429C194.115 306.215 194.481 305.927 194.738 305.566C194.995 305.204 195.171 304.797 195.266 304.346C195.361 303.889 195.409 303.421 195.409 302.94V301.349C195.409 300.879 195.354 300.46 195.245 300.094C195.14 299.728 194.993 299.421 194.802 299.174C194.617 298.926 194.405 298.738 194.168 298.61C193.93 298.482 193.678 298.417 193.411 298.417C193.107 298.417 192.834 298.479 192.591 298.603C192.353 298.722 192.151 298.891 191.985 299.109C191.823 299.328 191.699 299.585 191.614 299.88C191.528 300.175 191.485 300.496 191.485 300.843C191.485 301.152 191.523 301.452 191.599 301.742C191.676 302.032 191.792 302.293 191.949 302.527C192.106 302.76 192.301 302.945 192.534 303.083C192.772 303.216 193.05 303.283 193.369 303.283C193.663 303.283 193.939 303.226 194.196 303.111C194.458 302.993 194.688 302.833 194.888 302.634C195.093 302.429 195.254 302.198 195.373 301.942C195.497 301.685 195.568 301.416 195.587 301.135H196.215C196.215 301.53 196.137 301.92 195.98 302.305C195.827 302.686 195.613 303.033 195.338 303.347C195.062 303.661 194.738 303.913 194.367 304.103C193.996 304.289 193.592 304.381 193.155 304.381C192.641 304.381 192.196 304.281 191.821 304.082C191.445 303.882 191.136 303.616 190.893 303.283C190.655 302.95 190.477 302.579 190.358 302.17C190.244 301.756 190.187 301.338 190.187 300.914C190.187 300.42 190.256 299.956 190.394 299.523C190.532 299.09 190.736 298.71 191.007 298.382C191.278 298.049 191.614 297.79 192.013 297.604C192.417 297.419 192.883 297.326 193.411 297.326C194.006 297.326 194.512 297.445 194.931 297.683C195.349 297.92 195.689 298.239 195.951 298.639C196.217 299.038 196.412 299.488 196.536 299.987C196.66 300.486 196.721 301 196.721 301.528V302.006C196.721 302.543 196.686 303.09 196.614 303.647C196.548 304.198 196.417 304.726 196.222 305.23C196.032 305.734 195.754 306.186 195.387 306.586C195.021 306.98 194.543 307.294 193.954 307.527C193.369 307.756 192.646 307.87 191.785 307.87H191.649V306.75Z" fill="black"/>
<path d="M112.849 356.01V357.594C112.849 358.445 112.773 359.163 112.621 359.748C112.469 360.333 112.25 360.804 111.965 361.161C111.68 361.518 111.335 361.777 110.93 361.939C110.531 362.095 110.079 362.174 109.575 362.174C109.176 362.174 108.807 362.124 108.469 362.024C108.132 361.924 107.827 361.765 107.556 361.546C107.29 361.323 107.062 361.033 106.871 360.676C106.681 360.319 106.536 359.886 106.436 359.377C106.336 358.869 106.286 358.274 106.286 357.594V356.01C106.286 355.159 106.362 354.446 106.515 353.87C106.672 353.295 106.893 352.833 107.178 352.486C107.463 352.134 107.806 351.882 108.205 351.73C108.61 351.578 109.061 351.502 109.561 351.502C109.965 351.502 110.336 351.552 110.674 351.652C111.016 351.747 111.32 351.901 111.587 352.115C111.853 352.325 112.079 352.605 112.264 352.957C112.455 353.304 112.6 353.73 112.7 354.234C112.8 354.738 112.849 355.33 112.849 356.01ZM111.523 357.808V355.789C111.523 355.323 111.494 354.914 111.437 354.562C111.385 354.205 111.306 353.901 111.202 353.649C111.097 353.397 110.964 353.192 110.802 353.036C110.645 352.879 110.462 352.764 110.253 352.693C110.048 352.617 109.818 352.579 109.561 352.579C109.247 352.579 108.969 352.638 108.726 352.757C108.484 352.871 108.279 353.055 108.113 353.307C107.951 353.559 107.827 353.889 107.742 354.298C107.656 354.707 107.613 355.204 107.613 355.789V357.808C107.613 358.274 107.639 358.686 107.692 359.042C107.749 359.399 107.832 359.708 107.941 359.97C108.051 360.226 108.184 360.438 108.341 360.604C108.498 360.771 108.679 360.895 108.883 360.975C109.092 361.052 109.323 361.09 109.575 361.09C109.898 361.09 110.181 361.028 110.424 360.904C110.667 360.78 110.869 360.588 111.03 360.326C111.197 360.06 111.32 359.72 111.401 359.306C111.482 358.888 111.523 358.388 111.523 357.808Z" fill="black"/>
<path fill-rule="evenodd" clip-rule="evenodd" d="M190.078 351.859C189.665 351.859 189.28 352.069 189.056 352.415L186.473 356.408C186.224 356.792 186.212 357.283 186.441 357.679L189.064 362.209C189.282 362.585 189.683 362.817 190.118 362.817H199.156C199.828 362.817 200.373 362.272 200.373 361.599V353.077C200.373 352.404 199.828 351.859 199.156 351.859H190.078ZM191.578 355.091C191.34 354.853 191.34 354.468 191.578 354.23C191.816 353.993 192.201 353.993 192.439 354.23L194.596 356.387L196.743 354.239C196.981 354.002 197.367 354.002 197.604 354.239C197.842 354.477 197.842 354.862 197.604 355.1L195.457 357.248L197.604 359.396C197.842 359.633 197.842 360.019 197.604 360.257C197.367 360.494 196.981 360.494 196.743 360.257L194.596 358.109L192.439 360.266C192.201 360.503 191.816 360.503 191.578 360.266C191.34 360.028 191.34 359.642 191.578 359.405L193.735 357.248L191.578 355.091Z" fill="black"/>
<path d="M16.3708 32.8737L16.2495 32.965V33.1169V34.5131C16.2495 34.6193 16.2902 34.7055 16.3302 34.7653C16.3703 34.8253 16.4205 34.8752 16.4679 34.9156C16.5625 34.996 16.6836 35.0697 16.8057 35.1353C17.0501 35.2665 17.3589 35.3965 17.6187 35.5059L17.6248 35.5084C17.6248 35.5084 17.6248 35.5084 17.6249 35.5085C18.2628 35.7773 19.0119 36.0954 19.6057 36.5974C20.1865 37.0884 20.6098 37.7479 20.6098 38.7178V38.7248H8.76043V38.7178C8.76043 37.7557 9.18462 37.0958 9.76882 36.6009C10.3656 36.0954 11.1183 35.7712 11.7584 35.4975L11.7585 35.4975L11.7652 35.4946C12.0224 35.3847 12.3272 35.2543 12.5684 35.1247C12.6889 35.0599 12.8082 34.9877 12.9012 34.9101C12.9478 34.8713 12.9975 34.823 13.0377 34.765C13.0772 34.7079 13.1208 34.6215 13.1208 34.5131V33.1169V32.965L12.9995 32.8737C12.3034 32.3498 11.875 31.4982 11.875 30.62V28.7513C11.875 27.202 13.1359 25.9411 14.6851 25.9411C16.2344 25.9411 17.4953 27.202 17.4953 28.7513V30.62C17.4953 31.4985 17.0669 32.3498 16.3708 32.8737Z" stroke="black" stroke-width="0.60875"/>
<path d="M212.143 31.2327L212.094 31.5331L212.094 31.5331L212.143 31.2327ZM210.423 30.9515L210.13 31.0368L210.184 31.2209L210.373 31.2519L210.423 30.9515ZM212.387 31.5201L212.083 31.5195V31.5201H212.387ZM212.147 33.4082L212.094 33.1084L212.094 33.1084L212.147 33.4082ZM210.423 33.7106L210.371 33.4109L210.184 33.4437L210.131 33.6261L210.423 33.7106ZM210.014 34.7029L209.747 34.5564L209.654 34.7248L209.767 34.8807L210.014 34.7029ZM211.032 36.1169L210.785 36.2948L210.785 36.295L211.032 36.1169ZM211.002 36.4931L211.217 36.7082L211.218 36.708L211.002 36.4931ZM209.87 37.6259L210.085 37.8415L210.085 37.8411L209.87 37.6259ZM209.497 37.6582L209.672 37.4096L209.671 37.4091L209.497 37.6582ZM208.068 36.6564L208.243 36.4072L208.087 36.2977L207.921 36.3904L208.068 36.6564ZM207.07 37.0742L206.984 36.7822L206.803 36.8354L206.77 37.021L207.07 37.0742ZM206.766 38.789L206.466 38.7359L206.466 38.7362L206.766 38.789ZM204.591 38.7864L204.891 38.7371L204.891 38.7364L204.591 38.7864ZM204.307 37.08L204.607 37.03L204.575 36.8409L204.391 36.7876L204.307 37.08ZM203.304 36.6654L203.45 36.3987L203.284 36.3074L203.129 36.4161L203.304 36.6654ZM201.886 37.6585L201.711 37.4092L201.711 37.4095L201.886 37.6585ZM201.513 37.6259L201.297 37.8411L201.297 37.8412L201.513 37.6259ZM200.381 36.4931L200.165 36.7077L200.165 36.7082L200.381 36.4931ZM200.35 36.1178L200.597 36.2949L200.597 36.2948L200.35 36.1178ZM201.352 34.7165L201.599 34.8936L201.711 34.7373L201.618 34.5693L201.352 34.7165ZM200.933 33.7092L201.225 33.6244L201.172 33.4425L200.986 33.4095L200.933 33.7092ZM199.235 33.4082L199.182 33.7078L199.182 33.7079L199.235 33.4082ZM199.238 31.233L199.288 31.5333L199.288 31.5333L199.238 31.233ZM200.936 30.9503L200.986 31.2506L201.175 31.2191L201.228 31.0354L200.936 30.9503ZM201.355 29.943L201.621 30.0902L201.713 29.9241L201.604 29.7686L201.355 29.943ZM200.365 28.5272L200.615 28.3528L200.614 28.3521L200.365 28.5272ZM200.398 28.1545L200.613 28.3697L200.613 28.3697L200.398 28.1545ZM201.529 27.0228L201.315 26.807L201.314 26.8076L201.529 27.0228ZM201.905 26.992L201.728 27.2397L201.728 27.2397L201.905 26.992ZM203.311 27.9964L203.134 28.2441L203.29 28.3551L203.457 28.2634L203.311 27.9964ZM204.312 27.5853L204.396 27.8779L204.581 27.8246L204.612 27.6344L204.312 27.5853ZM204.59 25.881L204.891 25.93L204.891 25.93L204.59 25.881ZM206.766 25.8778L207.066 25.8253L207.066 25.8251L206.766 25.8778ZM207.066 27.5914L206.766 27.644L206.799 27.8307L206.981 27.8837L207.066 27.5914ZM208.065 28.0069L207.918 28.2733L208.087 28.3664L208.243 28.2541L208.065 28.0069ZM209.475 26.9934L209.653 27.2406L209.653 27.2403L209.475 26.9934ZM209.851 27.0237L210.066 26.8084L210.066 26.8082L209.851 27.0237ZM210.984 28.1554L211.199 27.9405L211.199 27.9401L210.984 28.1554ZM211.016 28.5286L210.767 28.3536L210.767 28.3538L211.016 28.5286ZM210.012 29.9602L209.763 29.7853L209.654 29.9405L209.745 30.1066L210.012 29.9602ZM212.192 30.9324L210.472 30.6511L210.373 31.2519L212.094 31.5331L212.192 30.9324ZM212.692 31.5207C212.692 31.2284 212.481 30.9794 212.192 30.9323L212.094 31.5331C212.088 31.5321 212.083 31.5265 212.083 31.5195L212.692 31.5207ZM212.692 33.1214V31.5201H212.083V33.1214H212.692ZM212.199 33.708C212.485 33.6579 212.692 33.41 212.692 33.1214H212.083C212.083 33.1151 212.088 33.1095 212.094 33.1084L212.199 33.708ZM210.476 34.0104L212.199 33.7079L212.094 33.1084L210.371 33.4109L210.476 34.0104ZM210.281 34.8494C210.464 34.5152 210.61 34.1619 210.716 33.7952L210.131 33.6261C210.037 33.95 209.909 34.2617 209.747 34.5564L210.281 34.8494ZM211.279 35.939L210.261 34.525L209.767 34.8807L210.785 36.2948L211.279 35.939ZM211.218 36.708C211.423 36.5018 211.45 36.1763 211.279 35.9389L210.785 36.295C210.781 36.2893 210.782 36.2823 210.786 36.2782L211.218 36.708ZM210.085 37.8411L211.217 36.7082L210.787 36.2779L209.655 37.4108L210.085 37.8411ZM209.321 37.9069C209.559 38.075 209.881 38.0447 210.085 37.8415L209.655 37.4104C209.659 37.4069 209.666 37.4051 209.672 37.4096L209.321 37.9069ZM207.894 36.9056L209.322 37.9074L209.671 37.4091L208.243 36.4072L207.894 36.9056ZM207.156 37.3662C207.526 37.2572 207.881 37.1088 208.216 36.9224L207.921 36.3904C207.625 36.5546 207.312 36.6857 206.984 36.7822L207.156 37.3662ZM207.065 38.8422L207.369 37.1274L206.77 37.021L206.466 38.7359L207.065 38.8422ZM206.479 39.3336C206.768 39.3336 207.015 39.1265 207.065 38.8418L206.466 38.7362C206.467 38.7293 206.473 38.7248 206.479 38.7248V39.3336ZM204.878 39.3336H206.479V38.7248H204.878V39.3336ZM204.29 38.8357C204.338 39.1237 204.587 39.3336 204.878 39.3336V38.7248C204.883 38.7248 204.89 38.7292 204.891 38.7371L204.29 38.8357ZM204.006 37.13L204.291 38.8364L204.891 38.7364L204.607 37.03L204.006 37.13ZM203.157 36.9322C203.495 37.118 203.852 37.2655 204.222 37.3724L204.391 36.7876C204.064 36.6931 203.749 36.5628 203.45 36.3987L203.157 36.9322ZM202.06 37.9078L203.478 36.9148L203.129 36.4161L201.711 37.4092L202.06 37.9078ZM201.297 37.8412C201.501 38.0451 201.823 38.0742 202.061 37.9076L201.711 37.4095C201.717 37.4053 201.724 37.4064 201.728 37.4107L201.297 37.8412ZM200.165 36.7082L201.297 37.8411L201.728 37.4108L200.596 36.2779L200.165 36.7082ZM200.102 35.9407C199.933 36.1777 199.96 36.5019 200.165 36.7077L200.596 36.2785C200.6 36.2823 200.601 36.2891 200.597 36.2949L200.102 35.9407ZM201.104 34.5395L200.102 35.9408L200.597 36.2948L201.599 34.8936L201.104 34.5395ZM200.641 33.794C200.749 34.1661 200.898 34.5244 201.085 34.8638L201.618 34.5693C201.452 34.2693 201.32 33.9528 201.225 33.6244L200.641 33.794ZM199.182 33.7079L200.88 34.0089L200.986 33.4095L199.288 33.1085L199.182 33.7079ZM198.69 33.1214C198.69 33.4102 198.898 33.6572 199.182 33.7078L199.288 33.1085C199.295 33.1096 199.299 33.115 199.299 33.1214H198.69ZM198.69 31.5201V33.1214H199.299V31.5201H198.69ZM199.188 30.9328C198.901 30.9804 198.69 31.2292 198.69 31.5201H199.299C199.299 31.5269 199.295 31.5322 199.288 31.5333L199.188 30.9328ZM200.886 30.6501L199.188 30.9328L199.288 31.5333L200.986 31.2506L200.886 30.6501ZM201.088 29.7958C200.901 30.1343 200.752 30.4926 200.644 30.8653L201.228 31.0354C201.324 30.7059 201.456 30.3893 201.621 30.0902L201.088 29.7958ZM200.116 28.7016L201.105 30.1174L201.604 29.7686L200.615 28.3528L200.116 28.7016ZM200.182 27.9393C199.979 28.1432 199.949 28.465 200.116 28.7022L200.614 28.3521C200.618 28.3581 200.617 28.3655 200.613 28.3697L200.182 27.9393ZM201.314 26.8076L200.182 27.9393L200.613 28.3697L201.745 27.2381L201.314 26.8076ZM202.082 26.7443C201.844 26.5745 201.521 26.6025 201.315 26.807L201.744 27.2387C201.74 27.2423 201.733 27.2435 201.728 27.2397L202.082 26.7443ZM203.488 27.7487L202.082 26.7443L201.728 27.2397L203.134 28.2441L203.488 27.7487ZM204.228 27.2928C203.857 27.3994 203.501 27.5456 203.165 27.7294L203.457 28.2634C203.753 28.1014 204.068 27.9722 204.396 27.8779L204.228 27.2928ZM204.29 25.8319L204.011 27.5363L204.612 27.6344L204.891 25.93L204.29 25.8319ZM204.878 25.3323C204.586 25.3323 204.337 25.5437 204.29 25.8319L204.891 25.93C204.89 25.9364 204.884 25.9411 204.878 25.9411V25.3323ZM206.479 25.3323H204.878V25.9411H206.479V25.3323ZM207.066 25.8251C207.016 25.5409 206.769 25.3323 206.479 25.3323V25.9411C206.472 25.9411 206.467 25.9363 206.466 25.9305L207.066 25.8251ZM207.366 27.5389L207.066 25.8253L206.466 25.9303L206.766 27.644L207.366 27.5389ZM208.213 27.7405C207.876 27.5543 207.52 27.4065 207.151 27.2992L206.981 27.8837C207.307 27.9784 207.621 28.1089 207.918 28.2733L208.213 27.7405ZM209.298 26.7463L207.888 27.7597L208.243 28.2541L209.653 27.2406L209.298 26.7463ZM210.066 26.8082C209.86 26.6026 209.535 26.5754 209.297 26.7465L209.653 27.2403C209.648 27.2444 209.64 27.2433 209.636 27.2393L210.066 26.8082ZM211.199 27.9401L210.066 26.8084L209.636 27.239L210.768 28.3707L211.199 27.9401ZM211.265 28.7036C211.432 28.4664 211.403 28.1445 211.199 27.9405L210.768 28.3703C210.764 28.3665 210.763 28.3597 210.767 28.3536L211.265 28.7036ZM210.261 30.135L211.265 28.7035L210.767 28.3538L209.763 29.7853L210.261 30.135ZM210.715 30.8663C210.608 30.4997 210.462 30.1473 210.279 29.8137L209.745 30.1066C209.907 30.4014 210.036 30.7128 210.13 31.0368L210.715 30.8663ZM205.691 34.0667C204.734 34.0667 203.957 33.2905 203.957 32.3331H203.349C203.349 33.6268 204.397 34.6754 205.691 34.6754V34.0667ZM207.425 32.3331C207.425 33.2905 206.649 34.0667 205.691 34.0667V34.6754C206.985 34.6754 208.034 33.6268 208.034 32.3331H207.425ZM205.691 30.5995C206.649 30.5995 207.425 31.3756 207.425 32.3331H208.034C208.034 31.0394 206.985 29.9907 205.691 29.9907V30.5995ZM203.957 32.3331C203.957 31.3756 204.734 30.5995 205.691 30.5995V29.9907C204.397 29.9907 203.349 31.0394 203.349 32.3331H203.957Z" fill="black"/>
<path d="M101.791 98.41V100.786C101.791 102.063 101.677 103.14 101.449 104.017C101.22 104.895 100.892 105.601 100.464 106.136C100.036 106.671 99.519 107.06 98.9126 107.302C98.3134 107.538 97.6357 107.655 96.8795 107.655C96.2803 107.655 95.7274 107.581 95.2209 107.431C94.7144 107.281 94.2578 107.042 93.8512 106.714C93.4517 106.378 93.1093 105.943 92.824 105.408C92.5386 104.873 92.321 104.224 92.1712 103.461C92.0214 102.697 91.9465 101.806 91.9465 100.786V98.41C91.9465 97.1331 92.0606 96.063 92.2889 95.1998C92.5243 94.3366 92.8561 93.6447 93.2841 93.1239C93.7121 92.596 94.2257 92.2179 94.825 91.9896C95.4314 91.7613 96.1091 91.6472 96.8581 91.6472C97.4645 91.6472 98.0209 91.7221 98.5274 91.8719C99.0411 92.0146 99.4976 92.2464 99.8971 92.5675C100.297 92.8813 100.635 93.3022 100.914 93.8301C101.199 94.3509 101.417 94.9894 101.566 95.7456C101.716 96.5017 101.791 97.3899 101.791 98.41ZM99.8008 101.107V98.0783C99.8008 97.3792 99.758 96.7657 99.6724 96.2378C99.5939 95.7028 99.4762 95.2462 99.3193 94.8681C99.1623 94.49 98.9626 94.1833 98.72 93.9478C98.4846 93.7124 98.21 93.5412 97.8961 93.4342C97.5893 93.3201 97.2433 93.263 96.8581 93.263C96.3873 93.263 95.97 93.3522 95.6061 93.5305C95.2423 93.7017 94.9356 93.9764 94.6859 94.3545C94.4433 94.7326 94.2578 95.2284 94.1294 95.8419C94.001 96.4554 93.9368 97.2009 93.9368 98.0783V101.107C93.9368 101.806 93.9761 102.423 94.0545 102.958C94.1401 103.493 94.265 103.957 94.4291 104.349C94.5931 104.734 94.7929 105.052 95.0283 105.301C95.2637 105.551 95.5348 105.736 95.8416 105.858C96.1554 105.972 96.5014 106.029 96.8795 106.029C97.3646 106.029 97.7891 105.936 98.1529 105.751C98.5167 105.565 98.8199 105.276 99.0625 104.884C99.3121 104.484 99.4976 103.974 99.6189 103.354C99.7402 102.726 99.8008 101.977 99.8008 101.107Z" fill="black"/>
<path d="M108.67 104.502C108.67 104.328 108.63 104.166 108.552 104.018C108.478 103.866 108.323 103.728 108.088 103.606C107.857 103.48 107.508 103.371 107.041 103.279C106.649 103.196 106.294 103.098 105.975 102.985C105.662 102.872 105.393 102.734 105.171 102.573C104.953 102.412 104.785 102.222 104.668 102.004C104.55 101.786 104.491 101.531 104.491 101.239C104.491 100.96 104.552 100.696 104.674 100.448C104.801 100.199 104.977 99.9791 105.204 99.7873C105.435 99.5955 105.712 99.4451 106.034 99.3361C106.357 99.2271 106.717 99.1726 107.113 99.1726C107.68 99.1726 108.164 99.2729 108.565 99.4734C108.966 99.6739 109.273 99.942 109.487 100.278C109.701 100.609 109.808 100.977 109.808 101.383H108.598C108.598 101.187 108.539 100.997 108.421 100.814C108.308 100.626 108.14 100.472 107.918 100.35C107.7 100.228 107.432 100.167 107.113 100.167C106.778 100.167 106.505 100.219 106.296 100.324C106.091 100.424 105.941 100.552 105.845 100.709C105.753 100.866 105.707 101.032 105.707 101.206C105.707 101.337 105.729 101.455 105.773 101.559C105.821 101.66 105.904 101.753 106.021 101.841C106.139 101.923 106.305 102.002 106.518 102.076C106.732 102.15 107.004 102.224 107.336 102.298C107.915 102.429 108.393 102.586 108.768 102.769C109.143 102.952 109.422 103.177 109.605 103.443C109.788 103.709 109.879 104.031 109.879 104.411C109.879 104.72 109.814 105.003 109.683 105.261C109.557 105.518 109.372 105.74 109.127 105.928C108.888 106.111 108.6 106.255 108.264 106.359C107.933 106.46 107.56 106.51 107.146 106.51C106.523 106.51 105.995 106.399 105.564 106.176C105.132 105.954 104.805 105.666 104.583 105.313C104.36 104.96 104.249 104.587 104.249 104.195H105.465C105.483 104.526 105.579 104.79 105.753 104.986C105.928 105.178 106.141 105.315 106.394 105.398C106.647 105.476 106.898 105.516 107.146 105.516C107.477 105.516 107.754 105.472 107.977 105.385C108.203 105.298 108.375 105.178 108.493 105.025C108.611 104.873 108.67 104.698 108.67 104.502ZM115.641 105.169V101.527C115.641 101.248 115.584 101.006 115.471 100.801C115.362 100.592 115.196 100.43 114.974 100.317C114.751 100.204 114.477 100.147 114.15 100.147C113.844 100.147 113.576 100.199 113.345 100.304C113.119 100.409 112.94 100.546 112.809 100.716C112.683 100.886 112.619 101.069 112.619 101.265H111.41C111.41 101.012 111.475 100.762 111.606 100.513C111.737 100.265 111.924 100.04 112.168 99.8396C112.417 99.6347 112.713 99.4734 113.058 99.3557C113.406 99.2336 113.794 99.1726 114.222 99.1726C114.736 99.1726 115.189 99.2598 115.582 99.4342C115.978 99.6085 116.288 99.8723 116.51 100.225C116.737 100.574 116.85 101.012 116.85 101.54V104.836C116.85 105.071 116.87 105.322 116.909 105.588C116.953 105.854 117.016 106.082 117.099 106.274V106.379H115.837C115.776 106.239 115.728 106.054 115.693 105.823C115.658 105.588 115.641 105.37 115.641 105.169ZM115.85 102.089L115.863 102.939H114.64C114.296 102.939 113.988 102.968 113.718 103.024C113.448 103.077 113.221 103.157 113.038 103.266C112.855 103.375 112.715 103.513 112.619 103.678C112.524 103.839 112.476 104.029 112.476 104.247C112.476 104.469 112.526 104.672 112.626 104.855C112.726 105.038 112.877 105.184 113.077 105.293C113.282 105.398 113.533 105.45 113.829 105.45C114.2 105.45 114.527 105.372 114.81 105.215C115.093 105.058 115.318 104.866 115.484 104.639C115.654 104.413 115.745 104.193 115.758 103.979L116.275 104.561C116.244 104.744 116.162 104.947 116.026 105.169C115.891 105.391 115.71 105.605 115.484 105.81C115.261 106.011 114.995 106.178 114.686 106.314C114.381 106.444 114.036 106.51 113.653 106.51C113.173 106.51 112.752 106.416 112.391 106.229C112.033 106.041 111.754 105.79 111.554 105.476C111.357 105.158 111.259 104.803 111.259 104.411C111.259 104.031 111.333 103.698 111.482 103.41C111.63 103.118 111.843 102.876 112.122 102.684C112.401 102.488 112.737 102.34 113.129 102.24C113.522 102.139 113.96 102.089 114.444 102.089H115.85ZM121.716 99.3034V100.232H117.89V99.3034H121.716ZM119.185 97.5835H120.395V104.626C120.395 104.866 120.432 105.047 120.506 105.169C120.58 105.291 120.676 105.372 120.794 105.411C120.911 105.45 121.038 105.47 121.173 105.47C121.273 105.47 121.378 105.461 121.487 105.444C121.6 105.422 121.685 105.405 121.742 105.391L121.748 106.379C121.652 106.409 121.526 106.438 121.369 106.464C121.216 106.494 121.031 106.51 120.813 106.51C120.517 106.51 120.244 106.451 119.996 106.333C119.747 106.215 119.549 106.019 119.401 105.745C119.257 105.466 119.185 105.091 119.185 104.62V97.5835ZM127.254 104.502C127.254 104.328 127.215 104.166 127.137 104.018C127.063 103.866 126.908 103.728 126.672 103.606C126.441 103.48 126.093 103.371 125.626 103.279C125.234 103.196 124.878 103.098 124.56 102.985C124.246 102.872 123.978 102.734 123.756 102.573C123.538 102.412 123.37 102.222 123.252 102.004C123.135 101.786 123.076 101.531 123.076 101.239C123.076 100.96 123.137 100.696 123.259 100.448C123.385 100.199 123.562 99.9791 123.789 99.7873C124.02 99.5955 124.296 99.4451 124.619 99.3361C124.942 99.2271 125.301 99.1726 125.698 99.1726C126.265 99.1726 126.749 99.2729 127.15 99.4734C127.551 99.6739 127.858 99.942 128.072 100.278C128.285 100.609 128.392 100.977 128.392 101.383H127.182C127.182 101.187 127.124 100.997 127.006 100.814C126.893 100.626 126.725 100.472 126.502 100.35C126.284 100.228 126.016 100.167 125.698 100.167C125.362 100.167 125.09 100.219 124.881 100.324C124.676 100.424 124.525 100.552 124.429 100.709C124.338 100.866 124.292 101.032 124.292 101.206C124.292 101.337 124.314 101.455 124.357 101.559C124.405 101.66 124.488 101.753 124.606 101.841C124.724 101.923 124.889 102.002 125.103 102.076C125.317 102.15 125.589 102.224 125.92 102.298C126.5 102.429 126.978 102.586 127.352 102.769C127.727 102.952 128.006 103.177 128.19 103.443C128.373 103.709 128.464 104.031 128.464 104.411C128.464 104.72 128.399 105.003 128.268 105.261C128.142 105.518 127.956 105.74 127.712 105.928C127.472 106.111 127.185 106.255 126.849 106.359C126.518 106.46 126.145 106.51 125.731 106.51C125.107 106.51 124.58 106.399 124.148 106.176C123.717 105.954 123.39 105.666 123.167 105.313C122.945 104.96 122.834 104.587 122.834 104.195H124.05C124.068 104.526 124.163 104.79 124.338 104.986C124.512 105.178 124.726 105.315 124.979 105.398C125.232 105.476 125.482 105.516 125.731 105.516C126.062 105.516 126.339 105.472 126.561 105.385C126.788 105.298 126.96 105.178 127.078 105.025C127.196 104.873 127.254 104.698 127.254 104.502Z" fill="black"/>
<path d="M109.045 124.854V126.438C109.045 127.289 108.969 128.007 108.817 128.592C108.664 129.177 108.446 129.648 108.16 130.005C107.875 130.361 107.53 130.621 107.126 130.782C106.726 130.939 106.275 131.018 105.77 131.018C105.371 131.018 105.002 130.968 104.665 130.868C104.327 130.768 104.023 130.609 103.752 130.39C103.485 130.166 103.257 129.876 103.067 129.52C102.877 129.163 102.731 128.73 102.632 128.221C102.532 127.712 102.482 127.118 102.482 126.438V124.854C102.482 124.003 102.558 123.289 102.71 122.714C102.867 122.138 103.088 121.677 103.374 121.33C103.659 120.978 104.001 120.726 104.401 120.574C104.805 120.422 105.257 120.346 105.756 120.346C106.16 120.346 106.531 120.395 106.869 120.495C107.211 120.59 107.516 120.745 107.782 120.959C108.049 121.168 108.274 121.449 108.46 121.801C108.65 122.148 108.795 122.574 108.895 123.078C108.995 123.582 109.045 124.174 109.045 124.854ZM107.718 126.652V124.633C107.718 124.167 107.689 123.758 107.632 123.406C107.58 123.049 107.502 122.745 107.397 122.493C107.292 122.241 107.159 122.036 106.997 121.879C106.841 121.722 106.657 121.608 106.448 121.537C106.244 121.461 106.013 121.423 105.756 121.423C105.442 121.423 105.164 121.482 104.922 121.601C104.679 121.715 104.474 121.898 104.308 122.15C104.146 122.402 104.023 122.733 103.937 123.142C103.851 123.551 103.809 124.048 103.809 124.633V126.652C103.809 127.118 103.835 127.529 103.887 127.886C103.944 128.243 104.027 128.552 104.137 128.813C104.246 129.07 104.379 129.282 104.536 129.448C104.693 129.615 104.874 129.738 105.078 129.819C105.288 129.895 105.518 129.933 105.77 129.933C106.094 129.933 106.377 129.872 106.619 129.748C106.862 129.624 107.064 129.432 107.226 129.17C107.392 128.904 107.516 128.564 107.597 128.15C107.678 127.731 107.718 127.232 107.718 126.652ZM115.694 129.905C115.969 129.905 116.238 129.883 116.5 129.841C116.761 129.798 117.011 129.738 117.249 129.662L117.391 130.804C117.125 130.87 116.847 130.923 116.557 130.961C116.267 130.999 115.974 131.018 115.679 131.018C115.113 131.018 114.595 130.932 114.124 130.761C113.653 130.585 113.247 130.326 112.904 129.983C112.562 129.636 112.295 129.206 112.105 128.692C111.92 128.174 111.827 127.57 111.827 126.88V124.505C111.827 123.81 111.92 123.204 112.105 122.685C112.291 122.167 112.555 121.734 112.897 121.387C113.24 121.04 113.644 120.781 114.11 120.609C114.581 120.434 115.101 120.346 115.672 120.346C115.972 120.346 116.26 120.367 116.535 120.41C116.816 120.448 117.101 120.5 117.391 120.567L117.249 121.715C117.016 121.639 116.766 121.58 116.5 121.537C116.233 121.489 115.962 121.466 115.686 121.466C115.306 121.466 114.961 121.527 114.652 121.651C114.348 121.775 114.086 121.96 113.867 122.207C113.653 122.455 113.489 122.769 113.375 123.149C113.261 123.53 113.204 123.977 113.204 124.49V126.88C113.204 127.394 113.261 127.841 113.375 128.221C113.494 128.602 113.663 128.916 113.882 129.163C114.1 129.41 114.362 129.596 114.666 129.719C114.975 129.843 115.318 129.905 115.694 129.905ZM115.943 124.262V125.154H110.557V124.262H115.943ZM115.943 126.124V127.008H110.557V126.124H115.943Z" fill="#777777"/>
</g>
<defs>
<clipPath id="clip0_267_11217">
<rect width="219.15" height="487" fill="white"/>
</clipPath>
</defs>
</svg>
