<svg width="221" height="487" viewBox="0 0 221 487" fill="none" xmlns="http://www.w3.org/2000/svg">
<g clip-path="url(#clip0_267_11513)">
<rect width="219.15" height="487" transform="translate(0.980469)" fill="white"/>
<rect x="0.980469" width="219.15" height="18.0852" fill="#F1F1F1"/>
<circle cx="19.5976" cy="9.57498" r="3.72342" fill="#C4C4C4"/>
<circle cx="189.811" cy="9.57498" r="3.72342" fill="#C4C4C4"/>
<rect x="198.854" y="6.38281" width="6.38301" height="6.38301" fill="#C4C4C4"/>
<path d="M177.045 12.7656L173.36 6.38262L180.73 6.38262L177.045 12.7656Z" fill="#C4C4C4"/>
<rect width="228.281" height="55.3962" transform="translate(-3.28076 438.91)" fill="white"/>
<rect x="-3.28076" y="438.91" width="228.281" height="0.60875" fill="#EDEDED"/>
<path d="M40.8367 450.479C40.6558 450.655 40.6516 450.944 40.8272 451.125C41.0029 451.306 41.2919 451.31 41.4728 451.134L42.8288 449.817V457.26C42.8288 457.512 43.0332 457.717 43.2854 457.717C43.5375 457.717 43.742 457.512 43.742 457.26V449.818L45.098 451.134C45.2789 451.31 45.5679 451.306 45.7436 451.125C45.9192 450.944 45.915 450.655 45.7341 450.479L43.6034 448.41C43.4263 448.238 43.1445 448.238 42.9673 448.41L40.8367 450.479Z" fill="#F7931A"/>
<path d="M37.3501 456.181L35.9942 454.864C35.8133 454.688 35.5243 454.693 35.3486 454.874C35.173 455.054 35.1772 455.343 35.3581 455.519L37.4887 457.588C37.6659 457.76 37.9477 457.76 38.1248 457.588L40.2555 455.519C40.4364 455.343 40.4406 455.054 40.265 454.874C40.0893 454.693 39.8003 454.688 39.6194 454.864L38.2632 456.181L38.2632 448.738C38.2632 448.486 38.0588 448.281 37.8067 448.281C37.5545 448.281 37.3501 448.486 37.3501 448.738V456.181Z" fill="#F7931A"/>
<path d="M20.6555 466.978V472.172H19.9778V466.978H20.6555ZM22.3248 466.978V467.542H18.312V466.978H22.3248ZM23.6276 468.919V472.172H22.9678V468.312H23.6098L23.6276 468.919ZM24.8333 468.291L24.8297 468.905C24.775 468.893 24.7227 468.886 24.6727 468.883C24.6252 468.878 24.5705 468.876 24.5087 468.876C24.3565 468.876 24.2221 468.9 24.1056 468.947C23.9891 468.995 23.8904 469.062 23.8096 469.147C23.7287 469.233 23.6645 469.335 23.6169 469.454C23.5718 469.57 23.542 469.699 23.5278 469.839L23.3423 469.946C23.3423 469.713 23.3649 469.494 23.4101 469.29C23.4576 469.085 23.5302 468.905 23.6276 468.748C23.7251 468.588 23.8488 468.465 23.9986 468.377C24.1508 468.286 24.3315 468.241 24.5408 468.241C24.5883 468.241 24.643 468.247 24.7049 468.259C24.7667 468.269 24.8095 468.279 24.8333 468.291ZM27.8197 471.512V469.525C27.8197 469.373 27.7888 469.241 27.727 469.129C27.6675 469.015 27.5772 468.927 27.4559 468.865C27.3346 468.804 27.1848 468.773 27.0064 468.773C26.84 468.773 26.6938 468.801 26.5677 468.858C26.4441 468.915 26.3466 468.99 26.2752 469.083C26.2063 469.176 26.1718 469.276 26.1718 469.383H25.5119C25.5119 469.245 25.5476 469.108 25.6189 468.972C25.6903 468.837 25.7925 468.714 25.9257 468.605C26.0612 468.493 26.2229 468.405 26.4108 468.341C26.601 468.274 26.8126 468.241 27.0457 468.241C27.3263 468.241 27.5736 468.289 27.7876 468.384C28.004 468.479 28.1728 468.623 28.2941 468.815C28.4178 469.006 28.4796 469.245 28.4796 469.532V471.33C28.4796 471.458 28.4903 471.595 28.5117 471.74C28.5355 471.885 28.5699 472.01 28.6151 472.115V472.172H27.9267C27.8934 472.096 27.8673 471.995 27.8482 471.869C27.8292 471.74 27.8197 471.621 27.8197 471.512ZM27.9338 469.832L27.941 470.296H27.274C27.0861 470.296 26.9185 470.311 26.771 470.342C26.6236 470.371 26.5 470.415 26.4001 470.474C26.3002 470.533 26.2241 470.608 26.1718 470.699C26.1195 470.787 26.0933 470.89 26.0933 471.009C26.0933 471.13 26.1207 471.241 26.1754 471.341C26.2301 471.441 26.3121 471.52 26.4215 471.58C26.5332 471.637 26.67 471.665 26.8317 471.665C27.0338 471.665 27.2121 471.623 27.3667 471.537C27.5213 471.451 27.6437 471.347 27.7341 471.223C27.8268 471.099 27.8768 470.979 27.8839 470.863L28.1657 471.18C28.149 471.28 28.1039 471.391 28.0301 471.512C27.9564 471.633 27.8577 471.75 27.7341 471.862C27.6128 471.971 27.4678 472.062 27.2989 472.136C27.1325 472.208 26.9446 472.243 26.7354 472.243C26.4738 472.243 26.2443 472.192 26.047 472.09C25.852 471.988 25.6998 471.851 25.5904 471.68C25.4834 471.506 25.4299 471.312 25.4299 471.098C25.4299 470.891 25.4703 470.709 25.5512 470.553C25.632 470.393 25.7485 470.261 25.9007 470.157C26.0529 470.05 26.236 469.969 26.45 469.914C26.664 469.859 26.903 469.832 27.167 469.832H27.9338ZM30.4209 469.136V472.172H29.761V468.312H30.3852L30.4209 469.136ZM30.264 470.096L29.9893 470.085C29.9917 469.821 30.0309 469.578 30.107 469.354C30.1831 469.128 30.2901 468.932 30.4281 468.765C30.566 468.599 30.73 468.471 30.9203 468.38C31.1129 468.288 31.3257 468.241 31.5588 468.241C31.749 468.241 31.9202 468.267 32.0724 468.32C32.2246 468.37 32.3542 468.45 32.4612 468.562C32.5706 468.674 32.6538 468.819 32.7109 468.997C32.7679 469.173 32.7965 469.389 32.7965 469.643V472.172H32.133V469.636C32.133 469.434 32.1033 469.272 32.0439 469.151C31.9844 469.027 31.8976 468.938 31.7835 468.883C31.6693 468.826 31.529 468.798 31.3626 468.798C31.1985 468.798 31.0487 468.832 30.9132 468.901C30.78 468.97 30.6647 469.065 30.5672 469.186C30.472 469.308 30.3971 469.447 30.3424 469.604C30.2901 469.758 30.264 469.922 30.264 470.096ZM36.2894 471.148C36.2894 471.053 36.268 470.965 36.2252 470.884C36.1848 470.801 36.1004 470.726 35.972 470.66C35.8459 470.591 35.6557 470.531 35.4013 470.481C35.1872 470.436 34.9934 470.382 34.8199 470.321C34.6486 470.259 34.5024 470.184 34.3811 470.096C34.2622 470.008 34.1707 469.905 34.1065 469.786C34.0423 469.667 34.0102 469.528 34.0102 469.368C34.0102 469.216 34.0435 469.072 34.11 468.937C34.179 468.801 34.2753 468.681 34.399 468.576C34.525 468.472 34.676 468.39 34.852 468.33C35.0279 468.271 35.2241 468.241 35.4405 468.241C35.7496 468.241 36.0136 468.296 36.2323 468.405C36.4511 468.515 36.6188 468.661 36.7353 468.844C36.8518 469.025 36.9101 469.226 36.9101 469.447H36.2502C36.2502 469.34 36.2181 469.236 36.1539 469.136C36.092 469.034 36.0005 468.95 35.8792 468.883C35.7603 468.817 35.6141 468.783 35.4405 468.783C35.2574 468.783 35.1088 468.812 34.9946 468.869C34.8829 468.924 34.8008 468.994 34.7485 469.079C34.6986 469.165 34.6736 469.255 34.6736 469.35C34.6736 469.422 34.6855 469.486 34.7093 469.543C34.7354 469.598 34.7806 469.649 34.8448 469.696C34.909 469.742 34.9994 469.784 35.1159 469.825C35.2324 469.865 35.381 469.906 35.5618 469.946C35.878 470.017 36.1384 470.103 36.3429 470.203C36.5474 470.303 36.6996 470.425 36.7995 470.57C36.8993 470.715 36.9493 470.891 36.9493 471.098C36.9493 471.267 36.9136 471.422 36.8423 471.562C36.7733 471.702 36.6723 471.824 36.5391 471.926C36.4083 472.026 36.2514 472.104 36.0683 472.161C35.8875 472.216 35.6842 472.243 35.4583 472.243C35.1183 472.243 34.8306 472.183 34.5951 472.061C34.3597 471.94 34.1814 471.783 34.0601 471.59C33.9388 471.398 33.8782 471.195 33.8782 470.981H34.5416C34.5511 471.161 34.6035 471.305 34.6986 471.412C34.7937 471.517 34.9102 471.592 35.0481 471.637C35.1861 471.68 35.3228 471.701 35.4583 471.701C35.639 471.701 35.79 471.677 35.9113 471.63C36.035 471.582 36.1289 471.517 36.1931 471.434C36.2573 471.35 36.2894 471.255 36.2894 471.148ZM40.3352 471.512V469.525C40.3352 469.373 40.3043 469.241 40.2425 469.129C40.183 469.015 40.0927 468.927 39.9714 468.865C39.8501 468.804 39.7003 468.773 39.522 468.773C39.3555 468.773 39.2093 468.801 39.0832 468.858C38.9596 468.915 38.8621 468.99 38.7908 469.083C38.7218 469.176 38.6873 469.276 38.6873 469.383H38.0274C38.0274 469.245 38.0631 469.108 38.1344 468.972C38.2058 468.837 38.308 468.714 38.4412 468.605C38.5767 468.493 38.7384 468.405 38.9263 468.341C39.1165 468.274 39.3282 468.241 39.5612 468.241C39.8418 468.241 40.0891 468.289 40.3031 468.384C40.5195 468.479 40.6883 468.623 40.8096 468.815C40.9333 469.006 40.9951 469.245 40.9951 469.532V471.33C40.9951 471.458 41.0058 471.595 41.0272 471.74C41.051 471.885 41.0855 472.01 41.1306 472.115V472.172H40.4422C40.4089 472.096 40.3828 471.995 40.3638 471.869C40.3447 471.74 40.3352 471.621 40.3352 471.512ZM40.4494 469.832L40.4565 470.296H39.7895C39.6016 470.296 39.434 470.311 39.2866 470.342C39.1391 470.371 39.0155 470.415 38.9156 470.474C38.8157 470.533 38.7396 470.608 38.6873 470.699C38.635 470.787 38.6088 470.89 38.6088 471.009C38.6088 471.13 38.6362 471.241 38.6909 471.341C38.7456 471.441 38.8276 471.52 38.937 471.58C39.0488 471.637 39.1855 471.665 39.3472 471.665C39.5493 471.665 39.7277 471.623 39.8822 471.537C40.0368 471.451 40.1593 471.347 40.2496 471.223C40.3424 471.099 40.3923 470.979 40.3994 470.863L40.6812 471.18C40.6646 471.28 40.6194 471.391 40.5457 471.512C40.472 471.633 40.3733 471.75 40.2496 471.862C40.1283 471.971 39.9833 472.062 39.8145 472.136C39.648 472.208 39.4601 472.243 39.2509 472.243C38.9893 472.243 38.7598 472.192 38.5625 472.09C38.3675 471.988 38.2153 471.851 38.1059 471.68C37.9989 471.506 37.9454 471.312 37.9454 471.098C37.9454 470.891 37.9858 470.709 38.0667 470.553C38.1475 470.393 38.264 470.261 38.4162 470.157C38.5684 470.05 38.7515 469.969 38.9655 469.914C39.1795 469.859 39.4185 469.832 39.6825 469.832H40.4494ZM43.821 471.701C43.978 471.701 44.123 471.669 44.2562 471.605C44.3894 471.541 44.4987 471.453 44.5843 471.341C44.6699 471.227 44.7187 471.097 44.7306 470.952H45.3584C45.3465 471.18 45.2692 471.393 45.1265 471.59C44.9862 471.785 44.8019 471.944 44.5736 472.065C44.3454 472.184 44.0945 472.243 43.821 472.243C43.5309 472.243 43.2777 472.192 43.0613 472.09C42.8473 471.988 42.6689 471.847 42.5262 471.669C42.3859 471.491 42.2801 471.286 42.2088 471.055C42.1398 470.822 42.1054 470.576 42.1054 470.317V470.167C42.1054 469.908 42.1398 469.663 42.2088 469.433C42.2801 469.199 42.3859 468.994 42.5262 468.815C42.6689 468.637 42.8473 468.497 43.0613 468.395C43.2777 468.292 43.5309 468.241 43.821 468.241C44.123 468.241 44.387 468.303 44.6129 468.427C44.8388 468.548 45.0159 468.714 45.1443 468.926C45.2751 469.135 45.3465 469.373 45.3584 469.639H44.7306C44.7187 469.48 44.6735 469.336 44.595 469.208C44.5189 469.079 44.4143 468.977 44.2812 468.901C44.1504 468.823 43.997 468.783 43.821 468.783C43.6189 468.783 43.4489 468.824 43.311 468.905C43.1754 468.983 43.0672 469.09 42.9864 469.226C42.9079 469.359 42.8508 469.507 42.8152 469.671C42.7819 469.833 42.7652 469.998 42.7652 470.167V470.317C42.7652 470.486 42.7819 470.652 42.8152 470.816C42.8485 470.981 42.9043 471.129 42.9828 471.262C43.0637 471.395 43.1719 471.502 43.3074 471.583C43.4453 471.662 43.6165 471.701 43.821 471.701ZM47.9596 468.312V468.819H45.8729V468.312H47.9596ZM46.5792 467.374H47.2391V471.216C47.2391 471.347 47.2593 471.445 47.2997 471.512C47.3401 471.579 47.3924 471.623 47.4566 471.644C47.5208 471.665 47.5898 471.676 47.6635 471.676C47.7182 471.676 47.7753 471.671 47.8347 471.662C47.8966 471.65 47.9429 471.64 47.9738 471.633L47.9774 472.172C47.9251 472.189 47.8561 472.204 47.7705 472.218C47.6873 472.235 47.5862 472.243 47.4673 472.243C47.3056 472.243 47.157 472.211 47.0215 472.147C46.8859 472.083 46.7777 471.976 46.6969 471.826C46.6184 471.674 46.5792 471.469 46.5792 471.212V467.374ZM49.694 468.312V472.172H49.0306V468.312H49.694ZM48.9807 467.289C48.9807 467.182 49.0128 467.091 49.077 467.018C49.1435 466.944 49.241 466.907 49.3695 466.907C49.4955 466.907 49.5918 466.944 49.6584 467.018C49.7273 467.091 49.7618 467.182 49.7618 467.289C49.7618 467.391 49.7273 467.479 49.6584 467.553C49.5918 467.624 49.4955 467.66 49.3695 467.66C49.241 467.66 49.1435 467.624 49.077 467.553C49.0128 467.479 48.9807 467.391 48.9807 467.289ZM50.8221 470.285V470.203C50.8221 469.925 50.8626 469.667 50.9434 469.429C51.0243 469.189 51.1408 468.981 51.293 468.805C51.4451 468.626 51.6294 468.488 51.8458 468.391C52.0622 468.291 52.3048 468.241 52.5735 468.241C52.8446 468.241 53.0883 468.291 53.3047 468.391C53.5235 468.488 53.7089 468.626 53.8611 468.805C54.0157 468.981 54.1334 469.189 54.2142 469.429C54.2951 469.667 54.3355 469.925 54.3355 470.203V470.285C54.3355 470.563 54.2951 470.821 54.2142 471.059C54.1334 471.297 54.0157 471.505 53.8611 471.683C53.7089 471.859 53.5246 471.997 53.3083 472.097C53.0942 472.194 52.8517 472.243 52.5806 472.243C52.3095 472.243 52.0658 472.194 51.8494 472.097C51.633 471.997 51.4475 471.859 51.293 471.683C51.1408 471.505 51.0243 471.297 50.9434 471.059C50.8626 470.821 50.8221 470.563 50.8221 470.285ZM51.482 470.203V470.285C51.482 470.478 51.5046 470.66 51.5498 470.831C51.595 471 51.6627 471.149 51.7531 471.28C51.8458 471.411 51.9612 471.514 52.0991 471.59C52.237 471.664 52.3975 471.701 52.5806 471.701C52.7613 471.701 52.9195 471.664 53.055 471.59C53.1929 471.514 53.3071 471.411 53.3974 471.28C53.4878 471.149 53.5556 471 53.6007 470.831C53.6483 470.66 53.6721 470.478 53.6721 470.285V470.203C53.6721 470.013 53.6483 469.833 53.6007 469.664C53.5556 469.493 53.4866 469.342 53.3939 469.211C53.3035 469.078 53.1894 468.974 53.0514 468.897C52.9159 468.821 52.7566 468.783 52.5735 468.783C52.3927 468.783 52.2334 468.821 52.0955 468.897C51.96 468.974 51.8458 469.078 51.7531 469.211C51.6627 469.342 51.595 469.493 51.5498 469.664C51.5046 469.833 51.482 470.013 51.482 470.203ZM56.0664 469.136V472.172H55.4065V468.312H56.0307L56.0664 469.136ZM55.9095 470.096L55.6348 470.085C55.6372 469.821 55.6764 469.578 55.7525 469.354C55.8286 469.128 55.9356 468.932 56.0736 468.765C56.2115 468.599 56.3755 468.471 56.5658 468.38C56.7584 468.288 56.9712 468.241 57.2043 468.241C57.3945 468.241 57.5657 468.267 57.7179 468.32C57.8701 468.37 57.9997 468.45 58.1067 468.562C58.2161 468.674 58.2993 468.819 58.3564 468.997C58.4134 469.173 58.442 469.389 58.442 469.643V472.172H57.7785V469.636C57.7785 469.434 57.7488 469.272 57.6894 469.151C57.6299 469.027 57.5431 468.938 57.429 468.883C57.3148 468.826 57.1745 468.798 57.0081 468.798C56.844 468.798 56.6942 468.832 56.5586 468.901C56.4255 468.97 56.3102 469.065 56.2127 469.186C56.1175 469.308 56.0426 469.447 55.9879 469.604C55.9356 469.758 55.9095 469.922 55.9095 470.096ZM61.9349 471.148C61.9349 471.053 61.9135 470.965 61.8707 470.884C61.8303 470.801 61.7459 470.726 61.6175 470.66C61.4914 470.591 61.3012 470.531 61.0467 470.481C60.8327 470.436 60.6389 470.382 60.4653 470.321C60.2941 470.259 60.1479 470.184 60.0266 470.096C59.9077 470.008 59.8162 469.905 59.752 469.786C59.6878 469.667 59.6557 469.528 59.6557 469.368C59.6557 469.216 59.689 469.072 59.7555 468.937C59.8245 468.801 59.9208 468.681 60.0445 468.576C60.1705 468.472 60.3215 468.39 60.4974 468.33C60.6734 468.271 60.8696 468.241 61.086 468.241C61.3951 468.241 61.6591 468.296 61.8778 468.405C62.0966 468.515 62.2642 468.661 62.3808 468.844C62.4973 469.025 62.5555 469.226 62.5555 469.447H61.8957C61.8957 469.34 61.8636 469.236 61.7994 469.136C61.7375 469.034 61.646 468.95 61.5247 468.883C61.4058 468.817 61.2596 468.783 61.086 468.783C60.9029 468.783 60.7543 468.812 60.6401 468.869C60.5284 468.924 60.4463 468.994 60.394 469.079C60.3441 469.165 60.3191 469.255 60.3191 469.35C60.3191 469.422 60.331 469.486 60.3548 469.543C60.3809 469.598 60.4261 469.649 60.4903 469.696C60.5545 469.742 60.6449 469.784 60.7614 469.825C60.8779 469.865 61.0265 469.906 61.2073 469.946C61.5235 470.017 61.7839 470.103 61.9884 470.203C62.1929 470.303 62.3451 470.425 62.445 470.57C62.5448 470.715 62.5948 470.891 62.5948 471.098C62.5948 471.267 62.5591 471.422 62.4878 471.562C62.4188 471.702 62.3178 471.824 62.1846 471.926C62.0538 472.026 61.8969 472.104 61.7138 472.161C61.533 472.216 61.3297 472.243 61.1038 472.243C60.7638 472.243 60.476 472.183 60.2406 472.061C60.0052 471.94 59.8269 471.783 59.7056 471.59C59.5843 471.398 59.5237 471.195 59.5237 470.981H60.1871C60.1966 471.161 60.249 471.305 60.3441 471.412C60.4392 471.517 60.5557 471.592 60.6936 471.637C60.8315 471.68 60.9683 471.701 61.1038 471.701C61.2845 471.701 61.4355 471.677 61.5568 471.63C61.6805 471.582 61.7744 471.517 61.8386 471.434C61.9028 471.35 61.9349 471.255 61.9349 471.148Z" fill="#F7931A"/>
<path d="M107.509 450.261C107.509 450.765 107.1 451.174 106.596 451.174C106.091 451.174 105.682 450.765 105.682 450.261C105.682 449.756 106.091 449.348 106.596 449.348C107.1 449.348 107.509 449.756 107.509 450.261Z" fill="#777777"/>
<path d="M108.117 449.652C108.117 449.484 108.254 449.348 108.422 449.348H115.118C115.286 449.348 115.422 449.484 115.422 449.652C115.422 449.82 115.286 449.956 115.118 449.956H108.422C108.254 449.956 108.117 449.82 108.117 449.652Z" fill="#777777"/>
<path d="M108.422 450.565C108.254 450.565 108.117 450.701 108.117 450.87C108.117 451.038 108.254 451.174 108.422 451.174H112.074C112.242 451.174 112.379 451.038 112.379 450.87C112.379 450.701 112.242 450.565 112.074 450.565H108.422Z" fill="#777777"/>
<path d="M107.509 453C107.509 453.504 107.1 453.913 106.596 453.913C106.091 453.913 105.682 453.504 105.682 453C105.682 452.496 106.091 452.087 106.596 452.087C107.1 452.087 107.509 452.496 107.509 453Z" fill="#777777"/>
<path d="M108.422 452.087C108.254 452.087 108.117 452.223 108.117 452.391C108.117 452.56 108.254 452.696 108.422 452.696H113.292C113.46 452.696 113.596 452.56 113.596 452.391C113.596 452.223 113.46 452.087 113.292 452.087H108.422Z" fill="#777777"/>
<path d="M108.117 453.609C108.117 453.441 108.254 453.305 108.422 453.305H112.683C112.851 453.305 112.987 453.441 112.987 453.609C112.987 453.777 112.851 453.913 112.683 453.913H108.422C108.254 453.913 108.117 453.777 108.117 453.609Z" fill="#777777"/>
<path d="M106.596 456.653C107.1 456.653 107.509 456.244 107.509 455.74C107.509 455.235 107.1 454.826 106.596 454.826C106.091 454.826 105.682 455.235 105.682 455.74C105.682 456.244 106.091 456.653 106.596 456.653Z" fill="#777777"/>
<path d="M108.117 455.131C108.117 454.963 108.254 454.826 108.422 454.826H114.205C114.373 454.826 114.509 454.963 114.509 455.131C114.509 455.299 114.373 455.435 114.205 455.435H108.422C108.254 455.435 108.117 455.299 108.117 455.131Z" fill="#777777"/>
<path d="M108.422 456.044C108.254 456.044 108.117 456.18 108.117 456.348C108.117 456.516 108.254 456.653 108.422 456.653H110.857C111.025 456.653 111.161 456.516 111.161 456.348C111.161 456.18 111.025 456.044 110.857 456.044H108.422Z" fill="#777777"/>
<path d="M100.266 467.439L98.5464 472.172H97.8438L99.8234 466.978H100.276L100.266 467.439ZM101.707 472.172L99.9839 467.439L99.9732 466.978H100.426L102.413 472.172H101.707ZM101.618 470.249V470.813H98.6998V470.249H101.618ZM104.797 471.701C104.954 471.701 105.099 471.669 105.232 471.605C105.365 471.541 105.474 471.453 105.56 471.341C105.646 471.227 105.694 471.097 105.706 470.952H106.334C106.322 471.18 106.245 471.393 106.102 471.59C105.962 471.785 105.777 471.944 105.549 472.065C105.321 472.184 105.07 472.243 104.797 472.243C104.506 472.243 104.253 472.192 104.037 472.09C103.823 471.988 103.644 471.847 103.502 471.669C103.362 471.491 103.256 471.286 103.184 471.055C103.115 470.822 103.081 470.576 103.081 470.317V470.167C103.081 469.908 103.115 469.663 103.184 469.433C103.256 469.199 103.362 468.994 103.502 468.815C103.644 468.637 103.823 468.497 104.037 468.395C104.253 468.292 104.506 468.241 104.797 468.241C105.099 468.241 105.363 468.303 105.588 468.427C105.814 468.548 105.991 468.714 106.12 468.926C106.251 469.135 106.322 469.373 106.334 469.639H105.706C105.694 469.48 105.649 469.336 105.571 469.208C105.495 469.079 105.39 468.977 105.257 468.901C105.126 468.823 104.973 468.783 104.797 468.783C104.594 468.783 104.424 468.824 104.287 468.905C104.151 468.983 104.043 469.09 103.962 469.226C103.883 469.359 103.826 469.507 103.791 469.671C103.757 469.833 103.741 469.998 103.741 470.167V470.317C103.741 470.486 103.757 470.652 103.791 470.816C103.824 470.981 103.88 471.129 103.958 471.262C104.039 471.395 104.147 471.502 104.283 471.583C104.421 471.662 104.592 471.701 104.797 471.701ZM108.935 468.312V468.819H106.849V468.312H108.935ZM107.555 467.374H108.215V471.216C108.215 471.347 108.235 471.445 108.275 471.512C108.316 471.579 108.368 471.623 108.432 471.644C108.496 471.665 108.565 471.676 108.639 471.676C108.694 471.676 108.751 471.671 108.81 471.662C108.872 471.65 108.918 471.64 108.949 471.633L108.953 472.172C108.901 472.189 108.832 472.204 108.746 472.218C108.663 472.235 108.562 472.243 108.443 472.243C108.281 472.243 108.133 472.211 107.997 472.147C107.862 472.083 107.753 471.976 107.672 471.826C107.594 471.674 107.555 471.469 107.555 471.212V467.374ZM110.67 468.312V472.172H110.006V468.312H110.67ZM109.956 467.289C109.956 467.182 109.988 467.091 110.053 467.018C110.119 466.944 110.217 466.907 110.345 466.907C110.471 466.907 110.567 466.944 110.634 467.018C110.703 467.091 110.737 467.182 110.737 467.289C110.737 467.391 110.703 467.479 110.634 467.553C110.567 467.624 110.471 467.66 110.345 467.66C110.217 467.66 110.119 467.624 110.053 467.553C109.988 467.479 109.956 467.391 109.956 467.289ZM113.146 471.576L114.202 468.312H114.876L113.488 472.172H113.046L113.146 471.576ZM112.265 468.312L113.353 471.594L113.428 472.172H112.985L111.587 468.312H112.265ZM116.471 468.312V472.172H115.808V468.312H116.471ZM115.758 467.289C115.758 467.182 115.79 467.091 115.854 467.018C115.921 466.944 116.018 466.907 116.147 466.907C116.273 466.907 116.369 466.944 116.436 467.018C116.505 467.091 116.539 467.182 116.539 467.289C116.539 467.391 116.505 467.479 116.436 467.553C116.369 467.624 116.273 467.66 116.147 467.66C116.018 467.66 115.921 467.624 115.854 467.553C115.79 467.479 115.758 467.391 115.758 467.289ZM119.39 468.312V468.819H117.303V468.312H119.39ZM118.01 467.374H118.669V471.216C118.669 471.347 118.69 471.445 118.73 471.512C118.77 471.579 118.823 471.623 118.887 471.644C118.951 471.665 119.02 471.676 119.094 471.676C119.149 471.676 119.206 471.671 119.265 471.662C119.327 471.65 119.373 471.64 119.404 471.633L119.408 472.172C119.355 472.189 119.287 472.204 119.201 472.218C119.118 472.235 119.017 472.243 118.898 472.243C118.736 472.243 118.587 472.211 118.452 472.147C118.316 472.083 118.208 471.976 118.127 471.826C118.049 471.674 118.01 471.469 118.01 471.212V467.374ZM121.492 471.772L122.565 468.312H123.272L121.724 472.768C121.688 472.863 121.64 472.965 121.581 473.074C121.524 473.186 121.45 473.292 121.36 473.392C121.269 473.492 121.16 473.572 121.032 473.634C120.906 473.699 120.755 473.731 120.579 473.731C120.526 473.731 120.46 473.723 120.379 473.709C120.298 473.695 120.241 473.683 120.208 473.674L120.204 473.139C120.223 473.141 120.253 473.143 120.293 473.146C120.336 473.15 120.366 473.153 120.382 473.153C120.532 473.153 120.66 473.133 120.764 473.092C120.869 473.054 120.957 472.989 121.028 472.896C121.102 472.806 121.165 472.681 121.217 472.521L121.492 471.772ZM120.704 468.312L121.706 471.309L121.877 472.004L121.403 472.247L119.983 468.312H120.704Z" fill="#777777"/>
<path fill-rule="evenodd" clip-rule="evenodd" d="M185.29 451.619L187.011 451.901C187.152 451.924 187.255 452.045 187.255 452.188V453.789C187.255 453.931 187.154 454.052 187.014 454.076L185.291 454.379C185.191 454.724 185.054 455.056 184.881 455.371L185.9 456.785C185.983 456.901 185.97 457.06 185.87 457.161L184.737 458.294C184.637 458.394 184.48 458.408 184.364 458.326L182.936 457.324C182.621 457.5 182.286 457.639 181.937 457.742L181.633 459.457C181.609 459.596 181.488 459.697 181.347 459.697H179.745C179.603 459.697 179.481 459.594 179.458 459.454L179.174 457.748C178.826 457.647 178.489 457.508 178.171 457.333L176.753 458.326C176.638 458.408 176.48 458.394 176.38 458.294L175.248 457.161C175.148 457.06 175.135 456.901 175.217 456.786L176.219 455.385C176.042 455.065 175.902 454.727 175.8 454.377L174.103 454.076C173.964 454.051 173.862 453.931 173.862 453.789V452.188C173.862 452.046 173.965 451.924 174.106 451.901L175.804 451.618C175.906 451.267 176.046 450.93 176.222 450.611L175.233 449.195C175.151 449.08 175.165 448.922 175.265 448.822L176.397 447.691C176.498 447.59 176.656 447.577 176.772 447.66L178.179 448.664C178.495 448.491 178.83 448.354 179.179 448.253L179.458 446.549C179.481 446.408 179.602 446.305 179.745 446.305H181.347C181.488 446.305 181.609 446.407 181.633 446.546L181.934 448.259C182.281 448.36 182.616 448.5 182.933 448.675L184.343 447.661C184.459 447.578 184.618 447.591 184.719 447.692L185.851 448.823C185.951 448.924 185.965 449.081 185.884 449.197L184.879 450.628C185.052 450.942 185.189 451.274 185.29 451.619ZM178.521 453.001C178.521 454.126 179.433 455.039 180.559 455.039C181.684 455.039 182.597 454.126 182.597 453.001C182.597 451.875 181.684 450.963 180.559 450.963C179.433 450.963 178.521 451.875 178.521 453.001Z" fill="#777777"/>
<path d="M169.737 470.859C169.737 470.738 169.718 470.631 169.68 470.538C169.644 470.443 169.58 470.358 169.487 470.281C169.397 470.205 169.271 470.133 169.109 470.064C168.95 469.995 168.748 469.925 168.503 469.853C168.246 469.777 168.014 469.693 167.807 469.6C167.6 469.505 167.423 469.397 167.276 469.276C167.128 469.154 167.015 469.015 166.937 468.858C166.858 468.701 166.819 468.522 166.819 468.32C166.819 468.118 166.861 467.931 166.944 467.76C167.027 467.588 167.146 467.44 167.301 467.314C167.458 467.185 167.644 467.085 167.861 467.014C168.077 466.943 168.318 466.907 168.585 466.907C168.975 466.907 169.305 466.982 169.576 467.132C169.85 467.279 170.058 467.473 170.201 467.713C170.343 467.951 170.415 468.205 170.415 468.477H169.73C169.73 468.282 169.688 468.109 169.605 467.959C169.522 467.807 169.396 467.688 169.227 467.603C169.058 467.515 168.844 467.471 168.585 467.471C168.34 467.471 168.138 467.508 167.978 467.581C167.819 467.655 167.7 467.755 167.622 467.881C167.546 468.007 167.508 468.151 167.508 468.312C167.508 468.422 167.53 468.522 167.575 468.612C167.623 468.7 167.695 468.782 167.793 468.858C167.893 468.934 168.019 469.004 168.171 469.069C168.326 469.133 168.51 469.195 168.724 469.254C169.019 469.337 169.273 469.43 169.487 469.532C169.701 469.635 169.877 469.75 170.015 469.878C170.155 470.004 170.259 470.148 170.325 470.31C170.394 470.469 170.429 470.65 170.429 470.852C170.429 471.064 170.386 471.255 170.3 471.426C170.215 471.598 170.092 471.744 169.933 471.865C169.774 471.986 169.582 472.08 169.359 472.147C169.138 472.211 168.89 472.243 168.617 472.243C168.377 472.243 168.14 472.21 167.907 472.143C167.676 472.077 167.466 471.977 167.276 471.844C167.088 471.711 166.937 471.546 166.823 471.351C166.711 471.154 166.655 470.926 166.655 470.667H167.34C167.34 470.845 167.374 470.998 167.443 471.127C167.512 471.253 167.606 471.357 167.725 471.441C167.846 471.524 167.983 471.586 168.135 471.626C168.29 471.664 168.45 471.683 168.617 471.683C168.857 471.683 169.06 471.65 169.227 471.583C169.393 471.517 169.519 471.422 169.605 471.298C169.693 471.174 169.737 471.028 169.737 470.859ZM173.051 472.243C172.783 472.243 172.539 472.198 172.32 472.108C172.104 472.015 171.917 471.885 171.76 471.719C171.606 471.552 171.487 471.355 171.404 471.127C171.32 470.898 171.279 470.649 171.279 470.378V470.228C171.279 469.914 171.325 469.635 171.418 469.39C171.511 469.142 171.637 468.933 171.796 468.762C171.955 468.591 172.136 468.461 172.338 468.373C172.54 468.285 172.749 468.241 172.966 468.241C173.242 468.241 173.479 468.289 173.679 468.384C173.881 468.479 174.047 468.612 174.175 468.783C174.303 468.952 174.399 469.152 174.46 469.383C174.522 469.611 174.553 469.861 174.553 470.132V470.428H171.671V469.889H173.893V469.839C173.884 469.668 173.848 469.501 173.786 469.34C173.727 469.178 173.632 469.045 173.501 468.94C173.37 468.836 173.192 468.783 172.966 468.783C172.816 468.783 172.678 468.815 172.552 468.88C172.426 468.941 172.318 469.034 172.228 469.158C172.137 469.282 172.067 469.433 172.017 469.611C171.967 469.789 171.942 469.995 171.942 470.228V470.378C171.942 470.561 171.967 470.733 172.017 470.895C172.069 471.054 172.144 471.195 172.242 471.316C172.342 471.437 172.462 471.532 172.602 471.601C172.745 471.67 172.906 471.705 173.087 471.705C173.32 471.705 173.518 471.657 173.679 471.562C173.841 471.467 173.982 471.34 174.104 471.18L174.503 471.498C174.42 471.624 174.314 471.744 174.186 471.858C174.057 471.972 173.899 472.065 173.711 472.136C173.526 472.208 173.306 472.243 173.051 472.243ZM177.183 468.312V468.819H175.096V468.312H177.183ZM175.802 467.374H176.462V471.216C176.462 471.347 176.483 471.445 176.523 471.512C176.563 471.579 176.616 471.623 176.68 471.644C176.744 471.665 176.813 471.676 176.887 471.676C176.942 471.676 176.999 471.671 177.058 471.662C177.12 471.65 177.166 471.64 177.197 471.633L177.201 472.172C177.148 472.189 177.079 472.204 176.994 472.218C176.911 472.235 176.81 472.243 176.691 472.243C176.529 472.243 176.38 472.211 176.245 472.147C176.109 472.083 176.001 471.976 175.92 471.826C175.842 471.674 175.802 471.469 175.802 471.212V467.374ZM179.816 468.312V468.819H177.73V468.312H179.816ZM178.436 467.374H179.096V471.216C179.096 471.347 179.116 471.445 179.156 471.512C179.197 471.579 179.249 471.623 179.313 471.644C179.377 471.665 179.446 471.676 179.52 471.676C179.575 471.676 179.632 471.671 179.691 471.662C179.753 471.65 179.8 471.64 179.83 471.633L179.834 472.172C179.782 472.189 179.713 472.204 179.627 472.218C179.544 472.235 179.443 472.243 179.324 472.243C179.162 472.243 179.014 472.211 178.878 472.147C178.743 472.083 178.634 471.976 178.554 471.826C178.475 471.674 178.436 471.469 178.436 471.212V467.374ZM181.551 468.312V472.172H180.887V468.312H181.551ZM180.837 467.289C180.837 467.182 180.869 467.091 180.934 467.018C181 466.944 181.098 466.907 181.226 466.907C181.352 466.907 181.448 466.944 181.515 467.018C181.584 467.091 181.618 467.182 181.618 467.289C181.618 467.391 181.584 467.479 181.515 467.553C181.448 467.624 181.352 467.66 181.226 467.66C181.098 467.66 181 467.624 180.934 467.553C180.869 467.479 180.837 467.391 180.837 467.289ZM183.513 469.136V472.172H182.854V468.312H183.478L183.513 469.136ZM183.356 470.096L183.082 470.085C183.084 469.821 183.123 469.578 183.2 469.354C183.276 469.128 183.383 468.932 183.521 468.765C183.658 468.599 183.823 468.471 184.013 468.38C184.205 468.288 184.418 468.241 184.651 468.241C184.841 468.241 185.013 468.267 185.165 468.32C185.317 468.37 185.447 468.45 185.554 468.562C185.663 468.674 185.746 468.819 185.803 468.997C185.86 469.173 185.889 469.389 185.889 469.643V472.172H185.226V469.636C185.226 469.434 185.196 469.272 185.136 469.151C185.077 469.027 184.99 468.938 184.876 468.883C184.762 468.826 184.622 468.798 184.455 468.798C184.291 468.798 184.141 468.832 184.006 468.901C183.872 468.97 183.757 469.065 183.66 469.186C183.565 469.308 183.49 469.447 183.435 469.604C183.383 469.758 183.356 469.922 183.356 470.096ZM189.635 468.312H190.234V472.09C190.234 472.43 190.165 472.72 190.028 472.96C189.89 473.2 189.697 473.382 189.45 473.506C189.205 473.632 188.922 473.695 188.601 473.695C188.468 473.695 188.311 473.674 188.13 473.631C187.952 473.59 187.776 473.52 187.602 473.42C187.431 473.323 187.287 473.191 187.17 473.024L187.516 472.632C187.678 472.827 187.847 472.963 188.023 473.039C188.201 473.115 188.377 473.153 188.551 473.153C188.76 473.153 188.941 473.114 189.093 473.035C189.245 472.957 189.363 472.84 189.446 472.686C189.532 472.533 189.575 472.345 189.575 472.122V469.161L189.635 468.312ZM186.978 470.285V470.21C186.978 469.915 187.012 469.648 187.081 469.408C187.153 469.165 187.254 468.957 187.384 468.783C187.518 468.61 187.678 468.477 187.866 468.384C188.054 468.289 188.265 468.241 188.501 468.241C188.743 468.241 188.955 468.284 189.136 468.37C189.319 468.453 189.473 468.575 189.599 468.737C189.728 468.896 189.829 469.089 189.903 469.315C189.976 469.541 190.028 469.796 190.056 470.082V470.41C190.03 470.693 189.979 470.947 189.903 471.173C189.829 471.399 189.728 471.592 189.599 471.751C189.473 471.91 189.319 472.033 189.136 472.118C188.953 472.202 188.739 472.243 188.494 472.243C188.263 472.243 188.054 472.194 187.866 472.097C187.68 471.999 187.521 471.863 187.388 471.687C187.255 471.511 187.153 471.304 187.081 471.066C187.012 470.826 186.978 470.566 186.978 470.285ZM187.638 470.21V470.285C187.638 470.478 187.657 470.658 187.695 470.827C187.735 470.996 187.796 471.145 187.877 471.273C187.96 471.401 188.066 471.502 188.194 471.576C188.323 471.648 188.476 471.683 188.654 471.683C188.873 471.683 189.054 471.637 189.196 471.544C189.339 471.451 189.452 471.329 189.535 471.177C189.621 471.025 189.687 470.859 189.735 470.681V469.821C189.709 469.691 189.668 469.564 189.614 469.443C189.561 469.32 189.492 469.21 189.407 469.115C189.324 469.018 189.22 468.94 189.097 468.883C188.973 468.826 188.828 468.798 188.661 468.798C188.481 468.798 188.325 468.836 188.194 468.912C188.066 468.985 187.96 469.088 187.877 469.218C187.796 469.347 187.735 469.497 187.695 469.668C187.657 469.837 187.638 470.017 187.638 470.21ZM193.727 471.148C193.727 471.053 193.706 470.965 193.663 470.884C193.623 470.801 193.538 470.726 193.41 470.66C193.284 470.591 193.094 470.531 192.839 470.481C192.625 470.436 192.431 470.382 192.258 470.321C192.087 470.259 191.94 470.184 191.819 470.096C191.7 470.008 191.609 469.905 191.544 469.786C191.48 469.667 191.448 469.528 191.448 469.368C191.448 469.216 191.481 469.072 191.548 468.937C191.617 468.801 191.713 468.681 191.837 468.576C191.963 468.472 192.114 468.39 192.29 468.33C192.466 468.271 192.662 468.241 192.878 468.241C193.188 468.241 193.451 468.296 193.67 468.405C193.889 468.515 194.057 468.661 194.173 468.844C194.29 469.025 194.348 469.226 194.348 469.447H193.688C193.688 469.34 193.656 469.236 193.592 469.136C193.53 469.034 193.438 468.95 193.317 468.883C193.198 468.817 193.052 468.783 192.878 468.783C192.695 468.783 192.547 468.812 192.433 468.869C192.321 468.924 192.239 468.994 192.186 469.079C192.136 469.165 192.112 469.255 192.112 469.35C192.112 469.422 192.123 469.486 192.147 469.543C192.173 469.598 192.219 469.649 192.283 469.696C192.347 469.742 192.437 469.784 192.554 469.825C192.67 469.865 192.819 469.906 193 469.946C193.316 470.017 193.576 470.103 193.781 470.203C193.985 470.303 194.138 470.425 194.237 470.57C194.337 470.715 194.387 470.891 194.387 471.098C194.387 471.267 194.352 471.422 194.28 471.562C194.211 471.702 194.11 471.824 193.977 471.926C193.846 472.026 193.689 472.104 193.506 472.161C193.325 472.216 193.122 472.243 192.896 472.243C192.556 472.243 192.268 472.183 192.033 472.061C191.798 471.94 191.619 471.783 191.498 471.59C191.377 471.398 191.316 471.195 191.316 470.981H191.98C191.989 471.161 192.041 471.305 192.136 471.412C192.232 471.517 192.348 471.592 192.486 471.637C192.624 471.68 192.761 471.701 192.896 471.701C193.077 471.701 193.228 471.677 193.349 471.63C193.473 471.582 193.567 471.517 193.631 471.434C193.695 471.35 193.727 471.255 193.727 471.148Z" fill="#777777"/>
<rect x="14.9818" y="394.469" width="70.9194" height="32.045" rx="3.04375" fill="#F7931A"/>
<path d="M32.2453 407.068H34.5376C35.0576 407.068 35.4967 407.147 35.855 407.305C36.2164 407.464 36.4907 407.699 36.6777 408.009C36.868 408.317 36.9631 408.696 36.9631 409.146C36.9631 409.463 36.8981 409.753 36.7681 410.016C36.6413 410.276 36.4574 410.498 36.2164 410.682C35.9786 410.863 35.6933 410.998 35.3604 411.086L35.1035 411.186H32.9491L32.9396 410.44H34.5661C34.8959 410.44 35.1701 410.382 35.3889 410.268C35.6077 410.151 35.7725 409.994 35.8835 409.798C35.9945 409.601 36.05 409.384 36.05 409.146C36.05 408.88 35.9976 408.647 35.893 408.447C35.7884 408.247 35.6235 408.093 35.3984 407.986C35.1765 407.875 34.8895 407.819 34.5376 407.819H33.1631V413.992H32.2453V407.068ZM36.2925 413.992L34.6089 410.853L35.5649 410.849L37.2722 413.935V413.992H36.2925ZM40.5538 414.087C40.1955 414.087 39.8705 414.027 39.5788 413.907C39.2903 413.783 39.0414 413.61 38.8321 413.388C38.626 413.166 38.4675 412.903 38.3565 412.599C38.2456 412.294 38.1901 411.961 38.1901 411.6V411.4C38.1901 410.982 38.2519 410.609 38.3756 410.283C38.4992 409.953 38.6673 409.674 38.8797 409.446C39.0921 409.217 39.3331 409.045 39.6026 408.927C39.8721 408.81 40.1511 408.751 40.4396 408.751C40.8074 408.751 41.1245 408.815 41.3908 408.941C41.6603 409.068 41.8806 409.246 42.0519 409.474C42.2231 409.699 42.3499 409.966 42.4323 410.273C42.5148 410.577 42.556 410.91 42.556 411.272V411.667H38.7132V410.948H41.6761V410.882C41.6635 410.654 41.6159 410.432 41.5335 410.216C41.4542 410 41.3274 409.823 41.153 409.683C40.9786 409.544 40.7408 409.474 40.4396 409.474C40.2399 409.474 40.056 409.517 39.8879 409.603C39.7199 409.685 39.5756 409.809 39.4552 409.973C39.3347 410.138 39.2411 410.34 39.1746 410.577C39.108 410.815 39.0747 411.09 39.0747 411.4V411.6C39.0747 411.844 39.108 412.074 39.1746 412.29C39.2443 412.502 39.3442 412.689 39.4742 412.851C39.6073 413.012 39.7675 413.139 39.9545 413.231C40.1448 413.323 40.3603 413.369 40.6013 413.369C40.912 413.369 41.1752 413.306 41.3908 413.179C41.6064 413.052 41.795 412.882 41.9567 412.67L42.4894 413.093C42.3784 413.261 42.2373 413.421 42.0661 413.574C41.8949 413.726 41.6841 413.85 41.4336 413.945C41.1863 414.04 40.893 414.087 40.5538 414.087ZM47.1264 415.971V409.836L47.2024 408.846H48.0109V415.971H47.1264ZM43.6688 411.476V411.376C43.6688 410.983 43.7148 410.627 43.8068 410.306C43.8987 409.983 44.0335 409.706 44.211 409.474C44.3886 409.243 44.6026 409.065 44.8531 408.941C45.1067 408.815 45.3952 408.751 45.7186 408.751C46.042 408.751 46.3258 408.808 46.5699 408.922C46.8172 409.033 47.0265 409.197 47.1977 409.412C47.3721 409.625 47.51 409.882 47.6115 410.183C47.7129 410.484 47.7827 410.825 47.8207 411.205V411.643C47.7858 412.02 47.7177 412.359 47.6162 412.661C47.5147 412.962 47.3768 413.219 47.2024 413.431C47.0312 413.643 46.8204 413.807 46.5699 413.921C46.3226 414.032 46.0357 414.087 45.7091 414.087C45.392 414.087 45.1067 414.022 44.8531 413.892C44.6026 413.762 44.3886 413.58 44.211 413.345C44.0366 413.111 43.9019 412.835 43.8068 412.518C43.7148 412.198 43.6688 411.85 43.6688 411.476ZM44.5534 411.376V411.476C44.5534 411.733 44.5804 411.976 44.6343 412.204C44.6882 412.429 44.7706 412.629 44.8816 412.803C44.9957 412.978 45.1384 413.116 45.3096 413.217C45.484 413.315 45.6901 413.364 45.9279 413.364C46.2196 413.364 46.4621 413.301 46.6555 413.174C46.8521 413.047 47.009 412.881 47.1264 412.675C47.2437 412.466 47.334 412.242 47.3974 412.004V410.858C47.3626 410.684 47.3071 410.514 47.231 410.349C47.1581 410.184 47.0629 410.037 46.9456 409.907C46.8283 409.774 46.6856 409.669 46.5176 409.593C46.3527 409.514 46.1593 409.474 45.9374 409.474C45.6964 409.474 45.4888 409.525 45.3144 409.626C45.14 409.728 44.9957 409.867 44.8816 410.045C44.7706 410.219 44.6882 410.421 44.6343 410.649C44.5804 410.877 44.5534 411.12 44.5534 411.376ZM52.8762 412.803V408.846H53.7608V413.992H52.919L52.8762 412.803ZM53.0426 411.719L53.4088 411.709C53.4088 412.052 53.3724 412.369 53.2995 412.661C53.2297 412.949 53.1156 413.2 52.957 413.412C52.7985 413.624 52.5908 413.791 52.334 413.911C52.0772 414.029 51.7649 414.087 51.3971 414.087C51.1466 414.087 50.9168 414.051 50.7075 413.978C50.5014 413.905 50.3239 413.792 50.1749 413.64C50.0258 413.488 49.9101 413.29 49.8277 413.046C49.7484 412.802 49.7088 412.508 49.7088 412.166V408.846H50.5886V412.175C50.5886 412.407 50.614 412.599 50.6647 412.751C50.7186 412.9 50.7899 413.019 50.8787 413.108C50.9707 413.193 51.0721 413.253 51.1831 413.288C51.2972 413.323 51.4146 413.341 51.535 413.341C51.9092 413.341 52.2056 413.269 52.4244 413.127C52.6431 412.981 52.8001 412.786 52.8952 412.542C52.9935 412.294 53.0426 412.02 53.0426 411.719ZM57.5417 414.087C57.1834 414.087 56.8584 414.027 56.5667 413.907C56.2782 413.783 56.0293 413.61 55.8201 413.388C55.614 413.166 55.4554 412.903 55.3445 412.599C55.2335 412.294 55.178 411.961 55.178 411.6V411.4C55.178 410.982 55.2398 410.609 55.3635 410.283C55.4872 409.953 55.6552 409.674 55.8676 409.446C56.0801 409.217 56.321 409.045 56.5905 408.927C56.86 408.81 57.139 408.751 57.4275 408.751C57.7953 408.751 58.1124 408.815 58.3787 408.941C58.6482 409.068 58.8686 409.246 59.0398 409.474C59.211 409.699 59.3378 409.966 59.4202 410.273C59.5027 410.577 59.5439 410.91 59.5439 411.272V411.667H55.7012V410.948H58.6641V410.882C58.6514 410.654 58.6038 410.432 58.5214 410.216C58.4421 410 58.3153 409.823 58.1409 409.683C57.9665 409.544 57.7287 409.474 57.4275 409.474C57.2278 409.474 57.0439 409.517 56.8759 409.603C56.7078 409.685 56.5636 409.809 56.4431 409.973C56.3226 410.138 56.2291 410.34 56.1625 410.577C56.0959 410.815 56.0626 411.09 56.0626 411.4V411.6C56.0626 411.844 56.0959 412.074 56.1625 412.29C56.2322 412.502 56.3321 412.689 56.4621 412.851C56.5953 413.012 56.7554 413.139 56.9424 413.231C57.1327 413.323 57.3483 413.369 57.5892 413.369C57.9 413.369 58.1631 413.306 58.3787 413.179C58.5943 413.052 58.783 412.882 58.9447 412.67L59.4773 413.093C59.3663 413.261 59.2253 413.421 59.054 413.574C58.8828 413.726 58.672 413.85 58.4215 413.945C58.1742 414.04 57.8809 414.087 57.5417 414.087ZM63.8717 412.627C63.8717 412.5 63.8432 412.383 63.7861 412.275C63.7322 412.164 63.6197 412.064 63.4485 411.976C63.2804 411.884 63.0268 411.804 62.6875 411.738C62.4022 411.678 62.1438 411.606 61.9123 411.524C61.684 411.441 61.489 411.342 61.3273 411.224C61.1688 411.107 61.0468 410.969 60.9611 410.811C60.8755 410.652 60.8327 410.467 60.8327 410.254C60.8327 410.051 60.8771 409.859 60.9659 409.679C61.0578 409.498 61.1863 409.338 61.3511 409.198C61.5192 409.059 61.7205 408.949 61.9551 408.87C62.1897 408.791 62.4513 408.751 62.7398 408.751C63.152 408.751 63.5039 408.824 63.7956 408.97C64.0873 409.116 64.3109 409.311 64.4662 409.555C64.6216 409.796 64.6993 410.064 64.6993 410.359H63.8194C63.8194 410.216 63.7766 410.078 63.691 409.945C63.6086 409.809 63.4865 409.696 63.3248 409.607C63.1663 409.519 62.9713 409.474 62.7398 409.474C62.4957 409.474 62.2975 409.512 62.1454 409.588C61.9963 409.661 61.887 409.755 61.8172 409.869C61.7506 409.983 61.7173 410.103 61.7173 410.23C61.7173 410.325 61.7332 410.411 61.7649 410.487C61.7998 410.56 61.86 410.628 61.9456 410.692C62.0312 410.752 62.1517 410.809 62.3071 410.863C62.4624 410.917 62.6606 410.971 62.9015 411.025C63.3232 411.12 63.6704 411.234 63.9431 411.367C64.2157 411.5 64.4187 411.663 64.5518 411.857C64.685 412.05 64.7516 412.285 64.7516 412.561C64.7516 412.786 64.704 412.992 64.6089 413.179C64.5169 413.366 64.3822 413.528 64.2046 413.664C64.0303 413.797 63.821 413.902 63.5769 413.978C63.3359 414.051 63.0648 414.087 62.7636 414.087C62.3102 414.087 61.9266 414.006 61.6127 413.845C61.2988 413.683 61.061 413.474 60.8993 413.217C60.7376 412.96 60.6568 412.689 60.6568 412.404H61.5414C61.554 412.645 61.6238 412.837 61.7506 412.979C61.8774 413.119 62.0328 413.219 62.2167 413.279C62.4006 413.336 62.5829 413.364 62.7636 413.364C63.0046 413.364 63.2059 413.333 63.3676 413.269C63.5325 413.206 63.6577 413.119 63.7433 413.008C63.8289 412.897 63.8717 412.77 63.8717 412.627ZM68.366 408.846V409.522H65.5838V408.846H68.366ZM66.5255 407.596H67.4053V412.718C67.4053 412.892 67.4323 413.024 67.4862 413.112C67.5401 413.201 67.6098 413.26 67.6954 413.288C67.781 413.317 67.873 413.331 67.9713 413.331C68.0442 413.331 68.1203 413.325 68.1996 413.312C68.282 413.296 68.3438 413.284 68.385 413.274L68.3898 413.992C68.32 414.014 68.2281 414.035 68.114 414.054C68.003 414.076 67.8682 414.087 67.7097 414.087C67.4941 414.087 67.296 414.045 67.1152 413.959C66.9345 413.873 66.7902 413.731 66.6824 413.531C66.5778 413.328 66.5255 413.055 66.5255 412.713V407.596Z" fill="white"/>
<rect x="95.0325" y="394.469" width="31.655" height="31.655" rx="3.44076" fill="#F7931A"/>
<rect x="110.516" y="409.953" width="0.688152" height="0.688152" fill="white" stroke="white" stroke-width="0.688152"/>
<rect x="110.516" y="407.203" width="0.688152" height="0.688152" fill="white" stroke="white" stroke-width="0.688152"/>
<rect x="107.763" y="409.953" width="0.688152" height="0.688152" fill="white" stroke="white" stroke-width="0.688152"/>
<rect x="105.011" y="409.953" width="0.688152" height="0.688152" fill="white" stroke="white" stroke-width="0.688152"/>
<rect x="110.516" y="404.45" width="0.688152" height="0.688152" fill="white" stroke="white" stroke-width="0.688152"/>
<rect x="110.516" y="412.707" width="0.688152" height="0.688152" fill="white" stroke="white" stroke-width="0.688152"/>
<rect x="110.516" y="415.461" width="0.688152" height="0.688152" fill="white" stroke="white" stroke-width="0.688152"/>
<rect x="113.269" y="409.953" width="0.688152" height="0.688152" fill="white" stroke="white" stroke-width="0.688152"/>
<rect x="113.269" y="412.707" width="0.688152" height="0.688152" fill="white" stroke="white" stroke-width="0.688152"/>
<rect x="113.269" y="415.461" width="0.688152" height="0.688152" fill="white" stroke="white" stroke-width="0.688152"/>
<rect x="116.021" y="409.953" width="0.688152" height="0.688152" fill="white" stroke="white" stroke-width="0.688152"/>
<rect x="116.021" y="412.707" width="0.688152" height="0.688152" fill="white" stroke="white" stroke-width="0.688152"/>
<rect x="116.021" y="415.461" width="0.688152" height="0.688152" fill="white" stroke="white" stroke-width="0.688152"/>
<mask id="path-29-inside-1_267_11513" fill="white">
<rect x="104.667" y="404.105" width="4.12891" height="4.12891" rx="0.688152"/>
</mask>
<rect x="104.667" y="404.105" width="4.12891" height="4.12891" rx="0.688152" stroke="white" stroke-width="2.75261" mask="url(#path-29-inside-1_267_11513)"/>
<mask id="path-30-inside-2_267_11513" fill="white">
<rect x="104.667" y="412.363" width="4.12891" height="4.12891" rx="0.688152"/>
</mask>
<rect x="104.667" y="412.363" width="4.12891" height="4.12891" rx="0.688152" stroke="white" stroke-width="2.75261" mask="url(#path-30-inside-2_267_11513)"/>
<mask id="path-31-inside-3_267_11513" fill="white">
<rect x="112.924" y="404.105" width="4.12891" height="4.12891" rx="0.688152"/>
</mask>
<rect x="112.924" y="404.105" width="4.12891" height="4.12891" rx="0.688152" stroke="white" stroke-width="2.75261" mask="url(#path-31-inside-3_267_11513)"/>
<rect x="135.819" y="394.469" width="70.9194" height="32.045" rx="3.04375" fill="#F7931A"/>
<path d="M166.136 411.277H164.286V410.53H166.136C166.494 410.53 166.784 410.473 167.006 410.359C167.228 410.245 167.39 410.086 167.491 409.883C167.596 409.68 167.648 409.449 167.648 409.189C167.648 408.951 167.596 408.727 167.491 408.518C167.39 408.309 167.228 408.141 167.006 408.014C166.784 407.884 166.494 407.819 166.136 407.819H164.5V413.992H163.582V407.068H166.136C166.659 407.068 167.101 407.158 167.463 407.339C167.824 407.519 168.099 407.77 168.286 408.09C168.473 408.407 168.566 408.77 168.566 409.179C168.566 409.623 168.473 410.002 168.286 410.316C168.099 410.63 167.824 410.869 167.463 411.034C167.101 411.196 166.659 411.277 166.136 411.277ZM172.875 413.112V410.463C172.875 410.26 172.834 410.084 172.751 409.935C172.672 409.783 172.552 409.666 172.39 409.584C172.228 409.501 172.028 409.46 171.791 409.46C171.569 409.46 171.374 409.498 171.206 409.574C171.041 409.65 170.911 409.75 170.816 409.874C170.724 409.997 170.678 410.13 170.678 410.273H169.798C169.798 410.089 169.846 409.907 169.941 409.726C170.036 409.545 170.172 409.382 170.35 409.236C170.53 409.087 170.746 408.97 170.996 408.884C171.25 408.796 171.532 408.751 171.843 408.751C172.217 408.751 172.547 408.815 172.832 408.941C173.121 409.068 173.346 409.26 173.508 409.517C173.672 409.771 173.755 410.089 173.755 410.473V412.87C173.755 413.041 173.769 413.223 173.798 413.417C173.829 413.61 173.875 413.777 173.936 413.916V413.992H173.018C172.973 413.891 172.938 413.756 172.913 413.588C172.888 413.417 172.875 413.258 172.875 413.112ZM173.027 410.872L173.037 411.491H172.147C171.897 411.491 171.673 411.511 171.477 411.552C171.28 411.59 171.115 411.649 170.982 411.728C170.849 411.808 170.748 411.908 170.678 412.028C170.608 412.145 170.573 412.283 170.573 412.442C170.573 412.603 170.61 412.751 170.683 412.884C170.755 413.017 170.865 413.123 171.011 413.203C171.16 413.279 171.342 413.317 171.558 413.317C171.827 413.317 172.065 413.26 172.271 413.146C172.477 413.032 172.64 412.892 172.761 412.727C172.885 412.562 172.951 412.402 172.961 412.247L173.336 412.67C173.314 412.803 173.254 412.951 173.156 413.112C173.057 413.274 172.926 413.429 172.761 413.578C172.599 413.724 172.406 413.846 172.181 413.945C171.959 414.04 171.708 414.087 171.429 414.087C171.08 414.087 170.775 414.019 170.511 413.883C170.251 413.746 170.048 413.564 169.903 413.336C169.76 413.104 169.689 412.846 169.689 412.561C169.689 412.285 169.742 412.042 169.85 411.833C169.958 411.621 170.113 411.445 170.316 411.305C170.519 411.162 170.763 411.055 171.049 410.982C171.334 410.909 171.653 410.872 172.005 410.872H173.027ZM176.813 413.46L178.244 408.846H179.186L177.122 414.786C177.074 414.913 177.011 415.05 176.932 415.195C176.856 415.344 176.757 415.486 176.637 415.619C176.516 415.752 176.371 415.86 176.199 415.942C176.031 416.028 175.83 416.07 175.595 416.07C175.526 416.07 175.437 416.061 175.329 416.042C175.221 416.023 175.145 416.007 175.101 415.994L175.096 415.281C175.121 415.284 175.161 415.287 175.215 415.291C175.272 415.297 175.312 415.3 175.334 415.3C175.534 415.3 175.703 415.273 175.843 415.219C175.982 415.168 176.099 415.081 176.195 414.958C176.293 414.837 176.377 414.671 176.447 414.458L176.813 413.46ZM175.762 408.846L177.098 412.841L177.326 413.769L176.694 414.092L174.801 408.846H175.762Z" fill="white"/>
<path d="M27.6394 189.052V199.496H26.3197V190.7L23.6588 191.67V190.479L27.4325 189.052H27.6394Z" fill="black"/>
<path d="M114.115 198.412V199.496H107.317V198.547L110.719 194.759C111.138 194.293 111.461 193.898 111.69 193.575C111.923 193.247 112.084 192.954 112.175 192.698C112.27 192.436 112.317 192.17 112.317 191.899C112.317 191.556 112.246 191.247 112.103 190.971C111.965 190.691 111.761 190.467 111.49 190.301C111.219 190.134 110.891 190.051 110.505 190.051C110.044 190.051 109.659 190.141 109.35 190.322C109.045 190.498 108.817 190.745 108.665 191.064C108.513 191.383 108.437 191.749 108.437 192.163H107.117C107.117 191.578 107.245 191.043 107.502 190.557C107.759 190.072 108.139 189.687 108.644 189.402C109.148 189.112 109.768 188.967 110.505 188.967C111.162 188.967 111.723 189.083 112.189 189.316C112.655 189.544 113.012 189.868 113.259 190.286C113.511 190.7 113.637 191.185 113.637 191.742C113.637 192.046 113.585 192.355 113.48 192.669C113.38 192.978 113.24 193.287 113.059 193.596C112.883 193.906 112.676 194.21 112.439 194.51C112.206 194.809 111.956 195.104 111.69 195.394L108.907 198.412H114.115Z" fill="black"/>
<path d="M193.243 193.654H194.185C194.646 193.654 195.027 193.577 195.326 193.425C195.631 193.268 195.857 193.057 196.004 192.79C196.156 192.519 196.232 192.215 196.232 191.877C196.232 191.478 196.166 191.142 196.033 190.871C195.899 190.6 195.7 190.396 195.433 190.258C195.167 190.12 194.829 190.051 194.42 190.051C194.049 190.051 193.721 190.125 193.436 190.272C193.155 190.415 192.934 190.619 192.772 190.886C192.615 191.152 192.537 191.466 192.537 191.827H191.217C191.217 191.299 191.35 190.819 191.617 190.386C191.883 189.953 192.256 189.609 192.737 189.352C193.222 189.095 193.783 188.967 194.42 188.967C195.048 188.967 195.597 189.078 196.068 189.302C196.539 189.521 196.905 189.849 197.167 190.286C197.428 190.719 197.559 191.259 197.559 191.906C197.559 192.167 197.497 192.448 197.374 192.748C197.255 193.042 197.067 193.318 196.81 193.575C196.558 193.832 196.23 194.044 195.826 194.21C195.421 194.372 194.936 194.453 194.37 194.453H193.243V193.654ZM193.243 194.738V193.946H194.37C195.031 193.946 195.578 194.024 196.011 194.181C196.444 194.338 196.784 194.548 197.031 194.809C197.283 195.071 197.459 195.358 197.559 195.672C197.664 195.982 197.716 196.291 197.716 196.6C197.716 197.085 197.633 197.515 197.466 197.891C197.305 198.267 197.074 198.585 196.774 198.847C196.48 199.108 196.132 199.306 195.733 199.439C195.333 199.572 194.898 199.639 194.427 199.639C193.976 199.639 193.55 199.575 193.15 199.446C192.756 199.318 192.406 199.132 192.102 198.89C191.797 198.642 191.56 198.34 191.388 197.984C191.217 197.622 191.132 197.211 191.132 196.75H192.451C192.451 197.111 192.53 197.427 192.687 197.698C192.848 197.969 193.077 198.181 193.372 198.333C193.671 198.481 194.023 198.554 194.427 198.554C194.832 198.554 195.179 198.485 195.469 198.348C195.764 198.205 195.99 197.991 196.147 197.706C196.308 197.42 196.389 197.061 196.389 196.628C196.389 196.196 196.299 195.841 196.118 195.565C195.937 195.285 195.681 195.078 195.348 194.945C195.02 194.807 194.632 194.738 194.185 194.738H193.243Z" fill="black"/>
<path d="M30.3217 250.18V251.265H22.817V250.487L27.4682 243.289H28.5454L27.3897 245.372L24.3151 250.18H30.3217ZM28.8736 243.289V253.676H27.5538V243.289H28.8736Z" fill="black"/>
<path d="M108.979 248.732L107.923 248.461L108.444 243.289H113.773V244.509H109.564L109.25 247.334C109.44 247.224 109.68 247.122 109.97 247.027C110.265 246.932 110.603 246.884 110.983 246.884C111.464 246.884 111.894 246.968 112.275 247.134C112.655 247.296 112.978 247.529 113.245 247.833C113.516 248.138 113.723 248.504 113.865 248.932C114.008 249.36 114.079 249.838 114.079 250.366C114.079 250.865 114.011 251.324 113.873 251.743C113.739 252.161 113.537 252.527 113.266 252.841C112.995 253.15 112.653 253.39 112.239 253.562C111.83 253.733 111.347 253.818 110.791 253.818C110.372 253.818 109.975 253.761 109.599 253.647C109.229 253.528 108.896 253.35 108.601 253.112C108.311 252.87 108.073 252.57 107.887 252.213C107.707 251.852 107.592 251.429 107.545 250.944H108.8C108.858 251.334 108.972 251.662 109.143 251.928C109.314 252.194 109.538 252.396 109.813 252.534C110.094 252.668 110.42 252.734 110.791 252.734C111.105 252.734 111.383 252.679 111.625 252.57C111.868 252.461 112.073 252.304 112.239 252.099C112.405 251.895 112.531 251.647 112.617 251.357C112.707 251.067 112.753 250.741 112.753 250.38C112.753 250.052 112.707 249.747 112.617 249.467C112.527 249.186 112.391 248.941 112.21 248.732C112.034 248.523 111.818 248.361 111.561 248.247C111.304 248.128 111.01 248.069 110.677 248.069C110.234 248.069 109.899 248.128 109.671 248.247C109.447 248.366 109.217 248.528 108.979 248.732Z" fill="black"/>
<path d="M196.382 243.275H196.496V244.395H196.382C195.683 244.395 195.098 244.509 194.627 244.737C194.156 244.961 193.783 245.263 193.507 245.643C193.231 246.019 193.032 246.442 192.908 246.913C192.789 247.384 192.73 247.862 192.73 248.347V249.873C192.73 250.335 192.784 250.744 192.894 251.1C193.003 251.452 193.153 251.75 193.343 251.992C193.533 252.235 193.747 252.418 193.985 252.542C194.228 252.665 194.48 252.727 194.741 252.727C195.046 252.727 195.317 252.67 195.555 252.556C195.792 252.437 195.992 252.273 196.154 252.064C196.32 251.85 196.446 251.597 196.532 251.307C196.617 251.017 196.66 250.699 196.66 250.351C196.66 250.042 196.622 249.745 196.546 249.46C196.47 249.17 196.354 248.913 196.197 248.689C196.04 248.461 195.842 248.283 195.604 248.154C195.371 248.021 195.093 247.954 194.77 247.954C194.404 247.954 194.061 248.045 193.743 248.226C193.429 248.402 193.169 248.635 192.965 248.925C192.765 249.21 192.651 249.522 192.623 249.859L191.923 249.852C191.99 249.319 192.114 248.865 192.294 248.49C192.48 248.109 192.708 247.8 192.979 247.562C193.255 247.32 193.562 247.144 193.9 247.034C194.242 246.92 194.603 246.863 194.984 246.863C195.502 246.863 195.949 246.961 196.325 247.155C196.701 247.35 197.01 247.612 197.252 247.94C197.495 248.264 197.673 248.63 197.787 249.039C197.906 249.443 197.966 249.859 197.966 250.287C197.966 250.777 197.897 251.236 197.759 251.664C197.621 252.092 197.414 252.468 197.138 252.791C196.867 253.115 196.532 253.367 196.132 253.547C195.733 253.728 195.269 253.818 194.741 253.818C194.18 253.818 193.69 253.704 193.272 253.476C192.853 253.243 192.506 252.934 192.23 252.549C191.954 252.163 191.747 251.735 191.61 251.265C191.472 250.794 191.403 250.316 191.403 249.831V249.21C191.403 248.478 191.476 247.759 191.624 247.056C191.771 246.352 192.026 245.714 192.387 245.144C192.753 244.573 193.26 244.119 193.907 243.781C194.553 243.444 195.379 243.275 196.382 243.275Z" fill="black"/>
<path d="M30.015 297.469V298.211L25.7133 307.855H24.3222L28.6167 298.553H22.9953V297.469H30.015Z" fill="black"/>
<path d="M113.858 305.045C113.858 305.677 113.711 306.215 113.416 306.657C113.126 307.095 112.731 307.427 112.232 307.656C111.737 307.884 111.178 307.998 110.555 307.998C109.932 307.998 109.371 307.884 108.872 307.656C108.372 307.427 107.978 307.095 107.688 306.657C107.397 306.215 107.252 305.677 107.252 305.045C107.252 304.631 107.331 304.253 107.488 303.91C107.65 303.563 107.875 303.261 108.166 303.004C108.46 302.748 108.808 302.55 109.207 302.412C109.611 302.27 110.056 302.198 110.541 302.198C111.178 302.198 111.747 302.322 112.246 302.569C112.745 302.812 113.138 303.147 113.423 303.575C113.713 304.003 113.858 304.493 113.858 305.045ZM112.531 305.016C112.531 304.631 112.448 304.291 112.282 303.996C112.115 303.696 111.882 303.463 111.583 303.297C111.283 303.131 110.936 303.047 110.541 303.047C110.137 303.047 109.787 303.131 109.492 303.297C109.202 303.463 108.976 303.696 108.815 303.996C108.653 304.291 108.572 304.631 108.572 305.016C108.572 305.416 108.651 305.758 108.808 306.043C108.969 306.324 109.198 306.54 109.492 306.693C109.792 306.84 110.146 306.914 110.555 306.914C110.964 306.914 111.316 306.84 111.611 306.693C111.906 306.54 112.132 306.324 112.289 306.043C112.451 305.758 112.531 305.416 112.531 305.016ZM113.616 300.172C113.616 300.676 113.483 301.131 113.216 301.535C112.95 301.939 112.586 302.258 112.125 302.491C111.664 302.724 111.14 302.84 110.555 302.84C109.961 302.84 109.431 302.724 108.965 302.491C108.503 302.258 108.142 301.939 107.88 301.535C107.619 301.131 107.488 300.676 107.488 300.172C107.488 299.568 107.619 299.055 107.88 298.631C108.147 298.208 108.51 297.885 108.972 297.661C109.433 297.438 109.959 297.326 110.548 297.326C111.143 297.326 111.671 297.438 112.132 297.661C112.593 297.885 112.955 298.208 113.216 298.631C113.483 299.055 113.616 299.568 113.616 300.172ZM112.296 300.194C112.296 299.847 112.222 299.54 112.075 299.274C111.927 299.007 111.723 298.798 111.461 298.646C111.2 298.489 110.895 298.41 110.548 298.41C110.201 298.41 109.897 298.484 109.635 298.631C109.378 298.774 109.176 298.979 109.029 299.245C108.886 299.511 108.815 299.828 108.815 300.194C108.815 300.55 108.886 300.862 109.029 301.128C109.176 301.395 109.381 301.602 109.642 301.749C109.904 301.896 110.208 301.97 110.555 301.97C110.903 301.97 111.205 301.896 111.461 301.749C111.723 301.602 111.927 301.395 112.075 301.128C112.222 300.862 112.296 300.55 112.296 300.194Z" fill="black"/>
<path d="M192.63 306.75H192.765C193.526 306.75 194.144 306.643 194.62 306.429C195.096 306.215 195.462 305.927 195.719 305.566C195.975 305.204 196.151 304.797 196.247 304.346C196.342 303.889 196.389 303.421 196.389 302.94V301.349C196.389 300.879 196.335 300.46 196.225 300.094C196.12 299.728 195.973 299.421 195.783 299.174C195.597 298.926 195.386 298.738 195.148 298.61C194.91 298.482 194.658 298.417 194.392 298.417C194.087 298.417 193.814 298.479 193.571 298.603C193.334 298.722 193.131 298.891 192.965 299.109C192.803 299.328 192.68 299.585 192.594 299.88C192.508 300.175 192.466 300.496 192.466 300.843C192.466 301.152 192.504 301.452 192.58 301.742C192.656 302.032 192.772 302.293 192.929 302.527C193.086 302.76 193.281 302.945 193.514 303.083C193.752 303.216 194.03 303.283 194.349 303.283C194.644 303.283 194.92 303.226 195.176 303.111C195.438 302.993 195.669 302.833 195.868 302.634C196.073 302.429 196.235 302.198 196.354 301.942C196.477 301.685 196.549 301.416 196.568 301.135H197.195C197.195 301.53 197.117 301.92 196.96 302.305C196.808 302.686 196.594 303.033 196.318 303.347C196.042 303.661 195.719 303.913 195.348 304.103C194.977 304.289 194.572 304.381 194.135 304.381C193.621 304.381 193.177 304.281 192.801 304.082C192.425 303.882 192.116 303.616 191.874 303.283C191.636 302.95 191.457 302.579 191.338 302.17C191.224 301.756 191.167 301.338 191.167 300.914C191.167 300.42 191.236 299.956 191.374 299.523C191.512 299.09 191.717 298.71 191.988 298.382C192.259 298.049 192.594 297.79 192.994 297.604C193.398 297.419 193.864 297.326 194.392 297.326C194.986 297.326 195.493 297.445 195.911 297.683C196.33 297.92 196.67 298.239 196.931 298.639C197.198 299.038 197.393 299.488 197.516 299.987C197.64 300.486 197.702 301 197.702 301.528V302.006C197.702 302.543 197.666 303.09 197.595 303.647C197.528 304.198 197.397 304.726 197.202 305.23C197.012 305.734 196.734 306.186 196.368 306.586C196.002 306.98 195.524 307.294 194.934 307.527C194.349 307.756 193.626 307.87 192.765 307.87H192.63V306.75Z" fill="black"/>
<path d="M113.83 356.01V357.594C113.83 358.445 113.754 359.163 113.602 359.748C113.449 360.333 113.231 360.804 112.945 361.161C112.66 361.518 112.315 361.777 111.911 361.939C111.511 362.095 111.06 362.174 110.555 362.174C110.156 362.174 109.787 362.124 109.45 362.024C109.112 361.924 108.808 361.765 108.537 361.546C108.27 361.323 108.042 361.033 107.852 360.676C107.661 360.319 107.516 359.886 107.417 359.377C107.317 358.869 107.267 358.274 107.267 357.594V356.01C107.267 355.159 107.343 354.446 107.495 353.87C107.652 353.295 107.873 352.833 108.158 352.486C108.444 352.134 108.786 351.882 109.186 351.73C109.59 351.578 110.042 351.502 110.541 351.502C110.945 351.502 111.316 351.552 111.654 351.652C111.996 351.747 112.301 351.901 112.567 352.115C112.833 352.325 113.059 352.605 113.245 352.957C113.435 353.304 113.58 353.73 113.68 354.234C113.78 354.738 113.83 355.33 113.83 356.01ZM112.503 357.808V355.789C112.503 355.323 112.474 354.914 112.417 354.562C112.365 354.205 112.287 353.901 112.182 353.649C112.077 353.397 111.944 353.192 111.782 353.036C111.625 352.879 111.442 352.764 111.233 352.693C111.029 352.617 110.798 352.579 110.541 352.579C110.227 352.579 109.949 352.638 109.706 352.757C109.464 352.871 109.259 353.055 109.093 353.307C108.931 353.559 108.808 353.889 108.722 354.298C108.636 354.707 108.594 355.204 108.594 355.789V357.808C108.594 358.274 108.62 358.686 108.672 359.042C108.729 359.399 108.812 359.708 108.922 359.97C109.031 360.226 109.164 360.438 109.321 360.604C109.478 360.771 109.659 360.895 109.863 360.975C110.073 361.052 110.303 361.09 110.555 361.09C110.879 361.09 111.162 361.028 111.404 360.904C111.647 360.78 111.849 360.588 112.011 360.326C112.177 360.06 112.301 359.72 112.382 359.306C112.462 358.888 112.503 358.388 112.503 357.808Z" fill="black"/>
<path fill-rule="evenodd" clip-rule="evenodd" d="M191.059 351.859C190.646 351.859 190.261 352.069 190.036 352.415L187.453 356.408C187.205 356.792 187.192 357.283 187.422 357.679L190.045 362.209C190.262 362.585 190.664 362.817 191.098 362.817H200.136C200.809 362.817 201.354 362.272 201.354 361.599V353.077C201.354 352.404 200.809 351.859 200.136 351.859H191.059ZM192.558 355.091C192.321 354.853 192.321 354.468 192.558 354.23C192.796 353.993 193.182 353.993 193.419 354.23L195.576 356.387L197.724 354.239C197.962 354.002 198.347 354.002 198.585 354.239C198.822 354.477 198.822 354.862 198.585 355.1L196.437 357.248L198.585 359.396C198.822 359.633 198.822 360.019 198.585 360.257C198.347 360.494 197.962 360.494 197.724 360.257L195.576 358.109L193.419 360.266C193.182 360.503 192.796 360.503 192.558 360.266C192.321 360.028 192.321 359.642 192.558 359.405L194.715 357.248L192.558 355.091Z" fill="black"/>
<path d="M17.3511 32.8737L17.2298 32.965V33.1169V34.5131C17.2298 34.6193 17.2705 34.7055 17.3105 34.7653C17.3507 34.8253 17.4008 34.8752 17.4483 34.9156C17.5428 34.996 17.6639 35.0697 17.7861 35.1353C18.0304 35.2665 18.3392 35.3965 18.599 35.5059L18.6051 35.5084C18.6052 35.5084 18.6052 35.5084 18.6052 35.5085C19.2431 35.7773 19.9922 36.0954 20.586 36.5974C21.1669 37.0884 21.5902 37.7479 21.5902 38.7178V38.7248H9.74078V38.7178C9.74078 37.7557 10.165 37.0958 10.7492 36.6009C11.3459 36.0954 12.0986 35.7712 12.7388 35.4975L12.7388 35.4975L12.7456 35.4946C13.0028 35.3847 13.3076 35.2543 13.5487 35.1247C13.6693 35.0599 13.7885 34.9877 13.8815 34.9101C13.9281 34.8713 13.9779 34.823 14.018 34.765C14.0575 34.7079 14.1011 34.6215 14.1011 34.5131V33.1169V32.965L13.9798 32.8737C13.2838 32.3498 12.8553 31.4982 12.8553 30.62V28.7513C12.8553 27.202 14.1162 25.9411 15.6655 25.9411C17.2147 25.9411 18.4756 27.202 18.4756 28.7513V30.62C18.4756 31.4985 18.0472 32.3498 17.3511 32.8737Z" stroke="black" stroke-width="0.60875"/>
<path d="M213.124 31.2327L213.075 31.5331L213.075 31.5331L213.124 31.2327ZM211.403 30.9515L211.111 31.0368L211.164 31.2209L211.354 31.2519L211.403 30.9515ZM213.368 31.5201L213.063 31.5195V31.5201H213.368ZM213.127 33.4082L213.074 33.1084L213.074 33.1084L213.127 33.4082ZM211.404 33.7106L211.351 33.4109L211.164 33.4437L211.111 33.6261L211.404 33.7106ZM210.994 34.7029L210.727 34.5564L210.635 34.7248L210.747 34.8807L210.994 34.7029ZM212.013 36.1169L211.766 36.2948L211.766 36.295L212.013 36.1169ZM211.982 36.4931L212.198 36.7082L212.198 36.708L211.982 36.4931ZM210.85 37.6259L211.065 37.8415L211.065 37.8411L210.85 37.6259ZM210.477 37.6582L210.652 37.4096L210.652 37.4091L210.477 37.6582ZM209.049 36.6564L209.224 36.4072L209.067 36.2977L208.901 36.3904L209.049 36.6564ZM208.05 37.0742L207.964 36.7822L207.783 36.8354L207.75 37.021L208.05 37.0742ZM207.746 38.789L207.446 38.7359L207.446 38.7362L207.746 38.789ZM205.571 38.7864L205.871 38.7371L205.871 38.7364L205.571 38.7864ZM205.287 37.08L205.587 37.03L205.556 36.8409L205.371 36.7876L205.287 37.08ZM204.284 36.6654L204.43 36.3987L204.264 36.3074L204.109 36.4161L204.284 36.6654ZM202.866 37.6585L202.691 37.4092L202.691 37.4095L202.866 37.6585ZM202.493 37.6259L202.278 37.8411L202.278 37.8412L202.493 37.6259ZM201.361 36.4931L201.145 36.7077L201.145 36.7082L201.361 36.4931ZM201.33 36.1178L201.577 36.2949L201.577 36.2948L201.33 36.1178ZM202.332 34.7165L202.579 34.8936L202.691 34.7373L202.598 34.5693L202.332 34.7165ZM201.913 33.7092L202.205 33.6244L202.153 33.4425L201.966 33.4095L201.913 33.7092ZM200.215 33.4082L200.162 33.7078L200.162 33.7079L200.215 33.4082ZM200.219 31.233L200.268 31.5333L200.269 31.5333L200.219 31.233ZM201.916 30.9503L201.966 31.2506L202.155 31.2191L202.209 31.0354L201.916 30.9503ZM202.335 29.943L202.601 30.0902L202.693 29.9241L202.584 29.7686L202.335 29.943ZM201.345 28.5272L201.595 28.3528L201.594 28.3521L201.345 28.5272ZM201.378 28.1545L201.593 28.3697L201.593 28.3697L201.378 28.1545ZM202.51 27.0228L202.295 26.807L202.294 26.8076L202.51 27.0228ZM202.885 26.992L202.708 27.2397L202.708 27.2397L202.885 26.992ZM204.291 27.9964L204.114 28.2441L204.27 28.3551L204.438 28.2634L204.291 27.9964ZM205.292 27.5853L205.376 27.8779L205.561 27.8246L205.592 27.6344L205.292 27.5853ZM205.57 25.881L205.871 25.93L205.871 25.93L205.57 25.881ZM207.746 25.8778L208.046 25.8253L208.046 25.8251L207.746 25.8778ZM208.046 27.5914L207.746 27.644L207.779 27.8307L207.961 27.8837L208.046 27.5914ZM209.046 28.0069L208.898 28.2733L209.067 28.3664L209.223 28.2541L209.046 28.0069ZM210.456 26.9934L210.633 27.2406L210.634 27.2403L210.456 26.9934ZM210.832 27.0237L211.047 26.8084L211.046 26.8082L210.832 27.0237ZM211.964 28.1554L212.179 27.9405L212.179 27.9401L211.964 28.1554ZM211.996 28.5286L211.747 28.3536L211.747 28.3538L211.996 28.5286ZM210.992 29.9602L210.743 29.7853L210.634 29.9405L210.725 30.1066L210.992 29.9602ZM213.173 30.9324L211.452 30.6511L211.354 31.2519L213.075 31.5331L213.173 30.9324ZM213.672 31.5207C213.673 31.2284 213.461 30.9794 213.173 30.9323L213.075 31.5331C213.068 31.5321 213.063 31.5265 213.063 31.5195L213.672 31.5207ZM213.672 33.1214V31.5201H213.063V33.1214H213.672ZM213.179 33.708C213.465 33.6579 213.672 33.41 213.672 33.1214H213.063C213.063 33.1151 213.068 33.1095 213.074 33.1084L213.179 33.708ZM211.456 34.0104L213.179 33.7079L213.074 33.1084L211.351 33.4109L211.456 34.0104ZM211.261 34.8494C211.444 34.5152 211.59 34.1619 211.696 33.7952L211.111 33.6261C211.018 33.95 210.889 34.2617 210.727 34.5564L211.261 34.8494ZM212.259 35.939L211.241 34.525L210.747 34.8807L211.766 36.2948L212.259 35.939ZM212.198 36.708C212.403 36.5018 212.431 36.1763 212.259 35.9389L211.766 36.295C211.762 36.2893 211.763 36.2823 211.767 36.2782L212.198 36.708ZM211.065 37.8411L212.198 36.7082L211.767 36.2779L210.635 37.4108L211.065 37.8411ZM210.301 37.9069C210.539 38.075 210.861 38.0447 211.065 37.8415L210.635 37.4104C210.639 37.4069 210.646 37.4051 210.652 37.4096L210.301 37.9069ZM208.874 36.9056L210.302 37.9074L210.652 37.4091L209.224 36.4072L208.874 36.9056ZM208.136 37.3662C208.506 37.2572 208.862 37.1088 209.197 36.9224L208.901 36.3904C208.606 36.5546 208.292 36.6857 207.964 36.7822L208.136 37.3662ZM208.045 38.8422L208.35 37.1274L207.75 37.021L207.446 38.7359L208.045 38.8422ZM207.459 39.3336C207.748 39.3336 207.995 39.1265 208.046 38.8418L207.446 38.7362C207.447 38.7293 207.453 38.7248 207.459 38.7248V39.3336ZM205.858 39.3336H207.459V38.7248H205.858V39.3336ZM205.271 38.8357C205.318 39.1237 205.567 39.3336 205.858 39.3336V38.7248C205.864 38.7248 205.87 38.7292 205.871 38.7371L205.271 38.8357ZM204.987 37.13L205.271 38.8364L205.871 38.7364L205.587 37.03L204.987 37.13ZM204.137 36.9322C204.475 37.118 204.832 37.2655 205.202 37.3724L205.371 36.7876C205.044 36.6931 204.729 36.5628 204.43 36.3987L204.137 36.9322ZM203.04 37.9078L204.458 36.9148L204.109 36.4161L202.691 37.4092L203.04 37.9078ZM202.278 37.8412C202.482 38.0451 202.804 38.0742 203.041 37.9076L202.691 37.4095C202.697 37.4053 202.704 37.4064 202.708 37.4107L202.278 37.8412ZM201.145 36.7082L202.278 37.8411L202.708 37.4108L201.576 36.2779L201.145 36.7082ZM201.082 35.9407C200.913 36.1777 200.94 36.5019 201.145 36.7077L201.577 36.2785C201.58 36.2823 201.582 36.2891 201.577 36.2949L201.082 35.9407ZM202.084 34.5395L201.082 35.9408L201.577 36.2948L202.579 34.8936L202.084 34.5395ZM201.621 33.794C201.729 34.1661 201.878 34.5244 202.065 34.8638L202.598 34.5693C202.432 34.2693 202.301 33.9528 202.205 33.6244L201.621 33.794ZM200.162 33.7079L201.86 34.0089L201.966 33.4095L200.268 33.1085L200.162 33.7079ZM199.671 33.1214C199.671 33.4102 199.878 33.6572 200.162 33.7078L200.269 33.1085C200.275 33.1096 200.279 33.115 200.279 33.1214H199.671ZM199.671 31.5201V33.1214H200.279V31.5201H199.671ZM200.169 30.9328C199.881 30.9804 199.671 31.2292 199.671 31.5201H200.279C200.279 31.5269 200.275 31.5322 200.268 31.5333L200.169 30.9328ZM201.866 30.6501L200.169 30.9328L200.269 31.5333L201.966 31.2506L201.866 30.6501ZM202.069 29.7958C201.882 30.1343 201.733 30.4926 201.624 30.8653L202.209 31.0354C202.304 30.7059 202.436 30.3893 202.601 30.0902L202.069 29.7958ZM201.096 28.7016L202.086 30.1174L202.584 29.7686L201.595 28.3528L201.096 28.7016ZM201.163 27.9393C200.959 28.1432 200.93 28.465 201.096 28.7022L201.594 28.3521C201.599 28.3581 201.597 28.3655 201.593 28.3697L201.163 27.9393ZM202.294 26.8076L201.163 27.9393L201.593 28.3697L202.725 27.2381L202.294 26.8076ZM203.062 26.7443C202.824 26.5745 202.501 26.6025 202.295 26.807L202.724 27.2387C202.721 27.2423 202.713 27.2435 202.708 27.2397L203.062 26.7443ZM204.468 27.7487L203.062 26.7443L202.708 27.2397L204.114 28.2441L204.468 27.7487ZM205.208 27.2928C204.837 27.3994 204.481 27.5456 204.145 27.7294L204.438 28.2634C204.733 28.1014 205.048 27.9722 205.376 27.8779L205.208 27.2928ZM205.27 25.8319L204.992 27.5363L205.592 27.6344L205.871 25.93L205.27 25.8319ZM205.858 25.3323C205.566 25.3323 205.317 25.5437 205.27 25.8319L205.871 25.93C205.87 25.9364 205.864 25.9411 205.858 25.9411V25.3323ZM207.459 25.3323H205.858V25.9411H207.459V25.3323ZM208.046 25.8251C207.996 25.5409 207.749 25.3323 207.459 25.3323V25.9411C207.452 25.9411 207.447 25.9363 207.446 25.9305L208.046 25.8251ZM208.346 27.5389L208.046 25.8253L207.446 25.9303L207.746 27.644L208.346 27.5389ZM209.193 27.7405C208.856 27.5543 208.5 27.4065 208.131 27.2992L207.961 27.8837C208.287 27.9784 208.601 28.1089 208.898 28.2733L209.193 27.7405ZM210.278 26.7463L208.868 27.7597L209.223 28.2541L210.633 27.2406L210.278 26.7463ZM211.046 26.8082C210.84 26.6026 210.515 26.5754 210.278 26.7465L210.634 27.2403C210.628 27.2444 210.621 27.2433 210.617 27.2393L211.046 26.8082ZM212.179 27.9401L211.047 26.8084L210.616 27.239L211.749 28.3707L212.179 27.9401ZM212.246 28.7036C212.412 28.4664 212.383 28.1445 212.179 27.9405L211.748 28.3703C211.745 28.3665 211.743 28.3597 211.747 28.3536L212.246 28.7036ZM211.241 30.135L212.246 28.7035L211.747 28.3538L210.743 29.7853L211.241 30.135ZM211.695 30.8663C211.588 30.4997 211.442 30.1473 211.259 29.8137L210.725 30.1066C210.887 30.4014 211.016 30.7128 211.111 31.0368L211.695 30.8663ZM206.671 34.0667C205.714 34.0667 204.938 33.2905 204.938 32.3331H204.329C204.329 33.6268 205.378 34.6754 206.671 34.6754V34.0667ZM208.405 32.3331C208.405 33.2905 207.629 34.0667 206.671 34.0667V34.6754C207.965 34.6754 209.014 33.6268 209.014 32.3331H208.405ZM206.671 30.5995C207.629 30.5995 208.405 31.3756 208.405 32.3331H209.014C209.014 31.0394 207.965 29.9907 206.671 29.9907V30.5995ZM204.938 32.3331C204.938 31.3756 205.714 30.5995 206.671 30.5995V29.9907C205.378 29.9907 204.329 31.0394 204.329 32.3331H204.938Z" fill="black"/>
<path d="M76.3833 105.815V107.441H66.1855V106.018L71.2898 100.336C71.9175 99.637 72.4026 99.0449 72.7451 98.5598C73.0946 98.0676 73.3372 97.6289 73.4727 97.2437C73.6154 96.8513 73.6867 96.4518 73.6867 96.0452C73.6867 95.5315 73.5797 95.0679 73.3657 94.6541C73.1588 94.2332 72.8521 93.8979 72.4454 93.6482C72.0388 93.3985 71.5466 93.2737 70.9687 93.2737C70.2768 93.2737 69.6989 93.4092 69.2352 93.6803C68.7787 93.9443 68.4362 94.3152 68.208 94.7932C67.9797 95.2712 67.8655 95.8205 67.8655 96.4411H65.8859C65.8859 95.5636 66.0785 94.7611 66.4638 94.0335C66.849 93.3058 67.4197 92.728 68.1759 92.2999C68.932 91.8648 69.863 91.6472 70.9687 91.6472C71.9532 91.6472 72.795 91.822 73.4941 92.1715C74.1932 92.514 74.7282 92.9991 75.0992 93.6268C75.4773 94.2475 75.6663 94.9751 75.6663 95.8098C75.6663 96.2663 75.5879 96.73 75.4309 97.2009C75.2811 97.6645 75.0707 98.1282 74.7996 98.5919C74.5356 99.0556 74.2253 99.5122 73.8686 99.9616C73.5191 100.411 73.1445 100.853 72.7451 101.289L68.5718 105.815H76.3833ZM81.006 100.026L79.4223 99.6192L80.2034 91.8612H88.1968V93.691H81.8834L81.4126 97.9285C81.698 97.7644 82.0582 97.611 82.4934 97.4684C82.9357 97.3257 83.4422 97.2544 84.0129 97.2544C84.7334 97.2544 85.379 97.3792 85.9497 97.6289C86.5204 97.8714 87.0055 98.221 87.405 98.6775C87.8116 99.1341 88.1219 99.6834 88.3359 100.325C88.55 100.967 88.657 101.684 88.657 102.476C88.657 103.225 88.5535 103.914 88.3467 104.542C88.1469 105.169 87.8437 105.719 87.4371 106.189C87.0305 106.653 86.5168 107.013 85.8962 107.27C85.2827 107.527 84.5586 107.655 83.724 107.655C83.0962 107.655 82.5005 107.57 81.9369 107.399C81.3805 107.22 80.8811 106.953 80.4388 106.596C80.0037 106.232 79.647 105.783 79.3688 105.248C79.0977 104.706 78.9265 104.071 78.8551 103.343H80.7385C80.8241 103.928 80.9953 104.42 81.2521 104.82C81.5089 105.219 81.8442 105.522 82.258 105.729C82.6789 105.929 83.1675 106.029 83.724 106.029C84.1948 106.029 84.6121 105.947 84.9759 105.783C85.3398 105.619 85.6465 105.383 85.8962 105.077C86.1459 104.77 86.3349 104.399 86.4633 103.964C86.5989 103.529 86.6666 103.04 86.6666 102.498C86.6666 102.005 86.5989 101.549 86.4633 101.128C86.3278 100.707 86.1245 100.34 85.8534 100.026C85.5894 99.7119 85.2649 99.4694 84.8796 99.2982C84.4944 99.1198 84.0521 99.0307 83.5527 99.0307C82.8893 99.0307 82.3864 99.1198 82.0439 99.2982C81.7087 99.4765 81.3627 99.7191 81.006 100.026ZM92.8409 105.087V106.682C92.8409 107.331 92.6769 108.016 92.3487 108.736C92.0206 109.464 91.5604 110.07 90.9683 110.555L89.8447 109.774C90.073 109.46 90.2656 109.139 90.4226 108.811C90.5795 108.49 90.6972 108.155 90.7757 107.805C90.8613 107.463 90.9041 107.099 90.9041 106.714V105.087H92.8409ZM104.933 98.41V100.786C104.933 102.063 104.819 103.14 104.59 104.017C104.362 104.895 104.034 105.601 103.606 106.136C103.178 106.671 102.661 107.06 102.054 107.302C101.455 107.538 100.777 107.655 100.021 107.655C99.4219 107.655 98.869 107.581 98.3625 107.431C97.856 107.281 97.3994 107.042 96.9928 106.714C96.5933 106.378 96.2509 105.943 95.9655 105.408C95.6802 104.873 95.4626 104.224 95.3128 103.461C95.163 102.697 95.0881 101.806 95.0881 100.786V98.41C95.0881 97.1331 95.2022 96.063 95.4305 95.1998C95.6659 94.3366 95.9976 93.6447 96.4257 93.1239C96.8537 92.596 97.3673 92.2179 97.9666 91.9896C98.5729 91.7613 99.2506 91.6472 99.9997 91.6472C100.606 91.6472 101.163 91.7221 101.669 91.8719C102.183 92.0146 102.639 92.2464 103.039 92.5675C103.438 92.8813 103.777 93.3022 104.055 93.8301C104.341 94.3509 104.558 94.9894 104.708 95.7456C104.858 96.5017 104.933 97.3899 104.933 98.41ZM102.942 101.107V98.0783C102.942 97.3792 102.9 96.7657 102.814 96.2378C102.736 95.7028 102.618 95.2462 102.461 94.8681C102.304 94.49 102.104 94.1833 101.862 93.9478C101.626 93.7124 101.352 93.5412 101.038 93.4342C100.731 93.3201 100.385 93.263 99.9997 93.263C99.5289 93.263 99.1115 93.3522 98.7477 93.5305C98.3839 93.7017 98.0771 93.9764 97.8275 94.3545C97.5849 94.7326 97.3994 95.2284 97.271 95.8419C97.1426 96.4554 97.0784 97.2009 97.0784 98.0783V101.107C97.0784 101.806 97.1176 102.423 97.1961 102.958C97.2817 103.493 97.4066 103.957 97.5706 104.349C97.7347 104.734 97.9345 105.052 98.1699 105.301C98.4053 105.551 98.6764 105.736 98.9831 105.858C99.297 105.972 99.643 106.029 100.021 106.029C100.506 106.029 100.931 105.936 101.294 105.751C101.658 105.565 101.961 105.276 102.204 104.884C102.454 104.484 102.639 103.974 102.76 103.354C102.882 102.726 102.942 101.977 102.942 101.107ZM117.26 98.41V100.786C117.26 102.063 117.146 103.14 116.917 104.017C116.689 104.895 116.361 105.601 115.933 106.136C115.505 106.671 114.988 107.06 114.381 107.302C113.782 107.538 113.104 107.655 112.348 107.655C111.749 107.655 111.196 107.581 110.69 107.431C110.183 107.281 109.727 107.042 109.32 106.714C108.92 106.378 108.578 105.943 108.293 105.408C108.007 104.873 107.79 104.224 107.64 103.461C107.49 102.697 107.415 101.806 107.415 100.786V98.41C107.415 97.1331 107.529 96.063 107.758 95.1998C107.993 94.3366 108.325 93.6447 108.753 93.1239C109.181 92.596 109.695 92.2179 110.294 91.9896C110.9 91.7613 111.578 91.6472 112.327 91.6472C112.933 91.6472 113.49 91.7221 113.996 91.8719C114.51 92.0146 114.966 92.2464 115.366 92.5675C115.765 92.8813 116.104 93.3022 116.382 93.8301C116.668 94.3509 116.885 94.9894 117.035 95.7456C117.185 96.5017 117.26 97.3899 117.26 98.41ZM115.27 101.107V98.0783C115.27 97.3792 115.227 96.7657 115.141 96.2378C115.063 95.7028 114.945 95.2462 114.788 94.8681C114.631 94.49 114.431 94.1833 114.189 93.9478C113.953 93.7124 113.679 93.5412 113.365 93.4342C113.058 93.3201 112.712 93.263 112.327 93.263C111.856 93.263 111.439 93.3522 111.075 93.5305C110.711 93.7017 110.404 93.9764 110.155 94.3545C109.912 94.7326 109.727 95.2284 109.598 95.8419C109.47 96.4554 109.406 97.2009 109.406 98.0783V101.107C109.406 101.806 109.445 102.423 109.523 102.958C109.609 103.493 109.734 103.957 109.898 104.349C110.062 104.734 110.262 105.052 110.497 105.301C110.732 105.551 111.004 105.736 111.31 105.858C111.624 105.972 111.97 106.029 112.348 106.029C112.833 106.029 113.258 105.936 113.622 105.751C113.985 105.565 114.289 105.276 114.531 104.884C114.781 104.484 114.966 103.974 115.088 103.354C115.209 102.726 115.27 101.977 115.27 101.107ZM129.587 98.41V100.786C129.587 102.063 129.473 103.14 129.245 104.017C129.016 104.895 128.688 105.601 128.26 106.136C127.832 106.671 127.315 107.06 126.709 107.302C126.109 107.538 125.432 107.655 124.675 107.655C124.076 107.655 123.523 107.581 123.017 107.431C122.51 107.281 122.054 107.042 121.647 106.714C121.248 106.378 120.905 105.943 120.62 105.408C120.335 104.873 120.117 104.224 119.967 103.461C119.817 102.697 119.742 101.806 119.742 100.786V98.41C119.742 97.1331 119.857 96.063 120.085 95.1998C120.32 94.3366 120.652 93.6447 121.08 93.1239C121.508 92.596 122.022 92.2179 122.621 91.9896C123.227 91.7613 123.905 91.6472 124.654 91.6472C125.26 91.6472 125.817 91.7221 126.323 91.8719C126.837 92.0146 127.294 92.2464 127.693 92.5675C128.093 92.8813 128.431 93.3022 128.71 93.8301C128.995 94.3509 129.213 94.9894 129.362 95.7456C129.512 96.5017 129.587 97.3899 129.587 98.41ZM127.597 101.107V98.0783C127.597 97.3792 127.554 96.7657 127.468 96.2378C127.39 95.7028 127.272 95.2462 127.115 94.8681C126.958 94.49 126.759 94.1833 126.516 93.9478C126.281 93.7124 126.006 93.5412 125.692 93.4342C125.385 93.3201 125.039 93.263 124.654 93.263C124.183 93.263 123.766 93.3522 123.402 93.5305C123.038 93.7017 122.732 93.9764 122.482 94.3545C122.239 94.7326 122.054 95.2284 121.925 95.8419C121.797 96.4554 121.733 97.2009 121.733 98.0783V101.107C121.733 101.806 121.772 102.423 121.85 102.958C121.936 103.493 122.061 103.957 122.225 104.349C122.389 104.734 122.589 105.052 122.824 105.301C123.06 105.551 123.331 105.736 123.637 105.858C123.951 105.972 124.297 106.029 124.675 106.029C125.161 106.029 125.585 105.936 125.949 105.751C126.313 105.565 126.616 105.276 126.858 104.884C127.108 104.484 127.294 103.974 127.415 103.354C127.536 102.726 127.597 101.977 127.597 101.107Z" fill="black"/>
<path d="M138.762 104.502C138.762 104.328 138.722 104.166 138.644 104.018C138.57 103.866 138.415 103.728 138.18 103.606C137.949 103.48 137.6 103.371 137.133 103.279C136.741 103.196 136.386 103.098 136.067 102.985C135.754 102.872 135.485 102.734 135.263 102.573C135.045 102.412 134.877 102.222 134.76 102.004C134.642 101.786 134.583 101.531 134.583 101.239C134.583 100.96 134.644 100.696 134.766 100.448C134.893 100.199 135.069 99.9791 135.296 99.7873C135.527 99.5955 135.804 99.4451 136.126 99.3361C136.449 99.2271 136.809 99.1726 137.205 99.1726C137.772 99.1726 138.256 99.2729 138.657 99.4734C139.058 99.6739 139.365 99.942 139.579 100.278C139.793 100.609 139.899 100.977 139.899 101.383H138.69C138.69 101.187 138.631 100.997 138.513 100.814C138.4 100.626 138.232 100.472 138.01 100.35C137.792 100.228 137.523 100.167 137.205 100.167C136.87 100.167 136.597 100.219 136.388 100.324C136.183 100.424 136.033 100.552 135.937 100.709C135.845 100.866 135.799 101.032 135.799 101.206C135.799 101.337 135.821 101.455 135.865 101.559C135.913 101.66 135.995 101.753 136.113 101.841C136.231 101.923 136.397 102.002 136.61 102.076C136.824 102.15 137.096 102.224 137.428 102.298C138.007 102.429 138.485 102.586 138.86 102.769C139.235 102.952 139.514 103.177 139.697 103.443C139.88 103.709 139.971 104.031 139.971 104.411C139.971 104.72 139.906 105.003 139.775 105.261C139.649 105.518 139.463 105.74 139.219 105.928C138.98 106.111 138.692 106.255 138.356 106.359C138.025 106.46 137.652 106.51 137.238 106.51C136.615 106.51 136.087 106.399 135.655 106.176C135.224 105.954 134.897 105.666 134.675 105.313C134.452 104.96 134.341 104.587 134.341 104.195H135.557C135.575 104.526 135.671 104.79 135.845 104.986C136.019 105.178 136.233 105.315 136.486 105.398C136.739 105.476 136.989 105.516 137.238 105.516C137.569 105.516 137.846 105.472 138.068 105.385C138.295 105.298 138.467 105.178 138.585 105.025C138.703 104.873 138.762 104.698 138.762 104.502ZM145.732 105.169V101.527C145.732 101.248 145.676 101.006 145.562 100.801C145.453 100.592 145.288 100.43 145.065 100.317C144.843 100.204 144.568 100.147 144.242 100.147C143.936 100.147 143.668 100.199 143.437 100.304C143.211 100.409 143.032 100.546 142.901 100.716C142.775 100.886 142.711 101.069 142.711 101.265H141.502C141.502 101.012 141.567 100.762 141.698 100.513C141.829 100.265 142.016 100.04 142.26 99.8396C142.509 99.6347 142.805 99.4734 143.149 99.3557C143.498 99.2336 143.886 99.1726 144.313 99.1726C144.828 99.1726 145.281 99.2598 145.674 99.4342C146.07 99.6085 146.38 99.8723 146.602 100.225C146.829 100.574 146.942 101.012 146.942 101.54V104.836C146.942 105.071 146.962 105.322 147.001 105.588C147.045 105.854 147.108 106.082 147.191 106.274V106.379H145.929C145.868 106.239 145.82 106.054 145.785 105.823C145.75 105.588 145.732 105.37 145.732 105.169ZM145.942 102.089L145.955 102.939H144.732C144.388 102.939 144.08 102.968 143.81 103.024C143.54 103.077 143.313 103.157 143.13 103.266C142.947 103.375 142.807 103.513 142.711 103.678C142.615 103.839 142.567 104.029 142.567 104.247C142.567 104.469 142.618 104.672 142.718 104.855C142.818 105.038 142.969 105.184 143.169 105.293C143.374 105.398 143.625 105.45 143.921 105.45C144.292 105.45 144.619 105.372 144.902 105.215C145.185 105.058 145.41 104.866 145.576 104.639C145.746 104.413 145.837 104.193 145.85 103.979L146.367 104.561C146.336 104.744 146.253 104.947 146.118 105.169C145.983 105.391 145.802 105.605 145.576 105.81C145.353 106.011 145.087 106.178 144.778 106.314C144.473 106.444 144.128 106.51 143.745 106.51C143.265 106.51 142.844 106.416 142.482 106.229C142.125 106.041 141.846 105.79 141.645 105.476C141.449 105.158 141.351 104.803 141.351 104.411C141.351 104.031 141.425 103.698 141.573 103.41C141.722 103.118 141.935 102.876 142.214 102.684C142.493 102.488 142.829 102.34 143.221 102.24C143.614 102.139 144.052 102.089 144.536 102.089H145.942ZM151.808 99.3034V100.232H147.982V99.3034H151.808ZM149.277 97.5835H150.487V104.626C150.487 104.866 150.524 105.047 150.598 105.169C150.672 105.291 150.768 105.372 150.885 105.411C151.003 105.45 151.13 105.47 151.265 105.47C151.365 105.47 151.47 105.461 151.579 105.444C151.692 105.422 151.777 105.405 151.834 105.391L151.84 106.379C151.744 106.409 151.618 106.438 151.461 106.464C151.308 106.494 151.123 106.51 150.905 106.51C150.609 106.51 150.336 106.451 150.088 106.333C149.839 106.215 149.641 106.019 149.493 105.745C149.349 105.466 149.277 105.091 149.277 104.62V97.5835ZM157.346 104.502C157.346 104.328 157.307 104.166 157.229 104.018C157.154 103.866 157 103.728 156.764 103.606C156.533 103.48 156.184 103.371 155.718 103.279C155.326 103.196 154.97 103.098 154.652 102.985C154.338 102.872 154.07 102.734 153.848 102.573C153.63 102.412 153.462 102.222 153.344 102.004C153.227 101.786 153.168 101.531 153.168 101.239C153.168 100.96 153.229 100.696 153.351 100.448C153.477 100.199 153.654 99.9791 153.88 99.7873C154.112 99.5955 154.388 99.4451 154.711 99.3361C155.034 99.2271 155.393 99.1726 155.79 99.1726C156.357 99.1726 156.841 99.2729 157.242 99.4734C157.643 99.6739 157.95 99.942 158.164 100.278C158.377 100.609 158.484 100.977 158.484 101.383H157.274C157.274 101.187 157.216 100.997 157.098 100.814C156.984 100.626 156.817 100.472 156.594 100.35C156.376 100.228 156.108 100.167 155.79 100.167C155.454 100.167 155.182 100.219 154.973 100.324C154.768 100.424 154.617 100.552 154.521 100.709C154.43 100.866 154.384 101.032 154.384 101.206C154.384 101.337 154.406 101.455 154.449 101.559C154.497 101.66 154.58 101.753 154.698 101.841C154.816 101.923 154.981 102.002 155.195 102.076C155.408 102.15 155.681 102.224 156.012 102.298C156.592 102.429 157.069 102.586 157.444 102.769C157.819 102.952 158.098 103.177 158.281 103.443C158.465 103.709 158.556 104.031 158.556 104.411C158.556 104.72 158.491 105.003 158.36 105.261C158.233 105.518 158.048 105.74 157.804 105.928C157.564 106.111 157.277 106.255 156.941 106.359C156.61 106.46 156.237 106.51 155.823 106.51C155.199 106.51 154.672 106.399 154.24 106.176C153.809 105.954 153.482 105.666 153.259 105.313C153.037 104.96 152.926 104.587 152.926 104.195H154.142C154.159 104.526 154.255 104.79 154.43 104.986C154.604 105.178 154.818 105.315 155.071 105.398C155.323 105.476 155.574 105.516 155.823 105.516C156.154 105.516 156.431 105.472 156.653 105.385C156.88 105.298 157.052 105.178 157.17 105.025C157.287 104.873 157.346 104.698 157.346 104.502Z" fill="black"/>
<path d="M103.733 120.431V130.875H102.413V122.079L99.7523 123.049V121.858L103.526 120.431H103.733ZM114.134 124.854V126.438C114.134 127.289 114.058 128.007 113.906 128.592C113.754 129.177 113.535 129.648 113.249 130.005C112.964 130.361 112.619 130.621 112.215 130.782C111.816 130.939 111.364 131.018 110.86 131.018C110.46 131.018 110.092 130.968 109.754 130.868C109.416 130.768 109.112 130.609 108.841 130.39C108.574 130.166 108.346 129.876 108.156 129.52C107.966 129.163 107.821 128.73 107.721 128.221C107.621 127.712 107.571 127.118 107.571 126.438V124.854C107.571 124.003 107.647 123.289 107.799 122.714C107.956 122.138 108.177 121.677 108.463 121.33C108.748 120.978 109.09 120.726 109.49 120.574C109.894 120.422 110.346 120.346 110.845 120.346C111.25 120.346 111.621 120.395 111.958 120.495C112.301 120.59 112.605 120.745 112.871 120.959C113.138 121.168 113.364 121.449 113.549 121.801C113.739 122.148 113.884 122.574 113.984 123.078C114.084 123.582 114.134 124.174 114.134 124.854ZM112.807 126.652V124.633C112.807 124.167 112.779 123.758 112.722 123.406C112.669 123.049 112.591 122.745 112.486 122.493C112.381 122.241 112.248 122.036 112.087 121.879C111.93 121.722 111.747 121.608 111.537 121.537C111.333 121.461 111.102 121.423 110.845 121.423C110.531 121.423 110.253 121.482 110.011 121.601C109.768 121.715 109.564 121.898 109.397 122.15C109.235 122.402 109.112 122.733 109.026 123.142C108.941 123.551 108.898 124.048 108.898 124.633V126.652C108.898 127.118 108.924 127.529 108.976 127.886C109.033 128.243 109.117 128.552 109.226 128.813C109.335 129.07 109.469 129.282 109.625 129.448C109.782 129.615 109.963 129.738 110.168 129.819C110.377 129.895 110.608 129.933 110.86 129.933C111.183 129.933 111.466 129.872 111.709 129.748C111.951 129.624 112.153 129.432 112.315 129.17C112.481 128.904 112.605 128.564 112.686 128.15C112.767 127.731 112.807 127.232 112.807 126.652ZM120.783 129.905C121.059 129.905 121.327 129.883 121.589 129.841C121.85 129.798 122.1 129.738 122.338 129.662L122.481 130.804C122.214 130.87 121.936 130.923 121.646 130.961C121.356 130.999 121.063 131.018 120.768 131.018C120.203 131.018 119.684 130.932 119.213 130.761C118.742 130.585 118.336 130.326 117.993 129.983C117.651 129.636 117.385 129.206 117.194 128.692C117.009 128.174 116.916 127.57 116.916 126.88V124.505C116.916 123.81 117.009 123.204 117.194 122.685C117.38 122.167 117.644 121.734 117.986 121.387C118.329 121.04 118.733 120.781 119.199 120.609C119.67 120.434 120.191 120.346 120.761 120.346C121.061 120.346 121.349 120.367 121.625 120.41C121.905 120.448 122.19 120.5 122.481 120.567L122.338 121.715C122.105 121.639 121.855 121.58 121.589 121.537C121.323 121.489 121.051 121.466 120.776 121.466C120.395 121.466 120.05 121.527 119.741 121.651C119.437 121.775 119.175 121.96 118.956 122.207C118.742 122.455 118.578 122.769 118.464 123.149C118.35 123.53 118.293 123.977 118.293 124.49V126.88C118.293 127.394 118.35 127.841 118.464 128.221C118.583 128.602 118.752 128.916 118.971 129.163C119.19 129.41 119.451 129.596 119.755 129.719C120.065 129.843 120.407 129.905 120.783 129.905ZM121.032 124.262V125.154H115.646V124.262H121.032ZM121.032 126.124V127.008H115.646V126.124H121.032Z" fill="#777777"/>
</g>
<defs>
<clipPath id="clip0_267_11513">
<rect width="219.15" height="487" fill="white" transform="translate(0.980469)"/>
</clipPath>
</defs>
</svg>
