<svg width="220" height="487" viewBox="0 0 220 487" fill="none" xmlns="http://www.w3.org/2000/svg">
<g clip-path="url(#clip0_267_11514)">
<rect width="219.15" height="487" fill="white"/>
<rect x="0.608398" width="219.15" height="18.0852" fill="#F1F1F1"/>
<circle cx="19.2255" cy="9.57498" r="3.72342" fill="#C4C4C4"/>
<circle cx="189.439" cy="9.57498" r="3.72342" fill="#C4C4C4"/>
<rect x="198.482" y="6.38281" width="6.38301" height="6.38301" fill="#C4C4C4"/>
<path d="M176.673 12.7656L172.988 6.38262L180.358 6.38262L176.673 12.7656Z" fill="#C4C4C4"/>
<rect x="-0.000244141" width="224.02" height="494.305" fill="black" fill-opacity="0.2"/>
<path d="M-2.43494 52.3536C-2.43494 42.9399 5.19637 35.3086 14.6101 35.3086H204.54C213.954 35.3086 221.585 42.9399 221.585 52.3536V494.306H-2.43494V52.3536Z" fill="white"/>
<rect x="91.3123" y="70.0078" width="36.525" height="36.525" rx="18.2625" fill="#BB6BD9"/>
<path d="M116.581 81.0705L102.586 86.0274C102.462 86.071 102.448 86.2394 102.562 86.3035L107.056 88.8317C107.107 88.8603 107.17 88.8572 107.218 88.8237L112.542 85.0969C112.681 84.9998 112.851 85.1678 112.755 85.3075L109.318 90.3304C109.289 90.3739 109.283 90.4299 109.305 90.4781L111.549 95.527C111.605 95.6532 111.786 95.6455 111.832 95.5151L116.776 81.2638C116.818 81.1433 116.702 81.0279 116.581 81.0705Z" fill="white"/>
<path d="M78.8531 123.215C78.8531 122.992 78.8182 122.796 78.7485 122.626C78.6831 122.452 78.5654 122.295 78.3953 122.155C78.2297 122.016 77.9986 121.883 77.7022 121.756C77.4101 121.63 77.0395 121.501 76.5905 121.371C76.1197 121.231 75.6946 121.076 75.3153 120.906C74.936 120.732 74.6113 120.534 74.341 120.311C74.0707 120.089 73.8636 119.834 73.7197 119.546C73.5759 119.258 73.5039 118.929 73.5039 118.559C73.5039 118.188 73.5802 117.846 73.7328 117.532C73.8854 117.218 74.1034 116.946 74.3867 116.715C74.6745 116.479 75.0167 116.296 75.4134 116.165C75.8101 116.034 76.2526 115.969 76.7409 115.969C77.4559 115.969 78.0618 116.106 78.5588 116.381C79.0602 116.651 79.4416 117.007 79.7032 117.447C79.9648 117.883 80.0956 118.349 80.0956 118.846H78.84C78.84 118.489 78.7637 118.173 78.6111 117.898C78.4586 117.619 78.2275 117.401 77.918 117.244C77.6084 117.083 77.2161 117.002 76.7409 117.002C76.2919 117.002 75.9213 117.07 75.6292 117.205C75.3371 117.34 75.1191 117.523 74.9753 117.754C74.8358 117.985 74.766 118.249 74.766 118.546C74.766 118.746 74.8074 118.929 74.8903 119.095C74.9775 119.256 75.1104 119.407 75.2892 119.546C75.4723 119.686 75.7033 119.814 75.9823 119.932C76.2657 120.05 76.6036 120.163 76.9959 120.272C77.5365 120.425 78.003 120.595 78.3953 120.782C78.7877 120.969 79.1103 121.181 79.3632 121.416C79.6204 121.647 79.81 121.911 79.9321 122.208C80.0585 122.5 80.1217 122.831 80.1217 123.202C80.1217 123.59 80.0432 123.94 79.8863 124.254C79.7294 124.568 79.5048 124.836 79.2128 125.059C78.9207 125.281 78.5697 125.453 78.1599 125.575C77.7545 125.693 77.3011 125.752 76.7997 125.752C76.3594 125.752 75.9257 125.691 75.4984 125.569C75.0756 125.447 74.6897 125.264 74.341 125.019C73.9966 124.775 73.7197 124.475 73.5105 124.117C73.3056 123.755 73.2031 123.337 73.2031 122.862H74.4587C74.4587 123.188 74.5219 123.47 74.6483 123.705C74.7747 123.936 74.9469 124.128 75.1649 124.281C75.3873 124.433 75.6379 124.546 75.9169 124.621C76.2003 124.69 76.4946 124.725 76.7997 124.725C77.2401 124.725 77.6128 124.664 77.918 124.542C78.2231 124.42 78.4542 124.246 78.6111 124.019C78.7724 123.792 78.8531 123.524 78.8531 123.215ZM84.4834 125.752C83.9908 125.752 83.544 125.669 83.1429 125.503C82.7462 125.333 82.4039 125.096 82.1162 124.791C81.8328 124.485 81.6149 124.124 81.4623 123.705C81.3097 123.287 81.2334 122.829 81.2334 122.332V122.057C81.2334 121.482 81.3184 120.969 81.4884 120.52C81.6585 120.067 81.8895 119.683 82.1816 119.37C82.4737 119.056 82.805 118.818 83.1756 118.657C83.5461 118.495 83.9298 118.415 84.3265 118.415C84.8322 118.415 85.2682 118.502 85.6344 118.676C86.0049 118.851 86.3079 119.095 86.5433 119.409C86.7787 119.718 86.9531 120.084 87.0665 120.507C87.1798 120.926 87.2365 121.384 87.2365 121.881V122.423H81.9527V121.436H86.0267V121.344C86.0093 121.031 85.9439 120.725 85.8305 120.429C85.7215 120.132 85.5472 119.888 85.3074 119.696C85.0676 119.505 84.7406 119.409 84.3265 119.409C84.0518 119.409 83.799 119.468 83.5679 119.585C83.3369 119.699 83.1385 119.869 82.9729 120.095C82.8072 120.322 82.6786 120.599 82.587 120.926C82.4955 121.253 82.4497 121.63 82.4497 122.057V122.332C82.4497 122.668 82.4955 122.984 82.587 123.28C82.6829 123.572 82.8203 123.829 82.999 124.052C83.1821 124.274 83.4023 124.448 83.6595 124.575C83.9211 124.701 84.2175 124.764 84.5488 124.764C84.9761 124.764 85.3379 124.677 85.6344 124.503C85.9308 124.328 86.1902 124.095 86.4125 123.803L87.1449 124.385C86.9923 124.616 86.7983 124.836 86.5629 125.046C86.3275 125.255 86.0376 125.425 85.6932 125.556C85.3532 125.686 84.9499 125.752 84.4834 125.752ZM89.8587 120.056V125.621H88.649V118.546H89.7933L89.8587 120.056ZM89.571 121.815L89.0675 121.796C89.0718 121.312 89.1438 120.865 89.2833 120.455C89.4228 120.041 89.619 119.681 89.8718 119.376C90.1247 119.071 90.4255 118.835 90.7742 118.67C91.1274 118.5 91.5175 118.415 91.9448 118.415C92.2935 118.415 92.6074 118.463 92.8864 118.559C93.1655 118.65 93.403 118.798 93.5992 119.003C93.7998 119.208 93.9523 119.474 94.057 119.801C94.1616 120.124 94.2139 120.518 94.2139 120.985V125.621H92.9976V120.972C92.9976 120.601 92.9431 120.305 92.8341 120.082C92.7251 119.856 92.566 119.692 92.3568 119.592C92.1475 119.487 91.8903 119.435 91.5851 119.435C91.2843 119.435 91.0097 119.498 90.7612 119.625C90.517 119.751 90.3056 119.925 90.1269 120.148C89.9525 120.37 89.8151 120.625 89.7149 120.913C89.619 121.196 89.571 121.497 89.571 121.815ZM100.511 124.248V115.577H101.728V125.621H100.616L100.511 124.248ZM95.7507 122.162V122.024C95.7507 121.484 95.8161 120.993 95.9468 120.553C96.082 120.108 96.2716 119.727 96.5158 119.409C96.7643 119.091 97.0585 118.846 97.3986 118.676C97.743 118.502 98.1266 118.415 98.5495 118.415C98.9942 118.415 99.3822 118.493 99.7135 118.65C100.049 118.803 100.333 119.027 100.564 119.324C100.799 119.616 100.984 119.969 101.119 120.383C101.255 120.797 101.348 121.266 101.401 121.789V122.391C101.353 122.909 101.259 123.376 101.119 123.79C100.984 124.204 100.799 124.557 100.564 124.849C100.333 125.142 100.049 125.366 99.7135 125.523C99.3778 125.676 98.9854 125.752 98.5364 125.752C98.1222 125.752 97.743 125.663 97.3986 125.484C97.0585 125.305 96.7643 125.054 96.5158 124.732C96.2716 124.409 96.082 124.03 95.9468 123.594C95.8161 123.154 95.7507 122.676 95.7507 122.162ZM96.967 122.024V122.162C96.967 122.515 97.0018 122.846 97.0716 123.156C97.1457 123.465 97.2591 123.738 97.4116 123.973C97.5642 124.209 97.7582 124.394 97.9936 124.529C98.2291 124.66 98.5102 124.725 98.8372 124.725C99.2383 124.725 99.5674 124.64 99.8246 124.47C100.086 124.3 100.295 124.076 100.452 123.797C100.609 123.518 100.731 123.215 100.819 122.888V121.312C100.766 121.072 100.69 120.841 100.59 120.619C100.494 120.392 100.367 120.191 100.21 120.017C100.058 119.838 99.8682 119.696 99.6415 119.592C99.4192 119.487 99.1555 119.435 98.8503 119.435C98.519 119.435 98.2334 119.505 97.9936 119.644C97.7582 119.779 97.5642 119.967 97.4116 120.207C97.2591 120.442 97.1457 120.717 97.0716 121.031C97.0018 121.34 96.967 121.671 96.967 122.024ZM106.926 115.577H108.143V124.248L108.038 125.621H106.926V115.577ZM112.923 122.024V122.162C112.923 122.676 112.862 123.154 112.74 123.594C112.618 124.03 112.439 124.409 112.204 124.732C111.968 125.054 111.68 125.305 111.34 125.484C111 125.663 110.61 125.752 110.17 125.752C109.721 125.752 109.326 125.676 108.986 125.523C108.651 125.366 108.367 125.142 108.136 124.849C107.905 124.557 107.72 124.204 107.58 123.79C107.445 123.376 107.351 122.909 107.299 122.391V121.789C107.351 121.266 107.445 120.797 107.58 120.383C107.72 119.969 107.905 119.616 108.136 119.324C108.367 119.027 108.651 118.803 108.986 118.65C109.322 118.493 109.712 118.415 110.157 118.415C110.601 118.415 110.996 118.502 111.34 118.676C111.685 118.846 111.973 119.091 112.204 119.409C112.439 119.727 112.618 120.108 112.74 120.553C112.862 120.993 112.923 121.484 112.923 122.024ZM111.707 122.162V122.024C111.707 121.671 111.674 121.34 111.608 121.031C111.543 120.717 111.438 120.442 111.295 120.207C111.151 119.967 110.961 119.779 110.726 119.644C110.49 119.505 110.2 119.435 109.856 119.435C109.551 119.435 109.285 119.487 109.058 119.592C108.836 119.696 108.646 119.838 108.489 120.017C108.332 120.191 108.204 120.392 108.103 120.619C108.008 120.841 107.936 121.072 107.888 121.312V122.888C107.957 123.193 108.071 123.487 108.228 123.77C108.389 124.049 108.603 124.278 108.869 124.457C109.139 124.636 109.472 124.725 109.869 124.725C110.196 124.725 110.475 124.66 110.706 124.529C110.941 124.394 111.131 124.209 111.275 123.973C111.423 123.738 111.532 123.465 111.602 123.156C111.672 122.846 111.707 122.515 111.707 122.162ZM115.767 118.546V125.621H114.551V118.546H115.767ZM114.46 116.669C114.46 116.473 114.518 116.307 114.636 116.172C114.758 116.037 114.937 115.969 115.172 115.969C115.403 115.969 115.58 116.037 115.702 116.172C115.829 116.307 115.892 116.473 115.892 116.669C115.892 116.856 115.829 117.018 115.702 117.153C115.58 117.283 115.403 117.349 115.172 117.349C114.937 117.349 114.758 117.283 114.636 117.153C114.518 117.018 114.46 116.856 114.46 116.669ZM120.672 118.546V119.474H116.846V118.546H120.672ZM118.141 116.826H119.351V123.869C119.351 124.108 119.388 124.289 119.462 124.411C119.536 124.533 119.632 124.614 119.75 124.653C119.868 124.693 119.994 124.712 120.129 124.712C120.229 124.712 120.334 124.703 120.443 124.686C120.556 124.664 120.641 124.647 120.698 124.634L120.705 125.621C120.609 125.652 120.482 125.68 120.325 125.706C120.173 125.737 119.988 125.752 119.77 125.752C119.473 125.752 119.201 125.693 118.952 125.575C118.704 125.458 118.505 125.261 118.357 124.987C118.213 124.708 118.141 124.333 118.141 123.862V116.826ZM124.923 124.758C125.21 124.758 125.476 124.699 125.72 124.581C125.964 124.464 126.165 124.302 126.322 124.097C126.479 123.888 126.568 123.651 126.59 123.385H127.741C127.719 123.803 127.577 124.193 127.316 124.555C127.059 124.913 126.721 125.203 126.302 125.425C125.884 125.643 125.424 125.752 124.923 125.752C124.391 125.752 123.926 125.658 123.53 125.471C123.137 125.283 122.81 125.026 122.549 124.699C122.292 124.372 122.098 123.997 121.967 123.574C121.84 123.147 121.777 122.696 121.777 122.221V121.946C121.777 121.471 121.84 121.022 121.967 120.599C122.098 120.172 122.292 119.795 122.549 119.468C122.81 119.141 123.137 118.883 123.53 118.696C123.926 118.509 124.391 118.415 124.923 118.415C125.476 118.415 125.96 118.528 126.374 118.755C126.788 118.977 127.113 119.282 127.349 119.67C127.588 120.054 127.719 120.49 127.741 120.978H126.59C126.568 120.686 126.485 120.422 126.342 120.187C126.202 119.952 126.01 119.764 125.766 119.625C125.526 119.481 125.245 119.409 124.923 119.409C124.552 119.409 124.24 119.483 123.987 119.631C123.739 119.775 123.541 119.971 123.392 120.22C123.248 120.464 123.144 120.736 123.078 121.037C123.017 121.333 122.987 121.636 122.987 121.946V122.221C122.987 122.53 123.017 122.835 123.078 123.136C123.139 123.437 123.242 123.709 123.386 123.954C123.534 124.198 123.732 124.394 123.981 124.542C124.234 124.686 124.548 124.758 124.923 124.758ZM128.781 122.162V122.011C128.781 121.501 128.855 121.028 129.003 120.592C129.151 120.152 129.365 119.771 129.644 119.448C129.923 119.121 130.261 118.868 130.657 118.689C131.054 118.506 131.499 118.415 131.991 118.415C132.488 118.415 132.935 118.506 133.332 118.689C133.733 118.868 134.073 119.121 134.352 119.448C134.636 119.771 134.851 120.152 135 120.592C135.148 121.028 135.222 121.501 135.222 122.011V122.162C135.222 122.672 135.148 123.145 135 123.581C134.851 124.017 134.636 124.398 134.352 124.725C134.073 125.048 133.735 125.301 133.339 125.484C132.946 125.663 132.502 125.752 132.005 125.752C131.508 125.752 131.061 125.663 130.664 125.484C130.267 125.301 129.927 125.048 129.644 124.725C129.365 124.398 129.151 124.017 129.003 123.581C128.855 123.145 128.781 122.672 128.781 122.162ZM129.99 122.011V122.162C129.99 122.515 130.032 122.848 130.115 123.162C130.198 123.472 130.322 123.746 130.487 123.986C130.657 124.226 130.869 124.416 131.122 124.555C131.375 124.69 131.669 124.758 132.005 124.758C132.336 124.758 132.626 124.69 132.874 124.555C133.127 124.416 133.336 124.226 133.502 123.986C133.668 123.746 133.792 123.472 133.875 123.162C133.962 122.848 134.006 122.515 134.006 122.162V122.011C134.006 121.663 133.962 121.333 133.875 121.024C133.792 120.71 133.666 120.433 133.496 120.193C133.33 119.949 133.121 119.758 132.868 119.618C132.619 119.479 132.327 119.409 131.991 119.409C131.66 119.409 131.368 119.479 131.115 119.618C130.867 119.758 130.657 119.949 130.487 120.193C130.322 120.433 130.198 120.71 130.115 121.024C130.032 121.333 129.99 121.663 129.99 122.011ZM138.053 118.546V125.621H136.837V118.546H138.053ZM136.746 116.669C136.746 116.473 136.804 116.307 136.922 116.172C137.044 116.037 137.223 115.969 137.458 115.969C137.689 115.969 137.866 116.037 137.988 116.172C138.114 116.307 138.178 116.473 138.178 116.669C138.178 116.856 138.114 117.018 137.988 117.153C137.866 117.283 137.689 117.349 137.458 117.349C137.223 117.349 137.044 117.283 136.922 117.153C136.804 117.018 136.746 116.856 136.746 116.669ZM141.205 120.056V125.621H139.996V118.546H141.14L141.205 120.056ZM140.918 121.815L140.414 121.796C140.418 121.312 140.49 120.865 140.63 120.455C140.769 120.041 140.966 119.681 141.218 119.376C141.471 119.071 141.772 118.835 142.121 118.67C142.474 118.5 142.864 118.415 143.291 118.415C143.64 118.415 143.954 118.463 144.233 118.559C144.512 118.65 144.75 118.798 144.946 119.003C145.146 119.208 145.299 119.474 145.404 119.801C145.508 120.124 145.561 120.518 145.561 120.985V125.621H144.344V120.972C144.344 120.601 144.29 120.305 144.181 120.082C144.072 119.856 143.913 119.692 143.703 119.592C143.494 119.487 143.237 119.435 142.932 119.435C142.631 119.435 142.356 119.498 142.108 119.625C141.864 119.751 141.652 119.925 141.473 120.148C141.299 120.37 141.162 120.625 141.062 120.913C140.966 121.196 140.918 121.497 140.918 121.815Z" fill="black"/>
<rect width="194.8" height="0.60875" transform="translate(12.1748 142.797)" fill="#DEDEDE"/>
<path d="M15.1211 156.017L13.1153 161.539H12.2955L14.605 155.48H15.1335L15.1211 156.017ZM16.8023 161.539L14.7923 156.017L14.7798 155.48H15.3083L17.6262 161.539H16.8023ZM16.6982 159.296V159.954H13.2942V159.296H16.6982ZM19.239 157.931V161.539H18.465V157.036H19.1974L19.239 157.931ZM19.0809 159.117L18.723 159.105C18.7258 158.797 18.766 158.512 18.8437 158.252C18.9214 157.988 19.0365 157.759 19.1891 157.565C19.3417 157.371 19.5317 157.221 19.7592 157.116C19.9867 157.007 20.2503 156.953 20.5499 156.953C20.7607 156.953 20.9549 156.984 21.1325 157.045C21.31 157.103 21.464 157.196 21.5944 157.324C21.7248 157.451 21.826 157.615 21.8982 157.815C21.9703 158.014 22.0064 158.256 22.0064 158.539V161.539H21.2365V158.576C21.2365 158.34 21.1963 158.152 21.1158 158.01C21.0381 157.869 20.9272 157.766 20.7829 157.702C20.6386 157.636 20.4694 157.602 20.2752 157.602C20.0477 157.602 19.8577 157.643 19.7051 157.723C19.5525 157.804 19.4305 157.915 19.3389 158.056C19.2474 158.197 19.1808 158.36 19.1392 158.543C19.1003 158.723 19.0809 158.915 19.0809 159.117ZM21.998 158.693L21.482 158.851C21.4848 158.604 21.525 158.367 21.6027 158.139C21.6832 157.912 21.7983 157.709 21.9481 157.532C22.1007 157.354 22.2879 157.214 22.5099 157.111C22.7318 157.006 22.9857 156.953 23.2714 156.953C23.5128 156.953 23.7264 156.985 23.9123 157.049C24.1009 157.113 24.259 157.211 24.3867 157.344C24.5171 157.475 24.6155 157.643 24.6821 157.848C24.7487 158.053 24.782 158.297 24.782 158.58V161.539H24.008V158.572C24.008 158.32 23.9678 158.124 23.8873 157.985C23.8096 157.844 23.6986 157.745 23.5544 157.69C23.4129 157.632 23.2437 157.602 23.0467 157.602C22.8775 157.602 22.7277 157.632 22.5973 157.69C22.4669 157.748 22.3573 157.829 22.2685 157.931C22.1797 158.031 22.1118 158.146 22.0646 158.277C22.0202 158.407 21.998 158.546 21.998 158.693ZM25.8955 159.338V159.242C25.8955 158.917 25.9426 158.616 26.0369 158.339C26.1313 158.059 26.2672 157.816 26.4448 157.611C26.6223 157.403 26.8373 157.242 27.0898 157.128C27.3422 157.011 27.6252 156.953 27.9387 156.953C28.255 156.953 28.5393 157.011 28.7918 157.128C29.047 157.242 29.2634 157.403 29.441 157.611C29.6213 157.816 29.7586 158.059 29.8529 158.339C29.9473 158.616 29.9944 158.917 29.9944 159.242V159.338C29.9944 159.662 29.9473 159.963 29.8529 160.241C29.7586 160.518 29.6213 160.761 29.441 160.969C29.2634 161.174 29.0484 161.335 28.7959 161.452C28.5463 161.565 28.2633 161.622 27.947 161.622C27.6308 161.622 27.3464 161.565 27.0939 161.452C26.8415 161.335 26.6251 161.174 26.4448 160.969C26.2672 160.761 26.1313 160.518 26.0369 160.241C25.9426 159.963 25.8955 159.662 25.8955 159.338ZM26.6653 159.242V159.338C26.6653 159.562 26.6917 159.775 26.7444 159.974C26.7971 160.171 26.8762 160.346 26.9816 160.499C27.0898 160.651 27.2243 160.772 27.3852 160.861C27.5461 160.947 27.7334 160.99 27.947 160.99C28.1579 160.99 28.3423 160.947 28.5005 160.861C28.6614 160.772 28.7946 160.651 28.9 160.499C29.0054 160.346 29.0845 160.171 29.1372 159.974C29.1927 159.775 29.2204 159.562 29.2204 159.338V159.242C29.2204 159.02 29.1927 158.811 29.1372 158.614C29.0845 158.414 29.004 158.238 28.8958 158.085C28.7904 157.93 28.6572 157.808 28.4963 157.719C28.3382 157.63 28.1523 157.586 27.9387 157.586C27.7279 157.586 27.542 157.63 27.3811 157.719C27.2229 157.808 27.0898 157.93 26.9816 158.085C26.8762 158.238 26.7971 158.414 26.7444 158.614C26.6917 158.811 26.6653 159.02 26.6653 159.242ZM33.8669 160.499V157.036H34.6409V161.539H33.9043L33.8669 160.499ZM34.0125 159.55L34.3329 159.542C34.3329 159.841 34.301 160.119 34.2372 160.374C34.1762 160.626 34.0763 160.845 33.9376 161.031C33.7989 161.217 33.6172 161.363 33.3925 161.468C33.1678 161.571 32.8945 161.622 32.5727 161.622C32.3535 161.622 32.1524 161.59 31.9693 161.527C31.789 161.463 31.6336 161.364 31.5032 161.231C31.3728 161.098 31.2716 160.925 31.1994 160.711C31.1301 160.497 31.0954 160.241 31.0954 159.941V157.036H31.8653V159.949C31.8653 160.152 31.8874 160.32 31.9318 160.453C31.979 160.583 32.0414 160.687 32.1191 160.765C32.1995 160.84 32.2883 160.893 32.3854 160.923C32.4853 160.954 32.5879 160.969 32.6934 160.969C33.0207 160.969 33.2801 160.907 33.4715 160.782C33.663 160.654 33.8003 160.483 33.8835 160.27C33.9695 160.053 34.0125 159.813 34.0125 159.55ZM36.7364 157.998V161.539H35.9666V157.036H36.6948L36.7364 157.998ZM36.5533 159.117L36.2329 159.105C36.2357 158.797 36.2815 158.512 36.3702 158.252C36.459 157.988 36.5839 157.759 36.7448 157.565C36.9057 157.371 37.0971 157.221 37.319 157.116C37.5437 157.007 37.792 156.953 38.0639 156.953C38.2859 156.953 38.4856 156.984 38.6632 157.045C38.8407 157.103 38.9919 157.197 39.1167 157.328C39.2444 157.458 39.3415 157.627 39.408 157.835C39.4746 158.041 39.5079 158.292 39.5079 158.589V161.539H38.7339V158.58C38.7339 158.345 38.6992 158.156 38.6299 158.014C38.5605 157.87 38.4593 157.766 38.3261 157.702C38.1929 157.636 38.0292 157.602 37.835 157.602C37.6436 157.602 37.4688 157.643 37.3107 157.723C37.1554 157.804 37.0208 157.915 36.9071 158.056C36.7961 158.197 36.7087 158.36 36.6449 158.543C36.5839 158.723 36.5533 158.915 36.5533 159.117ZM42.7146 157.036V157.627H40.2801V157.036H42.7146ZM41.1041 155.942H41.874V160.424C41.874 160.576 41.8975 160.692 41.9447 160.769C41.9919 160.847 42.0529 160.898 42.1278 160.923C42.2027 160.948 42.2832 160.961 42.3692 160.961C42.433 160.961 42.4996 160.955 42.5689 160.944C42.641 160.93 42.6951 160.919 42.7312 160.911L42.7354 161.539C42.6743 161.558 42.5939 161.577 42.494 161.593C42.3969 161.613 42.279 161.622 42.1403 161.622C41.9516 161.622 41.7782 161.585 41.6201 161.51C41.462 161.435 41.3358 161.31 41.2414 161.135C41.1499 160.958 41.1041 160.719 41.1041 160.42V155.942Z" fill="#777777"/>
<path d="M17.3777 178.835V179.582H13.7109V178.835H17.3777ZM13.8964 172.658V179.582H12.9785V172.658H13.8964ZM16.8926 175.635V176.381H13.7109V175.635H16.8926ZM17.3302 172.658V173.409H13.7109V172.658H17.3302ZM19.5654 175.535V179.582H18.6856V174.436H19.5179L19.5654 175.535ZM19.3562 176.814L18.99 176.8C18.9931 176.448 19.0454 176.123 19.1469 175.825C19.2484 175.524 19.391 175.262 19.5749 175.04C19.7588 174.818 19.9776 174.647 20.2312 174.527C20.488 174.403 20.7718 174.341 21.0825 174.341C21.3362 174.341 21.5645 174.376 21.7674 174.446C21.9703 174.512 22.1431 174.62 22.2858 174.769C22.4316 174.918 22.5426 175.112 22.6187 175.349C22.6948 175.584 22.7328 175.871 22.7328 176.21V179.582H21.8482V176.201C21.8482 175.931 21.8086 175.716 21.7293 175.554C21.6501 175.389 21.5343 175.27 21.3821 175.197C21.23 175.121 21.0429 175.083 20.821 175.083C20.6022 175.083 20.4024 175.129 20.2217 175.221C20.0442 175.313 19.8904 175.44 19.7604 175.601C19.6336 175.763 19.5337 175.949 19.4608 176.158C19.391 176.364 19.3562 176.583 19.3562 176.814ZM26.528 174.436V175.112H23.7458V174.436H26.528ZM24.6875 173.185H25.5673V178.307C25.5673 178.482 25.5943 178.613 25.6482 178.702C25.7021 178.791 25.7718 178.85 25.8574 178.878C25.943 178.907 26.035 178.921 26.1333 178.921C26.2062 178.921 26.2823 178.915 26.3615 178.902C26.444 178.886 26.5058 178.873 26.547 178.864L26.5518 179.582C26.482 179.604 26.3901 179.625 26.2759 179.644C26.165 179.666 26.0302 179.677 25.8717 179.677C25.6561 179.677 25.4579 179.634 25.2772 179.549C25.0965 179.463 24.9522 179.32 24.8444 179.121C24.7398 178.918 24.6875 178.645 24.6875 178.303V173.185ZM29.9998 179.677C29.6415 179.677 29.3165 179.617 29.0248 179.496C28.7363 179.373 28.4874 179.2 28.2781 178.978C28.0721 178.756 27.9135 178.493 27.8026 178.189C27.6916 177.884 27.6361 177.551 27.6361 177.19V176.99C27.6361 176.572 27.6979 176.199 27.8216 175.872C27.9452 175.543 28.1133 175.264 28.3257 175.035C28.5381 174.807 28.7791 174.634 29.0486 174.517C29.3181 174.4 29.5971 174.341 29.8856 174.341C30.2534 174.341 30.5705 174.404 30.8368 174.531C31.1063 174.658 31.3266 174.836 31.4979 175.064C31.6691 175.289 31.7959 175.555 31.8783 175.863C31.9608 176.167 32.002 176.5 32.002 176.862V177.256H28.1592V176.538H31.1221V176.472C31.1095 176.243 31.0619 176.021 30.9795 175.806C30.9002 175.59 30.7734 175.413 30.599 175.273C30.4246 175.134 30.1868 175.064 29.8856 175.064C29.6859 175.064 29.502 175.107 29.3339 175.192C29.1659 175.275 29.0216 175.398 28.9012 175.563C28.7807 175.728 28.6871 175.93 28.6206 176.167C28.554 176.405 28.5207 176.679 28.5207 176.99V177.19C28.5207 177.434 28.554 177.664 28.6206 177.879C28.6903 178.092 28.7902 178.279 28.9202 178.441C29.0533 178.602 29.2135 178.729 29.4005 178.821C29.5908 178.913 29.8064 178.959 30.0473 178.959C30.358 178.959 30.6212 178.896 30.8368 178.769C31.0524 178.642 31.241 178.472 31.4027 178.26L31.9354 178.683C31.8244 178.851 31.6833 179.011 31.5121 179.164C31.3409 179.316 31.1301 179.439 30.8796 179.534C30.6323 179.63 30.339 179.677 29.9998 179.677ZM34.2135 175.245V179.582H33.3336V174.436H34.1897L34.2135 175.245ZM35.8209 174.408L35.8162 175.226C35.7433 175.21 35.6735 175.2 35.6069 175.197C35.5435 175.191 35.4706 175.188 35.3882 175.188C35.1852 175.188 35.0061 175.219 34.8507 175.283C34.6954 175.346 34.5638 175.435 34.456 175.549C34.3482 175.663 34.2626 175.8 34.1992 175.958C34.1389 176.113 34.0993 176.285 34.0803 176.472L33.833 176.614C33.833 176.304 33.8631 176.012 33.9233 175.739C33.9868 175.467 34.0835 175.226 34.2135 175.016C34.3434 174.804 34.5083 174.639 34.7081 174.522C34.911 174.401 35.1519 174.341 35.431 174.341C35.4944 174.341 35.5673 174.349 35.6497 174.365C35.7322 174.378 35.7892 174.392 35.8209 174.408ZM42.6932 178.702V176.053C42.6932 175.85 42.6519 175.674 42.5695 175.525C42.4902 175.373 42.3698 175.256 42.2081 175.173C42.0464 175.091 41.8466 175.05 41.6088 175.05C41.3869 175.05 41.1919 175.088 41.0238 175.164C40.859 175.24 40.729 175.34 40.6339 175.463C40.5419 175.587 40.4959 175.72 40.4959 175.863H39.6161C39.6161 175.679 39.6637 175.497 39.7588 175.316C39.8539 175.135 39.9902 174.972 40.1678 174.826C40.3485 174.677 40.5641 174.56 40.8146 174.474C41.0682 174.385 41.3504 174.341 41.6611 174.341C42.0353 174.341 42.365 174.404 42.6504 174.531C42.9389 174.658 43.164 174.85 43.3257 175.107C43.4906 175.36 43.573 175.679 43.573 176.063V178.46C43.573 178.631 43.5873 178.813 43.6158 179.007C43.6475 179.2 43.6935 179.366 43.7537 179.506V179.582H42.8358C42.7914 179.481 42.7566 179.346 42.7312 179.178C42.7058 179.007 42.6932 178.848 42.6932 178.702ZM42.8453 176.462L42.8549 177.08H41.9655C41.715 177.08 41.4915 177.101 41.2949 177.142C41.0984 177.18 40.9335 177.239 40.8003 177.318C40.6672 177.398 40.5657 177.497 40.4959 177.618C40.4262 177.735 40.3913 177.873 40.3913 178.032C40.3913 178.193 40.4278 178.341 40.5007 178.474C40.5736 178.607 40.683 178.713 40.8289 178.793C40.9779 178.869 41.1602 178.907 41.3758 178.907C41.6453 178.907 41.8831 178.85 42.0892 178.735C42.2952 178.621 42.4585 178.482 42.579 178.317C42.7027 178.152 42.7692 177.992 42.7788 177.837L43.1545 178.26C43.1323 178.393 43.072 178.54 42.9737 178.702C42.8755 178.864 42.7439 179.019 42.579 179.168C42.4173 179.314 42.2239 179.436 41.9988 179.534C41.7769 179.63 41.5264 179.677 41.2474 179.677C40.8986 179.677 40.5926 179.609 40.3295 179.473C40.0695 179.336 39.8666 179.154 39.7207 178.926C39.5781 178.694 39.5067 178.436 39.5067 178.151C39.5067 177.875 39.5606 177.632 39.6684 177.423C39.7762 177.21 39.9316 177.034 40.1345 176.895C40.3374 176.752 40.5816 176.644 40.8669 176.572C41.1523 176.499 41.4709 176.462 41.8228 176.462H42.8453ZM46.1364 175.459V179.582H45.2518V174.436H46.0888L46.1364 175.459ZM45.9557 176.814L45.5467 176.8C45.5498 176.448 45.5958 176.123 45.6846 175.825C45.7734 175.524 45.9049 175.262 46.0793 175.04C46.2537 174.818 46.4709 174.647 46.7309 174.527C46.9909 174.403 47.2921 174.341 47.6345 174.341C47.8755 174.341 48.0974 174.376 48.3003 174.446C48.5032 174.512 48.6792 174.618 48.8282 174.764C48.9772 174.91 49.093 175.097 49.1754 175.326C49.2578 175.554 49.299 175.83 49.299 176.153V179.582H48.4192V176.196C48.4192 175.926 48.3732 175.711 48.2813 175.549C48.1925 175.387 48.0657 175.27 47.9008 175.197C47.7359 175.121 47.5425 175.083 47.3206 175.083C47.0606 175.083 46.8434 175.129 46.6691 175.221C46.4947 175.313 46.3552 175.44 46.2505 175.601C46.1459 175.763 46.0698 175.949 46.0223 176.158C45.9779 176.364 45.9557 176.583 45.9557 176.814ZM49.2895 176.329L48.6998 176.51C48.703 176.228 48.7489 175.956 48.8377 175.696C48.9297 175.437 49.0612 175.205 49.2325 175.002C49.4068 174.799 49.6209 174.639 49.8745 174.522C50.1281 174.401 50.4183 174.341 50.7448 174.341C51.0207 174.341 51.2648 174.378 51.4772 174.45C51.6928 174.523 51.8735 174.636 52.0194 174.788C52.1684 174.937 52.281 175.129 52.3571 175.364C52.4332 175.598 52.4712 175.877 52.4712 176.201V179.582H51.5866V176.191C51.5866 175.903 51.5406 175.679 51.4487 175.521C51.3599 175.359 51.2331 175.246 51.0682 175.183C50.9065 175.116 50.7131 175.083 50.488 175.083C50.2946 175.083 50.1234 175.116 49.9744 175.183C49.8254 175.249 49.7001 175.341 49.5987 175.459C49.4972 175.573 49.4195 175.704 49.3656 175.853C49.3149 176.002 49.2895 176.161 49.2895 176.329ZM53.8742 177.066V176.957C53.8742 176.586 53.9281 176.242 54.0359 175.925C54.1437 175.605 54.299 175.327 54.502 175.093C54.7049 174.855 54.9506 174.671 55.2391 174.541C55.5276 174.408 55.851 174.341 56.2093 174.341C56.5707 174.341 56.8957 174.408 57.1843 174.541C57.4759 174.671 57.7233 174.855 57.9262 175.093C58.1323 175.327 58.2892 175.605 58.397 175.925C58.5048 176.242 58.5587 176.586 58.5587 176.957V177.066C58.5587 177.437 58.5048 177.781 58.397 178.098C58.2892 178.415 58.1323 178.693 57.9262 178.93C57.7233 179.165 57.4775 179.349 57.189 179.482C56.9037 179.612 56.5803 179.677 56.2188 179.677C55.8574 179.677 55.5324 179.612 55.2439 179.482C54.9553 179.349 54.708 179.165 54.502 178.93C54.299 178.693 54.1437 178.415 54.0359 178.098C53.9281 177.781 53.8742 177.437 53.8742 177.066ZM54.754 176.957V177.066C54.754 177.323 54.7841 177.566 54.8444 177.794C54.9046 178.019 54.995 178.219 55.1155 178.393C55.2391 178.567 55.3929 178.705 55.5768 178.807C55.7607 178.905 55.9747 178.954 56.2188 178.954C56.4598 178.954 56.6706 178.905 56.8513 178.807C57.0352 178.705 57.1874 178.567 57.3079 178.393C57.4284 178.219 57.5188 178.019 57.579 177.794C57.6424 177.566 57.6741 177.323 57.6741 177.066V176.957C57.6741 176.703 57.6424 176.464 57.579 176.239C57.5188 176.01 57.4268 175.809 57.3032 175.635C57.1827 175.457 57.0305 175.318 56.8466 175.216C56.6659 175.115 56.4534 175.064 56.2093 175.064C55.9683 175.064 55.7559 175.115 55.572 175.216C55.3913 175.318 55.2391 175.457 55.1155 175.635C54.995 175.809 54.9046 176.01 54.8444 176.239C54.7841 176.464 54.754 176.703 54.754 176.957ZM63.1148 178.393V174.436H63.9994V179.582H63.1576L63.1148 178.393ZM63.2813 177.309L63.6475 177.299C63.6475 177.642 63.611 177.959 63.5381 178.25C63.4683 178.539 63.3542 178.789 63.1957 179.002C63.0371 179.214 62.8295 179.381 62.5726 179.501C62.3158 179.618 62.0035 179.677 61.6357 179.677C61.3853 179.677 61.1554 179.641 60.9461 179.568C60.7401 179.495 60.5625 179.382 60.4135 179.23C60.2645 179.078 60.1487 178.88 60.0663 178.636C59.987 178.391 59.9474 178.098 59.9474 177.756V174.436H60.8272V177.765C60.8272 177.997 60.8526 178.189 60.9033 178.341C60.9572 178.49 61.0286 178.609 61.1174 178.697C61.2093 178.783 61.3108 178.843 61.4217 178.878C61.5359 178.913 61.6532 178.93 61.7737 178.93C62.1478 178.93 62.4442 178.859 62.663 178.716C62.8818 178.571 63.0387 178.376 63.1338 178.131C63.2321 177.884 63.2813 177.61 63.2813 177.309ZM66.5248 175.535V179.582H65.6449V174.436H66.4772L66.5248 175.535ZM66.3155 176.814L65.9493 176.8C65.9525 176.448 66.0048 176.123 66.1062 175.825C66.2077 175.524 66.3504 175.262 66.5343 175.04C66.7182 174.818 66.9369 174.647 67.1906 174.527C67.4474 174.403 67.7312 174.341 68.0419 174.341C68.2955 174.341 68.5238 174.376 68.7267 174.446C68.9296 174.512 69.1024 174.62 69.2451 174.769C69.391 174.918 69.5019 175.112 69.578 175.349C69.6541 175.584 69.6922 175.871 69.6922 176.21V179.582H68.8076V176.201C68.8076 175.931 68.7679 175.716 68.6887 175.554C68.6094 175.389 68.4937 175.27 68.3415 175.197C68.1893 175.121 68.0023 175.083 67.7803 175.083C67.5615 175.083 67.3618 175.129 67.1811 175.221C67.0035 175.313 66.8497 175.44 66.7198 175.601C66.5929 175.763 66.4931 175.949 66.4201 176.158C66.3504 176.364 66.3155 176.583 66.3155 176.814ZM73.4873 174.436V175.112H70.7052V174.436H73.4873ZM71.6468 173.185H72.5267V178.307C72.5267 178.482 72.5536 178.613 72.6075 178.702C72.6614 178.791 72.7312 178.85 72.8168 178.878C72.9024 178.907 72.9943 178.921 73.0926 178.921C73.1655 178.921 73.2416 178.915 73.3209 178.902C73.4033 178.886 73.4651 178.873 73.5064 178.864L73.5111 179.582C73.4414 179.604 73.3494 179.625 73.2353 179.644C73.1243 179.666 72.9896 179.677 72.831 179.677C72.6154 179.677 72.4173 179.634 72.2366 179.549C72.0558 179.463 71.9116 179.32 71.8038 179.121C71.6991 178.918 71.6468 178.645 71.6468 178.303V173.185ZM74.838 179.116C74.838 178.967 74.884 178.842 74.9759 178.74C75.071 178.636 75.2074 178.583 75.3849 178.583C75.5625 178.583 75.6972 178.636 75.7892 178.74C75.8843 178.842 75.9319 178.967 75.9319 179.116C75.9319 179.262 75.8843 179.385 75.7892 179.487C75.6972 179.588 75.5625 179.639 75.3849 179.639C75.2074 179.639 75.071 179.588 74.9759 179.487C74.884 179.385 74.838 179.262 74.838 179.116ZM77.7105 179.116C77.7105 178.967 77.7565 178.842 77.8485 178.74C77.9436 178.636 78.0799 178.583 78.2575 178.583C78.435 178.583 78.5698 178.636 78.6617 178.74C78.7568 178.842 78.8044 178.967 78.8044 179.116C78.8044 179.262 78.7568 179.385 78.6617 179.487C78.5698 179.588 78.435 179.639 78.2575 179.639C78.0799 179.639 77.9436 179.588 77.8485 179.487C77.7565 179.385 77.7105 179.262 77.7105 179.116Z" fill="black"/>
<path d="M197.901 169.408L195.437 171.872L192.973 169.408M195.437 164.645V171.759" stroke="black" stroke-width="0.60875" stroke-miterlimit="10" stroke-linecap="round" stroke-linejoin="round"/>
<path d="M198.395 167.108L200.859 164.644L203.323 167.108M200.859 171.871L200.859 164.757" stroke="black" stroke-width="0.60875" stroke-miterlimit="10" stroke-linecap="round" stroke-linejoin="round"/>
<rect width="194.8" height="0.60875" transform="translate(12.1748 192.711)" fill="#DEDEDE"/>
<path d="M15.1169 205.394V211.453H14.3262V205.394H15.1169ZM17.0644 205.394V206.052H12.3829V205.394H17.0644ZM17.3789 209.252V209.156C17.3789 208.831 17.4261 208.53 17.5204 208.253C17.6147 207.973 17.7507 207.73 17.9282 207.525C18.1058 207.317 18.3208 207.156 18.5732 207.042C18.8257 206.926 19.1086 206.867 19.4221 206.867C19.7384 206.867 20.0228 206.926 20.2752 207.042C20.5305 207.156 20.7468 207.317 20.9244 207.525C21.1047 207.73 21.242 207.973 21.3364 208.253C21.4307 208.53 21.4779 208.831 21.4779 209.156V209.252C21.4779 209.576 21.4307 209.877 21.3364 210.155C21.242 210.432 21.1047 210.675 20.9244 210.883C20.7468 211.088 20.5318 211.249 20.2794 211.366C20.0297 211.479 19.7467 211.536 19.4305 211.536C19.1142 211.536 18.8298 211.479 18.5774 211.366C18.3249 211.249 18.1085 211.088 17.9282 210.883C17.7507 210.675 17.6147 210.432 17.5204 210.155C17.4261 209.877 17.3789 209.576 17.3789 209.252ZM18.1488 209.156V209.252C18.1488 209.476 18.1751 209.689 18.2278 209.888C18.2805 210.085 18.3596 210.26 18.465 210.413C18.5732 210.565 18.7078 210.686 18.8687 210.775C19.0296 210.861 19.2168 210.904 19.4305 210.904C19.6413 210.904 19.8258 210.861 19.9839 210.775C20.1448 210.686 20.278 210.565 20.3834 210.413C20.4888 210.26 20.5679 210.085 20.6206 209.888C20.6761 209.689 20.7038 209.476 20.7038 209.252V209.156C20.7038 208.934 20.6761 208.725 20.6206 208.528C20.5679 208.328 20.4875 208.152 20.3793 207.999C20.2738 207.844 20.1407 207.722 19.9798 207.633C19.8216 207.544 19.6358 207.5 19.4221 207.5C19.2113 207.5 19.0254 207.544 18.8645 207.633C18.7064 207.722 18.5732 207.844 18.465 207.999C18.3596 208.152 18.2805 208.328 18.2278 208.528C18.1751 208.725 18.1488 208.934 18.1488 209.156Z" fill="#777777"/>
<path d="M15.5324 226.78H13.6824V226.034H15.5324C15.8907 226.034 16.1808 225.977 16.4028 225.863C16.6247 225.748 16.7864 225.59 16.8879 225.387C16.9925 225.184 17.0448 224.953 17.0448 224.693C17.0448 224.455 16.9925 224.231 16.8879 224.022C16.7864 223.813 16.6247 223.645 16.4028 223.518C16.1808 223.388 15.8907 223.323 15.5324 223.323H13.8964V229.496H12.9785V222.572H15.5324C16.0556 222.572 16.4979 222.662 16.8593 222.843C17.2208 223.023 17.495 223.274 17.6821 223.594C17.8692 223.911 17.9627 224.274 17.9627 224.683C17.9627 225.127 17.8692 225.506 17.6821 225.82C17.495 226.134 17.2208 226.373 16.8593 226.538C16.4979 226.7 16.0556 226.78 15.5324 226.78ZM20.2503 224.35V229.496H19.3657V224.35H20.2503ZM19.2991 222.985C19.2991 222.843 19.3419 222.722 19.4275 222.624C19.5163 222.526 19.6463 222.476 19.8175 222.476C19.9855 222.476 20.1139 222.526 20.2027 222.624C20.2946 222.722 20.3406 222.843 20.3406 222.985C20.3406 223.122 20.2946 223.239 20.2027 223.337C20.1139 223.432 19.9855 223.48 19.8175 223.48C19.6463 223.48 19.5163 223.432 19.4275 223.337C19.3419 223.239 19.2991 223.122 19.2991 222.985ZM24.0264 228.868C24.2357 228.868 24.4291 228.826 24.6066 228.74C24.7842 228.654 24.93 228.537 25.0442 228.388C25.1583 228.236 25.2233 228.063 25.2392 227.87H26.0762C26.0603 228.174 25.9573 228.458 25.7671 228.721C25.58 228.981 25.3343 229.192 25.0299 229.353C24.7255 229.512 24.391 229.591 24.0264 229.591C23.6396 229.591 23.3019 229.523 23.0134 229.387C22.7281 229.25 22.4903 229.063 22.3 228.826C22.113 228.588 21.9719 228.315 21.8768 228.008C21.7848 227.697 21.7388 227.369 21.7388 227.023V226.823C21.7388 226.478 21.7848 226.151 21.8768 225.844C21.9719 225.533 22.113 225.259 22.3 225.021C22.4903 224.783 22.7281 224.596 23.0134 224.46C23.3019 224.323 23.6396 224.255 24.0264 224.255C24.4291 224.255 24.781 224.338 25.0822 224.502C25.3834 224.664 25.6196 224.886 25.7908 225.168C25.9652 225.447 26.0603 225.764 26.0762 226.119H25.2392C25.2233 225.907 25.1631 225.715 25.0584 225.544C24.957 225.373 24.8175 225.236 24.6399 225.135C24.4655 225.03 24.261 224.978 24.0264 224.978C23.7569 224.978 23.5302 225.032 23.3463 225.14C23.1656 225.244 23.0213 225.387 22.9135 225.568C22.8089 225.745 22.7328 225.943 22.6853 226.162C22.6409 226.378 22.6187 226.598 22.6187 226.823V227.023C22.6187 227.248 22.6409 227.47 22.6853 227.689C22.7296 227.908 22.8042 228.106 22.9088 228.283C23.0166 228.461 23.1608 228.604 23.3416 228.711C23.5255 228.816 23.7537 228.868 24.0264 228.868ZM28.2544 222.191V229.496H27.3698V222.191H28.2544ZM31.398 224.35L29.1532 226.752L27.8977 228.055L27.8263 227.118L28.7252 226.043L30.3232 224.35H31.398ZM30.5942 229.496L28.7585 227.042L29.215 226.257L31.631 229.496H30.5942ZM37.3904 228.868C37.5996 228.868 37.793 228.826 37.9706 228.74C38.1481 228.654 38.294 228.537 38.4081 228.388C38.5223 228.236 38.5873 228.063 38.6031 227.87H39.4401C39.4243 228.174 39.3212 228.458 39.131 228.721C38.944 228.981 38.6982 229.192 38.3939 229.353C38.0895 229.512 37.755 229.591 37.3904 229.591C37.0036 229.591 36.6659 229.523 36.3774 229.387C36.092 229.25 35.8542 229.063 35.664 228.826C35.4769 228.588 35.3358 228.315 35.2407 228.008C35.1488 227.697 35.1028 227.369 35.1028 227.023V226.823C35.1028 226.478 35.1488 226.151 35.2407 225.844C35.3358 225.533 35.4769 225.259 35.664 225.021C35.8542 224.783 36.092 224.596 36.3774 224.46C36.6659 224.323 37.0036 224.255 37.3904 224.255C37.793 224.255 38.145 224.338 38.4462 224.502C38.7474 224.664 38.9836 224.886 39.1548 225.168C39.3292 225.447 39.4243 225.764 39.4401 226.119H38.6031C38.5873 225.907 38.527 225.715 38.4224 225.544C38.3209 225.373 38.1814 225.236 38.0039 225.135C37.8295 225.03 37.625 224.978 37.3904 224.978C37.1209 224.978 36.8942 225.032 36.7103 225.14C36.5296 225.244 36.3853 225.387 36.2775 225.568C36.1729 225.745 36.0968 225.943 36.0492 226.162C36.0048 226.378 35.9826 226.598 35.9826 226.823V227.023C35.9826 227.248 36.0048 227.47 36.0492 227.689C36.0936 227.908 36.1681 228.106 36.2727 228.283C36.3805 228.461 36.5248 228.604 36.7055 228.711C36.8894 228.816 37.1177 228.868 37.3904 228.868ZM40.5007 226.98V226.871C40.5007 226.5 40.5546 226.156 40.6624 225.839C40.7702 225.519 40.9256 225.241 41.1285 225.007C41.3314 224.769 41.5771 224.585 41.8656 224.455C42.1542 224.322 42.4776 224.255 42.8358 224.255C43.1973 224.255 43.5223 224.322 43.8108 224.455C44.1025 224.585 44.3498 224.769 44.5527 225.007C44.7588 225.241 44.9157 225.519 45.0235 225.839C45.1313 226.156 45.1852 226.5 45.1852 226.871V226.98C45.1852 227.351 45.1313 227.695 45.0235 228.012C44.9157 228.329 44.7588 228.607 44.5527 228.845C44.3498 229.079 44.1041 229.263 43.8155 229.396C43.5302 229.526 43.2068 229.591 42.8453 229.591C42.4839 229.591 42.1589 229.526 41.8704 229.396C41.5819 229.263 41.3346 229.079 41.1285 228.845C40.9256 228.607 40.7702 228.329 40.6624 228.012C40.5546 227.695 40.5007 227.351 40.5007 226.98ZM41.3805 226.871V226.98C41.3805 227.237 41.4107 227.48 41.4709 227.708C41.5311 227.933 41.6215 228.133 41.742 228.307C41.8656 228.482 42.0194 228.619 42.2033 228.721C42.3872 228.819 42.6012 228.868 42.8453 228.868C43.0863 228.868 43.2971 228.819 43.4779 228.721C43.6618 228.619 43.814 228.482 43.9344 228.307C44.0549 228.133 44.1453 227.933 44.2055 227.708C44.2689 227.48 44.3006 227.237 44.3006 226.98V226.871C44.3006 226.617 44.2689 226.378 44.2055 226.153C44.1453 225.924 44.0533 225.723 43.9297 225.549C43.8092 225.371 43.657 225.232 43.4731 225.13C43.2924 225.029 43.08 224.978 42.8358 224.978C42.5949 224.978 42.3824 225.029 42.1985 225.13C42.0178 225.232 41.8656 225.371 41.742 225.549C41.6215 225.723 41.5311 225.924 41.4709 226.153C41.4107 226.378 41.3805 226.617 41.3805 226.871ZM47.4728 225.449V229.496H46.593V224.35H47.4252L47.4728 225.449ZM47.2635 226.728L46.8973 226.714C46.9005 226.362 46.9528 226.037 47.0543 225.739C47.1557 225.438 47.2984 225.176 47.4823 224.954C47.6662 224.732 47.885 224.561 48.1386 224.441C48.3954 224.317 48.6792 224.255 48.9899 224.255C49.2436 224.255 49.4718 224.29 49.6748 224.36C49.8777 224.426 50.0505 224.534 50.1931 224.683C50.339 224.832 50.45 225.026 50.5261 225.263C50.6021 225.498 50.6402 225.785 50.6402 226.124V229.496H49.7556V226.115C49.7556 225.845 49.716 225.63 49.6367 225.468C49.5574 225.303 49.4417 225.184 49.2895 225.111C49.1373 225.035 48.9503 224.997 48.7283 224.997C48.5096 224.997 48.3098 225.043 48.1291 225.135C47.9515 225.227 47.7978 225.354 47.6678 225.515C47.541 225.677 47.4411 225.863 47.3682 226.072C47.2984 226.278 47.2635 226.497 47.2635 226.728ZM54.4354 224.35V225.026H51.6532V224.35H54.4354ZM52.5949 223.099H53.4747V228.222C53.4747 228.396 53.5016 228.527 53.5555 228.616C53.6094 228.705 53.6792 228.764 53.7648 228.792C53.8504 228.821 53.9423 228.835 54.0406 228.835C54.1136 228.835 54.1897 228.829 54.2689 228.816C54.3513 228.8 54.4132 228.787 54.4544 228.778L54.4591 229.496C54.3894 229.518 54.2975 229.539 54.1833 229.558C54.0723 229.58 53.9376 229.591 53.7791 229.591C53.5635 229.591 53.3653 229.548 53.1846 229.463C53.0039 229.377 52.8596 229.235 52.7518 229.035C52.6472 228.832 52.5949 228.559 52.5949 228.217V223.099ZM58.806 228.616V225.967C58.806 225.764 58.7648 225.588 58.6824 225.439C58.6031 225.287 58.4826 225.17 58.3209 225.087C58.1592 225.005 57.9595 224.964 57.7217 224.964C57.4997 224.964 57.3047 225.002 57.1367 225.078C56.9718 225.154 56.8418 225.254 56.7467 225.378C56.6548 225.501 56.6088 225.634 56.6088 225.777H55.729C55.729 225.593 55.7765 225.411 55.8716 225.23C55.9668 225.049 56.1031 224.886 56.2806 224.74C56.4614 224.591 56.677 224.474 56.9274 224.388C57.1811 224.3 57.4633 224.255 57.774 224.255C58.1481 224.255 58.4778 224.319 58.7632 224.445C59.0517 224.572 59.2768 224.764 59.4385 225.021C59.6034 225.274 59.6858 225.593 59.6858 225.977V228.374C59.6858 228.545 59.7001 228.727 59.7286 228.921C59.7603 229.114 59.8063 229.28 59.8666 229.42V229.496H58.9487C58.9043 229.395 58.8694 229.26 58.844 229.092C58.8187 228.921 58.806 228.762 58.806 228.616ZM58.9582 226.376L58.9677 226.995H58.0784C57.8279 226.995 57.6044 227.015 57.4078 227.056C57.2112 227.094 57.0463 227.153 56.9132 227.232C56.78 227.312 56.6785 227.411 56.6088 227.532C56.539 227.649 56.5042 227.787 56.5042 227.946C56.5042 228.107 56.5406 228.255 56.6136 228.388C56.6865 228.521 56.7959 228.627 56.9417 228.707C57.0907 228.783 57.273 228.821 57.4886 228.821C57.7581 228.821 57.9959 228.764 58.202 228.65C58.4081 228.535 58.5714 228.396 58.6919 228.231C58.8155 228.066 58.8821 227.906 58.8916 227.751L59.2673 228.174C59.2451 228.307 59.1849 228.455 59.0866 228.616C58.9883 228.778 58.8567 228.933 58.6919 229.082C58.5302 229.228 58.3368 229.35 58.1116 229.449C57.8897 229.544 57.6392 229.591 57.3602 229.591C57.0115 229.591 56.7055 229.523 56.4423 229.387C56.1824 229.25 55.9794 229.068 55.8336 228.84C55.6909 228.608 55.6196 228.35 55.6196 228.065C55.6196 227.789 55.6735 227.546 55.7813 227.337C55.8891 227.125 56.0444 226.949 56.2474 226.809C56.4503 226.666 56.6944 226.559 56.9798 226.486C57.2651 226.413 57.5837 226.376 57.9357 226.376H58.9582ZM63.4335 228.868C63.6427 228.868 63.8361 228.826 64.0137 228.74C64.1912 228.654 64.3371 228.537 64.4512 228.388C64.5653 228.236 64.6303 228.063 64.6462 227.87H65.4832C65.4674 228.174 65.3643 228.458 65.1741 228.721C64.987 228.981 64.7413 229.192 64.4369 229.353C64.1326 229.512 63.7981 229.591 63.4335 229.591C63.0466 229.591 62.709 229.523 62.4205 229.387C62.1351 229.25 61.8973 229.063 61.7071 228.826C61.52 228.588 61.3789 228.315 61.2838 228.008C61.1919 227.697 61.1459 227.369 61.1459 227.023V226.823C61.1459 226.478 61.1919 226.151 61.2838 225.844C61.3789 225.533 61.52 225.259 61.7071 225.021C61.8973 224.783 62.1351 224.596 62.4205 224.46C62.709 224.323 63.0466 224.255 63.4335 224.255C63.8361 224.255 64.188 224.338 64.4893 224.502C64.7905 224.664 65.0267 224.886 65.1979 225.168C65.3723 225.447 65.4674 225.764 65.4832 226.119H64.6462C64.6303 225.907 64.5701 225.715 64.4655 225.544C64.364 225.373 64.2245 225.236 64.047 225.135C63.8726 225.03 63.6681 224.978 63.4335 224.978C63.164 224.978 62.9373 225.032 62.7534 225.14C62.5726 225.244 62.4284 225.387 62.3206 225.568C62.216 225.745 62.1399 225.943 62.0923 226.162C62.0479 226.378 62.0257 226.598 62.0257 226.823V227.023C62.0257 227.248 62.0479 227.47 62.0923 227.689C62.1367 227.908 62.2112 228.106 62.3158 228.283C62.4236 228.461 62.5679 228.604 62.7486 228.711C62.9325 228.816 63.1608 228.868 63.4335 228.868ZM68.9312 224.35V225.026H66.149V224.35H68.9312ZM67.0907 223.099H67.9705V228.222C67.9705 228.396 67.9975 228.527 68.0514 228.616C68.1053 228.705 68.175 228.764 68.2607 228.792C68.3463 228.821 68.4382 228.835 68.5365 228.835C68.6094 228.835 68.6855 228.829 68.7648 228.816C68.8472 228.8 68.909 228.787 68.9503 228.778L68.955 229.496C68.8853 229.518 68.7933 229.539 68.6792 229.558C68.5682 229.58 68.4334 229.591 68.2749 229.591C68.0593 229.591 67.8612 229.548 67.6804 229.463C67.4997 229.377 67.3555 229.235 67.2477 229.035C67.143 228.832 67.0907 228.559 67.0907 228.217V223.099ZM72.7549 226.98V226.871C72.7549 226.5 72.8088 226.156 72.9166 225.839C73.0244 225.519 73.1798 225.241 73.3827 225.007C73.5856 224.769 73.8314 224.585 74.1199 224.455C74.4084 224.322 74.7318 224.255 75.0901 224.255C75.4515 224.255 75.7765 224.322 76.065 224.455C76.3567 224.585 76.604 224.769 76.8069 225.007C77.013 225.241 77.17 225.519 77.2778 225.839C77.3856 226.156 77.4395 226.5 77.4395 226.871V226.98C77.4395 227.351 77.3856 227.695 77.2778 228.012C77.17 228.329 77.013 228.607 76.8069 228.845C76.604 229.079 76.3583 229.263 76.0698 229.396C75.7844 229.526 75.461 229.591 75.0996 229.591C74.7381 229.591 74.4132 229.526 74.1246 229.396C73.8361 229.263 73.5888 229.079 73.3827 228.845C73.1798 228.607 73.0244 228.329 72.9166 228.012C72.8088 227.695 72.7549 227.351 72.7549 226.98ZM73.6348 226.871V226.98C73.6348 227.237 73.6649 227.48 73.7251 227.708C73.7854 227.933 73.8757 228.133 73.9962 228.307C74.1199 228.482 74.2736 228.619 74.4575 228.721C74.6414 228.819 74.8554 228.868 75.0996 228.868C75.3405 228.868 75.5514 228.819 75.7321 228.721C75.916 228.619 76.0682 228.482 76.1887 228.307C76.3092 228.133 76.3995 227.933 76.4598 227.708C76.5232 227.48 76.5549 227.237 76.5549 226.98V226.871C76.5549 226.617 76.5232 226.378 76.4598 226.153C76.3995 225.924 76.3076 225.723 76.1839 225.549C76.0634 225.371 75.9112 225.232 75.7274 225.13C75.5466 225.029 75.3342 224.978 75.0901 224.978C74.8491 224.978 74.6367 225.029 74.4528 225.13C74.2721 225.232 74.1199 225.371 73.9962 225.549C73.8757 225.723 73.7854 225.924 73.7251 226.153C73.6649 226.378 73.6348 226.617 73.6348 226.871ZM79.727 225.159V229.496H78.8472V224.35H79.7033L79.727 225.159ZM81.3345 224.322L81.3298 225.14C81.2568 225.124 81.1871 225.114 81.1205 225.111C81.0571 225.105 80.9842 225.102 80.9017 225.102C80.6988 225.102 80.5197 225.133 80.3643 225.197C80.209 225.26 80.0774 225.349 79.9696 225.463C79.8618 225.577 79.7762 225.714 79.7128 225.872C79.6525 226.027 79.6129 226.199 79.5939 226.386L79.3466 226.528C79.3466 226.218 79.3767 225.926 79.4369 225.653C79.5003 225.381 79.597 225.14 79.727 224.93C79.857 224.718 80.0219 224.553 80.2216 224.436C80.4246 224.315 80.6655 224.255 80.9445 224.255C81.0079 224.255 81.0809 224.263 81.1633 224.279C81.2457 224.292 81.3028 224.306 81.3345 224.322ZM87.3079 229.591C86.9496 229.591 86.6246 229.531 86.3329 229.41C86.0444 229.287 85.7955 229.114 85.5863 228.892C85.3802 228.67 85.2216 228.407 85.1107 228.103C84.9997 227.798 84.9442 227.465 84.9442 227.104V226.904C84.9442 226.486 85.006 226.113 85.1297 225.787C85.2533 225.457 85.4214 225.178 85.6338 224.949C85.8462 224.721 86.0872 224.548 86.3567 224.431C86.6262 224.314 86.9052 224.255 87.1937 224.255C87.5615 224.255 87.8786 224.319 88.1449 224.445C88.4144 224.572 88.6348 224.75 88.806 224.978C88.9772 225.203 89.104 225.469 89.1864 225.777C89.2689 226.081 89.3101 226.414 89.3101 226.776V227.17H85.4674V226.452H88.4303V226.386C88.4176 226.157 88.37 225.936 88.2876 225.72C88.2083 225.504 88.0815 225.327 87.9071 225.187C87.7327 225.048 87.4949 224.978 87.1937 224.978C86.994 224.978 86.8101 225.021 86.6421 225.106C86.474 225.189 86.3298 225.313 86.2093 225.477C86.0888 225.642 85.9953 225.844 85.9287 226.081C85.8621 226.319 85.8288 226.593 85.8288 226.904V227.104C85.8288 227.348 85.8621 227.578 85.9287 227.793C85.9984 228.006 86.0983 228.193 86.2283 228.355C86.3615 228.516 86.5216 228.643 86.7086 228.735C86.8989 228.827 87.1145 228.873 87.3554 228.873C87.6661 228.873 87.9293 228.81 88.1449 228.683C88.3605 228.556 88.5492 228.386 88.7109 228.174L89.2435 228.597C89.1325 228.765 88.9914 228.925 88.8202 229.078C88.649 229.23 88.4382 229.353 88.1877 229.449C87.9404 229.544 87.6471 229.591 87.3079 229.591ZM91.5216 225.449V229.496H90.6417V224.35H91.474L91.5216 225.449ZM91.3123 226.728L90.9461 226.714C90.9493 226.362 91.0016 226.037 91.103 225.739C91.2045 225.438 91.3472 225.176 91.5311 224.954C91.715 224.732 91.9337 224.561 92.1874 224.441C92.4442 224.317 92.728 224.255 93.0387 224.255C93.2923 224.255 93.5206 224.29 93.7235 224.36C93.9264 224.426 94.0992 224.534 94.2419 224.683C94.3878 224.832 94.4987 225.026 94.5748 225.263C94.6509 225.498 94.689 225.785 94.689 226.124V229.496H93.8044V226.115C93.8044 225.845 93.7647 225.63 93.6855 225.468C93.6062 225.303 93.4905 225.184 93.3383 225.111C93.1861 225.035 92.9991 224.997 92.7771 224.997C92.5583 224.997 92.3586 225.043 92.1779 225.135C92.0003 225.227 91.8465 225.354 91.7166 225.515C91.5897 225.677 91.4899 225.863 91.4169 226.072C91.3472 226.278 91.3123 226.497 91.3123 226.728ZM98.4841 224.35V225.026H95.702V224.35H98.4841ZM96.6436 223.099H97.5235V228.222C97.5235 228.396 97.5504 228.527 97.6043 228.616C97.6582 228.705 97.728 228.764 97.8136 228.792C97.8992 228.821 97.9911 228.835 98.0894 228.835C98.1623 228.835 98.2384 228.829 98.3177 228.816C98.4001 228.8 98.4619 228.787 98.5032 228.778L98.5079 229.496C98.4382 229.518 98.3462 229.539 98.2321 229.558C98.1211 229.58 97.9864 229.591 97.8278 229.591C97.6122 229.591 97.4141 229.548 97.2333 229.463C97.0526 229.377 96.9084 229.235 96.8006 229.035C96.6959 228.832 96.6436 228.559 96.6436 228.217V223.099ZM101.956 229.591C101.598 229.591 101.273 229.531 100.981 229.41C100.692 229.287 100.444 229.114 100.234 228.892C100.028 228.67 99.8697 228.407 99.7587 228.103C99.6477 227.798 99.5923 227.465 99.5923 227.104V226.904C99.5923 226.486 99.6541 226.113 99.7777 225.787C99.9014 225.457 100.069 225.178 100.282 224.949C100.494 224.721 100.735 224.548 101.005 224.431C101.274 224.314 101.553 224.255 101.842 224.255C102.21 224.255 102.527 224.319 102.793 224.445C103.062 224.572 103.283 224.75 103.454 224.978C103.625 225.203 103.752 225.469 103.834 225.777C103.917 226.081 103.958 226.414 103.958 226.776V227.17H100.115V226.452H103.078V226.386C103.066 226.157 103.018 225.936 102.936 225.72C102.856 225.504 102.73 225.327 102.555 225.187C102.381 225.048 102.143 224.978 101.842 224.978C101.642 224.978 101.458 225.021 101.29 225.106C101.122 225.189 100.978 225.313 100.857 225.477C100.737 225.642 100.643 225.844 100.577 226.081C100.51 226.319 100.477 226.593 100.477 226.904V227.104C100.477 227.348 100.51 227.578 100.577 227.793C100.646 228.006 100.746 228.193 100.876 228.355C101.009 228.516 101.17 228.643 101.357 228.735C101.547 228.827 101.763 228.873 102.003 228.873C102.314 228.873 102.577 228.81 102.793 228.683C103.009 228.556 103.197 228.386 103.359 228.174L103.892 228.597C103.781 228.765 103.639 228.925 103.468 229.078C103.297 229.23 103.086 229.353 102.836 229.449C102.588 229.544 102.295 229.591 101.956 229.591ZM106.17 225.159V229.496H105.29V224.35H106.146L106.17 225.159ZM107.777 224.322L107.772 225.14C107.699 225.124 107.63 225.114 107.563 225.111C107.5 225.105 107.427 225.102 107.344 225.102C107.141 225.102 106.962 225.133 106.807 225.197C106.652 225.26 106.52 225.349 106.412 225.463C106.304 225.577 106.219 225.714 106.155 225.872C106.095 226.027 106.055 226.199 106.036 226.386L105.789 226.528C105.789 226.218 105.819 225.926 105.879 225.653C105.943 225.381 106.04 225.14 106.17 224.93C106.3 224.718 106.464 224.553 106.664 224.436C106.867 224.315 107.108 224.255 107.387 224.255C107.451 224.255 107.523 224.263 107.606 224.279C107.688 224.292 107.745 224.306 107.777 224.322ZM114.649 228.616V225.967C114.649 225.764 114.608 225.588 114.526 225.439C114.446 225.287 114.326 225.17 114.164 225.087C114.003 225.005 113.803 224.964 113.565 224.964C113.343 224.964 113.148 225.002 112.98 225.078C112.815 225.154 112.685 225.254 112.59 225.378C112.498 225.501 112.452 225.634 112.452 225.777H111.572C111.572 225.593 111.62 225.411 111.715 225.23C111.81 225.049 111.946 224.886 112.124 224.74C112.305 224.591 112.52 224.474 112.771 224.388C113.024 224.3 113.307 224.255 113.617 224.255C113.991 224.255 114.321 224.319 114.607 224.445C114.895 224.572 115.12 224.764 115.282 225.021C115.447 225.274 115.529 225.593 115.529 225.977V228.374C115.529 228.545 115.543 228.727 115.572 228.921C115.604 229.114 115.65 229.28 115.71 229.42V229.496H114.792C114.748 229.395 114.713 229.26 114.687 229.092C114.662 228.921 114.649 228.762 114.649 228.616ZM114.801 226.376L114.811 226.995H113.922C113.671 226.995 113.448 227.015 113.251 227.056C113.055 227.094 112.89 227.153 112.756 227.232C112.623 227.312 112.522 227.411 112.452 227.532C112.382 227.649 112.347 227.787 112.347 227.946C112.347 228.107 112.384 228.255 112.457 228.388C112.53 228.521 112.639 228.627 112.785 228.707C112.934 228.783 113.116 228.821 113.332 228.821C113.601 228.821 113.839 228.764 114.045 228.65C114.251 228.535 114.415 228.396 114.535 228.231C114.659 228.066 114.725 227.906 114.735 227.751L115.111 228.174C115.088 228.307 115.028 228.455 114.93 228.616C114.832 228.778 114.7 228.933 114.535 229.082C114.373 229.228 114.18 229.35 113.955 229.449C113.733 229.544 113.483 229.591 113.204 229.591C112.855 229.591 112.549 229.523 112.286 229.387C112.026 229.25 111.823 229.068 111.677 228.84C111.534 228.608 111.463 228.35 111.463 228.065C111.463 227.789 111.517 227.546 111.625 227.337C111.732 227.125 111.888 226.949 112.091 226.809C112.294 226.666 112.538 226.559 112.823 226.486C113.108 226.413 113.427 226.376 113.779 226.376H114.801ZM120.461 228.497V222.191H121.346V229.496H120.537L120.461 228.497ZM116.999 226.98V226.88C116.999 226.487 117.046 226.131 117.141 225.81C117.24 225.487 117.378 225.209 117.555 224.978C117.736 224.747 117.95 224.569 118.197 224.445C118.448 224.319 118.727 224.255 119.034 224.255C119.358 224.255 119.64 224.312 119.881 224.426C120.125 224.537 120.331 224.701 120.499 224.916C120.67 225.129 120.805 225.385 120.903 225.687C121.002 225.988 121.07 226.329 121.108 226.709V227.147C121.073 227.524 121.005 227.863 120.903 228.164C120.805 228.466 120.67 228.722 120.499 228.935C120.331 229.147 120.125 229.311 119.881 229.425C119.637 229.536 119.351 229.591 119.025 229.591C118.723 229.591 118.448 229.526 118.197 229.396C117.95 229.266 117.736 229.084 117.555 228.849C117.378 228.615 117.24 228.339 117.141 228.022C117.046 227.702 116.999 227.354 116.999 226.98ZM117.883 226.88V226.98C117.883 227.237 117.909 227.478 117.959 227.703C118.013 227.928 118.096 228.126 118.207 228.298C118.318 228.469 118.459 228.604 118.63 228.702C118.801 228.797 119.006 228.845 119.243 228.845C119.535 228.845 119.775 228.783 119.962 228.659C120.152 228.535 120.304 228.372 120.418 228.169C120.532 227.966 120.621 227.746 120.684 227.508V226.362C120.646 226.188 120.591 226.02 120.518 225.858C120.448 225.693 120.356 225.547 120.242 225.42C120.131 225.29 119.993 225.187 119.828 225.111C119.667 225.035 119.475 224.997 119.253 224.997C119.012 224.997 118.804 225.048 118.63 225.149C118.459 225.248 118.318 225.384 118.207 225.558C118.096 225.729 118.013 225.929 117.959 226.157C117.909 226.383 117.883 226.624 117.883 226.88ZM126.263 228.497V222.191H127.148V229.496H126.339L126.263 228.497ZM122.801 226.98V226.88C122.801 226.487 122.848 226.131 122.944 225.81C123.042 225.487 123.18 225.209 123.357 224.978C123.538 224.747 123.752 224.569 123.999 224.445C124.25 224.319 124.529 224.255 124.836 224.255C125.16 224.255 125.442 224.312 125.683 224.426C125.927 224.537 126.133 224.701 126.301 224.916C126.472 225.129 126.607 225.385 126.705 225.687C126.804 225.988 126.872 226.329 126.91 226.709V227.147C126.875 227.524 126.807 227.863 126.705 228.164C126.607 228.466 126.472 228.722 126.301 228.935C126.133 229.147 125.927 229.311 125.683 229.425C125.439 229.536 125.153 229.591 124.827 229.591C124.526 229.591 124.25 229.526 123.999 229.396C123.752 229.266 123.538 229.084 123.357 228.849C123.18 228.615 123.042 228.339 122.944 228.022C122.848 227.702 122.801 227.354 122.801 226.98ZM123.685 226.88V226.98C123.685 227.237 123.711 227.478 123.762 227.703C123.815 227.928 123.898 228.126 124.009 228.298C124.12 228.469 124.261 228.604 124.432 228.702C124.603 228.797 124.808 228.845 125.046 228.845C125.337 228.845 125.577 228.783 125.764 228.659C125.954 228.535 126.106 228.372 126.22 228.169C126.334 227.966 126.423 227.746 126.487 227.508V226.362C126.449 226.188 126.393 226.02 126.32 225.858C126.25 225.693 126.158 225.547 126.044 225.42C125.933 225.29 125.795 225.187 125.631 225.111C125.469 225.035 125.277 224.997 125.055 224.997C124.814 224.997 124.606 225.048 124.432 225.149C124.261 225.248 124.12 225.384 124.009 225.558C123.898 225.729 123.815 225.929 123.762 226.157C123.711 226.383 123.685 226.624 123.685 226.88ZM129.702 225.159V229.496H128.822V224.35H129.678L129.702 225.159ZM131.309 224.322L131.304 225.14C131.231 225.124 131.162 225.114 131.095 225.111C131.032 225.105 130.959 225.102 130.876 225.102C130.673 225.102 130.494 225.133 130.339 225.197C130.184 225.26 130.052 225.349 129.944 225.463C129.836 225.577 129.751 225.714 129.687 225.872C129.627 226.027 129.587 226.199 129.568 226.386L129.321 226.528C129.321 226.218 129.351 225.926 129.411 225.653C129.475 225.381 129.572 225.14 129.702 224.93C129.832 224.718 129.996 224.553 130.196 224.436C130.399 224.315 130.64 224.255 130.919 224.255C130.983 224.255 131.055 224.263 131.138 224.279C131.22 224.292 131.277 224.306 131.309 224.322ZM134.467 229.591C134.109 229.591 133.784 229.531 133.492 229.41C133.203 229.287 132.955 229.114 132.745 228.892C132.539 228.67 132.381 228.407 132.27 228.103C132.159 227.798 132.103 227.465 132.103 227.104V226.904C132.103 226.486 132.165 226.113 132.289 225.787C132.412 225.457 132.58 225.178 132.793 224.949C133.005 224.721 133.246 224.548 133.516 224.431C133.785 224.314 134.064 224.255 134.353 224.255C134.721 224.255 135.038 224.319 135.304 224.445C135.573 224.572 135.794 224.75 135.965 224.978C136.136 225.203 136.263 225.469 136.346 225.777C136.428 226.081 136.469 226.414 136.469 226.776V227.17H132.626V226.452H135.589V226.386C135.577 226.157 135.529 225.936 135.447 225.72C135.367 225.504 135.241 225.327 135.066 225.187C134.892 225.048 134.654 224.978 134.353 224.978C134.153 224.978 133.969 225.021 133.801 225.106C133.633 225.189 133.489 225.313 133.368 225.477C133.248 225.642 133.154 225.844 133.088 226.081C133.021 226.319 132.988 226.593 132.988 226.904V227.104C132.988 227.348 133.021 227.578 133.088 227.793C133.158 228.006 133.257 228.193 133.387 228.355C133.521 228.516 133.681 228.643 133.868 228.735C134.058 228.827 134.274 228.873 134.515 228.873C134.825 228.873 135.088 228.81 135.304 228.683C135.52 228.556 135.708 228.386 135.87 228.174L136.403 228.597C136.292 228.765 136.151 228.925 135.979 229.078C135.808 229.23 135.597 229.353 135.347 229.449C135.099 229.544 134.806 229.591 134.467 229.591ZM140.797 228.131C140.797 228.004 140.768 227.887 140.711 227.779C140.658 227.668 140.545 227.568 140.374 227.48C140.206 227.388 139.952 227.308 139.613 227.242C139.327 227.182 139.069 227.11 138.838 227.028C138.609 226.945 138.414 226.845 138.253 226.728C138.094 226.611 137.972 226.473 137.886 226.314C137.801 226.156 137.758 225.97 137.758 225.758C137.758 225.555 137.802 225.363 137.891 225.183C137.983 225.002 138.112 224.842 138.276 224.702C138.444 224.563 138.646 224.453 138.88 224.374C139.115 224.295 139.377 224.255 139.665 224.255C140.077 224.255 140.429 224.328 140.721 224.474C141.013 224.62 141.236 224.815 141.391 225.059C141.547 225.3 141.625 225.568 141.625 225.863H140.745C140.745 225.72 140.702 225.582 140.616 225.449C140.534 225.313 140.412 225.2 140.25 225.111C140.092 225.022 139.897 224.978 139.665 224.978C139.421 224.978 139.223 225.016 139.071 225.092C138.922 225.165 138.812 225.259 138.742 225.373C138.676 225.487 138.643 225.607 138.643 225.734C138.643 225.829 138.658 225.915 138.69 225.991C138.725 226.064 138.785 226.132 138.871 226.196C138.956 226.256 139.077 226.313 139.232 226.367C139.388 226.421 139.586 226.475 139.827 226.528C140.249 226.624 140.596 226.738 140.868 226.871C141.141 227.004 141.344 227.167 141.477 227.361C141.61 227.554 141.677 227.789 141.677 228.065C141.677 228.29 141.629 228.496 141.534 228.683C141.442 228.87 141.307 229.032 141.13 229.168C140.956 229.301 140.746 229.406 140.502 229.482C140.261 229.555 139.99 229.591 139.689 229.591C139.236 229.591 138.852 229.51 138.538 229.349C138.224 229.187 137.986 228.978 137.825 228.721C137.663 228.464 137.582 228.193 137.582 227.908H138.467C138.479 228.149 138.549 228.34 138.676 228.483C138.803 228.623 138.958 228.722 139.142 228.783C139.326 228.84 139.508 228.868 139.689 228.868C139.93 228.868 140.131 228.837 140.293 228.773C140.458 228.71 140.583 228.623 140.669 228.512C140.754 228.401 140.797 228.274 140.797 228.131ZM146.133 228.131C146.133 228.004 146.105 227.887 146.047 227.779C145.994 227.668 145.881 227.568 145.71 227.48C145.542 227.388 145.288 227.308 144.949 227.242C144.664 227.182 144.405 227.11 144.174 227.028C143.945 226.945 143.75 226.845 143.589 226.728C143.43 226.611 143.308 226.473 143.223 226.314C143.137 226.156 143.094 225.97 143.094 225.758C143.094 225.555 143.138 225.363 143.227 225.183C143.319 225.002 143.448 224.842 143.612 224.702C143.781 224.563 143.982 224.453 144.216 224.374C144.451 224.295 144.713 224.255 145.001 224.255C145.413 224.255 145.765 224.328 146.057 224.474C146.349 224.62 146.572 224.815 146.728 225.059C146.883 225.3 146.961 225.568 146.961 225.863H146.081C146.081 225.72 146.038 225.582 145.952 225.449C145.87 225.313 145.748 225.2 145.586 225.111C145.428 225.022 145.233 224.978 145.001 224.978C144.757 224.978 144.559 225.016 144.407 225.092C144.258 225.165 144.148 225.259 144.079 225.373C144.012 225.487 143.979 225.607 143.979 225.734C143.979 225.829 143.995 225.915 144.026 225.991C144.061 226.064 144.121 226.132 144.207 226.196C144.293 226.256 144.413 226.313 144.568 226.367C144.724 226.421 144.922 226.475 145.163 226.528C145.585 226.624 145.932 226.738 146.204 226.871C146.477 227.004 146.68 227.167 146.813 227.361C146.946 227.554 147.013 227.789 147.013 228.065C147.013 228.29 146.965 228.496 146.87 228.683C146.778 228.87 146.644 229.032 146.466 229.168C146.292 229.301 146.082 229.406 145.838 229.482C145.597 229.555 145.326 229.591 145.025 229.591C144.572 229.591 144.188 229.51 143.874 229.349C143.56 229.187 143.322 228.978 143.161 228.721C142.999 228.464 142.918 228.193 142.918 227.908H143.803C143.815 228.149 143.885 228.34 144.012 228.483C144.139 228.623 144.294 228.722 144.478 228.783C144.662 228.84 144.844 228.868 145.025 228.868C145.266 228.868 145.467 228.837 145.629 228.773C145.794 228.71 145.919 228.623 146.005 228.512C146.09 228.401 146.133 228.274 146.133 228.131Z" fill="#777777" fill-opacity="0.5"/>
<path d="M199.936 219.667C199.573 219.514 199.122 219.324 199.122 219.178V218.223C199.65 217.825 199.974 217.181 199.974 216.514V215.236C199.974 214.061 199.019 213.105 197.844 213.105C196.669 213.105 195.713 214.061 195.713 215.236V216.514C195.713 217.181 196.037 217.825 196.565 218.223V219.178C196.565 219.315 196.119 219.506 195.76 219.66C194.893 220.03 193.583 220.591 193.583 222.054V222.267H202.105V222.054C202.105 220.581 200.8 220.031 199.936 219.667Z" fill="black"/>
<rect width="194.8" height="0.60875" transform="translate(12.1748 242.625)" fill="#DEDEDE"/>
<rect width="194.8" height="0.60875" transform="translate(12.1748 243.234)" fill="#DEDEDE"/>
<path fill-rule="evenodd" clip-rule="evenodd" d="M16.4331 279.276V280.672C16.4331 280.84 16.5694 280.976 16.7375 280.976H18.1363C18.217 280.976 18.2944 280.944 18.3515 280.887L24.1025 275.136L22.2758 273.309L16.5223 279.061C16.4652 279.118 16.4331 279.195 16.4331 279.276ZM23.0299 272.556L24.8564 274.382L25.7456 273.493C25.9834 273.255 25.9834 272.87 25.7456 272.632L24.7802 271.667C24.5425 271.429 24.1571 271.429 23.9194 271.666L23.0299 272.556Z" fill="#999999"/>
<path d="M33.8044 273.294L31.5121 279.605H30.5752L33.2147 272.681H33.8187L33.8044 273.294ZM35.7258 279.605L33.4287 273.294L33.4144 272.681H34.0184L36.6674 279.605H35.7258ZM35.6069 277.042V277.793H31.7166V277.042H35.6069ZM41.0095 278.607V272.3H41.8941V279.605H41.0856L41.0095 278.607ZM37.5473 277.09V276.99C37.5473 276.597 37.5948 276.24 37.6899 275.92C37.7882 275.596 37.9261 275.319 38.1037 275.087C38.2844 274.856 38.4984 274.678 38.7457 274.555C38.9962 274.428 39.2752 274.365 39.5828 274.365C39.9062 274.365 40.1884 274.422 40.4293 274.536C40.6735 274.647 40.8795 274.81 41.0476 275.026C41.2188 275.238 41.3535 275.495 41.4518 275.796C41.5501 276.097 41.6183 276.438 41.6563 276.819V277.256C41.6215 277.633 41.5533 277.973 41.4518 278.274C41.3535 278.575 41.2188 278.832 41.0476 279.044C40.8795 279.257 40.6735 279.42 40.4293 279.534C40.1852 279.645 39.8998 279.701 39.5733 279.701C39.2721 279.701 38.9962 279.636 38.7457 279.506C38.4984 279.376 38.2844 279.193 38.1037 278.959C37.9261 278.724 37.7882 278.448 37.6899 278.131C37.5948 277.811 37.5473 277.464 37.5473 277.09ZM38.4319 276.99V277.09C38.4319 277.346 38.4572 277.587 38.5079 277.813C38.5618 278.038 38.6443 278.236 38.7553 278.407C38.8662 278.578 39.0073 278.713 39.1785 278.811C39.3497 278.906 39.5542 278.954 39.792 278.954C40.0837 278.954 40.3231 278.892 40.5102 278.768C40.7004 278.645 40.8526 278.482 40.9667 278.279C41.0809 278.076 41.1696 277.855 41.2331 277.618V276.471C41.195 276.297 41.1395 276.129 41.0666 275.967C40.9968 275.802 40.9049 275.657 40.7908 275.53C40.6798 275.4 40.5419 275.297 40.377 275.221C40.2153 275.144 40.0235 275.106 39.8015 275.106C39.5606 275.106 39.3529 275.157 39.1785 275.259C39.0073 275.357 38.8662 275.493 38.7553 275.668C38.6443 275.839 38.5618 276.039 38.5079 276.267C38.4572 276.492 38.4319 276.733 38.4319 276.99ZM46.8117 278.607V272.3H47.6963V279.605H46.8878L46.8117 278.607ZM43.3494 277.09V276.99C43.3494 276.597 43.397 276.24 43.4921 275.92C43.5904 275.596 43.7283 275.319 43.9058 275.087C44.0866 274.856 44.3006 274.678 44.5479 274.555C44.7984 274.428 45.0774 274.365 45.3849 274.365C45.7083 274.365 45.9905 274.422 46.2315 274.536C46.4756 274.647 46.6817 274.81 46.8497 275.026C47.0209 275.238 47.1557 275.495 47.254 275.796C47.3523 276.097 47.4204 276.438 47.4585 276.819V277.256C47.4236 277.633 47.3554 277.973 47.254 278.274C47.1557 278.575 47.0209 278.832 46.8497 279.044C46.6817 279.257 46.4756 279.42 46.2315 279.534C45.9873 279.645 45.702 279.701 45.3754 279.701C45.0742 279.701 44.7984 279.636 44.5479 279.506C44.3006 279.376 44.0866 279.193 43.9058 278.959C43.7283 278.724 43.5904 278.448 43.4921 278.131C43.397 277.811 43.3494 277.464 43.3494 277.09ZM44.234 276.99V277.09C44.234 277.346 44.2594 277.587 44.3101 277.813C44.364 278.038 44.4464 278.236 44.5574 278.407C44.6684 278.578 44.8095 278.713 44.9807 278.811C45.1519 278.906 45.3564 278.954 45.5942 278.954C45.8859 278.954 46.1253 278.892 46.3123 278.768C46.5025 278.645 46.6547 278.482 46.7689 278.279C46.883 278.076 46.9718 277.855 47.0352 277.618V276.471C46.9972 276.297 46.9417 276.129 46.8687 275.967C46.799 275.802 46.7071 275.657 46.5929 275.53C46.4819 275.4 46.344 275.297 46.1791 275.221C46.0175 275.144 45.8256 275.106 45.6037 275.106C45.3627 275.106 45.1551 275.157 44.9807 275.259C44.8095 275.357 44.6684 275.493 44.5574 275.668C44.4464 275.839 44.364 276.039 44.3101 276.267C44.2594 276.492 44.234 276.733 44.234 276.99ZM52.9705 275.558V279.605H52.0907V274.46H52.923L52.9705 275.558ZM52.7613 276.838L52.3951 276.823C52.3982 276.471 52.4505 276.146 52.552 275.848C52.6535 275.547 52.7961 275.286 52.98 275.064C53.1639 274.842 53.3827 274.67 53.6363 274.55C53.8932 274.426 54.1769 274.365 54.4876 274.365C54.7413 274.365 54.9696 274.399 55.1725 274.469C55.3754 274.536 55.5482 274.644 55.6909 274.793C55.8367 274.942 55.9477 275.135 56.0238 275.373C56.0999 275.607 56.1379 275.894 56.1379 276.234V279.605H55.2533V276.224C55.2533 275.955 55.2137 275.739 55.1344 275.577C55.0552 275.412 54.9394 275.293 54.7873 275.221C54.6351 275.144 54.448 275.106 54.2261 275.106C54.0073 275.106 53.8075 275.152 53.6268 275.244C53.4493 275.336 53.2955 275.463 53.1655 275.625C53.0387 275.787 52.9388 275.972 52.8659 276.181C52.7961 276.387 52.7613 276.606 52.7613 276.838ZM57.5457 277.09V276.98C57.5457 276.609 57.5996 276.265 57.7074 275.948C57.8152 275.628 57.9705 275.351 58.1734 275.116C58.3763 274.878 58.6221 274.694 58.9106 274.564C59.1991 274.431 59.5225 274.365 59.8808 274.365C60.2422 274.365 60.5672 274.431 60.8557 274.564C61.1474 274.694 61.3947 274.878 61.5976 275.116C61.8037 275.351 61.9607 275.628 62.0685 275.948C62.1763 276.265 62.2302 276.609 62.2302 276.98V277.09C62.2302 277.461 62.1763 277.805 62.0685 278.122C61.9607 278.439 61.8037 278.716 61.5976 278.954C61.3947 279.189 61.149 279.372 60.8605 279.506C60.5751 279.636 60.2517 279.701 59.8903 279.701C59.5288 279.701 59.2039 279.636 58.9153 279.506C58.6268 279.372 58.3795 279.189 58.1734 278.954C57.9705 278.716 57.8152 278.439 57.7074 278.122C57.5996 277.805 57.5457 277.461 57.5457 277.09ZM58.4255 276.98V277.09C58.4255 277.346 58.4556 277.589 58.5158 277.817C58.5761 278.042 58.6665 278.242 58.7869 278.417C58.9106 278.591 59.0644 278.729 59.2483 278.83C59.4321 278.929 59.6462 278.978 59.8903 278.978C60.1313 278.978 60.3421 278.929 60.5228 278.83C60.7067 278.729 60.8589 278.591 60.9794 278.417C61.0999 278.242 61.1902 278.042 61.2505 277.817C61.3139 277.589 61.3456 277.346 61.3456 277.09V276.98C61.3456 276.727 61.3139 276.487 61.2505 276.262C61.1902 276.034 61.0983 275.832 60.9746 275.658C60.8541 275.481 60.702 275.341 60.5181 275.24C60.3373 275.138 60.1249 275.087 59.8808 275.087C59.6398 275.087 59.4274 275.138 59.2435 275.24C59.0628 275.341 58.9106 275.481 58.7869 275.658C58.6665 275.832 58.5761 276.034 58.5158 276.262C58.4556 276.487 58.4255 276.727 58.4255 276.98ZM65.7923 274.46V275.135H63.0101V274.46H65.7923ZM63.9518 273.209H64.8316V278.331C64.8316 278.505 64.8586 278.637 64.9125 278.726C64.9664 278.814 65.0361 278.873 65.1217 278.902C65.2073 278.93 65.2993 278.944 65.3976 278.944C65.4705 278.944 65.5466 278.938 65.6259 278.925C65.7083 278.91 65.7701 278.897 65.8113 278.887L65.8161 279.605C65.7463 279.628 65.6544 279.648 65.5403 279.667C65.4293 279.689 65.2945 279.701 65.136 279.701C64.9204 279.701 64.7222 279.658 64.5415 279.572C64.3608 279.487 64.2165 279.344 64.1087 279.144C64.0041 278.941 63.9518 278.669 63.9518 278.326V273.209ZM69.2641 279.701C68.9058 279.701 68.5808 279.64 68.2891 279.52C68.0006 279.396 67.7517 279.223 67.5425 279.001C67.3364 278.78 67.1779 278.516 67.0669 278.212C66.9559 277.908 66.9004 277.575 66.9004 277.213V277.014C66.9004 276.595 66.9623 276.222 67.0859 275.896C67.2096 275.566 67.3776 275.287 67.59 275.059C67.8025 274.831 68.0434 274.658 68.3129 274.54C68.5824 274.423 68.8614 274.365 69.15 274.365C69.5177 274.365 69.8348 274.428 70.1011 274.555C70.3706 274.682 70.591 274.859 70.7622 275.087C70.9334 275.313 71.0602 275.579 71.1427 275.886C71.2251 276.191 71.2663 276.524 71.2663 276.885V277.28H67.4236V276.562H70.3865V276.495C70.3738 276.267 70.3262 276.045 70.2438 275.829C70.1645 275.614 70.0377 275.436 69.8633 275.297C69.6889 275.157 69.4512 275.087 69.15 275.087C68.9502 275.087 68.7663 275.13 68.5983 275.216C68.4302 275.298 68.286 275.422 68.1655 275.587C68.045 275.752 67.9515 275.953 67.8849 276.191C67.8183 276.429 67.785 276.703 67.785 277.014V277.213C67.785 277.457 67.8183 277.687 67.8849 277.903C67.9546 278.115 68.0545 278.302 68.1845 278.464C68.3177 278.626 68.4778 278.753 68.6649 278.845C68.8551 278.936 69.0707 278.982 69.3116 278.982C69.6224 278.982 69.8855 278.919 70.1011 278.792C70.3167 278.665 70.5054 278.496 70.6671 278.283L71.1997 278.707C71.0888 278.875 70.9477 279.035 70.7765 279.187C70.6052 279.339 70.3944 279.463 70.1439 279.558C69.8966 279.653 69.6033 279.701 69.2641 279.701Z" fill="#999999"/>
<path fill-rule="evenodd" clip-rule="evenodd" d="M22.954 303.323L25.1368 305.506C25.3746 305.743 25.3746 306.129 25.1368 306.367L20.2668 311.237C20.1527 311.351 19.9978 311.415 19.8364 311.415H17.6536C17.3173 311.415 17.0448 311.142 17.0448 310.806V308.623C17.0448 308.462 17.1089 308.307 17.2231 308.193L22.0931 303.323C22.3308 303.085 22.7163 303.085 22.954 303.323ZM18.871 310.197C19.2073 310.197 19.4798 309.925 19.4798 309.589C19.4798 309.252 19.2073 308.98 18.871 308.98C18.5348 308.98 18.2623 309.252 18.2623 309.589C18.2623 309.925 18.5348 310.197 18.871 310.197Z" fill="#999999"/>
<path d="M33.8044 304.341L31.5121 310.652H30.5752L33.2147 303.728H33.8187L33.8044 304.341ZM35.7258 310.652L33.4287 304.341L33.4144 303.728H34.0184L36.6674 310.652H35.7258ZM35.6069 308.089V308.84H31.7166V308.089H35.6069ZM41.0095 309.654V303.347H41.8941V310.652H41.0856L41.0095 309.654ZM37.5473 308.136V308.037C37.5473 307.643 37.5948 307.287 37.6899 306.967C37.7882 306.643 37.9261 306.366 38.1037 306.134C38.2844 305.903 38.4984 305.725 38.7457 305.602C38.9962 305.475 39.2752 305.411 39.5828 305.411C39.9062 305.411 40.1884 305.468 40.4293 305.583C40.6735 305.694 40.8795 305.857 41.0476 306.072C41.2188 306.285 41.3535 306.542 41.4518 306.843C41.5501 307.144 41.6183 307.485 41.6563 307.865V308.303C41.6215 308.68 41.5533 309.019 41.4518 309.321C41.3535 309.622 41.2188 309.879 41.0476 310.091C40.8795 310.304 40.6735 310.467 40.4293 310.581C40.1852 310.692 39.8998 310.747 39.5733 310.747C39.2721 310.747 38.9962 310.682 38.7457 310.552C38.4984 310.422 38.2844 310.24 38.1037 310.006C37.9261 309.771 37.7882 309.495 37.6899 309.178C37.5948 308.858 37.5473 308.511 37.5473 308.136ZM38.4319 308.037V308.136C38.4319 308.393 38.4572 308.634 38.5079 308.859C38.5618 309.084 38.6443 309.283 38.7553 309.454C38.8662 309.625 39.0073 309.76 39.1785 309.858C39.3497 309.953 39.5542 310.001 39.792 310.001C40.0837 310.001 40.3231 309.939 40.5102 309.815C40.7004 309.692 40.8526 309.528 40.9667 309.325C41.0809 309.123 41.1696 308.902 41.2331 308.664V307.518C41.195 307.344 41.1395 307.176 41.0666 307.014C40.9968 306.849 40.9049 306.703 40.7908 306.577C40.6798 306.447 40.5419 306.344 40.377 306.267C40.2153 306.191 40.0235 306.153 39.8015 306.153C39.5606 306.153 39.3529 306.204 39.1785 306.305C39.0073 306.404 38.8662 306.54 38.7553 306.714C38.6443 306.886 38.5618 307.085 38.5079 307.314C38.4572 307.539 38.4319 307.78 38.4319 308.037ZM46.8117 309.654V303.347H47.6963V310.652H46.8878L46.8117 309.654ZM43.3494 308.136V308.037C43.3494 307.643 43.397 307.287 43.4921 306.967C43.5904 306.643 43.7283 306.366 43.9058 306.134C44.0866 305.903 44.3006 305.725 44.5479 305.602C44.7984 305.475 45.0774 305.411 45.3849 305.411C45.7083 305.411 45.9905 305.468 46.2315 305.583C46.4756 305.694 46.6817 305.857 46.8497 306.072C47.0209 306.285 47.1557 306.542 47.254 306.843C47.3523 307.144 47.4204 307.485 47.4585 307.865V308.303C47.4236 308.68 47.3554 309.019 47.254 309.321C47.1557 309.622 47.0209 309.879 46.8497 310.091C46.6817 310.304 46.4756 310.467 46.2315 310.581C45.9873 310.692 45.702 310.747 45.3754 310.747C45.0742 310.747 44.7984 310.682 44.5479 310.552C44.3006 310.422 44.0866 310.24 43.9058 310.006C43.7283 309.771 43.5904 309.495 43.4921 309.178C43.397 308.858 43.3494 308.511 43.3494 308.136ZM44.234 308.037V308.136C44.234 308.393 44.2594 308.634 44.3101 308.859C44.364 309.084 44.4464 309.283 44.5574 309.454C44.6684 309.625 44.8095 309.76 44.9807 309.858C45.1519 309.953 45.3564 310.001 45.5942 310.001C45.8859 310.001 46.1253 309.939 46.3123 309.815C46.5025 309.692 46.6547 309.528 46.7689 309.325C46.883 309.123 46.9718 308.902 47.0352 308.664V307.518C46.9972 307.344 46.9417 307.176 46.8687 307.014C46.799 306.849 46.7071 306.703 46.5929 306.577C46.4819 306.447 46.344 306.344 46.1791 306.267C46.0175 306.191 45.8256 306.153 45.6037 306.153C45.3627 306.153 45.1551 306.204 44.9807 306.305C44.8095 306.404 44.6684 306.54 44.5574 306.714C44.4464 306.886 44.364 307.085 44.3101 307.314C44.2594 307.539 44.234 307.78 44.234 308.037ZM54.2451 305.507V306.182H51.4629V305.507H54.2451ZM52.4046 304.256H53.2844V309.378C53.2844 309.552 53.3114 309.684 53.3653 309.773C53.4192 309.861 53.4889 309.92 53.5745 309.948C53.6601 309.977 53.7521 309.991 53.8504 309.991C53.9233 309.991 53.9994 309.985 54.0786 309.972C54.1611 309.956 54.2229 309.944 54.2641 309.934L54.2689 310.652C54.1991 310.675 54.1072 310.695 53.993 310.714C53.8821 310.736 53.7473 310.747 53.5888 310.747C53.3732 310.747 53.175 310.705 52.9943 310.619C52.8136 310.533 52.6693 310.391 52.5615 310.191C52.4569 309.988 52.4046 309.715 52.4046 309.373V304.256ZM58.6157 309.773V307.123C58.6157 306.921 58.5745 306.745 58.4921 306.596C58.4128 306.443 58.2923 306.326 58.1306 306.244C57.9689 306.161 57.7692 306.12 57.5314 306.12C57.3094 306.12 57.1145 306.158 56.9464 306.234C56.7815 306.31 56.6516 306.41 56.5564 306.534C56.4645 306.657 56.4185 306.791 56.4185 306.933H55.5387C55.5387 306.749 55.5862 306.567 55.6814 306.386C55.7765 306.206 55.9128 306.042 56.0904 305.896C56.2711 305.747 56.4867 305.63 56.7372 305.545C56.9908 305.456 57.273 305.411 57.5837 305.411C57.9578 305.411 58.2876 305.475 58.5729 305.602C58.8614 305.728 59.0866 305.92 59.2483 306.177C59.4131 306.431 59.4956 306.749 59.4956 307.133V309.53C59.4956 309.701 59.5098 309.883 59.5384 310.077C59.5701 310.27 59.616 310.437 59.6763 310.576V310.652H58.7584C58.714 310.551 58.6791 310.416 58.6538 310.248C58.6284 310.077 58.6157 309.918 58.6157 309.773ZM58.7679 307.533L58.7774 308.151H57.8881C57.6376 308.151 57.4141 308.171 57.2175 308.213C57.0209 308.251 56.8561 308.309 56.7229 308.389C56.5897 308.468 56.4883 308.568 56.4185 308.688C56.3488 308.805 56.3139 308.943 56.3139 309.102C56.3139 309.264 56.3503 309.411 56.4233 309.544C56.4962 309.677 56.6056 309.784 56.7514 309.863C56.9004 309.939 57.0828 309.977 57.2983 309.977C57.5678 309.977 57.8056 309.92 58.0117 309.806C58.2178 309.692 58.3811 309.552 58.5016 309.387C58.6252 309.222 58.6918 309.062 58.7013 308.907L59.077 309.33C59.0548 309.463 58.9946 309.611 58.8963 309.773C58.798 309.934 58.6665 310.09 58.5016 310.239C58.3399 310.384 58.1465 310.506 57.9214 310.605C57.6994 310.7 57.449 310.747 57.1699 310.747C56.8212 310.747 56.5152 310.679 56.2521 310.543C55.9921 310.407 55.7892 310.224 55.6433 309.996C55.5006 309.765 55.4293 309.506 55.4293 309.221C55.4293 308.945 55.4832 308.702 55.591 308.493C55.6988 308.281 55.8542 308.105 56.0571 307.965C56.26 307.823 56.5041 307.715 56.7895 307.642C57.0748 307.569 57.3935 307.533 57.7454 307.533H58.7679ZM64.5177 305.507H65.3167V310.543C65.3167 310.996 65.2248 311.383 65.0409 311.703C64.857 312.024 64.6002 312.266 64.2704 312.431C63.9439 312.599 63.5666 312.683 63.1385 312.683C62.961 312.683 62.7517 312.655 62.5108 312.597C62.273 312.544 62.0384 312.45 61.8069 312.317C61.5786 312.187 61.3868 312.011 61.2314 311.789L61.6928 311.266C61.9084 311.526 62.1335 311.707 62.3681 311.808C62.6059 311.909 62.8405 311.96 63.072 311.96C63.351 311.96 63.5919 311.908 63.7949 311.803C63.9978 311.699 64.1547 311.543 64.2657 311.337C64.3798 311.134 64.4369 310.884 64.4369 310.586V306.638L64.5177 305.507ZM60.9746 308.136V308.037C60.9746 307.643 61.0206 307.287 61.1125 306.967C61.2077 306.643 61.3424 306.366 61.5168 306.134C61.6943 305.903 61.9084 305.725 62.1588 305.602C62.4093 305.475 62.6915 305.411 63.0054 305.411C63.3288 305.411 63.611 305.468 63.8519 305.583C64.0961 305.694 64.3021 305.857 64.4702 306.072C64.6414 306.285 64.7761 306.542 64.8744 306.843C64.9727 307.144 65.0409 307.485 65.0789 307.865V308.303C65.0441 308.68 64.9759 309.019 64.8744 309.321C64.7761 309.622 64.6414 309.879 64.4702 310.091C64.3021 310.304 64.0961 310.467 63.8519 310.581C63.6078 310.692 63.3224 310.747 62.9959 310.747C62.6883 310.747 62.4093 310.682 62.1588 310.552C61.9115 310.422 61.6991 310.24 61.5216 310.006C61.344 309.771 61.2077 309.495 61.1125 309.178C61.0206 308.858 60.9746 308.511 60.9746 308.136ZM61.8545 308.037V308.136C61.8545 308.393 61.8798 308.634 61.9306 308.859C61.9845 309.084 62.0653 309.283 62.1731 309.454C62.2841 309.625 62.4252 309.76 62.5964 309.858C62.7676 309.953 62.9721 310.001 63.2099 310.001C63.5016 310.001 63.7425 309.939 63.9328 309.815C64.123 309.692 64.2736 309.528 64.3846 309.325C64.4987 309.123 64.5875 308.902 64.6509 308.664V307.518C64.616 307.344 64.5621 307.176 64.4892 307.014C64.4195 306.849 64.3275 306.703 64.2134 306.577C64.1024 306.447 63.9645 306.344 63.7996 306.267C63.6347 306.191 63.4413 306.153 63.2194 306.153C62.9784 306.153 62.7708 306.204 62.5964 306.305C62.4252 306.404 62.2841 306.54 62.1731 306.714C62.0653 306.886 61.9845 307.085 61.9306 307.314C61.8798 307.539 61.8545 307.78 61.8545 308.037ZM69.9537 309.287C69.9537 309.161 69.9252 309.043 69.8681 308.935C69.8142 308.825 69.7016 308.725 69.5304 308.636C69.3624 308.544 69.1087 308.465 68.7695 308.398C68.4841 308.338 68.2257 308.266 67.9943 308.184C67.766 308.102 67.571 308.002 67.4093 307.884C67.2508 307.767 67.1287 307.629 67.0431 307.471C66.9575 307.312 66.9147 307.127 66.9147 306.914C66.9147 306.711 66.9591 306.52 67.0479 306.339C67.1398 306.158 67.2682 305.998 67.4331 305.858C67.6011 305.719 67.8025 305.61 68.0371 305.53C68.2717 305.451 68.5333 305.411 68.8218 305.411C69.234 305.411 69.5859 305.484 69.8776 305.63C70.1693 305.776 70.3928 305.971 70.5482 306.215C70.7035 306.456 70.7812 306.724 70.7812 307.019H69.9014C69.9014 306.876 69.8586 306.738 69.773 306.605C69.6905 306.469 69.5685 306.356 69.4068 306.267C69.2482 306.179 69.0532 306.134 68.8218 306.134C68.5777 306.134 68.3795 306.172 68.2273 306.248C68.0783 306.321 67.9689 306.415 67.8992 306.529C67.8326 306.643 67.7993 306.764 67.7993 306.89C67.7993 306.986 67.8151 307.071 67.8468 307.147C67.8817 307.22 67.942 307.288 68.0276 307.352C68.1132 307.412 68.2337 307.469 68.389 307.523C68.5444 307.577 68.7425 307.631 68.9835 307.685C69.4052 307.78 69.7524 307.894 70.025 308.027C70.2977 308.16 70.5006 308.324 70.6338 308.517C70.7669 308.71 70.8335 308.945 70.8335 309.221C70.8335 309.446 70.786 309.652 70.6908 309.839C70.5989 310.026 70.4642 310.188 70.2866 310.324C70.1122 310.457 69.903 310.562 69.6588 310.638C69.4179 310.711 69.1468 310.747 68.8456 310.747C68.3922 310.747 68.0085 310.667 67.6947 310.505C67.3808 310.343 67.143 310.134 66.9813 309.877C66.8196 309.62 66.7387 309.349 66.7387 309.064H67.6233C67.636 309.305 67.7058 309.497 67.8326 309.639C67.9594 309.779 68.1148 309.879 68.2987 309.939C68.4825 309.996 68.6649 310.025 68.8456 310.025C69.0865 310.025 69.2879 309.993 69.4496 309.929C69.6144 309.866 69.7397 309.779 69.8253 309.668C69.9109 309.557 69.9537 309.43 69.9537 309.287Z" fill="#999999"/>
<path d="M10.9574 433.734H208.801C210.314 433.734 211.541 434.961 211.541 436.473V458.388C211.541 459.901 210.314 461.128 208.801 461.128H10.9574C9.44453 461.128 8.21807 459.901 8.21807 458.388V436.473C8.21807 434.961 9.44453 433.734 10.9574 433.734Z" stroke="#BBBBBB" stroke-width="0.60875"/>
<rect x="95.053" y="447.129" width="0.60875" height="0.60875" fill="black" stroke="black" stroke-width="0.60875"/>
<rect x="95.053" y="444.691" width="0.60875" height="0.60875" fill="black" stroke="black" stroke-width="0.60875"/>
<rect x="92.6181" y="447.129" width="0.60875" height="0.60875" fill="black" stroke="black" stroke-width="0.60875"/>
<rect x="90.183" y="447.129" width="0.60875" height="0.60875" fill="black" stroke="black" stroke-width="0.60875"/>
<rect x="95.053" y="442.257" width="0.60875" height="0.60875" fill="black" stroke="black" stroke-width="0.60875"/>
<rect x="95.053" y="449.562" width="0.60875" height="0.60875" fill="black" stroke="black" stroke-width="0.60875"/>
<rect x="95.053" y="451.996" width="0.60875" height="0.60875" fill="black" stroke="black" stroke-width="0.60875"/>
<rect x="97.4881" y="447.129" width="0.60875" height="0.60875" fill="black" stroke="black" stroke-width="0.60875"/>
<rect x="97.4881" y="449.562" width="0.60875" height="0.60875" fill="black" stroke="black" stroke-width="0.60875"/>
<rect x="97.4881" y="451.996" width="0.60875" height="0.60875" fill="black" stroke="black" stroke-width="0.60875"/>
<rect x="99.923" y="447.129" width="0.60875" height="0.60875" fill="black" stroke="black" stroke-width="0.60875"/>
<rect x="99.923" y="449.562" width="0.60875" height="0.60875" fill="black" stroke="black" stroke-width="0.60875"/>
<rect x="99.923" y="451.996" width="0.60875" height="0.60875" fill="black" stroke="black" stroke-width="0.60875"/>
<mask id="path-36-inside-1_267_11514" fill="white">
<rect x="89.8787" y="441.953" width="3.6525" height="3.6525" rx="0.60875"/>
</mask>
<rect x="89.8787" y="441.953" width="3.6525" height="3.6525" rx="0.60875" stroke="black" stroke-width="2.435" mask="url(#path-36-inside-1_267_11514)"/>
<mask id="path-37-inside-2_267_11514" fill="white">
<rect x="89.8787" y="449.258" width="3.6525" height="3.6525" rx="0.60875"/>
</mask>
<rect x="89.8787" y="449.258" width="3.6525" height="3.6525" rx="0.60875" stroke="black" stroke-width="2.435" mask="url(#path-37-inside-2_267_11514)"/>
<mask id="path-38-inside-3_267_11514" fill="white">
<rect x="97.1837" y="441.953" width="3.6525" height="3.6525" rx="0.60875"/>
</mask>
<rect x="97.1837" y="441.953" width="3.6525" height="3.6525" rx="0.60875" stroke="black" stroke-width="2.435" mask="url(#path-38-inside-3_267_11514)"/>
<path d="M112.856 444.957C112.809 444.562 112.62 444.256 112.287 444.038C111.955 443.821 111.548 443.712 111.066 443.712C110.713 443.712 110.404 443.769 110.14 443.883C109.878 443.997 109.673 444.154 109.525 444.354C109.379 444.553 109.307 444.78 109.307 445.035C109.307 445.247 109.357 445.43 109.459 445.583C109.562 445.734 109.695 445.86 109.855 445.961C110.016 446.059 110.185 446.141 110.361 446.206C110.538 446.268 110.7 446.319 110.848 446.358L111.657 446.575C111.865 446.63 112.096 446.705 112.35 446.801C112.607 446.897 112.852 447.028 113.085 447.194C113.321 447.358 113.516 447.568 113.669 447.825C113.822 448.081 113.898 448.397 113.898 448.77C113.898 449.201 113.786 449.59 113.56 449.937C113.337 450.285 113.01 450.561 112.579 450.766C112.151 450.971 111.631 451.074 111.019 451.074C110.448 451.074 109.954 450.982 109.536 450.797C109.121 450.613 108.795 450.356 108.556 450.027C108.32 449.698 108.186 449.315 108.155 448.879H109.151C109.177 449.18 109.278 449.429 109.455 449.626C109.634 449.821 109.859 449.966 110.132 450.062C110.407 450.155 110.702 450.202 111.019 450.202C111.387 450.202 111.718 450.142 112.011 450.023C112.304 449.901 112.536 449.733 112.708 449.517C112.879 449.299 112.965 449.045 112.965 448.755C112.965 448.49 112.891 448.275 112.743 448.109C112.595 447.943 112.4 447.808 112.159 447.704C111.918 447.6 111.657 447.509 111.377 447.432L110.396 447.151C109.774 446.972 109.281 446.717 108.918 446.385C108.555 446.053 108.373 445.618 108.373 445.081C108.373 444.635 108.494 444.246 108.735 443.914C108.979 443.579 109.306 443.32 109.715 443.136C110.128 442.949 110.588 442.856 111.097 442.856C111.61 442.856 112.067 442.948 112.466 443.132C112.866 443.313 113.182 443.562 113.416 443.879C113.652 444.195 113.776 444.555 113.789 444.957H112.856ZM117.789 451.058C117.228 451.058 116.746 450.926 116.341 450.661C115.936 450.397 115.625 450.032 115.407 449.568C115.189 449.103 115.08 448.573 115.08 447.976C115.08 447.369 115.192 446.834 115.415 446.369C115.641 445.902 115.955 445.538 116.357 445.276C116.761 445.011 117.233 444.879 117.773 444.879C118.193 444.879 118.572 444.957 118.909 445.112C119.246 445.268 119.523 445.486 119.738 445.766C119.953 446.046 120.087 446.373 120.139 446.747H119.221C119.15 446.474 118.995 446.233 118.754 446.023C118.515 445.81 118.193 445.704 117.789 445.704C117.431 445.704 117.117 445.797 116.847 445.984C116.58 446.168 116.371 446.429 116.22 446.766C116.073 447.101 115.999 447.494 115.999 447.945C115.999 448.407 116.071 448.809 116.217 449.151C116.364 449.494 116.572 449.76 116.839 449.949C117.109 450.139 117.425 450.233 117.789 450.233C118.027 450.233 118.244 450.192 118.438 450.109C118.633 450.026 118.798 449.906 118.933 449.751C119.067 449.595 119.163 449.408 119.221 449.19H120.139C120.087 449.543 119.959 449.861 119.754 450.144C119.551 450.424 119.283 450.647 118.948 450.813C118.616 450.976 118.23 451.058 117.789 451.058ZM123.24 451.074C122.861 451.074 122.518 451.002 122.209 450.86C121.9 450.714 121.655 450.506 121.474 450.233C121.292 449.958 121.201 449.626 121.201 449.237C121.201 448.895 121.269 448.617 121.403 448.404C121.538 448.189 121.719 448.02 121.944 447.898C122.17 447.777 122.419 447.686 122.691 447.626C122.966 447.564 123.243 447.515 123.52 447.478C123.883 447.432 124.178 447.397 124.404 447.373C124.632 447.347 124.798 447.304 124.902 447.245C125.008 447.185 125.061 447.081 125.061 446.933V446.902C125.061 446.518 124.956 446.22 124.746 446.007C124.538 445.795 124.223 445.688 123.8 445.688C123.362 445.688 123.018 445.784 122.769 445.976C122.52 446.168 122.345 446.373 122.244 446.591L121.372 446.28C121.528 445.917 121.736 445.634 121.995 445.431C122.257 445.227 122.542 445.084 122.851 445.003C123.162 444.92 123.468 444.879 123.769 444.879C123.961 444.879 124.182 444.902 124.431 444.949C124.682 444.993 124.925 445.085 125.158 445.225C125.395 445.365 125.59 445.577 125.746 445.86C125.902 446.142 125.979 446.521 125.979 446.996V450.934H125.061V450.124H125.014C124.952 450.254 124.848 450.393 124.703 450.541C124.558 450.688 124.365 450.814 124.123 450.918C123.882 451.022 123.588 451.074 123.24 451.074ZM123.38 450.249C123.743 450.249 124.049 450.177 124.298 450.035C124.55 449.892 124.739 449.708 124.867 449.482C124.996 449.257 125.061 449.019 125.061 448.77V447.93C125.022 447.976 124.937 448.019 124.804 448.058C124.675 448.094 124.524 448.127 124.353 448.155C124.184 448.181 124.02 448.205 123.859 448.225C123.701 448.244 123.572 448.259 123.474 448.272C123.235 448.303 123.012 448.354 122.804 448.424C122.599 448.491 122.433 448.594 122.306 448.731C122.182 448.866 122.119 449.05 122.119 449.284C122.119 449.603 122.237 449.844 122.474 450.007C122.712 450.168 123.014 450.249 123.38 450.249ZM128.574 447.338V450.934H127.656V444.957H128.543V445.891H128.621C128.761 445.587 128.973 445.343 129.259 445.159C129.544 444.972 129.912 444.879 130.364 444.879C130.769 444.879 131.123 444.962 131.426 445.128C131.73 445.291 131.966 445.54 132.134 445.875C132.303 446.207 132.387 446.627 132.387 447.136V450.934H131.469V447.198C131.469 446.729 131.347 446.363 131.103 446.101C130.859 445.836 130.525 445.704 130.099 445.704C129.806 445.704 129.544 445.767 129.313 445.895C129.085 446.022 128.905 446.207 128.772 446.451C128.64 446.695 128.574 446.991 128.574 447.338Z" fill="black"/>
<path d="M181.786 52.6301H182.699C182.651 53.0676 182.526 53.4592 182.323 53.8048C182.12 54.1504 181.833 54.4246 181.462 54.6275C181.091 54.8273 180.628 54.9271 180.074 54.9271C179.668 54.9271 179.298 54.8511 178.965 54.6989C178.636 54.5467 178.352 54.3311 178.114 54.0521C177.876 53.7699 177.692 53.4322 177.562 53.0391C177.436 52.6428 177.372 52.202 177.372 51.7169V51.0273C177.372 50.5422 177.436 50.1031 177.562 49.71C177.692 49.3136 177.878 48.9744 178.119 48.6922C178.363 48.41 178.656 48.1929 178.999 48.0407C179.341 47.8885 179.726 47.8124 180.154 47.8124C180.678 47.8124 181.12 47.9107 181.481 48.1072C181.843 48.3038 182.123 48.5765 182.323 48.9253C182.526 49.2708 182.651 49.6719 182.699 50.1285H181.786C181.741 49.8051 181.659 49.5277 181.538 49.2962C181.418 49.0616 181.247 48.8809 181.025 48.754C180.803 48.6272 180.513 48.5638 180.154 48.5638C179.847 48.5638 179.576 48.6225 179.341 48.7398C179.11 48.8571 178.915 49.0235 178.756 49.2391C178.601 49.4547 178.484 49.7131 178.404 50.0143C178.325 50.3156 178.285 50.65 178.285 51.0178V51.7169C178.285 52.0562 178.32 52.3748 178.39 52.6729C178.463 52.9709 178.572 53.2325 178.718 53.4576C178.864 53.6827 179.049 53.8603 179.275 53.9902C179.5 54.1171 179.766 54.1805 180.074 54.1805C180.464 54.1805 180.774 54.1187 181.006 53.995C181.237 53.8713 181.412 53.6938 181.529 53.4623C181.649 53.2309 181.735 52.9535 181.786 52.6301ZM187.155 53.9522V51.3032C187.155 51.1003 187.114 50.9243 187.031 50.7753C186.952 50.6231 186.832 50.5058 186.67 50.4233C186.508 50.3409 186.308 50.2997 186.071 50.2997C185.849 50.2997 185.654 50.3377 185.486 50.4138C185.321 50.4899 185.191 50.5898 185.096 50.7135C185.004 50.8371 184.958 50.9703 184.958 51.1129H184.078C184.078 50.9291 184.126 50.7467 184.221 50.566C184.316 50.3853 184.452 50.222 184.63 50.0762C184.81 49.9272 185.026 49.8098 185.276 49.7242C185.53 49.6355 185.812 49.5911 186.123 49.5911C186.497 49.5911 186.827 49.6545 187.112 49.7813C187.401 49.9081 187.626 50.1 187.788 50.3568C187.952 50.6104 188.035 50.9291 188.035 51.3127V53.7096C188.035 53.8809 188.049 54.0632 188.078 54.2566C188.109 54.45 188.155 54.6164 188.216 54.7559V54.832H187.298C187.253 54.7306 187.218 54.5958 187.193 54.4278C187.168 54.2566 187.155 54.098 187.155 53.9522ZM187.307 51.7122L187.317 52.3304H186.427C186.177 52.3304 185.953 52.3511 185.757 52.3923C185.56 52.4303 185.395 52.489 185.262 52.5682C185.129 52.6475 185.028 52.7474 184.958 52.8679C184.888 52.9852 184.853 53.1231 184.853 53.2816C184.853 53.4433 184.89 53.5908 184.963 53.7239C185.035 53.8571 185.145 53.9633 185.291 54.0426C185.44 54.1187 185.622 54.1567 185.838 54.1567C186.107 54.1567 186.345 54.0996 186.551 53.9855C186.757 53.8713 186.92 53.7318 187.041 53.567C187.165 53.4021 187.231 53.242 187.241 53.0866L187.616 53.5099C187.594 53.6431 187.534 53.7905 187.436 53.9522C187.337 54.1139 187.206 54.2693 187.041 54.4183C186.879 54.5641 186.686 54.6862 186.461 54.7845C186.239 54.8796 185.988 54.9271 185.709 54.9271C185.36 54.9271 185.055 54.859 184.791 54.7226C184.531 54.5863 184.328 54.404 184.183 54.1757C184.04 53.9443 183.969 53.6859 183.969 53.4005C183.969 53.1247 184.022 52.8821 184.13 52.6729C184.238 52.4604 184.393 52.2845 184.596 52.145C184.799 52.0023 185.043 51.8945 185.329 51.8216C185.614 51.7486 185.933 51.7122 186.285 51.7122H187.307ZM190.603 50.7848V54.832H189.723V49.6862H190.555L190.603 50.7848ZM190.394 52.0641L190.028 52.0499C190.031 51.6979 190.083 51.3729 190.185 51.0749C190.286 50.7737 190.429 50.5121 190.613 50.2902C190.796 50.0682 191.015 49.897 191.269 49.7766C191.526 49.6529 191.809 49.5911 192.12 49.5911C192.374 49.5911 192.602 49.626 192.805 49.6957C193.008 49.7623 193.181 49.8701 193.323 50.0191C193.469 50.1681 193.58 50.3615 193.656 50.5993C193.732 50.8339 193.77 51.1209 193.77 51.4601V54.832H192.886V51.4506C192.886 51.1811 192.846 50.9655 192.767 50.8038C192.688 50.6389 192.572 50.5201 192.42 50.4471C192.268 50.371 192.081 50.333 191.859 50.333C191.64 50.333 191.44 50.379 191.259 50.4709C191.082 50.5629 190.928 50.6897 190.798 50.8514C190.671 51.0131 190.571 51.1986 190.498 51.4078C190.429 51.6139 190.394 51.8327 190.394 52.0641ZM197.47 54.2043C197.68 54.2043 197.873 54.1615 198.051 54.0758C198.228 53.9902 198.374 53.8729 198.488 53.7239C198.602 53.5717 198.667 53.3989 198.683 53.2055H199.52C199.504 53.5099 199.401 53.7937 199.211 54.0568C199.024 54.3168 198.778 54.5277 198.474 54.6894C198.17 54.8479 197.835 54.9271 197.47 54.9271C197.084 54.9271 196.746 54.859 196.457 54.7226C196.172 54.5863 195.934 54.3992 195.744 54.1615C195.557 53.9237 195.416 53.651 195.321 53.3434C195.229 53.0327 195.183 52.7046 195.183 52.359V52.1592C195.183 51.8136 195.229 51.4871 195.321 51.1795C195.416 50.8688 195.557 50.5946 195.744 50.3568C195.934 50.119 196.172 49.9319 196.457 49.7956C196.746 49.6592 197.084 49.5911 197.47 49.5911C197.873 49.5911 198.225 49.6735 198.526 49.8384C198.827 50.0001 199.064 50.222 199.235 50.5042C199.409 50.7832 199.504 51.1003 199.52 51.4554H198.683C198.667 51.2429 198.607 51.0511 198.502 50.8799C198.401 50.7087 198.262 50.5724 198.084 50.4709C197.91 50.3663 197.705 50.314 197.47 50.314C197.201 50.314 196.974 50.3679 196.79 50.4757C196.61 50.5803 196.465 50.723 196.358 50.9037C196.253 51.0812 196.177 51.2794 196.129 51.4982C196.085 51.7138 196.063 51.9341 196.063 52.1592V52.359C196.063 52.5841 196.085 52.806 196.129 53.0248C196.174 53.2436 196.248 53.4417 196.353 53.6193C196.461 53.7968 196.605 53.9395 196.786 54.0473C196.97 54.1519 197.198 54.2043 197.47 54.2043ZM202.949 54.9271C202.591 54.9271 202.266 54.8669 201.974 54.7464C201.686 54.6228 201.437 54.45 201.228 54.228C201.022 54.0061 200.863 53.7429 200.752 53.4386C200.641 53.1342 200.586 52.8013 200.586 52.4398V52.2401C200.586 51.8216 200.647 51.449 200.771 51.1225C200.895 50.7927 201.063 50.5137 201.275 50.2854C201.488 50.0571 201.729 49.8844 201.998 49.767C202.268 49.6497 202.547 49.5911 202.835 49.5911C203.203 49.5911 203.52 49.6545 203.786 49.7813C204.056 49.9081 204.276 50.0857 204.447 50.314C204.619 50.5391 204.745 50.8054 204.828 51.1129C204.91 51.4173 204.951 51.7502 204.951 52.1117V52.5064H201.109V51.7883H204.072V51.7217C204.059 51.4934 204.011 51.2715 203.929 51.0559C203.85 50.8403 203.723 50.6627 203.548 50.5232C203.374 50.3837 203.136 50.314 202.835 50.314C202.635 50.314 202.451 50.3568 202.283 50.4424C202.115 50.5248 201.971 50.6485 201.851 50.8133C201.73 50.9782 201.637 51.1795 201.57 51.4173C201.503 51.6551 201.47 51.9294 201.47 52.2401V52.4398C201.47 52.684 201.503 52.9138 201.57 53.1294C201.64 53.3419 201.74 53.5289 201.87 53.6906C202.003 53.8523 202.163 53.9791 202.35 54.0711C202.54 54.163 202.756 54.209 202.997 54.209C203.308 54.209 203.571 54.1456 203.786 54.0188C204.002 53.892 204.191 53.7223 204.352 53.5099L204.885 53.9332C204.774 54.1012 204.633 54.2613 204.462 54.4135C204.29 54.5657 204.08 54.6894 203.829 54.7845C203.582 54.8796 203.288 54.9271 202.949 54.9271ZM207.239 47.527V54.832H206.354V47.527H207.239Z" fill="black"/>
</g>
<defs>
<clipPath id="clip0_267_11514">
<rect width="219.15" height="487" fill="white"/>
</clipPath>
</defs>
</svg>
