<svg width="226" height="502" viewBox="0 0 226 502" fill="none" xmlns="http://www.w3.org/2000/svg">
<g clip-path="url(#clip0_258_10200)">
<rect width="225.822" height="501.827" fill="white"/>
<rect x="0.627686" width="225.822" height="18.6358" fill="#F1F1F1"/>
<circle cx="19.8116" cy="9.86804" r="3.83679" fill="#C4C4C4"/>
<circle cx="195.208" cy="9.86804" r="3.83679" fill="#C4C4C4"/>
<rect x="204.526" y="6.57812" width="6.57735" height="6.57735" fill="#C4C4C4"/>
<path d="M182.053 13.1562L178.256 6.5789L185.85 6.5789L182.053 13.1562Z" fill="#C4C4C4"/>
<path d="M27.471 301.57V312.332H26.1111V303.268L23.3692 304.268V303.04L27.2579 301.57H27.471Z" fill="black"/>
<path d="M116.58 311.215V312.332H109.574V311.354L113.081 307.451C113.512 306.971 113.845 306.564 114.08 306.231C114.32 305.893 114.487 305.591 114.58 305.327C114.678 305.057 114.727 304.783 114.727 304.503C114.727 304.15 114.654 303.832 114.507 303.548C114.365 303.258 114.154 303.028 113.875 302.857C113.595 302.685 113.257 302.599 112.86 302.599C112.385 302.599 111.988 302.692 111.669 302.879C111.356 303.06 111.12 303.315 110.964 303.643C110.807 303.972 110.728 304.349 110.728 304.775H109.368C109.368 304.172 109.501 303.621 109.765 303.121C110.03 302.621 110.422 302.224 110.941 301.93C111.461 301.631 112.1 301.482 112.86 301.482C113.536 301.482 114.115 301.602 114.595 301.842C115.075 302.077 115.443 302.411 115.698 302.842C115.957 303.268 116.087 303.768 116.087 304.342C116.087 304.655 116.033 304.974 115.925 305.297C115.823 305.616 115.678 305.934 115.492 306.253C115.31 306.571 115.097 306.885 114.852 307.194C114.612 307.502 114.355 307.806 114.08 308.105L111.213 311.215H116.58Z" fill="black"/>
<path d="M108.011 321.455L106.24 326.332H105.515L107.555 320.981H108.022L108.011 321.455ZM109.496 326.332L107.721 321.455L107.71 320.981H108.177L110.224 326.332H109.496ZM109.404 324.351V324.932H106.398V324.351H109.404ZM113.099 323.829H111.743L111.735 323.259H112.967C113.17 323.259 113.348 323.225 113.5 323.156C113.652 323.088 113.769 322.99 113.852 322.862C113.938 322.732 113.981 322.578 113.981 322.399C113.981 322.203 113.943 322.044 113.867 321.921C113.794 321.796 113.68 321.706 113.525 321.649C113.373 321.591 113.18 321.561 112.945 321.561H111.901V326.332H111.191V320.981H112.945C113.219 320.981 113.464 321.009 113.68 321.065C113.895 321.119 114.078 321.205 114.227 321.322C114.379 321.437 114.494 321.585 114.573 321.763C114.651 321.942 114.69 322.157 114.69 322.407C114.69 322.627 114.634 322.827 114.521 323.006C114.409 323.182 114.252 323.327 114.051 323.439C113.852 323.552 113.62 323.624 113.353 323.656L113.099 323.829ZM113.066 326.332H111.463L111.864 325.755H113.066C113.291 325.755 113.482 325.716 113.639 325.637C113.799 325.559 113.92 325.449 114.003 325.307C114.086 325.162 114.128 324.992 114.128 324.796C114.128 324.597 114.093 324.426 114.022 324.281C113.95 324.137 113.839 324.025 113.687 323.947C113.535 323.868 113.339 323.829 113.099 323.829H112.088L112.096 323.259H113.478L113.628 323.465C113.886 323.487 114.104 323.561 114.282 323.686C114.461 323.808 114.597 323.965 114.69 324.156C114.786 324.347 114.834 324.558 114.834 324.788C114.834 325.122 114.76 325.403 114.613 325.634C114.469 325.862 114.264 326.036 113.999 326.156C113.735 326.273 113.424 326.332 113.066 326.332ZM119.363 324.63H120.069C120.032 324.968 119.935 325.271 119.778 325.538C119.622 325.805 119.4 326.017 119.113 326.174C118.826 326.328 118.469 326.406 118.04 326.406C117.726 326.406 117.441 326.347 117.183 326.229C116.929 326.112 116.709 325.945 116.526 325.729C116.342 325.511 116.2 325.25 116.099 324.946C116.001 324.64 115.952 324.299 115.952 323.925V323.392C115.952 323.017 116.001 322.677 116.099 322.374C116.2 322.067 116.343 321.805 116.529 321.587C116.718 321.369 116.945 321.201 117.209 321.083C117.474 320.966 117.772 320.907 118.102 320.907C118.507 320.907 118.848 320.983 119.128 321.135C119.407 321.287 119.624 321.498 119.778 321.767C119.935 322.034 120.032 322.344 120.069 322.697H119.363C119.329 322.447 119.265 322.233 119.172 322.054C119.079 321.872 118.946 321.733 118.775 321.635C118.603 321.537 118.379 321.488 118.102 321.488C117.865 321.488 117.655 321.533 117.474 321.624C117.295 321.714 117.144 321.843 117.022 322.01C116.902 322.176 116.811 322.376 116.75 322.609C116.688 322.842 116.658 323.1 116.658 323.384V323.925C116.658 324.187 116.685 324.433 116.739 324.663C116.795 324.894 116.88 325.096 116.992 325.27C117.105 325.444 117.248 325.581 117.422 325.681C117.596 325.779 117.802 325.828 118.04 325.828C118.341 325.828 118.581 325.781 118.76 325.685C118.939 325.59 119.074 325.452 119.165 325.273C119.258 325.095 119.324 324.88 119.363 324.63Z" fill="#777777"/>
<path d="M198.117 306.312H199.087C199.563 306.312 199.955 306.233 200.263 306.076C200.577 305.915 200.81 305.697 200.962 305.422C201.119 305.143 201.197 304.829 201.197 304.481C201.197 304.07 201.128 303.724 200.991 303.445C200.854 303.165 200.648 302.955 200.374 302.813C200.099 302.67 199.751 302.599 199.33 302.599C198.948 302.599 198.609 302.675 198.315 302.827C198.026 302.974 197.798 303.185 197.632 303.459C197.47 303.734 197.389 304.057 197.389 304.43H196.029C196.029 303.886 196.166 303.391 196.441 302.945C196.715 302.499 197.1 302.144 197.595 301.879C198.095 301.614 198.673 301.482 199.33 301.482C199.977 301.482 200.543 301.597 201.028 301.827C201.513 302.053 201.89 302.391 202.16 302.842C202.429 303.288 202.564 303.844 202.564 304.511C202.564 304.78 202.501 305.069 202.373 305.378C202.251 305.682 202.057 305.966 201.792 306.231C201.533 306.495 201.195 306.713 200.778 306.885C200.361 307.052 199.862 307.135 199.278 307.135H198.117V306.312ZM198.117 307.429V306.613H199.278C199.96 306.613 200.523 306.694 200.969 306.856C201.415 307.017 201.765 307.233 202.02 307.502C202.28 307.772 202.461 308.068 202.564 308.392C202.672 308.71 202.726 309.029 202.726 309.348C202.726 309.847 202.64 310.291 202.469 310.678C202.302 311.065 202.064 311.394 201.756 311.663C201.452 311.933 201.094 312.136 200.682 312.273C200.271 312.41 199.822 312.479 199.337 312.479C198.872 312.479 198.433 312.413 198.021 312.281C197.615 312.148 197.254 311.957 196.941 311.707C196.627 311.452 196.382 311.141 196.206 310.774C196.029 310.401 195.941 309.977 195.941 309.502H197.301C197.301 309.874 197.382 310.2 197.544 310.48C197.71 310.759 197.945 310.977 198.249 311.134C198.558 311.286 198.921 311.362 199.337 311.362C199.754 311.362 200.111 311.291 200.41 311.149C200.714 311.002 200.947 310.781 201.109 310.487C201.275 310.193 201.359 309.823 201.359 309.377C201.359 308.931 201.266 308.566 201.079 308.282C200.893 307.992 200.628 307.779 200.285 307.642C199.947 307.5 199.548 307.429 199.087 307.429H198.117Z" fill="black"/>
<path d="M194.606 326.332H193.488L193.496 325.755H194.606C194.988 325.755 195.307 325.675 195.561 325.516C195.816 325.354 196.007 325.129 196.135 324.84C196.265 324.548 196.33 324.208 196.33 323.818V323.491C196.33 323.185 196.293 322.913 196.219 322.675C196.146 322.435 196.038 322.233 195.896 322.068C195.754 321.902 195.58 321.776 195.374 321.69C195.171 321.604 194.937 321.561 194.672 321.561H193.466V320.981H194.672C195.022 320.981 195.342 321.039 195.631 321.157C195.92 321.272 196.169 321.44 196.377 321.66C196.588 321.879 196.75 322.143 196.863 322.454C196.975 322.763 197.032 323.111 197.032 323.498V323.818C197.032 324.205 196.975 324.554 196.863 324.866C196.75 325.174 196.587 325.438 196.374 325.656C196.163 325.874 195.908 326.042 195.609 326.159C195.313 326.274 194.978 326.332 194.606 326.332ZM193.867 320.981V326.332H193.158V320.981H193.867ZM201.748 325.755V326.332H198.914V325.755H201.748ZM199.058 320.981V326.332H198.348V320.981H199.058ZM201.373 323.281V323.858H198.914V323.281H201.373ZM201.712 320.981V321.561H198.914V320.981H201.712ZM203.587 320.981V326.332H202.878V320.981H203.587ZM205.829 323.388V323.969H203.433V323.388H205.829ZM206.193 320.981V321.561H203.433V320.981H206.193Z" fill="#777777"/>
<path d="M30.235 368.332V369.449H22.5018V368.648L27.2946 361.231H28.4046L27.2138 363.377L24.0455 368.332H30.235ZM28.7428 361.231V371.934H27.3828V361.231H28.7428Z" fill="black"/>
<path d="M24.3937 383.269V385.228C24.3275 385.326 24.2221 385.436 24.0776 385.559C23.933 385.679 23.7333 385.784 23.4785 385.875C23.2261 385.963 22.9002 386.007 22.5008 386.007C22.1749 386.007 21.8747 385.951 21.6003 385.838C21.3283 385.723 21.0919 385.556 20.8909 385.338C20.6924 385.118 20.5381 384.851 20.4278 384.537C20.32 384.221 20.2661 383.863 20.2661 383.464V383.048C20.2661 382.649 20.3126 382.292 20.4058 381.979C20.5013 381.665 20.641 381.399 20.8248 381.181C21.0085 380.961 21.234 380.794 21.5011 380.681C21.7681 380.566 22.0744 380.509 22.4199 380.509C22.8291 380.509 23.171 380.58 23.4454 380.722C23.7223 380.861 23.9379 381.055 24.0923 381.302C24.2491 381.55 24.3496 381.832 24.3937 382.148H23.6843C23.6524 381.954 23.5887 381.778 23.4932 381.619C23.4001 381.459 23.2665 381.332 23.0925 381.236C22.9186 381.138 22.6944 381.089 22.4199 381.089C22.1724 381.089 21.958 381.135 21.7767 381.225C21.5954 381.316 21.4459 381.446 21.3283 381.615C21.2107 381.784 21.1225 381.989 21.0637 382.229C21.0073 382.469 20.9791 382.74 20.9791 383.041V383.464C20.9791 383.772 21.0147 384.048 21.0857 384.291C21.1592 384.533 21.2634 384.74 21.3981 384.912C21.5329 385.081 21.6934 385.21 21.8796 385.298C22.0683 385.386 22.2766 385.43 22.5045 385.43C22.7569 385.43 22.9615 385.409 23.1183 385.368C23.2751 385.323 23.3976 385.272 23.4858 385.213C23.574 385.152 23.6414 385.094 23.688 385.04V383.842H22.4493V383.269H24.3937ZM29.3161 382.883V383.46H26.4198V382.883H29.3161ZM26.5301 380.582V385.934H25.8207V380.582H26.5301ZM29.9336 380.582V385.934H29.2279V380.582H29.9336ZM32.2061 380.582V385.934H31.4967V380.582H32.2061Z" fill="#777777"/>
<path d="M111.287 366.839L110.199 366.56L110.736 361.231H116.227V362.488H111.89L111.566 365.399C111.762 365.286 112.01 365.18 112.309 365.082C112.613 364.984 112.961 364.935 113.353 364.935C113.848 364.935 114.291 365.021 114.683 365.193C115.075 365.359 115.408 365.599 115.683 365.913C115.962 366.227 116.175 366.604 116.322 367.045C116.469 367.486 116.543 367.979 116.543 368.523C116.543 369.037 116.472 369.51 116.33 369.941C116.193 370.373 115.984 370.75 115.705 371.074C115.426 371.392 115.073 371.64 114.646 371.816C114.225 371.992 113.727 372.081 113.154 372.081C112.723 372.081 112.314 372.022 111.926 371.904C111.544 371.782 111.201 371.598 110.897 371.353C110.598 371.103 110.353 370.794 110.162 370.427C109.976 370.054 109.858 369.618 109.809 369.118H111.103C111.162 369.52 111.28 369.858 111.456 370.133C111.632 370.407 111.863 370.615 112.147 370.757C112.436 370.895 112.772 370.963 113.154 370.963C113.478 370.963 113.764 370.907 114.014 370.794C114.264 370.681 114.475 370.52 114.646 370.309C114.818 370.098 114.948 369.843 115.036 369.545C115.129 369.246 115.176 368.91 115.176 368.537C115.176 368.199 115.129 367.886 115.036 367.597C114.943 367.307 114.803 367.055 114.617 366.839C114.436 366.624 114.213 366.457 113.948 366.339C113.683 366.217 113.38 366.156 113.036 366.156C112.581 366.156 112.235 366.217 112 366.339C111.77 366.462 111.532 366.629 111.287 366.839Z" fill="black"/>
<path d="M109.059 384.372V380.582H109.764V384.372C109.764 384.724 109.692 385.022 109.547 385.265C109.403 385.507 109.203 385.692 108.948 385.82C108.696 385.945 108.406 386.007 108.077 386.007C107.749 386.007 107.457 385.951 107.202 385.838C106.948 385.725 106.748 385.554 106.603 385.323C106.459 385.093 106.387 384.803 106.387 384.452H107.096C107.096 384.678 107.138 384.863 107.221 385.007C107.304 385.152 107.419 385.259 107.566 385.327C107.716 385.396 107.886 385.43 108.077 385.43C108.263 385.43 108.43 385.391 108.577 385.312C108.727 385.232 108.844 385.113 108.93 384.956C109.016 384.797 109.059 384.602 109.059 384.372ZM111.926 380.582V385.934H111.217V380.582H111.926ZM115.157 380.582L112.934 383.078L111.684 384.375L111.566 383.618L112.507 382.582L114.305 380.582H115.157ZM114.474 385.934L112.493 383.324L112.915 382.762L115.319 385.934H114.474ZM119.44 385.357V385.934H116.764V385.357H119.44ZM116.904 380.582V385.934H116.195V380.582H116.904Z" fill="#777777"/>
<path d="M201.351 361.216H201.469V362.37H201.351C200.631 362.37 200.028 362.488 199.543 362.723C199.058 362.953 198.673 363.264 198.389 363.656C198.105 364.044 197.899 364.48 197.771 364.965C197.649 365.45 197.588 365.943 197.588 366.442V368.016C197.588 368.491 197.644 368.912 197.757 369.28C197.869 369.643 198.024 369.949 198.22 370.199C198.416 370.449 198.636 370.637 198.881 370.765C199.131 370.892 199.391 370.956 199.661 370.956C199.974 370.956 200.254 370.897 200.499 370.779C200.744 370.657 200.949 370.488 201.116 370.272C201.288 370.052 201.417 369.792 201.506 369.493C201.594 369.194 201.638 368.866 201.638 368.508C201.638 368.189 201.599 367.883 201.52 367.589C201.442 367.29 201.322 367.026 201.16 366.795C200.998 366.56 200.795 366.376 200.55 366.244C200.31 366.107 200.023 366.038 199.69 366.038C199.313 366.038 198.96 366.131 198.631 366.317C198.308 366.499 198.041 366.739 197.83 367.038C197.624 367.332 197.507 367.653 197.477 368.001L196.757 367.993C196.826 367.445 196.953 366.977 197.139 366.589C197.33 366.197 197.566 365.879 197.845 365.634C198.129 365.384 198.445 365.203 198.793 365.09C199.146 364.972 199.518 364.913 199.911 364.913C200.445 364.913 200.905 365.014 201.293 365.215C201.68 365.416 201.998 365.685 202.248 366.023C202.498 366.357 202.682 366.734 202.799 367.155C202.922 367.572 202.983 368.001 202.983 368.442C202.983 368.947 202.912 369.42 202.77 369.861C202.628 370.302 202.415 370.689 202.131 371.022C201.851 371.355 201.506 371.615 201.094 371.801C200.682 371.988 200.205 372.081 199.661 372.081C199.082 372.081 198.578 371.963 198.146 371.728C197.715 371.488 197.357 371.169 197.073 370.772C196.789 370.375 196.576 369.934 196.434 369.449C196.291 368.964 196.22 368.471 196.22 367.971V367.332C196.22 366.577 196.296 365.837 196.448 365.112C196.6 364.387 196.862 363.73 197.235 363.142C197.612 362.554 198.134 362.086 198.801 361.738C199.467 361.39 200.317 361.216 201.351 361.216Z" fill="black"/>
<path d="M191.507 380.582H192.195L193.948 384.945L195.697 380.582H196.388L194.213 385.934H193.676L191.507 380.582ZM191.283 380.582H191.89L191.989 383.846V385.934H191.283V380.582ZM196.003 380.582H196.609V385.934H195.903V383.846L196.003 380.582ZM202.222 380.582V385.934H201.509L198.815 381.806V385.934H198.106V380.582H198.815L201.52 384.721V380.582H202.222ZM207.851 383.089V383.427C207.851 383.829 207.8 384.189 207.7 384.508C207.599 384.826 207.455 385.097 207.266 385.32C207.078 385.543 206.851 385.713 206.586 385.831C206.324 385.948 206.03 386.007 205.704 386.007C205.388 386.007 205.098 385.948 204.833 385.831C204.571 385.713 204.343 385.543 204.149 385.32C203.958 385.097 203.81 384.826 203.705 384.508C203.599 384.189 203.547 383.829 203.547 383.427V383.089C203.547 382.687 203.598 382.328 203.701 382.012C203.806 381.693 203.955 381.423 204.146 381.2C204.337 380.974 204.563 380.803 204.826 380.685C205.09 380.567 205.381 380.509 205.697 380.509C206.023 380.509 206.317 380.567 206.579 380.685C206.843 380.803 207.07 380.974 207.259 381.2C207.45 381.423 207.596 381.693 207.696 382.012C207.799 382.328 207.851 382.687 207.851 383.089ZM207.149 383.427V383.081C207.149 382.763 207.115 382.481 207.049 382.236C206.986 381.991 206.891 381.785 206.766 381.619C206.641 381.452 206.488 381.326 206.307 381.24C206.128 381.154 205.925 381.111 205.697 381.111C205.476 381.111 205.277 381.154 205.098 381.24C204.921 381.326 204.769 381.452 204.642 381.619C204.517 381.785 204.42 381.991 204.352 382.236C204.283 382.481 204.249 382.763 204.249 383.081V383.427C204.249 383.748 204.283 384.032 204.352 384.28C204.42 384.525 204.518 384.732 204.646 384.901C204.775 385.067 204.929 385.194 205.105 385.279C205.284 385.365 205.484 385.408 205.704 385.408C205.934 385.408 206.139 385.365 206.318 385.279C206.497 385.194 206.647 385.067 206.77 384.901C206.895 384.732 206.989 384.525 207.053 384.28C207.117 384.032 207.149 383.748 207.149 383.427Z" fill="#777777"/>
<path d="M29.9189 420.828V421.593L25.4863 431.531H24.0528L28.4781 421.946H22.6855V420.828H29.9189Z" fill="black"/>
<path d="M19.0453 443.433H17.6156V442.855H19.0453C19.3222 442.855 19.5464 442.811 19.7179 442.723C19.8895 442.635 20.0144 442.512 20.0929 442.356C20.1737 442.199 20.2141 442.02 20.2141 441.819C20.2141 441.635 20.1737 441.462 20.0929 441.301C20.0144 441.139 19.8895 441.009 19.7179 440.911C19.5464 440.811 19.3222 440.76 19.0453 440.76H17.781V445.531H17.0716V440.18H19.0453C19.4496 440.18 19.7915 440.25 20.0708 440.389C20.3501 440.529 20.5621 440.722 20.7067 440.97C20.8512 441.215 20.9235 441.496 20.9235 441.812C20.9235 442.155 20.8512 442.448 20.7067 442.69C20.5621 442.933 20.3501 443.118 20.0708 443.245C19.7915 443.37 19.4496 443.433 19.0453 443.433ZM24.8168 444.917L26.1768 445.994L25.699 446.435L24.3611 445.373L24.8168 444.917ZM26.1584 442.686V443.025C26.1584 443.426 26.1082 443.787 26.0077 444.105C25.9072 444.424 25.7627 444.694 25.574 444.917C25.3853 445.14 25.1587 445.311 24.894 445.428C24.6318 445.546 24.3378 445.605 24.0119 445.605C23.6958 445.605 23.4055 445.546 23.1408 445.428C22.8786 445.311 22.6507 445.14 22.4572 444.917C22.266 444.694 22.1178 444.424 22.0124 444.105C21.9071 443.787 21.8544 443.426 21.8544 443.025V442.686C21.8544 442.285 21.9058 441.926 22.0088 441.609C22.1141 441.291 22.2624 441.02 22.4535 440.797C22.6446 440.572 22.8713 440.4 23.1335 440.283C23.3981 440.165 23.6885 440.106 24.0046 440.106C24.3305 440.106 24.6257 440.165 24.8904 440.283C25.155 440.4 25.3816 440.572 25.5703 440.797C25.759 441.02 25.9036 441.291 26.004 441.609C26.1069 441.926 26.1584 442.285 26.1584 442.686ZM25.4564 443.025V442.679C25.4564 442.361 25.4233 442.079 25.3571 441.834C25.2934 441.589 25.1991 441.383 25.0741 441.216C24.9492 441.05 24.7972 440.923 24.6184 440.838C24.4395 440.752 24.2349 440.709 24.0046 440.709C23.7865 440.709 23.588 440.752 23.4091 440.838C23.2327 440.923 23.0808 441.05 22.9534 441.216C22.8259 441.383 22.7279 441.589 22.6593 441.834C22.5907 442.079 22.5564 442.361 22.5564 442.679V443.025C22.5564 443.346 22.5907 443.63 22.6593 443.877C22.7279 444.122 22.8259 444.329 22.9534 444.498C23.0832 444.665 23.2376 444.791 23.4165 444.877C23.5954 444.963 23.7938 445.006 24.0119 445.006C24.2422 445.006 24.4468 444.963 24.6257 444.877C24.8046 444.791 24.9553 444.665 25.0778 444.498C25.2028 444.329 25.2971 444.122 25.3608 443.877C25.4245 443.63 25.4564 443.346 25.4564 443.025ZM27.5046 440.18H29.2762C29.678 440.18 30.0174 440.241 30.2943 440.364C30.5736 440.486 30.7856 440.667 30.9302 440.907C31.0772 441.145 31.1507 441.438 31.1507 441.786C31.1507 442.031 31.1005 442.255 31 442.459C30.902 442.659 30.7599 442.831 30.5736 442.973C30.3899 443.113 30.1693 443.217 29.9121 443.286L29.7136 443.363H28.0486L28.0412 442.786H29.2982C29.5531 442.786 29.765 442.742 29.9341 442.653C30.1032 442.563 30.2306 442.441 30.3164 442.289C30.4021 442.138 30.445 441.97 30.445 441.786C30.445 441.58 30.4046 441.4 30.3237 441.246C30.2428 441.091 30.1154 440.972 29.9415 440.889C29.7699 440.803 29.5482 440.76 29.2762 440.76H28.214V445.531H27.5046V440.18ZM30.6324 445.531L29.3313 443.105L30.0701 443.102L31.3896 445.487V445.531H30.6324ZM35.2462 444.179C35.2462 444.054 35.2266 443.943 35.1874 443.848C35.1506 443.75 35.0845 443.662 34.9889 443.583C34.8958 443.505 34.7659 443.43 34.5993 443.359C34.4351 443.288 34.2268 443.216 33.9745 443.142C33.7098 443.064 33.4709 442.977 33.2577 442.881C33.0446 442.783 32.862 442.672 32.7101 442.547C32.5582 442.422 32.4418 442.278 32.3609 442.117C32.2801 441.955 32.2396 441.77 32.2396 441.562C32.2396 441.353 32.2825 441.161 32.3683 440.985C32.454 440.808 32.5765 440.655 32.7358 440.525C32.8975 440.393 33.0899 440.29 33.3129 440.216C33.5358 440.143 33.7846 440.106 34.059 440.106C34.4608 440.106 34.8014 440.183 35.0808 440.338C35.3626 440.49 35.577 440.689 35.724 440.937C35.871 441.182 35.9445 441.444 35.9445 441.723H35.2388C35.2388 441.523 35.1959 441.345 35.1102 441.19C35.0244 441.034 34.8946 440.911 34.7206 440.823C34.5466 440.732 34.3261 440.687 34.059 440.687C33.8066 440.687 33.5983 440.725 33.4342 440.801C33.27 440.877 33.1475 440.98 33.0666 441.11C32.9882 441.239 32.949 441.388 32.949 441.554C32.949 441.667 32.9723 441.77 33.0188 441.863C33.0678 441.954 33.1426 442.038 33.243 442.117C33.3459 442.195 33.4758 442.267 33.6326 442.334C33.7919 442.4 33.9818 442.463 34.2023 442.525C34.5062 442.61 34.7684 442.706 34.9889 442.811C35.2094 442.917 35.3907 443.036 35.5329 443.168C35.6774 443.298 35.784 443.446 35.8526 443.613C35.9237 443.777 35.9592 443.963 35.9592 444.171C35.9592 444.389 35.9151 444.587 35.8269 444.763C35.7387 444.939 35.6125 445.09 35.4483 445.215C35.2842 445.34 35.0869 445.437 34.8566 445.506C34.6287 445.572 34.3739 445.605 34.0921 445.605C33.8446 445.605 33.6008 445.57 33.3606 445.502C33.123 445.433 32.9061 445.33 32.7101 445.193C32.5165 445.056 32.3609 444.887 32.2433 444.686C32.1281 444.483 32.0705 444.247 32.0705 443.98H32.7762C32.7762 444.164 32.8118 444.322 32.8828 444.454C32.9539 444.584 33.0507 444.692 33.1732 444.778C33.2982 444.864 33.4391 444.927 33.5959 444.969C33.7552 445.008 33.9205 445.028 34.0921 445.028C34.3396 445.028 34.5491 444.993 34.7206 444.925C34.8921 444.856 35.022 444.758 35.1102 444.631C35.2008 444.503 35.2462 444.353 35.2462 444.179Z" fill="#777777"/>
<path d="M116.315 428.635C116.315 429.287 116.163 429.841 115.859 430.296C115.56 430.747 115.154 431.09 114.639 431.325C114.129 431.561 113.554 431.678 112.912 431.678C112.27 431.678 111.691 431.561 111.177 431.325C110.662 431.09 110.255 430.747 109.956 430.296C109.657 429.841 109.508 429.287 109.508 428.635C109.508 428.209 109.589 427.819 109.751 427.466C109.917 427.108 110.15 426.797 110.449 426.533C110.753 426.268 111.111 426.065 111.522 425.922C111.939 425.775 112.397 425.702 112.897 425.702C113.554 425.702 114.139 425.829 114.654 426.084C115.168 426.334 115.573 426.68 115.867 427.121C116.166 427.562 116.315 428.066 116.315 428.635ZM114.948 428.606C114.948 428.209 114.862 427.858 114.69 427.554C114.519 427.246 114.279 427.005 113.97 426.834C113.661 426.662 113.304 426.577 112.897 426.577C112.48 426.577 112.12 426.662 111.816 426.834C111.517 427.005 111.285 427.246 111.118 427.554C110.951 427.858 110.868 428.209 110.868 428.606C110.868 429.017 110.949 429.37 111.111 429.664C111.277 429.953 111.512 430.176 111.816 430.333C112.125 430.485 112.49 430.561 112.912 430.561C113.333 430.561 113.696 430.485 113.999 430.333C114.303 430.176 114.536 429.953 114.698 429.664C114.864 429.37 114.948 429.017 114.948 428.606ZM116.065 423.614C116.065 424.134 115.928 424.602 115.653 425.018C115.379 425.435 115.004 425.763 114.529 426.003C114.053 426.243 113.514 426.364 112.912 426.364C112.299 426.364 111.753 426.243 111.272 426.003C110.797 425.763 110.424 425.435 110.155 425.018C109.885 424.602 109.751 424.134 109.751 423.614C109.751 422.992 109.885 422.463 110.155 422.026C110.429 421.59 110.804 421.257 111.28 421.027C111.755 420.796 112.296 420.681 112.904 420.681C113.517 420.681 114.061 420.796 114.536 421.027C115.011 421.257 115.384 421.59 115.653 422.026C115.928 422.463 116.065 422.992 116.065 423.614ZM114.705 423.636C114.705 423.279 114.629 422.962 114.477 422.688C114.325 422.414 114.115 422.198 113.845 422.041C113.576 421.879 113.262 421.799 112.904 421.799C112.546 421.799 112.233 421.875 111.963 422.026C111.699 422.173 111.49 422.384 111.338 422.659C111.191 422.933 111.118 423.259 111.118 423.636C111.118 424.004 111.191 424.325 111.338 424.599C111.49 424.874 111.701 425.087 111.971 425.239C112.24 425.391 112.554 425.467 112.912 425.467C113.269 425.467 113.58 425.391 113.845 425.239C114.115 425.087 114.325 424.874 114.477 424.599C114.629 424.325 114.705 424.004 114.705 423.636Z" fill="black"/>
<path d="M108.177 440.18V445.531H107.478V440.18H108.177ZM109.897 440.18V440.76H105.762V440.18H109.897ZM114.003 440.18H114.709V443.8C114.709 444.202 114.619 444.536 114.441 444.804C114.262 445.071 114.024 445.272 113.727 445.406C113.433 445.539 113.114 445.605 112.768 445.605C112.406 445.605 112.077 445.539 111.783 445.406C111.492 445.272 111.26 445.071 111.088 444.804C110.919 444.536 110.835 444.202 110.835 443.8V440.18H111.537V443.8C111.537 444.079 111.588 444.31 111.691 444.491C111.794 444.672 111.938 444.807 112.121 444.895C112.308 444.984 112.523 445.028 112.768 445.028C113.016 445.028 113.231 444.984 113.415 444.895C113.601 444.807 113.746 444.672 113.849 444.491C113.952 444.31 114.003 444.079 114.003 443.8V440.18ZM117.801 444.719L119.378 440.18H120.146L118.165 445.531H117.617L117.801 444.719ZM116.327 440.18L117.889 444.719L118.084 445.531H117.536L115.559 440.18H116.327Z" fill="#777777"/>
<path d="M197.485 430.392H197.624C198.408 430.392 199.046 430.282 199.536 430.061C200.026 429.841 200.403 429.544 200.668 429.172C200.932 428.799 201.114 428.38 201.212 427.915C201.31 427.444 201.359 426.961 201.359 426.466V424.827C201.359 424.342 201.302 423.911 201.19 423.533C201.082 423.156 200.93 422.84 200.734 422.585C200.543 422.33 200.325 422.137 200.08 422.004C199.835 421.872 199.575 421.806 199.3 421.806C198.987 421.806 198.705 421.87 198.455 421.997C198.21 422.12 198.002 422.294 197.83 422.519C197.664 422.744 197.536 423.009 197.448 423.313C197.36 423.617 197.316 423.947 197.316 424.305C197.316 424.624 197.355 424.933 197.433 425.231C197.512 425.53 197.632 425.8 197.793 426.04C197.955 426.28 198.156 426.471 198.396 426.613C198.641 426.751 198.928 426.819 199.256 426.819C199.56 426.819 199.844 426.76 200.109 426.643C200.379 426.52 200.616 426.356 200.822 426.15C201.033 425.94 201.199 425.702 201.322 425.437C201.449 425.173 201.523 424.896 201.542 424.607H202.189C202.189 425.013 202.108 425.415 201.947 425.812C201.79 426.204 201.569 426.562 201.285 426.885C201.001 427.209 200.668 427.469 200.285 427.665C199.903 427.856 199.487 427.951 199.036 427.951C198.506 427.951 198.048 427.848 197.661 427.643C197.274 427.437 196.955 427.162 196.706 426.819C196.46 426.476 196.277 426.094 196.154 425.673C196.037 425.246 195.978 424.815 195.978 424.379C195.978 423.869 196.049 423.391 196.191 422.945C196.333 422.499 196.544 422.107 196.823 421.769C197.102 421.426 197.448 421.159 197.86 420.968C198.276 420.777 198.756 420.681 199.3 420.681C199.913 420.681 200.435 420.804 200.866 421.049C201.297 421.294 201.648 421.622 201.917 422.034C202.192 422.445 202.393 422.909 202.52 423.423C202.648 423.938 202.711 424.467 202.711 425.011V425.503C202.711 426.057 202.675 426.621 202.601 427.194C202.532 427.763 202.398 428.307 202.197 428.826C202.001 429.346 201.714 429.811 201.337 430.223C200.959 430.63 200.467 430.953 199.859 431.193C199.256 431.428 198.511 431.546 197.624 431.546H197.485V430.392Z" fill="black"/>
<path d="M190.911 443.914L191.974 440.18H192.488L192.191 441.632L191.047 445.531H190.537L190.911 443.914ZM189.812 440.18L190.658 443.841L190.911 445.531H190.404L189.107 440.18H189.812ZM193.863 443.837L194.69 440.18H195.399L194.105 445.531H193.598L193.863 443.837ZM192.565 440.18L193.598 443.914L193.973 445.531H193.462L192.36 441.632L192.058 440.18H192.565ZM196.896 440.18L198.183 442.231L199.469 440.18H200.296L198.605 442.83L200.336 445.531H199.502L198.183 443.44L196.863 445.531H196.029L197.76 442.83L196.069 440.18H196.896ZM201.653 440.18L203.043 442.867L204.436 440.18H205.24L203.395 443.532V445.531H202.686V443.532L200.841 440.18H201.653ZM209.77 444.954V445.531H206.146V444.954H209.77ZM209.652 440.694L206.315 445.531H205.877V445.002L209.211 440.18H209.652V440.694ZM209.351 440.18V440.76H205.925V440.18H209.351Z" fill="#777777"/>
<path d="M116.286 484.929V486.56C116.286 487.438 116.207 488.178 116.05 488.78C115.894 489.383 115.668 489.868 115.374 490.236C115.08 490.604 114.725 490.871 114.308 491.037C113.897 491.199 113.431 491.28 112.912 491.28C112.5 491.28 112.12 491.228 111.772 491.125C111.424 491.023 111.111 490.858 110.831 490.633C110.557 490.403 110.322 490.104 110.125 489.736C109.929 489.369 109.78 488.923 109.677 488.398C109.574 487.874 109.523 487.261 109.523 486.56V484.929C109.523 484.051 109.601 483.316 109.758 482.723C109.92 482.13 110.148 481.655 110.442 481.297C110.736 480.935 111.088 480.675 111.5 480.518C111.917 480.361 112.382 480.283 112.897 480.283C113.313 480.283 113.696 480.334 114.044 480.437C114.396 480.535 114.71 480.694 114.985 480.915C115.259 481.131 115.492 481.42 115.683 481.782C115.879 482.14 116.028 482.579 116.131 483.098C116.234 483.618 116.286 484.228 116.286 484.929ZM114.918 486.781V484.701C114.918 484.22 114.889 483.799 114.83 483.436C114.776 483.069 114.695 482.755 114.588 482.495C114.48 482.236 114.343 482.025 114.176 481.863C114.014 481.701 113.825 481.584 113.61 481.51C113.399 481.432 113.161 481.393 112.897 481.393C112.573 481.393 112.287 481.454 112.037 481.577C111.787 481.694 111.576 481.883 111.405 482.143C111.238 482.402 111.111 482.743 111.022 483.164C110.934 483.586 110.89 484.098 110.89 484.701V486.781C110.89 487.261 110.917 487.685 110.971 488.053C111.03 488.42 111.115 488.739 111.228 489.008C111.341 489.273 111.478 489.491 111.64 489.663C111.802 489.834 111.988 489.962 112.198 490.045C112.414 490.123 112.652 490.162 112.912 490.162C113.245 490.162 113.536 490.099 113.786 489.971C114.036 489.844 114.245 489.645 114.411 489.376C114.583 489.101 114.71 488.751 114.793 488.325C114.877 487.893 114.918 487.379 114.918 486.781Z" fill="black"/>
<path fill-rule="evenodd" clip-rule="evenodd" d="M195.866 479.273C195.44 479.273 195.044 479.489 194.813 479.846L192.151 483.96C191.895 484.356 191.882 484.862 192.118 485.27L194.821 489.939C195.045 490.326 195.459 490.565 195.907 490.565H205.22C205.913 490.565 206.474 490.003 206.474 489.31V480.528C206.474 479.835 205.913 479.273 205.22 479.273H195.866ZM197.411 482.602C197.166 482.357 197.166 481.96 197.411 481.715C197.656 481.47 198.053 481.47 198.298 481.715L200.521 483.938L202.734 481.724C202.979 481.479 203.376 481.479 203.621 481.724C203.866 481.969 203.866 482.366 203.621 482.611L201.408 484.825L203.621 487.038C203.866 487.283 203.866 487.68 203.621 487.925C203.376 488.17 202.979 488.17 202.734 487.925L200.521 485.712L198.298 487.934C198.053 488.179 197.656 488.179 197.411 487.934C197.166 487.689 197.166 487.292 197.411 487.047L199.634 484.825L197.411 482.602Z" fill="black"/>
<path d="M50.4907 119.145V120.203H45.2954V119.145H50.4907ZM45.5582 110.392V120.203H44.2576V110.392H45.5582ZM49.8033 114.61V115.668H45.2954V114.61H49.8033ZM50.4233 110.392V111.457H45.2954V110.392H50.4233ZM53.1591 114.469V120.203H51.9125V112.912H53.0917L53.1591 114.469ZM52.8626 116.281L52.3437 116.261C52.3482 115.763 52.4223 115.302 52.5661 114.88C52.7098 114.453 52.912 114.082 53.1726 113.768C53.4331 113.453 53.7431 113.211 54.1025 113.04C54.4663 112.865 54.8684 112.777 55.3086 112.777C55.668 112.777 55.9915 112.827 56.279 112.926C56.5665 113.02 56.8113 113.173 57.0134 113.384C57.2201 113.595 57.3773 113.869 57.4851 114.206C57.5929 114.538 57.6469 114.945 57.6469 115.426V120.203H56.3935V115.412C56.3935 115.03 56.3374 114.725 56.225 114.496C56.1127 114.262 55.9488 114.094 55.7331 113.99C55.5175 113.883 55.2525 113.829 54.938 113.829C54.628 113.829 54.345 113.894 54.089 114.024C53.8374 114.154 53.6195 114.334 53.4353 114.563C53.2557 114.792 53.1142 115.055 53.0108 115.351C52.912 115.643 52.8626 115.953 52.8626 116.281ZM62.5928 112.912V113.869H58.6509V112.912H62.5928ZM59.9851 111.14H61.2317V118.397C61.2317 118.644 61.2699 118.831 61.3462 118.957C61.4226 119.082 61.5214 119.165 61.6427 119.206C61.764 119.246 61.8943 119.266 62.0336 119.266C62.1369 119.266 62.2447 119.258 62.357 119.24C62.4738 119.217 62.5614 119.199 62.6198 119.186L62.6265 120.203C62.5277 120.235 62.3974 120.264 62.2357 120.291C62.0785 120.322 61.8876 120.338 61.6629 120.338C61.3575 120.338 61.0767 120.277 60.8206 120.156C60.5646 120.035 60.3602 119.833 60.2074 119.549C60.0592 119.262 59.9851 118.876 59.9851 118.39V111.14ZM67.0806 120.338C66.573 120.338 66.1125 120.253 65.6992 120.082C65.2905 119.907 64.9378 119.662 64.6413 119.347C64.3493 119.033 64.1247 118.66 63.9675 118.229C63.8102 117.798 63.7316 117.326 63.7316 116.814V116.531C63.7316 115.938 63.8192 115.41 63.9944 114.947C64.1696 114.48 64.4077 114.085 64.7087 113.761C65.0097 113.438 65.3511 113.193 65.7329 113.027C66.1148 112.861 66.5101 112.777 66.9189 112.777C67.44 112.777 67.8892 112.867 68.2666 113.047C68.6484 113.227 68.9606 113.478 69.2032 113.802C69.4458 114.121 69.6255 114.498 69.7423 114.934C69.8591 115.365 69.9175 115.837 69.9175 116.349V116.908H64.4729V115.891H68.6709V115.796C68.6529 115.473 68.5855 115.158 68.4687 114.853C68.3564 114.547 68.1767 114.296 67.9297 114.098C67.6826 113.9 67.3457 113.802 66.9189 113.802C66.6359 113.802 66.3753 113.862 66.1372 113.984C65.8992 114.1 65.6948 114.276 65.524 114.509C65.3533 114.743 65.2208 115.028 65.1265 115.365C65.0321 115.702 64.985 116.09 64.985 116.531V116.814C64.985 117.16 65.0321 117.485 65.1265 117.791C65.2253 118.092 65.3668 118.357 65.551 118.586C65.7397 118.815 65.9665 118.995 66.2316 119.125C66.5011 119.255 66.8066 119.32 67.148 119.32C67.5882 119.32 67.9611 119.231 68.2666 119.051C68.5721 118.871 68.8393 118.631 69.0685 118.33L69.8232 118.93C69.6659 119.168 69.466 119.395 69.2234 119.61C68.9809 119.826 68.6821 120.001 68.3272 120.136C67.9768 120.271 67.5613 120.338 67.0806 120.338ZM72.6196 114.058V120.203H71.373V112.912H72.5859L72.6196 114.058ZM74.8972 112.872L74.8904 114.031C74.7871 114.008 74.6883 113.995 74.5939 113.99C74.5041 113.981 74.4008 113.977 74.284 113.977C73.9965 113.977 73.7427 114.022 73.5225 114.112C73.3024 114.201 73.116 114.327 72.9632 114.489C72.8105 114.651 72.6892 114.844 72.5994 115.068C72.514 115.289 72.4579 115.531 72.4309 115.796L72.0805 115.998C72.0805 115.558 72.1232 115.145 72.2085 114.758C72.2984 114.372 72.4354 114.031 72.6196 113.734C72.8038 113.433 73.0374 113.2 73.3204 113.033C73.6079 112.863 73.9493 112.777 74.3446 112.777C74.4345 112.777 74.5378 112.789 74.6546 112.811C74.7714 112.829 74.8522 112.849 74.8972 112.872ZM81.521 119.448L83.5493 112.912H84.8835L81.959 121.328C81.8916 121.508 81.8018 121.701 81.6895 121.908C81.5817 122.119 81.4424 122.319 81.2717 122.508C81.101 122.696 80.8944 122.849 80.6518 122.966C80.4137 123.087 80.1284 123.148 79.796 123.148C79.6972 123.148 79.5714 123.134 79.4186 123.107C79.2659 123.08 79.1581 123.058 79.0952 123.04L79.0885 122.029C79.1244 122.034 79.1806 122.038 79.2569 122.043C79.3378 122.052 79.3939 122.056 79.4254 122.056C79.7084 122.056 79.9487 122.018 80.1464 121.942C80.344 121.87 80.5103 121.746 80.645 121.571C80.7843 121.4 80.9033 121.164 81.0022 120.863L81.521 119.448ZM80.0318 112.912L81.9253 118.572L82.2488 119.886L81.3526 120.345L78.6707 112.912H80.0318ZM85.5708 116.639V116.484C85.5708 115.958 85.6472 115.471 85.7999 115.021C85.9527 114.568 86.1728 114.174 86.4603 113.842C86.7478 113.505 87.0959 113.245 87.5047 113.06C87.9135 112.872 88.3717 112.777 88.8794 112.777C89.3915 112.777 89.8519 112.872 90.2607 113.06C90.674 113.245 91.0244 113.505 91.3119 113.842C91.6039 114.174 91.8263 114.568 91.979 115.021C92.1318 115.471 92.2081 115.958 92.2081 116.484V116.639C92.2081 117.164 92.1318 117.652 91.979 118.101C91.8263 118.55 91.6039 118.943 91.3119 119.28C91.0244 119.612 90.6763 119.873 90.2675 120.062C89.8632 120.246 89.405 120.338 88.8928 120.338C88.3807 120.338 87.9203 120.246 87.5115 120.062C87.1027 119.873 86.7523 119.612 86.4603 119.28C86.1728 118.943 85.9527 118.55 85.7999 118.101C85.6472 117.652 85.5708 117.164 85.5708 116.639ZM86.8174 116.484V116.639C86.8174 117.002 86.8601 117.346 86.9454 117.669C87.0308 117.988 87.1588 118.271 87.3295 118.519C87.5047 118.766 87.7226 118.961 87.9832 119.105C88.2437 119.244 88.5469 119.314 88.8928 119.314C89.2343 119.314 89.533 119.244 89.789 119.105C90.0496 118.961 90.2652 118.766 90.4359 118.519C90.6066 118.271 90.7347 117.988 90.82 117.669C90.9099 117.346 90.9548 117.002 90.9548 116.639V116.484C90.9548 116.124 90.9099 115.785 90.82 115.466C90.7347 115.143 90.6044 114.857 90.4292 114.61C90.2585 114.359 90.0429 114.161 89.7823 114.017C89.5263 113.874 89.2253 113.802 88.8794 113.802C88.538 113.802 88.237 113.874 87.9764 114.017C87.7204 114.161 87.5047 114.359 87.3295 114.61C87.1588 114.857 87.0308 115.143 86.9454 115.466C86.8601 115.785 86.8174 116.124 86.8174 116.484ZM98.2323 118.519V112.912H99.4856V120.203H98.2929L98.2323 118.519ZM98.4681 116.982L98.987 116.969C98.987 117.454 98.9353 117.903 98.832 118.316C98.7332 118.725 98.5714 119.08 98.3468 119.381C98.1222 119.682 97.828 119.918 97.4641 120.089C97.1002 120.255 96.6577 120.338 96.1366 120.338C95.7817 120.338 95.456 120.286 95.1596 120.183C94.8676 120.08 94.616 119.92 94.4049 119.704C94.1937 119.489 94.0298 119.208 93.913 118.862C93.8006 118.516 93.7445 118.101 93.7445 117.616V112.912H94.9911V117.629C94.9911 117.957 95.027 118.229 95.0989 118.444C95.1753 118.656 95.2764 118.824 95.4021 118.95C95.5324 119.071 95.6762 119.156 95.8334 119.206C95.9951 119.255 96.1613 119.28 96.332 119.28C96.8621 119.28 97.2822 119.179 97.5921 118.977C97.9021 118.77 98.1245 118.494 98.2592 118.148C98.3985 117.798 98.4681 117.409 98.4681 116.982ZM102.632 114.058V120.203H101.386V112.912H102.599L102.632 114.058ZM104.91 112.872L104.903 114.031C104.8 114.008 104.701 113.995 104.607 113.99C104.517 113.981 104.414 113.977 104.297 113.977C104.009 113.977 103.756 114.022 103.535 114.112C103.315 114.201 103.129 114.327 102.976 114.489C102.823 114.651 102.702 114.844 102.612 115.068C102.527 115.289 102.471 115.531 102.444 115.796L102.093 115.998C102.093 115.558 102.136 115.145 102.221 114.758C102.311 114.372 102.448 114.031 102.632 113.734C102.817 113.433 103.05 113.2 103.333 113.033C103.621 112.863 103.962 112.777 104.357 112.777C104.447 112.777 104.551 112.789 104.667 112.811C104.784 112.829 104.865 112.849 104.91 112.872ZM113.293 116.355H110.671V115.298H113.293C113.8 115.298 114.211 115.217 114.526 115.055C114.84 114.893 115.069 114.669 115.213 114.381C115.361 114.094 115.435 113.766 115.435 113.397C115.435 113.06 115.361 112.744 115.213 112.447C115.069 112.151 114.84 111.913 114.526 111.733C114.211 111.549 113.8 111.457 113.293 111.457H110.975V120.203H109.674V110.392H113.293C114.034 110.392 114.661 110.52 115.173 110.776C115.685 111.032 116.073 111.387 116.338 111.841C116.603 112.29 116.736 112.804 116.736 113.384C116.736 114.013 116.603 114.55 116.338 114.994C116.073 115.439 115.685 115.778 115.173 116.012C114.661 116.241 114.034 116.355 113.293 116.355ZM119.775 110.392V120.203H118.474V110.392H119.775ZM129.687 110.392V120.203H128.38L123.441 112.636V120.203H122.14V110.392H123.441L128.4 117.979V110.392H129.687ZM138.279 112.912V113.869H134.337V112.912H138.279ZM135.671 111.14H136.917V118.397C136.917 118.644 136.956 118.831 137.032 118.957C137.108 119.082 137.207 119.165 137.328 119.206C137.45 119.246 137.58 119.266 137.719 119.266C137.823 119.266 137.93 119.258 138.043 119.24C138.16 119.217 138.247 119.199 138.306 119.186L138.312 120.203C138.213 120.235 138.083 120.264 137.921 120.291C137.764 120.322 137.573 120.338 137.349 120.338C137.043 120.338 136.762 120.277 136.506 120.156C136.25 120.035 136.046 119.833 135.893 119.549C135.745 119.262 135.671 118.876 135.671 118.39V111.14ZM139.276 116.639V116.484C139.276 115.958 139.352 115.471 139.505 115.021C139.658 114.568 139.878 114.174 140.165 113.842C140.453 113.505 140.801 113.245 141.21 113.06C141.619 112.872 142.077 112.777 142.584 112.777C143.097 112.777 143.557 112.872 143.966 113.06C144.379 113.245 144.73 113.505 145.017 113.842C145.309 114.174 145.531 114.568 145.684 115.021C145.837 115.471 145.913 115.958 145.913 116.484V116.639C145.913 117.164 145.837 117.652 145.684 118.101C145.531 118.55 145.309 118.943 145.017 119.28C144.73 119.612 144.381 119.873 143.973 120.062C143.568 120.246 143.11 120.338 142.598 120.338C142.086 120.338 141.625 120.246 141.217 120.062C140.808 119.873 140.457 119.612 140.165 119.28C139.878 118.943 139.658 118.55 139.505 118.101C139.352 117.652 139.276 117.164 139.276 116.639ZM140.523 116.484V116.639C140.523 117.002 140.565 117.346 140.651 117.669C140.736 117.988 140.864 118.271 141.035 118.519C141.21 118.766 141.428 118.961 141.688 119.105C141.949 119.244 142.252 119.314 142.598 119.314C142.939 119.314 143.238 119.244 143.494 119.105C143.755 118.961 143.97 118.766 144.141 118.519C144.312 118.271 144.44 117.988 144.525 117.669C144.615 117.346 144.66 117.002 144.66 116.639V116.484C144.66 116.124 144.615 115.785 144.525 115.466C144.44 115.143 144.309 114.857 144.134 114.61C143.964 114.359 143.748 114.161 143.487 114.017C143.231 113.874 142.93 113.802 142.584 113.802C142.243 113.802 141.942 113.874 141.682 114.017C141.425 114.161 141.21 114.359 141.035 114.61C140.864 114.857 140.736 115.143 140.651 115.466C140.565 115.785 140.523 116.124 140.523 116.484ZM152.254 109.853V120.203H151.001V109.853H152.254ZM153.925 116.639V116.484C153.925 115.958 154.002 115.471 154.154 115.021C154.307 114.568 154.527 114.174 154.815 113.842C155.102 113.505 155.45 113.245 155.859 113.06C156.268 112.872 156.726 112.777 157.234 112.777C157.746 112.777 158.206 112.872 158.615 113.06C159.028 113.245 159.379 113.505 159.666 113.842C159.958 114.174 160.181 114.568 160.333 115.021C160.486 115.471 160.563 115.958 160.563 116.484V116.639C160.563 117.164 160.486 117.652 160.333 118.101C160.181 118.55 159.958 118.943 159.666 119.28C159.379 119.612 159.031 119.873 158.622 120.062C158.218 120.246 157.759 120.338 157.247 120.338C156.735 120.338 156.275 120.246 155.866 120.062C155.457 119.873 155.107 119.612 154.815 119.28C154.527 118.943 154.307 118.55 154.154 118.101C154.002 117.652 153.925 117.164 153.925 116.639ZM155.172 116.484V116.639C155.172 117.002 155.214 117.346 155.3 117.669C155.385 117.988 155.513 118.271 155.684 118.519C155.859 118.766 156.077 118.961 156.338 119.105C156.598 119.244 156.901 119.314 157.247 119.314C157.589 119.314 157.887 119.244 158.143 119.105C158.404 118.961 158.62 118.766 158.79 118.519C158.961 118.271 159.089 117.988 159.174 117.669C159.264 117.346 159.309 117.002 159.309 116.639V116.484C159.309 116.124 159.264 115.785 159.174 115.466C159.089 115.143 158.959 114.857 158.784 114.61C158.613 114.359 158.397 114.161 158.137 114.017C157.881 113.874 157.58 113.802 157.234 113.802C156.892 113.802 156.591 113.874 156.331 114.017C156.075 114.161 155.859 114.359 155.684 114.61C155.513 114.857 155.385 115.143 155.3 115.466C155.214 115.785 155.172 116.124 155.172 116.484ZM166.849 112.912H167.982V120.048C167.982 120.691 167.851 121.239 167.591 121.692C167.33 122.146 166.966 122.49 166.499 122.723C166.036 122.961 165.502 123.08 164.895 123.08C164.644 123.08 164.347 123.04 164.006 122.959C163.669 122.883 163.337 122.75 163.009 122.562C162.685 122.377 162.413 122.128 162.193 121.814L162.847 121.072C163.152 121.441 163.471 121.697 163.804 121.841C164.141 121.984 164.473 122.056 164.801 122.056C165.196 122.056 165.538 121.982 165.825 121.834C166.113 121.686 166.335 121.465 166.492 121.173C166.654 120.886 166.735 120.531 166.735 120.109V114.516L166.849 112.912ZM161.829 116.639V116.497C161.829 115.94 161.894 115.435 162.025 114.981C162.16 114.523 162.35 114.13 162.598 113.802C162.849 113.474 163.152 113.222 163.507 113.047C163.862 112.867 164.262 112.777 164.707 112.777C165.165 112.777 165.565 112.858 165.906 113.02C166.252 113.177 166.544 113.409 166.782 113.714C167.025 114.015 167.216 114.379 167.355 114.806C167.494 115.232 167.591 115.715 167.645 116.254V116.874C167.595 117.409 167.499 117.89 167.355 118.316C167.216 118.743 167.025 119.107 166.782 119.408C166.544 119.709 166.252 119.94 165.906 120.102C165.56 120.259 165.156 120.338 164.693 120.338C164.257 120.338 163.862 120.246 163.507 120.062C163.157 119.877 162.856 119.619 162.604 119.287C162.353 118.954 162.16 118.563 162.025 118.114C161.894 117.66 161.829 117.169 161.829 116.639ZM163.076 116.497V116.639C163.076 117.002 163.112 117.344 163.184 117.663C163.26 117.982 163.375 118.262 163.527 118.505C163.685 118.748 163.885 118.939 164.127 119.078C164.37 119.213 164.659 119.28 164.996 119.28C165.41 119.28 165.751 119.192 166.021 119.017C166.29 118.842 166.504 118.611 166.661 118.323C166.823 118.036 166.948 117.723 167.038 117.386V115.763C166.989 115.515 166.912 115.277 166.809 115.048C166.71 114.815 166.58 114.608 166.418 114.428C166.261 114.244 166.066 114.098 165.832 113.99C165.598 113.883 165.324 113.829 165.01 113.829C164.668 113.829 164.374 113.9 164.127 114.044C163.885 114.183 163.685 114.377 163.527 114.624C163.375 114.866 163.26 115.149 163.184 115.473C163.112 115.792 163.076 116.133 163.076 116.497ZM174.653 112.912V120.203H173.399V112.912H174.653ZM173.305 110.978C173.305 110.776 173.365 110.605 173.487 110.466C173.613 110.327 173.797 110.257 174.039 110.257C174.277 110.257 174.459 110.327 174.585 110.466C174.715 110.605 174.781 110.776 174.781 110.978C174.781 111.171 174.715 111.338 174.585 111.477C174.459 111.612 174.277 111.679 174.039 111.679C173.797 111.679 173.613 111.612 173.487 111.477C173.365 111.338 173.305 111.171 173.305 110.978ZM177.9 114.469V120.203H176.654V112.912H177.833L177.9 114.469ZM177.604 116.281L177.085 116.261C177.09 115.763 177.164 115.302 177.307 114.88C177.451 114.453 177.653 114.082 177.914 113.768C178.174 113.453 178.484 113.211 178.844 113.04C179.208 112.865 179.61 112.777 180.05 112.777C180.409 112.777 180.733 112.827 181.02 112.926C181.308 113.02 181.553 113.173 181.755 113.384C181.961 113.595 182.119 113.869 182.226 114.206C182.334 114.538 182.388 114.945 182.388 115.426V120.203H181.135V115.412C181.135 115.03 181.079 114.725 180.966 114.496C180.854 114.262 180.69 114.094 180.475 113.99C180.259 113.883 179.994 113.829 179.679 113.829C179.369 113.829 179.086 113.894 178.83 114.024C178.579 114.154 178.361 114.334 178.177 114.563C177.997 114.792 177.856 115.055 177.752 115.351C177.653 115.643 177.604 115.953 177.604 116.281Z" fill="black"/>
<circle cx="85.9383" cy="146.846" r="5.9592" fill="black"/>
<circle cx="104.13" cy="146.846" r="5.33192" stroke="#999999" stroke-width="1.25457"/>
<circle cx="122.321" cy="146.846" r="5.33192" stroke="#999999" stroke-width="1.25457"/>
<circle cx="140.512" cy="146.846" r="5.33192" stroke="#999999" stroke-width="1.25457"/>
<path d="M87.1439 219.396V226.531H86.1981V219.396H87.1439ZM90.1333 222.606V223.38H86.9381V222.606H90.1333ZM90.6185 219.396V220.17H86.9381V219.396H90.6185ZM91.5741 223.939V223.826C91.5741 223.444 91.6297 223.089 91.7407 222.763C91.8518 222.433 92.0119 222.147 92.221 221.905C92.4301 221.66 92.6833 221.471 92.9806 221.337C93.2779 221.199 93.6112 221.131 93.9803 221.131C94.3528 221.131 94.6877 221.199 94.985 221.337C95.2855 221.471 95.5404 221.66 95.7495 221.905C95.9618 222.147 96.1236 222.433 96.2346 222.763C96.3457 223.089 96.4013 223.444 96.4013 223.826V223.939C96.4013 224.321 96.3457 224.676 96.2346 225.002C96.1236 225.329 95.9618 225.615 95.7495 225.86C95.5404 226.102 95.2872 226.291 94.9899 226.428C94.6958 226.562 94.3626 226.629 93.9901 226.629C93.6177 226.629 93.2828 226.562 92.9855 226.428C92.6882 226.291 92.4334 226.102 92.221 225.86C92.0119 225.615 91.8518 225.329 91.7407 225.002C91.6297 224.676 91.5741 224.321 91.5741 223.939ZM92.4807 223.826V223.939C92.4807 224.203 92.5118 224.453 92.5738 224.689C92.6359 224.921 92.729 225.126 92.8532 225.306C92.9806 225.486 93.1391 225.628 93.3285 225.732C93.518 225.834 93.7386 225.884 93.9901 225.884C94.2384 225.884 94.4557 225.834 94.6419 225.732C94.8314 225.628 94.9882 225.486 95.1124 225.306C95.2365 225.126 95.3296 224.921 95.3917 224.689C95.4571 224.453 95.4897 224.203 95.4897 223.939V223.826C95.4897 223.565 95.4571 223.318 95.3917 223.086C95.3296 222.851 95.2349 222.643 95.1075 222.464C94.9833 222.281 94.8265 222.137 94.637 222.032C94.4508 221.928 94.2319 221.876 93.9803 221.876C93.732 221.876 93.5131 221.928 93.3236 222.032C93.1374 222.137 92.9806 222.281 92.8532 222.464C92.729 222.643 92.6359 222.851 92.5738 223.086C92.5118 223.318 92.4807 223.565 92.4807 223.826ZM98.7585 222.062V226.531H97.8519V221.229H98.734L98.7585 222.062ZM100.415 221.199L100.41 222.042C100.335 222.026 100.263 222.016 100.194 222.013C100.129 222.006 100.054 222.003 99.9689 222.003C99.7598 222.003 99.5753 222.036 99.4152 222.101C99.2551 222.166 99.1195 222.258 99.0084 222.375C98.8973 222.493 98.8091 222.634 98.7438 222.797C98.6817 222.957 98.6409 223.133 98.6213 223.326L98.3664 223.473C98.3664 223.153 98.3975 222.852 98.4595 222.572C98.5249 222.291 98.6245 222.042 98.7585 221.827C98.8924 221.608 99.0623 221.438 99.2681 221.317C99.4772 221.193 99.7255 221.131 100.013 221.131C100.078 221.131 100.154 221.139 100.238 221.155C100.323 221.168 100.382 221.183 100.415 221.199ZM104.904 221.229H105.727V226.419C105.727 226.886 105.632 227.284 105.443 227.614C105.253 227.944 104.989 228.194 104.649 228.364C104.313 228.537 103.924 228.624 103.483 228.624C103.3 228.624 103.084 228.594 102.836 228.536C102.591 228.48 102.349 228.384 102.111 228.246C101.875 228.113 101.678 227.931 101.518 227.703L101.993 227.163C102.215 227.431 102.447 227.618 102.689 227.722C102.934 227.827 103.176 227.879 103.414 227.879C103.702 227.879 103.95 227.825 104.159 227.717C104.368 227.609 104.53 227.449 104.644 227.237C104.762 227.028 104.821 226.77 104.821 226.463V222.395L104.904 221.229ZM101.253 223.939V223.836C101.253 223.431 101.3 223.063 101.395 222.733C101.493 222.4 101.632 222.114 101.812 221.876C101.995 221.637 102.215 221.454 102.473 221.327C102.731 221.196 103.022 221.131 103.345 221.131C103.679 221.131 103.97 221.19 104.218 221.307C104.469 221.421 104.682 221.59 104.855 221.812C105.031 222.031 105.17 222.295 105.271 222.606C105.373 222.916 105.443 223.267 105.482 223.659V224.11C105.446 224.499 105.376 224.849 105.271 225.159C105.17 225.469 105.031 225.734 104.855 225.953C104.682 226.172 104.469 226.34 104.218 226.458C103.966 226.572 103.672 226.629 103.336 226.629C103.019 226.629 102.731 226.562 102.473 226.428C102.218 226.294 101.999 226.107 101.816 225.865C101.634 225.623 101.493 225.339 101.395 225.012C101.3 224.682 101.253 224.324 101.253 223.939ZM102.16 223.836V223.939C102.16 224.203 102.186 224.452 102.238 224.684C102.293 224.916 102.377 225.12 102.488 225.296C102.602 225.473 102.748 225.612 102.924 225.713C103.1 225.811 103.311 225.86 103.556 225.86C103.857 225.86 104.105 225.796 104.301 225.669C104.497 225.541 104.652 225.373 104.767 225.164C104.884 224.955 104.976 224.728 105.041 224.483V223.302C105.005 223.122 104.95 222.949 104.874 222.782C104.803 222.612 104.708 222.462 104.59 222.331C104.476 222.197 104.334 222.091 104.164 222.013C103.994 221.934 103.795 221.895 103.566 221.895C103.318 221.895 103.104 221.948 102.924 222.052C102.748 222.153 102.602 222.294 102.488 222.474C102.377 222.65 102.293 222.856 102.238 223.091C102.186 223.323 102.16 223.571 102.16 223.836ZM107.178 223.939V223.826C107.178 223.444 107.233 223.089 107.344 222.763C107.456 222.433 107.616 222.147 107.825 221.905C108.034 221.66 108.287 221.471 108.584 221.337C108.882 221.199 109.215 221.131 109.584 221.131C109.956 221.131 110.291 221.199 110.589 221.337C110.889 221.471 111.144 221.66 111.353 221.905C111.566 222.147 111.727 222.433 111.838 222.763C111.949 223.089 112.005 223.444 112.005 223.826V223.939C112.005 224.321 111.949 224.676 111.838 225.002C111.727 225.329 111.566 225.615 111.353 225.86C111.144 226.102 110.891 226.291 110.594 226.428C110.3 226.562 109.966 226.629 109.594 226.629C109.221 226.629 108.887 226.562 108.589 226.428C108.292 226.291 108.037 226.102 107.825 225.86C107.616 225.615 107.456 225.329 107.344 225.002C107.233 224.676 107.178 224.321 107.178 223.939ZM108.084 223.826V223.939C108.084 224.203 108.115 224.453 108.178 224.689C108.24 224.921 108.333 225.126 108.457 225.306C108.584 225.486 108.743 225.628 108.932 225.732C109.122 225.834 109.342 225.884 109.594 225.884C109.842 225.884 110.059 225.834 110.246 225.732C110.435 225.628 110.592 225.486 110.716 225.306C110.84 225.126 110.933 224.921 110.995 224.689C111.061 224.453 111.093 224.203 111.093 223.939V223.826C111.093 223.565 111.061 223.318 110.995 223.086C110.933 222.851 110.839 222.643 110.711 222.464C110.587 222.281 110.43 222.137 110.241 222.032C110.054 221.928 109.836 221.876 109.584 221.876C109.336 221.876 109.117 221.928 108.927 222.032C108.741 222.137 108.584 222.281 108.457 222.464C108.333 222.643 108.24 222.851 108.178 223.086C108.115 223.318 108.084 223.565 108.084 223.826ZM115.676 221.229V221.925H112.809V221.229H115.676ZM113.779 219.94H114.686V225.218C114.686 225.398 114.713 225.533 114.769 225.625C114.824 225.716 114.896 225.777 114.985 225.806C115.073 225.835 115.168 225.85 115.269 225.85C115.344 225.85 115.422 225.844 115.504 225.83C115.589 225.814 115.653 225.801 115.695 225.791L115.7 226.531C115.628 226.554 115.533 226.575 115.416 226.595C115.301 226.618 115.163 226.629 114.999 226.629C114.777 226.629 114.573 226.585 114.387 226.497C114.2 226.409 114.052 226.262 113.941 226.056C113.833 225.847 113.779 225.566 113.779 225.213V219.94ZM122.625 223.733H120.718V222.964H122.625C122.994 222.964 123.293 222.905 123.522 222.787C123.75 222.67 123.917 222.506 124.021 222.297C124.129 222.088 124.183 221.849 124.183 221.582C124.183 221.337 124.129 221.106 124.021 220.891C123.917 220.675 123.75 220.502 123.522 220.371C123.293 220.237 122.994 220.17 122.625 220.17H120.939V226.531H119.993V219.396H122.625C123.164 219.396 123.62 219.489 123.992 219.675C124.364 219.861 124.647 220.12 124.84 220.45C125.033 220.776 125.129 221.15 125.129 221.572C125.129 222.029 125.033 222.42 124.84 222.743C124.647 223.066 124.364 223.313 123.992 223.483C123.62 223.65 123.164 223.733 122.625 223.733ZM127.653 219.396V226.531H126.707V219.396H127.653ZM135.175 219.396V226.531H134.225L130.632 221.028V226.531H129.687V219.396H130.632L134.239 224.914V219.396H135.175ZM138.998 224.522H138.086C138.09 224.208 138.117 223.952 138.17 223.753C138.225 223.55 138.315 223.365 138.439 223.199C138.563 223.032 138.728 222.843 138.934 222.63C139.084 222.477 139.222 222.333 139.346 222.199C139.473 222.062 139.576 221.915 139.654 221.758C139.733 221.598 139.772 221.407 139.772 221.185C139.772 220.959 139.731 220.765 139.65 220.601C139.571 220.438 139.454 220.312 139.297 220.224C139.143 220.136 138.952 220.092 138.723 220.092C138.534 220.092 138.354 220.126 138.184 220.195C138.014 220.263 137.877 220.369 137.773 220.513C137.668 220.654 137.614 220.838 137.611 221.067H136.704C136.711 220.698 136.802 220.381 136.979 220.116C137.158 219.852 137.4 219.649 137.704 219.509C138.008 219.368 138.348 219.298 138.723 219.298C139.138 219.298 139.491 219.373 139.782 219.523C140.076 219.674 140.3 219.889 140.453 220.17C140.607 220.448 140.684 220.778 140.684 221.16C140.684 221.454 140.623 221.725 140.502 221.974C140.385 222.219 140.233 222.449 140.047 222.665C139.86 222.88 139.663 223.086 139.454 223.282C139.274 223.449 139.153 223.637 139.091 223.846C139.029 224.055 138.998 224.28 138.998 224.522ZM138.047 226.075C138.047 225.928 138.093 225.804 138.184 225.703C138.276 225.602 138.408 225.551 138.581 225.551C138.758 225.551 138.892 225.602 138.983 225.703C139.075 225.804 139.12 225.928 139.12 226.075C139.12 226.216 139.075 226.337 138.983 226.438C138.892 226.539 138.758 226.59 138.581 226.59C138.408 226.59 138.276 226.539 138.184 226.438C138.093 226.337 138.047 226.216 138.047 226.075Z" fill="black"/>
</g>
<defs>
<clipPath id="clip0_258_10200">
<rect width="225.822" height="501.827" fill="white"/>
</clipPath>
</defs>
</svg>
