<svg width="222" height="492" viewBox="0 0 222 492" fill="none" xmlns="http://www.w3.org/2000/svg">
<g clip-path="url(#clip0_267_12335)">
<rect width="221.342" height="491.87" fill="white"/>
<rect width="221.342" height="18.2661" fill="#F1F1F1"/>
<circle cx="18.8034" cy="9.67081" r="3.76066" fill="#C4C4C4"/>
<circle cx="190.719" cy="9.67081" r="3.76066" fill="#C4C4C4"/>
<rect x="199.852" y="6.44531" width="6.44684" height="6.44684" fill="#C4C4C4"/>
<path d="M177.825 12.8945L174.103 6.44769L181.547 6.44769L177.825 12.8945Z" fill="#C4C4C4"/>
<rect width="230.564" height="55.9502" transform="translate(-4.30347 443.297)" fill="white"/>
<rect x="-4.30347" y="443.297" width="230.564" height="0.614838" fill="#EDEDED"/>
<path d="M39.9051 454.825C39.7224 455.003 39.7181 455.295 39.8955 455.477C40.0729 455.66 40.3648 455.664 40.5476 455.487L41.9171 454.157V461.674C41.9171 461.929 42.1236 462.135 42.3783 462.135C42.6329 462.135 42.8394 461.929 42.8394 461.674V454.157L44.209 455.487C44.3917 455.664 44.6836 455.66 44.861 455.477C45.0384 455.295 45.0341 455.003 44.8514 454.825L42.6995 452.736C42.5206 452.562 42.2359 452.562 42.057 452.736L39.9051 454.825Z" fill="#F7931A"/>
<path d="M36.3836 460.584L35.0142 459.254C34.8315 459.077 34.5395 459.081 34.3621 459.264C34.1847 459.446 34.189 459.738 34.3717 459.916L36.5236 462.005C36.7026 462.179 36.9872 462.179 37.1661 462.005L39.318 459.916C39.5007 459.738 39.505 459.446 39.3276 459.264C39.1502 459.081 38.8583 459.077 38.6756 459.254L37.3059 460.584L37.3059 453.067C37.3059 452.812 37.0994 452.605 36.8447 452.605C36.5901 452.605 36.3836 452.812 36.3836 453.067V460.584Z" fill="#F7931A"/>
<path d="M19.522 471.423V476.668H18.8375V471.423H19.522ZM21.208 471.423V471.992H17.1551V471.423H21.208ZM22.5239 473.382V476.668H21.8574V472.77H22.5059L22.5239 473.382ZM23.7415 472.748L23.7379 473.368C23.6827 473.356 23.6299 473.349 23.5794 473.346C23.5314 473.342 23.4762 473.339 23.4137 473.339C23.26 473.339 23.1243 473.363 23.0066 473.411C22.8889 473.459 22.7893 473.527 22.7076 473.613C22.626 473.699 22.5611 473.803 22.5131 473.923C22.4674 474.04 22.4374 474.17 22.423 474.312L22.2357 474.42C22.2357 474.185 22.2585 473.964 22.3041 473.757C22.3522 473.551 22.4254 473.368 22.5239 473.21C22.6224 473.049 22.7472 472.924 22.8985 472.835C23.0523 472.744 23.2348 472.698 23.4461 472.698C23.4942 472.698 23.5494 472.704 23.6119 472.716C23.6743 472.726 23.7175 472.736 23.7415 472.748ZM26.7579 476.001V473.995C26.7579 473.841 26.7266 473.708 26.6642 473.595C26.6041 473.48 26.5129 473.391 26.3904 473.328C26.2679 473.266 26.1166 473.235 25.9365 473.235C25.7684 473.235 25.6206 473.264 25.4934 473.321C25.3685 473.379 25.27 473.454 25.1979 473.548C25.1283 473.642 25.0935 473.743 25.0935 473.851H24.427C24.427 473.711 24.463 473.573 24.5351 473.436C24.6071 473.3 24.7104 473.176 24.8449 473.065C24.9818 472.953 25.1451 472.864 25.3348 472.799C25.527 472.732 25.7407 472.698 25.9761 472.698C26.2595 472.698 26.5093 472.746 26.7254 472.842C26.944 472.938 27.1145 473.083 27.237 473.278C27.3619 473.47 27.4243 473.711 27.4243 474.002V475.818C27.4243 475.947 27.4351 476.086 27.4568 476.232C27.4808 476.379 27.5156 476.505 27.5612 476.61V476.668H26.8659C26.8323 476.591 26.8059 476.489 26.7867 476.362C26.7675 476.232 26.7579 476.112 26.7579 476.001ZM26.8731 474.305L26.8803 474.773H26.2067C26.0169 474.773 25.8476 474.789 25.6987 474.82C25.5498 474.849 25.4249 474.893 25.324 474.953C25.2232 475.013 25.1463 475.089 25.0935 475.18C25.0406 475.269 25.0142 475.373 25.0142 475.494C25.0142 475.616 25.0418 475.728 25.0971 475.829C25.1523 475.929 25.2352 476.01 25.3457 476.07C25.4585 476.128 25.5966 476.156 25.7599 476.156C25.9641 476.156 26.1442 476.113 26.3003 476.027C26.4564 475.94 26.5801 475.835 26.6714 475.71C26.7651 475.585 26.8155 475.464 26.8227 475.346L27.1073 475.666C27.0905 475.767 27.0449 475.879 26.9704 476.001C26.896 476.124 26.7963 476.242 26.6714 476.355C26.5489 476.465 26.4024 476.557 26.2319 476.632C26.0638 476.704 25.874 476.74 25.6627 476.74C25.3985 476.74 25.1667 476.688 24.9674 476.585C24.7704 476.482 24.6167 476.344 24.5063 476.171C24.3982 475.995 24.3441 475.8 24.3441 475.584C24.3441 475.375 24.385 475.191 24.4666 475.032C24.5483 474.871 24.666 474.738 24.8197 474.633C24.9734 474.524 25.1583 474.443 25.3745 474.388C25.5906 474.332 25.832 474.305 26.0986 474.305H26.8731ZM29.3851 473.602V476.668H28.7186V472.77H29.3491L29.3851 473.602ZM29.2266 474.571L28.9492 474.56C28.9516 474.294 28.9912 474.048 29.0681 473.822C29.1449 473.594 29.253 473.396 29.3923 473.228C29.5316 473.059 29.6973 472.93 29.8894 472.838C30.084 472.745 30.2989 472.698 30.5343 472.698C30.7264 472.698 30.8994 472.724 31.0531 472.777C31.2068 472.828 31.3377 472.909 31.4458 473.022C31.5562 473.135 31.6403 473.282 31.6979 473.462C31.7556 473.639 31.7844 473.857 31.7844 474.114V476.668H31.1143V474.107C31.1143 473.902 31.0843 473.739 31.0243 473.617C30.9642 473.492 30.8766 473.402 30.7613 473.346C30.646 473.289 30.5043 473.26 30.3362 473.26C30.1704 473.26 30.0191 473.295 29.8822 473.364C29.7477 473.434 29.6313 473.53 29.5328 473.653C29.4367 473.775 29.3611 473.916 29.3058 474.074C29.253 474.23 29.2266 474.396 29.2266 474.571ZM35.3123 475.634C35.3123 475.538 35.2907 475.449 35.2474 475.367C35.2066 475.283 35.1213 475.208 34.9916 475.14C34.8644 475.071 34.6722 475.011 34.4152 474.96C34.1991 474.915 34.0033 474.861 33.828 474.798C33.6551 474.736 33.5074 474.66 33.3849 474.571C33.2648 474.482 33.1723 474.378 33.1075 474.258C33.0427 474.138 33.0102 473.997 33.0102 473.836C33.0102 473.683 33.0439 473.537 33.1111 473.4C33.1808 473.264 33.278 473.142 33.4029 473.037C33.5302 472.931 33.6827 472.848 33.8604 472.788C34.0382 472.728 34.2363 472.698 34.4549 472.698C34.7671 472.698 35.0337 472.753 35.2546 472.864C35.4756 472.974 35.6449 473.122 35.7626 473.307C35.8803 473.489 35.9391 473.692 35.9391 473.916H35.2726C35.2726 473.808 35.2402 473.703 35.1754 473.602C35.1129 473.499 35.0205 473.414 34.898 473.346C34.7779 473.279 34.6302 473.246 34.4549 473.246C34.2699 473.246 34.1198 473.274 34.0045 473.332C33.8917 473.387 33.8088 473.458 33.756 473.545C33.7055 473.631 33.6803 473.722 33.6803 473.818C33.6803 473.89 33.6923 473.955 33.7163 474.013C33.7428 474.068 33.7884 474.12 33.8532 474.168C33.9181 474.213 34.0093 474.257 34.127 474.297C34.2447 474.338 34.3948 474.379 34.5773 474.42C34.8968 474.492 35.1598 474.578 35.3663 474.679C35.5729 474.78 35.7266 474.904 35.8274 475.05C35.9283 475.197 35.9787 475.375 35.9787 475.584C35.9787 475.754 35.9427 475.91 35.8707 476.052C35.801 476.194 35.6989 476.316 35.5644 476.419C35.4324 476.52 35.2738 476.6 35.0889 476.657C34.9064 476.712 34.701 476.74 34.4729 476.74C34.1294 476.74 33.8388 476.679 33.6011 476.556C33.3633 476.434 33.1832 476.275 33.0607 476.081C32.9382 475.886 32.8769 475.681 32.8769 475.465H33.547C33.5566 475.647 33.6095 475.793 33.7055 475.901C33.8016 476.006 33.9193 476.082 34.0586 476.128C34.1979 476.171 34.336 476.192 34.4729 476.192C34.6554 476.192 34.8079 476.168 34.9304 476.12C35.0553 476.072 35.1502 476.006 35.215 475.922C35.2798 475.838 35.3123 475.742 35.3123 475.634ZM39.3985 476.001V473.995C39.3985 473.841 39.3673 473.708 39.3049 473.595C39.2448 473.48 39.1536 473.391 39.0311 473.328C38.9086 473.266 38.7573 473.235 38.5772 473.235C38.409 473.235 38.2613 473.264 38.134 473.321C38.0092 473.379 37.9107 473.454 37.8386 473.548C37.769 473.642 37.7342 473.743 37.7342 473.851H37.0677C37.0677 473.711 37.1037 473.573 37.1758 473.436C37.2478 473.3 37.3511 473.176 37.4856 473.065C37.6225 472.953 37.7858 472.864 37.9755 472.799C38.1677 472.732 38.3814 472.698 38.6168 472.698C38.9002 472.698 39.15 472.746 39.3661 472.842C39.5847 472.938 39.7552 473.083 39.8777 473.278C40.0026 473.47 40.065 473.711 40.065 474.002V475.818C40.065 475.947 40.0758 476.086 40.0974 476.232C40.1215 476.379 40.1563 476.505 40.2019 476.61V476.668H39.5066C39.473 476.591 39.4466 476.489 39.4274 476.362C39.4081 476.232 39.3985 476.112 39.3985 476.001ZM39.5138 474.305L39.521 474.773H38.8473C38.6576 474.773 38.4883 474.789 38.3394 474.82C38.1905 474.849 38.0656 474.893 37.9647 474.953C37.8638 475.013 37.787 475.089 37.7342 475.18C37.6813 475.269 37.6549 475.373 37.6549 475.494C37.6549 475.616 37.6825 475.728 37.7378 475.829C37.793 475.929 37.8759 476.01 37.9863 476.07C38.0992 476.128 38.2373 476.156 38.4006 476.156C38.6048 476.156 38.7849 476.113 38.941 476.027C39.0971 475.94 39.2208 475.835 39.3121 475.71C39.4057 475.585 39.4562 475.464 39.4634 475.346L39.748 475.666C39.7312 475.767 39.6855 475.879 39.6111 476.001C39.5366 476.124 39.437 476.242 39.3121 476.355C39.1896 476.465 39.0431 476.557 38.8726 476.632C38.7044 476.704 38.5147 476.74 38.3034 476.74C38.0392 476.74 37.8074 476.688 37.6081 476.585C37.4111 476.482 37.2574 476.344 37.1469 476.171C37.0389 475.995 36.9848 475.8 36.9848 475.584C36.9848 475.375 37.0257 475.191 37.1073 475.032C37.189 474.871 37.3067 474.738 37.4604 474.633C37.6141 474.524 37.799 474.443 38.0152 474.388C38.2313 474.332 38.4727 474.305 38.7393 474.305H39.5138ZM42.9192 476.192C43.0777 476.192 43.2242 476.16 43.3587 476.095C43.4932 476.03 43.6037 475.941 43.6902 475.829C43.7766 475.713 43.8259 475.582 43.8379 475.436H44.4719C44.4599 475.666 44.3818 475.881 44.2377 476.081C44.096 476.278 43.9099 476.437 43.6793 476.56C43.4488 476.68 43.1954 476.74 42.9192 476.74C42.6262 476.74 42.3704 476.688 42.1519 476.585C41.9357 476.482 41.7556 476.34 41.6115 476.16C41.4698 475.98 41.3629 475.773 41.2908 475.54C41.2212 475.305 41.1864 475.056 41.1864 474.795V474.643C41.1864 474.382 41.2212 474.134 41.2908 473.901C41.3629 473.666 41.4698 473.458 41.6115 473.278C41.7556 473.098 41.9357 472.956 42.1519 472.853C42.3704 472.75 42.6262 472.698 42.9192 472.698C43.2242 472.698 43.4908 472.76 43.719 472.885C43.9471 473.008 44.1261 473.176 44.2558 473.39C44.3879 473.601 44.4599 473.841 44.4719 474.11H43.8379C43.8259 473.949 43.7802 473.804 43.701 473.674C43.6241 473.545 43.5184 473.441 43.3839 473.364C43.2518 473.285 43.0969 473.246 42.9192 473.246C42.7151 473.246 42.5433 473.286 42.404 473.368C42.2671 473.447 42.1579 473.555 42.0762 473.692C41.997 473.827 41.9393 473.977 41.9033 474.143C41.8697 474.306 41.8528 474.473 41.8528 474.643V474.795C41.8528 474.965 41.8697 475.133 41.9033 475.299C41.9369 475.465 41.9933 475.615 42.0726 475.749C42.1543 475.884 42.2635 475.992 42.4004 476.074C42.5397 476.153 42.7127 476.192 42.9192 476.192ZM47.0991 472.77V473.282H44.9916V472.77H47.0991ZM45.705 471.823H46.3714V475.702C46.3714 475.835 46.3918 475.934 46.4327 476.001C46.4735 476.069 46.5263 476.113 46.5912 476.135C46.656 476.156 46.7257 476.167 46.8001 476.167C46.8554 476.167 46.913 476.162 46.9731 476.153C47.0355 476.141 47.0823 476.131 47.1136 476.124L47.1172 476.668C47.0643 476.685 46.9947 476.7 46.9082 476.715C46.8241 476.732 46.7221 476.74 46.602 476.74C46.4387 476.74 46.2886 476.708 46.1517 476.643C46.0148 476.578 45.9055 476.47 45.8238 476.319C45.7446 476.165 45.705 475.958 45.705 475.699V471.823ZM48.851 472.77V476.668H48.1809V472.77H48.851ZM48.1304 471.736C48.1304 471.628 48.1629 471.537 48.2277 471.462C48.295 471.388 48.3934 471.351 48.5231 471.351C48.6504 471.351 48.7477 471.388 48.8149 471.462C48.8846 471.537 48.9194 471.628 48.9194 471.736C48.9194 471.839 48.8846 471.928 48.8149 472.003C48.7477 472.075 48.6504 472.111 48.5231 472.111C48.3934 472.111 48.295 472.075 48.2277 472.003C48.1629 471.928 48.1304 471.839 48.1304 471.736ZM49.9903 474.762V474.679C49.9903 474.398 50.0312 474.138 50.1128 473.898C50.1945 473.655 50.3122 473.445 50.4659 473.267C50.6196 473.087 50.8057 472.948 51.0243 472.849C51.2428 472.748 51.4878 472.698 51.7592 472.698C52.033 472.698 52.2792 472.748 52.4977 472.849C52.7187 472.948 52.906 473.087 53.0597 473.267C53.2158 473.445 53.3347 473.655 53.4164 473.898C53.498 474.138 53.5389 474.398 53.5389 474.679V474.762C53.5389 475.043 53.498 475.304 53.4164 475.544C53.3347 475.784 53.2158 475.994 53.0597 476.174C52.906 476.352 52.7199 476.491 52.5013 476.592C52.2852 476.691 52.0402 476.74 51.7664 476.74C51.4926 476.74 51.2464 476.691 51.0279 476.592C50.8093 476.491 50.622 476.352 50.4659 476.174C50.3122 475.994 50.1945 475.784 50.1128 475.544C50.0312 475.304 49.9903 475.043 49.9903 474.762ZM50.6568 474.679V474.762C50.6568 474.957 50.6796 475.14 50.7252 475.313C50.7709 475.484 50.8393 475.635 50.9306 475.767C51.0243 475.899 51.1407 476.004 51.28 476.081C51.4193 476.155 51.5815 476.192 51.7664 476.192C51.9489 476.192 52.1086 476.155 52.2455 476.081C52.3848 476.004 52.5001 475.899 52.5914 475.767C52.6826 475.635 52.7511 475.484 52.7967 475.313C52.8448 475.14 52.8688 474.957 52.8688 474.762V474.679C52.8688 474.487 52.8448 474.306 52.7967 474.135C52.7511 473.962 52.6814 473.81 52.5878 473.678C52.4965 473.543 52.3812 473.438 52.2419 473.361C52.105 473.284 51.9441 473.246 51.7592 473.246C51.5767 473.246 51.4157 473.284 51.2764 473.361C51.1395 473.438 51.0243 473.543 50.9306 473.678C50.8393 473.81 50.7709 473.962 50.7252 474.135C50.6796 474.306 50.6568 474.487 50.6568 474.679ZM55.2871 473.602V476.668H54.6206V472.77H55.251L55.2871 473.602ZM55.1285 474.571L54.8511 474.56C54.8535 474.294 54.8932 474.048 54.97 473.822C55.0469 473.594 55.155 473.396 55.2943 473.228C55.4336 473.059 55.5993 472.93 55.7914 472.838C55.986 472.745 56.2009 472.698 56.4363 472.698C56.6284 472.698 56.8013 472.724 56.955 472.777C57.1088 472.828 57.2396 472.909 57.3477 473.022C57.4582 473.135 57.5423 473.282 57.5999 473.462C57.6575 473.639 57.6864 473.857 57.6864 474.114V476.668H57.0163V474.107C57.0163 473.902 56.9863 473.739 56.9262 473.617C56.8662 473.492 56.7785 473.402 56.6632 473.346C56.548 473.289 56.4063 473.26 56.2381 473.26C56.0724 473.26 55.9211 473.295 55.7842 473.364C55.6497 473.434 55.5332 473.53 55.4348 473.653C55.3387 473.775 55.263 473.916 55.2078 474.074C55.155 474.23 55.1285 474.396 55.1285 474.571ZM61.2142 475.634C61.2142 475.538 61.1926 475.449 61.1494 475.367C61.1086 475.283 61.0233 475.208 60.8936 475.14C60.7663 475.071 60.5742 475.011 60.3172 474.96C60.101 474.915 59.9053 474.861 59.73 474.798C59.5571 474.736 59.4094 474.66 59.2869 474.571C59.1668 474.482 59.0743 474.378 59.0095 474.258C58.9446 474.138 58.9122 473.997 58.9122 473.836C58.9122 473.683 58.9458 473.537 59.0131 473.4C59.0827 473.264 59.18 473.142 59.3049 473.037C59.4322 472.931 59.5847 472.848 59.7624 472.788C59.9401 472.728 60.1383 472.698 60.3568 472.698C60.6691 472.698 60.9356 472.753 61.1566 472.864C61.3776 472.974 61.5469 473.122 61.6646 473.307C61.7822 473.489 61.8411 473.692 61.8411 473.916H61.1746C61.1746 473.808 61.1422 473.703 61.0773 473.602C61.0149 473.499 60.9224 473.414 60.7999 473.346C60.6799 473.279 60.5322 473.246 60.3568 473.246C60.1719 473.246 60.0218 473.274 59.9065 473.332C59.7936 473.387 59.7108 473.458 59.6579 473.545C59.6075 473.631 59.5823 473.722 59.5823 473.818C59.5823 473.89 59.5943 473.955 59.6183 474.013C59.6447 474.068 59.6904 474.12 59.7552 474.168C59.82 474.213 59.9113 474.257 60.029 474.297C60.1467 474.338 60.2968 474.379 60.4793 474.42C60.7987 474.492 61.0617 474.578 61.2683 474.679C61.4748 474.78 61.6285 474.904 61.7294 475.05C61.8303 475.197 61.8807 475.375 61.8807 475.584C61.8807 475.754 61.8447 475.91 61.7726 476.052C61.703 476.194 61.6009 476.316 61.4664 476.419C61.3343 476.52 61.1758 476.6 60.9909 476.657C60.8083 476.712 60.603 476.74 60.3748 476.74C60.0314 476.74 59.7408 476.679 59.503 476.556C59.2653 476.434 59.0851 476.275 58.9626 476.081C58.8401 475.886 58.7789 475.681 58.7789 475.465H59.449C59.4586 475.647 59.5114 475.793 59.6075 475.901C59.7036 476.006 59.8212 476.082 59.9605 476.128C60.0998 476.171 60.2379 476.192 60.3748 476.192C60.5574 476.192 60.7099 476.168 60.8324 476.12C60.9573 476.072 61.0521 476.006 61.117 475.922C61.1818 475.838 61.2142 475.742 61.2142 475.634Z" fill="#F7931A"/>
<path d="M107.244 454.602C107.244 455.111 106.831 455.524 106.322 455.524C105.812 455.524 105.399 455.111 105.399 454.602C105.399 454.093 105.812 453.68 106.322 453.68C106.831 453.68 107.244 454.093 107.244 454.602Z" fill="#777777"/>
<path d="M107.859 453.987C107.859 453.817 107.996 453.68 108.166 453.68H114.929C115.099 453.68 115.237 453.817 115.237 453.987C115.237 454.157 115.099 454.295 114.929 454.295H108.166C107.996 454.295 107.859 454.157 107.859 453.987Z" fill="#777777"/>
<path d="M108.166 454.909C107.996 454.909 107.859 455.047 107.859 455.217C107.859 455.387 107.996 455.524 108.166 455.524H111.855C112.025 455.524 112.163 455.387 112.163 455.217C112.163 455.047 112.025 454.909 111.855 454.909H108.166Z" fill="#777777"/>
<path d="M107.244 457.369C107.244 457.878 106.831 458.291 106.322 458.291C105.812 458.291 105.399 457.878 105.399 457.369C105.399 456.859 105.812 456.446 106.322 456.446C106.831 456.446 107.244 456.859 107.244 457.369Z" fill="#777777"/>
<path d="M108.166 456.446C107.996 456.446 107.859 456.584 107.859 456.754C107.859 456.924 107.996 457.061 108.166 457.061H113.085C113.255 457.061 113.392 456.924 113.392 456.754C113.392 456.584 113.255 456.446 113.085 456.446H108.166Z" fill="#777777"/>
<path d="M107.859 457.984C107.859 457.814 107.996 457.676 108.166 457.676H112.47C112.64 457.676 112.777 457.814 112.777 457.984C112.777 458.153 112.64 458.291 112.47 458.291H108.166C107.996 458.291 107.859 458.153 107.859 457.984Z" fill="#777777"/>
<path d="M106.322 461.058C106.831 461.058 107.244 460.645 107.244 460.135C107.244 459.626 106.831 459.213 106.322 459.213C105.812 459.213 105.399 459.626 105.399 460.135C105.399 460.645 105.812 461.058 106.322 461.058Z" fill="#777777"/>
<path d="M107.859 459.521C107.859 459.351 107.996 459.213 108.166 459.213H114.007C114.177 459.213 114.314 459.351 114.314 459.521C114.314 459.69 114.177 459.828 114.007 459.828H108.166C107.996 459.828 107.859 459.69 107.859 459.521Z" fill="#777777"/>
<path d="M108.166 460.443C107.996 460.443 107.859 460.581 107.859 460.75C107.859 460.92 107.996 461.058 108.166 461.058H110.625C110.795 461.058 110.933 460.92 110.933 460.75C110.933 460.581 110.795 460.443 110.625 460.443H108.166Z" fill="#777777"/>
<path d="M99.9284 471.887L98.192 476.668H97.4823L99.4817 471.423H99.9392L99.9284 471.887ZM101.384 476.668L99.6438 471.887L99.633 471.423H100.091L102.097 476.668H101.384ZM101.294 474.726V475.295H98.3469V474.726H101.294ZM104.505 476.192C104.663 476.192 104.81 476.16 104.944 476.095C105.079 476.03 105.189 475.941 105.276 475.829C105.362 475.713 105.411 475.582 105.423 475.436H106.057C106.045 475.666 105.967 475.881 105.823 476.081C105.681 476.278 105.495 476.437 105.265 476.56C105.034 476.68 104.781 476.74 104.505 476.74C104.212 476.74 103.956 476.688 103.737 476.585C103.521 476.482 103.341 476.34 103.197 476.16C103.055 475.98 102.948 475.773 102.876 475.54C102.807 475.305 102.772 475.056 102.772 474.795V474.643C102.772 474.382 102.807 474.134 102.876 473.901C102.948 473.666 103.055 473.458 103.197 473.278C103.341 473.098 103.521 472.956 103.737 472.853C103.956 472.75 104.212 472.698 104.505 472.698C104.81 472.698 105.076 472.76 105.304 472.885C105.533 473.008 105.712 473.176 105.841 473.39C105.973 473.601 106.045 473.841 106.057 474.11H105.423C105.411 473.949 105.366 473.804 105.286 473.674C105.21 473.545 105.104 473.441 104.969 473.364C104.837 473.285 104.682 473.246 104.505 473.246C104.301 473.246 104.129 473.286 103.989 473.368C103.853 473.447 103.743 473.555 103.662 473.692C103.582 473.827 103.525 473.977 103.489 474.143C103.455 474.306 103.438 474.473 103.438 474.643V474.795C103.438 474.965 103.455 475.133 103.489 475.299C103.522 475.465 103.579 475.615 103.658 475.749C103.74 475.884 103.849 475.992 103.986 476.074C104.125 476.153 104.298 476.192 104.505 476.192ZM108.685 472.77V473.282H106.577V472.77H108.685ZM107.29 471.823H107.957V475.702C107.957 475.835 107.977 475.934 108.018 476.001C108.059 476.069 108.112 476.113 108.177 476.135C108.241 476.156 108.311 476.167 108.386 476.167C108.441 476.167 108.498 476.162 108.558 476.153C108.621 476.141 108.668 476.131 108.699 476.124L108.703 476.668C108.65 476.685 108.58 476.7 108.494 476.715C108.41 476.732 108.308 476.74 108.187 476.74C108.024 476.74 107.874 476.708 107.737 476.643C107.6 476.578 107.491 476.47 107.409 476.319C107.33 476.165 107.29 475.958 107.29 475.699V471.823ZM110.436 472.77V476.668H109.766V472.77H110.436ZM109.716 471.736C109.716 471.628 109.748 471.537 109.813 471.462C109.88 471.388 109.979 471.351 110.109 471.351C110.236 471.351 110.333 471.388 110.4 471.462C110.47 471.537 110.505 471.628 110.505 471.736C110.505 471.839 110.47 471.928 110.4 472.003C110.333 472.075 110.236 472.111 110.109 472.111C109.979 472.111 109.88 472.075 109.813 472.003C109.748 471.928 109.716 471.839 109.716 471.736ZM112.938 476.066L114.004 472.77H114.685L113.283 476.668H112.837L112.938 476.066ZM112.048 472.77L113.146 476.084L113.222 476.668H112.775L111.363 472.77H112.048ZM116.296 472.77V476.668H115.626V472.77H116.296ZM115.576 471.736C115.576 471.628 115.608 471.537 115.673 471.462C115.74 471.388 115.839 471.351 115.968 471.351C116.096 471.351 116.193 471.388 116.26 471.462C116.33 471.537 116.365 471.628 116.365 471.736C116.365 471.839 116.33 471.928 116.26 472.003C116.193 472.075 116.096 472.111 115.968 472.111C115.839 472.111 115.74 472.075 115.673 472.003C115.608 471.928 115.576 471.839 115.576 471.736ZM119.244 472.77V473.282H117.136V472.77H119.244ZM117.85 471.823H118.516V475.702C118.516 475.835 118.537 475.934 118.577 476.001C118.618 476.069 118.671 476.113 118.736 476.135C118.801 476.156 118.87 476.167 118.945 476.167C119 476.167 119.058 476.162 119.118 476.153C119.18 476.141 119.227 476.131 119.258 476.124L119.262 476.668C119.209 476.685 119.139 476.7 119.053 476.715C118.969 476.732 118.867 476.74 118.747 476.74C118.583 476.74 118.433 476.708 118.296 476.643C118.16 476.578 118.05 476.47 117.969 476.319C117.889 476.165 117.85 475.958 117.85 475.699V471.823ZM121.367 476.264L122.451 472.77H123.165L121.601 477.27C121.565 477.366 121.517 477.469 121.457 477.579C121.399 477.692 121.325 477.799 121.234 477.9C121.142 478.001 121.032 478.083 120.902 478.145C120.775 478.21 120.622 478.242 120.445 478.242C120.392 478.242 120.324 478.235 120.243 478.221C120.161 478.206 120.104 478.194 120.07 478.185L120.066 477.644C120.086 477.647 120.116 477.649 120.156 477.651C120.2 477.656 120.23 477.659 120.246 477.659C120.398 477.659 120.526 477.638 120.632 477.597C120.738 477.559 120.826 477.493 120.898 477.399C120.973 477.308 121.037 477.182 121.089 477.021L121.367 476.264ZM120.571 472.77L121.583 475.796L121.756 476.499L121.277 476.744L119.843 472.77H120.571Z" fill="#777777"/>
<path fill-rule="evenodd" clip-rule="evenodd" d="M185.803 455.973L187.541 456.257C187.683 456.281 187.788 456.404 187.788 456.548V458.165C187.788 458.308 187.685 458.43 187.544 458.455L185.804 458.76C185.703 459.109 185.565 459.445 185.39 459.762L186.419 461.19C186.503 461.308 186.49 461.468 186.388 461.57L185.245 462.715C185.144 462.815 184.985 462.83 184.868 462.747L183.425 461.735C183.107 461.912 182.769 462.054 182.417 462.157L182.109 463.889C182.085 464.03 181.963 464.132 181.82 464.132H180.203C180.059 464.132 179.936 464.028 179.913 463.887L179.626 462.163C179.274 462.061 178.934 461.921 178.613 461.744L177.181 462.748C177.064 462.83 176.905 462.815 176.804 462.715L175.661 461.57C175.559 461.468 175.546 461.308 175.629 461.191L176.641 459.776C176.463 459.453 176.321 459.112 176.218 458.759L174.504 458.455C174.363 458.43 174.261 458.308 174.261 458.165V456.548C174.261 456.404 174.365 456.281 174.507 456.258L176.222 455.972C176.325 455.618 176.467 455.277 176.645 454.955L175.645 453.525C175.563 453.408 175.577 453.249 175.678 453.148L176.821 452.005C176.923 451.904 177.083 451.89 177.2 451.974L178.621 452.989C178.94 452.814 179.278 452.675 179.631 452.574L179.912 450.852C179.936 450.71 180.059 450.605 180.203 450.605H181.82C181.963 450.605 182.085 450.708 182.11 450.849L182.413 452.58C182.764 452.682 183.102 452.822 183.422 452.999L184.846 451.976C184.964 451.891 185.124 451.905 185.226 452.006L186.37 453.149C186.471 453.25 186.485 453.41 186.403 453.526L185.388 454.972C185.562 455.289 185.701 455.625 185.803 455.973ZM178.966 457.369C178.966 458.505 179.887 459.427 181.024 459.427C182.161 459.427 183.083 458.505 183.083 457.369C183.083 456.232 182.161 455.31 181.024 455.31C179.887 455.31 178.966 456.232 178.966 457.369Z" fill="#777777"/>
<path d="M170.094 475.342C170.094 475.22 170.075 475.112 170.037 475.018C170.001 474.922 169.936 474.835 169.842 474.759C169.751 474.682 169.624 474.609 169.46 474.539C169.299 474.469 169.095 474.398 168.848 474.326C168.588 474.249 168.354 474.164 168.145 474.071C167.936 473.974 167.757 473.865 167.609 473.743C167.46 473.62 167.346 473.48 167.266 473.321C167.187 473.163 167.147 472.981 167.147 472.777C167.147 472.573 167.189 472.385 167.274 472.212C167.358 472.039 167.478 471.889 167.634 471.761C167.792 471.632 167.981 471.531 168.199 471.459C168.418 471.387 168.662 471.351 168.931 471.351C169.325 471.351 169.658 471.426 169.932 471.578C170.208 471.726 170.419 471.922 170.563 472.165C170.707 472.405 170.779 472.662 170.779 472.936H170.087C170.087 472.739 170.045 472.565 169.961 472.413C169.877 472.26 169.75 472.14 169.579 472.053C169.409 471.964 169.193 471.92 168.931 471.92C168.683 471.92 168.479 471.957 168.318 472.031C168.157 472.106 168.037 472.207 167.958 472.334C167.881 472.461 167.843 472.607 167.843 472.77C167.843 472.88 167.866 472.981 167.911 473.073C167.959 473.161 168.032 473.244 168.131 473.321C168.232 473.398 168.359 473.469 168.513 473.534C168.669 473.599 168.855 473.661 169.071 473.721C169.369 473.805 169.626 473.899 169.842 474.002C170.058 474.105 170.236 474.222 170.375 474.352C170.517 474.479 170.622 474.624 170.689 474.787C170.758 474.948 170.793 475.131 170.793 475.335C170.793 475.549 170.75 475.742 170.664 475.915C170.577 476.088 170.453 476.236 170.292 476.358C170.132 476.481 169.938 476.576 169.712 476.643C169.489 476.708 169.239 476.74 168.963 476.74C168.721 476.74 168.482 476.706 168.246 476.639C168.013 476.572 167.801 476.471 167.609 476.337C167.419 476.202 167.266 476.036 167.151 475.839C167.038 475.64 166.982 475.409 166.982 475.148H167.673C167.673 475.328 167.708 475.483 167.778 475.612C167.848 475.74 167.942 475.845 168.063 475.929C168.185 476.014 168.323 476.076 168.477 476.117C168.633 476.155 168.795 476.174 168.963 476.174C169.206 476.174 169.411 476.141 169.579 476.074C169.747 476.006 169.875 475.91 169.961 475.785C170.05 475.66 170.094 475.513 170.094 475.342ZM173.442 476.74C173.171 476.74 172.925 476.694 172.704 476.603C172.485 476.509 172.296 476.379 172.138 476.21C171.982 476.042 171.862 475.843 171.778 475.612C171.694 475.382 171.652 475.13 171.652 474.856V474.705C171.652 474.388 171.698 474.105 171.792 473.858C171.886 473.608 172.013 473.397 172.174 473.224C172.335 473.051 172.517 472.92 172.722 472.831C172.926 472.742 173.137 472.698 173.356 472.698C173.634 472.698 173.874 472.746 174.076 472.842C174.28 472.938 174.447 473.073 174.577 473.246C174.707 473.416 174.803 473.618 174.865 473.851C174.928 474.081 174.959 474.334 174.959 474.607V474.906H172.048V474.362H174.292V474.312C174.283 474.139 174.247 473.971 174.184 473.808C174.124 473.644 174.028 473.51 173.896 473.404C173.764 473.298 173.584 473.246 173.356 473.246C173.204 473.246 173.065 473.278 172.938 473.343C172.81 473.405 172.701 473.499 172.61 473.624C172.519 473.749 172.448 473.901 172.397 474.081C172.347 474.261 172.322 474.469 172.322 474.705V474.856C172.322 475.041 172.347 475.215 172.397 475.378C172.45 475.539 172.526 475.681 172.624 475.803C172.725 475.926 172.846 476.022 172.988 476.092C173.132 476.161 173.296 476.196 173.478 476.196C173.713 476.196 173.913 476.148 174.076 476.052C174.239 475.956 174.382 475.827 174.505 475.666L174.908 475.987C174.824 476.114 174.717 476.236 174.588 476.351C174.458 476.466 174.298 476.56 174.109 476.632C173.921 476.704 173.699 476.74 173.442 476.74ZM177.615 472.77V473.282H175.507V472.77H177.615ZM176.221 471.823H176.887V475.702C176.887 475.835 176.908 475.934 176.948 476.001C176.989 476.069 177.042 476.113 177.107 476.135C177.172 476.156 177.241 476.167 177.316 476.167C177.371 476.167 177.429 476.162 177.489 476.153C177.551 476.141 177.598 476.131 177.629 476.124L177.633 476.668C177.58 476.685 177.51 476.7 177.424 476.715C177.34 476.732 177.238 476.74 177.118 476.74C176.954 476.74 176.804 476.708 176.667 476.643C176.53 476.578 176.421 476.47 176.34 476.319C176.26 476.165 176.221 475.958 176.221 475.699V471.823ZM180.274 472.77V473.282H178.167V472.77H180.274ZM178.88 471.823H179.547V475.702C179.547 475.835 179.567 475.934 179.608 476.001C179.649 476.069 179.702 476.113 179.767 476.135C179.831 476.156 179.901 476.167 179.975 476.167C180.031 476.167 180.088 476.162 180.148 476.153C180.211 476.141 180.258 476.131 180.289 476.124L180.292 476.668C180.24 476.685 180.17 476.7 180.084 476.715C179.999 476.732 179.897 476.74 179.777 476.74C179.614 476.74 179.464 476.708 179.327 476.643C179.19 476.578 179.081 476.47 178.999 476.319C178.92 476.165 178.88 475.958 178.88 475.699V471.823ZM182.026 472.77V476.668H181.356V472.77H182.026ZM181.306 471.736C181.306 471.628 181.338 471.537 181.403 471.462C181.47 471.388 181.569 471.351 181.698 471.351C181.826 471.351 181.923 471.388 181.99 471.462C182.06 471.537 182.095 471.628 182.095 471.736C182.095 471.839 182.06 471.928 181.99 472.003C181.923 472.075 181.826 472.111 181.698 472.111C181.569 472.111 181.47 472.075 181.403 472.003C181.338 471.928 181.306 471.839 181.306 471.736ZM184.009 473.602V476.668H183.342V472.77H183.973L184.009 473.602ZM183.85 474.571L183.573 474.56C183.575 474.294 183.615 474.048 183.692 473.822C183.768 473.594 183.877 473.396 184.016 473.228C184.155 473.059 184.321 472.93 184.513 472.838C184.708 472.745 184.923 472.698 185.158 472.698C185.35 472.698 185.523 472.724 185.677 472.777C185.83 472.828 185.961 472.909 186.069 473.022C186.18 473.135 186.264 473.282 186.322 473.462C186.379 473.639 186.408 473.857 186.408 474.114V476.668H185.738V474.107C185.738 473.902 185.708 473.739 185.648 473.617C185.588 473.492 185.5 473.402 185.385 473.346C185.27 473.289 185.128 473.26 184.96 473.26C184.794 473.26 184.643 473.295 184.506 473.364C184.371 473.434 184.255 473.53 184.156 473.653C184.06 473.775 183.985 473.916 183.929 474.074C183.877 474.23 183.85 474.396 183.85 474.571ZM190.192 472.77H190.797V476.585C190.797 476.929 190.727 477.222 190.588 477.464C190.449 477.707 190.254 477.89 190.004 478.015C189.757 478.143 189.471 478.206 189.147 478.206C189.012 478.206 188.854 478.185 188.671 478.141C188.491 478.101 188.313 478.03 188.138 477.929C187.965 477.83 187.82 477.697 187.702 477.529L188.052 477.133C188.215 477.33 188.386 477.467 188.563 477.543C188.743 477.62 188.921 477.659 189.096 477.659C189.308 477.659 189.49 477.619 189.644 477.54C189.798 477.461 189.917 477.343 190.001 477.187C190.087 477.033 190.13 476.843 190.13 476.618V473.627L190.192 472.77ZM187.508 474.762V474.687C187.508 474.389 187.543 474.119 187.612 473.876C187.684 473.631 187.786 473.421 187.918 473.246C188.053 473.07 188.215 472.936 188.405 472.842C188.594 472.746 188.808 472.698 189.046 472.698C189.291 472.698 189.505 472.741 189.687 472.828C189.872 472.912 190.028 473.035 190.156 473.199C190.285 473.36 190.387 473.554 190.462 473.782C190.536 474.01 190.588 474.269 190.617 474.557V474.888C190.59 475.174 190.539 475.431 190.462 475.659C190.387 475.887 190.285 476.082 190.156 476.243C190.028 476.404 189.872 476.527 189.687 476.614C189.502 476.698 189.286 476.74 189.039 476.74C188.806 476.74 188.594 476.691 188.405 476.592C188.217 476.494 188.057 476.356 187.922 476.178C187.788 476 187.684 475.791 187.612 475.551C187.543 475.309 187.508 475.046 187.508 474.762ZM188.174 474.687V474.762C188.174 474.957 188.193 475.139 188.232 475.31C188.273 475.48 188.334 475.63 188.416 475.76C188.5 475.89 188.606 475.992 188.736 476.066C188.866 476.138 189.021 476.174 189.201 476.174C189.422 476.174 189.604 476.128 189.749 476.034C189.893 475.94 190.007 475.817 190.091 475.663C190.177 475.509 190.244 475.342 190.292 475.162V474.294C190.266 474.162 190.225 474.034 190.17 473.912C190.117 473.787 190.048 473.677 189.961 473.581C189.877 473.482 189.773 473.404 189.648 473.346C189.523 473.289 189.376 473.26 189.208 473.26C189.026 473.26 188.868 473.298 188.736 473.375C188.606 473.45 188.5 473.553 188.416 473.685C188.334 473.815 188.273 473.966 188.232 474.139C188.193 474.309 188.174 474.492 188.174 474.687ZM194.325 475.634C194.325 475.538 194.303 475.449 194.26 475.367C194.219 475.283 194.134 475.208 194.004 475.14C193.877 475.071 193.685 475.011 193.428 474.96C193.212 474.915 193.016 474.861 192.84 474.798C192.668 474.736 192.52 474.66 192.397 474.571C192.277 474.482 192.185 474.378 192.12 474.258C192.055 474.138 192.023 473.997 192.023 473.836C192.023 473.683 192.056 473.537 192.124 473.4C192.193 473.264 192.29 473.142 192.415 473.037C192.543 472.931 192.695 472.848 192.873 472.788C193.051 472.728 193.249 472.698 193.467 472.698C193.78 472.698 194.046 472.753 194.267 472.864C194.488 472.974 194.657 473.122 194.775 473.307C194.893 473.489 194.952 473.692 194.952 473.916H194.285C194.285 473.808 194.253 473.703 194.188 473.602C194.125 473.499 194.033 473.414 193.91 473.346C193.79 473.279 193.643 473.246 193.467 473.246C193.282 473.246 193.132 473.274 193.017 473.332C192.904 473.387 192.821 473.458 192.768 473.545C192.718 473.631 192.693 473.722 192.693 473.818C192.693 473.89 192.705 473.955 192.729 474.013C192.755 474.068 192.801 474.12 192.866 474.168C192.931 474.213 193.022 474.257 193.139 474.297C193.257 474.338 193.407 474.379 193.59 474.42C193.909 474.492 194.172 474.578 194.379 474.679C194.585 474.78 194.739 474.904 194.84 475.05C194.941 475.197 194.991 475.375 194.991 475.584C194.991 475.754 194.955 475.91 194.883 476.052C194.813 476.194 194.711 476.316 194.577 476.419C194.445 476.52 194.286 476.6 194.101 476.657C193.919 476.712 193.713 476.74 193.485 476.74C193.142 476.74 192.851 476.679 192.614 476.556C192.376 476.434 192.196 476.275 192.073 476.081C191.951 475.886 191.889 475.681 191.889 475.465H192.559C192.569 475.647 192.622 475.793 192.718 475.901C192.814 476.006 192.932 476.082 193.071 476.128C193.21 476.171 193.348 476.192 193.485 476.192C193.668 476.192 193.82 476.168 193.943 476.12C194.068 476.072 194.163 476.006 194.227 475.922C194.292 475.838 194.325 475.742 194.325 475.634Z" fill="#777777"/>
<rect x="14.1414" y="398.414" width="71.6286" height="32.2155" rx="3.07419" fill="#F7931A"/>
<path d="M31.7675 411.03H34.0827C34.6079 411.03 35.0514 411.11 35.4133 411.27C35.7783 411.43 36.0553 411.667 36.2443 411.981C36.4364 412.291 36.5325 412.674 36.5325 413.129C36.5325 413.449 36.4668 413.742 36.3355 414.008C36.2074 414.27 36.0217 414.495 35.7783 414.68C35.5382 414.863 35.2499 414.999 34.9137 415.089L34.6543 415.189H32.4784L32.4688 414.435H34.1115C34.4446 414.435 34.7216 414.378 34.9425 414.262C35.1635 414.144 35.33 413.985 35.4421 413.787C35.5542 413.588 35.6102 413.369 35.6102 413.129C35.6102 412.86 35.5574 412.624 35.4517 412.423C35.346 412.221 35.1795 412.066 34.9521 411.957C34.728 411.845 34.4382 411.789 34.0827 411.789H32.6945V418.023H31.7675V411.03ZM35.8552 418.023L34.1548 414.853L35.1203 414.848L36.8447 417.966V418.023H35.8552ZM40.159 418.12C39.7972 418.12 39.469 418.059 39.1743 417.937C38.8829 417.812 38.6316 417.638 38.4202 417.413C38.2121 417.189 38.0519 416.923 37.9399 416.616C37.8278 416.309 37.7717 415.972 37.7717 415.607V415.406C37.7717 414.983 37.8342 414.607 37.9591 414.277C38.084 413.944 38.2537 413.662 38.4682 413.431C38.6828 413.201 38.9262 413.026 39.1984 412.908C39.4706 412.789 39.7524 412.73 40.0438 412.73C40.4152 412.73 40.7355 412.794 41.0044 412.922C41.2766 413.05 41.4992 413.23 41.6721 413.46C41.845 413.688 41.9731 413.957 42.0564 414.267C42.1397 414.575 42.1813 414.911 42.1813 415.276V415.675H38.3001V414.949H41.2927V414.882C41.2798 414.651 41.2318 414.427 41.1485 414.21C41.0685 413.992 40.9404 413.812 40.7643 413.672C40.5881 413.531 40.348 413.46 40.0438 413.46C39.842 413.46 39.6563 413.503 39.4866 413.59C39.3168 413.673 39.1711 413.798 39.0495 413.965C38.9278 414.131 38.8333 414.334 38.7661 414.575C38.6988 414.815 38.6652 415.092 38.6652 415.406V415.607C38.6652 415.854 38.6988 416.086 38.7661 416.304C38.8365 416.518 38.9374 416.707 39.0687 416.871C39.2032 417.034 39.3649 417.162 39.5538 417.255C39.7459 417.348 39.9637 417.394 40.2071 417.394C40.5209 417.394 40.7867 417.33 41.0044 417.202C41.2222 417.074 41.4127 416.903 41.5761 416.688L42.114 417.116C42.002 417.285 41.8595 417.447 41.6865 417.601C41.5136 417.754 41.3007 417.879 41.0477 417.975C40.7979 418.071 40.5017 418.12 40.159 418.12ZM46.7974 420.022V413.825L46.8742 412.826H47.6908V420.022H46.7974ZM43.3053 415.482V415.382C43.3053 414.984 43.3517 414.624 43.4446 414.301C43.5374 413.974 43.6735 413.694 43.8529 413.46C44.0322 413.226 44.2484 413.047 44.5013 412.922C44.7575 412.794 45.0489 412.73 45.3756 412.73C45.7022 412.73 45.9888 412.788 46.2354 412.903C46.4851 413.015 46.6965 413.18 46.8694 413.398C47.0455 413.612 47.1848 413.872 47.2873 414.176C47.3898 414.48 47.4602 414.824 47.4987 415.209V415.651C47.4634 416.032 47.3946 416.374 47.2921 416.678C47.1897 416.983 47.0504 417.242 46.8742 417.457C46.7013 417.671 46.4884 417.836 46.2354 417.951C45.9856 418.063 45.6958 418.12 45.366 418.12C45.0457 418.12 44.7575 418.054 44.5013 417.923C44.2484 417.791 44.0322 417.607 43.8529 417.37C43.6767 417.133 43.5407 416.855 43.4446 416.534C43.3517 416.211 43.3053 415.86 43.3053 415.482ZM44.1987 415.382V415.482C44.1987 415.742 44.2259 415.987 44.2804 416.217C44.3348 416.445 44.4181 416.646 44.5302 416.823C44.6454 416.999 44.7895 417.138 44.9625 417.24C45.1386 417.34 45.3467 417.389 45.5869 417.389C45.8815 417.389 46.1265 417.325 46.3218 417.197C46.5204 417.069 46.6789 416.901 46.7974 416.693C46.9159 416.482 47.0071 416.256 47.0712 416.016V414.858C47.0359 414.682 46.9799 414.511 46.903 414.344C46.8294 414.177 46.7333 414.029 46.6148 413.897C46.4964 413.763 46.3523 413.657 46.1825 413.58C46.016 413.5 45.8207 413.46 45.5965 413.46C45.3531 413.46 45.1434 413.511 44.9673 413.614C44.7911 413.716 44.6454 413.857 44.5302 414.037C44.4181 414.213 44.3348 414.416 44.2804 414.647C44.2259 414.877 44.1987 415.122 44.1987 415.382ZM52.6047 416.823V412.826H53.4981V418.023H52.6479L52.6047 416.823ZM52.7728 415.727L53.1427 415.718C53.1427 416.064 53.1059 416.384 53.0322 416.678C52.9618 416.97 52.8465 417.223 52.6864 417.437C52.5263 417.652 52.3165 417.82 52.0571 417.942C51.7977 418.06 51.4823 418.12 51.1108 418.12C50.8579 418.12 50.6257 418.083 50.4143 418.009C50.2062 417.935 50.0269 417.822 49.8764 417.668C49.7259 417.514 49.609 417.314 49.5257 417.068C49.4457 416.821 49.4056 416.525 49.4056 416.179V412.826H50.2943V416.189C50.2943 416.422 50.3199 416.616 50.3711 416.77C50.4256 416.92 50.4976 417.04 50.5873 417.13C50.6801 417.216 50.7826 417.277 50.8947 417.313C51.01 417.348 51.1285 417.365 51.2501 417.365C51.628 417.365 51.9274 417.293 52.1484 417.149C52.3693 417.002 52.5279 416.805 52.6239 416.558C52.7232 416.309 52.7728 416.032 52.7728 415.727ZM57.3169 418.12C56.955 418.12 56.6268 418.059 56.3322 417.937C56.0408 417.812 55.7894 417.638 55.578 417.413C55.3699 417.189 55.2098 416.923 55.0977 416.616C54.9856 416.309 54.9296 415.972 54.9296 415.607V415.406C54.9296 414.983 54.992 414.607 55.1169 414.277C55.2418 413.944 55.4115 413.662 55.6261 413.431C55.8406 413.201 56.084 413.026 56.3562 412.908C56.6284 412.789 56.9102 412.73 57.2016 412.73C57.573 412.73 57.8933 412.794 58.1623 412.922C58.4345 413.05 58.657 413.23 58.8299 413.46C59.0029 413.688 59.131 413.957 59.2142 414.267C59.2975 414.575 59.3391 414.911 59.3391 415.276V415.675H55.4579V414.949H58.4505V414.882C58.4377 414.651 58.3896 414.427 58.3064 414.21C58.2263 413.992 58.0982 413.812 57.9221 413.672C57.746 413.531 57.5058 413.46 57.2016 413.46C56.9998 413.46 56.8141 413.503 56.6444 413.59C56.4747 413.673 56.329 413.798 56.2073 413.965C56.0856 414.131 55.9911 414.334 55.9239 414.575C55.8566 414.815 55.823 415.092 55.823 415.406V415.607C55.823 415.854 55.8566 416.086 55.9239 416.304C55.9943 416.518 56.0952 416.707 56.2265 416.871C56.361 417.034 56.5227 417.162 56.7116 417.255C56.9038 417.348 57.1215 417.394 57.3649 417.394C57.6787 417.394 57.9445 417.33 58.1623 417.202C58.38 417.074 58.5706 416.903 58.7339 416.688L59.2719 417.116C59.1598 417.285 59.0173 417.447 58.8444 417.601C58.6714 417.754 58.4585 417.879 58.2055 417.975C57.9557 418.071 57.6595 418.12 57.3169 418.12ZM63.7102 416.645C63.7102 416.517 63.6814 416.398 63.6238 416.289C63.5693 416.177 63.4556 416.076 63.2827 415.987C63.113 415.894 62.8568 415.814 62.5142 415.747C62.226 415.686 61.965 415.614 61.7312 415.53C61.5006 415.447 61.3037 415.346 61.1404 415.228C60.9803 415.109 60.857 414.97 60.7705 414.81C60.6841 414.65 60.6408 414.463 60.6408 414.248C60.6408 414.043 60.6857 413.849 60.7753 413.667C60.8682 413.484 60.9979 413.322 61.1644 413.182C61.3341 413.041 61.5375 412.93 61.7744 412.85C62.0114 412.77 62.2756 412.73 62.567 412.73C62.9833 412.73 63.3388 412.804 63.6334 412.951C63.928 413.098 64.1537 413.295 64.3106 413.542C64.4676 413.785 64.546 414.056 64.546 414.354H63.6574C63.6574 414.21 63.6141 414.07 63.5277 413.936C63.4444 413.798 63.3211 413.684 63.1578 413.595C62.9977 413.505 62.8008 413.46 62.567 413.46C62.3204 413.46 62.1203 413.499 61.9666 413.575C61.8161 413.649 61.7056 413.744 61.6351 413.859C61.5679 413.974 61.5343 414.096 61.5343 414.224C61.5343 414.32 61.5503 414.406 61.5823 414.483C61.6175 414.557 61.6784 414.626 61.7648 414.69C61.8513 414.751 61.973 414.808 62.1299 414.863C62.2868 414.917 62.4869 414.972 62.7303 415.026C63.1562 415.122 63.5069 415.237 63.7823 415.372C64.0577 415.506 64.2626 415.671 64.3971 415.867C64.5316 416.062 64.5988 416.299 64.5988 416.578C64.5988 416.805 64.5508 417.013 64.4547 417.202C64.3619 417.391 64.2258 417.554 64.0465 417.692C63.8703 417.826 63.659 417.932 63.4124 418.009C63.169 418.083 62.8952 418.12 62.591 418.12C62.1331 418.12 61.7456 418.038 61.4286 417.875C61.1116 417.711 60.8714 417.5 60.7081 417.24C60.5448 416.981 60.4631 416.707 60.4631 416.419H61.3565C61.3693 416.662 61.4398 416.856 61.5679 417C61.696 417.141 61.8529 417.242 62.0386 417.303C62.2244 417.361 62.4085 417.389 62.591 417.389C62.8344 417.389 63.0377 417.357 63.2011 417.293C63.3676 417.229 63.4941 417.141 63.5805 417.029C63.667 416.917 63.7102 416.789 63.7102 416.645ZM68.2494 412.826V413.508H65.4394V412.826H68.2494ZM66.3905 411.563H67.2792V416.736C67.2792 416.912 67.3064 417.045 67.3608 417.135C67.4153 417.224 67.4857 417.284 67.5722 417.313C67.6586 417.341 67.7515 417.356 67.8508 417.356C67.9244 417.356 68.0013 417.349 68.0813 417.337C68.1646 417.321 68.227 417.308 68.2687 417.298L68.2735 418.023C68.203 418.046 68.1102 418.067 67.9949 418.086C67.8828 418.108 67.7467 418.12 67.5866 418.12C67.3688 418.12 67.1687 418.076 66.9861 417.99C66.8036 417.903 66.6579 417.759 66.549 417.558C66.4434 417.353 66.3905 417.077 66.3905 416.731V411.563Z" fill="white"/>
<rect x="94.9924" y="398.414" width="31.9716" height="31.9716" rx="3.47517" fill="#F7931A"/>
<rect x="110.631" y="414.051" width="0.695034" height="0.695034" fill="white" stroke="white" stroke-width="0.695034"/>
<rect x="110.631" y="411.273" width="0.695034" height="0.695034" fill="white" stroke="white" stroke-width="0.695034"/>
<rect x="107.851" y="414.051" width="0.695034" height="0.695034" fill="white" stroke="white" stroke-width="0.695034"/>
<rect x="105.07" y="414.051" width="0.695034" height="0.695034" fill="white" stroke="white" stroke-width="0.695034"/>
<rect x="110.631" y="408.492" width="0.695034" height="0.695034" fill="white" stroke="white" stroke-width="0.695034"/>
<rect x="110.631" y="416.832" width="0.695034" height="0.695034" fill="white" stroke="white" stroke-width="0.695034"/>
<rect x="110.631" y="419.613" width="0.695034" height="0.695034" fill="white" stroke="white" stroke-width="0.695034"/>
<rect x="113.411" y="414.051" width="0.695034" height="0.695034" fill="white" stroke="white" stroke-width="0.695034"/>
<rect x="113.411" y="416.832" width="0.695034" height="0.695034" fill="white" stroke="white" stroke-width="0.695034"/>
<rect x="113.411" y="419.613" width="0.695034" height="0.695034" fill="white" stroke="white" stroke-width="0.695034"/>
<rect x="116.191" y="414.051" width="0.695034" height="0.695034" fill="white" stroke="white" stroke-width="0.695034"/>
<rect x="116.191" y="416.832" width="0.695034" height="0.695034" fill="white" stroke="white" stroke-width="0.695034"/>
<rect x="116.191" y="419.613" width="0.695034" height="0.695034" fill="white" stroke="white" stroke-width="0.695034"/>
<mask id="path-29-inside-1_267_12335" fill="white">
<rect x="104.723" y="408.145" width="4.17021" height="4.17021" rx="0.695034"/>
</mask>
<rect x="104.723" y="408.145" width="4.17021" height="4.17021" rx="0.695034" stroke="white" stroke-width="2.78014" mask="url(#path-29-inside-1_267_12335)"/>
<mask id="path-30-inside-2_267_12335" fill="white">
<rect x="104.723" y="416.484" width="4.17021" height="4.17021" rx="0.695034"/>
</mask>
<rect x="104.723" y="416.484" width="4.17021" height="4.17021" rx="0.695034" stroke="white" stroke-width="2.78014" mask="url(#path-30-inside-2_267_12335)"/>
<mask id="path-31-inside-3_267_12335" fill="white">
<rect x="113.063" y="408.145" width="4.17021" height="4.17021" rx="0.695034"/>
</mask>
<rect x="113.063" y="408.145" width="4.17021" height="4.17021" rx="0.695034" stroke="white" stroke-width="2.78014" mask="url(#path-31-inside-3_267_12335)"/>
<rect x="136.187" y="398.414" width="71.6286" height="32.2155" rx="3.07419" fill="#F7931A"/>
<path d="M166.892 415.281H165.024V414.527H166.892C167.254 414.527 167.547 414.469 167.771 414.354C167.995 414.238 168.159 414.078 168.261 413.873C168.367 413.668 168.42 413.435 168.42 413.172C168.42 412.932 168.367 412.706 168.261 412.495C168.159 412.283 167.995 412.114 167.771 411.986C167.547 411.854 167.254 411.789 166.892 411.789H165.24V418.023H164.313V411.03H166.892C167.421 411.03 167.867 411.121 168.232 411.303C168.597 411.486 168.874 411.739 169.063 412.062C169.252 412.383 169.347 412.749 169.347 413.162C169.347 413.611 169.252 413.993 169.063 414.31C168.874 414.627 168.597 414.869 168.232 415.036C167.867 415.199 167.421 415.281 166.892 415.281ZM173.699 417.135V414.459C173.699 414.254 173.657 414.077 173.574 413.926C173.494 413.772 173.372 413.654 173.209 413.571C173.045 413.487 172.844 413.446 172.603 413.446C172.379 413.446 172.182 413.484 172.013 413.561C171.846 413.638 171.715 413.739 171.619 413.864C171.526 413.989 171.479 414.123 171.479 414.267H170.591C170.591 414.081 170.639 413.897 170.735 413.715C170.831 413.532 170.969 413.367 171.148 413.22C171.331 413.07 171.548 412.951 171.801 412.865C172.057 412.775 172.342 412.73 172.656 412.73C173.034 412.73 173.367 412.794 173.655 412.922C173.947 413.05 174.174 413.244 174.337 413.503C174.504 413.76 174.587 414.081 174.587 414.469V416.89C174.587 417.063 174.602 417.247 174.631 417.442C174.663 417.638 174.709 417.806 174.77 417.947V418.023H173.843C173.798 417.921 173.763 417.785 173.737 417.615C173.711 417.442 173.699 417.282 173.699 417.135ZM173.852 414.872L173.862 415.497H172.964C172.711 415.497 172.485 415.518 172.286 415.559C172.088 415.598 171.921 415.657 171.787 415.737C171.652 415.817 171.55 415.918 171.479 416.04C171.409 416.158 171.374 416.297 171.374 416.458C171.374 416.621 171.411 416.77 171.484 416.904C171.558 417.039 171.668 417.146 171.816 417.226C171.966 417.303 172.15 417.341 172.368 417.341C172.64 417.341 172.88 417.284 173.089 417.168C173.297 417.053 173.462 416.912 173.583 416.746C173.708 416.579 173.775 416.417 173.785 416.261L174.165 416.688C174.142 416.823 174.081 416.971 173.982 417.135C173.883 417.298 173.75 417.455 173.583 417.606C173.42 417.753 173.225 417.876 172.997 417.975C172.773 418.071 172.52 418.12 172.238 418.12C171.886 418.12 171.577 418.051 171.311 417.913C171.049 417.775 170.844 417.591 170.697 417.361C170.552 417.127 170.48 416.866 170.48 416.578C170.48 416.299 170.535 416.054 170.644 415.843C170.753 415.628 170.909 415.45 171.114 415.31C171.319 415.165 171.566 415.057 171.854 414.983C172.142 414.909 172.464 414.872 172.82 414.872H173.852ZM177.676 417.485L179.122 412.826H180.073L177.988 418.826C177.94 418.954 177.876 419.091 177.796 419.239C177.719 419.389 177.62 419.532 177.498 419.666C177.376 419.801 177.229 419.91 177.056 419.993C176.887 420.079 176.683 420.123 176.446 420.123C176.376 420.123 176.286 420.113 176.177 420.094C176.068 420.074 175.991 420.058 175.947 420.046L175.942 419.325C175.967 419.328 176.007 419.332 176.062 419.335C176.12 419.341 176.16 419.344 176.182 419.344C176.384 419.344 176.555 419.317 176.696 419.263C176.837 419.211 176.955 419.123 177.051 418.999C177.151 418.877 177.236 418.709 177.306 418.494L177.676 417.485ZM176.614 412.826L177.964 416.861L178.195 417.798L177.556 418.124L175.644 412.826H176.614Z" fill="white"/>
<path d="M26.9259 190.889V201.438H25.5929V192.554L22.9054 193.533V192.33L26.7169 190.889H26.9259Z" fill="black"/>
<path d="M114.266 200.342V201.438H107.4V200.479L110.837 196.653C111.26 196.183 111.586 195.784 111.817 195.457C112.052 195.126 112.215 194.83 112.307 194.571C112.403 194.307 112.451 194.038 112.451 193.764C112.451 193.418 112.379 193.106 112.235 192.827C112.095 192.544 111.889 192.318 111.615 192.15C111.341 191.982 111.01 191.898 110.621 191.898C110.155 191.898 109.766 191.989 109.453 192.172C109.146 192.349 108.915 192.599 108.762 192.921C108.608 193.243 108.531 193.613 108.531 194.031H107.198C107.198 193.44 107.328 192.899 107.587 192.409C107.847 191.92 108.231 191.53 108.74 191.242C109.249 190.949 109.876 190.803 110.621 190.803C111.284 190.803 111.85 190.92 112.321 191.156C112.792 191.386 113.152 191.713 113.402 192.136C113.656 192.554 113.784 193.044 113.784 193.606C113.784 193.913 113.731 194.225 113.625 194.542C113.524 194.854 113.383 195.167 113.2 195.479C113.022 195.791 112.813 196.098 112.573 196.401C112.338 196.704 112.086 197.002 111.817 197.295L109.007 200.342H114.266Z" fill="black"/>
<path d="M194.186 195.536H195.137C195.603 195.536 195.987 195.46 196.29 195.306C196.597 195.147 196.825 194.934 196.974 194.665C197.128 194.391 197.205 194.083 197.205 193.742C197.205 193.339 197.138 193 197.003 192.726C196.869 192.453 196.667 192.246 196.398 192.107C196.129 191.968 195.788 191.898 195.375 191.898C195 191.898 194.669 191.972 194.38 192.121C194.097 192.265 193.874 192.472 193.71 192.741C193.552 193.01 193.473 193.327 193.473 193.692H192.14C192.14 193.159 192.274 192.674 192.543 192.237C192.812 191.799 193.189 191.451 193.674 191.192C194.164 190.932 194.731 190.803 195.375 190.803C196.009 190.803 196.564 190.916 197.039 191.141C197.515 191.362 197.884 191.694 198.149 192.136C198.413 192.573 198.545 193.118 198.545 193.771C198.545 194.035 198.482 194.319 198.358 194.621C198.238 194.919 198.048 195.198 197.788 195.457C197.534 195.717 197.202 195.93 196.794 196.098C196.386 196.262 195.896 196.343 195.324 196.343H194.186V195.536ZM194.186 196.632V195.832H195.324C195.992 195.832 196.544 195.911 196.981 196.07C197.419 196.228 197.762 196.44 198.012 196.704C198.266 196.968 198.444 197.259 198.545 197.576C198.651 197.888 198.703 198.2 198.703 198.512C198.703 199.002 198.619 199.437 198.451 199.816C198.288 200.196 198.055 200.518 197.752 200.782C197.455 201.046 197.104 201.245 196.7 201.38C196.297 201.514 195.857 201.582 195.382 201.582C194.926 201.582 194.496 201.517 194.092 201.387C193.693 201.257 193.34 201.07 193.033 200.825C192.726 200.575 192.485 200.27 192.313 199.91C192.14 199.545 192.053 199.129 192.053 198.664H193.386C193.386 199.029 193.465 199.348 193.624 199.622C193.787 199.896 194.018 200.109 194.316 200.263C194.618 200.412 194.974 200.486 195.382 200.486C195.79 200.486 196.141 200.417 196.434 200.277C196.732 200.133 196.96 199.917 197.118 199.629C197.282 199.341 197.363 198.978 197.363 198.541C197.363 198.104 197.272 197.746 197.09 197.467C196.907 197.184 196.648 196.975 196.311 196.841C195.98 196.701 195.588 196.632 195.137 196.632H194.186Z" fill="black"/>
<path d="M29.635 252.626V253.721H22.0552V252.936L26.7529 245.666H27.8409L26.6737 247.769L23.5683 252.626H29.635ZM28.1723 245.666V256.156H26.8394V245.666H28.1723Z" fill="black"/>
<path d="M109.079 251.163L108.012 250.889L108.538 245.666H113.921V246.898H109.67L109.353 249.751C109.545 249.64 109.787 249.537 110.08 249.441C110.378 249.345 110.719 249.297 111.103 249.297C111.589 249.297 112.023 249.381 112.408 249.549C112.792 249.712 113.118 249.948 113.387 250.255C113.661 250.563 113.87 250.933 114.014 251.365C114.158 251.797 114.23 252.28 114.23 252.813C114.23 253.317 114.161 253.781 114.022 254.204C113.887 254.626 113.683 254.996 113.409 255.313C113.135 255.625 112.789 255.868 112.372 256.041C111.958 256.214 111.471 256.3 110.909 256.3C110.486 256.3 110.085 256.243 109.706 256.127C109.331 256.007 108.995 255.827 108.697 255.587C108.404 255.342 108.164 255.039 107.976 254.679C107.794 254.314 107.679 253.887 107.631 253.397H108.899C108.956 253.791 109.072 254.122 109.245 254.391C109.417 254.66 109.643 254.864 109.922 255.003C110.205 255.138 110.534 255.205 110.909 255.205C111.226 255.205 111.507 255.15 111.752 255.039C111.997 254.929 112.203 254.77 112.372 254.564C112.54 254.357 112.667 254.108 112.753 253.815C112.845 253.522 112.89 253.193 112.89 252.827C112.89 252.496 112.845 252.189 112.753 251.905C112.662 251.622 112.525 251.374 112.343 251.163C112.165 250.952 111.946 250.788 111.687 250.673C111.428 250.553 111.13 250.493 110.794 250.493C110.347 250.493 110.008 250.553 109.778 250.673C109.552 250.793 109.319 250.957 109.079 251.163Z" fill="black"/>
<path d="M197.356 245.651H197.471V246.782H197.356C196.65 246.782 196.059 246.898 195.584 247.128C195.108 247.354 194.731 247.659 194.452 248.043C194.174 248.423 193.972 248.85 193.847 249.326C193.727 249.801 193.667 250.284 193.667 250.774V252.316C193.667 252.782 193.722 253.195 193.833 253.555C193.943 253.911 194.095 254.211 194.287 254.456C194.479 254.701 194.695 254.886 194.935 255.011C195.18 255.136 195.435 255.198 195.699 255.198C196.006 255.198 196.28 255.14 196.52 255.025C196.76 254.905 196.962 254.739 197.126 254.528C197.294 254.312 197.421 254.057 197.507 253.764C197.594 253.471 197.637 253.149 197.637 252.799C197.637 252.486 197.599 252.186 197.522 251.898C197.445 251.605 197.327 251.346 197.169 251.12C197.01 250.889 196.811 250.709 196.571 250.579C196.335 250.445 196.054 250.378 195.728 250.378C195.358 250.378 195.012 250.469 194.69 250.652C194.373 250.829 194.111 251.065 193.905 251.358C193.703 251.646 193.588 251.96 193.559 252.302L192.853 252.294C192.92 251.756 193.045 251.298 193.228 250.918C193.415 250.534 193.645 250.222 193.919 249.981C194.198 249.736 194.508 249.559 194.849 249.448C195.195 249.333 195.56 249.275 195.944 249.275C196.467 249.275 196.919 249.374 197.298 249.571C197.678 249.768 197.99 250.032 198.235 250.363C198.48 250.69 198.66 251.06 198.776 251.473C198.896 251.881 198.956 252.302 198.956 252.734C198.956 253.229 198.886 253.692 198.747 254.124C198.607 254.557 198.398 254.936 198.12 255.263C197.846 255.589 197.507 255.844 197.104 256.027C196.7 256.209 196.232 256.3 195.699 256.3C195.132 256.3 194.637 256.185 194.215 255.955C193.792 255.719 193.441 255.407 193.163 255.018C192.884 254.629 192.675 254.196 192.536 253.721C192.397 253.245 192.327 252.763 192.327 252.273V251.646C192.327 250.906 192.401 250.181 192.55 249.47C192.699 248.759 192.956 248.115 193.321 247.539C193.691 246.963 194.203 246.504 194.856 246.163C195.509 245.822 196.343 245.651 197.356 245.651Z" fill="black"/>
<path d="M29.3252 300.388V301.138L24.9805 310.879H23.5755L27.913 301.483H22.2353V300.388H29.3252Z" fill="black"/>
<path d="M114.007 308.04C114.007 308.679 113.858 309.222 113.56 309.668C113.267 310.11 112.869 310.447 112.364 310.677C111.865 310.908 111.3 311.023 110.671 311.023C110.042 311.023 109.475 310.908 108.971 310.677C108.466 310.447 108.068 310.11 107.775 309.668C107.482 309.222 107.335 308.679 107.335 308.04C107.335 307.622 107.414 307.24 107.573 306.894C107.736 306.544 107.964 306.239 108.257 305.979C108.555 305.72 108.906 305.521 109.309 305.381C109.718 305.237 110.167 305.165 110.657 305.165C111.3 305.165 111.874 305.29 112.379 305.54C112.883 305.785 113.279 306.124 113.568 306.556C113.861 306.988 114.007 307.483 114.007 308.04ZM112.667 308.011C112.667 307.622 112.583 307.279 112.415 306.981C112.247 306.678 112.011 306.443 111.709 306.275C111.406 306.107 111.055 306.023 110.657 306.023C110.248 306.023 109.895 306.107 109.598 306.275C109.305 306.443 109.076 306.678 108.913 306.981C108.75 307.279 108.668 307.622 108.668 308.011C108.668 308.415 108.747 308.761 108.906 309.049C109.069 309.332 109.3 309.551 109.598 309.704C109.9 309.853 110.258 309.928 110.671 309.928C111.084 309.928 111.44 309.853 111.737 309.704C112.035 309.551 112.263 309.332 112.422 309.049C112.585 308.761 112.667 308.415 112.667 308.011ZM113.762 303.119C113.762 303.628 113.628 304.087 113.359 304.495C113.09 304.903 112.722 305.225 112.256 305.461C111.79 305.696 111.262 305.814 110.671 305.814C110.071 305.814 109.535 305.696 109.064 305.461C108.598 305.225 108.233 304.903 107.969 304.495C107.705 304.087 107.573 303.628 107.573 303.119C107.573 302.509 107.705 301.99 107.969 301.563C108.238 301.135 108.606 300.809 109.072 300.583C109.538 300.357 110.068 300.244 110.664 300.244C111.264 300.244 111.798 300.357 112.263 300.583C112.729 300.809 113.094 301.135 113.359 301.563C113.628 301.99 113.762 302.509 113.762 303.119ZM112.429 303.141C112.429 302.79 112.355 302.48 112.206 302.211C112.057 301.942 111.85 301.731 111.586 301.577C111.322 301.419 111.015 301.339 110.664 301.339C110.313 301.339 110.006 301.414 109.742 301.563C109.482 301.707 109.278 301.913 109.129 302.182C108.985 302.451 108.913 302.771 108.913 303.141C108.913 303.501 108.985 303.815 109.129 304.084C109.278 304.353 109.485 304.562 109.749 304.711C110.013 304.86 110.32 304.935 110.671 304.935C111.022 304.935 111.327 304.86 111.586 304.711C111.85 304.562 112.057 304.353 112.206 304.084C112.355 303.815 112.429 303.501 112.429 303.141Z" fill="black"/>
<path d="M193.566 309.762H193.703C194.472 309.762 195.096 309.654 195.576 309.438C196.057 309.222 196.427 308.931 196.686 308.566C196.945 308.201 197.123 307.79 197.219 307.334C197.315 306.873 197.363 306.4 197.363 305.915V304.308C197.363 303.832 197.308 303.41 197.198 303.04C197.092 302.67 196.943 302.36 196.751 302.11C196.564 301.86 196.35 301.671 196.11 301.541C195.869 301.411 195.615 301.347 195.346 301.347C195.038 301.347 194.762 301.409 194.517 301.534C194.277 301.654 194.073 301.824 193.905 302.045C193.742 302.266 193.617 302.526 193.53 302.824C193.444 303.121 193.4 303.446 193.4 303.796C193.4 304.108 193.439 304.411 193.516 304.704C193.593 304.997 193.71 305.261 193.869 305.497C194.027 305.732 194.224 305.919 194.46 306.059C194.7 306.193 194.981 306.26 195.303 306.26C195.6 306.26 195.879 306.203 196.138 306.087C196.403 305.967 196.636 305.806 196.837 305.605C197.044 305.398 197.207 305.165 197.327 304.906C197.452 304.646 197.524 304.375 197.543 304.092H198.177C198.177 304.49 198.098 304.884 197.94 305.273C197.786 305.658 197.57 306.008 197.291 306.325C197.013 306.642 196.686 306.897 196.311 307.089C195.937 307.276 195.528 307.37 195.086 307.37C194.568 307.37 194.119 307.269 193.739 307.067C193.36 306.866 193.047 306.597 192.802 306.26C192.562 305.924 192.382 305.55 192.262 305.136C192.147 304.719 192.089 304.296 192.089 303.868C192.089 303.369 192.159 302.9 192.298 302.463C192.437 302.026 192.644 301.642 192.918 301.31C193.192 300.974 193.53 300.712 193.934 300.525C194.342 300.338 194.813 300.244 195.346 300.244C195.946 300.244 196.458 300.364 196.881 300.604C197.303 300.845 197.647 301.166 197.911 301.57C198.18 301.973 198.377 302.427 198.502 302.932C198.627 303.436 198.689 303.955 198.689 304.488V304.971C198.689 305.513 198.653 306.066 198.581 306.628C198.514 307.185 198.382 307.718 198.185 308.227C197.993 308.737 197.712 309.193 197.342 309.596C196.972 309.995 196.489 310.312 195.893 310.547C195.303 310.778 194.573 310.893 193.703 310.893H193.566V309.762Z" fill="black"/>
<path d="M113.978 359.517V361.116C113.978 361.976 113.901 362.701 113.748 363.292C113.594 363.883 113.373 364.358 113.085 364.719C112.797 365.079 112.448 365.341 112.04 365.504C111.637 365.663 111.18 365.742 110.671 365.742C110.268 365.742 109.895 365.691 109.554 365.59C109.213 365.49 108.906 365.329 108.632 365.108C108.363 364.882 108.133 364.589 107.94 364.229C107.748 363.868 107.602 363.431 107.501 362.917C107.4 362.403 107.35 361.803 107.35 361.116V359.517C107.35 358.657 107.426 357.936 107.58 357.355C107.739 356.774 107.962 356.308 108.25 355.957C108.538 355.602 108.884 355.347 109.288 355.193C109.696 355.04 110.152 354.963 110.657 354.963C111.065 354.963 111.44 355.013 111.781 355.114C112.127 355.21 112.434 355.366 112.703 355.583C112.972 355.794 113.2 356.077 113.387 356.433C113.58 356.783 113.726 357.213 113.827 357.722C113.928 358.232 113.978 358.83 113.978 359.517ZM112.638 361.332V359.293C112.638 358.822 112.609 358.409 112.552 358.054C112.499 357.694 112.42 357.386 112.314 357.132C112.208 356.877 112.074 356.67 111.91 356.512C111.752 356.353 111.567 356.238 111.356 356.166C111.149 356.089 110.916 356.051 110.657 356.051C110.34 356.051 110.059 356.111 109.814 356.231C109.569 356.346 109.362 356.531 109.194 356.786C109.031 357.04 108.906 357.374 108.819 357.787C108.733 358.2 108.69 358.702 108.69 359.293V361.332C108.69 361.803 108.716 362.218 108.769 362.579C108.827 362.939 108.911 363.251 109.021 363.515C109.132 363.775 109.266 363.989 109.425 364.157C109.583 364.325 109.766 364.45 109.972 364.531C110.184 364.608 110.417 364.647 110.671 364.647C110.998 364.647 111.284 364.584 111.529 364.459C111.774 364.334 111.978 364.14 112.141 363.876C112.309 363.607 112.434 363.263 112.516 362.845C112.597 362.423 112.638 361.918 112.638 361.332Z" fill="black"/>
<path fill-rule="evenodd" clip-rule="evenodd" d="M191.979 355.375C191.562 355.375 191.174 355.586 190.947 355.937L188.338 359.969C188.087 360.357 188.075 360.853 188.306 361.253L190.955 365.829C191.175 366.208 191.581 366.442 192.019 366.442H201.148C201.827 366.442 202.377 365.892 202.377 365.212V356.605C202.377 355.926 201.827 355.375 201.148 355.375H191.979ZM193.494 358.639C193.254 358.399 193.254 358.009 193.494 357.769C193.734 357.529 194.124 357.529 194.364 357.769L196.542 359.948L198.711 357.778C198.951 357.538 199.341 357.538 199.581 357.778C199.821 358.019 199.821 358.408 199.581 358.648L197.411 360.817L199.581 362.986C199.821 363.227 199.821 363.616 199.581 363.856C199.341 364.096 198.951 364.096 198.711 363.856L196.542 361.687L194.364 363.865C194.124 364.105 193.734 364.105 193.494 363.865C193.254 363.625 193.254 363.236 193.494 362.995L195.672 360.817L193.494 358.639Z" fill="black"/>
<path d="M24.9001 39.6259V39.6331H12.9322V39.6259C12.9322 38.6543 13.3606 37.9878 13.9507 37.4879C14.5533 36.9773 15.3136 36.6499 15.9602 36.3735L15.9602 36.3735L15.967 36.3706C16.2268 36.2595 16.5347 36.1279 16.7782 35.997C16.9 35.9315 17.0204 35.8586 17.1144 35.7802C17.1614 35.741 17.2117 35.6922 17.2522 35.6337C17.2921 35.5759 17.3361 35.4887 17.3361 35.3793V33.969V33.8157L17.2136 33.7234C16.5106 33.1943 16.0779 32.3341 16.0779 31.4472V29.5597C16.0779 27.995 17.3514 26.7215 18.9161 26.7215C20.4809 26.7215 21.7544 27.995 21.7544 29.5597V31.4472C21.7544 32.3344 21.3217 33.1943 20.6187 33.7234L20.4961 33.8157V33.969V35.3793C20.4961 35.4865 20.5372 35.5736 20.5776 35.634C20.6182 35.6946 20.6688 35.745 20.7168 35.7857C20.8122 35.8669 20.9346 35.9414 21.0579 36.0076C21.3047 36.1402 21.6166 36.2714 21.879 36.3819L21.8852 36.3845C21.8852 36.3845 21.8852 36.3845 21.8852 36.3845C21.8852 36.3845 21.8853 36.3845 21.8853 36.3845C22.5295 36.6561 23.2861 36.9773 23.8859 37.4843C24.4726 37.9803 24.9001 38.6463 24.9001 39.6259Z" stroke="black" stroke-width="0.614838"/>
<path d="M218.349 32.0661L218.299 32.3694L218.299 32.3695L218.349 32.0661ZM216.611 31.782L216.316 31.8681L216.37 32.0541L216.561 32.0854L216.611 31.782ZM218.595 32.3563L218.288 32.3557V32.3563H218.595ZM218.352 34.2632L218.299 33.9604L218.299 33.9604L218.352 34.2632ZM216.612 34.5687L216.559 34.2659L216.37 34.2991L216.317 34.4833L216.612 34.5687ZM216.198 35.5709L215.929 35.4229L215.835 35.593L215.949 35.7505L216.198 35.5709ZM217.227 36.9991L216.977 37.1788L216.977 37.1789L217.227 36.9991ZM217.196 37.379L217.414 37.5963L217.414 37.5961L217.196 37.379ZM216.053 38.5232L216.27 38.7409L216.27 38.7405L216.053 38.5232ZM215.676 38.5558L215.853 38.3047L215.852 38.3041L215.676 38.5558ZM214.233 37.544L214.41 37.2923L214.252 37.1817L214.084 37.2753L214.233 37.544ZM213.225 37.9659L213.138 37.671L212.955 37.7248L212.922 37.9122L213.225 37.9659ZM212.917 39.6979L212.615 39.6442L212.615 39.6446L212.917 39.6979ZM210.721 39.6953L211.024 39.6454L211.024 39.6448L210.721 39.6953ZM210.434 37.9718L210.737 37.9213L210.705 37.7303L210.519 37.6765L210.434 37.9718ZM209.421 37.5531L209.569 37.2837L209.401 37.1915L209.244 37.3013L209.421 37.5531ZM207.989 38.5561L207.812 38.3043L207.812 38.3046L207.989 38.5561ZM207.612 38.5232L207.394 38.7405L207.394 38.7405L207.612 38.5232ZM206.468 37.379L206.25 37.5958L206.251 37.5963L206.468 37.379ZM206.437 37L206.687 37.1788L206.687 37.1788L206.437 37ZM207.449 35.5847L207.699 35.7635L207.812 35.6057L207.718 35.4359L207.449 35.5847ZM207.026 34.5673L207.322 34.4816L207.268 34.298L207.08 34.2646L207.026 34.5673ZM205.312 34.2632L205.258 34.5659L205.258 34.5659L205.312 34.2632ZM205.315 32.0663L205.365 32.3696L205.365 32.3696L205.315 32.0663ZM207.03 31.7808L207.08 32.0841L207.271 32.0523L207.325 31.8667L207.03 31.7808ZM207.452 30.7634L207.722 30.9121L207.814 30.7443L207.704 30.5873L207.452 30.7634ZM206.453 29.3334L206.705 29.1573L206.704 29.1566L206.453 29.3334ZM206.486 28.957L206.703 29.1744L206.703 29.1744L206.486 28.957ZM207.629 27.814L207.412 27.596L207.412 27.5967L207.629 27.814ZM208.008 27.7829L207.829 28.033L207.829 28.033L208.008 27.7829ZM209.428 28.7974L209.25 29.0475L209.407 29.1597L209.576 29.067L209.428 28.7974ZM210.439 28.3822L210.524 28.6776L210.711 28.6238L210.743 28.4317L210.439 28.3822ZM210.72 26.6608L211.024 26.7103L211.024 26.7103L210.72 26.6608ZM212.918 26.6575L213.22 26.6045L213.22 26.6043L212.918 26.6575ZM213.221 28.3883L212.918 28.4414L212.951 28.63L213.135 28.6835L213.221 28.3883ZM214.23 28.8079L214.081 29.077L214.252 29.1711L214.41 29.0576L214.23 28.8079ZM215.654 27.7843L215.834 28.034L215.834 28.0337L215.654 27.7843ZM216.034 27.8149L216.251 27.5975L216.251 27.5972L216.034 27.8149ZM217.178 28.9579L217.395 28.7408L217.395 28.7405L217.178 28.9579ZM217.211 29.3349L216.959 29.1581L216.959 29.1583L217.211 29.3349ZM216.196 30.7807L215.944 30.6042L215.834 30.7608L215.927 30.9286L216.196 30.7807ZM218.399 31.7627L216.661 31.4786L216.561 32.0854L218.299 32.3694L218.399 31.7627ZM218.903 32.3569C218.903 32.0616 218.689 31.8101 218.398 31.7626L218.299 32.3695C218.293 32.3684 218.288 32.3628 218.288 32.3557L218.903 32.3569ZM218.903 33.9736V32.3563H218.288V33.9736H218.903ZM218.405 34.566C218.694 34.5155 218.903 34.2651 218.903 33.9736H218.288C218.288 33.9673 218.293 33.9616 218.299 33.9604L218.405 34.566ZM216.665 34.8715L218.405 34.566L218.299 33.9604L216.559 34.2659L216.665 34.8715ZM216.468 35.7188C216.653 35.3813 216.8 35.0245 216.907 34.6542L216.317 34.4833C216.222 34.8105 216.092 35.1253 215.929 35.4229L216.468 35.7188ZM217.476 36.8194L216.448 35.3912L215.949 35.7505L216.977 37.1788L217.476 36.8194ZM217.414 37.5961C217.622 37.3878 217.649 37.059 217.476 36.8193L216.977 37.1789C216.973 37.1732 216.974 37.1661 216.978 37.1619L217.414 37.5961ZM216.27 38.7405L217.414 37.5963L216.979 37.1617L215.835 38.3059L216.27 38.7405ZM215.498 38.8069C215.739 38.9767 216.064 38.9461 216.27 38.7409L215.836 38.3055C215.839 38.3019 215.847 38.3002 215.853 38.3047L215.498 38.8069ZM214.057 37.7956L215.499 38.8075L215.852 38.3041L214.41 37.2923L214.057 37.7956ZM213.311 38.2608C213.685 38.1507 214.044 38.0009 214.383 37.8126L214.084 37.2753C213.786 37.4411 213.469 37.5735 213.138 37.671L213.311 38.2608ZM213.22 39.7516L213.527 38.0196L212.922 37.9122L212.615 39.6442L213.22 39.7516ZM212.628 40.2479C212.92 40.2479 213.169 40.0387 213.22 39.7512L212.615 39.6446C212.616 39.6376 212.622 39.6331 212.628 39.6331V40.2479ZM211.011 40.2479H212.628V39.6331H211.011V40.2479ZM210.418 39.7451C210.465 40.0359 210.717 40.2479 211.011 40.2479V39.6331C211.016 39.6331 211.023 39.6375 211.024 39.6454L210.418 39.7451ZM210.131 38.0223L210.418 39.7458L211.024 39.6448L210.737 37.9213L210.131 38.0223ZM209.273 37.8225C209.614 38.0102 209.975 38.1591 210.348 38.2671L210.519 37.6765C210.189 37.581 209.87 37.4494 209.569 37.2837L209.273 37.8225ZM208.165 38.8079L209.597 37.8049L209.244 37.3013L207.812 38.3043L208.165 38.8079ZM207.394 38.7405C207.601 38.9466 207.926 38.9759 208.165 38.8076L207.812 38.3046C207.818 38.3004 207.825 38.3015 207.829 38.3058L207.394 38.7405ZM206.251 37.5963L207.394 38.7405L207.829 38.3059L206.686 37.1617L206.251 37.5963ZM206.187 36.8211C206.016 37.0605 206.044 37.3879 206.25 37.5958L206.686 37.1622C206.69 37.1661 206.692 37.173 206.687 37.1788L206.187 36.8211ZM207.199 35.4059L206.187 36.8212L206.687 37.1788L207.699 35.7635L207.199 35.4059ZM206.731 34.6529C206.84 35.0287 206.991 35.3907 207.18 35.7334L207.718 35.4359C207.551 35.133 207.418 34.8133 207.322 34.4816L206.731 34.6529ZM205.258 34.5659L206.973 34.87L207.08 34.2646L205.365 33.9605L205.258 34.5659ZM204.762 33.9736C204.762 34.2653 204.971 34.5148 205.258 34.5659L205.366 33.9606C205.372 33.9617 205.376 33.9671 205.376 33.9736H204.762ZM204.762 32.3563V33.9736H205.376V32.3563H204.762ZM205.264 31.7631C204.974 31.8112 204.762 32.0624 204.762 32.3563H205.376C205.376 32.3631 205.372 32.3685 205.365 32.3696L205.264 31.7631ZM206.979 31.4776L205.264 31.7631L205.365 32.3696L207.08 32.0841L206.979 31.4776ZM207.183 30.6147C206.994 30.9566 206.844 31.3185 206.734 31.6949L207.325 31.8667C207.422 31.5339 207.555 31.2142 207.722 30.9121L207.183 30.6147ZM206.201 29.5095L207.201 30.9395L207.704 30.5873L206.705 29.1573L206.201 29.5095ZM206.268 28.7396C206.062 28.9457 206.033 29.2707 206.201 29.5102L206.704 29.1566C206.709 29.1627 206.707 29.1701 206.703 29.1744L206.268 28.7396ZM207.412 27.5967L206.268 28.7396L206.703 29.1744L207.846 28.0314L207.412 27.5967ZM208.187 27.5327C207.947 27.3613 207.62 27.3895 207.412 27.596L207.846 28.0321C207.842 28.0357 207.835 28.0369 207.829 28.033L208.187 27.5327ZM209.607 28.5472L208.187 27.5327L207.829 28.033L209.25 29.0475L209.607 28.5472ZM210.354 28.0867C209.98 28.1943 209.62 28.342 209.281 28.5277L209.576 29.067C209.875 28.9034 210.193 28.7729 210.524 28.6776L210.354 28.0867ZM210.417 26.6112L210.136 28.3326L210.743 28.4317L211.024 26.7103L210.417 26.6112ZM211.011 26.1066C210.716 26.1066 210.464 26.3201 210.417 26.6112L211.024 26.7103C211.023 26.7168 211.017 26.7215 211.011 26.7215V26.1066ZM212.628 26.1066H211.011V26.7215H212.628V26.1066ZM213.22 26.6043C213.17 26.3173 212.921 26.1066 212.628 26.1066V26.7215C212.621 26.7215 212.616 26.7166 212.615 26.7108L213.22 26.6043ZM213.524 28.3353L213.22 26.6045L212.615 26.7106L212.918 28.4414L213.524 28.3353ZM214.379 28.5389C214.039 28.3509 213.679 28.2015 213.307 28.0931L213.135 28.6835C213.464 28.7792 213.781 28.911 214.081 29.077L214.379 28.5389ZM215.475 27.5347L214.051 28.5583L214.41 29.0576L215.834 28.034L215.475 27.5347ZM216.251 27.5972C216.043 27.3896 215.714 27.3621 215.475 27.535L215.834 28.0337C215.828 28.0378 215.821 28.0367 215.817 28.0326L216.251 27.5972ZM217.395 28.7405L216.251 27.5975L215.817 28.0324L216.96 29.1754L217.395 28.7405ZM217.462 29.5117C217.631 29.272 217.601 28.947 217.395 28.7408L216.96 29.175C216.956 29.1712 216.955 29.1643 216.959 29.1581L217.462 29.5117ZM216.448 30.9573L217.462 29.5115L216.959 29.1583L215.944 30.6042L216.448 30.9573ZM216.906 31.6959C216.798 31.3256 216.65 30.9697 216.466 30.6329L215.927 30.9286C216.09 31.2264 216.22 31.5409 216.316 31.8681L216.906 31.6959ZM211.832 34.9283C210.865 34.9283 210.081 34.1444 210.081 33.1774H209.466C209.466 34.484 210.526 35.5432 211.832 35.5432V34.9283ZM213.583 33.1774C213.583 34.1444 212.799 34.9283 211.832 34.9283V35.5432C213.139 35.5432 214.198 34.484 214.198 33.1774H213.583ZM211.832 31.4264C212.799 31.4264 213.583 32.2104 213.583 33.1774H214.198C214.198 31.8708 213.139 30.8116 211.832 30.8116V31.4264ZM210.081 33.1774C210.081 32.2104 210.865 31.4264 211.832 31.4264V30.8116C210.526 30.8116 209.466 31.8708 209.466 33.1774H210.081Z" fill="black"/>
<path d="M70.062 106.666V108.309H59.7623V106.871L64.9176 101.132C65.5516 100.426 66.0416 99.8282 66.3874 99.3382C66.7405 98.8411 66.9854 98.3979 67.1223 98.0089C67.2664 97.6126 67.3385 97.2091 67.3385 96.7984C67.3385 96.2796 67.2304 95.8113 67.0143 95.3934C66.8053 94.9683 66.4955 94.6297 66.0848 94.3775C65.6741 94.1253 65.177 93.9992 64.5933 93.9992C63.8944 93.9992 63.3108 94.1361 62.8425 94.4099C62.3814 94.6765 62.0355 95.0512 61.805 95.5339C61.5744 96.0166 61.4591 96.5714 61.4591 97.1983H59.4597C59.4597 96.3121 59.6542 95.5015 60.0433 94.7665C60.4324 94.0316 61.0088 93.448 61.7725 93.0157C62.5363 92.5762 63.4765 92.3564 64.5933 92.3564C65.5876 92.3564 66.4379 92.533 67.144 92.886C67.8501 93.2319 68.3904 93.7218 68.7651 94.3559C69.147 94.9827 69.3379 95.7176 69.3379 96.5606C69.3379 97.0218 69.2587 97.4901 69.1001 97.9656C68.9488 98.434 68.7363 98.9023 68.4625 99.3706C68.1959 99.839 67.8825 100.3 67.5222 100.754C67.1692 101.208 66.7909 101.655 66.3874 102.094L62.1724 106.666H70.062ZM74.731 100.819L73.1314 100.408L73.9204 92.5726H81.9937V94.4207H75.6172L75.1417 98.7006C75.4299 98.5348 75.7937 98.3799 76.2332 98.2358C76.6799 98.0917 77.1915 98.0197 77.7679 98.0197C78.4956 98.0197 79.1477 98.1458 79.7241 98.3979C80.3005 98.6429 80.7905 98.996 81.194 99.4571C81.6047 99.9182 81.9181 100.473 82.1342 101.121C82.3504 101.77 82.4585 102.494 82.4585 103.294C82.4585 104.05 82.354 104.746 82.145 105.38C81.9433 106.014 81.6371 106.569 81.2264 107.044C80.8157 107.512 80.2969 107.876 79.6701 108.136C79.0504 108.395 78.3191 108.525 77.4761 108.525C76.8421 108.525 76.2404 108.438 75.6712 108.265C75.1092 108.085 74.6049 107.815 74.1582 107.455C73.7186 107.087 73.3584 106.633 73.0774 106.093C72.8036 105.545 72.6307 104.904 72.5586 104.169H74.4608C74.5472 104.76 74.7202 105.257 74.9795 105.661C75.2389 106.064 75.5776 106.37 75.9955 106.579C76.4206 106.781 76.9141 106.882 77.4761 106.882C77.9517 106.882 78.3732 106.799 78.7406 106.633C79.1081 106.468 79.4179 106.23 79.6701 105.92C79.9223 105.61 80.1132 105.236 80.2429 104.796C80.3798 104.357 80.4482 103.863 80.4482 103.315C80.4482 102.818 80.3798 102.357 80.2429 101.932C80.106 101.507 79.9006 101.136 79.6268 100.819C79.3603 100.502 79.0324 100.257 78.6433 100.084C78.2543 99.9038 77.8075 99.8137 77.3032 99.8137C76.6331 99.8137 76.1252 99.9038 75.7793 100.084C75.4407 100.264 75.0912 100.509 74.731 100.819ZM94.5307 99.1869V101.586C94.5307 102.876 94.4154 103.964 94.1848 104.85C93.9542 105.736 93.6228 106.45 93.1905 106.99C92.7582 107.53 92.2358 107.923 91.6234 108.168C91.0182 108.406 90.3337 108.525 89.5699 108.525C88.9647 108.525 88.4063 108.449 87.8947 108.298C87.3832 108.146 86.922 107.905 86.5113 107.574C86.1079 107.235 85.762 106.796 85.4738 106.255C85.1856 105.715 84.9658 105.059 84.8145 104.288C84.6632 103.517 84.5876 102.617 84.5876 101.586V99.1869C84.5876 97.8972 84.7029 96.8164 84.9334 95.9446C85.1712 95.0728 85.5062 94.3739 85.9385 93.8479C86.3708 93.3147 86.8896 92.9328 87.4948 92.7023C88.1073 92.4717 88.7918 92.3564 89.5483 92.3564C90.1607 92.3564 90.7227 92.4321 91.2343 92.5834C91.7531 92.7275 92.2142 92.9617 92.6177 93.2859C93.0212 93.6029 93.3634 94.028 93.6444 94.5612C93.9326 95.0872 94.1524 95.732 94.3037 96.4958C94.455 97.2595 94.5307 98.1566 94.5307 99.1869ZM92.5204 101.91V98.8519C92.5204 98.1458 92.4772 97.5261 92.3907 96.9929C92.3115 96.4526 92.1926 95.9914 92.0341 95.6096C91.8756 95.2277 91.6738 94.9179 91.4288 94.6801C91.1911 94.4423 90.9137 94.2694 90.5967 94.1613C90.2868 94.046 89.9374 93.9884 89.5483 93.9884C89.0728 93.9884 88.6513 94.0785 88.2838 94.2586C87.9163 94.4315 87.6065 94.7089 87.3543 95.0908C87.1094 95.4727 86.922 95.9734 86.7923 96.5931C86.6627 97.2127 86.5978 97.9656 86.5978 98.8519V101.91C86.5978 102.617 86.6374 103.24 86.7167 103.78C86.8032 104.321 86.9292 104.789 87.095 105.185C87.2607 105.574 87.4624 105.895 87.7002 106.147C87.938 106.399 88.2118 106.587 88.5216 106.709C88.8386 106.824 89.1881 106.882 89.5699 106.882C90.0599 106.882 90.4886 106.788 90.856 106.601C91.2235 106.414 91.5297 106.122 91.7747 105.726C92.0269 105.322 92.2142 104.807 92.3367 104.18C92.4592 103.546 92.5204 102.789 92.5204 101.91ZM99.1347 105.931V107.541C99.1347 108.197 98.969 108.889 98.6376 109.616C98.3061 110.351 97.8414 110.964 97.2434 111.454L96.1086 110.665C96.3391 110.348 96.5337 110.023 96.6922 109.692C96.8507 109.368 96.9696 109.029 97.0489 108.676C97.1353 108.33 97.1785 107.963 97.1785 107.574V105.931H99.1347ZM111.347 99.1869V101.586C111.347 102.876 111.232 103.964 111.002 104.85C110.771 105.736 110.44 106.45 110.007 106.99C109.575 107.53 109.053 107.923 108.44 108.168C107.835 108.406 107.15 108.525 106.387 108.525C105.781 108.525 105.223 108.449 104.712 108.298C104.2 108.146 103.739 107.905 103.328 107.574C102.925 107.235 102.579 106.796 102.291 106.255C102.002 105.715 101.783 105.059 101.631 104.288C101.48 103.517 101.404 102.617 101.404 101.586V99.1869C101.404 97.8972 101.52 96.8164 101.75 95.9446C101.988 95.0728 102.323 94.3739 102.755 93.8479C103.188 93.3147 103.706 92.9328 104.312 92.7023C104.924 92.4717 105.609 92.3564 106.365 92.3564C106.978 92.3564 107.54 92.4321 108.051 92.5834C108.57 92.7275 109.031 92.9617 109.434 93.2859C109.838 93.6029 110.18 94.028 110.461 94.5612C110.749 95.0872 110.969 95.732 111.12 96.4958C111.272 97.2595 111.347 98.1566 111.347 99.1869ZM109.337 101.91V98.8519C109.337 98.1458 109.294 97.5261 109.208 96.9929C109.128 96.4526 109.009 95.9914 108.851 95.6096C108.692 95.2277 108.491 94.9179 108.246 94.6801C108.008 94.4423 107.73 94.2694 107.413 94.1613C107.104 94.046 106.754 93.9884 106.365 93.9884C105.89 93.9884 105.468 94.0785 105.101 94.2586C104.733 94.4315 104.423 94.7089 104.171 95.0908C103.926 95.4727 103.739 95.9734 103.609 96.5931C103.479 97.2127 103.415 97.9656 103.415 98.8519V101.91C103.415 102.617 103.454 103.24 103.533 103.78C103.62 104.321 103.746 104.789 103.912 105.185C104.077 105.574 104.279 105.895 104.517 106.147C104.755 106.399 105.029 106.587 105.338 106.709C105.655 106.824 106.005 106.882 106.387 106.882C106.877 106.882 107.305 106.788 107.673 106.601C108.04 106.414 108.346 106.122 108.591 105.726C108.844 105.322 109.031 104.807 109.153 104.18C109.276 103.546 109.337 102.789 109.337 101.91ZM123.798 99.1869V101.586C123.798 102.876 123.683 103.964 123.452 104.85C123.221 105.736 122.89 106.45 122.458 106.99C122.025 107.53 121.503 107.923 120.891 108.168C120.285 108.406 119.601 108.525 118.837 108.525C118.232 108.525 117.674 108.449 117.162 108.298C116.65 108.146 116.189 107.905 115.779 107.574C115.375 107.235 115.029 106.796 114.741 106.255C114.453 105.715 114.233 105.059 114.082 104.288C113.93 103.517 113.855 102.617 113.855 101.586V99.1869C113.855 97.8972 113.97 96.8164 114.201 95.9446C114.438 95.0728 114.773 94.3739 115.206 93.8479C115.638 93.3147 116.157 92.9328 116.762 92.7023C117.375 92.4717 118.059 92.3564 118.816 92.3564C119.428 92.3564 119.99 92.4321 120.502 92.5834C121.02 92.7275 121.481 92.9617 121.885 93.2859C122.288 93.6029 122.631 94.028 122.912 94.5612C123.2 95.0872 123.42 95.732 123.571 96.4958C123.722 97.2595 123.798 98.1566 123.798 99.1869ZM121.788 101.91V98.8519C121.788 98.1458 121.744 97.5261 121.658 96.9929C121.579 96.4526 121.46 95.9914 121.301 95.6096C121.143 95.2277 120.941 94.9179 120.696 94.6801C120.458 94.4423 120.181 94.2694 119.864 94.1613C119.554 94.046 119.205 93.9884 118.816 93.9884C118.34 93.9884 117.919 94.0785 117.551 94.2586C117.184 94.4315 116.874 94.7089 116.622 95.0908C116.377 95.4727 116.189 95.9734 116.06 96.5931C115.93 97.2127 115.865 97.9656 115.865 98.8519V101.91C115.865 102.617 115.905 103.24 115.984 103.78C116.07 104.321 116.196 104.789 116.362 105.185C116.528 105.574 116.73 105.895 116.967 106.147C117.205 106.399 117.479 106.587 117.789 106.709C118.106 106.824 118.455 106.882 118.837 106.882C119.327 106.882 119.756 106.788 120.123 106.601C120.491 106.414 120.797 106.122 121.042 105.726C121.294 105.322 121.481 104.807 121.604 104.18C121.726 103.546 121.788 102.789 121.788 101.91ZM136.248 99.1869V101.586C136.248 102.876 136.133 103.964 135.903 104.85C135.672 105.736 135.341 106.45 134.908 106.99C134.476 107.53 133.954 107.923 133.341 108.168C132.736 108.406 132.051 108.525 131.288 108.525C130.682 108.525 130.124 108.449 129.612 108.298C129.101 108.146 128.64 107.905 128.229 107.574C127.826 107.235 127.48 106.796 127.192 106.255C126.903 105.715 126.684 105.059 126.532 104.288C126.381 103.517 126.305 102.617 126.305 101.586V99.1869C126.305 97.8972 126.421 96.8164 126.651 95.9446C126.889 95.0728 127.224 94.3739 127.656 93.8479C128.089 93.3147 128.607 92.9328 129.213 92.7023C129.825 92.4717 130.509 92.3564 131.266 92.3564C131.878 92.3564 132.44 92.4321 132.952 92.5834C133.471 92.7275 133.932 92.9617 134.335 93.2859C134.739 93.6029 135.081 94.028 135.362 94.5612C135.65 95.0872 135.87 95.732 136.021 96.4958C136.173 97.2595 136.248 98.1566 136.248 99.1869ZM134.238 101.91V98.8519C134.238 98.1458 134.195 97.5261 134.108 96.9929C134.029 96.4526 133.91 95.9914 133.752 95.6096C133.593 95.2277 133.392 94.9179 133.147 94.6801C132.909 94.4423 132.631 94.2694 132.314 94.1613C132.005 94.046 131.655 93.9884 131.266 93.9884C130.79 93.9884 130.369 94.0785 130.002 94.2586C129.634 94.4315 129.324 94.7089 129.072 95.0908C128.827 95.4727 128.64 95.9734 128.51 96.5931C128.38 97.2127 128.316 97.9656 128.316 98.8519V101.91C128.316 102.617 128.355 103.24 128.434 103.78C128.521 104.321 128.647 104.789 128.813 105.185C128.978 105.574 129.18 105.895 129.418 106.147C129.656 106.399 129.929 106.587 130.239 106.709C130.556 106.824 130.906 106.882 131.288 106.882C131.778 106.882 132.206 106.788 132.574 106.601C132.941 106.414 133.247 106.122 133.492 105.726C133.745 105.322 133.932 104.807 134.054 104.18C134.177 103.546 134.238 102.789 134.238 101.91Z" fill="black"/>
<path d="M144.385 105.87C144.385 105.694 144.346 105.531 144.266 105.381C144.192 105.227 144.035 105.089 143.797 104.965C143.564 104.838 143.212 104.727 142.741 104.635C142.344 104.551 141.986 104.452 141.664 104.338C141.347 104.223 141.076 104.085 140.852 103.922C140.632 103.759 140.462 103.567 140.343 103.347C140.224 103.127 140.165 102.869 140.165 102.574C140.165 102.293 140.227 102.026 140.35 101.775C140.478 101.524 140.656 101.302 140.885 101.108C141.118 100.914 141.398 100.762 141.724 100.652C142.049 100.542 142.413 100.487 142.813 100.487C143.386 100.487 143.875 100.589 144.28 100.791C144.685 100.994 144.995 101.264 145.211 101.603C145.427 101.938 145.535 102.31 145.535 102.72H144.313C144.313 102.521 144.253 102.33 144.134 102.145C144.02 101.956 143.85 101.799 143.626 101.676C143.406 101.553 143.135 101.491 142.813 101.491C142.474 101.491 142.199 101.544 141.988 101.65C141.781 101.751 141.629 101.881 141.532 102.039C141.44 102.198 141.393 102.365 141.393 102.541C141.393 102.673 141.415 102.792 141.459 102.898C141.508 102.999 141.592 103.094 141.71 103.182C141.829 103.266 141.997 103.345 142.212 103.42C142.428 103.495 142.703 103.569 143.038 103.644C143.624 103.776 144.106 103.935 144.484 104.12C144.863 104.305 145.145 104.532 145.33 104.8C145.515 105.069 145.607 105.395 145.607 105.778C145.607 106.09 145.541 106.376 145.409 106.636C145.281 106.896 145.094 107.121 144.848 107.31C144.605 107.495 144.315 107.64 143.976 107.746C143.641 107.847 143.265 107.898 142.846 107.898C142.217 107.898 141.684 107.785 141.248 107.561C140.812 107.336 140.482 107.046 140.257 106.689C140.033 106.332 139.921 105.956 139.921 105.56H141.149C141.167 105.894 141.263 106.161 141.44 106.359C141.616 106.553 141.831 106.691 142.087 106.775C142.342 106.854 142.595 106.894 142.846 106.894C143.181 106.894 143.461 106.85 143.685 106.762C143.914 106.674 144.088 106.553 144.207 106.398C144.326 106.244 144.385 106.068 144.385 105.87ZM151.426 106.544V102.865C151.426 102.583 151.369 102.339 151.254 102.132C151.144 101.92 150.977 101.758 150.752 101.643C150.528 101.529 150.25 101.471 149.92 101.471C149.612 101.471 149.341 101.524 149.108 101.63C148.879 101.736 148.698 101.874 148.566 102.046C148.438 102.218 148.375 102.403 148.375 102.601H147.153C147.153 102.345 147.219 102.092 147.351 101.841C147.483 101.59 147.672 101.363 147.919 101.161C148.17 100.954 148.469 100.791 148.817 100.672C149.169 100.549 149.561 100.487 149.993 100.487C150.512 100.487 150.97 100.575 151.366 100.751C151.767 100.928 152.08 101.194 152.304 101.551C152.533 101.903 152.648 102.345 152.648 102.878V106.207C152.648 106.445 152.668 106.698 152.707 106.966C152.751 107.235 152.815 107.466 152.899 107.66V107.766H151.624C151.562 107.625 151.514 107.438 151.479 107.204C151.444 106.966 151.426 106.746 151.426 106.544ZM151.637 103.433L151.65 104.292H150.415C150.068 104.292 149.757 104.32 149.484 104.377C149.211 104.43 148.982 104.512 148.797 104.622C148.612 104.732 148.471 104.871 148.375 105.038C148.278 105.201 148.229 105.392 148.229 105.612C148.229 105.837 148.28 106.042 148.381 106.227C148.482 106.412 148.634 106.559 148.837 106.669C149.044 106.775 149.297 106.828 149.596 106.828C149.971 106.828 150.301 106.749 150.587 106.59C150.873 106.431 151.1 106.238 151.267 106.009C151.439 105.78 151.532 105.557 151.545 105.342L152.067 105.93C152.036 106.114 151.952 106.319 151.816 106.544C151.679 106.768 151.496 106.984 151.267 107.191C151.043 107.394 150.774 107.563 150.462 107.7C150.153 107.832 149.806 107.898 149.418 107.898C148.934 107.898 148.509 107.803 148.143 107.614C147.782 107.424 147.501 107.171 147.298 106.854C147.1 106.533 147.001 106.174 147.001 105.778C147.001 105.395 147.076 105.058 147.225 104.767C147.375 104.472 147.591 104.228 147.873 104.034C148.154 103.836 148.493 103.686 148.89 103.585C149.286 103.484 149.729 103.433 150.217 103.433H151.637ZM157.562 100.619V101.557H153.698V100.619H157.562ZM155.006 98.8823H156.228V105.996C156.228 106.238 156.265 106.42 156.34 106.544C156.415 106.667 156.512 106.749 156.63 106.788C156.749 106.828 156.877 106.848 157.013 106.848C157.115 106.848 157.22 106.839 157.331 106.821C157.445 106.799 157.531 106.782 157.588 106.768L157.595 107.766C157.498 107.796 157.37 107.825 157.212 107.851C157.058 107.882 156.87 107.898 156.65 107.898C156.351 107.898 156.076 107.838 155.825 107.719C155.574 107.601 155.373 107.402 155.224 107.125C155.078 106.843 155.006 106.464 155.006 105.989V98.8823ZM163.156 105.87C163.156 105.694 163.116 105.531 163.037 105.381C162.962 105.227 162.806 105.089 162.568 104.965C162.335 104.838 161.982 104.727 161.511 104.635C161.115 104.551 160.756 104.452 160.435 104.338C160.118 104.223 159.847 104.085 159.622 103.922C159.402 103.759 159.233 103.567 159.114 103.347C158.995 103.127 158.935 102.869 158.935 102.574C158.935 102.293 158.997 102.026 159.12 101.775C159.248 101.524 159.426 101.302 159.655 101.108C159.889 100.914 160.168 100.762 160.494 100.652C160.82 100.542 161.183 100.487 161.584 100.487C162.156 100.487 162.645 100.589 163.05 100.791C163.455 100.994 163.766 101.264 163.981 101.603C164.197 101.938 164.305 102.31 164.305 102.72H163.083C163.083 102.521 163.024 102.33 162.905 102.145C162.79 101.956 162.621 101.799 162.396 101.676C162.176 101.553 161.905 101.491 161.584 101.491C161.245 101.491 160.97 101.544 160.758 101.65C160.551 101.751 160.4 101.881 160.303 102.039C160.21 102.198 160.164 102.365 160.164 102.541C160.164 102.673 160.186 102.792 160.23 102.898C160.278 102.999 160.362 103.094 160.481 103.182C160.6 103.266 160.767 103.345 160.983 103.42C161.199 103.495 161.474 103.569 161.809 103.644C162.394 103.776 162.876 103.935 163.255 104.12C163.634 104.305 163.915 104.532 164.1 104.8C164.285 105.069 164.378 105.395 164.378 105.778C164.378 106.09 164.312 106.376 164.18 106.636C164.052 106.896 163.865 107.121 163.618 107.31C163.376 107.495 163.085 107.64 162.746 107.746C162.412 107.847 162.035 107.898 161.617 107.898C160.987 107.898 160.455 107.785 160.019 107.561C159.583 107.336 159.252 107.046 159.028 106.689C158.803 106.332 158.691 105.956 158.691 105.56H159.92C159.937 105.894 160.034 106.161 160.21 106.359C160.386 106.553 160.602 106.691 160.857 106.775C161.113 106.854 161.366 106.894 161.617 106.894C161.952 106.894 162.231 106.85 162.456 106.762C162.685 106.674 162.859 106.553 162.978 106.398C163.096 106.244 163.156 106.068 163.156 105.87Z" fill="black"/>
<path d="M99.6302 122.221V132.77H98.2972V123.886L95.6097 124.866V123.662L99.4212 122.221H99.6302ZM110.135 126.688V128.288C110.135 129.148 110.058 129.873 109.905 130.464C109.751 131.055 109.53 131.53 109.242 131.891C108.954 132.251 108.605 132.513 108.197 132.676C107.794 132.834 107.337 132.914 106.828 132.914C106.425 132.914 106.052 132.863 105.711 132.762C105.37 132.661 105.063 132.501 104.789 132.28C104.52 132.054 104.29 131.761 104.097 131.401C103.905 131.04 103.759 130.603 103.658 130.089C103.557 129.575 103.507 128.975 103.507 128.288V126.688C103.507 125.829 103.583 125.108 103.737 124.527C103.896 123.946 104.119 123.48 104.407 123.129C104.695 122.774 105.041 122.519 105.445 122.365C105.853 122.212 106.309 122.135 106.814 122.135C107.222 122.135 107.597 122.185 107.938 122.286C108.284 122.382 108.591 122.538 108.86 122.754C109.129 122.966 109.357 123.249 109.544 123.605C109.737 123.955 109.883 124.385 109.984 124.894C110.085 125.403 110.135 126.002 110.135 126.688ZM108.795 128.504V126.465C108.795 125.994 108.766 125.581 108.709 125.226C108.656 124.866 108.577 124.558 108.471 124.304C108.365 124.049 108.231 123.842 108.067 123.684C107.909 123.525 107.724 123.41 107.513 123.338C107.306 123.261 107.073 123.223 106.814 123.223C106.497 123.223 106.216 123.283 105.971 123.403C105.726 123.518 105.519 123.703 105.351 123.958C105.188 124.212 105.063 124.546 104.976 124.959C104.89 125.372 104.847 125.874 104.847 126.465V128.504C104.847 128.975 104.873 129.39 104.926 129.751C104.984 130.111 105.068 130.423 105.178 130.687C105.289 130.947 105.423 131.16 105.582 131.329C105.74 131.497 105.923 131.622 106.129 131.703C106.341 131.78 106.574 131.818 106.828 131.818C107.155 131.818 107.441 131.756 107.686 131.631C107.931 131.506 108.135 131.312 108.298 131.048C108.466 130.779 108.591 130.435 108.673 130.017C108.754 129.594 108.795 129.09 108.795 128.504ZM118.436 126.688V128.288C118.436 129.148 118.359 129.873 118.205 130.464C118.051 131.055 117.83 131.53 117.542 131.891C117.254 132.251 116.906 132.513 116.497 132.676C116.094 132.834 115.638 132.914 115.128 132.914C114.725 132.914 114.353 132.863 114.012 132.762C113.671 132.661 113.363 132.501 113.089 132.28C112.82 132.054 112.59 131.761 112.398 131.401C112.206 131.04 112.059 130.603 111.958 130.089C111.857 129.575 111.807 128.975 111.807 128.288V126.688C111.807 125.829 111.884 125.108 112.037 124.527C112.196 123.946 112.419 123.48 112.708 123.129C112.996 122.774 113.342 122.519 113.745 122.365C114.153 122.212 114.61 122.135 115.114 122.135C115.522 122.135 115.897 122.185 116.238 122.286C116.584 122.382 116.891 122.538 117.16 122.754C117.429 122.966 117.657 123.249 117.845 123.605C118.037 123.955 118.183 124.385 118.284 124.894C118.385 125.403 118.436 126.002 118.436 126.688ZM117.095 128.504V126.465C117.095 125.994 117.067 125.581 117.009 125.226C116.956 124.866 116.877 124.558 116.771 124.304C116.666 124.049 116.531 123.842 116.368 123.684C116.209 123.525 116.024 123.41 115.813 123.338C115.606 123.261 115.373 123.223 115.114 123.223C114.797 123.223 114.516 123.283 114.271 123.403C114.026 123.518 113.819 123.703 113.651 123.958C113.488 124.212 113.363 124.546 113.277 124.959C113.19 125.372 113.147 125.874 113.147 126.465V128.504C113.147 128.975 113.173 129.39 113.226 129.751C113.284 130.111 113.368 130.423 113.478 130.687C113.589 130.947 113.723 131.16 113.882 131.329C114.04 131.497 114.223 131.622 114.43 131.703C114.641 131.78 114.874 131.818 115.128 131.818C115.455 131.818 115.741 131.756 115.986 131.631C116.231 131.506 116.435 131.312 116.598 131.048C116.766 130.779 116.891 130.435 116.973 130.017C117.055 129.594 117.095 129.09 117.095 128.504ZM125.151 131.79C125.429 131.79 125.701 131.768 125.965 131.725C126.229 131.682 126.481 131.622 126.721 131.545L126.866 132.697C126.597 132.765 126.316 132.818 126.023 132.856C125.73 132.894 125.434 132.914 125.136 132.914C124.565 132.914 124.041 132.827 123.566 132.654C123.09 132.477 122.679 132.215 122.334 131.869C121.988 131.518 121.719 131.084 121.527 130.565C121.339 130.041 121.246 129.431 121.246 128.735V126.335C121.246 125.634 121.339 125.022 121.527 124.498C121.714 123.974 121.981 123.537 122.326 123.187C122.672 122.836 123.08 122.574 123.551 122.401C124.027 122.224 124.553 122.135 125.129 122.135C125.432 122.135 125.722 122.156 126.001 122.2C126.284 122.238 126.573 122.291 126.866 122.358L126.721 123.518C126.486 123.441 126.234 123.381 125.965 123.338C125.696 123.29 125.422 123.266 125.144 123.266C124.759 123.266 124.411 123.328 124.099 123.453C123.791 123.578 123.527 123.766 123.306 124.015C123.09 124.265 122.924 124.582 122.809 124.966C122.694 125.351 122.636 125.802 122.636 126.321V128.735C122.636 129.253 122.694 129.705 122.809 130.089C122.929 130.473 123.1 130.791 123.321 131.04C123.542 131.29 123.806 131.477 124.113 131.602C124.425 131.727 124.771 131.79 125.151 131.79ZM125.403 126.09V126.991H119.963V126.09H125.403ZM125.403 127.971V128.864H119.963V127.971H125.403Z" fill="#777777"/>
</g>
<defs>
<clipPath id="clip0_267_12335">
<rect width="221.342" height="491.87" fill="white"/>
</clipPath>
</defs>
</svg>
