<svg width="223" height="495" viewBox="0 0 223 495" fill="none" xmlns="http://www.w3.org/2000/svg">
<g clip-path="url(#clip0_267_12642)">
<rect width="222.467" height="494.372" fill="white"/>
<rect x="0.000854492" width="222.467" height="18.359" fill="#F1F1F1"/>
<circle cx="18.8998" cy="9.72119" r="3.77978" fill="#C4C4C4"/>
<circle cx="191.69" cy="9.72119" r="3.77978" fill="#C4C4C4"/>
<rect x="200.869" y="6.48047" width="6.47963" height="6.47963" fill="#C4C4C4"/>
<path d="M178.731 12.9609L174.99 6.48131L182.472 6.48131L178.731 12.9609Z" fill="#C4C4C4"/>
<path d="M22.2472 37.6968H14.7265L18.181 34.2424L17.3035 33.3711L12.3597 38.3148L17.3035 43.2585L18.1748 42.3872L14.7265 38.9328H22.2472V37.6968Z" fill="#1C1B1F"/>
<path d="M23.3953 62.2409V62.8516C23.3953 63.5774 23.3046 64.2279 23.1231 64.8032C22.9417 65.3786 22.6806 65.8676 22.3398 66.2703C21.9991 66.673 21.5897 66.9806 21.1117 67.193C20.6382 67.4055 20.1071 67.5117 19.5185 67.5117C18.9477 67.5117 18.4232 67.4055 17.9453 67.193C17.4717 66.9806 17.0602 66.673 16.7105 66.2703C16.3654 65.8676 16.0976 65.3786 15.9073 64.8032C15.717 64.2279 15.6219 63.5774 15.6219 62.8516V62.2409C15.6219 61.5151 15.7148 60.8667 15.9007 60.2958C16.091 59.7205 16.3587 59.2315 16.7039 58.8288C17.0491 58.4216 17.4585 58.1119 17.932 57.8994C18.4099 57.687 18.9344 57.5808 19.5053 57.5808C20.0939 57.5808 20.6249 57.687 21.0985 57.8994C21.5764 58.1119 21.9858 58.4216 22.3265 58.8288C22.6717 59.2315 22.9351 59.7205 23.1165 60.2958C23.3024 60.8667 23.3953 61.5151 23.3953 62.2409ZM22.1274 62.8516V62.2276C22.1274 61.6523 22.0676 61.1433 21.9482 60.7008C21.8331 60.2582 21.6627 59.8865 21.437 59.5856C21.2113 59.2846 20.9347 59.0567 20.6072 58.9018C20.2842 58.7469 19.9168 58.6695 19.5053 58.6695C19.107 58.6695 18.7463 58.7469 18.4232 58.9018C18.1046 59.0567 17.8302 59.2846 17.6001 59.5856C17.3744 59.8865 17.1996 60.2582 17.0757 60.7008C16.9517 61.1433 16.8898 61.6523 16.8898 62.2276V62.8516C16.8898 63.4313 16.9517 63.9447 17.0757 64.3917C17.1996 64.8342 17.3766 65.2082 17.6067 65.5135C17.8413 65.8145 18.1179 66.0424 18.4365 66.1973C18.7596 66.3522 19.1202 66.4296 19.5185 66.4296C19.9345 66.4296 20.3041 66.3522 20.6271 66.1973C20.9502 66.0424 21.2224 65.8145 21.4436 65.5135C21.6694 65.2082 21.8397 64.8342 21.9548 64.3917C22.0699 63.9447 22.1274 63.4313 22.1274 62.8516ZM26.356 61.577V70.1404H25.1213V60.1963H26.2498L26.356 61.577ZM31.1953 63.7278V63.8672C31.1953 64.3895 31.1333 64.8741 31.0094 65.321C30.8855 65.7636 30.7041 66.1486 30.4651 66.4761C30.2305 66.8036 29.9407 67.0581 29.5955 67.2395C29.2503 67.4209 28.8542 67.5117 28.4072 67.5117C27.9514 67.5117 27.5487 67.4364 27.199 67.286C26.8494 67.1355 26.5529 66.9164 26.3095 66.6288C26.0661 66.3411 25.8714 65.9959 25.7253 65.5932C25.5837 65.1905 25.4864 64.7369 25.4333 64.2324V63.4889C25.4864 62.9578 25.5859 62.4821 25.732 62.0616C25.878 61.6412 26.0705 61.2827 26.3095 60.9862C26.5529 60.6853 26.8472 60.4574 27.1924 60.3025C27.5376 60.1432 27.9359 60.0635 28.3873 60.0635C28.8387 60.0635 29.2392 60.152 29.5888 60.329C29.9384 60.5016 30.2327 60.7495 30.4717 61.0725C30.7107 61.3956 30.8899 61.7828 31.0094 62.2342C31.1333 62.6812 31.1953 63.1791 31.1953 63.7278ZM29.9606 63.8672V63.7278C29.9606 63.3694 29.923 63.033 29.8477 62.7188C29.7725 62.4002 29.6552 62.1214 29.4959 61.8824C29.341 61.639 29.1419 61.4487 28.8985 61.3115C28.655 61.1699 28.3652 61.0991 28.0288 61.0991C27.719 61.0991 27.4491 61.1522 27.219 61.2584C26.9933 61.3646 26.8008 61.5084 26.6414 61.6899C26.4821 61.8669 26.3516 62.0705 26.2498 62.3006C26.1524 62.5263 26.0794 62.7609 26.0307 63.0043V64.7236C26.1192 65.0334 26.2431 65.3255 26.4025 65.5998C26.5618 65.8698 26.7742 66.0889 27.0397 66.257C27.3053 66.4208 27.6394 66.5027 28.0421 66.5027C28.374 66.5027 28.6595 66.4341 28.8985 66.2969C29.1419 66.1552 29.341 65.9627 29.4959 65.7193C29.6552 65.4759 29.7725 65.1971 29.8477 64.8829C29.923 64.5643 29.9606 64.2257 29.9606 63.8672ZM35.7691 60.1963V61.1389H31.8857V60.1963H35.7691ZM33.2001 58.4504H34.4281V65.5998C34.4281 65.8432 34.4658 66.0269 34.541 66.1508C34.6162 66.2747 34.7136 66.3566 34.8331 66.3964C34.9526 66.4363 35.0809 66.4562 35.2181 66.4562C35.3199 66.4562 35.4261 66.4473 35.5367 66.4296C35.6518 66.4075 35.7381 66.3898 35.7956 66.3765L35.8023 67.3789C35.7049 67.4099 35.5766 67.4387 35.4173 67.4652C35.2624 67.4962 35.0743 67.5117 34.853 67.5117C34.5521 67.5117 34.2755 67.4519 34.0232 67.3324C33.771 67.2129 33.5696 67.0138 33.4191 66.735C33.2731 66.4518 33.2001 66.0712 33.2001 65.5932V58.4504ZM38.5439 60.1963V67.3789H37.3092V60.1963H38.5439ZM37.2162 58.2911C37.2162 58.0919 37.276 57.9238 37.3955 57.7866C37.5194 57.6494 37.7008 57.5808 37.9398 57.5808C38.1744 57.5808 38.3536 57.6494 38.4775 57.7866C38.6058 57.9238 38.67 58.0919 38.67 58.2911C38.67 58.4814 38.6058 58.6451 38.4775 58.7823C38.3536 58.9151 38.1744 58.9815 37.9398 58.9815C37.7008 58.9815 37.5194 58.9151 37.3955 58.7823C37.276 58.6451 37.2162 58.4814 37.2162 58.2911ZM40.1902 63.8672V63.7146C40.1902 63.1968 40.2654 62.7166 40.4159 62.2741C40.5664 61.8271 40.7832 61.4398 41.0664 61.1124C41.3497 60.7804 41.6927 60.5238 42.0954 60.3423C42.4981 60.1564 42.9495 60.0635 43.4496 60.0635C43.9541 60.0635 44.4077 60.1564 44.8104 60.3423C45.2176 60.5238 45.5628 60.7804 45.846 61.1124C46.1337 61.4398 46.3527 61.8271 46.5032 62.2741C46.6537 62.7166 46.7289 63.1968 46.7289 63.7146V63.8672C46.7289 64.385 46.6537 64.8652 46.5032 65.3078C46.3527 65.7503 46.1337 66.1375 45.846 66.4695C45.5628 66.7969 45.2198 67.0536 44.8171 67.2395C44.4188 67.4209 43.9674 67.5117 43.4629 67.5117C42.9584 67.5117 42.5047 67.4209 42.102 67.2395C41.6993 67.0536 41.3541 66.7969 41.0664 66.4695C40.7832 66.1375 40.5664 65.7503 40.4159 65.3078C40.2654 64.8652 40.1902 64.385 40.1902 63.8672ZM41.4183 63.7146V63.8672C41.4183 64.2257 41.4603 64.5643 41.5444 64.8829C41.6285 65.1971 41.7546 65.4759 41.9228 65.7193C42.0954 65.9627 42.31 66.1552 42.5667 66.2969C42.8234 66.4341 43.1221 66.5027 43.4629 66.5027C43.7992 66.5027 44.0935 66.4341 44.3458 66.2969C44.6024 66.1552 44.8149 65.9627 44.983 65.7193C45.1512 65.4759 45.2773 65.1971 45.3614 64.8829C45.4499 64.5643 45.4942 64.2257 45.4942 63.8672V63.7146C45.4942 63.3605 45.4499 63.0264 45.3614 62.7122C45.2773 62.3935 45.149 62.1125 44.9764 61.8691C44.8082 61.6213 44.5958 61.4266 44.3391 61.285C44.0869 61.1433 43.7904 61.0725 43.4496 61.0725C43.1132 61.0725 42.8167 61.1433 42.5601 61.285C42.3078 61.4266 42.0954 61.6213 41.9228 61.8691C41.7546 62.1125 41.6285 62.3935 41.5444 62.7122C41.4603 63.0264 41.4183 63.3605 41.4183 63.7146ZM49.4971 61.7297V67.3789H48.269V60.1963H49.4307L49.4971 61.7297ZM49.205 63.5154L48.6938 63.4955C48.6983 63.0043 48.7713 62.5507 48.9129 62.1347C49.0545 61.7142 49.2537 61.3491 49.5103 61.0393C49.767 60.7296 50.0724 60.4906 50.4264 60.3224C50.7849 60.1498 51.181 60.0635 51.6147 60.0635C51.9687 60.0635 52.2874 60.1122 52.5706 60.2096C52.8538 60.3025 53.095 60.453 53.2942 60.661C53.4977 60.869 53.6526 61.1389 53.7589 61.4708C53.8651 61.7983 53.9182 62.1988 53.9182 62.6724V67.3789H52.6835V62.6591C52.6835 62.2829 52.6281 61.982 52.5175 61.7563C52.4069 61.5261 52.2453 61.3602 52.0329 61.2584C51.8205 61.1522 51.5594 61.0991 51.2496 61.0991C50.9442 61.0991 50.6654 61.1633 50.4132 61.2916C50.1653 61.4199 49.9507 61.597 49.7692 61.8227C49.5922 62.0484 49.4528 62.3073 49.351 62.5993C49.2537 62.887 49.205 63.1924 49.205 63.5154ZM59.9657 65.4737C59.9657 65.2967 59.9258 65.133 59.8462 64.9825C59.7709 64.8276 59.6138 64.6882 59.3748 64.5643C59.1403 64.4359 58.7863 64.3253 58.3127 64.2324C57.9144 64.1483 57.5537 64.0487 57.2307 63.9336C56.912 63.8186 56.6399 63.6792 56.4142 63.5154C56.1929 63.3517 56.0225 63.1592 55.903 62.9379C55.7835 62.7166 55.7238 62.4577 55.7238 62.1612C55.7238 61.878 55.7857 61.6102 55.9097 61.358C56.038 61.1057 56.2172 60.8822 56.4474 60.6875C56.6819 60.4928 56.9629 60.3401 57.2904 60.2295C57.6179 60.1188 57.983 60.0635 58.3857 60.0635C58.9611 60.0635 59.4523 60.1653 59.8594 60.3689C60.2666 60.5724 60.5786 60.8446 60.7954 61.1854C61.0123 61.5217 61.1207 61.8957 61.1207 62.3073H59.8926C59.8926 62.1081 59.8329 61.9156 59.7134 61.7297C59.5983 61.5394 59.428 61.3823 59.2023 61.2584C58.981 61.1345 58.7088 61.0725 58.3857 61.0725C58.045 61.0725 57.7684 61.1256 57.556 61.2318C57.348 61.3336 57.1953 61.4642 57.0979 61.6235C57.005 61.7828 56.9585 61.951 56.9585 62.128C56.9585 62.2608 56.9806 62.3803 57.0249 62.4865C57.0736 62.5883 57.1577 62.6834 57.2771 62.7719C57.3966 62.856 57.5648 62.9357 57.7817 63.0109C57.9985 63.0861 58.2751 63.1614 58.6114 63.2366C59.2 63.3694 59.6846 63.5287 60.0652 63.7146C60.4458 63.9004 60.7291 64.1284 60.9149 64.3983C61.1008 64.6683 61.1937 64.9958 61.1937 65.3808C61.1937 65.695 61.1274 65.9827 60.9946 66.2438C60.8663 66.5049 60.6782 66.7306 60.4303 66.9209C60.1869 67.1067 59.8948 67.2528 59.5541 67.359C59.2177 67.4608 58.8394 67.5117 58.4189 67.5117C57.7861 67.5117 57.2506 67.3988 56.8125 67.1731C56.3743 66.9474 56.0424 66.6553 55.8167 66.2969C55.591 65.9384 55.4782 65.56 55.4782 65.1617H56.7129C56.7306 65.4981 56.828 65.7658 57.005 65.965C57.182 66.1597 57.3989 66.2991 57.6555 66.3832C57.9122 66.4628 58.1667 66.5027 58.4189 66.5027C58.7553 66.5027 59.0363 66.4584 59.262 66.3699C59.4921 66.2814 59.6669 66.1597 59.7864 66.0048C59.9059 65.8499 59.9657 65.6729 59.9657 65.4737Z" fill="#1C1B1F"/>
<mask id="path-8-inside-1_267_12642" fill="white">
<path d="M12.3594 95.168H210.108V127.302H12.3594V95.168Z"/>
</mask>
<path d="M210.108 126.993H12.3594V127.611H210.108V126.993Z" fill="#777777" fill-opacity="0.5" mask="url(#path-8-inside-1_267_12642)"/>
<path d="M18.5825 107.705V114.734H17.6459L14.1071 109.313V114.734H13.1753V107.705H14.1071L17.6604 113.141V107.705H18.5825ZM20.1708 112.18V112.069C20.1708 111.693 20.2256 111.344 20.335 111.022C20.4444 110.697 20.6021 110.415 20.8081 110.177C21.0141 109.935 21.2635 109.749 21.5564 109.617C21.8493 109.482 22.1776 109.414 22.5413 109.414C22.9082 109.414 23.2381 109.482 23.531 109.617C23.8271 109.749 24.0782 109.935 24.2842 110.177C24.4934 110.415 24.6527 110.697 24.7621 111.022C24.8716 111.344 24.9263 111.693 24.9263 112.069V112.18C24.9263 112.557 24.8716 112.906 24.7621 113.228C24.6527 113.55 24.4934 113.832 24.2842 114.073C24.0782 114.311 23.8287 114.498 23.5358 114.633C23.2462 114.765 22.9179 114.831 22.551 114.831C22.184 114.831 21.8541 114.765 21.5613 114.633C21.2684 114.498 21.0173 114.311 20.8081 114.073C20.6021 113.832 20.4444 113.55 20.335 113.228C20.2256 112.906 20.1708 112.557 20.1708 112.18ZM21.064 112.069V112.18C21.064 112.441 21.0946 112.687 21.1557 112.919C21.2169 113.148 21.3086 113.35 21.4309 113.527C21.5564 113.704 21.7125 113.844 21.8992 113.947C22.0859 114.047 22.3031 114.097 22.551 114.097C22.7956 114.097 23.0096 114.047 23.1931 113.947C23.3797 113.844 23.5342 113.704 23.6565 113.527C23.7788 113.35 23.8706 113.148 23.9317 112.919C23.9961 112.687 24.0283 112.441 24.0283 112.18V112.069C24.0283 111.812 23.9961 111.569 23.9317 111.34C23.8706 111.109 23.7772 110.904 23.6517 110.727C23.5294 110.547 23.3749 110.405 23.1882 110.302C23.0048 110.199 22.7891 110.148 22.5413 110.148C22.2967 110.148 22.0811 110.199 21.8944 110.302C21.7109 110.405 21.5564 110.547 21.4309 110.727C21.3086 110.904 21.2169 111.109 21.1557 111.34C21.0946 111.569 21.064 111.812 21.064 112.069ZM28.5423 109.511V110.196H25.718V109.511H28.5423ZM26.6739 108.241H27.5671V113.441C27.5671 113.618 27.5945 113.751 27.6492 113.841C27.7039 113.931 27.7747 113.991 27.8616 114.02C27.9485 114.049 28.0418 114.063 28.1416 114.063C28.2156 114.063 28.2929 114.057 28.3734 114.044C28.457 114.028 28.5198 114.015 28.5616 114.005L28.5665 114.734C28.4957 114.757 28.4023 114.778 28.2864 114.797C28.1738 114.82 28.037 114.831 27.8761 114.831C27.6572 114.831 27.4561 114.787 27.2726 114.701C27.0891 114.614 26.9427 114.469 26.8333 114.266C26.7271 114.06 26.6739 113.783 26.6739 113.436V108.241ZM30.8693 109.511V114.734H29.9714V109.511H30.8693ZM29.9038 108.125C29.9038 107.98 29.9472 107.858 30.0341 107.758C30.1242 107.658 30.2562 107.608 30.43 107.608C30.6006 107.608 30.7309 107.658 30.8211 107.758C30.9144 107.858 30.9611 107.98 30.9611 108.125C30.9611 108.263 30.9144 108.383 30.8211 108.482C30.7309 108.579 30.6006 108.627 30.43 108.627C30.2562 108.627 30.1242 108.579 30.0341 108.482C29.9472 108.383 29.9038 108.263 29.9038 108.125ZM33.9447 114.734H33.0515V108.96C33.0515 108.584 33.1191 108.267 33.2543 108.009C33.3927 107.748 33.5906 107.552 33.8481 107.42C34.1056 107.285 34.4114 107.217 34.7654 107.217C34.8684 107.217 34.9714 107.224 35.0744 107.237C35.1806 107.25 35.2836 107.269 35.3834 107.295L35.3351 108.024C35.2675 108.008 35.1903 107.996 35.1034 107.99C35.0197 107.983 34.936 107.98 34.8523 107.98C34.6624 107.98 34.4983 108.019 34.3599 108.096C34.2247 108.17 34.1217 108.28 34.0509 108.424C33.9801 108.569 33.9447 108.748 33.9447 108.96V114.734ZM35.0551 109.511V110.196H32.226V109.511H35.0551ZM37.8263 114.194L39.2795 109.511H40.2354L38.1401 115.541C38.0918 115.669 38.0274 115.808 37.947 115.956C37.8697 116.107 37.77 116.25 37.6476 116.385C37.5253 116.521 37.3773 116.63 37.2035 116.714C37.0329 116.801 36.8285 116.844 36.5904 116.844C36.5195 116.844 36.4294 116.834 36.32 116.815C36.2106 116.796 36.1333 116.78 36.0883 116.767L36.0834 116.043C36.1092 116.046 36.1494 116.049 36.2041 116.052C36.2621 116.059 36.3023 116.062 36.3248 116.062C36.5276 116.062 36.6998 116.035 36.8414 115.98C36.983 115.928 37.1021 115.84 37.1987 115.714C37.2984 115.592 37.3837 115.423 37.4545 115.208L37.8263 114.194ZM36.7593 109.511L38.116 113.566L38.3477 114.507L37.7056 114.836L35.7841 109.511H36.7593ZM43.8756 112.18V112.069C43.8756 111.693 43.9303 111.344 44.0397 111.022C44.1492 110.697 44.3069 110.415 44.5128 110.177C44.7188 109.935 44.9683 109.749 45.2612 109.617C45.5541 109.482 45.8823 109.414 46.246 109.414C46.613 109.414 46.9429 109.482 47.2358 109.617C47.5319 109.749 47.7829 109.935 47.9889 110.177C48.1981 110.415 48.3574 110.697 48.4669 111.022C48.5763 111.344 48.631 111.693 48.631 112.069V112.18C48.631 112.557 48.5763 112.906 48.4669 113.228C48.3574 113.55 48.1981 113.832 47.9889 114.073C47.7829 114.311 47.5335 114.498 47.2406 114.633C46.9509 114.765 46.6226 114.831 46.2557 114.831C45.8888 114.831 45.5589 114.765 45.266 114.633C44.9731 114.498 44.7221 114.311 44.5128 114.073C44.3069 113.832 44.1492 113.55 44.0397 113.228C43.9303 112.906 43.8756 112.557 43.8756 112.18ZM44.7687 112.069V112.18C44.7687 112.441 44.7993 112.687 44.8605 112.919C44.9216 113.148 45.0133 113.35 45.1356 113.527C45.2612 113.704 45.4173 113.844 45.6039 113.947C45.7906 114.047 46.0079 114.097 46.2557 114.097C46.5003 114.097 46.7143 114.047 46.8978 113.947C47.0845 113.844 47.239 113.704 47.3613 113.527C47.4836 113.35 47.5753 113.148 47.6365 112.919C47.7008 112.687 47.733 112.441 47.733 112.18V112.069C47.733 111.812 47.7008 111.569 47.6365 111.34C47.5753 111.109 47.482 110.904 47.3565 110.727C47.2341 110.547 47.0797 110.405 46.893 110.302C46.7095 110.199 46.4939 110.148 46.246 110.148C46.0014 110.148 45.7858 110.199 45.5991 110.302C45.4157 110.405 45.2612 110.547 45.1356 110.727C45.0133 110.904 44.9216 111.109 44.8605 111.34C44.7993 111.569 44.7687 111.812 44.7687 112.069ZM50.9532 110.626V114.734H50.06V109.511H50.9049L50.9532 110.626ZM50.7408 111.925L50.369 111.91C50.3722 111.553 50.4254 111.223 50.5284 110.92C50.6313 110.615 50.7762 110.349 50.9629 110.124C51.1495 109.898 51.3716 109.725 51.6291 109.602C51.8898 109.477 52.1779 109.414 52.4933 109.414C52.7508 109.414 52.9825 109.449 53.1885 109.52C53.3945 109.588 53.5699 109.697 53.7147 109.849C53.8628 110 53.9754 110.196 54.0527 110.438C54.1299 110.676 54.1685 110.967 54.1685 111.311V114.734H53.2706V111.302C53.2706 111.028 53.2303 110.809 53.1499 110.645C53.0694 110.478 52.9519 110.357 52.7974 110.283C52.6429 110.206 52.4531 110.167 52.2278 110.167C52.0057 110.167 51.8029 110.214 51.6194 110.307C51.4392 110.401 51.2831 110.529 51.1511 110.693C51.0224 110.858 50.921 111.046 50.847 111.258C50.7762 111.468 50.7408 111.69 50.7408 111.925ZM59.4888 110.515V116.743H58.5909V109.511H59.4116L59.4888 110.515ZM63.0083 112.079V112.18C63.0083 112.56 62.9633 112.913 62.8732 113.238C62.783 113.56 62.6511 113.84 62.4773 114.078C62.3067 114.316 62.0959 114.501 61.8448 114.633C61.5938 114.765 61.3057 114.831 60.9806 114.831C60.6491 114.831 60.3562 114.776 60.102 114.667C59.8477 114.557 59.6321 114.398 59.455 114.189C59.278 113.98 59.1364 113.729 59.0302 113.436C58.9272 113.143 58.8564 112.813 58.8178 112.446V111.905C58.8564 111.519 58.9288 111.173 59.035 110.867C59.1412 110.562 59.2812 110.301 59.455 110.085C59.6321 109.866 59.8461 109.701 60.0971 109.588C60.3482 109.472 60.6379 109.414 60.9662 109.414C61.2945 109.414 61.5857 109.478 61.84 109.607C62.0943 109.733 62.3083 109.913 62.4821 110.148C62.6559 110.383 62.7863 110.664 62.8732 110.993C62.9633 111.318 63.0083 111.68 63.0083 112.079ZM62.1104 112.18V112.079C62.1104 111.818 62.083 111.574 62.0283 111.345C61.9736 111.113 61.8883 110.911 61.7724 110.737C61.6598 110.56 61.5149 110.421 61.3379 110.322C61.1609 110.219 60.9501 110.167 60.7055 110.167C60.4802 110.167 60.2838 110.206 60.1165 110.283C59.9523 110.36 59.8123 110.465 59.6964 110.597C59.5806 110.726 59.4856 110.874 59.4116 111.041C59.3408 111.205 59.2877 111.376 59.2523 111.553V112.803C59.3166 113.029 59.4068 113.241 59.5226 113.441C59.6385 113.637 59.793 113.796 59.9861 113.918C60.1792 114.038 60.4222 114.097 60.7151 114.097C60.9565 114.097 61.1641 114.047 61.3379 113.947C61.5149 113.844 61.6598 113.704 61.7724 113.527C61.8883 113.35 61.9736 113.148 62.0283 112.919C62.083 112.687 62.1104 112.441 62.1104 112.18ZM67.5369 113.841V111.152C67.5369 110.946 67.495 110.767 67.4113 110.616C67.3309 110.462 67.2086 110.343 67.0444 110.259C66.8803 110.175 66.6775 110.133 66.4361 110.133C66.2108 110.133 66.0129 110.172 65.8423 110.249C65.6749 110.327 65.543 110.428 65.4464 110.553C65.3531 110.679 65.3064 110.814 65.3064 110.959H64.4132C64.4132 110.772 64.4615 110.587 64.5581 110.404C64.6546 110.22 64.793 110.055 64.9733 109.907C65.1567 109.755 65.3756 109.636 65.6299 109.549C65.8873 109.459 66.1738 109.414 66.4892 109.414C66.869 109.414 67.2037 109.478 67.4934 109.607C67.7863 109.736 68.0148 109.931 68.179 110.191C68.3463 110.449 68.43 110.772 68.43 111.162V113.595C68.43 113.769 68.4445 113.954 68.4735 114.15C68.5056 114.347 68.5523 114.516 68.6135 114.657V114.734H67.6817C67.6366 114.631 67.6012 114.495 67.5755 114.324C67.5497 114.15 67.5369 113.989 67.5369 113.841ZM67.6914 111.567L67.701 112.195H66.7982C66.5439 112.195 66.317 112.216 66.1175 112.258C65.9179 112.296 65.7506 112.356 65.6154 112.436C65.4802 112.517 65.3772 112.618 65.3064 112.74C65.2356 112.86 65.2002 113 65.2002 113.16C65.2002 113.325 65.2372 113.474 65.3112 113.609C65.3852 113.745 65.4963 113.852 65.6443 113.933C65.7956 114.01 65.9807 114.049 66.1995 114.049C66.4731 114.049 66.7145 113.991 66.9237 113.875C67.1329 113.759 67.2987 113.618 67.421 113.45C67.5465 113.283 67.6141 113.12 67.6238 112.963L68.0052 113.392C67.9826 113.527 67.9215 113.677 67.8217 113.841C67.7219 114.005 67.5884 114.163 67.421 114.314C67.2568 114.462 67.0605 114.586 66.832 114.686C66.6067 114.783 66.3524 114.831 66.0692 114.831C65.7152 114.831 65.4046 114.762 65.1374 114.623C64.8735 114.485 64.6675 114.3 64.5195 114.068C64.3746 113.833 64.3022 113.571 64.3022 113.281C64.3022 113.001 64.3569 112.755 64.4663 112.543C64.5758 112.327 64.7335 112.148 64.9395 112.007C65.1455 111.862 65.3933 111.752 65.683 111.678C65.9726 111.604 66.2961 111.567 66.6534 111.567H67.6914ZM71.5343 114.194L72.9875 109.511H73.9434L71.8481 115.541C71.7999 115.669 71.7355 115.808 71.655 115.956C71.5778 116.107 71.478 116.25 71.3557 116.385C71.2334 116.521 71.0853 116.63 70.9115 116.714C70.7409 116.801 70.5366 116.844 70.2984 116.844C70.2276 116.844 70.1375 116.834 70.028 116.815C69.9186 116.796 69.8414 116.78 69.7963 116.767L69.7915 116.043C69.8172 116.046 69.8574 116.049 69.9122 116.052C69.9701 116.059 70.0103 116.062 70.0329 116.062C70.2356 116.062 70.4078 116.035 70.5494 115.98C70.6911 115.928 70.8101 115.84 70.9067 115.714C71.0065 115.592 71.0918 115.423 71.1626 115.208L71.5343 114.194ZM70.4674 109.511L71.824 113.566L72.0557 114.507L71.4136 114.836L69.4921 109.511H70.4674ZM75.947 110.549V114.734H75.049V109.511H75.8987L75.947 110.549ZM75.7635 111.925L75.3483 111.91C75.3515 111.553 75.3982 111.223 75.4883 110.92C75.5784 110.615 75.712 110.349 75.889 110.124C76.0661 109.898 76.2865 109.725 76.5505 109.602C76.8144 109.477 77.1201 109.414 77.4677 109.414C77.7124 109.414 77.9377 109.449 78.1436 109.52C78.3496 109.588 78.5283 109.696 78.6795 109.844C78.8308 109.992 78.9483 110.182 79.032 110.413C79.1157 110.645 79.1575 110.925 79.1575 111.253V114.734H78.2643V111.297C78.2643 111.023 78.2177 110.805 78.1243 110.64C78.0342 110.476 77.9055 110.357 77.7381 110.283C77.5707 110.206 77.3744 110.167 77.1491 110.167C76.8852 110.167 76.6647 110.214 76.4877 110.307C76.3107 110.401 76.1691 110.529 76.0628 110.693C75.9566 110.858 75.8794 111.046 75.8311 111.258C75.786 111.468 75.7635 111.69 75.7635 111.925ZM79.1478 111.432L78.5492 111.616C78.5524 111.329 78.5991 111.054 78.6892 110.79C78.7825 110.526 78.9161 110.291 79.0899 110.085C79.2669 109.879 79.4842 109.717 79.7417 109.598C79.9991 109.475 80.2936 109.414 80.6252 109.414C80.9052 109.414 81.153 109.451 81.3686 109.525C81.5875 109.599 81.771 109.713 81.919 109.868C82.0703 110.019 82.1846 110.214 82.2618 110.452C82.339 110.69 82.3777 110.973 82.3777 111.302V114.734H81.4797V111.292C81.4797 110.999 81.433 110.772 81.3397 110.611C81.2496 110.447 81.1208 110.333 80.9535 110.269C80.7893 110.201 80.593 110.167 80.3645 110.167C80.1681 110.167 79.9943 110.201 79.843 110.269C79.6918 110.336 79.5646 110.43 79.4616 110.549C79.3587 110.664 79.2798 110.798 79.2251 110.949C79.1736 111.101 79.1478 111.262 79.1478 111.432ZM86.2062 114.831C85.8425 114.831 85.5126 114.77 85.2164 114.647C84.9236 114.522 84.6709 114.347 84.4585 114.121C84.2493 113.896 84.0883 113.629 83.9757 113.32C83.863 113.011 83.8067 112.673 83.8067 112.306V112.103C83.8067 111.678 83.8695 111.3 83.995 110.969C84.1205 110.634 84.2911 110.351 84.5068 110.119C84.7224 109.887 84.967 109.712 85.2406 109.593C85.5142 109.474 85.7974 109.414 86.0903 109.414C86.4636 109.414 86.7855 109.478 87.0559 109.607C87.3294 109.736 87.5531 109.916 87.7269 110.148C87.9007 110.376 88.0295 110.647 88.1132 110.959C88.1968 111.268 88.2387 111.606 88.2387 111.973V112.374H84.3378V111.645H87.3455V111.577C87.3327 111.345 87.2844 111.12 87.2007 110.901C87.1202 110.682 86.9915 110.502 86.8145 110.36C86.6374 110.219 86.3961 110.148 86.0903 110.148C85.8875 110.148 85.7008 110.191 85.5303 110.278C85.3597 110.362 85.2132 110.487 85.0909 110.655C84.9686 110.822 84.8737 111.027 84.8061 111.268C84.7385 111.509 84.7047 111.788 84.7047 112.103V112.306C84.7047 112.554 84.7385 112.787 84.8061 113.006C84.8769 113.222 84.9783 113.412 85.1102 113.576C85.2454 113.74 85.408 113.869 85.5978 113.962C85.791 114.055 86.0098 114.102 86.2544 114.102C86.5699 114.102 86.837 114.038 87.0559 113.909C87.2747 113.78 87.4662 113.608 87.6304 113.392L88.1711 113.822C88.0584 113.992 87.9152 114.155 87.7414 114.31C87.5676 114.464 87.3536 114.59 87.0993 114.686C86.8483 114.783 86.5505 114.831 86.2062 114.831ZM90.4836 110.626V114.734H89.5905V109.511H90.4354L90.4836 110.626ZM90.2712 111.925L89.8995 111.91C89.9027 111.553 89.9558 111.223 90.0588 110.92C90.1618 110.615 90.3066 110.349 90.4933 110.124C90.68 109.898 90.902 109.725 91.1595 109.602C91.4202 109.477 91.7083 109.414 92.0237 109.414C92.2812 109.414 92.5129 109.449 92.7189 109.52C92.9249 109.588 93.1003 109.697 93.2452 109.849C93.3932 110 93.5059 110.196 93.5831 110.438C93.6604 110.676 93.699 110.967 93.699 111.311V114.734H92.801V111.302C92.801 111.028 92.7608 110.809 92.6803 110.645C92.5998 110.478 92.4824 110.357 92.3279 110.283C92.1734 110.206 91.9835 110.167 91.7582 110.167C91.5361 110.167 91.3333 110.214 91.1499 110.307C90.9696 110.401 90.8135 110.529 90.6816 110.693C90.5528 110.858 90.4514 111.046 90.3774 111.258C90.3066 111.468 90.2712 111.69 90.2712 111.925ZM97.5516 109.511V110.196H94.7273V109.511H97.5516ZM95.6832 108.241H96.5764V113.441C96.5764 113.618 96.6037 113.751 96.6585 113.841C96.7132 113.931 96.784 113.991 96.8709 114.02C96.9578 114.049 97.0511 114.063 97.1509 114.063C97.2249 114.063 97.3022 114.057 97.3826 114.044C97.4663 114.028 97.5291 114.015 97.5709 114.005L97.5757 114.734C97.5049 114.757 97.4116 114.778 97.2957 114.797C97.1831 114.82 97.0463 114.831 96.8854 114.831C96.6665 114.831 96.4653 114.787 96.2819 114.701C96.0984 114.614 95.952 114.469 95.8425 114.266C95.7363 114.06 95.6832 113.783 95.6832 113.436V108.241Z" fill="black"/>
<rect x="177.974" y="101.348" width="32.1342" height="19.7749" rx="9.88743" fill="#F7931A"/>
<circle cx="200.839" cy="111.236" r="7.41558" fill="white"/>
<path d="M14.1746 139.838V146.867H13.2429V139.838H14.1746ZM16.9362 142.759V146.867H16.043V141.643H16.8879L16.9362 142.759ZM16.7238 144.057L16.352 144.043C16.3552 143.686 16.4083 143.356 16.5113 143.053C16.6143 142.747 16.7592 142.482 16.9458 142.257C17.1325 142.031 17.3546 141.857 17.6121 141.735C17.8728 141.61 18.1608 141.547 18.4763 141.547C18.7337 141.547 18.9655 141.582 19.1715 141.653C19.3775 141.721 19.5529 141.83 19.6977 141.981C19.8458 142.133 19.9584 142.329 20.0357 142.57C20.1129 142.809 20.1515 143.1 20.1515 143.444V146.867H19.2535V143.435C19.2535 143.161 19.2133 142.942 19.1328 142.778C19.0524 142.611 18.9349 142.49 18.7804 142.416C18.6259 142.339 18.436 142.3 18.2107 142.3C17.9886 142.3 17.7859 142.347 17.6024 142.44C17.4222 142.533 17.2661 142.662 17.1341 142.826C17.0054 142.99 16.904 143.179 16.83 143.391C16.7592 143.6 16.7238 143.822 16.7238 144.057ZM23.9076 146.23C24.12 146.23 24.3163 146.186 24.4966 146.1C24.6768 146.013 24.8249 145.894 24.9407 145.742C25.0566 145.588 25.1226 145.412 25.1387 145.216H25.9884C25.9723 145.525 25.8677 145.813 25.6746 146.08C25.4847 146.344 25.2352 146.558 24.9263 146.722C24.6173 146.883 24.2777 146.964 23.9076 146.964C23.5149 146.964 23.1721 146.895 22.8793 146.756C22.5896 146.618 22.3482 146.428 22.1551 146.186C21.9652 145.945 21.822 145.668 21.7254 145.356C21.6321 145.041 21.5854 144.708 21.5854 144.357V144.154C21.5854 143.803 21.6321 143.472 21.7254 143.159C21.822 142.844 21.9652 142.566 22.1551 142.324C22.3482 142.083 22.5896 141.893 22.8793 141.754C23.1721 141.616 23.5149 141.547 23.9076 141.547C24.3163 141.547 24.6736 141.631 24.9794 141.798C25.2851 141.962 25.5249 142.187 25.6987 142.474C25.8757 142.757 25.9723 143.079 25.9884 143.439H25.1387C25.1226 143.224 25.0614 143.029 24.9552 142.855C24.8522 142.681 24.7106 142.543 24.5304 142.44C24.3534 142.334 24.1458 142.281 23.9076 142.281C23.634 142.281 23.4039 142.335 23.2172 142.445C23.0337 142.551 22.8873 142.696 22.7779 142.879C22.6717 143.06 22.5944 143.261 22.5461 143.483C22.5011 143.702 22.4785 143.925 22.4785 144.154V144.357C22.4785 144.585 22.5011 144.811 22.5461 145.033C22.5912 145.255 22.6668 145.456 22.773 145.636C22.8825 145.816 23.0289 145.961 23.2124 146.071C23.3991 146.177 23.6308 146.23 23.9076 146.23ZM28.272 139.452V146.867H27.374V139.452H28.272ZM33.2109 145.66V141.643H34.1088V146.867H33.2543L33.2109 145.66ZM33.3798 144.559L33.7516 144.55C33.7516 144.897 33.7146 145.219 33.6405 145.515C33.5697 145.808 33.4539 146.063 33.2929 146.278C33.132 146.494 32.9212 146.663 32.6605 146.785C32.3998 146.904 32.0827 146.964 31.7094 146.964C31.4551 146.964 31.2218 146.927 31.0094 146.853C30.8001 146.779 30.6199 146.664 30.4686 146.51C30.3174 146.355 30.1999 146.154 30.1162 145.906C30.0357 145.659 29.9955 145.361 29.9955 145.013V141.643H30.8887V145.023C30.8887 145.258 30.9144 145.453 30.9659 145.607C31.0206 145.758 31.093 145.879 31.1832 145.969C31.2765 146.056 31.3795 146.117 31.4921 146.153C31.608 146.188 31.7271 146.206 31.8494 146.206C32.2292 146.206 32.5301 146.133 32.7522 145.989C32.9743 145.84 33.1336 145.643 33.2302 145.395C33.3299 145.144 33.3798 144.865 33.3798 144.559ZM39.0719 145.853V139.452H39.9698V146.867H39.1491L39.0719 145.853ZM35.5572 144.313V144.212C35.5572 143.813 35.6055 143.451 35.702 143.126C35.8018 142.797 35.9418 142.516 36.122 142.281C36.3055 142.046 36.5228 141.866 36.7738 141.74C37.0281 141.611 37.3113 141.547 37.6235 141.547C37.9518 141.547 38.2383 141.605 38.4829 141.721C38.7307 141.833 38.9399 141.999 39.1105 142.218C39.2843 142.434 39.4211 142.694 39.5209 143C39.6206 143.306 39.6898 143.652 39.7285 144.038V144.482C39.693 144.865 39.6238 145.21 39.5209 145.515C39.4211 145.821 39.2843 146.082 39.1105 146.298C38.9399 146.513 38.7307 146.679 38.4829 146.795C38.235 146.907 37.9454 146.964 37.6139 146.964C37.3081 146.964 37.0281 146.898 36.7738 146.766C36.5228 146.634 36.3055 146.449 36.122 146.211C35.9418 145.972 35.8018 145.692 35.702 145.371C35.6055 145.045 35.5572 144.693 35.5572 144.313ZM36.4552 144.212V144.313C36.4552 144.574 36.4809 144.819 36.5324 145.047C36.5871 145.276 36.6708 145.477 36.7835 145.651C36.8961 145.824 37.0393 145.961 37.2131 146.061C37.3869 146.157 37.5945 146.206 37.8359 146.206C38.132 146.206 38.375 146.143 38.5649 146.017C38.7581 145.892 38.9125 145.726 39.0284 145.52C39.1443 145.314 39.2344 145.091 39.2988 144.849V143.686C39.2601 143.509 39.2038 143.338 39.1298 143.174C39.059 143.007 38.9657 142.858 38.8498 142.73C38.7371 142.598 38.5971 142.493 38.4298 142.416C38.2656 142.339 38.0709 142.3 37.8456 142.3C37.601 142.3 37.3902 142.352 37.2131 142.455C37.0393 142.554 36.8961 142.693 36.7835 142.87C36.6708 143.044 36.5871 143.246 36.5324 143.478C36.4809 143.707 36.4552 143.951 36.4552 144.212ZM43.837 146.964C43.4733 146.964 43.1433 146.903 42.8472 146.78C42.5544 146.655 42.3017 146.479 42.0893 146.254C41.8801 146.029 41.7191 145.762 41.6065 145.453C41.4938 145.144 41.4375 144.806 41.4375 144.439V144.236C41.4375 143.811 41.5003 143.433 41.6258 143.101C41.7513 142.767 41.9219 142.484 42.1375 142.252C42.3532 142.02 42.5978 141.845 42.8714 141.726C43.145 141.606 43.4282 141.547 43.7211 141.547C44.0944 141.547 44.4163 141.611 44.6867 141.74C44.9602 141.869 45.1839 142.049 45.3577 142.281C45.5315 142.509 45.6603 142.78 45.744 143.092C45.8276 143.401 45.8695 143.739 45.8695 144.106V144.506H41.9686V143.777H44.9763V143.71C44.9634 143.478 44.9152 143.253 44.8315 143.034C44.751 142.815 44.6223 142.635 44.4453 142.493C44.2682 142.352 44.0268 142.281 43.7211 142.281C43.5183 142.281 43.3316 142.324 43.1611 142.411C42.9905 142.495 42.844 142.62 42.7217 142.788C42.5994 142.955 42.5045 143.159 42.4369 143.401C42.3693 143.642 42.3355 143.921 42.3355 144.236V144.439C42.3355 144.687 42.3693 144.92 42.4369 145.139C42.5077 145.354 42.6091 145.544 42.741 145.709C42.8762 145.873 43.0387 146.001 43.2286 146.095C43.4218 146.188 43.6406 146.235 43.8852 146.235C44.2006 146.235 44.4678 146.17 44.6867 146.042C44.9055 145.913 45.097 145.741 45.2612 145.525L45.8019 145.955C45.6892 146.125 45.546 146.288 45.3722 146.442C45.1984 146.597 44.9844 146.722 44.7301 146.819C44.4791 146.915 44.1813 146.964 43.837 146.964ZM49.7462 144.313V144.202C49.7462 143.826 49.801 143.476 49.9104 143.155C50.0198 142.829 50.1775 142.548 50.3835 142.31C50.5895 142.068 50.8389 141.882 51.1318 141.75C51.4247 141.614 51.753 141.547 52.1167 141.547C52.4836 141.547 52.8135 141.614 53.1064 141.75C53.4025 141.882 53.6536 142.068 53.8596 142.31C54.0688 142.548 54.2281 142.829 54.3375 143.155C54.447 143.476 54.5017 143.826 54.5017 144.202V144.313C54.5017 144.69 54.447 145.039 54.3375 145.361C54.2281 145.683 54.0688 145.964 53.8596 146.206C53.6536 146.444 53.4041 146.631 53.1112 146.766C52.8216 146.898 52.4933 146.964 52.1264 146.964C51.7594 146.964 51.4295 146.898 51.1367 146.766C50.8438 146.631 50.5927 146.444 50.3835 146.206C50.1775 145.964 50.0198 145.683 49.9104 145.361C49.801 145.039 49.7462 144.69 49.7462 144.313ZM50.6394 144.202V144.313C50.6394 144.574 50.67 144.82 50.7311 145.052C50.7923 145.28 50.884 145.483 51.0063 145.66C51.1318 145.837 51.2879 145.977 51.4746 146.08C51.6613 146.18 51.8785 146.23 52.1264 146.23C52.371 146.23 52.585 146.18 52.7685 146.08C52.9551 145.977 53.1096 145.837 53.2319 145.66C53.3542 145.483 53.446 145.28 53.5071 145.052C53.5715 144.82 53.6037 144.574 53.6037 144.313V144.202C53.6037 143.945 53.5715 143.702 53.5071 143.473C53.446 143.241 53.3526 143.037 53.2271 142.86C53.1048 142.68 52.9503 142.538 52.7636 142.435C52.5802 142.332 52.3645 142.281 52.1167 142.281C51.8721 142.281 51.6565 142.332 51.4698 142.435C51.2863 142.538 51.1318 142.68 51.0063 142.86C50.884 143.037 50.7923 143.241 50.7311 143.473C50.67 143.702 50.6394 143.945 50.6394 144.202ZM56.8239 142.759V146.867H55.9307V141.643H56.7756L56.8239 142.759ZM56.6114 144.057L56.2397 144.043C56.2429 143.686 56.296 143.356 56.399 143.053C56.502 142.747 56.6468 142.482 56.8335 142.257C57.0202 142.031 57.2423 141.857 57.4998 141.735C57.7605 141.61 58.0485 141.547 58.3639 141.547C58.6214 141.547 58.8532 141.582 59.0592 141.653C59.2651 141.721 59.4406 141.83 59.5854 141.981C59.7334 142.133 59.8461 142.329 59.9233 142.57C60.0006 142.809 60.0392 143.1 60.0392 143.444V146.867H59.1412V143.435C59.1412 143.161 59.101 142.942 59.0205 142.778C58.9401 142.611 58.8226 142.49 58.6681 142.416C58.5136 142.339 58.3237 142.3 58.0984 142.3C57.8763 142.3 57.6736 142.347 57.4901 142.44C57.3099 142.533 57.1538 142.662 57.0218 142.826C56.8931 142.99 56.7917 143.179 56.7177 143.391C56.6468 143.6 56.6114 143.822 56.6114 144.057ZM63.5635 143.512V144.246H61.2076V143.512H63.5635ZM66.8368 146.23C67.0493 146.23 67.2456 146.186 67.4258 146.1C67.6061 146.013 67.7541 145.894 67.87 145.742C67.9859 145.588 68.0518 145.412 68.0679 145.216H68.9176C68.9015 145.525 68.7969 145.813 68.6038 146.08C68.4139 146.344 68.1645 146.558 67.8555 146.722C67.5465 146.883 67.207 146.964 66.8368 146.964C66.4442 146.964 66.1014 146.895 65.8085 146.756C65.5188 146.618 65.2774 146.428 65.0843 146.186C64.8944 145.945 64.7512 145.668 64.6546 145.356C64.5613 145.041 64.5146 144.708 64.5146 144.357V144.154C64.5146 143.803 64.5613 143.472 64.6546 143.159C64.7512 142.844 64.8944 142.566 65.0843 142.324C65.2774 142.083 65.5188 141.893 65.8085 141.754C66.1014 141.616 66.4442 141.547 66.8368 141.547C67.2456 141.547 67.6028 141.631 67.9086 141.798C68.2144 141.962 68.4542 142.187 68.628 142.474C68.805 142.757 68.9015 143.079 68.9176 143.439H68.0679C68.0518 143.224 67.9907 143.029 67.8845 142.855C67.7815 142.681 67.6399 142.543 67.4596 142.44C67.2826 142.334 67.075 142.281 66.8368 142.281C66.5632 142.281 66.3331 142.335 66.1464 142.445C65.963 142.551 65.8165 142.696 65.7071 142.879C65.6009 143.06 65.5236 143.261 65.4754 143.483C65.4303 143.702 65.4078 143.925 65.4078 144.154V144.357C65.4078 144.585 65.4303 144.811 65.4754 145.033C65.5204 145.255 65.5961 145.456 65.7023 145.636C65.8117 145.816 65.9582 145.961 66.1416 146.071C66.3283 146.177 66.56 146.23 66.8368 146.23ZM71.124 139.452V146.867H70.2308V139.452H71.124ZM70.9115 144.057L70.5398 144.043C70.543 143.686 70.5961 143.356 70.6991 143.053C70.8021 142.747 70.9469 142.482 71.1336 142.257C71.3203 142.031 71.5424 141.857 71.7999 141.735C72.0606 141.61 72.3486 141.547 72.664 141.547C72.9215 141.547 73.1533 141.582 73.3592 141.653C73.5652 141.721 73.7406 141.83 73.8855 141.981C74.0335 142.133 74.1462 142.329 74.2234 142.57C74.3007 142.809 74.3393 143.1 74.3393 143.444V146.867H73.4413V143.435C73.4413 143.161 73.4011 142.942 73.3206 142.778C73.2402 142.611 73.1227 142.49 72.9682 142.416C72.8137 142.339 72.6238 142.3 72.3985 142.3C72.1764 142.3 71.9737 142.347 71.7902 142.44C71.61 142.533 71.4539 142.662 71.3219 142.826C71.1932 142.99 71.0918 143.179 71.0177 143.391C70.9469 143.6 70.9115 143.822 70.9115 144.057ZM79.0658 145.974V143.285C79.0658 143.079 79.0239 142.9 78.9402 142.749C78.8598 142.595 78.7375 142.475 78.5733 142.392C78.4092 142.308 78.2064 142.266 77.965 142.266C77.7397 142.266 77.5418 142.305 77.3712 142.382C77.2038 142.459 77.0719 142.561 76.9753 142.686C76.882 142.812 76.8353 142.947 76.8353 143.092H75.9421C75.9421 142.905 75.9904 142.72 76.087 142.537C76.1835 142.353 76.3219 142.187 76.5022 142.039C76.6856 141.888 76.9045 141.769 77.1588 141.682C77.4162 141.592 77.7027 141.547 78.0181 141.547C78.3979 141.547 78.7326 141.611 79.0223 141.74C79.3152 141.869 79.5437 142.063 79.7079 142.324C79.8752 142.582 79.9589 142.905 79.9589 143.295V145.728C79.9589 145.902 79.9734 146.087 80.0024 146.283C80.0346 146.479 80.0812 146.648 80.1424 146.79V146.867H79.2106C79.1655 146.764 79.1301 146.627 79.1044 146.457C79.0786 146.283 79.0658 146.122 79.0658 145.974ZM79.2203 143.7L79.2299 144.328H78.3271C78.0728 144.328 77.8459 144.349 77.6464 144.391C77.4468 144.429 77.2795 144.489 77.1443 144.569C77.0091 144.65 76.9061 144.751 76.8353 144.873C76.7645 144.992 76.7291 145.132 76.7291 145.293C76.7291 145.457 76.7661 145.607 76.8401 145.742C76.9142 145.877 77.0252 145.985 77.1732 146.066C77.3245 146.143 77.5096 146.182 77.7285 146.182C78.002 146.182 78.2434 146.124 78.4526 146.008C78.6618 145.892 78.8276 145.75 78.9499 145.583C79.0754 145.416 79.143 145.253 79.1527 145.095L79.5341 145.525C79.5115 145.66 79.4504 145.81 79.3506 145.974C79.2508 146.138 79.1173 146.296 78.9499 146.447C78.7857 146.595 78.5894 146.719 78.3609 146.819C78.1356 146.915 77.8813 146.964 77.5981 146.964C77.2441 146.964 76.9335 146.895 76.6663 146.756C76.4024 146.618 76.1964 146.433 76.0484 146.201C75.9035 145.966 75.8311 145.704 75.8311 145.414C75.8311 145.134 75.8858 144.888 75.9953 144.675C76.1047 144.46 76.2624 144.281 76.4684 144.139C76.6744 143.995 76.9222 143.885 77.2119 143.811C77.5015 143.737 77.825 143.7 78.1823 143.7H79.2203ZM82.6432 141.643V146.867H81.7452V141.643H82.6432ZM81.6776 140.258C81.6776 140.113 81.7211 139.991 81.808 139.891C81.8981 139.791 82.0301 139.741 82.2039 139.741C82.3745 139.741 82.5048 139.791 82.5949 139.891C82.6883 139.991 82.7349 140.113 82.7349 140.258C82.7349 140.396 82.6883 140.515 82.5949 140.615C82.5048 140.712 82.3745 140.76 82.2039 140.76C82.0301 140.76 81.8981 140.712 81.808 140.615C81.7211 140.515 81.6776 140.396 81.6776 140.258ZM85.2792 142.759V146.867H84.3861V141.643H85.2309L85.2792 142.759ZM85.0668 144.057L84.695 144.043C84.6983 143.686 84.7514 143.356 84.8544 143.053C84.9574 142.747 85.1022 142.482 85.2889 142.257C85.4755 142.031 85.6976 141.857 85.9551 141.735C86.2158 141.61 86.5039 141.547 86.8193 141.547C87.0768 141.547 87.3085 141.582 87.5145 141.653C87.7205 141.721 87.8959 141.83 88.0407 141.981C88.1888 142.133 88.3014 142.329 88.3787 142.57C88.4559 142.809 88.4946 143.1 88.4946 143.444V146.867H87.5966V143.435C87.5966 143.161 87.5563 142.942 87.4759 142.778C87.3954 142.611 87.2779 142.49 87.1234 142.416C86.969 142.339 86.7791 142.3 86.5538 142.3C86.3317 142.3 86.1289 142.347 85.9455 142.44C85.7652 142.533 85.6091 142.662 85.4772 142.826C85.3484 142.99 85.247 143.179 85.173 143.391C85.1022 143.6 85.0668 143.822 85.0668 144.057ZM94.2542 146.867H93.361V141.093C93.361 140.717 93.4286 140.399 93.5638 140.142C93.7022 139.881 93.9001 139.685 94.1576 139.553C94.4151 139.418 94.7209 139.35 95.0749 139.35C95.1779 139.35 95.2809 139.357 95.3839 139.37C95.4901 139.382 95.5931 139.402 95.6929 139.427L95.6446 140.156C95.577 140.14 95.4998 140.129 95.4129 140.123C95.3292 140.116 95.2455 140.113 95.1618 140.113C94.9719 140.113 94.8078 140.152 94.6694 140.229C94.5342 140.303 94.4312 140.412 94.3604 140.557C94.2896 140.702 94.2542 140.881 94.2542 141.093V146.867ZM95.3646 141.643V142.329H92.5355V141.643H95.3646ZM99.7483 145.974V143.285C99.7483 143.079 99.7064 142.9 99.6227 142.749C99.5423 142.595 99.42 142.475 99.2558 142.392C99.0917 142.308 98.8889 142.266 98.6475 142.266C98.4222 142.266 98.2243 142.305 98.0537 142.382C97.8863 142.459 97.7544 142.561 97.6578 142.686C97.5645 142.812 97.5178 142.947 97.5178 143.092H96.6246C96.6246 142.905 96.6729 142.72 96.7695 142.537C96.866 142.353 97.0044 142.187 97.1847 142.039C97.3681 141.888 97.587 141.769 97.8413 141.682C98.0988 141.592 98.3852 141.547 98.7006 141.547C99.0804 141.547 99.4151 141.611 99.7048 141.74C99.9977 141.869 100.226 142.063 100.39 142.324C100.558 142.582 100.641 142.905 100.641 143.295V145.728C100.641 145.902 100.656 146.087 100.685 146.283C100.717 146.479 100.764 146.648 100.825 146.79V146.867H99.8931C99.848 146.764 99.8126 146.627 99.7869 146.457C99.7611 146.283 99.7483 146.122 99.7483 145.974ZM99.9028 143.7L99.9124 144.328H99.0096C98.7553 144.328 98.5284 144.349 98.3289 144.391C98.1293 144.429 97.962 144.489 97.8268 144.569C97.6916 144.65 97.5886 144.751 97.5178 144.873C97.447 144.992 97.4116 145.132 97.4116 145.293C97.4116 145.457 97.4486 145.607 97.5226 145.742C97.5967 145.877 97.7077 145.985 97.8558 146.066C98.007 146.143 98.1921 146.182 98.411 146.182C98.6845 146.182 98.9259 146.124 99.1351 146.008C99.3443 145.892 99.5101 145.75 99.6324 145.583C99.7579 145.416 99.8255 145.253 99.8352 145.095L100.217 145.525C100.194 145.66 100.133 145.81 100.033 145.974C99.9333 146.138 99.7998 146.296 99.6324 146.447C99.4683 146.595 99.2719 146.719 99.0434 146.819C98.8181 146.915 98.5638 146.964 98.2806 146.964C97.9266 146.964 97.616 146.895 97.3488 146.756C97.0849 146.618 96.8789 146.433 96.7309 146.201C96.586 145.966 96.5136 145.704 96.5136 145.414C96.5136 145.134 96.5683 144.888 96.6778 144.675C96.7872 144.46 96.9449 144.281 97.1509 144.139C97.3569 143.995 97.6047 143.885 97.8944 143.811C98.184 143.737 98.5075 143.7 98.8648 143.7H99.9028ZM103.326 139.452V146.867H102.428V139.452H103.326ZM106.039 139.452V146.867H105.141V139.452H106.039ZM107.777 139.452H108.675V145.853L108.598 146.867H107.777V139.452ZM112.204 144.212V144.313C112.204 144.693 112.159 145.045 112.069 145.371C111.979 145.692 111.847 145.972 111.673 146.211C111.499 146.449 111.287 146.634 111.036 146.766C110.785 146.898 110.497 146.964 110.172 146.964C109.84 146.964 109.549 146.907 109.298 146.795C109.05 146.679 108.841 146.513 108.67 146.298C108.5 146.082 108.363 145.821 108.26 145.515C108.16 145.21 108.091 144.865 108.052 144.482V144.038C108.091 143.652 108.16 143.306 108.26 143C108.363 142.694 108.5 142.434 108.67 142.218C108.841 141.999 109.05 141.833 109.298 141.721C109.546 141.605 109.834 141.547 110.162 141.547C110.49 141.547 110.782 141.611 111.036 141.74C111.29 141.866 111.502 142.046 111.673 142.281C111.847 142.516 111.979 142.797 112.069 143.126C112.159 143.451 112.204 143.813 112.204 144.212ZM111.306 144.313V144.212C111.306 143.951 111.282 143.707 111.234 143.478C111.185 143.246 111.108 143.044 111.002 142.87C110.896 142.693 110.756 142.554 110.582 142.455C110.408 142.352 110.194 142.3 109.94 142.3C109.715 142.3 109.518 142.339 109.351 142.416C109.187 142.493 109.047 142.598 108.931 142.73C108.815 142.858 108.72 143.007 108.646 143.174C108.575 143.338 108.522 143.509 108.487 143.686V144.849C108.538 145.074 108.622 145.292 108.738 145.501C108.857 145.707 109.015 145.876 109.211 146.008C109.41 146.14 109.657 146.206 109.95 146.206C110.191 146.206 110.397 146.157 110.567 146.061C110.741 145.961 110.881 145.824 110.988 145.651C111.097 145.477 111.177 145.276 111.229 145.047C111.28 144.819 111.306 144.574 111.306 144.313ZM116.723 145.974V143.285C116.723 143.079 116.681 142.9 116.597 142.749C116.517 142.595 116.395 142.475 116.231 142.392C116.066 142.308 115.864 142.266 115.622 142.266C115.397 142.266 115.199 142.305 115.028 142.382C114.861 142.459 114.729 142.561 114.633 142.686C114.539 142.812 114.493 142.947 114.493 143.092H113.599C113.599 142.905 113.648 142.72 113.744 142.537C113.841 142.353 113.979 142.187 114.159 142.039C114.343 141.888 114.562 141.769 114.816 141.682C115.073 141.592 115.36 141.547 115.675 141.547C116.055 141.547 116.39 141.611 116.68 141.74C116.972 141.869 117.201 142.063 117.365 142.324C117.532 142.582 117.616 142.905 117.616 143.295V145.728C117.616 145.902 117.631 146.087 117.66 146.283C117.692 146.479 117.738 146.648 117.8 146.79V146.867H116.868C116.823 146.764 116.787 146.627 116.762 146.457C116.736 146.283 116.723 146.122 116.723 145.974ZM116.877 143.7L116.887 144.328H115.984C115.73 144.328 115.503 144.349 115.304 144.391C115.104 144.429 114.937 144.489 114.802 144.569C114.666 144.65 114.563 144.751 114.493 144.873C114.422 144.992 114.386 145.132 114.386 145.293C114.386 145.457 114.423 145.607 114.497 145.742C114.571 145.877 114.682 145.985 114.83 146.066C114.982 146.143 115.167 146.182 115.386 146.182C115.659 146.182 115.901 146.124 116.11 146.008C116.319 145.892 116.485 145.75 116.607 145.583C116.733 145.416 116.8 145.253 116.81 145.095L117.191 145.525C117.169 145.66 117.108 145.81 117.008 145.974C116.908 146.138 116.774 146.296 116.607 146.447C116.443 146.595 116.247 146.719 116.018 146.819C115.793 146.915 115.539 146.964 115.255 146.964C114.901 146.964 114.591 146.895 114.324 146.756C114.06 146.618 113.854 146.433 113.706 146.201C113.561 145.966 113.488 145.704 113.488 145.414C113.488 145.134 113.543 144.888 113.652 144.675C113.762 144.46 113.92 144.281 114.126 144.139C114.332 143.995 114.579 143.885 114.869 143.811C115.159 143.737 115.482 143.7 115.839 143.7H116.877ZM121.42 146.23C121.633 146.23 121.829 146.186 122.009 146.1C122.19 146.013 122.338 145.894 122.454 145.742C122.57 145.588 122.635 145.412 122.652 145.216H123.501C123.485 145.525 123.381 145.813 123.187 146.08C122.998 146.344 122.748 146.558 122.439 146.722C122.13 146.883 121.791 146.964 121.42 146.964C121.028 146.964 120.685 146.895 120.392 146.756C120.102 146.618 119.861 146.428 119.668 146.186C119.478 145.945 119.335 145.668 119.238 145.356C119.145 145.041 119.098 144.708 119.098 144.357V144.154C119.098 143.803 119.145 143.472 119.238 143.159C119.335 142.844 119.478 142.566 119.668 142.324C119.861 142.083 120.102 141.893 120.392 141.754C120.685 141.616 121.028 141.547 121.42 141.547C121.829 141.547 122.187 141.631 122.492 141.798C122.798 141.962 123.038 142.187 123.212 142.474C123.389 142.757 123.485 143.079 123.501 143.439H122.652C122.635 143.224 122.574 143.029 122.468 142.855C122.365 142.681 122.224 142.543 122.043 142.44C121.866 142.334 121.659 142.281 121.42 142.281C121.147 142.281 120.917 142.335 120.73 142.445C120.547 142.551 120.4 142.696 120.291 142.879C120.185 143.06 120.107 143.261 120.059 143.483C120.014 143.702 119.991 143.925 119.991 144.154V144.357C119.991 144.585 120.014 144.811 120.059 145.033C120.104 145.255 120.18 145.456 120.286 145.636C120.395 145.816 120.542 145.961 120.725 146.071C120.912 146.177 121.144 146.23 121.42 146.23ZM125.712 139.452V146.867H124.814V139.452H125.712ZM128.904 141.643L126.625 144.082L125.35 145.404L125.278 144.453L126.19 143.362L127.813 141.643H128.904ZM128.088 146.867L126.224 144.376L126.688 143.579L129.14 146.867H128.088Z" fill="black"/>
<rect x="177.974" y="133.48" width="32.1342" height="19.7749" rx="9.88743" fill="#F7931A"/>
<circle cx="200.839" cy="143.369" r="7.41558" fill="white"/>
<rect width="197.749" height="0.617965" transform="translate(12.3594 159.438)" fill="#DEDEDE"/>
<path d="M15.346 172.174V178.324H14.5434V172.174H15.346ZM17.323 172.174V172.841H12.5706V172.174H17.323ZM17.6422 176.09V175.992C17.6422 175.663 17.6901 175.357 17.7859 175.076C17.8816 174.791 18.0196 174.545 18.1999 174.336C18.3801 174.125 18.5984 173.962 18.8546 173.846C19.1109 173.728 19.3982 173.669 19.7164 173.669C20.0375 173.669 20.3261 173.728 20.5824 173.846C20.8415 173.962 21.0612 174.125 21.2414 174.336C21.4245 174.545 21.5639 174.791 21.6596 175.076C21.7554 175.357 21.8033 175.663 21.8033 175.992V176.09C21.8033 176.419 21.7554 176.725 21.6596 177.006C21.5639 177.288 21.4245 177.534 21.2414 177.745C21.0612 177.954 20.8429 178.117 20.5866 178.236C20.3332 178.351 20.0459 178.409 19.7249 178.409C19.4038 178.409 19.1151 178.351 18.8589 178.236C18.6026 178.117 18.3829 177.954 18.1999 177.745C18.0196 177.534 17.8816 177.288 17.7859 177.006C17.6901 176.725 17.6422 176.419 17.6422 176.09ZM18.4238 175.992V176.09C18.4238 176.318 18.4505 176.533 18.504 176.736C18.5575 176.936 18.6378 177.113 18.7448 177.268C18.8546 177.423 18.9912 177.546 19.1546 177.636C19.3179 177.723 19.508 177.767 19.7249 177.767C19.9389 177.767 20.1262 177.723 20.2867 177.636C20.45 177.546 20.5852 177.423 20.6922 177.268C20.7993 177.113 20.8795 176.936 20.933 176.736C20.9894 176.533 21.0175 176.318 21.0175 176.09V175.992C21.0175 175.767 20.9894 175.554 20.933 175.354C20.8795 175.152 20.7979 174.973 20.688 174.818C20.581 174.66 20.4458 174.536 20.2825 174.446C20.122 174.356 19.9333 174.311 19.7164 174.311C19.5024 174.311 19.3137 174.356 19.1503 174.446C18.9898 174.536 18.8546 174.66 18.7448 174.818C18.6378 174.973 18.5575 175.152 18.504 175.354C18.4505 175.554 18.4238 175.767 18.4238 175.992Z" fill="#777777"/>
<path d="M15.7678 193.657H13.8898V192.899H15.7678C16.1315 192.899 16.426 192.841 16.6513 192.726C16.8766 192.61 17.0408 192.449 17.1438 192.243C17.25 192.037 17.3031 191.802 17.3031 191.538C17.3031 191.297 17.25 191.07 17.1438 190.857C17.0408 190.645 16.8766 190.474 16.6513 190.345C16.426 190.213 16.1315 190.148 15.7678 190.148H14.1071V196.414H13.1753V189.385H15.7678C16.2989 189.385 16.7479 189.476 17.1148 189.66C17.4817 189.843 17.7601 190.098 17.95 190.423C18.1399 190.745 18.2349 191.113 18.2349 191.528C18.2349 191.979 18.1399 192.363 17.95 192.682C17.7601 193.001 17.4817 193.244 17.1148 193.411C16.7479 193.575 16.2989 193.657 15.7678 193.657ZM20.5571 191.19V196.414H19.6591V191.19H20.5571ZM19.5915 189.805C19.5915 189.66 19.6349 189.538 19.7218 189.438C19.812 189.338 19.9439 189.288 20.1177 189.288C20.2883 189.288 20.4187 189.338 20.5088 189.438C20.6021 189.538 20.6488 189.66 20.6488 189.805C20.6488 189.943 20.6021 190.062 20.5088 190.162C20.4187 190.259 20.2883 190.307 20.1177 190.307C19.9439 190.307 19.812 190.259 19.7218 190.162C19.6349 190.062 19.5915 189.943 19.5915 189.805ZM24.3904 195.777C24.6028 195.777 24.7991 195.733 24.9794 195.646C25.1596 195.56 25.3077 195.44 25.4235 195.289C25.5394 195.135 25.6054 194.959 25.6215 194.763H26.4712C26.4551 195.072 26.3505 195.36 26.1574 195.627C25.9675 195.891 25.718 196.105 25.4091 196.269C25.1001 196.43 24.7605 196.511 24.3904 196.511C23.9977 196.511 23.6549 196.441 23.362 196.303C23.0724 196.165 22.831 195.975 22.6379 195.733C22.448 195.492 22.3047 195.215 22.2082 194.903C22.1148 194.588 22.0682 194.254 22.0682 193.904V193.701C22.0682 193.35 22.1148 193.018 22.2082 192.706C22.3047 192.391 22.448 192.112 22.6379 191.871C22.831 191.63 23.0724 191.44 23.362 191.301C23.6549 191.163 23.9977 191.094 24.3904 191.094C24.7991 191.094 25.1564 191.177 25.4622 191.345C25.7679 191.509 26.0077 191.734 26.1815 192.021C26.3585 192.304 26.4551 192.626 26.4712 192.986H25.6215C25.6054 192.771 25.5442 192.576 25.438 192.402C25.335 192.228 25.1934 192.09 25.0132 191.987C24.8361 191.881 24.6285 191.828 24.3904 191.828C24.1168 191.828 23.8867 191.882 23.7 191.992C23.5165 192.098 23.3701 192.243 23.2607 192.426C23.1544 192.606 23.0772 192.808 23.0289 193.03C22.9839 193.249 22.9613 193.472 22.9613 193.701V193.904C22.9613 194.132 22.9839 194.357 23.0289 194.579C23.074 194.802 23.1496 195.003 23.2558 195.183C23.3653 195.363 23.5117 195.508 23.6952 195.617C23.8818 195.724 24.1136 195.777 24.3904 195.777ZM28.6823 188.998V196.414H27.7844V188.998H28.6823ZM31.8735 191.19L29.5948 193.628L28.3202 194.951L28.2478 194L29.1603 192.909L30.7824 191.19H31.8735ZM31.0576 196.414L29.1941 193.923L29.6576 193.126L32.1101 196.414H31.0576ZM37.9566 195.777C38.1691 195.777 38.3654 195.733 38.5456 195.646C38.7259 195.56 38.8739 195.44 38.9898 195.289C39.1057 195.135 39.1716 194.959 39.1877 194.763H40.0374C40.0213 195.072 39.9167 195.36 39.7236 195.627C39.5337 195.891 39.2843 196.105 38.9753 196.269C38.6663 196.43 38.3268 196.511 37.9566 196.511C37.564 196.511 37.2212 196.441 36.9283 196.303C36.6386 196.165 36.3972 195.975 36.2041 195.733C36.0142 195.492 35.871 195.215 35.7744 194.903C35.6811 194.588 35.6344 194.254 35.6344 193.904V193.701C35.6344 193.35 35.6811 193.018 35.7744 192.706C35.871 192.391 36.0142 192.112 36.2041 191.871C36.3972 191.63 36.6386 191.44 36.9283 191.301C37.2212 191.163 37.564 191.094 37.9566 191.094C38.3654 191.094 38.7226 191.177 39.0284 191.345C39.3342 191.509 39.574 191.734 39.7478 192.021C39.9248 192.304 40.0213 192.626 40.0374 192.986H39.1877C39.1716 192.771 39.1105 192.576 39.0043 192.402C38.9013 192.228 38.7597 192.09 38.5794 191.987C38.4024 191.881 38.1948 191.828 37.9566 191.828C37.6831 191.828 37.4529 191.882 37.2662 191.992C37.0828 192.098 36.9363 192.243 36.8269 192.426C36.7207 192.606 36.6435 192.808 36.5952 193.03C36.5501 193.249 36.5276 193.472 36.5276 193.701V193.904C36.5276 194.132 36.5501 194.357 36.5952 194.579C36.6402 194.802 36.7159 195.003 36.8221 195.183C36.9315 195.363 37.078 195.508 37.2614 195.617C37.4481 195.724 37.6798 195.777 37.9566 195.777ZM41.114 193.86V193.749C41.114 193.373 41.1688 193.023 41.2782 192.701C41.3876 192.376 41.5453 192.095 41.7513 191.857C41.9573 191.615 42.2067 191.429 42.4996 191.297C42.7925 191.161 43.1208 191.094 43.4845 191.094C43.8514 191.094 44.1813 191.161 44.4742 191.297C44.7703 191.429 45.0214 191.615 45.2274 191.857C45.4366 192.095 45.5959 192.376 45.7053 192.701C45.8148 193.023 45.8695 193.373 45.8695 193.749V193.86C45.8695 194.237 45.8148 194.586 45.7053 194.908C45.5959 195.23 45.4366 195.511 45.2274 195.753C45.0214 195.991 44.7719 196.177 44.4791 196.313C44.1894 196.445 43.8611 196.511 43.4942 196.511C43.1273 196.511 42.7974 196.445 42.5045 196.313C42.2116 196.177 41.9605 195.991 41.7513 195.753C41.5453 195.511 41.3876 195.23 41.2782 194.908C41.1688 194.586 41.114 194.237 41.114 193.86ZM42.0072 193.749V193.86C42.0072 194.121 42.0378 194.367 42.0989 194.599C42.1601 194.827 42.2518 195.03 42.3741 195.207C42.4996 195.384 42.6557 195.524 42.8424 195.627C43.0291 195.727 43.2463 195.777 43.4942 195.777C43.7388 195.777 43.9528 195.727 44.1363 195.627C44.323 195.524 44.4774 195.384 44.5998 195.207C44.7221 195.03 44.8138 194.827 44.8749 194.599C44.9393 194.367 44.9715 194.121 44.9715 193.86V193.749C44.9715 193.492 44.9393 193.249 44.8749 193.02C44.8138 192.788 44.7204 192.584 44.5949 192.407C44.4726 192.227 44.3181 192.085 44.1314 191.982C43.948 191.879 43.7323 191.828 43.4845 191.828C43.2399 191.828 43.0243 191.879 42.8376 191.982C42.6541 192.085 42.4996 192.227 42.3741 192.407C42.2518 192.584 42.1601 192.788 42.0989 193.02C42.0378 193.249 42.0072 193.492 42.0072 193.749ZM48.1917 192.306V196.414H47.2985V191.19H48.1434L48.1917 192.306ZM47.9792 193.604L47.6075 193.59C47.6107 193.233 47.6638 192.903 47.7668 192.6C47.8698 192.294 48.0147 192.029 48.2013 191.803C48.388 191.578 48.6101 191.404 48.8676 191.282C49.1283 191.157 49.4163 191.094 49.7318 191.094C49.9892 191.094 50.221 191.129 50.427 191.2C50.633 191.268 50.8084 191.377 50.9532 191.528C51.1013 191.68 51.2139 191.876 51.2912 192.117C51.3684 192.355 51.407 192.647 51.407 192.991V196.414H50.509V192.981C50.509 192.708 50.4688 192.489 50.3883 192.325C50.3079 192.158 50.1904 192.037 50.0359 191.963C49.8814 191.886 49.6915 191.847 49.4662 191.847C49.2441 191.847 49.0414 191.894 48.8579 191.987C48.6777 192.08 48.5216 192.209 48.3896 192.373C48.2609 192.537 48.1595 192.726 48.0855 192.938C48.0147 193.147 47.9792 193.369 47.9792 193.604ZM55.2596 191.19V191.876H52.4353V191.19H55.2596ZM53.3913 189.921H54.2844V195.12C54.2844 195.297 54.3118 195.431 54.3665 195.521C54.4212 195.611 54.492 195.671 54.5789 195.7C54.6658 195.729 54.7592 195.743 54.8589 195.743C54.933 195.743 55.0102 195.737 55.0907 195.724C55.1743 195.708 55.2371 195.695 55.279 195.685L55.2838 196.414C55.213 196.437 55.1196 196.458 55.0038 196.477C54.8911 196.499 54.7543 196.511 54.5934 196.511C54.3745 196.511 54.1734 196.467 53.9899 196.38C53.8065 196.293 53.66 196.149 53.5506 195.946C53.4444 195.74 53.3913 195.463 53.3913 195.115V189.921ZM59.6964 195.521V192.832C59.6964 192.626 59.6546 192.447 59.5709 192.296C59.4904 192.141 59.3681 192.022 59.204 191.939C59.0398 191.855 58.8371 191.813 58.5957 191.813C58.3704 191.813 58.1724 191.852 58.0019 191.929C57.8345 192.006 57.7025 192.108 57.606 192.233C57.5126 192.359 57.466 192.494 57.466 192.639H56.5728C56.5728 192.452 56.6211 192.267 56.7177 192.083C56.8142 191.9 56.9526 191.734 57.1328 191.586C57.3163 191.435 57.5352 191.316 57.7894 191.229C58.0469 191.139 58.3334 191.094 58.6488 191.094C59.0286 191.094 59.3633 191.158 59.653 191.287C59.9459 191.416 60.1744 191.61 60.3385 191.871C60.5059 192.129 60.5896 192.452 60.5896 192.841V195.275C60.5896 195.448 60.6041 195.634 60.633 195.83C60.6652 196.026 60.7119 196.195 60.773 196.337V196.414H59.8413C59.7962 196.311 59.7608 196.174 59.7351 196.004C59.7093 195.83 59.6964 195.669 59.6964 195.521ZM59.8509 193.247L59.8606 193.875H58.9578C58.7035 193.875 58.4766 193.896 58.277 193.937C58.0775 193.976 57.9101 194.036 57.7749 194.116C57.6398 194.196 57.5368 194.298 57.466 194.42C57.3952 194.539 57.3598 194.679 57.3598 194.84C57.3598 195.004 57.3968 195.154 57.4708 195.289C57.5448 195.424 57.6559 195.532 57.8039 195.613C57.9552 195.69 58.1403 195.729 58.3591 195.729C58.6327 195.729 58.8741 195.671 59.0833 195.555C59.2925 195.439 59.4583 195.297 59.5806 195.13C59.7061 194.962 59.7737 194.8 59.7833 194.642L60.1647 195.072C60.1422 195.207 60.0811 195.357 59.9813 195.521C59.8815 195.685 59.7479 195.843 59.5806 195.994C59.4164 196.142 59.2201 196.266 58.9916 196.366C58.7663 196.462 58.512 196.511 58.2288 196.511C57.8747 196.511 57.5641 196.441 57.297 196.303C57.0331 196.165 56.8271 195.98 56.679 195.748C56.5342 195.513 56.4618 195.251 56.4618 194.961C56.4618 194.681 56.5165 194.435 56.6259 194.222C56.7354 194.007 56.8931 193.828 57.0991 193.686C57.305 193.541 57.5529 193.432 57.8425 193.358C58.1322 193.284 58.4557 193.247 58.8129 193.247H59.8509ZM64.3939 195.777C64.6064 195.777 64.8027 195.733 64.9829 195.646C65.1632 195.56 65.3112 195.44 65.4271 195.289C65.543 195.135 65.6089 194.959 65.625 194.763H66.4747C66.4586 195.072 66.354 195.36 66.1609 195.627C65.971 195.891 65.7216 196.105 65.4126 196.269C65.1036 196.43 64.7641 196.511 64.3939 196.511C64.0013 196.511 63.6585 196.441 63.3656 196.303C63.0759 196.165 62.8345 195.975 62.6414 195.733C62.4515 195.492 62.3083 195.215 62.2117 194.903C62.1184 194.588 62.0717 194.254 62.0717 193.904V193.701C62.0717 193.35 62.1184 193.018 62.2117 192.706C62.3083 192.391 62.4515 192.112 62.6414 191.871C62.8345 191.63 63.0759 191.44 63.3656 191.301C63.6585 191.163 64.0013 191.094 64.3939 191.094C64.8027 191.094 65.1599 191.177 65.4657 191.345C65.7715 191.509 66.0113 191.734 66.1851 192.021C66.3621 192.304 66.4586 192.626 66.4747 192.986H65.625C65.6089 192.771 65.5478 192.576 65.4416 192.402C65.3386 192.228 65.197 192.09 65.0167 191.987C64.8397 191.881 64.6321 191.828 64.3939 191.828C64.1204 191.828 63.8902 191.882 63.7035 191.992C63.5201 192.098 63.3736 192.243 63.2642 192.426C63.158 192.606 63.0808 192.808 63.0325 193.03C62.9874 193.249 62.9649 193.472 62.9649 193.701V193.904C62.9649 194.132 62.9874 194.357 63.0325 194.579C63.0775 194.802 63.1532 195.003 63.2594 195.183C63.3688 195.363 63.5153 195.508 63.6987 195.617C63.8854 195.724 64.1171 195.777 64.3939 195.777ZM69.9749 191.19V191.876H67.1506V191.19H69.9749ZM68.1066 189.921H68.9997V195.12C68.9997 195.297 69.0271 195.431 69.0818 195.521C69.1365 195.611 69.2073 195.671 69.2942 195.7C69.3811 195.729 69.4744 195.743 69.5742 195.743C69.6482 195.743 69.7255 195.737 69.806 195.724C69.8896 195.708 69.9524 195.695 69.9942 195.685L69.9991 196.414C69.9283 196.437 69.8349 196.458 69.7191 196.477C69.6064 196.499 69.4696 196.511 69.3087 196.511C69.0898 196.511 68.8887 196.467 68.7052 196.38C68.5217 196.293 68.3753 196.149 68.2659 195.946C68.1597 195.74 68.1066 195.463 68.1066 195.115V189.921ZM73.8565 193.86V193.749C73.8565 193.373 73.9112 193.023 74.0207 192.701C74.1301 192.376 74.2878 192.095 74.4938 191.857C74.6998 191.615 74.9492 191.429 75.2421 191.297C75.535 191.161 75.8633 191.094 76.227 191.094C76.5939 191.094 76.9238 191.161 77.2167 191.297C77.5128 191.429 77.7639 191.615 77.9698 191.857C78.179 192.095 78.3384 192.376 78.4478 192.701C78.5572 193.023 78.6119 193.373 78.6119 193.749V193.86C78.6119 194.237 78.5572 194.586 78.4478 194.908C78.3384 195.23 78.179 195.511 77.9698 195.753C77.7639 195.991 77.5144 196.177 77.2215 196.313C76.9319 196.445 76.6036 196.511 76.2366 196.511C75.8697 196.511 75.5398 196.445 75.2469 196.313C74.954 196.177 74.703 195.991 74.4938 195.753C74.2878 195.511 74.1301 195.23 74.0207 194.908C73.9112 194.586 73.8565 194.237 73.8565 193.86ZM74.7497 193.749V193.86C74.7497 194.121 74.7802 194.367 74.8414 194.599C74.9025 194.827 74.9943 195.03 75.1166 195.207C75.2421 195.384 75.3982 195.524 75.5849 195.627C75.7716 195.727 75.9888 195.777 76.2366 195.777C76.4813 195.777 76.6953 195.727 76.8787 195.627C77.0654 195.524 77.2199 195.384 77.3422 195.207C77.4645 195.03 77.5563 194.827 77.6174 194.599C77.6818 194.367 77.714 194.121 77.714 193.86V193.749C77.714 193.492 77.6818 193.249 77.6174 193.02C77.5563 192.788 77.4629 192.584 77.3374 192.407C77.2151 192.227 77.0606 192.085 76.8739 191.982C76.6905 191.879 76.4748 191.828 76.227 191.828C75.9824 191.828 75.7667 191.879 75.5801 191.982C75.3966 192.085 75.2421 192.227 75.1166 192.407C74.9943 192.584 74.9025 192.788 74.8414 193.02C74.7802 193.249 74.7497 193.492 74.7497 193.749ZM80.9341 192.011V196.414H80.041V191.19H80.91L80.9341 192.011ZM82.566 191.161L82.5611 191.992C82.4871 191.976 82.4163 191.966 82.3487 191.963C82.2843 191.956 82.2103 191.953 82.1266 191.953C81.9206 191.953 81.7388 191.985 81.5811 192.05C81.4234 192.114 81.2898 192.204 81.1804 192.32C81.0709 192.436 80.984 192.574 80.9197 192.735C80.8585 192.893 80.8183 193.067 80.799 193.257L80.5479 193.401C80.5479 193.086 80.5785 192.79 80.6396 192.513C80.704 192.236 80.8022 191.992 80.9341 191.779C81.0661 191.564 81.2335 191.396 81.4362 191.277C81.6422 191.155 81.8868 191.094 82.1701 191.094C82.2344 191.094 82.3085 191.102 82.3922 191.118C82.4758 191.131 82.5338 191.145 82.566 191.161ZM88.6297 196.511C88.266 196.511 87.9361 196.449 87.64 196.327C87.3471 196.202 87.0945 196.026 86.8821 195.801C86.6728 195.576 86.5119 195.308 86.3993 195C86.2866 194.691 86.2303 194.353 86.2303 193.986V193.783C86.2303 193.358 86.2931 192.98 86.4186 192.648C86.5441 192.314 86.7147 192.03 86.9303 191.799C87.146 191.567 87.3906 191.391 87.6642 191.272C87.9377 191.153 88.221 191.094 88.5139 191.094C88.8872 191.094 89.2091 191.158 89.4794 191.287C89.753 191.416 89.9767 191.596 90.1505 191.828C90.3243 192.056 90.4531 192.326 90.5367 192.639C90.6204 192.948 90.6623 193.286 90.6623 193.653V194.053H86.7614V193.324H89.7691V193.257C89.7562 193.025 89.708 192.8 89.6243 192.581C89.5438 192.362 89.4151 192.182 89.238 192.04C89.061 191.898 88.8196 191.828 88.5139 191.828C88.3111 191.828 88.1244 191.871 87.9538 191.958C87.7833 192.042 87.6368 192.167 87.5145 192.335C87.3922 192.502 87.2972 192.706 87.2297 192.948C87.1621 193.189 87.1283 193.467 87.1283 193.783V193.986C87.1283 194.233 87.1621 194.467 87.2297 194.686C87.3005 194.901 87.4019 195.091 87.5338 195.255C87.669 195.42 87.8315 195.548 88.0214 195.642C88.2145 195.735 88.4334 195.782 88.678 195.782C88.9934 195.782 89.2606 195.717 89.4794 195.589C89.6983 195.46 89.8898 195.288 90.0539 195.072L90.5947 195.502C90.482 195.672 90.3388 195.835 90.165 195.989C89.9912 196.144 89.7772 196.269 89.5229 196.366C89.2718 196.462 88.9741 196.511 88.6297 196.511ZM92.9072 192.306V196.414H92.0141V191.19H92.8589L92.9072 192.306ZM92.6948 193.604L92.323 193.59C92.3263 193.233 92.3794 192.903 92.4824 192.6C92.5854 192.294 92.7302 192.029 92.9169 191.803C93.1035 191.578 93.3256 191.404 93.5831 191.282C93.8438 191.157 94.1319 191.094 94.4473 191.094C94.7048 191.094 94.9365 191.129 95.1425 191.2C95.3485 191.268 95.5239 191.377 95.6687 191.528C95.8168 191.68 95.9294 191.876 96.0067 192.117C96.0839 192.355 96.1226 192.647 96.1226 192.991V196.414H95.2246V192.981C95.2246 192.708 95.1843 192.489 95.1039 192.325C95.0234 192.158 94.9059 192.037 94.7514 191.963C94.597 191.886 94.4071 191.847 94.1818 191.847C93.9597 191.847 93.7569 191.894 93.5735 191.987C93.3932 192.08 93.2371 192.209 93.1051 192.373C92.9764 192.537 92.875 192.726 92.801 192.938C92.7302 193.147 92.6948 193.369 92.6948 193.604ZM99.9752 191.19V191.876H97.1509V191.19H99.9752ZM98.1068 189.921H99V195.12C99 195.297 99.0273 195.431 99.082 195.521C99.1367 195.611 99.2076 195.671 99.2945 195.7C99.3814 195.729 99.4747 195.743 99.5745 195.743C99.6485 195.743 99.7257 195.737 99.8062 195.724C99.8899 195.708 99.9526 195.695 99.9945 195.685L99.9993 196.414C99.9285 196.437 99.8352 196.458 99.7193 196.477C99.6067 196.499 99.4699 196.511 99.3089 196.511C99.0901 196.511 98.8889 196.467 98.7055 196.38C98.522 196.293 98.3756 196.149 98.2661 195.946C98.1599 195.74 98.1068 195.463 98.1068 195.115V189.921ZM103.5 196.511C103.136 196.511 102.806 196.449 102.51 196.327C102.217 196.202 101.964 196.026 101.752 195.801C101.543 195.576 101.382 195.308 101.269 195C101.156 194.691 101.1 194.353 101.1 193.986V193.783C101.1 193.358 101.163 192.98 101.288 192.648C101.414 192.314 101.584 192.03 101.8 191.799C102.016 191.567 102.26 191.391 102.534 191.272C102.808 191.153 103.091 191.094 103.384 191.094C103.757 191.094 104.079 191.158 104.349 191.287C104.623 191.416 104.846 191.596 105.02 191.828C105.194 192.056 105.323 192.326 105.407 192.639C105.49 192.948 105.532 193.286 105.532 193.653V194.053H101.631V193.324H104.639V193.257C104.626 193.025 104.578 192.8 104.494 192.581C104.414 192.362 104.285 192.182 104.108 192.04C103.931 191.898 103.689 191.828 103.384 191.828C103.181 191.828 102.994 191.871 102.824 191.958C102.653 192.042 102.507 192.167 102.384 192.335C102.262 192.502 102.167 192.706 102.099 192.948C102.032 193.189 101.998 193.467 101.998 193.783V193.986C101.998 194.233 102.032 194.467 102.099 194.686C102.17 194.901 102.272 195.091 102.404 195.255C102.539 195.42 102.701 195.548 102.891 195.642C103.084 195.735 103.303 195.782 103.548 195.782C103.863 195.782 104.13 195.717 104.349 195.589C104.568 195.46 104.76 195.288 104.924 195.072L105.464 195.502C105.352 195.672 105.209 195.835 105.035 195.989C104.861 196.144 104.647 196.269 104.393 196.366C104.142 196.462 103.844 196.511 103.5 196.511ZM107.777 192.011V196.414H106.884V191.19H107.753L107.777 192.011ZM109.409 191.161L109.404 191.992C109.33 191.976 109.259 191.966 109.192 191.963C109.127 191.956 109.053 191.953 108.969 191.953C108.763 191.953 108.582 191.985 108.424 192.05C108.266 192.114 108.133 192.204 108.023 192.32C107.914 192.436 107.827 192.574 107.762 192.735C107.701 192.893 107.661 193.067 107.642 193.257L107.391 193.401C107.391 193.086 107.421 192.79 107.482 192.513C107.547 192.236 107.645 191.992 107.777 191.779C107.909 191.564 108.076 191.396 108.279 191.277C108.485 191.155 108.73 191.094 109.013 191.094C109.077 191.094 109.151 191.102 109.235 191.118C109.319 191.131 109.377 191.145 109.409 191.161ZM116.385 195.521V192.832C116.385 192.626 116.343 192.447 116.26 192.296C116.179 192.141 116.057 192.022 115.893 191.939C115.728 191.855 115.526 191.813 115.284 191.813C115.059 191.813 114.861 191.852 114.69 191.929C114.523 192.006 114.391 192.108 114.295 192.233C114.201 192.359 114.155 192.494 114.155 192.639H113.261C113.261 192.452 113.31 192.267 113.406 192.083C113.503 191.9 113.641 191.734 113.821 191.586C114.005 191.435 114.224 191.316 114.478 191.229C114.736 191.139 115.022 191.094 115.337 191.094C115.717 191.094 116.052 191.158 116.342 191.287C116.634 191.416 116.863 191.61 117.027 191.871C117.195 192.129 117.278 192.452 117.278 192.841V195.275C117.278 195.448 117.293 195.634 117.322 195.83C117.354 196.026 117.4 196.195 117.462 196.337V196.414H116.53C116.485 196.311 116.449 196.174 116.424 196.004C116.398 195.83 116.385 195.669 116.385 195.521ZM116.54 193.247L116.549 193.875H115.646C115.392 193.875 115.165 193.896 114.966 193.937C114.766 193.976 114.599 194.036 114.464 194.116C114.328 194.196 114.225 194.298 114.155 194.42C114.084 194.539 114.048 194.679 114.048 194.84C114.048 195.004 114.085 195.154 114.159 195.289C114.233 195.424 114.344 195.532 114.493 195.613C114.644 195.69 114.829 195.729 115.048 195.729C115.321 195.729 115.563 195.671 115.772 195.555C115.981 195.439 116.147 195.297 116.269 195.13C116.395 194.962 116.462 194.8 116.472 194.642L116.853 195.072C116.831 195.207 116.77 195.357 116.67 195.521C116.57 195.685 116.437 195.843 116.269 195.994C116.105 196.142 115.909 196.266 115.68 196.366C115.455 196.462 115.201 196.511 114.917 196.511C114.563 196.511 114.253 196.441 113.986 196.303C113.722 196.165 113.516 195.98 113.368 195.748C113.223 195.513 113.15 195.251 113.15 194.961C113.15 194.681 113.205 194.435 113.315 194.222C113.424 194.007 113.582 193.828 113.788 193.686C113.994 193.541 114.241 193.432 114.531 193.358C114.821 193.284 115.144 193.247 115.502 193.247H116.54ZM122.285 195.4V188.998H123.183V196.414H122.362L122.285 195.4ZM118.77 193.86V193.759C118.77 193.36 118.818 192.998 118.915 192.672C119.015 192.344 119.155 192.063 119.335 191.828C119.518 191.593 119.736 191.412 119.987 191.287C120.241 191.158 120.524 191.094 120.836 191.094C121.165 191.094 121.451 191.152 121.696 191.268C121.943 191.38 122.153 191.546 122.323 191.765C122.497 191.98 122.634 192.241 122.734 192.547C122.833 192.853 122.903 193.199 122.941 193.585V194.029C122.906 194.412 122.837 194.757 122.734 195.062C122.634 195.368 122.497 195.629 122.323 195.844C122.153 196.06 121.943 196.226 121.696 196.342C121.448 196.454 121.158 196.511 120.827 196.511C120.521 196.511 120.241 196.445 119.987 196.313C119.736 196.181 119.518 195.996 119.335 195.757C119.155 195.519 119.015 195.239 118.915 194.917C118.818 194.592 118.77 194.24 118.77 193.86ZM119.668 193.759V193.86C119.668 194.121 119.694 194.365 119.745 194.594C119.8 194.822 119.884 195.024 119.996 195.197C120.109 195.371 120.252 195.508 120.426 195.608C120.6 195.704 120.807 195.753 121.049 195.753C121.345 195.753 121.588 195.69 121.778 195.564C121.971 195.439 122.125 195.273 122.241 195.067C122.357 194.861 122.447 194.637 122.512 194.396V193.233C122.473 193.055 122.417 192.885 122.343 192.721C122.272 192.553 122.178 192.405 122.063 192.277C121.95 192.145 121.81 192.04 121.643 191.963C121.478 191.886 121.284 191.847 121.058 191.847C120.814 191.847 120.603 191.898 120.426 192.001C120.252 192.101 120.109 192.24 119.996 192.417C119.884 192.59 119.8 192.793 119.745 193.025C119.694 193.253 119.668 193.498 119.668 193.759ZM128.175 195.4V188.998H129.073V196.414H128.252L128.175 195.4ZM124.66 193.86V193.759C124.66 193.36 124.708 192.998 124.805 192.672C124.905 192.344 125.045 192.063 125.225 191.828C125.408 191.593 125.626 191.412 125.877 191.287C126.131 191.158 126.414 191.094 126.726 191.094C127.055 191.094 127.341 191.152 127.586 191.268C127.833 191.38 128.043 191.546 128.213 191.765C128.387 191.98 128.524 192.241 128.624 192.547C128.723 192.853 128.793 193.199 128.831 193.585V194.029C128.796 194.412 128.727 194.757 128.624 195.062C128.524 195.368 128.387 195.629 128.213 195.844C128.043 196.06 127.833 196.226 127.586 196.342C127.338 196.454 127.048 196.511 126.717 196.511C126.411 196.511 126.131 196.445 125.877 196.313C125.626 196.181 125.408 195.996 125.225 195.757C125.045 195.519 124.905 195.239 124.805 194.917C124.708 194.592 124.66 194.24 124.66 193.86ZM125.558 193.759V193.86C125.558 194.121 125.584 194.365 125.635 194.594C125.69 194.822 125.774 195.024 125.886 195.197C125.999 195.371 126.142 195.508 126.316 195.608C126.49 195.704 126.697 195.753 126.939 195.753C127.235 195.753 127.478 195.69 127.668 195.564C127.861 195.439 128.015 195.273 128.131 195.067C128.247 194.861 128.337 194.637 128.402 194.396V193.233C128.363 193.055 128.307 192.885 128.233 192.721C128.162 192.553 128.068 192.405 127.953 192.277C127.84 192.145 127.7 192.04 127.533 191.963C127.368 191.886 127.174 191.847 126.948 191.847C126.704 191.847 126.493 191.898 126.316 192.001C126.142 192.101 125.999 192.24 125.886 192.417C125.774 192.59 125.69 192.793 125.635 193.025C125.584 193.253 125.558 193.498 125.558 193.759ZM131.665 192.011V196.414H130.772V191.19H131.641L131.665 192.011ZM133.297 191.161L133.292 191.992C133.218 191.976 133.147 191.966 133.08 191.963C133.015 191.956 132.941 191.953 132.858 191.953C132.652 191.953 132.47 191.985 132.312 192.05C132.154 192.114 132.021 192.204 131.911 192.32C131.802 192.436 131.715 192.574 131.651 192.735C131.59 192.893 131.549 193.067 131.53 193.257L131.279 193.401C131.279 193.086 131.31 192.79 131.371 192.513C131.435 192.236 131.533 191.992 131.665 191.779C131.797 191.564 131.965 191.396 132.167 191.277C132.373 191.155 132.618 191.094 132.901 191.094C132.965 191.094 133.04 191.102 133.123 191.118C133.207 191.131 133.265 191.145 133.297 191.161ZM136.503 196.511C136.139 196.511 135.809 196.449 135.513 196.327C135.22 196.202 134.967 196.026 134.755 195.801C134.546 195.576 134.385 195.308 134.272 195C134.16 194.691 134.103 194.353 134.103 193.986V193.783C134.103 193.358 134.166 192.98 134.292 192.648C134.417 192.314 134.588 192.03 134.803 191.799C135.019 191.567 135.264 191.391 135.537 191.272C135.811 191.153 136.094 191.094 136.387 191.094C136.76 191.094 137.082 191.158 137.352 191.287C137.626 191.416 137.85 191.596 138.023 191.828C138.197 192.056 138.326 192.326 138.41 192.639C138.493 192.948 138.535 193.286 138.535 193.653V194.053H134.634V193.324H137.642V193.257C137.629 193.025 137.581 192.8 137.497 192.581C137.417 192.362 137.288 192.182 137.111 192.04C136.934 191.898 136.693 191.828 136.387 191.828C136.184 191.828 135.997 191.871 135.827 191.958C135.656 192.042 135.51 192.167 135.387 192.335C135.265 192.502 135.17 192.706 135.103 192.948C135.035 193.189 135.001 193.467 135.001 193.783V193.986C135.001 194.233 135.035 194.467 135.103 194.686C135.173 194.901 135.275 195.091 135.407 195.255C135.542 195.42 135.704 195.548 135.894 195.642C136.087 195.735 136.306 195.782 136.551 195.782C136.866 195.782 137.134 195.717 137.352 195.589C137.571 195.46 137.763 195.288 137.927 195.072L138.468 195.502C138.355 195.672 138.212 195.835 138.038 195.989C137.864 196.144 137.65 196.269 137.396 196.366C137.145 196.462 136.847 196.511 136.503 196.511ZM142.929 195.028C142.929 194.9 142.9 194.781 142.842 194.671C142.787 194.559 142.673 194.457 142.499 194.367C142.328 194.274 142.071 194.193 141.726 194.126C141.437 194.065 141.174 193.992 140.939 193.908C140.708 193.825 140.51 193.723 140.346 193.604C140.185 193.485 140.061 193.345 139.974 193.184C139.887 193.023 139.844 192.835 139.844 192.619C139.844 192.413 139.889 192.219 139.979 192.035C140.072 191.852 140.202 191.689 140.37 191.548C140.54 191.406 140.745 191.295 140.983 191.214C141.221 191.134 141.487 191.094 141.78 191.094C142.198 191.094 142.555 191.168 142.851 191.316C143.147 191.464 143.374 191.662 143.532 191.91C143.69 192.154 143.769 192.426 143.769 192.726H142.875C142.875 192.581 142.832 192.441 142.745 192.306C142.661 192.167 142.537 192.053 142.373 191.963C142.212 191.873 142.014 191.828 141.78 191.828C141.532 191.828 141.331 191.866 141.176 191.943C141.025 192.018 140.914 192.112 140.843 192.228C140.775 192.344 140.742 192.466 140.742 192.595C140.742 192.692 140.758 192.779 140.79 192.856C140.825 192.93 140.886 192.999 140.973 193.064C141.06 193.125 141.182 193.183 141.34 193.237C141.498 193.292 141.699 193.347 141.944 193.401C142.372 193.498 142.724 193.614 143.001 193.749C143.278 193.884 143.484 194.05 143.619 194.246C143.754 194.443 143.822 194.681 143.822 194.961C143.822 195.189 143.773 195.399 143.677 195.589C143.584 195.778 143.447 195.943 143.267 196.081C143.089 196.216 142.877 196.322 142.629 196.4C142.385 196.474 142.109 196.511 141.804 196.511C141.343 196.511 140.954 196.429 140.635 196.264C140.317 196.1 140.075 195.888 139.911 195.627C139.747 195.366 139.665 195.091 139.665 194.802H140.563C140.576 195.046 140.647 195.241 140.775 195.386C140.904 195.527 141.062 195.629 141.248 195.69C141.435 195.748 141.62 195.777 141.804 195.777C142.048 195.777 142.253 195.745 142.417 195.68C142.584 195.616 142.711 195.527 142.798 195.415C142.885 195.302 142.929 195.173 142.929 195.028ZM148.345 195.028C148.345 194.9 148.316 194.781 148.258 194.671C148.204 194.559 148.09 194.457 147.916 194.367C147.745 194.274 147.488 194.193 147.143 194.126C146.854 194.065 146.591 193.992 146.356 193.908C146.125 193.825 145.927 193.723 145.762 193.604C145.602 193.485 145.478 193.345 145.391 193.184C145.304 193.023 145.26 192.835 145.26 192.619C145.26 192.413 145.305 192.219 145.396 192.035C145.489 191.852 145.619 191.689 145.787 191.548C145.957 191.406 146.162 191.295 146.4 191.214C146.638 191.134 146.903 191.094 147.196 191.094C147.615 191.094 147.972 191.168 148.268 191.316C148.564 191.464 148.791 191.662 148.949 191.91C149.107 192.154 149.185 192.426 149.185 192.726H148.292C148.292 192.581 148.249 192.441 148.162 192.306C148.078 192.167 147.954 192.053 147.79 191.963C147.629 191.873 147.431 191.828 147.196 191.828C146.949 191.828 146.747 191.866 146.593 191.943C146.442 192.018 146.331 192.112 146.26 192.228C146.192 192.344 146.158 192.466 146.158 192.595C146.158 192.692 146.174 192.779 146.207 192.856C146.242 192.93 146.303 192.999 146.39 193.064C146.477 193.125 146.599 193.183 146.757 193.237C146.915 193.292 147.116 193.347 147.361 193.401C147.789 193.498 148.141 193.614 148.418 193.749C148.695 193.884 148.901 194.05 149.036 194.246C149.171 194.443 149.239 194.681 149.239 194.961C149.239 195.189 149.19 195.399 149.094 195.589C149 195.778 148.864 195.943 148.683 196.081C148.506 196.216 148.294 196.322 148.046 196.4C147.801 196.474 147.526 196.511 147.221 196.511C146.76 196.511 146.371 196.429 146.052 196.264C145.734 196.1 145.492 195.888 145.328 195.627C145.164 195.366 145.082 195.091 145.082 194.802H145.98C145.993 195.046 146.063 195.241 146.192 195.386C146.321 195.527 146.479 195.629 146.665 195.69C146.852 195.748 147.037 195.777 147.221 195.777C147.465 195.777 147.669 195.745 147.834 195.68C148.001 195.616 148.128 195.527 148.215 195.415C148.302 195.302 148.345 195.173 148.345 195.028ZM150.735 195.941C150.735 195.79 150.782 195.663 150.875 195.56C150.972 195.453 151.11 195.4 151.29 195.4C151.471 195.4 151.607 195.453 151.701 195.56C151.797 195.663 151.846 195.79 151.846 195.941C151.846 196.089 151.797 196.215 151.701 196.318C151.607 196.42 151.471 196.472 151.29 196.472C151.11 196.472 150.972 196.42 150.875 196.318C150.782 196.215 150.735 196.089 150.735 195.941ZM153.651 195.941C153.651 195.79 153.698 195.663 153.791 195.56C153.888 195.453 154.026 195.4 154.206 195.4C154.387 195.4 154.523 195.453 154.617 195.56C154.713 195.663 154.762 195.79 154.762 195.941C154.762 196.089 154.713 196.215 154.617 196.318C154.523 196.42 154.387 196.472 154.206 196.472C154.026 196.472 153.888 196.42 153.791 196.318C153.698 196.215 153.651 196.089 153.651 195.941ZM156.567 195.941C156.567 195.79 156.614 195.663 156.707 195.56C156.804 195.453 156.942 195.4 157.122 195.4C157.303 195.4 157.439 195.453 157.533 195.56C157.629 195.663 157.678 195.79 157.678 195.941C157.678 196.089 157.629 196.215 157.533 196.318C157.439 196.42 157.303 196.472 157.122 196.472C156.942 196.472 156.804 196.42 156.707 196.318C156.614 196.215 156.567 196.089 156.567 195.941Z" fill="#BBBBBB"/>
<path d="M202.962 186.582C202.594 186.428 202.136 186.235 202.136 186.086V185.116C202.672 184.713 203.001 184.059 203.001 183.382V182.085C203.001 180.892 202.031 179.922 200.838 179.922C199.646 179.922 198.676 180.892 198.676 182.085V183.382C198.676 184.059 199.005 184.713 199.541 185.116V186.086C199.541 186.226 199.087 186.42 198.723 186.575C197.843 186.952 196.513 187.52 196.513 189.006V189.222H205.164V189.006C205.164 187.511 203.839 186.952 202.962 186.582Z" fill="black"/>
<rect width="197.749" height="0.617965" transform="translate(12.3594 209.684)" fill="#DEDEDE"/>
<circle cx="98.5651" cy="442.463" r="1.85389" fill="#BBBBBB"/>
<circle cx="111.542" cy="442.463" r="1.85389" fill="black"/>
<circle cx="124.52" cy="442.463" r="1.85389" fill="#BBBBBB"/>
</g>
<defs>
<clipPath id="clip0_267_12642">
<rect width="222.467" height="494.372" fill="white"/>
</clipPath>
</defs>
</svg>
