<svg width="227" height="503" viewBox="0 0 227 503" fill="none" xmlns="http://www.w3.org/2000/svg">
<g clip-path="url(#clip0_264_10325)">
<rect width="226.35" height="503" fill="white"/>
<rect x="0.628662" width="226.35" height="18.6794" fill="#F1F1F1"/>
<circle cx="19.8575" cy="9.88872" r="3.84575" fill="#C4C4C4"/>
<circle cx="195.663" cy="9.88872" r="3.84575" fill="#C4C4C4"/>
<rect x="205.003" y="6.59375" width="6.59272" height="6.59272" fill="#C4C4C4"/>
<path d="M182.478 13.1875L178.672 6.59478L186.284 6.59478L182.478 13.1875Z" fill="#C4C4C4"/>
<path d="M196.788 55.7197C196.788 55.5527 196.762 55.4053 196.71 55.2776C196.661 55.1466 196.572 55.0287 196.445 54.9239C196.32 54.8191 196.147 54.7193 195.924 54.6243C195.704 54.5293 195.426 54.4327 195.089 54.3345C194.735 54.2297 194.416 54.1134 194.131 53.9857C193.846 53.8547 193.602 53.7057 193.399 53.5387C193.196 53.3717 193.04 53.1801 192.932 52.964C192.824 52.7479 192.77 52.5006 192.77 52.2223C192.77 51.9439 192.828 51.6868 192.942 51.4511C193.057 51.2153 193.221 51.0106 193.433 50.8371C193.65 50.6602 193.907 50.5227 194.205 50.4244C194.503 50.3262 194.835 50.2771 195.202 50.2771C195.739 50.2771 196.194 50.3802 196.567 50.5865C196.944 50.7896 197.231 51.0565 197.427 51.3872C197.623 51.7147 197.722 52.0651 197.722 52.4384H196.779C196.779 52.1699 196.721 51.9325 196.607 51.7261C196.492 51.5166 196.319 51.3528 196.086 51.2349C195.853 51.1138 195.559 51.0532 195.202 51.0532C194.865 51.0532 194.586 51.1039 194.367 51.2055C194.147 51.307 193.984 51.4445 193.876 51.6181C193.771 51.7916 193.718 51.9898 193.718 52.2124C193.718 52.3631 193.749 52.5006 193.812 52.6251C193.877 52.7462 193.977 52.8592 194.111 52.964C194.249 53.0688 194.422 53.1654 194.632 53.2538C194.845 53.3422 195.099 53.4274 195.393 53.5092C195.799 53.6239 196.15 53.7516 196.445 53.8924C196.739 54.0332 196.982 54.192 197.172 54.3689C197.365 54.5424 197.507 54.7405 197.599 54.9632C197.694 55.1826 197.741 55.4315 197.741 55.7099C197.741 56.0013 197.682 56.2649 197.565 56.5007C197.447 56.7365 197.278 56.9379 197.059 57.1049C196.839 57.2719 196.576 57.4013 196.268 57.493C195.963 57.5814 195.623 57.6256 195.246 57.6256C194.915 57.6256 194.589 57.5797 194.269 57.488C193.951 57.3964 193.661 57.2588 193.399 57.0754C193.14 56.892 192.932 56.6661 192.775 56.3976C192.621 56.1258 192.544 55.8114 192.544 55.4544H193.487C193.487 55.7 193.535 55.9113 193.63 56.0881C193.725 56.2617 193.854 56.4057 194.018 56.5204C194.185 56.635 194.373 56.7201 194.583 56.7758C194.796 56.8282 195.017 56.8544 195.246 56.8544C195.577 56.8544 195.857 56.8085 196.086 56.7168C196.315 56.6252 196.489 56.4942 196.607 56.3239C196.728 56.1536 196.788 55.9522 196.788 55.7197ZM200.04 49.9823V57.5273H199.127V49.9823H200.04ZM203.287 52.2124L200.969 54.6931L199.672 56.039L199.598 55.0713L200.527 53.9612L202.177 52.2124H203.287ZM202.457 57.5273L200.561 54.9927L201.032 54.1822L203.528 57.5273H202.457ZM205.527 52.2124V57.5273H204.613V52.2124H205.527ZM204.545 50.8027C204.545 50.6553 204.589 50.5309 204.677 50.4293C204.769 50.3278 204.903 50.2771 205.08 50.2771C205.254 50.2771 205.386 50.3278 205.478 50.4293C205.573 50.5309 205.62 50.6553 205.62 50.8027C205.62 50.9435 205.573 51.0646 205.478 51.1662C205.386 51.2644 205.254 51.3135 205.08 51.3135C204.903 51.3135 204.769 51.2644 204.677 51.1662C204.589 51.0646 204.545 50.9435 204.545 50.8027ZM208.209 53.2342V59.5708H207.295V52.2124H208.13L208.209 53.2342ZM211.79 54.8257V54.9288C211.79 55.3153 211.744 55.6738 211.652 56.0046C211.561 56.3321 211.427 56.617 211.25 56.8593C211.076 57.1016 210.862 57.2899 210.606 57.4242C210.351 57.5585 210.058 57.6256 209.727 57.6256C209.39 57.6256 209.092 57.5699 208.833 57.4586C208.574 57.3472 208.355 57.1851 208.175 56.9723C207.995 56.7594 207.85 56.504 207.742 56.206C207.638 55.908 207.566 55.5723 207.526 55.199V54.6488C207.566 54.2559 207.639 53.9038 207.747 53.5927C207.855 53.2816 207.998 53.0164 208.175 52.797C208.355 52.5743 208.573 52.4057 208.828 52.291C209.083 52.1731 209.378 52.1142 209.712 52.1142C210.046 52.1142 210.343 52.1797 210.601 52.3107C210.86 52.4384 211.078 52.6218 211.255 52.8608C211.431 53.0999 211.564 53.3864 211.652 53.7205C211.744 54.0512 211.79 54.4196 211.79 54.8257ZM210.876 54.9288V54.8257C210.876 54.5604 210.849 54.3115 210.793 54.079C210.737 53.8433 210.65 53.637 210.533 53.4601C210.418 53.28 210.271 53.1392 210.09 53.0377C209.91 52.9329 209.696 52.8805 209.447 52.8805C209.218 52.8805 209.018 52.9198 208.848 52.9984C208.681 53.077 208.538 53.1834 208.42 53.3177C208.302 53.4487 208.206 53.5993 208.13 53.7696C208.058 53.9366 208.004 54.1102 207.968 54.2903V55.5625C208.034 55.7917 208.126 56.0079 208.243 56.2109C208.361 56.4107 208.519 56.5728 208.715 56.6972C208.912 56.8184 209.159 56.8789 209.457 56.8789C209.702 56.8789 209.914 56.8282 210.09 56.7267C210.271 56.6219 210.418 56.4794 210.533 56.2993C210.65 56.1192 210.737 55.9129 210.793 55.6804C210.849 55.4446 210.876 55.1941 210.876 54.9288Z" fill="black"/>
<rect x="82.0521" y="134.203" width="62.875" height="62.875" rx="31.4375" fill="#27AE60"/>
<rect x="113.4" y="154.949" width="14.5511" height="21.7368" rx="1.88625" stroke="white" stroke-width="1.2575"/>
<path fill-rule="evenodd" clip-rule="evenodd" d="M100.915 154.32C99.5255 154.32 98.3995 155.446 98.3995 156.835V174.8C98.3995 176.189 99.5255 177.315 100.915 177.315H120.316C121.705 177.315 122.831 176.189 122.831 174.8V156.835C122.831 155.446 121.705 154.32 120.316 154.32H100.915ZM105.01 168.115C106.439 168.115 107.597 166.957 107.597 165.528C107.597 164.099 106.439 162.941 105.01 162.941C103.582 162.941 102.423 164.099 102.423 165.528C102.423 166.957 103.582 168.115 105.01 168.115Z" fill="white"/>
<path d="M35.2642 220.425H36.8717L40.9721 230.629L45.0639 220.425H46.68L41.591 232.941H40.336L35.2642 220.425ZM34.7399 220.425H36.1582L36.3903 228.059V232.941H34.7399V220.425ZM45.7774 220.425H47.1957V232.941H45.5453V228.059L45.7774 220.425ZM55.3535 231.351V226.563C55.3535 226.196 55.279 225.878 55.13 225.609C54.9867 225.334 54.769 225.122 54.4767 224.973C54.1844 224.824 53.8234 224.749 53.3936 224.749C52.9924 224.749 52.64 224.818 52.3363 224.956C52.0383 225.093 51.8033 225.274 51.6314 225.497C51.4652 225.721 51.3821 225.961 51.3821 226.219H49.7918C49.7918 225.887 49.8777 225.557 50.0497 225.231C50.2216 224.904 50.468 224.609 50.7889 224.345C51.1156 224.076 51.5053 223.864 51.958 223.709C52.4165 223.549 52.9265 223.468 53.4881 223.468C54.1644 223.468 54.7604 223.583 55.2762 223.812C55.7977 224.041 56.2045 224.388 56.4968 224.852C56.7948 225.311 56.9438 225.887 56.9438 226.58V230.913C56.9438 231.222 56.9696 231.552 57.0212 231.901C57.0785 232.251 57.1616 232.552 57.2705 232.804V232.941H55.6114C55.5312 232.758 55.4681 232.514 55.4223 232.211C55.3764 231.901 55.3535 231.615 55.3535 231.351ZM55.6286 227.302L55.6458 228.42H54.0383C53.5856 228.42 53.1815 228.457 52.8262 228.532C52.4709 228.6 52.1729 228.706 51.9322 228.85C51.6915 228.993 51.5082 229.173 51.3821 229.391C51.256 229.603 51.193 229.853 51.193 230.139C51.193 230.431 51.2589 230.698 51.3907 230.938C51.5225 231.179 51.7202 231.371 51.9838 231.514C52.2532 231.652 52.5827 231.721 52.9724 231.721C53.4595 231.721 53.8893 231.618 54.2618 231.411C54.6343 231.205 54.9294 230.953 55.1472 230.655C55.3707 230.357 55.4911 230.067 55.5083 229.787L56.1873 230.552C56.1472 230.792 56.0383 231.059 55.8607 231.351C55.683 231.643 55.4452 231.924 55.1472 232.194C54.8549 232.457 54.5054 232.678 54.0985 232.855C53.6973 233.027 53.2446 233.113 52.7403 233.113C52.1099 233.113 51.5569 232.99 51.0812 232.744C50.6113 232.497 50.2445 232.168 49.9809 231.755C49.723 231.337 49.5941 230.87 49.5941 230.354C49.5941 229.855 49.6915 229.417 49.8863 229.039C50.0812 228.655 50.362 228.337 50.7288 228.085C51.0955 227.827 51.5368 227.632 52.0526 227.5C52.5684 227.368 53.1443 227.302 53.7804 227.302H55.6286ZM61.0356 225.626V232.941H59.4453V223.64H60.9496L61.0356 225.626ZM60.6574 227.938L59.9955 227.913C60.0012 227.277 60.0958 226.689 60.2791 226.15C60.4625 225.606 60.7204 225.133 61.0528 224.732C61.3852 224.331 61.7806 224.021 62.2391 223.804C62.7033 223.58 63.2162 223.468 63.7778 223.468C64.2362 223.468 64.6489 223.531 65.0156 223.658C65.3824 223.778 65.6947 223.973 65.9526 224.242C66.2162 224.511 66.4168 224.861 66.5544 225.291C66.6919 225.715 66.7607 226.234 66.7607 226.847V232.941H65.1618V226.83C65.1618 226.342 65.0901 225.953 64.9469 225.66C64.8036 225.362 64.5944 225.148 64.3193 225.016C64.0443 224.878 63.7062 224.809 63.305 224.809C62.9096 224.809 62.5485 224.893 62.2219 225.059C61.901 225.225 61.623 225.454 61.388 225.746C61.1588 226.039 60.9783 226.374 60.8465 226.752C60.7204 227.125 60.6574 227.52 60.6574 227.938ZM74.6606 231.351V226.563C74.6606 226.196 74.5861 225.878 74.4371 225.609C74.2938 225.334 74.076 225.122 73.7838 224.973C73.4915 224.824 73.1304 224.749 72.7006 224.749C72.2995 224.749 71.947 224.818 71.6433 224.956C71.3453 225.093 71.1103 225.274 70.9384 225.497C70.7722 225.721 70.6891 225.961 70.6891 226.219H69.0988C69.0988 225.887 69.1848 225.557 69.3567 225.231C69.5286 224.904 69.7751 224.609 70.096 224.345C70.4226 224.076 70.8123 223.864 71.2651 223.709C71.7235 223.549 72.2336 223.468 72.7952 223.468C73.4714 223.468 74.0674 223.583 74.5832 223.812C75.1047 224.041 75.5116 224.388 75.8039 224.852C76.1019 225.311 76.2509 225.887 76.2509 226.58V230.913C76.2509 231.222 76.2767 231.552 76.3282 231.901C76.3855 232.251 76.4686 232.552 76.5775 232.804V232.941H74.9185C74.8382 232.758 74.7752 232.514 74.7293 232.211C74.6835 231.901 74.6606 231.615 74.6606 231.351ZM74.9356 227.302L74.9528 228.42H73.3454C72.8926 228.42 72.4886 228.457 72.1333 228.532C71.778 228.6 71.48 228.706 71.2393 228.85C70.9986 228.993 70.8152 229.173 70.6891 229.391C70.563 229.603 70.5 229.853 70.5 230.139C70.5 230.431 70.5659 230.698 70.6977 230.938C70.8295 231.179 71.0272 231.371 71.2909 231.514C71.5602 231.652 71.8897 231.721 72.2794 231.721C72.7665 231.721 73.1963 231.618 73.5689 231.411C73.9414 231.205 74.2365 230.953 74.4543 230.655C74.6778 230.357 74.7981 230.067 74.8153 229.787L75.4944 230.552C75.4543 230.792 75.3454 231.059 75.1677 231.351C74.9901 231.643 74.7523 231.924 74.4543 232.194C74.162 232.457 73.8124 232.678 73.4055 232.855C73.0044 233.027 72.5516 233.113 72.0473 233.113C71.4169 233.113 70.8639 232.99 70.3883 232.744C69.9183 232.497 69.5516 232.168 69.2879 231.755C69.0301 231.337 68.9011 230.87 68.9011 230.354C68.9011 229.855 68.9985 229.417 69.1934 229.039C69.3882 228.655 69.669 228.337 70.0358 228.085C70.4026 227.827 70.8439 227.632 71.3596 227.5C71.8754 227.368 72.4513 227.302 73.0875 227.302H74.9356ZM84.7783 223.64H86.2224V232.744C86.2224 233.563 86.0563 234.262 85.7239 234.841C85.3915 235.42 84.9273 235.858 84.3313 236.156C83.741 236.46 83.059 236.612 82.2854 236.612C81.9645 236.612 81.5862 236.56 81.1507 236.457C80.7209 236.36 80.2968 236.191 79.8785 235.95C79.4658 235.715 79.1191 235.397 78.8383 234.996L79.6721 234.05C80.0618 234.52 80.4687 234.847 80.8928 235.03C81.3226 235.214 81.7467 235.305 82.165 235.305C82.6694 235.305 83.1049 235.211 83.4717 235.022C83.8384 234.833 84.1221 234.552 84.3227 234.179C84.529 233.812 84.6321 233.36 84.6321 232.821V225.686L84.7783 223.64ZM78.3741 228.394V228.214C78.3741 227.503 78.4572 226.858 78.6234 226.279C78.7953 225.695 79.0389 225.193 79.3541 224.775C79.675 224.357 80.0618 224.036 80.5146 223.812C80.9673 223.583 81.4773 223.468 82.0447 223.468C82.6292 223.468 83.1393 223.572 83.5748 223.778C84.0161 223.978 84.3886 224.274 84.6923 224.663C85.0018 225.047 85.2453 225.511 85.423 226.056C85.6007 226.6 85.7239 227.216 85.7926 227.904V228.695C85.7296 229.377 85.6064 229.99 85.423 230.534C85.2453 231.079 85.0018 231.543 84.6923 231.927C84.3886 232.311 84.0161 232.606 83.5748 232.812C83.1335 233.013 82.6178 233.113 82.0275 233.113C81.4716 233.113 80.9673 232.996 80.5146 232.761C80.0676 232.526 79.6836 232.196 79.3627 231.772C79.0418 231.348 78.7953 230.85 78.6234 230.277C78.4572 229.698 78.3741 229.07 78.3741 228.394ZM79.9644 228.214V228.394C79.9644 228.858 80.0103 229.294 80.102 229.701C80.1994 230.108 80.3455 230.466 80.5404 230.775C80.7409 231.085 80.996 231.328 81.3054 231.506C81.6149 231.678 81.9845 231.764 82.4143 231.764C82.9416 231.764 83.3771 231.652 83.721 231.428C84.0648 231.205 84.337 230.91 84.5376 230.543C84.7439 230.176 84.9044 229.778 85.019 229.348V227.277C84.9559 226.961 84.8585 226.658 84.7267 226.365C84.6006 226.067 84.4344 225.804 84.2281 225.574C84.0276 225.34 83.7783 225.153 83.4803 225.016C83.1823 224.878 82.8327 224.809 82.4315 224.809C81.996 224.809 81.6206 224.901 81.3054 225.084C80.996 225.262 80.7409 225.509 80.5404 225.824C80.3455 226.133 80.1994 226.494 80.102 226.907C80.0103 227.314 79.9644 227.749 79.9644 228.214ZM92.4977 233.113C91.8501 233.113 91.2627 233.004 90.7354 232.787C90.2139 232.563 89.7641 232.251 89.3858 231.85C89.0133 231.449 88.7268 230.973 88.5262 230.423C88.3256 229.873 88.2254 229.271 88.2254 228.618V228.256C88.2254 227.5 88.3371 226.827 88.5606 226.236C88.7841 225.64 89.0878 225.136 89.4718 224.723C89.8558 224.311 90.2913 223.999 90.7784 223.786C91.2655 223.574 91.7699 223.468 92.2914 223.468C92.9561 223.468 93.5292 223.583 94.0106 223.812C94.4977 224.041 94.896 224.362 95.2055 224.775C95.5149 225.182 95.7442 225.663 95.8932 226.219C96.0422 226.769 96.1167 227.371 96.1167 228.024V228.738H89.1709V227.44H94.5264V227.319C94.5034 226.907 94.4175 226.506 94.2685 226.116C94.1252 225.726 93.896 225.405 93.5808 225.153C93.2656 224.901 92.8358 224.775 92.2914 224.775C91.9303 224.775 91.5979 224.852 91.2942 225.007C90.9905 225.156 90.7297 225.38 90.5119 225.678C90.2942 225.976 90.1251 226.34 90.0048 226.769C89.8844 227.199 89.8242 227.695 89.8242 228.256V228.618C89.8242 229.059 89.8844 229.474 90.0048 229.864C90.1308 230.248 90.3114 230.586 90.5463 230.878C90.787 231.171 91.0764 231.4 91.4145 231.566C91.7584 231.732 92.1481 231.815 92.5836 231.815C93.1452 231.815 93.6209 231.701 94.0106 231.471C94.4003 231.242 94.7413 230.936 95.0335 230.552L95.9963 231.317C95.7957 231.62 95.5407 231.91 95.2313 232.185C94.9218 232.46 94.5407 232.684 94.088 232.855C93.641 233.027 93.1109 233.113 92.4977 233.113ZM104.954 231.979L107.541 223.64H109.243L105.512 234.377C105.426 234.606 105.312 234.853 105.168 235.116C105.031 235.386 104.853 235.641 104.635 235.881C104.418 236.122 104.154 236.317 103.845 236.466C103.541 236.621 103.177 236.698 102.753 236.698C102.627 236.698 102.466 236.681 102.272 236.646C102.077 236.612 101.939 236.583 101.859 236.56L101.85 235.271C101.896 235.277 101.968 235.282 102.065 235.288C102.168 235.3 102.24 235.305 102.28 235.305C102.641 235.305 102.948 235.257 103.2 235.159C103.452 235.068 103.664 234.91 103.836 234.686C104.014 234.469 104.166 234.168 104.292 233.784L104.954 231.979ZM103.054 223.64L105.469 230.861L105.882 232.537L104.739 233.122L101.317 223.64H103.054ZM110.12 228.394V228.196C110.12 227.526 110.217 226.904 110.412 226.331C110.607 225.752 110.888 225.251 111.255 224.827C111.621 224.397 112.065 224.064 112.587 223.829C113.108 223.589 113.693 223.468 114.341 223.468C114.994 223.468 115.581 223.589 116.103 223.829C116.63 224.064 117.077 224.397 117.444 224.827C117.816 225.251 118.1 225.752 118.295 226.331C118.49 226.904 118.587 227.526 118.587 228.196V228.394C118.587 229.065 118.49 229.686 118.295 230.259C118.1 230.832 117.816 231.334 117.444 231.764C117.077 232.188 116.633 232.52 116.111 232.761C115.596 232.996 115.011 233.113 114.358 233.113C113.704 233.113 113.117 232.996 112.596 232.761C112.074 232.52 111.627 232.188 111.255 231.764C110.888 231.334 110.607 230.832 110.412 230.259C110.217 229.686 110.12 229.065 110.12 228.394ZM111.71 228.196V228.394C111.71 228.858 111.765 229.297 111.873 229.709C111.982 230.116 112.146 230.477 112.363 230.792C112.587 231.108 112.865 231.357 113.197 231.54C113.53 231.718 113.917 231.807 114.358 231.807C114.793 231.807 115.174 231.718 115.501 231.54C115.833 231.357 116.109 231.108 116.326 230.792C116.544 230.477 116.707 230.116 116.816 229.709C116.931 229.297 116.988 228.858 116.988 228.394V228.196C116.988 227.738 116.931 227.305 116.816 226.898C116.707 226.486 116.541 226.122 116.318 225.807C116.1 225.486 115.825 225.233 115.492 225.05C115.166 224.867 114.782 224.775 114.341 224.775C113.905 224.775 113.521 224.867 113.189 225.05C112.862 225.233 112.587 225.486 112.363 225.807C112.146 226.122 111.982 226.486 111.873 226.898C111.765 227.305 111.71 227.738 111.71 228.196ZM126.272 230.792V223.64H127.871V232.941H126.349L126.272 230.792ZM126.573 228.832L127.235 228.815C127.235 229.434 127.169 230.007 127.037 230.534C126.911 231.056 126.705 231.509 126.418 231.893C126.132 232.277 125.756 232.578 125.292 232.795C124.828 233.007 124.263 233.113 123.599 233.113C123.146 233.113 122.73 233.047 122.352 232.916C121.98 232.784 121.659 232.58 121.389 232.305C121.12 232.03 120.911 231.672 120.762 231.231C120.619 230.789 120.547 230.259 120.547 229.64V223.64H122.137V229.658C122.137 230.076 122.183 230.423 122.275 230.698C122.372 230.967 122.501 231.182 122.662 231.343C122.828 231.497 123.011 231.606 123.212 231.669C123.418 231.732 123.63 231.764 123.848 231.764C124.524 231.764 125.06 231.635 125.455 231.377C125.851 231.113 126.135 230.761 126.306 230.32C126.484 229.873 126.573 229.377 126.573 228.832ZM131.885 225.102V232.941H130.295V223.64H131.842L131.885 225.102ZM134.791 223.589L134.782 225.067C134.651 225.039 134.524 225.021 134.404 225.016C134.289 225.004 134.158 224.999 134.009 224.999C133.642 224.999 133.318 225.056 133.037 225.17C132.757 225.285 132.519 225.446 132.324 225.652C132.129 225.858 131.974 226.105 131.86 226.391C131.751 226.672 131.679 226.981 131.645 227.319L131.198 227.577C131.198 227.016 131.252 226.489 131.361 225.996C131.476 225.503 131.65 225.067 131.885 224.689C132.12 224.305 132.418 224.007 132.779 223.795C133.146 223.577 133.582 223.468 134.086 223.468C134.201 223.468 134.332 223.483 134.481 223.511C134.63 223.534 134.734 223.56 134.791 223.589ZM145.33 227.087H142.158L142.141 225.755H145.02C145.496 225.755 145.912 225.675 146.267 225.514C146.622 225.354 146.897 225.125 147.092 224.827C147.293 224.523 147.393 224.162 147.393 223.743C147.393 223.285 147.304 222.913 147.126 222.626C146.955 222.334 146.688 222.122 146.327 221.99C145.972 221.852 145.519 221.784 144.969 221.784H142.528V232.941H140.868V220.425H144.969C145.611 220.425 146.184 220.491 146.688 220.623C147.192 220.749 147.619 220.95 147.969 221.225C148.324 221.494 148.594 221.838 148.777 222.256C148.96 222.675 149.052 223.176 149.052 223.761C149.052 224.276 148.92 224.744 148.657 225.162C148.393 225.574 148.026 225.913 147.556 226.176C147.092 226.44 146.548 226.609 145.923 226.683L145.33 227.087ZM145.252 232.941H141.505L142.442 231.592H145.252C145.78 231.592 146.227 231.5 146.594 231.317C146.966 231.133 147.25 230.875 147.445 230.543C147.639 230.205 147.737 229.807 147.737 229.348C147.737 228.884 147.654 228.483 147.488 228.145C147.321 227.807 147.061 227.546 146.705 227.362C146.35 227.179 145.891 227.087 145.33 227.087H142.966L142.983 225.755H146.215L146.568 226.236C147.169 226.288 147.679 226.46 148.098 226.752C148.516 227.039 148.834 227.405 149.052 227.852C149.276 228.299 149.387 228.792 149.387 229.331C149.387 230.11 149.215 230.769 148.871 231.308C148.533 231.841 148.055 232.248 147.436 232.529C146.817 232.804 146.089 232.941 145.252 232.941ZM153.324 223.64V232.941H151.725V223.64H153.324ZM151.605 221.173C151.605 220.915 151.682 220.698 151.837 220.52C151.998 220.342 152.233 220.253 152.542 220.253C152.846 220.253 153.078 220.342 153.238 220.52C153.405 220.698 153.488 220.915 153.488 221.173C153.488 221.42 153.405 221.632 153.238 221.809C153.078 221.981 152.846 222.067 152.542 222.067C152.233 222.067 151.998 221.981 151.837 221.809C151.682 221.632 151.605 221.42 151.605 221.173ZM159.771 223.64V224.861H154.743V223.64H159.771ZM156.445 221.38H158.035V230.638C158.035 230.953 158.084 231.191 158.181 231.351C158.279 231.512 158.405 231.618 158.559 231.669C158.714 231.721 158.88 231.747 159.058 231.747C159.19 231.747 159.327 231.735 159.471 231.712C159.62 231.683 159.731 231.661 159.806 231.643L159.814 232.941C159.688 232.982 159.522 233.019 159.316 233.053C159.115 233.093 158.872 233.113 158.585 233.113C158.195 233.113 157.837 233.036 157.511 232.881C157.184 232.727 156.923 232.469 156.728 232.108C156.539 231.741 156.445 231.248 156.445 230.629V221.38ZM165.359 231.807C165.737 231.807 166.087 231.729 166.408 231.575C166.729 231.42 166.992 231.208 167.199 230.938C167.405 230.663 167.522 230.351 167.551 230.002H169.064C169.035 230.552 168.849 231.065 168.505 231.54C168.167 232.01 167.723 232.391 167.173 232.684C166.623 232.97 166.018 233.113 165.359 233.113C164.66 233.113 164.05 232.99 163.528 232.744C163.012 232.497 162.582 232.159 162.239 231.729C161.9 231.3 161.645 230.807 161.474 230.251C161.307 229.689 161.224 229.096 161.224 228.471V228.11C161.224 227.486 161.307 226.895 161.474 226.34C161.645 225.778 161.9 225.282 162.239 224.852C162.582 224.423 163.012 224.084 163.528 223.838C164.05 223.592 164.66 223.468 165.359 223.468C166.087 223.468 166.723 223.617 167.267 223.915C167.812 224.208 168.239 224.609 168.548 225.119C168.863 225.623 169.035 226.196 169.064 226.838H167.551C167.522 226.454 167.413 226.107 167.224 225.798C167.041 225.489 166.789 225.242 166.468 225.059C166.153 224.87 165.783 224.775 165.359 224.775C164.872 224.775 164.462 224.872 164.13 225.067C163.803 225.256 163.542 225.514 163.347 225.841C163.158 226.162 163.021 226.52 162.935 226.915C162.855 227.305 162.815 227.703 162.815 228.11V228.471C162.815 228.878 162.855 229.279 162.935 229.675C163.015 230.07 163.15 230.428 163.339 230.749C163.534 231.07 163.794 231.328 164.121 231.523C164.454 231.712 164.866 231.807 165.359 231.807ZM170.431 228.394V228.196C170.431 227.526 170.528 226.904 170.723 226.331C170.918 225.752 171.199 225.251 171.565 224.827C171.932 224.397 172.376 224.064 172.898 223.829C173.419 223.589 174.004 223.468 174.651 223.468C175.305 223.468 175.892 223.589 176.414 223.829C176.941 224.064 177.388 224.397 177.755 224.827C178.127 225.251 178.411 225.752 178.606 226.331C178.801 226.904 178.898 227.526 178.898 228.196V228.394C178.898 229.065 178.801 229.686 178.606 230.259C178.411 230.832 178.127 231.334 177.755 231.764C177.388 232.188 176.944 232.52 176.422 232.761C175.907 232.996 175.322 233.113 174.669 233.113C174.015 233.113 173.428 232.996 172.906 232.761C172.385 232.52 171.938 232.188 171.565 231.764C171.199 231.334 170.918 230.832 170.723 230.259C170.528 229.686 170.431 229.065 170.431 228.394ZM172.021 228.196V228.394C172.021 228.858 172.075 229.297 172.184 229.709C172.293 230.116 172.457 230.477 172.674 230.792C172.898 231.108 173.176 231.357 173.508 231.54C173.841 231.718 174.227 231.807 174.669 231.807C175.104 231.807 175.485 231.718 175.812 231.54C176.144 231.357 176.419 231.108 176.637 230.792C176.855 230.477 177.018 230.116 177.127 229.709C177.242 229.297 177.299 228.858 177.299 228.394V228.196C177.299 227.738 177.242 227.305 177.127 226.898C177.018 226.486 176.852 226.122 176.629 225.807C176.411 225.486 176.136 225.233 175.803 225.05C175.477 224.867 175.093 224.775 174.651 224.775C174.216 224.775 173.832 224.867 173.5 225.05C173.173 225.233 172.898 225.486 172.674 225.807C172.457 226.122 172.293 226.486 172.184 226.898C172.075 227.305 172.021 227.738 172.021 228.196ZM182.62 223.64V232.941H181.021V223.64H182.62ZM180.901 221.173C180.901 220.915 180.978 220.698 181.133 220.52C181.293 220.342 181.528 220.253 181.838 220.253C182.142 220.253 182.374 220.342 182.534 220.52C182.7 220.698 182.783 220.915 182.783 221.173C182.783 221.42 182.7 221.632 182.534 221.809C182.374 221.981 182.142 222.067 181.838 222.067C181.528 222.067 181.293 221.981 181.133 221.809C180.978 221.632 180.901 221.42 180.901 221.173ZM186.764 225.626V232.941H185.173V223.64H186.678L186.764 225.626ZM186.385 227.938L185.723 227.913C185.729 227.277 185.824 226.689 186.007 226.15C186.19 225.606 186.448 225.133 186.781 224.732C187.113 224.331 187.509 224.021 187.967 223.804C188.431 223.58 188.944 223.468 189.506 223.468C189.964 223.468 190.377 223.531 190.744 223.658C191.11 223.778 191.423 223.973 191.681 224.242C191.944 224.511 192.145 224.861 192.282 225.291C192.42 225.715 192.489 226.234 192.489 226.847V232.941H190.89V226.83C190.89 226.342 190.818 225.953 190.675 225.66C190.532 225.362 190.322 225.148 190.047 225.016C189.772 224.878 189.434 224.809 189.033 224.809C188.637 224.809 188.276 224.893 187.95 225.059C187.629 225.225 187.351 225.454 187.116 225.746C186.887 226.039 186.706 226.374 186.574 226.752C186.448 227.125 186.385 227.52 186.385 227.938Z" fill="black"/>
<path d="M17.615 249.078V256.23H16.6817V249.078H17.615ZM19.9139 249.078V249.855H14.3878V249.078H19.9139ZM23.7257 255.322V252.586C23.7257 252.376 23.6831 252.194 23.598 252.04C23.5161 251.883 23.3917 251.762 23.2246 251.677C23.0576 251.592 22.8513 251.549 22.6057 251.549C22.3765 251.549 22.1751 251.589 22.0015 251.667C21.8312 251.746 21.697 251.849 21.5987 251.977C21.5038 252.104 21.4563 252.242 21.4563 252.389H20.5475C20.5475 252.199 20.5967 252.011 20.6949 251.824C20.7932 251.638 20.934 251.469 21.1174 251.318C21.304 251.164 21.5267 251.043 21.7854 250.955C22.0474 250.863 22.3388 250.817 22.6598 250.817C23.0462 250.817 23.3867 250.883 23.6815 251.014C23.9795 251.145 24.212 251.343 24.379 251.608C24.5493 251.87 24.6344 252.199 24.6344 252.596V255.071C24.6344 255.248 24.6492 255.436 24.6786 255.636C24.7114 255.836 24.7589 256.008 24.8211 256.152V256.23H23.873C23.8272 256.126 23.7912 255.987 23.765 255.813C23.7388 255.636 23.7257 255.472 23.7257 255.322ZM23.8829 253.008L23.8927 253.647H22.9741C22.7154 253.647 22.4846 253.668 22.2815 253.711C22.0785 253.75 21.9082 253.81 21.7707 253.892C21.6331 253.974 21.5283 254.077 21.4563 254.202C21.3842 254.323 21.3482 254.465 21.3482 254.629C21.3482 254.796 21.3859 254.948 21.4612 255.086C21.5365 255.223 21.6495 255.333 21.8001 255.415C21.9541 255.494 22.1423 255.533 22.365 255.533C22.6434 255.533 22.889 255.474 23.1018 255.356C23.3147 255.238 23.4834 255.094 23.6078 254.924C23.7355 254.754 23.8043 254.588 23.8141 254.428L24.2022 254.865C24.1792 255.002 24.117 255.155 24.0155 255.322C23.914 255.489 23.7781 255.649 23.6078 255.803C23.4408 255.954 23.241 256.08 23.0085 256.181C22.7793 256.28 22.5206 256.329 22.2324 256.329C21.8722 256.329 21.5562 256.258 21.2844 256.117C21.0158 255.977 20.8063 255.788 20.6556 255.553C20.5083 255.314 20.4346 255.047 20.4346 254.752C20.4346 254.467 20.4902 254.217 20.6016 254C20.7129 253.781 20.8734 253.599 21.083 253.455C21.2926 253.308 21.5447 253.196 21.8394 253.121C22.1342 253.046 22.4633 253.008 22.8268 253.008H23.8829ZM27.2919 248.685V256.23H26.3782V248.685H27.2919ZM30.5388 250.916L28.2203 253.396L26.9235 254.742L26.8498 253.774L27.7782 252.664L29.4286 250.916H30.5388ZM29.7086 256.23L27.8126 253.696L28.2841 252.885L30.7795 256.23H29.7086ZM33.8987 256.329C33.5286 256.329 33.193 256.266 32.8917 256.142C32.5937 256.014 32.3366 255.836 32.1205 255.607C31.9076 255.377 31.7439 255.106 31.6293 254.791C31.5147 254.477 31.4573 254.133 31.4573 253.76V253.553C31.4573 253.121 31.5212 252.736 31.6489 252.399C31.7766 252.058 31.9502 251.77 32.1696 251.534C32.389 251.299 32.6379 251.12 32.9162 250.999C33.1946 250.878 33.4828 250.817 33.7808 250.817C34.1606 250.817 34.4881 250.883 34.7632 251.014C35.0415 251.145 35.2691 251.328 35.446 251.564C35.6228 251.796 35.7538 252.072 35.8389 252.389C35.9241 252.704 35.9667 253.047 35.9667 253.421V253.828H31.9977V253.087H35.0579V253.018C35.0448 252.782 34.9957 252.553 34.9106 252.33C34.8287 252.108 34.6977 251.924 34.5176 251.78C34.3375 251.636 34.0919 251.564 33.7808 251.564C33.5745 251.564 33.3845 251.608 33.211 251.697C33.0374 251.782 32.8884 251.909 32.764 252.08C32.6395 252.25 32.5429 252.458 32.4742 252.704C32.4054 252.949 32.371 253.232 32.371 253.553V253.76C32.371 254.012 32.4054 254.249 32.4742 254.472C32.5462 254.691 32.6494 254.885 32.7836 255.052C32.9212 255.219 33.0865 255.35 33.2797 255.445C33.4762 255.539 33.6989 255.587 33.9478 255.587C34.2687 255.587 34.5405 255.521 34.7632 255.39C34.9859 255.26 35.1807 255.084 35.3477 254.865L35.8979 255.302C35.7833 255.476 35.6376 255.641 35.4607 255.798C35.2839 255.955 35.0661 256.083 34.8074 256.181C34.552 256.28 34.2491 256.329 33.8987 256.329ZM41.5075 256.23H40.5988V250.356C40.5988 249.972 40.6676 249.65 40.8051 249.388C40.9459 249.123 41.1473 248.923 41.4093 248.789C41.6713 248.651 41.9824 248.582 42.3426 248.582C42.4474 248.582 42.5522 248.589 42.657 248.602C42.765 248.615 42.8698 248.635 42.9713 248.661L42.9222 249.403C42.8534 249.386 42.7748 249.375 42.6864 249.368C42.6013 249.362 42.5161 249.358 42.431 249.358C42.2378 249.358 42.0708 249.398 41.93 249.476C41.7924 249.552 41.6876 249.663 41.6156 249.81C41.5435 249.958 41.5075 250.139 41.5075 250.356V256.23ZM42.6373 250.916V251.613H39.7588V250.916H42.6373ZM47.2154 255.002V250.916H48.129V256.23H47.2596L47.2154 255.002ZM47.3873 253.882L47.7655 253.873C47.7655 254.226 47.7279 254.554 47.6526 254.855C47.5805 255.153 47.4626 255.412 47.2989 255.631C47.1352 255.851 46.9207 256.023 46.6554 256.147C46.3902 256.268 46.0676 256.329 45.6877 256.329C45.429 256.329 45.1916 256.291 44.9755 256.216C44.7626 256.14 44.5792 256.024 44.4253 255.867C44.2714 255.71 44.1519 255.505 44.0667 255.253C43.9849 255.001 43.9439 254.698 43.9439 254.344V250.916H44.8527V254.354C44.8527 254.593 44.8789 254.791 44.9313 254.948C44.9869 255.102 45.0606 255.225 45.1523 255.317C45.2473 255.405 45.3521 255.467 45.4667 255.503C45.5846 255.539 45.7057 255.558 45.8302 255.558C46.2166 255.558 46.5228 255.484 46.7487 255.336C46.9747 255.186 47.1368 254.984 47.235 254.732C47.3366 254.477 47.3873 254.194 47.3873 253.882ZM50.816 248.685V256.23H49.9023V248.685H50.816ZM53.5766 248.685V256.23H52.6629V248.685H53.5766ZM60.2865 255.582C60.5026 255.582 60.7024 255.538 60.8858 255.449C61.0692 255.361 61.2198 255.24 61.3377 255.086C61.4556 254.929 61.5227 254.75 61.5391 254.551H62.4036C62.3873 254.865 62.2808 255.158 62.0843 255.43C61.8911 255.698 61.6373 255.916 61.323 256.083C61.0086 256.247 60.6631 256.329 60.2865 256.329C59.887 256.329 59.5382 256.258 59.2402 256.117C58.9455 255.977 58.6999 255.783 58.5034 255.538C58.3102 255.292 58.1645 255.011 58.0662 254.693C57.9713 254.372 57.9238 254.033 57.9238 253.676V253.47C57.9238 253.113 57.9713 252.776 58.0662 252.458C58.1645 252.137 58.3102 251.854 58.5034 251.608C58.6999 251.363 58.9455 251.169 59.2402 251.029C59.5382 250.888 59.887 250.817 60.2865 250.817C60.7024 250.817 61.0659 250.902 61.377 251.073C61.6881 251.24 61.9321 251.469 62.1089 251.76C62.289 252.049 62.3873 252.376 62.4036 252.743H61.5391C61.5227 252.523 61.4605 252.325 61.3524 252.149C61.2477 251.972 61.1036 251.831 60.9202 251.726C60.7401 251.618 60.5288 251.564 60.2865 251.564C60.0082 251.564 59.774 251.62 59.5841 251.731C59.3974 251.839 59.2484 251.986 59.1371 252.173C59.029 252.356 58.9504 252.561 58.9013 252.787C58.8555 253.01 58.8325 253.237 58.8325 253.47V253.676C58.8325 253.909 58.8555 254.138 58.9013 254.364C58.9471 254.59 59.0241 254.794 59.1322 254.978C59.2435 255.161 59.3925 255.309 59.5792 255.42C59.7691 255.528 60.0049 255.582 60.2865 255.582ZM63.499 253.632V253.519C63.499 253.136 63.5547 252.781 63.666 252.453C63.7774 252.122 63.9379 251.836 64.1474 251.593C64.357 251.348 64.6108 251.158 64.9088 251.024C65.2068 250.886 65.5408 250.817 65.9109 250.817C66.2842 250.817 66.6199 250.886 66.9179 251.024C67.2191 251.158 67.4746 251.348 67.6842 251.593C67.897 251.836 68.0591 252.122 68.1705 252.453C68.2818 252.781 68.3375 253.136 68.3375 253.519V253.632C68.3375 254.015 68.2818 254.37 68.1705 254.698C68.0591 255.025 67.897 255.312 67.6842 255.558C67.4746 255.8 67.2208 255.99 66.9228 256.127C66.6281 256.262 66.294 256.329 65.9207 256.329C65.5474 256.329 65.2117 256.262 64.9137 256.127C64.6157 255.99 64.3603 255.8 64.1474 255.558C63.9379 255.312 63.7774 255.025 63.666 254.698C63.5547 254.37 63.499 254.015 63.499 253.632ZM64.4078 253.519V253.632C64.4078 253.897 64.4389 254.148 64.5011 254.384C64.5633 254.616 64.6567 254.822 64.7811 255.002C64.9088 255.183 65.0676 255.325 65.2576 255.43C65.4475 255.531 65.6686 255.582 65.9207 255.582C66.1696 255.582 66.3874 255.531 66.574 255.43C66.764 255.325 66.9211 255.183 67.0456 255.002C67.17 254.822 67.2634 254.616 67.3256 254.384C67.3911 254.148 67.4238 253.897 67.4238 253.632V253.519C67.4238 253.257 67.3911 253.01 67.3256 252.777C67.2634 252.541 67.1684 252.334 67.0407 252.153C66.9162 251.97 66.759 251.826 66.5691 251.721C66.3824 251.616 66.163 251.564 65.9109 251.564C65.662 251.564 65.4426 251.616 65.2527 251.721C65.066 251.826 64.9088 251.97 64.7811 252.153C64.6567 252.334 64.5633 252.541 64.5011 252.777C64.4389 253.01 64.4078 253.257 64.4078 253.519ZM70.7002 252.05V256.23H69.7914V250.916H70.6511L70.7002 252.05ZM70.4841 253.372L70.1058 253.357C70.1091 252.993 70.1631 252.658 70.2679 252.35C70.3727 252.039 70.5201 251.769 70.71 251.539C70.8999 251.31 71.1259 251.133 71.3879 251.009C71.6531 250.881 71.9462 250.817 72.2671 250.817C72.5291 250.817 72.7649 250.853 72.9745 250.925C73.1841 250.994 73.3625 251.106 73.5099 251.259C73.6606 251.413 73.7752 251.613 73.8538 251.859C73.9324 252.101 73.9717 252.397 73.9717 252.748V256.23H73.058V252.738C73.058 252.46 73.0171 252.237 72.9352 252.07C72.8533 251.9 72.7338 251.777 72.5766 251.702C72.4194 251.623 72.2262 251.584 71.997 251.584C71.771 251.584 71.5647 251.631 71.3781 251.726C71.1947 251.821 71.0358 251.952 70.9016 252.119C70.7706 252.286 70.6674 252.478 70.5921 252.694C70.5201 252.907 70.4841 253.133 70.4841 253.372ZM77.8915 250.916V251.613H75.0179V250.916H77.8915ZM75.9905 249.624H76.8993V254.914C76.8993 255.094 76.9271 255.23 76.9828 255.322C77.0384 255.413 77.1105 255.474 77.1989 255.503C77.2873 255.533 77.3823 255.548 77.4838 255.548C77.5591 255.548 77.6377 255.541 77.7196 255.528C77.8047 255.512 77.8686 255.499 77.9112 255.489L77.9161 256.23C77.844 256.253 77.7491 256.275 77.6312 256.294C77.5166 256.317 77.3774 256.329 77.2136 256.329C76.991 256.329 76.7863 256.285 76.5996 256.196C76.413 256.108 76.264 255.96 76.1526 255.754C76.0446 255.544 75.9905 255.263 75.9905 254.909V249.624ZM80.1806 251.751V256.23H79.2718V250.916H80.156L80.1806 251.751ZM81.8408 250.886L81.8359 251.731C81.7606 251.715 81.6886 251.705 81.6198 251.702C81.5543 251.695 81.479 251.692 81.3938 251.692C81.1843 251.692 80.9992 251.724 80.8388 251.79C80.6783 251.855 80.5424 251.947 80.4311 252.065C80.3197 252.183 80.2313 252.324 80.1658 252.487C80.1036 252.648 80.0627 252.825 80.043 253.018L79.7876 253.165C79.7876 252.844 79.8187 252.543 79.8809 252.261C79.9464 251.98 80.0463 251.731 80.1806 251.515C80.3148 251.295 80.4851 251.125 80.6914 251.004C80.901 250.88 81.1499 250.817 81.4381 250.817C81.5036 250.817 81.5789 250.826 81.664 250.842C81.7492 250.855 81.8081 250.87 81.8408 250.886ZM82.6563 253.632V253.519C82.6563 253.136 82.7119 252.781 82.8233 252.453C82.9346 252.122 83.0951 251.836 83.3047 251.593C83.5142 251.348 83.768 251.158 84.066 251.024C84.364 250.886 84.6981 250.817 85.0681 250.817C85.4414 250.817 85.7771 250.886 86.0751 251.024C86.3764 251.158 86.6318 251.348 86.8414 251.593C87.0542 251.836 87.2163 252.122 87.3277 252.453C87.439 252.781 87.4947 253.136 87.4947 253.519V253.632C87.4947 254.015 87.439 254.37 87.3277 254.698C87.2163 255.025 87.0542 255.312 86.8414 255.558C86.6318 255.8 86.378 255.99 86.08 256.127C85.7853 256.262 85.4513 256.329 85.0779 256.329C84.7046 256.329 84.3689 256.262 84.0709 256.127C83.7729 255.99 83.5175 255.8 83.3047 255.558C83.0951 255.312 82.9346 255.025 82.8233 254.698C82.7119 254.37 82.6563 254.015 82.6563 253.632ZM83.565 253.519V253.632C83.565 253.897 83.5961 254.148 83.6583 254.384C83.7206 254.616 83.8139 254.822 83.9383 255.002C84.066 255.183 84.2249 255.325 84.4148 255.43C84.6047 255.531 84.8258 255.582 85.0779 255.582C85.3268 255.582 85.5446 255.531 85.7312 255.43C85.9212 255.325 86.0784 255.183 86.2028 255.002C86.3272 254.822 86.4206 254.616 86.4828 254.384C86.5483 254.148 86.581 253.897 86.581 253.632V253.519C86.581 253.257 86.5483 253.01 86.4828 252.777C86.4206 252.541 86.3256 252.334 86.1979 252.153C86.0735 251.97 85.9163 251.826 85.7263 251.721C85.5397 251.616 85.3203 251.564 85.0681 251.564C84.8192 251.564 84.5998 251.616 84.4099 251.721C84.2232 251.826 84.066 251.97 83.9383 252.153C83.8139 252.334 83.7206 252.541 83.6583 252.777C83.5961 253.01 83.565 253.257 83.565 253.519ZM89.936 248.685V256.23H89.0224V248.685H89.936ZM95.8649 255.287L97.2305 250.916H97.8298L97.7119 251.785L96.3218 256.23H95.7372L95.8649 255.287ZM94.9464 250.916L96.1105 255.336L96.194 256.23H95.58L94.0376 250.916H94.9464ZM99.1364 255.302L100.247 250.916H101.15L99.608 256.23H98.9989L99.1364 255.302ZM97.9624 250.916L99.2985 255.214L99.4508 256.23H98.8711L97.4417 251.775L97.3238 250.916H97.9624ZM103.385 250.916V256.23H102.472V250.916H103.385ZM102.403 249.506C102.403 249.358 102.447 249.234 102.536 249.132C102.627 249.031 102.762 248.98 102.938 248.98C103.112 248.98 103.245 249.031 103.336 249.132C103.431 249.234 103.479 249.358 103.479 249.506C103.479 249.647 103.431 249.768 103.336 249.869C103.245 249.968 103.112 250.017 102.938 250.017C102.762 250.017 102.627 249.968 102.536 249.869C102.447 249.768 102.403 249.647 102.403 249.506ZM107.384 250.916V251.613H104.51V250.916H107.384ZM105.483 249.624H106.392V254.914C106.392 255.094 106.419 255.23 106.475 255.322C106.531 255.413 106.603 255.474 106.691 255.503C106.78 255.533 106.875 255.548 106.976 255.548C107.051 255.548 107.13 255.541 107.212 255.528C107.297 255.512 107.361 255.499 107.403 255.489L107.408 256.23C107.336 256.253 107.241 256.275 107.123 256.294C107.009 256.317 106.87 256.329 106.706 256.329C106.483 256.329 106.279 256.285 106.092 256.196C105.905 256.108 105.756 255.96 105.645 255.754C105.537 255.544 105.483 255.263 105.483 254.909V249.624ZM109.673 248.685V256.23H108.764V248.685H109.673ZM109.457 253.372L109.079 253.357C109.082 252.993 109.136 252.658 109.241 252.35C109.345 252.039 109.493 251.769 109.683 251.539C109.873 251.31 110.099 251.133 110.361 251.009C110.626 250.881 110.919 250.817 111.24 250.817C111.502 250.817 111.738 250.853 111.947 250.925C112.157 250.994 112.335 251.106 112.483 251.259C112.633 251.413 112.748 251.613 112.826 251.859C112.905 252.101 112.944 252.397 112.944 252.748V256.23H112.031V252.738C112.031 252.46 111.99 252.237 111.908 252.07C111.826 251.9 111.706 251.777 111.549 251.702C111.392 251.623 111.199 251.584 110.97 251.584C110.744 251.584 110.537 251.631 110.351 251.726C110.167 251.821 110.009 251.952 109.874 252.119C109.743 252.286 109.64 252.478 109.565 252.694C109.493 252.907 109.457 253.133 109.457 253.372ZM119.654 250.916V251.613H116.781V250.916H119.654ZM117.753 249.624H118.662V254.914C118.662 255.094 118.69 255.23 118.746 255.322C118.801 255.413 118.873 255.474 118.962 255.503C119.05 255.533 119.145 255.548 119.247 255.548C119.322 255.548 119.4 255.541 119.482 255.528C119.567 255.512 119.631 255.499 119.674 255.489L119.679 256.23C119.607 256.253 119.512 256.275 119.394 256.294C119.279 256.317 119.14 256.329 118.976 256.329C118.754 256.329 118.549 256.285 118.362 256.196C118.176 256.108 118.027 255.96 117.915 255.754C117.807 255.544 117.753 255.263 117.753 254.909V249.624ZM121.943 248.685V256.23H121.035V248.685H121.943ZM121.727 253.372L121.349 253.357C121.352 252.993 121.406 252.658 121.511 252.35C121.616 252.039 121.763 251.769 121.953 251.539C122.143 251.31 122.369 251.133 122.631 251.009C122.896 250.881 123.189 250.817 123.51 250.817C123.772 250.817 124.008 250.853 124.218 250.925C124.427 250.994 124.606 251.106 124.753 251.259C124.904 251.413 125.018 251.613 125.097 251.859C125.175 252.101 125.215 252.397 125.215 252.748V256.23H124.301V252.738C124.301 252.46 124.26 252.237 124.178 252.07C124.096 251.9 123.977 251.777 123.82 251.702C123.663 251.623 123.469 251.584 123.24 251.584C123.014 251.584 122.808 251.631 122.621 251.726C122.438 251.821 122.279 251.952 122.145 252.119C122.014 252.286 121.911 252.478 121.835 252.694C121.763 252.907 121.727 253.133 121.727 253.372ZM127.877 250.916V256.23H126.963V250.916H127.877ZM126.895 249.506C126.895 249.358 126.939 249.234 127.027 249.132C127.119 249.031 127.253 248.98 127.43 248.98C127.604 248.98 127.736 249.031 127.828 249.132C127.923 249.234 127.97 249.358 127.97 249.506C127.97 249.647 127.923 249.768 127.828 249.869C127.736 249.968 127.604 250.017 127.43 250.017C127.253 250.017 127.119 249.968 127.027 249.869C126.939 249.768 126.895 249.647 126.895 249.506ZM132.745 254.821C132.745 254.69 132.716 254.569 132.657 254.457C132.601 254.343 132.485 254.239 132.308 254.148C132.134 254.053 131.872 253.971 131.522 253.902C131.227 253.84 130.96 253.766 130.721 253.681C130.485 253.596 130.284 253.493 130.117 253.372C129.953 253.25 129.827 253.108 129.739 252.944C129.65 252.781 129.606 252.589 129.606 252.37C129.606 252.16 129.652 251.962 129.744 251.775C129.839 251.589 129.971 251.423 130.142 251.279C130.315 251.135 130.523 251.022 130.765 250.94C131.008 250.858 131.278 250.817 131.576 250.817C132.002 250.817 132.365 250.893 132.666 251.043C132.968 251.194 133.199 251.395 133.359 251.647C133.52 251.896 133.6 252.173 133.6 252.478H132.691C132.691 252.33 132.647 252.188 132.558 252.05C132.473 251.909 132.347 251.793 132.18 251.702C132.016 251.61 131.815 251.564 131.576 251.564C131.324 251.564 131.119 251.603 130.962 251.682C130.808 251.757 130.695 251.854 130.623 251.972C130.554 252.09 130.52 252.214 130.52 252.345C130.52 252.443 130.536 252.532 130.569 252.61C130.605 252.686 130.667 252.756 130.756 252.821C130.844 252.884 130.968 252.943 131.129 252.998C131.289 253.054 131.494 253.11 131.743 253.165C132.179 253.264 132.537 253.381 132.819 253.519C133.1 253.657 133.31 253.825 133.447 254.025C133.585 254.225 133.654 254.467 133.654 254.752C133.654 254.984 133.605 255.197 133.506 255.39C133.411 255.584 133.272 255.751 133.089 255.892C132.909 256.029 132.693 256.137 132.44 256.216C132.192 256.291 131.912 256.329 131.601 256.329C131.132 256.329 130.736 256.245 130.412 256.078C130.088 255.911 129.842 255.695 129.675 255.43C129.508 255.165 129.424 254.885 129.424 254.59H130.338C130.351 254.839 130.423 255.037 130.554 255.184C130.685 255.328 130.846 255.431 131.036 255.494C131.226 255.553 131.414 255.582 131.601 255.582C131.849 255.582 132.057 255.549 132.224 255.484C132.395 255.418 132.524 255.328 132.612 255.214C132.701 255.099 132.745 254.968 132.745 254.821ZM140.098 255.582C140.315 255.582 140.514 255.538 140.698 255.449C140.881 255.361 141.032 255.24 141.15 255.086C141.268 254.929 141.335 254.75 141.351 254.551H142.216C142.199 254.865 142.093 255.158 141.896 255.43C141.703 255.698 141.449 255.916 141.135 256.083C140.821 256.247 140.475 256.329 140.098 256.329C139.699 256.329 139.35 256.258 139.052 256.117C138.757 255.977 138.512 255.783 138.315 255.538C138.122 255.292 137.976 255.011 137.878 254.693C137.783 254.372 137.736 254.033 137.736 253.676V253.47C137.736 253.113 137.783 252.776 137.878 252.458C137.976 252.137 138.122 251.854 138.315 251.608C138.512 251.363 138.757 251.169 139.052 251.029C139.35 250.888 139.699 250.817 140.098 250.817C140.514 250.817 140.878 250.902 141.189 251.073C141.5 251.24 141.744 251.469 141.921 251.76C142.101 252.049 142.199 252.376 142.216 252.743H141.351C141.335 252.523 141.272 252.325 141.164 252.149C141.06 251.972 140.916 251.831 140.732 251.726C140.552 251.618 140.341 251.564 140.098 251.564C139.82 251.564 139.586 251.62 139.396 251.731C139.209 251.839 139.06 251.986 138.949 252.173C138.841 252.356 138.762 252.561 138.713 252.787C138.667 253.01 138.644 253.237 138.644 253.47V253.676C138.644 253.909 138.667 254.138 138.713 254.364C138.759 254.59 138.836 254.794 138.944 254.978C139.055 255.161 139.204 255.309 139.391 255.42C139.581 255.528 139.817 255.582 140.098 255.582ZM143.311 253.632V253.519C143.311 253.136 143.367 252.781 143.478 252.453C143.589 252.122 143.75 251.836 143.959 251.593C144.169 251.348 144.423 251.158 144.721 251.024C145.019 250.886 145.353 250.817 145.723 250.817C146.096 250.817 146.432 250.886 146.73 251.024C147.031 251.158 147.287 251.348 147.496 251.593C147.709 251.836 147.871 252.122 147.982 252.453C148.094 252.781 148.149 253.136 148.149 253.519V253.632C148.149 254.015 148.094 254.37 147.982 254.698C147.871 255.025 147.709 255.312 147.496 255.558C147.287 255.8 147.033 255.99 146.735 256.127C146.44 256.262 146.106 256.329 145.733 256.329C145.359 256.329 145.024 256.262 144.726 256.127C144.428 255.99 144.172 255.8 143.959 255.558C143.75 255.312 143.589 255.025 143.478 254.698C143.367 254.37 143.311 254.015 143.311 253.632ZM144.22 253.519V253.632C144.22 253.897 144.251 254.148 144.313 254.384C144.375 254.616 144.469 254.822 144.593 255.002C144.721 255.183 144.88 255.325 145.07 255.43C145.259 255.531 145.48 255.582 145.733 255.582C145.982 255.582 146.199 255.531 146.386 255.43C146.576 255.325 146.733 255.183 146.858 255.002C146.982 254.822 147.075 254.616 147.138 254.384C147.203 254.148 147.236 253.897 147.236 253.632V253.519C147.236 253.257 147.203 253.01 147.138 252.777C147.075 252.541 146.98 252.334 146.853 252.153C146.728 251.97 146.571 251.826 146.381 251.721C146.194 251.616 145.975 251.564 145.723 251.564C145.474 251.564 145.255 251.616 145.065 251.721C144.878 251.826 144.721 251.97 144.593 252.153C144.469 252.334 144.375 252.541 144.313 252.777C144.251 253.01 144.22 253.257 144.22 253.519ZM150.507 251.972V256.23H149.594V250.916H150.458L150.507 251.972ZM150.321 253.372L149.898 253.357C149.901 252.993 149.949 252.658 150.041 252.35C150.132 252.039 150.268 251.769 150.448 251.539C150.628 251.31 150.853 251.133 151.121 251.009C151.39 250.881 151.701 250.817 152.055 250.817C152.303 250.817 152.533 250.853 152.742 250.925C152.952 250.994 153.134 251.104 153.287 251.255C153.441 251.405 153.561 251.598 153.646 251.834C153.731 252.07 153.774 252.355 153.774 252.689V256.23H152.865V252.733C152.865 252.455 152.818 252.232 152.723 252.065C152.631 251.898 152.5 251.777 152.33 251.702C152.159 251.623 151.96 251.584 151.73 251.584C151.462 251.584 151.237 251.631 151.057 251.726C150.877 251.821 150.733 251.952 150.625 252.119C150.517 252.286 150.438 252.478 150.389 252.694C150.343 252.907 150.321 253.133 150.321 253.372ZM153.764 252.871L153.155 253.057C153.158 252.766 153.206 252.486 153.297 252.217C153.392 251.949 153.528 251.71 153.705 251.5C153.885 251.291 154.106 251.125 154.368 251.004C154.63 250.88 154.93 250.817 155.267 250.817C155.552 250.817 155.804 250.855 156.024 250.93C156.246 251.006 156.433 251.122 156.584 251.279C156.737 251.433 156.854 251.631 156.932 251.873C157.011 252.116 157.05 252.404 157.05 252.738V256.23H156.137V252.728C156.137 252.43 156.089 252.199 155.994 252.036C155.902 251.869 155.771 251.752 155.601 251.687C155.434 251.618 155.234 251.584 155.002 251.584C154.802 251.584 154.625 251.618 154.471 251.687C154.317 251.756 154.188 251.851 154.083 251.972C153.978 252.09 153.898 252.225 153.843 252.379C153.79 252.533 153.764 252.697 153.764 252.871ZM159.649 251.937V258.274H158.735V250.916H159.57L159.649 251.937ZM163.23 253.529V253.632C163.23 254.018 163.184 254.377 163.092 254.708C163 255.035 162.866 255.32 162.689 255.562C162.516 255.805 162.301 255.993 162.046 256.127C161.79 256.262 161.497 256.329 161.167 256.329C160.829 256.329 160.531 256.273 160.273 256.162C160.014 256.05 159.794 255.888 159.614 255.675C159.434 255.463 159.29 255.207 159.182 254.909C159.077 254.611 159.005 254.275 158.966 253.902V253.352C159.005 252.959 159.079 252.607 159.187 252.296C159.295 251.985 159.437 251.72 159.614 251.5C159.794 251.277 160.012 251.109 160.268 250.994C160.523 250.876 160.818 250.817 161.152 250.817C161.486 250.817 161.782 250.883 162.041 251.014C162.3 251.142 162.517 251.325 162.694 251.564C162.871 251.803 163.004 252.09 163.092 252.424C163.184 252.754 163.23 253.123 163.23 253.529ZM162.316 253.632V253.529C162.316 253.264 162.288 253.015 162.232 252.782C162.177 252.546 162.09 252.34 161.972 252.163C161.857 251.983 161.71 251.842 161.53 251.741C161.35 251.636 161.135 251.584 160.887 251.584C160.657 251.584 160.458 251.623 160.287 251.702C160.12 251.78 159.978 251.887 159.86 252.021C159.742 252.152 159.645 252.302 159.57 252.473C159.498 252.64 159.444 252.813 159.408 252.993V254.266C159.473 254.495 159.565 254.711 159.683 254.914C159.801 255.114 159.958 255.276 160.155 255.4C160.351 255.521 160.598 255.582 160.896 255.582C161.142 255.582 161.353 255.531 161.53 255.43C161.71 255.325 161.857 255.183 161.972 255.002C162.09 254.822 162.177 254.616 162.232 254.384C162.288 254.148 162.316 253.897 162.316 253.632ZM165.691 248.685V256.23H164.777V248.685H165.691ZM169.669 256.329C169.299 256.329 168.964 256.266 168.662 256.142C168.364 256.014 168.107 255.836 167.891 255.607C167.678 255.377 167.515 255.106 167.4 254.791C167.285 254.477 167.228 254.133 167.228 253.76V253.553C167.228 253.121 167.292 252.736 167.42 252.399C167.547 252.058 167.721 251.77 167.94 251.534C168.16 251.299 168.409 251.12 168.687 250.999C168.965 250.878 169.253 250.817 169.551 250.817C169.931 250.817 170.259 250.883 170.534 251.014C170.812 251.145 171.04 251.328 171.217 251.564C171.394 251.796 171.525 252.072 171.61 252.389C171.695 252.704 171.737 253.047 171.737 253.421V253.828H167.768V253.087H170.829V253.018C170.816 252.782 170.766 252.553 170.681 252.33C170.599 252.108 170.468 251.924 170.288 251.78C170.108 251.636 169.863 251.564 169.551 251.564C169.345 251.564 169.155 251.608 168.982 251.697C168.808 251.782 168.659 251.909 168.535 252.08C168.41 252.25 168.314 252.458 168.245 252.704C168.176 252.949 168.142 253.232 168.142 253.553V253.76C168.142 254.012 168.176 254.249 168.245 254.472C168.317 254.691 168.42 254.885 168.554 255.052C168.692 255.219 168.857 255.35 169.05 255.445C169.247 255.539 169.47 255.587 169.719 255.587C170.039 255.587 170.311 255.521 170.534 255.39C170.757 255.26 170.951 255.084 171.118 254.865L171.669 255.302C171.554 255.476 171.408 255.641 171.231 255.798C171.055 255.955 170.837 256.083 170.578 256.181C170.323 256.28 170.02 256.329 169.669 256.329ZM175.338 250.916V251.613H172.464V250.916H175.338ZM173.437 249.624H174.346V254.914C174.346 255.094 174.374 255.23 174.429 255.322C174.485 255.413 174.557 255.474 174.645 255.503C174.734 255.533 174.829 255.548 174.93 255.548C175.006 255.548 175.084 255.541 175.166 255.528C175.251 255.512 175.315 255.499 175.358 255.489L175.363 256.23C175.29 256.253 175.196 256.275 175.078 256.294C174.963 256.317 174.824 256.329 174.66 256.329C174.437 256.329 174.233 256.285 174.046 256.196C173.859 256.108 173.71 255.96 173.599 255.754C173.491 255.544 173.437 255.263 173.437 254.909V249.624ZM178.924 256.329C178.554 256.329 178.218 256.266 177.917 256.142C177.619 256.014 177.362 255.836 177.146 255.607C176.933 255.377 176.769 255.106 176.654 254.791C176.54 254.477 176.482 254.133 176.482 253.76V253.553C176.482 253.121 176.546 252.736 176.674 252.399C176.802 252.058 176.975 251.77 177.195 251.534C177.414 251.299 177.663 251.12 177.941 250.999C178.22 250.878 178.508 250.817 178.806 250.817C179.186 250.817 179.513 250.883 179.788 251.014C180.067 251.145 180.294 251.328 180.471 251.564C180.648 251.796 180.779 252.072 180.864 252.389C180.949 252.704 180.992 253.047 180.992 253.421V253.828H177.023V253.087H180.083V253.018C180.07 252.782 180.021 252.553 179.936 252.33C179.854 252.108 179.723 251.924 179.543 251.78C179.363 251.636 179.117 251.564 178.806 251.564C178.6 251.564 178.41 251.608 178.236 251.697C178.063 251.782 177.914 251.909 177.789 252.08C177.665 252.25 177.568 252.458 177.499 252.704C177.43 252.949 177.396 253.232 177.396 253.553V253.76C177.396 254.012 177.43 254.249 177.499 254.472C177.571 254.691 177.674 254.885 177.809 255.052C177.946 255.219 178.112 255.35 178.305 255.445C178.501 255.539 178.724 255.587 178.973 255.587C179.294 255.587 179.566 255.521 179.788 255.39C180.011 255.26 180.206 255.084 180.373 254.865L180.923 255.302C180.808 255.476 180.663 255.641 180.486 255.798C180.309 255.955 180.091 256.083 179.833 256.181C179.577 256.28 179.274 256.329 178.924 256.329ZM183.355 248.685V256.23H182.441V248.685H183.355ZM186.621 255.68L188.1 250.916H189.072L186.94 257.051C186.891 257.182 186.826 257.323 186.744 257.473C186.665 257.627 186.564 257.773 186.439 257.91C186.315 258.048 186.164 258.159 185.987 258.244C185.814 258.333 185.606 258.377 185.364 258.377C185.292 258.377 185.2 258.367 185.088 258.348C184.977 258.328 184.899 258.312 184.853 258.298L184.848 257.562C184.874 257.565 184.915 257.568 184.971 257.571C185.03 257.578 185.07 257.581 185.093 257.581C185.3 257.581 185.475 257.553 185.619 257.498C185.763 257.445 185.884 257.355 185.982 257.228C186.084 257.103 186.171 256.931 186.243 256.712L186.621 255.68ZM185.535 250.916L186.916 255.042L187.152 256L186.498 256.334L184.543 250.916H185.535ZM196.111 254.821C196.111 254.69 196.082 254.569 196.023 254.457C195.967 254.343 195.851 254.239 195.674 254.148C195.501 254.053 195.239 253.971 194.888 253.902C194.593 253.84 194.327 253.766 194.087 253.681C193.852 253.596 193.65 253.493 193.483 253.372C193.32 253.25 193.193 253.108 193.105 252.944C193.017 252.781 192.972 252.589 192.972 252.37C192.972 252.16 193.018 251.962 193.11 251.775C193.205 251.589 193.338 251.423 193.508 251.279C193.681 251.135 193.889 251.022 194.132 250.94C194.374 250.858 194.644 250.817 194.942 250.817C195.368 250.817 195.731 250.893 196.033 251.043C196.334 251.194 196.565 251.395 196.725 251.647C196.886 251.896 196.966 252.173 196.966 252.478H196.057C196.057 252.33 196.013 252.188 195.925 252.05C195.839 251.909 195.713 251.793 195.546 251.702C195.383 251.61 195.181 251.564 194.942 251.564C194.69 251.564 194.485 251.603 194.328 251.682C194.174 251.757 194.061 251.854 193.989 251.972C193.92 252.09 193.886 252.214 193.886 252.345C193.886 252.443 193.902 252.532 193.935 252.61C193.971 252.686 194.033 252.756 194.122 252.821C194.21 252.884 194.335 252.943 194.495 252.998C194.656 253.054 194.86 253.11 195.109 253.165C195.545 253.264 195.903 253.381 196.185 253.519C196.467 253.657 196.676 253.825 196.814 254.025C196.951 254.225 197.02 254.467 197.02 254.752C197.02 254.984 196.971 255.197 196.873 255.39C196.778 255.584 196.639 255.751 196.455 255.892C196.275 256.029 196.059 256.137 195.807 256.216C195.558 256.291 195.278 256.329 194.967 256.329C194.498 256.329 194.102 256.245 193.778 256.078C193.454 255.911 193.208 255.695 193.041 255.43C192.874 255.165 192.791 254.885 192.791 254.59H193.704C193.717 254.839 193.789 255.037 193.92 255.184C194.051 255.328 194.212 255.431 194.402 255.494C194.592 255.553 194.78 255.582 194.967 255.582C195.216 255.582 195.424 255.549 195.591 255.484C195.761 255.418 195.89 255.328 195.979 255.214C196.067 255.099 196.111 254.968 196.111 254.821ZM200.734 256.329C200.364 256.329 200.028 256.266 199.727 256.142C199.429 256.014 199.172 255.836 198.955 255.607C198.743 255.377 198.579 255.106 198.464 254.791C198.35 254.477 198.292 254.133 198.292 253.76V253.553C198.292 253.121 198.356 252.736 198.484 252.399C198.612 252.058 198.785 251.77 199.005 251.534C199.224 251.299 199.473 251.12 199.751 250.999C200.029 250.878 200.318 250.817 200.616 250.817C200.996 250.817 201.323 250.883 201.598 251.014C201.876 251.145 202.104 251.328 202.281 251.564C202.458 251.796 202.589 252.072 202.674 252.389C202.759 252.704 202.802 253.047 202.802 253.421V253.828H198.833V253.087H201.893V253.018C201.88 252.782 201.831 252.553 201.745 252.33C201.664 252.108 201.533 251.924 201.352 251.78C201.172 251.636 200.927 251.564 200.616 251.564C200.409 251.564 200.219 251.608 200.046 251.697C199.872 251.782 199.723 251.909 199.599 252.08C199.474 252.25 199.378 252.458 199.309 252.704C199.24 252.949 199.206 253.232 199.206 253.553V253.76C199.206 254.012 199.24 254.249 199.309 254.472C199.381 254.691 199.484 254.885 199.619 255.052C199.756 255.219 199.921 255.35 200.115 255.445C200.311 255.539 200.534 255.587 200.783 255.587C201.104 255.587 201.375 255.521 201.598 255.39C201.821 255.26 202.016 255.084 202.183 254.865L202.733 255.302C202.618 255.476 202.472 255.641 202.296 255.798C202.119 255.955 201.901 256.083 201.642 256.181C201.387 256.28 201.084 256.329 200.734 256.329ZM205.164 248.685V256.23H204.251V248.685H205.164ZM208.293 256.23H207.385V250.356C207.385 249.972 207.453 249.65 207.591 249.388C207.732 249.123 207.933 248.923 208.195 248.789C208.457 248.651 208.768 248.582 209.128 248.582C209.233 248.582 209.338 248.589 209.443 248.602C209.551 248.615 209.656 248.635 209.757 248.661L209.708 249.403C209.639 249.386 209.561 249.375 209.472 249.368C209.387 249.362 209.302 249.358 209.217 249.358C209.024 249.358 208.857 249.398 208.716 249.476C208.578 249.552 208.473 249.663 208.401 249.81C208.329 249.958 208.293 250.139 208.293 250.356V256.23ZM209.423 250.916V251.613H206.545V250.916H209.423ZM212.641 252.817V253.563H210.243V252.817H212.641ZM75.9021 270.582C76.1182 270.582 76.318 270.538 76.5014 270.449C76.6848 270.361 76.8354 270.24 76.9533 270.086C77.0712 269.929 77.1383 269.75 77.1547 269.551H78.0192C78.0029 269.865 77.8964 270.158 77.6999 270.43C77.5067 270.698 77.2529 270.916 76.9386 271.083C76.6242 271.247 76.2787 271.329 75.9021 271.329C75.5026 271.329 75.1538 271.258 74.8558 271.117C74.5611 270.977 74.3155 270.783 74.119 270.538C73.9258 270.292 73.7801 270.011 73.6818 269.693C73.5869 269.372 73.5394 269.033 73.5394 268.676V268.47C73.5394 268.113 73.5869 267.776 73.6818 267.458C73.7801 267.137 73.9258 266.854 74.119 266.608C74.3155 266.363 74.5611 266.169 74.8558 266.029C75.1538 265.888 75.5026 265.817 75.9021 265.817C76.318 265.817 76.6815 265.902 76.9926 266.073C77.3037 266.24 77.5477 266.469 77.7245 266.76C77.9046 267.049 78.0029 267.376 78.0192 267.743H77.1547C77.1383 267.523 77.0761 267.325 76.968 267.149C76.8632 266.972 76.7192 266.831 76.5358 266.726C76.3557 266.618 76.1444 266.564 75.9021 266.564C75.6238 266.564 75.3896 266.62 75.1997 266.731C75.013 266.839 74.864 266.986 74.7527 267.173C74.6446 267.356 74.566 267.561 74.5169 267.787C74.471 268.01 74.4481 268.237 74.4481 268.47V268.676C74.4481 268.909 74.471 269.138 74.5169 269.364C74.5627 269.59 74.6397 269.794 74.7478 269.978C74.8591 270.161 75.0081 270.309 75.1948 270.42C75.3847 270.528 75.6205 270.582 75.9021 270.582ZM82.6071 270.002V265.916H83.5208V271.23H82.6513L82.6071 270.002ZM82.7791 268.882L83.1573 268.873C83.1573 269.226 83.1196 269.554 83.0443 269.855C82.9723 270.153 82.8544 270.412 82.6906 270.631C82.5269 270.851 82.3124 271.023 82.0472 271.147C81.7819 271.268 81.4593 271.329 81.0795 271.329C80.8208 271.329 80.5833 271.291 80.3672 271.216C80.1544 271.14 79.971 271.024 79.8171 270.867C79.6631 270.71 79.5436 270.505 79.4585 270.253C79.3766 270.001 79.3357 269.698 79.3357 269.344V265.916H80.2444V269.354C80.2444 269.593 80.2706 269.791 80.323 269.948C80.3787 270.102 80.4524 270.225 80.5441 270.317C80.639 270.405 80.7438 270.467 80.8584 270.503C80.9763 270.539 81.0975 270.558 81.2219 270.558C81.6083 270.558 81.9145 270.484 82.1405 270.336C82.3664 270.186 82.5285 269.984 82.6268 269.732C82.7283 269.477 82.7791 269.194 82.7791 268.882ZM88.315 269.821C88.315 269.69 88.2855 269.569 88.2266 269.457C88.1709 269.343 88.0547 269.239 87.8778 269.148C87.7043 269.053 87.4423 268.971 87.0919 268.902C86.7972 268.84 86.5303 268.766 86.2912 268.681C86.0554 268.596 85.854 268.493 85.687 268.372C85.5233 268.25 85.3972 268.108 85.3088 267.944C85.2204 267.781 85.1762 267.589 85.1762 267.37C85.1762 267.16 85.222 266.962 85.3137 266.775C85.4087 266.589 85.5413 266.423 85.7116 266.279C85.8852 266.135 86.0931 266.022 86.3354 265.94C86.5778 265.858 86.8479 265.817 87.1459 265.817C87.5716 265.817 87.9351 265.893 88.2364 266.043C88.5377 266.194 88.7686 266.395 88.929 266.647C89.0895 266.896 89.1697 267.173 89.1697 267.478H88.261C88.261 267.33 88.2168 267.188 88.1283 267.05C88.0432 266.909 87.9171 266.793 87.7501 266.702C87.5864 266.61 87.385 266.564 87.1459 266.564C86.8938 266.564 86.6891 266.603 86.5319 266.682C86.378 266.757 86.265 266.854 86.193 266.972C86.1242 267.09 86.0898 267.214 86.0898 267.345C86.0898 267.443 86.1062 267.532 86.1389 267.61C86.175 267.686 86.2372 267.756 86.3256 267.821C86.414 267.884 86.5385 267.943 86.6989 267.998C86.8594 268.054 87.0641 268.11 87.3129 268.165C87.7485 268.264 88.1071 268.381 88.3887 268.519C88.6703 268.657 88.8799 268.825 89.0174 269.025C89.155 269.225 89.2237 269.467 89.2237 269.752C89.2237 269.984 89.1746 270.197 89.0764 270.39C88.9814 270.584 88.8422 270.751 88.6589 270.892C88.4787 271.029 88.2626 271.137 88.0105 271.216C87.7616 271.291 87.4816 271.329 87.1705 271.329C86.7022 271.329 86.306 271.245 85.9818 271.078C85.6576 270.911 85.412 270.695 85.2449 270.43C85.0779 270.165 84.9944 269.885 84.9944 269.59H85.9081C85.9212 269.839 85.9932 270.037 86.1242 270.184C86.2552 270.328 86.4157 270.431 86.6056 270.494C86.7955 270.553 86.9838 270.582 87.1705 270.582C87.4194 270.582 87.6273 270.549 87.7943 270.484C87.9646 270.418 88.094 270.328 88.1824 270.214C88.2708 270.099 88.315 269.968 88.315 269.821ZM92.957 265.916V266.613H90.0834V265.916H92.957ZM91.056 264.624H91.9647V269.914C91.9647 270.094 91.9925 270.23 92.0482 270.322C92.1039 270.413 92.1759 270.474 92.2643 270.503C92.3528 270.533 92.4477 270.548 92.5492 270.548C92.6246 270.548 92.7032 270.541 92.785 270.528C92.8702 270.512 92.934 270.499 92.9766 270.489L92.9815 271.23C92.9095 271.253 92.8145 271.275 92.6966 271.294C92.582 271.317 92.4428 271.329 92.2791 271.329C92.0564 271.329 91.8517 271.285 91.6651 271.196C91.4784 271.108 91.3294 270.96 91.2181 270.754C91.11 270.544 91.056 270.263 91.056 269.909V264.624ZM93.9983 268.632V268.519C93.9983 268.136 94.054 267.781 94.1653 267.453C94.2767 267.122 94.4371 266.836 94.6467 266.593C94.8563 266.348 95.1101 266.158 95.4081 266.024C95.7061 265.886 96.0401 265.817 96.4102 265.817C96.7835 265.817 97.1191 265.886 97.4171 266.024C97.7184 266.158 97.9739 266.348 98.1834 266.593C98.3963 266.836 98.5584 267.122 98.6697 267.453C98.7811 267.781 98.8367 268.136 98.8367 268.519V268.632C98.8367 269.015 98.7811 269.37 98.6697 269.698C98.5584 270.025 98.3963 270.312 98.1834 270.558C97.9739 270.8 97.7201 270.99 97.4221 271.127C97.1273 271.262 96.7933 271.329 96.42 271.329C96.0467 271.329 95.711 271.262 95.413 271.127C95.115 270.99 94.8596 270.8 94.6467 270.558C94.4371 270.312 94.2767 270.025 94.1653 269.698C94.054 269.37 93.9983 269.015 93.9983 268.632ZM94.9071 268.519V268.632C94.9071 268.897 94.9382 269.148 95.0004 269.384C95.0626 269.616 95.1559 269.822 95.2804 270.002C95.4081 270.183 95.5669 270.325 95.7569 270.43C95.9468 270.531 96.1678 270.582 96.42 270.582C96.6689 270.582 96.8866 270.531 97.0733 270.43C97.2632 270.325 97.4204 270.183 97.5449 270.002C97.6693 269.822 97.7626 269.616 97.8248 269.384C97.8903 269.148 97.9231 268.897 97.9231 268.632V268.519C97.9231 268.257 97.8903 268.01 97.8248 267.777C97.7626 267.541 97.6677 267.334 97.5399 267.153C97.4155 266.97 97.2583 266.826 97.0684 266.721C96.8817 266.616 96.6623 266.564 96.4102 266.564C96.1613 266.564 95.9419 266.616 95.7519 266.721C95.5653 266.826 95.4081 266.97 95.2804 267.153C95.1559 267.334 95.0626 267.541 95.0004 267.777C94.9382 268.01 94.9071 268.257 94.9071 268.519ZM103.641 270.199V263.685H104.554V271.23H103.719L103.641 270.199ZM100.065 268.632V268.529C100.065 268.123 100.114 267.754 100.212 267.424C100.314 267.09 100.456 266.803 100.639 266.564C100.826 266.325 101.047 266.142 101.303 266.014C101.561 265.883 101.85 265.817 102.167 265.817C102.501 265.817 102.793 265.876 103.042 265.994C103.294 266.109 103.507 266.277 103.68 266.5C103.857 266.72 103.996 266.985 104.098 267.296C104.199 267.607 104.27 267.959 104.309 268.352V268.804C104.273 269.194 104.202 269.544 104.098 269.855C103.996 270.166 103.857 270.431 103.68 270.651C103.507 270.87 103.294 271.039 103.042 271.157C102.789 271.271 102.495 271.329 102.157 271.329C101.846 271.329 101.561 271.262 101.303 271.127C101.047 270.993 100.826 270.805 100.639 270.562C100.456 270.32 100.314 270.035 100.212 269.708C100.114 269.377 100.065 269.018 100.065 268.632ZM100.978 268.529V268.632C100.978 268.897 101.005 269.146 101.057 269.379C101.113 269.611 101.198 269.816 101.312 269.993C101.427 270.169 101.573 270.309 101.75 270.41C101.926 270.508 102.138 270.558 102.383 270.558C102.685 270.558 102.932 270.494 103.125 270.366C103.322 270.238 103.479 270.07 103.597 269.86C103.714 269.65 103.806 269.423 103.872 269.177V267.993C103.832 267.813 103.775 267.64 103.7 267.473C103.628 267.302 103.533 267.152 103.415 267.021C103.3 266.887 103.158 266.78 102.987 266.702C102.82 266.623 102.622 266.584 102.393 266.584C102.144 266.584 101.93 266.636 101.75 266.741C101.573 266.842 101.427 266.983 101.312 267.163C101.198 267.34 101.113 267.546 101.057 267.782C101.005 268.015 100.978 268.264 100.978 268.529ZM107.271 265.916V271.23H106.357V265.916H107.271ZM106.288 264.506C106.288 264.358 106.333 264.234 106.421 264.132C106.513 264.031 106.647 263.98 106.824 263.98C106.997 263.98 107.13 264.031 107.222 264.132C107.317 264.234 107.364 264.358 107.364 264.506C107.364 264.647 107.317 264.768 107.222 264.869C107.13 264.968 106.997 265.017 106.824 265.017C106.647 265.017 106.513 264.968 106.421 264.869C106.333 264.768 106.288 264.647 106.288 264.506ZM111.25 271.329C110.88 271.329 110.544 271.266 110.243 271.142C109.945 271.014 109.688 270.836 109.471 270.607C109.259 270.377 109.095 270.106 108.98 269.791C108.866 269.477 108.808 269.133 108.808 268.76V268.553C108.808 268.121 108.872 267.736 109 267.399C109.128 267.058 109.301 266.77 109.521 266.534C109.74 266.299 109.989 266.12 110.267 265.999C110.546 265.878 110.834 265.817 111.132 265.817C111.512 265.817 111.839 265.883 112.114 266.014C112.393 266.145 112.62 266.328 112.797 266.564C112.974 266.796 113.105 267.072 113.19 267.389C113.275 267.704 113.318 268.047 113.318 268.421V268.828H109.349V268.087H112.409V268.018C112.396 267.782 112.347 267.553 112.262 267.33C112.18 267.108 112.049 266.924 111.869 266.78C111.688 266.636 111.443 266.564 111.132 266.564C110.925 266.564 110.736 266.608 110.562 266.697C110.388 266.782 110.239 266.909 110.115 267.08C109.991 267.25 109.894 267.458 109.825 267.704C109.756 267.949 109.722 268.232 109.722 268.553V268.76C109.722 269.012 109.756 269.249 109.825 269.472C109.897 269.691 110 269.885 110.135 270.052C110.272 270.219 110.438 270.35 110.631 270.445C110.827 270.539 111.05 270.587 111.299 270.587C111.62 270.587 111.891 270.521 112.114 270.39C112.337 270.26 112.532 270.084 112.699 269.865L113.249 270.302C113.134 270.476 112.989 270.641 112.812 270.798C112.635 270.955 112.417 271.083 112.158 271.181C111.903 271.28 111.6 271.329 111.25 271.329ZM118.043 270.199V263.685H118.957V271.23H118.122L118.043 270.199ZM114.467 268.632V268.529C114.467 268.123 114.516 267.754 114.614 267.424C114.716 267.09 114.858 266.803 115.042 266.564C115.228 266.325 115.449 266.142 115.705 266.014C115.964 265.883 116.252 265.817 116.569 265.817C116.903 265.817 117.195 265.876 117.444 265.994C117.696 266.109 117.909 266.277 118.082 266.5C118.259 266.72 118.398 266.985 118.5 267.296C118.601 267.607 118.672 267.959 118.711 268.352V268.804C118.675 269.194 118.605 269.544 118.5 269.855C118.398 270.166 118.259 270.431 118.082 270.651C117.909 270.87 117.696 271.039 117.444 271.157C117.192 271.271 116.897 271.329 116.56 271.329C116.249 271.329 115.964 271.262 115.705 271.127C115.449 270.993 115.228 270.805 115.042 270.562C114.858 270.32 114.716 270.035 114.614 269.708C114.516 269.377 114.467 269.018 114.467 268.632ZM115.381 268.529V268.632C115.381 268.897 115.407 269.146 115.459 269.379C115.515 269.611 115.6 269.816 115.715 269.993C115.829 270.169 115.975 270.309 116.152 270.41C116.329 270.508 116.54 270.558 116.786 270.558C117.087 270.558 117.334 270.494 117.527 270.366C117.724 270.238 117.881 270.07 117.999 269.86C118.117 269.65 118.208 269.423 118.274 269.177V267.993C118.235 267.813 118.177 267.64 118.102 267.473C118.03 267.302 117.935 267.152 117.817 267.021C117.703 266.887 117.56 266.78 117.39 266.702C117.223 266.623 117.025 266.584 116.795 266.584C116.547 266.584 116.332 266.636 116.152 266.741C115.975 266.842 115.829 266.983 115.715 267.163C115.6 267.34 115.515 267.546 115.459 267.782C115.407 268.015 115.381 268.264 115.381 268.529ZM124.841 270.287L126.207 265.916H126.806L126.688 266.785L125.298 271.23H124.714L124.841 270.287ZM123.923 265.916L125.087 270.336L125.171 271.23H124.557L123.014 265.916H123.923ZM128.113 270.302L129.223 265.916H130.127L128.584 271.23H127.975L128.113 270.302ZM126.939 265.916L128.275 270.214L128.427 271.23H127.848L126.418 266.775L126.3 265.916H126.939ZM134.508 270.322V267.586C134.508 267.376 134.466 267.194 134.381 267.04C134.299 266.883 134.174 266.762 134.007 266.677C133.84 266.592 133.634 266.549 133.389 266.549C133.159 266.549 132.958 266.589 132.784 266.667C132.614 266.746 132.48 266.849 132.382 266.977C132.287 267.104 132.239 267.242 132.239 267.389H131.33C131.33 267.199 131.379 267.011 131.478 266.824C131.576 266.638 131.717 266.469 131.9 266.318C132.087 266.164 132.309 266.043 132.568 265.955C132.83 265.863 133.122 265.817 133.443 265.817C133.829 265.817 134.17 265.883 134.464 266.014C134.762 266.145 134.995 266.343 135.162 266.608C135.332 266.87 135.417 267.199 135.417 267.596V270.071C135.417 270.248 135.432 270.436 135.461 270.636C135.494 270.836 135.542 271.008 135.604 271.152V271.23H134.656C134.61 271.126 134.574 270.987 134.548 270.813C134.522 270.636 134.508 270.472 134.508 270.322ZM134.666 268.008L134.675 268.647H133.757C133.498 268.647 133.267 268.668 133.064 268.711C132.861 268.75 132.691 268.81 132.553 268.892C132.416 268.974 132.311 269.077 132.239 269.202C132.167 269.323 132.131 269.465 132.131 269.629C132.131 269.796 132.169 269.948 132.244 270.086C132.319 270.223 132.432 270.333 132.583 270.415C132.737 270.494 132.925 270.533 133.148 270.533C133.426 270.533 133.672 270.474 133.885 270.356C134.098 270.238 134.266 270.094 134.391 269.924C134.518 269.754 134.587 269.588 134.597 269.428L134.985 269.865C134.962 270.002 134.9 270.155 134.798 270.322C134.697 270.489 134.561 270.649 134.391 270.803C134.224 270.954 134.024 271.08 133.791 271.181C133.562 271.28 133.303 271.329 133.015 271.329C132.655 271.329 132.339 271.258 132.067 271.117C131.799 270.977 131.589 270.788 131.438 270.553C131.291 270.314 131.217 270.047 131.217 269.752C131.217 269.467 131.273 269.217 131.384 269C131.496 268.781 131.656 268.599 131.866 268.455C132.075 268.308 132.328 268.196 132.622 268.121C132.917 268.046 133.246 268.008 133.61 268.008H134.666ZM138.148 263.685V271.23H137.235V263.685H138.148ZM140.909 263.685V271.23H139.995V263.685H140.909ZM144.888 271.329C144.518 271.329 144.182 271.266 143.881 271.142C143.583 271.014 143.326 270.836 143.11 270.607C142.897 270.377 142.733 270.106 142.618 269.791C142.504 269.477 142.446 269.133 142.446 268.76V268.553C142.446 268.121 142.51 267.736 142.638 267.399C142.766 267.058 142.939 266.77 143.159 266.534C143.378 266.299 143.627 266.12 143.905 265.999C144.184 265.878 144.472 265.817 144.77 265.817C145.15 265.817 145.477 265.883 145.752 266.014C146.031 266.145 146.258 266.328 146.435 266.564C146.612 266.796 146.743 267.072 146.828 267.389C146.913 267.704 146.956 268.047 146.956 268.421V268.828H142.987V268.087H146.047V268.018C146.034 267.782 145.985 267.553 145.9 267.33C145.818 267.108 145.687 266.924 145.507 266.78C145.327 266.636 145.081 266.564 144.77 266.564C144.564 266.564 144.374 266.608 144.2 266.697C144.027 266.782 143.878 266.909 143.753 267.08C143.629 267.25 143.532 267.458 143.463 267.704C143.394 267.949 143.36 268.232 143.36 268.553V268.76C143.36 269.012 143.394 269.249 143.463 269.472C143.535 269.691 143.638 269.885 143.773 270.052C143.91 270.219 144.076 270.35 144.269 270.445C144.465 270.539 144.688 270.587 144.937 270.587C145.258 270.587 145.53 270.521 145.752 270.39C145.975 270.26 146.17 270.084 146.337 269.865L146.887 270.302C146.772 270.476 146.627 270.641 146.45 270.798C146.273 270.955 146.055 271.083 145.797 271.181C145.541 271.28 145.238 271.329 144.888 271.329ZM150.556 265.916V266.613H147.683V265.916H150.556ZM148.655 264.624H149.564V269.914C149.564 270.094 149.592 270.23 149.648 270.322C149.703 270.413 149.775 270.474 149.864 270.503C149.952 270.533 150.047 270.548 150.149 270.548C150.224 270.548 150.303 270.541 150.384 270.528C150.47 270.512 150.533 270.499 150.576 270.489L150.581 271.23C150.509 271.253 150.414 271.275 150.296 271.294C150.181 271.317 150.042 271.329 149.878 271.329C149.656 271.329 149.451 271.285 149.264 271.196C149.078 271.108 148.929 270.96 148.817 270.754C148.709 270.544 148.655 270.263 148.655 269.909V264.624ZM151.951 270.749C151.951 270.595 151.999 270.466 152.094 270.361C152.192 270.253 152.333 270.199 152.516 270.199C152.7 270.199 152.839 270.253 152.934 270.361C153.032 270.466 153.081 270.595 153.081 270.749C153.081 270.9 153.032 271.027 152.934 271.132C152.839 271.237 152.7 271.289 152.516 271.289C152.333 271.289 152.192 271.237 152.094 271.132C151.999 271.027 151.951 270.9 151.951 270.749ZM63.1699 294.078L65.0267 297.669L66.8884 294.078H67.9641L65.4983 298.558V301.23H64.5502V298.558L62.0843 294.078H63.1699ZM68.4946 298.632V298.519C68.4946 298.136 68.5503 297.781 68.6617 297.453C68.773 297.122 68.9335 296.836 69.143 296.593C69.3526 296.348 69.6064 296.158 69.9044 296.024C70.2024 295.886 70.5364 295.817 70.9065 295.817C71.2798 295.817 71.6155 295.886 71.9135 296.024C72.2148 296.158 72.4702 296.348 72.6798 296.593C72.8926 296.836 73.0547 297.122 73.1661 297.453C73.2774 297.781 73.3331 298.136 73.3331 298.519V298.632C73.3331 299.015 73.2774 299.37 73.1661 299.698C73.0547 300.025 72.8926 300.312 72.6798 300.558C72.4702 300.8 72.2164 300.99 71.9184 301.127C71.6237 301.262 71.2896 301.329 70.9163 301.329C70.543 301.329 70.2073 301.262 69.9093 301.127C69.6113 300.99 69.3559 300.8 69.143 300.558C68.9335 300.312 68.773 300.025 68.6617 299.698C68.5503 299.37 68.4946 299.015 68.4946 298.632ZM69.4034 298.519V298.632C69.4034 298.897 69.4345 299.148 69.4967 299.384C69.5589 299.616 69.6523 299.822 69.7767 300.002C69.9044 300.183 70.0632 300.325 70.2532 300.43C70.4431 300.531 70.6642 300.582 70.9163 300.582C71.1652 300.582 71.383 300.531 71.5696 300.43C71.7596 300.325 71.9167 300.183 72.0412 300.002C72.1656 299.822 72.259 299.616 72.3212 299.384C72.3867 299.148 72.4194 298.897 72.4194 298.632V298.519C72.4194 298.257 72.3867 298.01 72.3212 297.777C72.259 297.541 72.164 297.334 72.0363 297.153C71.9118 296.97 71.7546 296.826 71.5647 296.721C71.3781 296.616 71.1586 296.564 70.9065 296.564C70.6576 296.564 70.4382 296.616 70.2483 296.721C70.0616 296.826 69.9044 296.97 69.7767 297.153C69.6523 297.334 69.5589 297.541 69.4967 297.777C69.4345 298.01 69.4034 298.257 69.4034 298.519ZM78.0389 300.002V295.916H78.9525V301.23H78.0831L78.0389 300.002ZM78.2108 298.882L78.589 298.873C78.589 299.226 78.5514 299.554 78.4761 299.855C78.404 300.153 78.2861 300.412 78.1224 300.631C77.9586 300.851 77.7441 301.023 77.4789 301.147C77.2136 301.268 76.8911 301.329 76.5112 301.329C76.2525 301.329 76.0151 301.291 75.799 301.216C75.5861 301.14 75.4027 301.024 75.2488 300.867C75.0949 300.71 74.9754 300.505 74.8902 300.253C74.8083 300.001 74.7674 299.698 74.7674 299.344V295.916H75.6762V299.354C75.6762 299.593 75.7023 299.791 75.7547 299.948C75.8104 300.102 75.8841 300.225 75.9758 300.317C76.0708 300.405 76.1755 300.467 76.2902 300.503C76.4081 300.539 76.5292 300.558 76.6537 300.558C77.0401 300.558 77.3463 300.484 77.5722 300.336C77.7982 300.186 77.9603 299.984 78.0585 299.732C78.16 299.477 78.2108 299.194 78.2108 298.882ZM81.5609 296.751V301.23H80.6521V295.916H81.5363L81.5609 296.751ZM83.2212 295.886L83.2162 296.731C83.1409 296.715 83.0689 296.705 83.0001 296.702C82.9346 296.695 82.8593 296.692 82.7741 296.692C82.5646 296.692 82.3795 296.724 82.2191 296.79C82.0586 296.855 81.9227 296.947 81.8114 297.065C81.7 297.183 81.6116 297.324 81.5461 297.487C81.4839 297.648 81.443 297.825 81.4233 298.018L81.1679 298.165C81.1679 297.844 81.199 297.543 81.2612 297.261C81.3267 296.98 81.4266 296.731 81.5609 296.515C81.6951 296.295 81.8654 296.125 82.0717 296.004C82.2813 295.88 82.5302 295.817 82.8184 295.817C82.8839 295.817 82.9592 295.826 83.0443 295.842C83.1295 295.855 83.1884 295.87 83.2212 295.886ZM88.0989 293.685V301.23H87.1852V293.685H88.0989ZM91.3458 295.916L89.0273 298.396L87.7305 299.742L87.6568 298.774L88.5852 297.664L90.2356 295.916H91.3458ZM90.5156 301.23L88.6196 298.696L89.0911 297.885L91.5865 301.23H90.5156ZM94.7057 301.329C94.3356 301.329 94 301.266 93.6987 301.142C93.4007 301.014 93.1436 300.836 92.9275 300.607C92.7146 300.377 92.5509 300.106 92.4363 299.791C92.3217 299.477 92.2643 299.133 92.2643 298.76V298.553C92.2643 298.121 92.3282 297.736 92.4559 297.399C92.5836 297.058 92.7572 296.77 92.9766 296.534C93.196 296.299 93.4449 296.12 93.7232 295.999C94.0016 295.878 94.2898 295.817 94.5878 295.817C94.9676 295.817 95.2951 295.883 95.5702 296.014C95.8485 296.145 96.0761 296.328 96.253 296.564C96.4298 296.796 96.5608 297.072 96.6459 297.389C96.7311 297.704 96.7737 298.047 96.7737 298.421V298.828H92.8047V298.087H95.8649V298.018C95.8518 297.782 95.8027 297.553 95.7176 297.33C95.6357 297.108 95.5047 296.924 95.3246 296.78C95.1445 296.636 94.8989 296.564 94.5878 296.564C94.3815 296.564 94.1915 296.608 94.018 296.697C93.8444 296.782 93.6954 296.909 93.571 297.08C93.4465 297.25 93.3499 297.458 93.2812 297.704C93.2124 297.949 93.178 298.232 93.178 298.553V298.76C93.178 299.012 93.2124 299.249 93.2812 299.472C93.3532 299.691 93.4563 299.885 93.5906 300.052C93.7282 300.219 93.8935 300.35 94.0867 300.445C94.2832 300.539 94.5059 300.587 94.7548 300.587C95.0757 300.587 95.3475 300.521 95.5702 300.39C95.7929 300.26 95.9877 300.084 96.1547 299.865L96.7049 300.302C96.5903 300.476 96.4445 300.641 96.2677 300.798C96.0909 300.955 95.8731 301.083 95.6144 301.181C95.359 301.28 95.0561 301.329 94.7057 301.329ZM99.5736 300.68L101.052 295.916H102.025L99.8929 302.051C99.8437 302.182 99.7782 302.323 99.6964 302.473C99.6178 302.627 99.5163 302.773 99.3918 302.91C99.2674 303.048 99.1167 303.159 98.9399 303.244C98.7663 303.333 98.5584 303.377 98.3161 303.377C98.244 303.377 98.1523 303.367 98.041 303.348C97.9296 303.328 97.8511 303.312 97.8052 303.298L97.8003 302.562C97.8265 302.565 97.8674 302.568 97.9231 302.571C97.982 302.578 98.023 302.581 98.0459 302.581C98.2522 302.581 98.4274 302.553 98.5715 302.498C98.7156 302.445 98.8368 302.355 98.935 302.228C99.0365 302.103 99.1233 301.931 99.1953 301.712L99.5736 300.68ZM98.488 295.916L99.8683 300.042L100.104 301L99.4508 301.334L97.4957 295.916H98.488ZM106.254 299.821C106.254 299.69 106.225 299.569 106.166 299.457C106.11 299.343 105.994 299.239 105.817 299.148C105.643 299.053 105.381 298.971 105.031 298.902C104.736 298.84 104.469 298.766 104.23 298.681C103.994 298.596 103.793 298.493 103.626 298.372C103.462 298.25 103.336 298.108 103.248 297.944C103.159 297.781 103.115 297.589 103.115 297.37C103.115 297.16 103.161 296.962 103.253 296.775C103.348 296.589 103.48 296.423 103.651 296.279C103.824 296.135 104.032 296.022 104.274 295.94C104.517 295.858 104.787 295.817 105.085 295.817C105.511 295.817 105.874 295.893 106.175 296.043C106.477 296.194 106.708 296.395 106.868 296.647C107.029 296.896 107.109 297.173 107.109 297.478H106.2C106.2 297.33 106.156 297.188 106.067 297.05C105.982 296.909 105.856 296.793 105.689 296.702C105.525 296.61 105.324 296.564 105.085 296.564C104.833 296.564 104.628 296.603 104.471 296.682C104.317 296.757 104.204 296.854 104.132 296.972C104.063 297.09 104.029 297.214 104.029 297.345C104.029 297.443 104.045 297.532 104.078 297.61C104.114 297.686 104.176 297.756 104.265 297.821C104.353 297.884 104.477 297.943 104.638 297.998C104.798 298.054 105.003 298.11 105.252 298.165C105.688 298.264 106.046 298.381 106.328 298.519C106.609 298.657 106.819 298.825 106.956 299.025C107.094 299.225 107.163 299.467 107.163 299.752C107.163 299.984 107.114 300.197 107.015 300.39C106.92 300.584 106.781 300.751 106.598 300.892C106.418 301.029 106.202 301.137 105.949 301.216C105.701 301.291 105.421 301.329 105.11 301.329C104.641 301.329 104.245 301.245 103.921 301.078C103.597 300.911 103.351 300.695 103.184 300.43C103.017 300.165 102.933 299.885 102.933 299.59H103.847C103.86 299.839 103.932 300.037 104.063 300.184C104.194 300.328 104.355 300.431 104.545 300.494C104.735 300.553 104.923 300.582 105.11 300.582C105.358 300.582 105.566 300.549 105.733 300.484C105.904 300.418 106.033 300.328 106.121 300.214C106.21 300.099 106.254 299.968 106.254 299.821ZM109.496 300.15V300.882C109.496 301.18 109.421 301.494 109.27 301.825C109.119 302.159 108.908 302.437 108.636 302.66L108.121 302.301C108.225 302.157 108.314 302.01 108.386 301.859C108.458 301.712 108.512 301.558 108.548 301.397C108.587 301.24 108.607 301.073 108.607 300.896V300.15H109.496ZM115.273 300.68L116.751 295.916H117.724L115.592 302.051C115.543 302.182 115.477 302.323 115.395 302.473C115.317 302.627 115.215 302.773 115.091 302.91C114.966 303.048 114.816 303.159 114.639 303.244C114.465 303.333 114.257 303.377 114.015 303.377C113.943 303.377 113.851 303.367 113.74 303.348C113.629 303.328 113.55 303.312 113.504 303.298L113.499 302.562C113.526 302.565 113.567 302.568 113.622 302.571C113.681 302.578 113.722 302.581 113.745 302.581C113.951 302.581 114.127 302.553 114.271 302.498C114.415 302.445 114.536 302.355 114.634 302.228C114.736 302.103 114.822 301.931 114.894 301.712L115.273 300.68ZM114.187 295.916L115.567 300.042L115.803 301L115.15 301.334L113.195 295.916H114.187ZM118.539 298.632V298.519C118.539 298.136 118.595 297.781 118.706 297.453C118.818 297.122 118.978 296.836 119.188 296.593C119.397 296.348 119.651 296.158 119.949 296.024C120.247 295.886 120.581 295.817 120.951 295.817C121.324 295.817 121.66 295.886 121.958 296.024C122.259 296.158 122.515 296.348 122.724 296.593C122.937 296.836 123.099 297.122 123.211 297.453C123.322 297.781 123.378 298.136 123.378 298.519V298.632C123.378 299.015 123.322 299.37 123.211 299.698C123.099 300.025 122.937 300.312 122.724 300.558C122.515 300.8 122.261 300.99 121.963 301.127C121.668 301.262 121.334 301.329 120.961 301.329C120.588 301.329 120.252 301.262 119.954 301.127C119.656 300.99 119.4 300.8 119.188 300.558C118.978 300.312 118.818 300.025 118.706 299.698C118.595 299.37 118.539 299.015 118.539 298.632ZM119.448 298.519V298.632C119.448 298.897 119.479 299.148 119.541 299.384C119.604 299.616 119.697 299.822 119.821 300.002C119.949 300.183 120.108 300.325 120.298 300.43C120.488 300.531 120.709 300.582 120.961 300.582C121.21 300.582 121.428 300.531 121.614 300.43C121.804 300.325 121.961 300.183 122.086 300.002C122.21 299.822 122.304 299.616 122.366 299.384C122.431 299.148 122.464 298.897 122.464 298.632V298.519C122.464 298.257 122.431 298.01 122.366 297.777C122.304 297.541 122.209 297.334 122.081 297.153C121.956 296.97 121.799 296.826 121.609 296.721C121.423 296.616 121.203 296.564 120.951 296.564C120.702 296.564 120.483 296.616 120.293 296.721C120.106 296.826 119.949 296.97 119.821 297.153C119.697 297.334 119.604 297.541 119.541 297.777C119.479 298.01 119.448 298.257 119.448 298.519ZM128.083 300.002V295.916H128.997V301.23H128.128L128.083 300.002ZM128.255 298.882L128.634 298.873C128.634 299.226 128.596 299.554 128.521 299.855C128.449 300.153 128.331 300.412 128.167 300.631C128.003 300.851 127.789 301.023 127.523 301.147C127.258 301.268 126.936 301.329 126.556 301.329C126.297 301.329 126.06 301.291 125.844 301.216C125.631 301.14 125.447 301.024 125.293 300.867C125.139 300.71 125.02 300.505 124.935 300.253C124.853 300.001 124.812 299.698 124.812 299.344V295.916H125.721V299.354C125.721 299.593 125.747 299.791 125.799 299.948C125.855 300.102 125.929 300.225 126.02 300.317C126.115 300.405 126.22 300.467 126.335 300.503C126.453 300.539 126.574 300.558 126.698 300.558C127.085 300.558 127.391 300.484 127.617 300.336C127.843 300.186 128.005 299.984 128.103 299.732C128.205 299.477 128.255 299.194 128.255 298.882ZM131.605 296.751V301.23H130.697V295.916H131.581L131.605 296.751ZM133.266 295.886L133.261 296.731C133.185 296.715 133.113 296.705 133.045 296.702C132.979 296.695 132.904 296.692 132.819 296.692C132.609 296.692 132.424 296.724 132.264 296.79C132.103 296.855 131.967 296.947 131.856 297.065C131.745 297.183 131.656 297.324 131.591 297.487C131.528 297.648 131.488 297.825 131.468 298.018L131.212 298.165C131.212 297.844 131.244 297.543 131.306 297.261C131.371 296.98 131.471 296.731 131.605 296.515C131.74 296.295 131.91 296.125 132.116 296.004C132.326 295.88 132.575 295.817 132.863 295.817C132.928 295.817 133.004 295.826 133.089 295.842C133.174 295.855 133.233 295.87 133.266 295.886ZM139.357 300.582C139.573 300.582 139.773 300.538 139.956 300.449C140.139 300.361 140.29 300.24 140.408 300.086C140.526 299.929 140.593 299.75 140.609 299.551H141.474C141.457 299.865 141.351 300.158 141.155 300.43C140.961 300.698 140.708 300.916 140.393 301.083C140.079 301.247 139.733 301.329 139.357 301.329C138.957 301.329 138.608 301.258 138.31 301.117C138.016 300.977 137.77 300.783 137.574 300.538C137.38 300.292 137.235 300.011 137.136 299.693C137.041 299.372 136.994 299.033 136.994 298.676V298.47C136.994 298.113 137.041 297.776 137.136 297.458C137.235 297.137 137.38 296.854 137.574 296.608C137.77 296.363 138.016 296.169 138.31 296.029C138.608 295.888 138.957 295.817 139.357 295.817C139.773 295.817 140.136 295.902 140.447 296.073C140.758 296.24 141.002 296.469 141.179 296.76C141.359 297.049 141.457 297.376 141.474 297.743H140.609C140.593 297.523 140.531 297.325 140.423 297.149C140.318 296.972 140.174 296.831 139.99 296.726C139.81 296.618 139.599 296.564 139.357 296.564C139.078 296.564 138.844 296.62 138.654 296.731C138.468 296.839 138.319 296.986 138.207 297.173C138.099 297.356 138.021 297.561 137.972 297.787C137.926 298.01 137.903 298.237 137.903 298.47V298.676C137.903 298.909 137.926 299.138 137.972 299.364C138.017 299.59 138.094 299.794 138.202 299.978C138.314 300.161 138.463 300.309 138.649 300.42C138.839 300.528 139.075 300.582 139.357 300.582ZM142.569 298.632V298.519C142.569 298.136 142.625 297.781 142.736 297.453C142.848 297.122 143.008 296.836 143.218 296.593C143.427 296.348 143.681 296.158 143.979 296.024C144.277 295.886 144.611 295.817 144.981 295.817C145.354 295.817 145.69 295.886 145.988 296.024C146.289 296.158 146.545 296.348 146.754 296.593C146.967 296.836 147.129 297.122 147.241 297.453C147.352 297.781 147.408 298.136 147.408 298.519V298.632C147.408 299.015 147.352 299.37 147.241 299.698C147.129 300.025 146.967 300.312 146.754 300.558C146.545 300.8 146.291 300.99 145.993 301.127C145.698 301.262 145.364 301.329 144.991 301.329C144.618 301.329 144.282 301.262 143.984 301.127C143.686 300.99 143.431 300.8 143.218 300.558C143.008 300.312 142.848 300.025 142.736 299.698C142.625 299.37 142.569 299.015 142.569 298.632ZM143.478 298.519V298.632C143.478 298.897 143.509 299.148 143.571 299.384C143.634 299.616 143.727 299.822 143.851 300.002C143.979 300.183 144.138 300.325 144.328 300.43C144.518 300.531 144.739 300.582 144.991 300.582C145.24 300.582 145.458 300.531 145.644 300.43C145.834 300.325 145.991 300.183 146.116 300.002C146.24 299.822 146.334 299.616 146.396 299.384C146.461 299.148 146.494 298.897 146.494 298.632V298.519C146.494 298.257 146.461 298.01 146.396 297.777C146.334 297.541 146.239 297.334 146.111 297.153C145.986 296.97 145.829 296.826 145.639 296.721C145.453 296.616 145.233 296.564 144.981 296.564C144.732 296.564 144.513 296.616 144.323 296.721C144.136 296.826 143.979 296.97 143.851 297.153C143.727 297.334 143.634 297.541 143.571 297.777C143.509 298.01 143.478 298.257 143.478 298.519ZM149.849 295.916V301.23H148.935V295.916H149.849ZM148.867 294.506C148.867 294.358 148.911 294.234 148.999 294.132C149.091 294.031 149.225 293.98 149.402 293.98C149.576 293.98 149.708 294.031 149.8 294.132C149.895 294.234 149.942 294.358 149.942 294.506C149.942 294.647 149.895 294.768 149.8 294.869C149.708 294.968 149.576 295.017 149.402 295.017C149.225 295.017 149.091 294.968 148.999 294.869C148.911 294.768 148.867 294.647 148.867 294.506ZM152.531 297.05V301.23H151.622V295.916H152.482L152.531 297.05ZM152.315 298.372L151.937 298.357C151.94 297.993 151.994 297.658 152.099 297.35C152.204 297.039 152.351 296.769 152.541 296.539C152.731 296.31 152.957 296.133 153.219 296.009C153.484 295.881 153.777 295.817 154.098 295.817C154.36 295.817 154.596 295.853 154.805 295.925C155.015 295.994 155.193 296.106 155.341 296.259C155.491 296.413 155.606 296.613 155.685 296.859C155.763 297.101 155.802 297.397 155.802 297.748V301.23H154.889V297.738C154.889 297.46 154.848 297.237 154.766 297.07C154.684 296.9 154.565 296.777 154.407 296.702C154.25 296.623 154.057 296.584 153.828 296.584C153.602 296.584 153.396 296.631 153.209 296.726C153.026 296.821 152.867 296.952 152.732 297.119C152.601 297.286 152.498 297.478 152.423 297.694C152.351 297.907 152.315 298.133 152.315 298.372ZM160.592 299.821C160.592 299.69 160.562 299.569 160.503 299.457C160.448 299.343 160.331 299.239 160.155 299.148C159.981 299.053 159.719 298.971 159.369 298.902C159.074 298.84 158.807 298.766 158.568 298.681C158.332 298.596 158.131 298.493 157.964 298.372C157.8 298.25 157.674 298.108 157.586 297.944C157.497 297.781 157.453 297.589 157.453 297.37C157.453 297.16 157.499 296.962 157.59 296.775C157.685 296.589 157.818 296.423 157.988 296.279C158.162 296.135 158.37 296.022 158.612 295.94C158.855 295.858 159.125 295.817 159.423 295.817C159.848 295.817 160.212 295.893 160.513 296.043C160.814 296.194 161.045 296.395 161.206 296.647C161.366 296.896 161.446 297.173 161.446 297.478H160.538C160.538 297.33 160.494 297.188 160.405 297.05C160.32 296.909 160.194 296.793 160.027 296.702C159.863 296.61 159.662 296.564 159.423 296.564C159.171 296.564 158.966 296.603 158.809 296.682C158.655 296.757 158.542 296.854 158.47 296.972C158.401 297.09 158.367 297.214 158.367 297.345C158.367 297.443 158.383 297.532 158.416 297.61C158.452 297.686 158.514 297.756 158.602 297.821C158.691 297.884 158.815 297.943 158.976 297.998C159.136 298.054 159.341 298.11 159.59 298.165C160.025 298.264 160.384 298.381 160.665 298.519C160.947 298.657 161.157 298.825 161.294 299.025C161.432 299.225 161.501 299.467 161.501 299.752C161.501 299.984 161.451 300.197 161.353 300.39C161.258 300.584 161.119 300.751 160.936 300.892C160.756 301.029 160.539 301.137 160.287 301.216C160.038 301.291 159.758 301.329 159.447 301.329C158.979 301.329 158.583 301.245 158.259 301.078C157.934 300.911 157.689 300.695 157.522 300.43C157.355 300.165 157.271 299.885 157.271 299.59H158.185C158.198 299.839 158.27 300.037 158.401 300.184C158.532 300.328 158.692 300.431 158.882 300.494C159.072 300.553 159.261 300.582 159.447 300.582C159.696 300.582 159.904 300.549 160.071 300.484C160.241 300.418 160.371 300.328 160.459 300.214C160.548 300.099 160.592 299.968 160.592 299.821ZM163.023 300.749C163.023 300.595 163.071 300.466 163.166 300.361C163.264 300.253 163.405 300.199 163.588 300.199C163.772 300.199 163.911 300.253 164.006 300.361C164.104 300.466 164.153 300.595 164.153 300.749C164.153 300.9 164.104 301.027 164.006 301.132C163.911 301.237 163.772 301.289 163.588 301.289C163.405 301.289 163.264 301.237 163.166 301.132C163.071 301.027 163.023 300.9 163.023 300.749Z" fill="#777777"/>
<rect x="91.4833" y="414.062" width="6.2875" height="6.2875" rx="3.14375" fill="#F7931A"/>
<g clip-path="url(#clip1_264_10325)">
<rect x="110.346" y="414.062" width="6.2875" height="6.2875" rx="3.14375" fill="#DEDEDE"/>
<circle cx="114.118" cy="417.835" r="3.7725" fill="#DEDEDE"/>
</g>
<g clip-path="url(#clip2_264_10325)">
<rect x="129.208" y="414.062" width="6.2875" height="6.2875" rx="3.14375" fill="#DEDEDE"/>
<circle cx="132.981" cy="417.835" r="3.7725" fill="#DEDEDE"/>
</g>
<rect x="8.17395" y="439.211" width="210.631" height="33.605" rx="3.14375" fill="#F7931A"/>
<path d="M108.821 451.86V459.012H107.868L104.268 453.495V459.012H103.32V451.86H104.268L107.883 457.391V451.86H108.821ZM112.884 459.11C112.514 459.11 112.178 459.048 111.877 458.923C111.579 458.796 111.322 458.617 111.105 458.388C110.893 458.159 110.729 457.887 110.614 457.572C110.5 457.258 110.442 456.914 110.442 456.541V456.335C110.442 455.902 110.506 455.518 110.634 455.18C110.762 454.84 110.935 454.552 111.155 454.316C111.374 454.08 111.623 453.901 111.901 453.78C112.18 453.659 112.468 453.599 112.766 453.599C113.146 453.599 113.473 453.664 113.748 453.795C114.027 453.926 114.254 454.109 114.431 454.345C114.608 454.578 114.739 454.853 114.824 455.17C114.909 455.485 114.952 455.829 114.952 456.202V456.61H110.983V455.868H114.043V455.799C114.03 455.563 113.981 455.334 113.896 455.112C113.814 454.889 113.683 454.705 113.503 454.561C113.322 454.417 113.077 454.345 112.766 454.345C112.559 454.345 112.37 454.389 112.196 454.478C112.022 454.563 111.873 454.691 111.749 454.861C111.625 455.031 111.528 455.239 111.459 455.485C111.39 455.73 111.356 456.014 111.356 456.335V456.541C111.356 456.793 111.39 457.031 111.459 457.253C111.531 457.473 111.634 457.666 111.769 457.833C111.906 458 112.072 458.131 112.265 458.226C112.461 458.321 112.684 458.368 112.933 458.368C113.254 458.368 113.525 458.303 113.748 458.172C113.971 458.041 114.166 457.866 114.333 457.646L114.883 458.083C114.768 458.257 114.623 458.422 114.446 458.579C114.269 458.737 114.051 458.864 113.792 458.963C113.537 459.061 113.234 459.11 112.884 459.11ZM116.941 453.697L118.105 455.632L119.284 453.697H120.35L118.611 456.32L120.404 459.012H119.353L118.125 457.017L116.897 459.012H115.841L117.629 456.32L115.895 453.697H116.941ZM123.857 453.697V454.394H120.984V453.697H123.857ZM121.956 452.405H122.865V457.695C122.865 457.875 122.893 458.011 122.949 458.103C123.004 458.195 123.076 458.255 123.165 458.285C123.253 458.314 123.348 458.329 123.45 458.329C123.525 458.329 123.604 458.322 123.685 458.309C123.771 458.293 123.834 458.28 123.877 458.27L123.882 459.012C123.81 459.035 123.715 459.056 123.597 459.076C123.482 459.098 123.343 459.11 123.179 459.11C122.957 459.11 122.752 459.066 122.565 458.977C122.379 458.889 122.23 458.742 122.118 458.535C122.01 458.326 121.956 458.044 121.956 457.69V452.405Z" fill="white"/>
</g>
<defs>
<clipPath id="clip0_264_10325">
<rect width="226.35" height="503" fill="white"/>
</clipPath>
<clipPath id="clip1_264_10325">
<rect x="110.346" y="414.062" width="6.2875" height="6.2875" rx="3.14375" fill="white"/>
</clipPath>
<clipPath id="clip2_264_10325">
<rect x="129.208" y="414.062" width="6.2875" height="6.2875" rx="3.14375" fill="white"/>
</clipPath>
</defs>
</svg>
