<svg width="234" height="518" viewBox="0 0 234 518" fill="none" xmlns="http://www.w3.org/2000/svg">
<g clip-path="url(#clip0_267_10494)">
<rect width="233.1" height="518" fill="white"/>
<rect x="0.647583" width="233.1" height="19.2364" fill="#F1F1F1"/>
<circle cx="20.4498" cy="10.1831" r="3.96044" fill="#C4C4C4"/>
<circle cx="201.498" cy="10.1831" r="3.96044" fill="#C4C4C4"/>
<rect x="211.117" y="6.78906" width="6.78932" height="6.78932" fill="#C4C4C4"/>
<path d="M187.92 13.5781L184 6.7888L191.84 6.7888L187.92 13.5781Z" fill="#C4C4C4"/>
<path d="M203.283 57.0564C203.283 56.8844 203.256 56.7327 203.202 56.6011C203.152 56.4662 203.06 56.3448 202.929 56.2369C202.801 56.129 202.622 56.0261 202.393 55.9283C202.167 55.8305 201.88 55.7311 201.533 55.6299C201.169 55.522 200.84 55.4022 200.546 55.2707C200.253 55.1358 200.002 54.9824 199.793 54.8104C199.584 54.6384 199.423 54.4411 199.312 54.2185C199.201 53.996 199.145 53.7413 199.145 53.4547C199.145 53.168 199.204 52.9033 199.322 52.6605C199.44 52.4177 199.609 52.2069 199.828 52.0282C200.051 51.8461 200.315 51.7044 200.622 51.6032C200.929 51.5021 201.271 51.4515 201.649 51.4515C202.202 51.4515 202.671 51.5577 203.055 51.7702C203.443 51.9793 203.738 52.2541 203.941 52.5947C204.143 52.932 204.244 53.2928 204.244 53.6773H203.273C203.273 53.4007 203.214 53.1562 203.096 52.9438C202.978 52.7279 202.799 52.5593 202.56 52.4379C202.32 52.3131 202.017 52.2507 201.649 52.2507C201.302 52.2507 201.015 52.303 200.789 52.4076C200.563 52.5121 200.395 52.6537 200.283 52.8325C200.175 53.0112 200.121 53.2152 200.121 53.4446C200.121 53.5997 200.153 53.7413 200.218 53.8695C200.285 53.9943 200.388 54.1106 200.526 54.2185C200.668 54.3265 200.847 54.4259 201.062 54.517C201.282 54.608 201.543 54.6957 201.846 54.78C202.265 54.8981 202.625 55.0296 202.929 55.1746C203.232 55.3196 203.482 55.4832 203.678 55.6653C203.877 55.844 204.023 56.0481 204.118 56.2774C204.216 56.5033 204.264 56.7596 204.264 57.0463C204.264 57.3464 204.204 57.6179 204.082 57.8607C203.961 58.1035 203.787 58.3109 203.561 58.4829C203.335 58.6549 203.064 58.7881 202.747 58.8826C202.433 58.9736 202.082 59.0191 201.695 59.0191C201.354 59.0191 201.018 58.9719 200.688 58.8775C200.361 58.7831 200.062 58.6414 199.793 58.4526C199.526 58.2637 199.312 58.031 199.15 57.7545C198.992 57.4746 198.912 57.1508 198.912 56.7832H199.884C199.884 57.0362 199.933 57.2537 200.03 57.4358C200.128 57.6145 200.261 57.7629 200.43 57.881C200.602 57.999 200.796 58.0867 201.012 58.144C201.231 58.198 201.459 58.2249 201.695 58.2249C202.035 58.2249 202.324 58.1777 202.56 58.0833C202.796 57.9889 202.974 57.854 203.096 57.6786C203.221 57.5032 203.283 57.2958 203.283 57.0564ZM206.632 51.148V58.918H205.691V51.148H206.632ZM209.976 53.4446L207.588 55.9992L206.252 57.3852L206.177 56.3887L207.133 55.2454L208.832 53.4446H209.976ZM209.121 58.918L207.168 56.3077L207.654 55.4731L210.223 58.918H209.121ZM212.282 53.4446V58.918H211.341V53.4446H212.282ZM211.271 51.9928C211.271 51.841 211.316 51.7128 211.407 51.6083C211.502 51.5038 211.64 51.4515 211.822 51.4515C212.001 51.4515 212.137 51.5038 212.232 51.6083C212.33 51.7128 212.378 51.841 212.378 51.9928C212.378 52.1378 212.33 52.2625 212.232 52.3671C212.137 52.4683 212.001 52.5188 211.822 52.5188C211.64 52.5188 211.502 52.4683 211.407 52.3671C211.316 52.2625 211.271 52.1378 211.271 51.9928ZM215.044 54.4968V61.0223H214.103V53.4446H214.963L215.044 54.4968ZM218.732 56.1357V56.242C218.732 56.6399 218.685 57.0092 218.59 57.3498C218.496 57.687 218.358 57.9804 218.176 58.23C217.997 58.4796 217.776 58.6735 217.513 58.8117C217.25 58.95 216.948 59.0191 216.607 59.0191C216.26 59.0191 215.953 58.9618 215.687 58.8471C215.42 58.7325 215.194 58.5656 215.009 58.3463C214.823 58.1271 214.675 57.8641 214.564 57.5572C214.456 57.2503 214.382 56.9046 214.341 56.5202V55.9536C214.382 55.5489 214.457 55.1864 214.569 54.866C214.68 54.5457 214.827 54.2725 215.009 54.0465C215.194 53.8172 215.419 53.6435 215.682 53.5255C215.945 53.4041 216.248 53.3434 216.592 53.3434C216.936 53.3434 217.241 53.4108 217.508 53.5457C217.774 53.6773 217.999 53.8661 218.181 54.1123C218.363 54.3585 218.499 54.6536 218.59 54.9976C218.685 55.3382 218.732 55.7176 218.732 56.1357ZM217.791 56.242V56.1357C217.791 55.8626 217.762 55.6063 217.705 55.3668C217.648 55.124 217.558 54.9116 217.437 54.7295C217.319 54.544 217.167 54.399 216.982 54.2944C216.796 54.1865 216.575 54.1325 216.319 54.1325C216.083 54.1325 215.877 54.173 215.702 54.2539C215.53 54.3349 215.383 54.4445 215.262 54.5828C215.14 54.7176 215.041 54.8728 214.963 55.0481C214.889 55.2201 214.834 55.3989 214.796 55.5844V56.8945C214.864 57.1306 214.958 57.3532 215.08 57.5623C215.201 57.768 215.363 57.9349 215.565 58.0631C215.768 58.1878 216.022 58.2502 216.329 58.2502C216.582 58.2502 216.8 58.198 216.982 58.0934C217.167 57.9855 217.319 57.8388 217.437 57.6533C217.558 57.4678 217.648 57.2554 217.705 57.0159C217.762 56.7731 217.791 56.5151 217.791 56.242Z" fill="black"/>
<rect x="84.499" y="137.73" width="64.75" height="64.75" rx="32.375" fill="#2D9CDB"/>
<mask id="path-9-inside-1_267_10494" fill="white">
<path fill-rule="evenodd" clip-rule="evenodd" d="M106.514 158.445C105.799 158.445 105.219 159.025 105.219 159.74V180.352C105.219 181.067 105.799 181.647 106.514 181.647H127.234C127.949 181.647 128.529 181.067 128.529 180.352V159.74C128.529 159.025 127.949 158.445 127.234 158.445H106.514ZM109.751 162.33C109.394 162.33 109.104 162.62 109.104 162.978V177.223C109.104 177.58 109.394 177.87 109.751 177.87H123.996C124.354 177.87 124.644 177.58 124.644 177.223V162.978C124.644 162.62 124.354 162.33 123.996 162.33H109.751Z"/>
</mask>
<path fill-rule="evenodd" clip-rule="evenodd" d="M106.514 158.445C105.799 158.445 105.219 159.025 105.219 159.74V180.352C105.219 181.067 105.799 181.647 106.514 181.647H127.234C127.949 181.647 128.529 181.067 128.529 180.352V159.74C128.529 159.025 127.949 158.445 127.234 158.445H106.514ZM109.751 162.33C109.394 162.33 109.104 162.62 109.104 162.978V177.223C109.104 177.58 109.394 177.87 109.751 177.87H123.996C124.354 177.87 124.644 177.58 124.644 177.223V162.978C124.644 162.62 124.354 162.33 123.996 162.33H109.751Z" fill="white"/>
<path d="M106.514 159.74V159.74V157.15C105.084 157.15 103.924 158.31 103.924 159.74H106.514ZM106.514 180.352V159.74H103.924V180.352H106.514ZM106.514 180.352H106.514H103.924C103.924 181.782 105.084 182.942 106.514 182.942V180.352ZM127.234 180.352H106.514V182.942H127.234V180.352ZM127.234 180.352V182.942C128.664 182.942 129.824 181.782 129.824 180.352H127.234ZM127.234 159.74V180.352H129.824V159.74H127.234ZM127.234 159.74H129.824C129.824 158.31 128.664 157.15 127.234 157.15V159.74ZM106.514 159.74H127.234V157.15H106.514V159.74ZM110.399 162.978C110.399 163.335 110.109 163.625 109.751 163.625V161.035C108.679 161.035 107.809 161.905 107.809 162.978H110.399ZM110.399 177.223V162.978H107.809V177.223H110.399ZM109.751 176.575C110.109 176.575 110.399 176.865 110.399 177.223H107.809C107.809 178.296 108.679 179.165 109.751 179.165V176.575ZM123.996 176.575H109.751V179.165H123.996V176.575ZM123.349 177.223C123.349 176.865 123.639 176.575 123.996 176.575V179.165C125.069 179.165 125.939 178.296 125.939 177.223H123.349ZM123.349 162.978V177.223H125.939V162.978H123.349ZM123.996 163.625C123.639 163.625 123.349 163.335 123.349 162.978H125.939C125.939 161.905 125.069 161.035 123.996 161.035V163.625ZM109.751 163.625H123.996V161.035H109.751V163.625Z" fill="white" mask="url(#path-9-inside-1_267_10494)"/>
<mask id="path-11-inside-2_267_10494" fill="white">
<path d="M109.104 181.758H112.989V182.506C112.989 182.808 112.744 183.053 112.442 183.053H109.651C109.349 183.053 109.104 182.808 109.104 182.506V181.758Z"/>
</mask>
<path d="M109.104 181.758H112.989V182.506C112.989 182.808 112.744 183.053 112.442 183.053H109.651C109.349 183.053 109.104 182.808 109.104 182.506V181.758Z" stroke="white" stroke-width="1.295" mask="url(#path-11-inside-2_267_10494)"/>
<mask id="path-12-inside-3_267_10494" fill="white">
<path d="M120.759 181.758H124.644V182.506C124.644 182.808 124.399 183.053 124.097 183.053H121.306C121.004 183.053 120.759 182.808 120.759 182.506V181.758Z"/>
</mask>
<path d="M120.759 181.758H124.644V182.506C124.644 182.808 124.399 183.053 124.097 183.053H121.306C121.004 183.053 120.759 182.808 120.759 182.506V181.758Z" stroke="white" stroke-width="1.295" mask="url(#path-12-inside-3_267_10494)"/>
<circle cx="116.874" cy="170.102" r="2.59" fill="white"/>
<path d="M112.341 165.57L121.406 174.635" stroke="white" stroke-width="1.295" stroke-linecap="round" stroke-linejoin="round"/>
<path d="M112.341 174.635L121.406 165.57" stroke="white" stroke-width="1.295" stroke-linecap="round" stroke-linejoin="round"/>
<path d="M36.5991 227.017V239.906H34.8906V227.017H36.5991ZM44.3805 227.017L39.0247 233.028L36.0149 236.153L35.7316 234.329L37.9978 231.833L42.3267 227.017H44.3805ZM42.734 239.906L37.9624 233.621L38.9805 232.267L44.77 239.906H42.734ZM49.7717 240.083C49.1048 240.083 48.4999 239.971 47.9569 239.747C47.4199 239.517 46.9566 239.195 46.5671 238.782C46.1835 238.369 45.8884 237.879 45.6818 237.312C45.4753 236.746 45.372 236.126 45.372 235.453V235.082C45.372 234.303 45.4871 233.609 45.7173 233.001C45.9474 232.387 46.2602 231.868 46.6556 231.443C47.051 231.018 47.4996 230.697 48.0012 230.478C48.5029 230.26 49.0222 230.151 49.5593 230.151C50.2439 230.151 50.834 230.269 51.3298 230.505C51.8314 230.741 52.2416 231.071 52.5603 231.496C52.879 231.915 53.115 232.411 53.2685 232.984C53.4219 233.55 53.4986 234.17 53.4986 234.843V235.577H46.3458V234.241H51.8609V234.117C51.8373 233.692 51.7488 233.279 51.5953 232.877C51.4478 232.476 51.2117 232.146 50.8871 231.886C50.5625 231.626 50.1199 231.496 49.5593 231.496C49.1875 231.496 48.8452 231.576 48.5324 231.735C48.2196 231.889 47.951 232.119 47.7268 232.426C47.5025 232.733 47.3284 233.107 47.2045 233.55C47.0805 233.993 47.0186 234.503 47.0186 235.082V235.453C47.0186 235.908 47.0805 236.336 47.2045 236.737C47.3343 237.132 47.5202 237.481 47.7622 237.782C48.0101 238.083 48.3081 238.319 48.6563 238.49C49.0104 238.661 49.4117 238.747 49.8602 238.747C50.4386 238.747 50.9285 238.629 51.3298 238.392C51.7311 238.156 52.0822 237.841 52.3832 237.445L53.3747 238.233C53.1681 238.546 52.9055 238.844 52.5868 239.127C52.2681 239.411 51.8757 239.641 51.4094 239.818C50.9491 239.995 50.4032 240.083 49.7717 240.083ZM59.3856 240.083C58.7187 240.083 58.1138 239.971 57.5708 239.747C57.0338 239.517 56.5705 239.195 56.181 238.782C55.7974 238.369 55.5023 237.879 55.2957 237.312C55.0891 236.746 54.9859 236.126 54.9859 235.453V235.082C54.9859 234.303 55.101 233.609 55.3311 233.001C55.5613 232.387 55.8741 231.868 56.2695 231.443C56.6649 231.018 57.1134 230.697 57.6151 230.478C58.1167 230.26 58.6361 230.151 59.1731 230.151C59.8577 230.151 60.4479 230.269 60.9436 230.505C61.4453 230.741 61.8554 231.071 62.1741 231.496C62.4928 231.915 62.7289 232.411 62.8823 232.984C63.0358 233.55 63.1125 234.17 63.1125 234.843V235.577H55.9596V234.241H61.4748V234.117C61.4512 233.692 61.3626 233.279 61.2092 232.877C61.0617 232.476 60.8256 232.146 60.501 231.886C60.1764 231.626 59.7338 231.496 59.1731 231.496C58.8013 231.496 58.459 231.576 58.1462 231.735C57.8334 231.889 57.5649 232.119 57.3406 232.426C57.1164 232.733 56.9423 233.107 56.8183 233.55C56.6944 233.993 56.6324 234.503 56.6324 235.082V235.453C56.6324 235.908 56.6944 236.336 56.8183 236.737C56.9482 237.132 57.1341 237.481 57.3761 237.782C57.6239 238.083 57.922 238.319 58.2702 238.49C58.6243 238.661 59.0256 238.747 59.4741 238.747C60.0525 238.747 60.5423 238.629 60.9436 238.392C61.3449 238.156 61.6961 237.841 61.9971 237.445L62.9886 238.233C62.782 238.546 62.5194 238.844 62.2007 239.127C61.882 239.411 61.4895 239.641 61.0233 239.818C60.563 239.995 60.0171 240.083 59.3856 240.083ZM66.6624 232.169V243.589H65.0158V230.328H66.5207L66.6624 232.169ZM73.1159 235.037V235.223C73.1159 235.92 73.0332 236.566 72.868 237.162C72.7028 237.752 72.4608 238.266 72.1421 238.702C71.8293 239.139 71.4427 239.478 70.9824 239.72C70.5221 239.962 69.9939 240.083 69.3978 240.083C68.7899 240.083 68.2529 239.983 67.7866 239.782C67.3204 239.582 66.925 239.29 66.6004 238.906C66.2758 238.522 66.0161 238.062 65.8214 237.525C65.6325 236.988 65.5027 236.383 65.4319 235.71V234.719C65.5027 234.01 65.6355 233.376 65.8302 232.815C66.025 232.255 66.2817 231.777 66.6004 231.381C66.925 230.98 67.3175 230.676 67.7778 230.469C68.2381 230.257 68.7693 230.151 69.3712 230.151C69.9732 230.151 70.5073 230.269 70.9736 230.505C71.4398 230.735 71.8323 231.066 72.1509 231.496C72.4696 231.927 72.7087 232.444 72.868 233.046C73.0332 233.642 73.1159 234.306 73.1159 235.037ZM71.4693 235.223V235.037C71.4693 234.559 71.4191 234.111 71.3188 233.692C71.2185 233.267 71.0621 232.895 70.8496 232.576C70.6431 232.252 70.3775 231.998 70.0529 231.815C69.7283 231.626 69.3417 231.532 68.8932 231.532C68.4801 231.532 68.1201 231.603 67.8132 231.744C67.5122 231.886 67.2555 232.078 67.043 232.32C66.8306 232.556 66.6565 232.827 66.5207 233.134C66.3909 233.435 66.2935 233.748 66.2286 234.072V236.365C66.3466 236.778 66.5119 237.168 66.7243 237.534C66.9368 237.894 67.2201 238.186 67.5742 238.41C67.9283 238.629 68.3739 238.738 68.9109 238.738C69.3535 238.738 69.7342 238.646 70.0529 238.463C70.3775 238.274 70.6431 238.018 70.8496 237.693C71.0621 237.369 71.2185 236.997 71.3188 236.578C71.4191 236.153 71.4693 235.701 71.4693 235.223ZM82.3933 238.915L85.0579 230.328H86.8107L82.9687 241.385C82.8802 241.621 82.7622 241.874 82.6146 242.146C82.473 242.423 82.29 242.686 82.0658 242.934C81.8415 243.182 81.57 243.382 81.2514 243.536C80.9386 243.695 80.5638 243.775 80.1271 243.775C79.9972 243.775 79.832 243.757 79.6313 243.722C79.4307 243.686 79.289 243.657 79.2064 243.633L79.1976 242.305C79.2448 242.311 79.3185 242.317 79.4189 242.323C79.5251 242.335 79.5989 242.341 79.6402 242.341C80.012 242.341 80.3277 242.291 80.5874 242.19C80.8471 242.096 81.0654 241.933 81.2425 241.703C81.4255 241.479 81.5818 241.169 81.7117 240.774L82.3933 238.915ZM80.4369 230.328L82.9245 237.764L83.3494 239.49L82.172 240.092L78.6487 230.328H80.4369ZM87.7137 235.223V235.02C87.7137 234.329 87.814 233.689 88.0147 233.099C88.2154 232.503 88.5045 231.986 88.8822 231.549C89.26 231.107 89.7173 230.765 90.2544 230.523C90.7914 230.275 91.3934 230.151 92.0603 230.151C92.7331 230.151 93.338 230.275 93.8751 230.523C94.418 230.765 94.8784 231.107 95.2561 231.549C95.6397 231.986 95.9318 232.503 96.1325 233.099C96.3331 233.689 96.4335 234.329 96.4335 235.02V235.223C96.4335 235.914 96.3331 236.554 96.1325 237.144C95.9318 237.734 95.6397 238.251 95.2561 238.693C94.8784 239.13 94.421 239.472 93.8839 239.72C93.3528 239.962 92.7508 240.083 92.078 240.083C91.4052 240.083 90.8003 239.962 90.2632 239.72C89.7262 239.472 89.2659 239.13 88.8822 238.693C88.5045 238.251 88.2154 237.734 88.0147 237.144C87.814 236.554 87.7137 235.914 87.7137 235.223ZM89.3514 235.02V235.223C89.3514 235.701 89.4075 236.153 89.5196 236.578C89.6318 236.997 89.8 237.369 90.0242 237.693C90.2544 238.018 90.5406 238.274 90.8829 238.463C91.2252 238.646 91.6236 238.738 92.078 238.738C92.5265 238.738 92.919 238.646 93.2554 238.463C93.5977 238.274 93.881 238.018 94.1052 237.693C94.3295 237.369 94.4977 236.997 94.6098 236.578C94.7279 236.153 94.7869 235.701 94.7869 235.223V235.02C94.7869 234.548 94.7279 234.102 94.6098 233.683C94.4977 233.258 94.3266 232.883 94.0964 232.559C93.8721 232.228 93.5888 231.968 93.2465 231.78C92.9102 231.591 92.5147 231.496 92.0603 231.496C91.6118 231.496 91.2164 231.591 90.8741 231.78C90.5377 231.968 90.2544 232.228 90.0242 232.559C89.8 232.883 89.6318 233.258 89.5196 233.683C89.4075 234.102 89.3514 234.548 89.3514 235.02ZM104.348 237.693V230.328H105.994V239.906H104.427L104.348 237.693ZM104.657 235.675L105.339 235.657C105.339 236.294 105.271 236.885 105.136 237.428C105.006 237.965 104.793 238.431 104.498 238.826C104.203 239.222 103.816 239.531 103.338 239.756C102.86 239.974 102.279 240.083 101.594 240.083C101.128 240.083 100.7 240.015 100.311 239.88C99.9273 239.744 99.5968 239.534 99.3194 239.251C99.042 238.968 98.8266 238.599 98.6732 238.145C98.5256 237.69 98.4518 237.144 98.4518 236.507V230.328H100.09V236.525C100.09 236.955 100.137 237.312 100.231 237.596C100.332 237.873 100.464 238.094 100.63 238.26C100.801 238.419 100.99 238.531 101.196 238.596C101.409 238.661 101.627 238.693 101.851 238.693C102.548 238.693 103.099 238.561 103.507 238.295C103.914 238.024 104.206 237.661 104.383 237.206C104.566 236.746 104.657 236.235 104.657 235.675ZM110.128 231.833V239.906H108.491V230.328H110.084L110.128 231.833ZM113.12 230.275L113.112 231.797C112.976 231.768 112.846 231.75 112.722 231.744C112.604 231.732 112.468 231.727 112.315 231.727C111.937 231.727 111.604 231.786 111.315 231.904C111.025 232.022 110.78 232.187 110.58 232.399C110.379 232.612 110.22 232.866 110.102 233.161C109.99 233.45 109.916 233.768 109.88 234.117L109.42 234.382C109.42 233.804 109.476 233.261 109.588 232.753C109.706 232.246 109.886 231.797 110.128 231.408C110.37 231.012 110.677 230.706 111.049 230.487C111.427 230.263 111.875 230.151 112.395 230.151C112.513 230.151 112.648 230.166 112.802 230.195C112.955 230.219 113.061 230.245 113.12 230.275ZM121.557 238.207L124.018 230.328H125.098L124.886 231.895L122.38 239.906H121.327L121.557 238.207ZM119.902 230.328L122 238.295L122.15 239.906H121.044L118.264 230.328H119.902ZM127.453 238.233L129.453 230.328H131.082L128.303 239.906H127.205L127.453 238.233ZM125.337 230.328L127.745 238.074L128.019 239.906H126.975L124.399 231.877L124.186 230.328H125.337ZM138.412 238.269V233.338C138.412 232.96 138.335 232.632 138.182 232.355C138.034 232.072 137.81 231.853 137.509 231.7C137.208 231.547 136.836 231.47 136.394 231.47C135.981 231.47 135.618 231.541 135.305 231.682C134.998 231.824 134.756 232.01 134.579 232.24C134.408 232.47 134.322 232.718 134.322 232.984H132.685C132.685 232.641 132.773 232.302 132.95 231.966C133.127 231.629 133.381 231.325 133.712 231.054C134.048 230.776 134.449 230.558 134.915 230.399C135.388 230.233 135.913 230.151 136.491 230.151C137.188 230.151 137.801 230.269 138.333 230.505C138.87 230.741 139.289 231.098 139.59 231.576C139.896 232.048 140.05 232.641 140.05 233.355V237.817C140.05 238.136 140.076 238.475 140.13 238.835C140.189 239.195 140.274 239.505 140.386 239.765V239.906H138.678C138.595 239.717 138.53 239.467 138.483 239.154C138.436 238.835 138.412 238.54 138.412 238.269ZM138.695 234.099L138.713 235.25H137.058C136.592 235.25 136.175 235.288 135.81 235.365C135.444 235.436 135.137 235.545 134.889 235.692C134.641 235.84 134.452 236.026 134.322 236.25C134.192 236.469 134.128 236.725 134.128 237.02C134.128 237.321 134.195 237.596 134.331 237.844C134.467 238.091 134.671 238.289 134.942 238.437C135.219 238.578 135.559 238.649 135.96 238.649C136.462 238.649 136.904 238.543 137.288 238.33C137.672 238.118 137.975 237.858 138.2 237.551C138.43 237.245 138.554 236.947 138.572 236.657L139.271 237.445C139.23 237.693 139.117 237.968 138.935 238.269C138.752 238.57 138.507 238.859 138.2 239.136C137.899 239.408 137.539 239.635 137.12 239.818C136.707 239.995 136.24 240.083 135.721 240.083C135.072 240.083 134.502 239.956 134.012 239.703C133.529 239.449 133.151 239.11 132.879 238.685C132.614 238.254 132.481 237.773 132.481 237.242C132.481 236.728 132.581 236.277 132.782 235.887C132.983 235.492 133.272 235.164 133.65 234.905C134.027 234.639 134.482 234.438 135.013 234.303C135.544 234.167 136.137 234.099 136.792 234.099H138.695ZM144.405 226.309V239.906H142.759V226.309H144.405ZM148.814 226.309V239.906H147.167V226.309H148.814ZM155.418 240.083C154.751 240.083 154.146 239.971 153.603 239.747C153.066 239.517 152.603 239.195 152.213 238.782C151.83 238.369 151.535 237.879 151.328 237.312C151.121 236.746 151.018 236.126 151.018 235.453V235.082C151.018 234.303 151.133 233.609 151.363 233.001C151.594 232.387 151.906 231.868 152.302 231.443C152.697 231.018 153.146 230.697 153.647 230.478C154.149 230.26 154.668 230.151 155.205 230.151C155.89 230.151 156.48 230.269 156.976 230.505C157.478 230.741 157.888 231.071 158.206 231.496C158.525 231.915 158.761 232.411 158.915 232.984C159.068 233.55 159.145 234.17 159.145 234.843V235.577H151.992V234.241H157.507V234.117C157.484 233.692 157.395 233.279 157.242 232.877C157.094 232.476 156.858 232.146 156.533 231.886C156.209 231.626 155.766 231.496 155.205 231.496C154.834 231.496 154.491 231.576 154.179 231.735C153.866 231.889 153.597 232.119 153.373 232.426C153.149 232.733 152.975 233.107 152.851 233.55C152.727 233.993 152.665 234.503 152.665 235.082V235.453C152.665 235.908 152.727 236.336 152.851 236.737C152.981 237.132 153.166 237.481 153.408 237.782C153.656 238.083 153.954 238.319 154.303 238.49C154.657 238.661 155.058 238.747 155.506 238.747C156.085 238.747 156.575 238.629 156.976 238.392C157.377 238.156 157.728 237.841 158.029 237.445L159.021 238.233C158.814 238.546 158.552 238.844 158.233 239.127C157.914 239.411 157.522 239.641 157.056 239.818C156.595 239.995 156.049 240.083 155.418 240.083ZM165.067 230.328V231.585H159.888V230.328H165.067ZM161.641 228H163.279V237.534C163.279 237.858 163.329 238.103 163.429 238.269C163.53 238.434 163.66 238.543 163.819 238.596C163.978 238.649 164.149 238.676 164.332 238.676C164.468 238.676 164.61 238.664 164.757 238.64C164.911 238.611 165.026 238.587 165.103 238.57L165.111 239.906C164.982 239.948 164.81 239.986 164.598 240.021C164.391 240.063 164.141 240.083 163.846 240.083C163.444 240.083 163.075 240.004 162.739 239.844C162.403 239.685 162.134 239.419 161.933 239.048C161.739 238.67 161.641 238.162 161.641 237.525V228ZM177.133 238.269V233.338C177.133 232.96 177.056 232.632 176.903 232.355C176.756 232.072 176.531 231.853 176.23 231.7C175.929 231.547 175.557 231.47 175.115 231.47C174.702 231.47 174.339 231.541 174.026 231.682C173.719 231.824 173.477 232.01 173.3 232.24C173.129 232.47 173.043 232.718 173.043 232.984H171.406C171.406 232.641 171.494 232.302 171.671 231.966C171.848 231.629 172.102 231.325 172.433 231.054C172.769 230.776 173.17 230.558 173.636 230.399C174.109 230.233 174.634 230.151 175.212 230.151C175.909 230.151 176.522 230.269 177.054 230.505C177.591 230.741 178.01 231.098 178.311 231.576C178.617 232.048 178.771 232.641 178.771 233.355V237.817C178.771 238.136 178.797 238.475 178.851 238.835C178.91 239.195 178.995 239.505 179.107 239.765V239.906H177.399C177.316 239.717 177.251 239.467 177.204 239.154C177.157 238.835 177.133 238.54 177.133 238.269ZM177.417 234.099L177.434 235.25H175.779C175.313 235.25 174.896 235.288 174.531 235.365C174.165 235.436 173.858 235.545 173.61 235.692C173.362 235.84 173.173 236.026 173.043 236.25C172.914 236.469 172.849 236.725 172.849 237.02C172.849 237.321 172.916 237.596 173.052 237.844C173.188 238.091 173.392 238.289 173.663 238.437C173.94 238.578 174.28 238.649 174.681 238.649C175.183 238.649 175.625 238.543 176.009 238.33C176.393 238.118 176.696 237.858 176.921 237.551C177.151 237.245 177.275 236.947 177.293 236.657L177.992 237.445C177.951 237.693 177.838 237.968 177.656 238.269C177.473 238.57 177.228 238.859 176.921 239.136C176.62 239.408 176.26 239.635 175.841 239.818C175.428 239.995 174.961 240.083 174.442 240.083C173.793 240.083 173.223 239.956 172.734 239.703C172.25 239.449 171.872 239.11 171.6 238.685C171.335 238.254 171.202 237.773 171.202 237.242C171.202 236.728 171.302 236.277 171.503 235.887C171.704 235.492 171.993 235.164 172.371 234.905C172.748 234.639 173.203 234.438 173.734 234.303C174.265 234.167 174.858 234.099 175.513 234.099H177.417ZM182.985 232.373V239.906H181.347V230.328H182.896L182.985 232.373ZM182.595 234.754L181.914 234.728C181.919 234.072 182.017 233.468 182.206 232.913C182.395 232.352 182.66 231.865 183.002 231.452C183.345 231.039 183.752 230.72 184.224 230.496C184.702 230.266 185.23 230.151 185.809 230.151C186.281 230.151 186.706 230.216 187.083 230.346C187.461 230.469 187.783 230.67 188.048 230.947C188.32 231.225 188.526 231.585 188.668 232.027C188.81 232.464 188.881 232.998 188.881 233.63V239.906H187.234V233.612C187.234 233.11 187.16 232.709 187.013 232.408C186.865 232.101 186.65 231.88 186.366 231.744C186.083 231.603 185.735 231.532 185.322 231.532C184.915 231.532 184.543 231.617 184.206 231.788C183.876 231.96 183.59 232.196 183.348 232.497C183.112 232.798 182.926 233.143 182.79 233.532C182.66 233.916 182.595 234.323 182.595 234.754ZM197.406 238.047V226.309H199.052V239.906H197.547L197.406 238.047ZM190.961 235.223V235.037C190.961 234.306 191.049 233.642 191.226 233.046C191.409 232.444 191.666 231.927 191.997 231.496C192.333 231.066 192.731 230.735 193.192 230.505C193.658 230.269 194.177 230.151 194.75 230.151C195.352 230.151 195.877 230.257 196.326 230.469C196.78 230.676 197.164 230.98 197.476 231.381C197.795 231.777 198.046 232.255 198.229 232.815C198.412 233.376 198.539 234.01 198.609 234.719V235.533C198.545 236.235 198.418 236.867 198.229 237.428C198.046 237.988 197.795 238.466 197.476 238.862C197.164 239.257 196.78 239.561 196.326 239.773C195.871 239.98 195.34 240.083 194.732 240.083C194.171 240.083 193.658 239.962 193.192 239.72C192.731 239.478 192.333 239.139 191.997 238.702C191.666 238.266 191.409 237.752 191.226 237.162C191.049 236.566 190.961 235.92 190.961 235.223ZM192.607 235.037V235.223C192.607 235.701 192.655 236.15 192.749 236.569C192.849 236.988 193.003 237.357 193.209 237.675C193.416 237.994 193.679 238.245 193.997 238.428C194.316 238.605 194.697 238.693 195.139 238.693C195.682 238.693 196.128 238.578 196.476 238.348C196.83 238.118 197.113 237.814 197.326 237.436C197.538 237.059 197.704 236.649 197.822 236.206V234.072C197.751 233.748 197.647 233.435 197.512 233.134C197.382 232.827 197.211 232.556 196.998 232.32C196.792 232.078 196.535 231.886 196.228 231.744C195.927 231.603 195.57 231.532 195.157 231.532C194.708 231.532 194.322 231.626 193.997 231.815C193.679 231.998 193.416 232.252 193.209 232.576C193.003 232.895 192.849 233.267 192.749 233.692C192.655 234.111 192.607 234.559 192.607 235.037ZM61.4482 249.309H63.0948V261.047L62.9531 262.906H61.4482V249.309ZM69.566 258.037V258.223C69.566 258.92 69.4834 259.566 69.3181 260.162C69.1529 260.752 68.9109 261.266 68.5922 261.702C68.2735 262.139 67.884 262.478 67.4237 262.72C66.9634 262.962 66.4351 263.083 65.8391 263.083C65.2312 263.083 64.6971 262.98 64.2368 262.773C63.7823 262.561 63.3987 262.257 63.0859 261.862C62.7731 261.466 62.5223 260.988 62.3335 260.428C62.1505 259.867 62.0236 259.235 61.9528 258.533V257.719C62.0236 257.01 62.1505 256.376 62.3335 255.815C62.5223 255.255 62.7731 254.777 63.0859 254.381C63.3987 253.98 63.7823 253.676 64.2368 253.469C64.6912 253.257 65.2194 253.151 65.8214 253.151C66.4233 253.151 66.9574 253.269 67.4237 253.505C67.8899 253.735 68.2794 254.066 68.5922 254.496C68.9109 254.927 69.1529 255.444 69.3181 256.046C69.4834 256.642 69.566 257.306 69.566 258.037ZM67.9194 258.223V258.037C67.9194 257.559 67.8752 257.111 67.7866 256.692C67.6981 256.267 67.5565 255.895 67.3617 255.576C67.167 255.252 66.9102 254.998 66.5915 254.815C66.2729 254.626 65.8804 254.532 65.4142 254.532C65.001 254.532 64.641 254.603 64.3341 254.744C64.0332 254.886 63.7764 255.078 63.564 255.32C63.3515 255.556 63.1774 255.827 63.0417 256.134C62.9118 256.435 62.8145 256.748 62.7495 257.072V259.206C62.844 259.619 62.9974 260.017 63.2099 260.401C63.4282 260.779 63.7174 261.089 64.0774 261.33C64.4433 261.572 64.8948 261.693 65.4319 261.693C65.8745 261.693 66.2522 261.605 66.565 261.428C66.8837 261.245 67.1404 260.994 67.3352 260.675C67.5358 260.357 67.6834 259.988 67.7778 259.569C67.8722 259.15 67.9194 258.701 67.9194 258.223ZM73.4169 253.328V262.906H71.7703V253.328H73.4169ZM71.6463 250.787C71.6463 250.522 71.726 250.297 71.8854 250.114C72.0506 249.931 72.2926 249.84 72.6113 249.84C72.9241 249.84 73.1631 249.931 73.3283 250.114C73.4995 250.297 73.585 250.522 73.585 250.787C73.585 251.041 73.4995 251.259 73.3283 251.442C73.1631 251.619 72.9241 251.708 72.6113 251.708C72.2926 251.708 72.0506 251.619 71.8854 251.442C71.726 251.259 71.6463 251.041 71.6463 250.787ZM80.0563 253.328V254.585H74.8775V253.328H80.0563ZM76.6303 251H78.268V260.534C78.268 260.858 78.3182 261.103 78.4185 261.269C78.5189 261.434 78.6487 261.543 78.8081 261.596C78.9674 261.649 79.1385 261.676 79.3215 261.676C79.4572 261.676 79.5989 261.664 79.7464 261.64C79.8999 261.611 80.0149 261.587 80.0917 261.57L80.1005 262.906C79.9707 262.948 79.7995 262.986 79.5871 263.021C79.3805 263.063 79.1297 263.083 78.8346 263.083C78.4333 263.083 78.0644 263.004 77.728 262.844C77.3916 262.685 77.1231 262.419 76.9225 262.048C76.7277 261.67 76.6303 261.162 76.6303 260.525V251ZM85.8104 261.738C86.1999 261.738 86.5599 261.658 86.8904 261.499C87.2209 261.339 87.4924 261.121 87.7049 260.844C87.9173 260.56 88.0383 260.239 88.0678 259.879H89.6259C89.5963 260.445 89.4045 260.973 89.0504 261.463C88.7022 261.947 88.2449 262.34 87.6783 262.641C87.1117 262.936 86.4891 263.083 85.8104 263.083C85.0904 263.083 84.4619 262.956 83.9248 262.703C83.3937 262.449 82.951 262.101 82.5969 261.658C82.2487 261.215 81.9861 260.708 81.8091 260.135C81.6379 259.557 81.5523 258.946 81.5523 258.303V257.931C81.5523 257.288 81.6379 256.68 81.8091 256.107C81.9861 255.529 82.2487 255.019 82.5969 254.576C82.951 254.133 83.3937 253.785 83.9248 253.531C84.4619 253.278 85.0904 253.151 85.8104 253.151C86.5599 253.151 87.215 253.304 87.7757 253.611C88.3363 253.912 88.776 254.325 89.0947 254.85C89.4193 255.37 89.5963 255.96 89.6259 256.621H88.0678C88.0383 256.226 87.9262 255.868 87.7314 255.55C87.5426 255.231 87.2829 254.977 86.9524 254.788C86.6278 254.594 86.2471 254.496 85.8104 254.496C85.3088 254.496 84.8868 254.597 84.5445 254.797C84.2081 254.992 83.9396 255.258 83.7389 255.594C83.5442 255.925 83.4025 256.293 83.314 256.701C83.2314 257.102 83.1901 257.512 83.1901 257.931V258.303C83.1901 258.722 83.2314 259.135 83.314 259.542C83.3966 259.95 83.5353 260.318 83.7301 260.649C83.9307 260.979 84.1992 261.245 84.5356 261.446C84.8779 261.64 85.3029 261.738 85.8104 261.738ZM91.0334 258.223V258.02C91.0334 257.329 91.1337 256.689 91.3344 256.099C91.535 255.503 91.8242 254.986 92.2019 254.549C92.5796 254.107 93.037 253.765 93.5741 253.523C94.1111 253.275 94.7131 253.151 95.38 253.151C96.0528 253.151 96.6577 253.275 97.1948 253.523C97.7377 253.765 98.1981 254.107 98.5758 254.549C98.9594 254.986 99.2515 255.503 99.4522 256.099C99.6528 256.689 99.7532 257.329 99.7532 258.02V258.223C99.7532 258.914 99.6528 259.554 99.4522 260.144C99.2515 260.734 98.9594 261.251 98.5758 261.693C98.1981 262.13 97.7407 262.472 97.2036 262.72C96.6725 262.962 96.0705 263.083 95.3977 263.083C94.7249 263.083 94.12 262.962 93.5829 262.72C93.0459 262.472 92.5856 262.13 92.2019 261.693C91.8242 261.251 91.535 260.734 91.3344 260.144C91.1337 259.554 91.0334 258.914 91.0334 258.223ZM92.6711 258.02V258.223C92.6711 258.701 92.7272 259.153 92.8393 259.578C92.9515 259.997 93.1197 260.369 93.3439 260.693C93.5741 261.018 93.8603 261.274 94.2026 261.463C94.5449 261.646 94.9433 261.738 95.3977 261.738C95.8462 261.738 96.2387 261.646 96.5751 261.463C96.9174 261.274 97.2007 261.018 97.4249 260.693C97.6492 260.369 97.8174 259.997 97.9295 259.578C98.0476 259.153 98.1066 258.701 98.1066 258.223V258.02C98.1066 257.548 98.0476 257.102 97.9295 256.683C97.8174 256.258 97.6463 255.883 97.4161 255.559C97.1918 255.228 96.9085 254.968 96.5662 254.78C96.2298 254.591 95.8344 254.496 95.38 254.496C94.9315 254.496 94.5361 254.591 94.1938 254.78C93.8574 254.968 93.5741 255.228 93.3439 255.559C93.1197 255.883 92.9515 256.258 92.8393 256.683C92.7272 257.102 92.6711 257.548 92.6711 258.02ZM103.586 253.328V262.906H101.94V253.328H103.586ZM101.816 250.787C101.816 250.522 101.895 250.297 102.055 250.114C102.22 249.931 102.462 249.84 102.781 249.84C103.094 249.84 103.333 249.931 103.498 250.114C103.669 250.297 103.755 250.522 103.755 250.787C103.755 251.041 103.669 251.259 103.498 251.442C103.333 251.619 103.094 251.708 102.781 251.708C102.462 251.708 102.22 251.619 102.055 251.442C101.895 251.259 101.816 251.041 101.816 250.787ZM107.853 255.373V262.906H106.216V253.328H107.765L107.853 255.373ZM107.464 257.754L106.782 257.728C106.788 257.072 106.885 256.468 107.074 255.913C107.263 255.352 107.529 254.865 107.871 254.452C108.213 254.039 108.62 253.72 109.093 253.496C109.571 253.266 110.099 253.151 110.677 253.151C111.149 253.151 111.574 253.216 111.952 253.346C112.33 253.469 112.651 253.67 112.917 253.947C113.188 254.225 113.395 254.585 113.537 255.027C113.678 255.464 113.749 255.998 113.749 256.63V262.906H112.102V256.612C112.102 256.11 112.029 255.709 111.881 255.408C111.734 255.101 111.518 254.88 111.235 254.744C110.952 254.603 110.603 254.532 110.19 254.532C109.783 254.532 109.411 254.617 109.075 254.788C108.744 254.96 108.458 255.196 108.216 255.497C107.98 255.798 107.794 256.143 107.658 256.532C107.529 256.916 107.464 257.323 107.464 257.754ZM126.311 260.366C126.311 260.13 126.258 259.911 126.151 259.71C126.051 259.504 125.842 259.318 125.523 259.153C125.21 258.982 124.738 258.834 124.106 258.71C123.575 258.598 123.094 258.465 122.664 258.312C122.239 258.158 121.876 257.972 121.575 257.754C121.28 257.536 121.052 257.279 120.893 256.984C120.734 256.689 120.654 256.344 120.654 255.948C120.654 255.57 120.737 255.213 120.902 254.877C121.073 254.541 121.312 254.243 121.619 253.983C121.932 253.723 122.306 253.52 122.743 253.372C123.18 253.225 123.667 253.151 124.204 253.151C124.971 253.151 125.626 253.286 126.169 253.558C126.712 253.829 127.128 254.192 127.417 254.647C127.707 255.095 127.851 255.594 127.851 256.143H126.213C126.213 255.877 126.134 255.621 125.974 255.373C125.821 255.119 125.594 254.909 125.293 254.744C124.998 254.579 124.635 254.496 124.204 254.496C123.749 254.496 123.381 254.567 123.097 254.709C122.82 254.845 122.616 255.019 122.486 255.231C122.363 255.444 122.301 255.668 122.301 255.904C122.301 256.081 122.33 256.24 122.389 256.382C122.454 256.518 122.566 256.645 122.726 256.763C122.885 256.875 123.109 256.981 123.398 257.081C123.687 257.182 124.056 257.282 124.505 257.382C125.29 257.559 125.936 257.772 126.444 258.02C126.951 258.268 127.329 258.571 127.577 258.931C127.825 259.291 127.949 259.728 127.949 260.242C127.949 260.661 127.86 261.044 127.683 261.392C127.512 261.741 127.261 262.042 126.93 262.295C126.606 262.543 126.216 262.738 125.762 262.88C125.313 263.015 124.809 263.083 124.248 263.083C123.404 263.083 122.69 262.933 122.106 262.632C121.522 262.331 121.079 261.941 120.778 261.463C120.477 260.985 120.326 260.481 120.326 259.95H121.973C121.997 260.398 122.126 260.755 122.363 261.021C122.599 261.28 122.888 261.466 123.23 261.578C123.572 261.685 123.912 261.738 124.248 261.738C124.697 261.738 125.071 261.679 125.372 261.561C125.679 261.443 125.912 261.28 126.072 261.074C126.231 260.867 126.311 260.631 126.311 260.366ZM134.074 263.083C133.408 263.083 132.803 262.971 132.26 262.747C131.723 262.517 131.259 262.195 130.87 261.782C130.486 261.369 130.191 260.879 129.985 260.312C129.778 259.746 129.675 259.126 129.675 258.453V258.082C129.675 257.303 129.79 256.609 130.02 256.001C130.25 255.387 130.563 254.868 130.958 254.443C131.354 254.018 131.802 253.697 132.304 253.478C132.806 253.26 133.325 253.151 133.862 253.151C134.547 253.151 135.137 253.269 135.633 253.505C136.134 253.741 136.544 254.071 136.863 254.496C137.182 254.915 137.418 255.411 137.571 255.984C137.725 256.55 137.801 257.17 137.801 257.843V258.577H130.649V257.241H136.164V257.117C136.14 256.692 136.052 256.279 135.898 255.877C135.751 255.476 135.514 255.146 135.19 254.886C134.865 254.626 134.423 254.496 133.862 254.496C133.49 254.496 133.148 254.576 132.835 254.735C132.522 254.889 132.254 255.119 132.03 255.426C131.805 255.733 131.631 256.107 131.507 256.55C131.383 256.993 131.321 257.503 131.321 258.082V258.453C131.321 258.908 131.383 259.336 131.507 259.737C131.637 260.132 131.823 260.481 132.065 260.782C132.313 261.083 132.611 261.319 132.959 261.49C133.313 261.661 133.714 261.747 134.163 261.747C134.741 261.747 135.231 261.629 135.633 261.392C136.034 261.156 136.385 260.841 136.686 260.445L137.677 261.233C137.471 261.546 137.208 261.844 136.89 262.127C136.571 262.411 136.178 262.641 135.712 262.818C135.252 262.995 134.706 263.083 134.074 263.083ZM143.547 261.738C143.936 261.738 144.296 261.658 144.627 261.499C144.957 261.339 145.229 261.121 145.441 260.844C145.654 260.56 145.775 260.239 145.804 259.879H147.362C147.333 260.445 147.141 260.973 146.787 261.463C146.439 261.947 145.981 262.34 145.415 262.641C144.848 262.936 144.225 263.083 143.547 263.083C142.827 263.083 142.198 262.956 141.661 262.703C141.13 262.449 140.687 262.101 140.333 261.658C139.985 261.215 139.722 260.708 139.545 260.135C139.374 259.557 139.289 258.946 139.289 258.303V257.931C139.289 257.288 139.374 256.68 139.545 256.107C139.722 255.529 139.985 255.019 140.333 254.576C140.687 254.133 141.13 253.785 141.661 253.531C142.198 253.278 142.827 253.151 143.547 253.151C144.296 253.151 144.951 253.304 145.512 253.611C146.073 253.912 146.512 254.325 146.831 254.85C147.156 255.37 147.333 255.96 147.362 256.621H145.804C145.775 256.226 145.662 255.868 145.468 255.55C145.279 255.231 145.019 254.977 144.689 254.788C144.364 254.594 143.983 254.496 143.547 254.496C143.045 254.496 142.623 254.597 142.281 254.797C141.944 254.992 141.676 255.258 141.475 255.594C141.28 255.925 141.139 256.293 141.05 256.701C140.968 257.102 140.926 257.512 140.926 257.931V258.303C140.926 258.722 140.968 259.135 141.05 259.542C141.133 259.95 141.272 260.318 141.466 260.649C141.667 260.979 141.936 261.245 142.272 261.446C142.614 261.64 143.039 261.738 143.547 261.738ZM155.064 260.693V253.328H156.71V262.906H155.143L155.064 260.693ZM155.374 258.675L156.055 258.657C156.055 259.294 155.987 259.885 155.852 260.428C155.722 260.965 155.509 261.431 155.214 261.826C154.919 262.222 154.533 262.531 154.055 262.756C153.577 262.974 152.995 263.083 152.311 263.083C151.844 263.083 151.417 263.015 151.027 262.88C150.643 262.744 150.313 262.534 150.036 262.251C149.758 261.968 149.543 261.599 149.389 261.145C149.242 260.69 149.168 260.144 149.168 259.507V253.328H150.806V259.525C150.806 259.955 150.853 260.312 150.947 260.596C151.048 260.873 151.181 261.094 151.346 261.26C151.517 261.419 151.706 261.531 151.912 261.596C152.125 261.661 152.343 261.693 152.567 261.693C153.264 261.693 153.816 261.561 154.223 261.295C154.63 261.024 154.922 260.661 155.099 260.206C155.282 259.746 155.374 259.235 155.374 258.675ZM160.845 254.833V262.906H159.207V253.328H160.8L160.845 254.833ZM163.837 253.275L163.828 254.797C163.692 254.768 163.562 254.75 163.438 254.744C163.32 254.732 163.185 254.727 163.031 254.727C162.653 254.727 162.32 254.786 162.031 254.904C161.742 255.022 161.497 255.187 161.296 255.399C161.095 255.612 160.936 255.866 160.818 256.161C160.706 256.45 160.632 256.768 160.597 257.117L160.136 257.382C160.136 256.804 160.192 256.261 160.305 255.753C160.423 255.246 160.603 254.797 160.845 254.408C161.087 254.012 161.393 253.706 161.765 253.487C162.143 253.263 162.591 253.151 163.111 253.151C163.229 253.151 163.365 253.166 163.518 253.195C163.671 253.219 163.778 253.245 163.837 253.275ZM169.148 263.083C168.481 263.083 167.876 262.971 167.333 262.747C166.796 262.517 166.333 262.195 165.944 261.782C165.56 261.369 165.265 260.879 165.058 260.312C164.852 259.746 164.749 259.126 164.749 258.453V258.082C164.749 257.303 164.864 256.609 165.094 256.001C165.324 255.387 165.637 254.868 166.032 254.443C166.428 254.018 166.876 253.697 167.378 253.478C167.879 253.26 168.399 253.151 168.936 253.151C169.62 253.151 170.211 253.269 170.706 253.505C171.208 253.741 171.618 254.071 171.937 254.496C172.255 254.915 172.492 255.411 172.645 255.984C172.798 256.55 172.875 257.17 172.875 257.843V258.577H165.722V257.241H171.237V257.117C171.214 256.692 171.125 256.279 170.972 255.877C170.824 255.476 170.588 255.146 170.264 254.886C169.939 254.626 169.496 254.496 168.936 254.496C168.564 254.496 168.222 254.576 167.909 254.735C167.596 254.889 167.328 255.119 167.103 255.426C166.879 255.733 166.705 256.107 166.581 256.55C166.457 256.993 166.395 257.503 166.395 258.082V258.453C166.395 258.908 166.457 259.336 166.581 259.737C166.711 260.132 166.897 260.481 167.139 260.782C167.387 261.083 167.685 261.319 168.033 261.49C168.387 261.661 168.788 261.747 169.237 261.747C169.815 261.747 170.305 261.629 170.706 261.392C171.108 261.156 171.459 260.841 171.76 260.445L172.751 261.233C172.545 261.546 172.282 261.844 171.963 262.127C171.645 262.411 171.252 262.641 170.786 262.818C170.326 262.995 169.78 263.083 169.148 263.083Z" fill="black"/>
<path d="M49.4328 285.589V286.383H45.5326V285.589H49.4328ZM45.7299 279.017V286.383H44.7536V279.017H45.7299ZM48.9168 282.184V282.978H45.5326V282.184H48.9168ZM49.3822 279.017V279.817H45.5326V279.017H49.3822ZM51.7597 282.078V286.383H50.8239V280.909H51.7092L51.7597 282.078ZM51.5372 283.439L51.1477 283.424C51.151 283.049 51.2067 282.704 51.3146 282.387C51.4225 282.066 51.5743 281.788 51.7699 281.552C51.9655 281.316 52.1982 281.134 52.4679 281.006C52.7411 280.874 53.0429 280.808 53.3734 280.808C53.6432 280.808 53.886 280.845 54.1019 280.92C54.3177 280.99 54.5015 281.105 54.6533 281.264C54.8084 281.422 54.9264 281.628 55.0074 281.881C55.0883 282.13 55.1288 282.435 55.1288 282.796V286.383H54.1879V282.786C54.1879 282.499 54.1457 282.27 54.0614 282.098C53.9771 281.923 53.854 281.796 53.6921 281.719C53.5303 281.638 53.3313 281.597 53.0952 281.597C52.8625 281.597 52.6501 281.646 52.4578 281.744C52.269 281.842 52.1054 281.977 51.9671 282.149C51.8322 282.321 51.726 282.518 51.6485 282.741C51.5743 282.96 51.5372 283.193 51.5372 283.439ZM60.1014 285.447V282.629C60.1014 282.414 60.0575 282.226 59.9698 282.068C59.8855 281.906 59.7574 281.781 59.5854 281.693C59.4134 281.606 59.2009 281.562 58.948 281.562C58.7119 281.562 58.5045 281.602 58.3258 281.683C58.1504 281.764 58.0122 281.871 57.911 282.002C57.8132 282.134 57.7643 282.275 57.7643 282.427H56.8285C56.8285 282.231 56.879 282.037 56.9802 281.845C57.0814 281.653 57.2264 281.479 57.4153 281.324C57.6075 281.166 57.8368 281.041 58.1032 280.95C58.373 280.855 58.6732 280.808 59.0037 280.808C59.4016 280.808 59.7523 280.876 60.0558 281.011C60.3627 281.145 60.6022 281.35 60.7742 281.623C60.9495 281.892 61.0372 282.231 61.0372 282.639V285.189C61.0372 285.371 61.0524 285.565 61.0827 285.771C61.1165 285.976 61.1654 286.153 61.2294 286.302V286.383H60.2531C60.2059 286.275 60.1688 286.132 60.1418 285.953C60.1149 285.771 60.1014 285.602 60.1014 285.447ZM60.2632 283.064L60.2734 283.722H59.3274C59.061 283.722 58.8232 283.744 58.6141 283.788C58.4051 283.828 58.2297 283.891 58.088 283.975C57.9464 284.059 57.8385 284.165 57.7643 284.294C57.6901 284.418 57.653 284.565 57.653 284.734C57.653 284.906 57.6918 285.063 57.7694 285.204C57.8469 285.346 57.9633 285.459 58.1184 285.543C58.2769 285.624 58.4708 285.664 58.7001 285.664C58.9868 285.664 59.2397 285.604 59.4589 285.482C59.6781 285.361 59.8518 285.213 59.98 285.037C60.1115 284.862 60.1823 284.692 60.1924 284.526L60.592 284.977C60.5684 285.118 60.5044 285.275 60.3998 285.447C60.2953 285.619 60.1553 285.784 59.98 285.943C59.808 286.098 59.6023 286.228 59.3628 286.332C59.1267 286.433 58.8603 286.484 58.5636 286.484C58.1926 286.484 57.8672 286.411 57.5872 286.266C57.3107 286.121 57.0949 285.928 56.9397 285.685C56.788 285.439 56.7121 285.164 56.7121 284.86C56.7121 284.567 56.7694 284.309 56.8841 284.086C56.9988 283.86 57.164 283.673 57.3798 283.525C57.5957 283.373 57.8553 283.258 58.1589 283.181C58.4624 283.103 58.8013 283.064 59.1756 283.064H60.2632ZM62.8279 278.613H63.7688V285.321L63.6879 286.383H62.8279V278.613ZM67.4667 283.601V283.707C67.4667 284.105 67.4195 284.474 67.325 284.815C67.2306 285.152 67.0923 285.445 66.9102 285.695C66.7281 285.944 66.5055 286.138 66.2425 286.277C65.9795 286.415 65.6776 286.484 65.337 286.484C64.9897 286.484 64.6845 286.425 64.4214 286.307C64.1617 286.186 63.9425 286.012 63.7638 285.786C63.585 285.56 63.4417 285.287 63.3338 284.966C63.2293 284.646 63.1568 284.285 63.1163 283.884V283.418C63.1568 283.014 63.2293 282.651 63.3338 282.331C63.4417 282.011 63.585 281.737 63.7638 281.511C63.9425 281.282 64.1617 281.108 64.4214 280.99C64.6811 280.869 64.9829 280.808 65.3269 280.808C65.6709 280.808 65.9761 280.876 66.2425 281.011C66.5089 281.142 66.7315 281.331 66.9102 281.577C67.0923 281.823 67.2306 282.118 67.325 282.462C67.4195 282.803 67.4667 283.182 67.4667 283.601ZM66.5258 283.707V283.601C66.5258 283.327 66.5005 283.071 66.4499 282.832C66.3993 282.589 66.3184 282.376 66.2071 282.194C66.0958 282.009 65.9491 281.864 65.767 281.759C65.5849 281.651 65.3606 281.597 65.0942 281.597C64.8581 281.597 64.6524 281.638 64.477 281.719C64.3051 281.8 64.1584 281.909 64.037 282.048C63.9155 282.182 63.8161 282.338 63.7385 282.513C63.6643 282.685 63.6087 282.864 63.5716 283.049V284.268C63.6255 284.504 63.7132 284.732 63.8346 284.951C63.9594 285.167 64.1246 285.344 64.3303 285.482C64.5394 285.621 64.7974 285.69 65.1043 285.69C65.3572 285.69 65.5731 285.639 65.7518 285.538C65.9339 285.433 66.0806 285.29 66.1919 285.108C66.3066 284.926 66.3909 284.715 66.4448 284.476C66.4988 284.236 66.5258 283.98 66.5258 283.707ZM69.9909 278.613V286.383H69.05V278.613H69.9909ZM74.0884 286.484C73.7073 286.484 73.3616 286.42 73.0514 286.292C72.7445 286.16 72.4797 285.976 72.2572 285.74C72.038 285.504 71.8693 285.224 71.7513 284.901C71.6333 284.577 71.5743 284.223 71.5743 283.838V283.626C71.5743 283.181 71.64 282.784 71.7715 282.437C71.9031 282.086 72.0818 281.79 72.3078 281.547C72.5337 281.304 72.79 281.12 73.0767 280.995C73.3633 280.871 73.6601 280.808 73.967 280.808C74.3582 280.808 74.6954 280.876 74.9787 281.011C75.2653 281.145 75.4997 281.334 75.6818 281.577C75.8639 281.817 75.9988 282.1 76.0865 282.427C76.1742 282.751 76.218 283.105 76.218 283.489V283.909H72.1307V283.145H75.2822V283.074C75.2687 282.832 75.2181 282.596 75.1305 282.366C75.0461 282.137 74.9112 281.948 74.7258 281.8C74.5403 281.651 74.2874 281.577 73.967 281.577C73.7545 281.577 73.5589 281.623 73.3802 281.714C73.2014 281.801 73.048 281.933 72.9198 282.108C72.7917 282.284 72.6922 282.498 72.6214 282.751C72.5506 283.004 72.5152 283.295 72.5152 283.626V283.838C72.5152 284.098 72.5506 284.343 72.6214 284.572C72.6956 284.798 72.8018 284.997 72.9401 285.169C73.0817 285.341 73.252 285.476 73.451 285.573C73.6533 285.671 73.8827 285.72 74.139 285.72C74.4695 285.72 74.7494 285.653 74.9787 285.518C75.208 285.383 75.4087 285.202 75.5807 284.977L76.1472 285.427C76.0292 285.605 75.8791 285.776 75.697 285.938C75.5149 286.1 75.2906 286.231 75.0242 286.332C74.7612 286.433 74.4492 286.484 74.0884 286.484ZM81.9241 286.383H80.9883V280.333C80.9883 279.938 81.0591 279.606 81.2008 279.336C81.3458 279.063 81.5532 278.857 81.823 278.719C82.0928 278.577 82.4131 278.507 82.7841 278.507C82.892 278.507 82.9999 278.513 83.1079 278.527C83.2191 278.54 83.3271 278.561 83.4316 278.588L83.381 279.351C83.3102 279.335 83.2293 279.323 83.1382 279.316C83.0505 279.309 82.9628 279.306 82.8752 279.306C82.6762 279.306 82.5042 279.346 82.3592 279.427C82.2175 279.505 82.1096 279.619 82.0354 279.771C81.9612 279.923 81.9241 280.11 81.9241 280.333V286.383ZM83.0876 280.909V281.628H80.1233V280.909H83.0876ZM87.6808 285.447V282.629C87.6808 282.414 87.637 282.226 87.5493 282.068C87.465 281.906 87.3368 281.781 87.1648 281.693C86.9928 281.606 86.7804 281.562 86.5275 281.562C86.2914 281.562 86.084 281.602 85.9053 281.683C85.7299 281.764 85.5916 281.871 85.4904 282.002C85.3926 282.134 85.3437 282.275 85.3437 282.427H84.4079C84.4079 282.231 84.4585 282.037 84.5597 281.845C84.6608 281.653 84.8059 281.479 84.9947 281.324C85.1869 281.166 85.4163 281.041 85.6827 280.95C85.9525 280.855 86.2526 280.808 86.5831 280.808C86.981 280.808 87.3318 280.876 87.6353 281.011C87.9422 281.145 88.1816 281.35 88.3536 281.623C88.529 281.892 88.6167 282.231 88.6167 282.639V285.189C88.6167 285.371 88.6318 285.565 88.6622 285.771C88.6959 285.976 88.7448 286.153 88.8089 286.302V286.383H87.8326C87.7854 286.275 87.7483 286.132 87.7213 285.953C87.6943 285.771 87.6808 285.602 87.6808 285.447ZM87.8427 283.064L87.8528 283.722H86.9069C86.6404 283.722 86.4027 283.744 86.1936 283.788C85.9845 283.828 85.8091 283.891 85.6675 283.975C85.5259 284.059 85.4179 284.165 85.3437 284.294C85.2696 284.418 85.2325 284.565 85.2325 284.734C85.2325 284.906 85.2712 285.063 85.3488 285.204C85.4264 285.346 85.5427 285.459 85.6978 285.543C85.8564 285.624 86.0503 285.664 86.2796 285.664C86.5662 285.664 86.8192 285.604 87.0384 285.482C87.2576 285.361 87.4313 285.213 87.5594 285.037C87.6909 284.862 87.7618 284.692 87.7719 284.526L88.1715 284.977C88.1479 285.118 88.0838 285.275 87.9793 285.447C87.8747 285.619 87.7348 285.784 87.5594 285.943C87.3874 286.098 87.1817 286.228 86.9423 286.332C86.7062 286.433 86.4398 286.484 86.143 286.484C85.772 286.484 85.4466 286.411 85.1667 286.266C84.8902 286.121 84.6743 285.928 84.5192 285.685C84.3674 285.439 84.2916 285.164 84.2916 284.86C84.2916 284.567 84.3489 284.309 84.4636 284.086C84.5782 283.86 84.7435 283.673 84.9593 283.525C85.1751 283.373 85.4348 283.258 85.7383 283.181C86.0418 283.103 86.3808 283.064 86.7551 283.064H87.8427ZM92.6028 285.715C92.8254 285.715 93.0311 285.67 93.22 285.578C93.4088 285.487 93.564 285.363 93.6854 285.204C93.8068 285.042 93.8759 284.858 93.8928 284.653H94.7831C94.7662 284.977 94.6566 285.278 94.4543 285.558C94.2553 285.835 93.9939 286.059 93.6702 286.231C93.3464 286.4 92.9907 286.484 92.6028 286.484C92.1914 286.484 91.8322 286.411 91.5254 286.266C91.2218 286.121 90.9689 285.922 90.7666 285.67C90.5676 285.417 90.4175 285.127 90.3164 284.799C90.2186 284.469 90.1697 284.12 90.1697 283.752V283.54C90.1697 283.172 90.2186 282.825 90.3164 282.498C90.4175 282.167 90.5676 281.876 90.7666 281.623C90.9689 281.37 91.2218 281.171 91.5254 281.026C91.8322 280.881 92.1914 280.808 92.6028 280.808C93.0311 280.808 93.4055 280.896 93.7258 281.071C94.0462 281.243 94.2975 281.479 94.4796 281.779C94.6651 282.076 94.7662 282.414 94.7831 282.791H93.8928C93.8759 282.565 93.8118 282.361 93.7006 282.179C93.5926 281.997 93.4442 281.852 93.2554 281.744C93.0699 281.633 92.8524 281.577 92.6028 281.577C92.3162 281.577 92.0751 281.634 91.8795 281.749C91.6872 281.86 91.5338 282.012 91.4191 282.204C91.3078 282.393 91.2269 282.604 91.1763 282.837C91.1291 283.066 91.1055 283.3 91.1055 283.54V283.752C91.1055 283.992 91.1291 284.228 91.1763 284.461C91.2235 284.693 91.3028 284.904 91.4141 285.093C91.5287 285.282 91.6822 285.433 91.8744 285.548C92.07 285.659 92.3128 285.715 92.6028 285.715ZM98.4303 286.484C98.0493 286.484 97.7036 286.42 97.3933 286.292C97.0864 286.16 96.8217 285.976 96.5991 285.74C96.3799 285.504 96.2113 285.224 96.0933 284.901C95.9752 284.577 95.9162 284.223 95.9162 283.838V283.626C95.9162 283.181 95.982 282.784 96.1135 282.437C96.245 282.086 96.4238 281.79 96.6497 281.547C96.8757 281.304 97.132 281.12 97.4186 280.995C97.7053 280.871 98.002 280.808 98.3089 280.808C98.7001 280.808 99.0374 280.876 99.3206 281.011C99.6073 281.145 99.8417 281.334 100.024 281.577C100.206 281.817 100.341 282.1 100.428 282.427C100.516 282.751 100.56 283.105 100.56 283.489V283.909H96.4727V283.145H99.6242V283.074C99.6107 282.832 99.5601 282.596 99.4724 282.366C99.3881 282.137 99.2532 281.948 99.0677 281.8C98.8822 281.651 98.6293 281.577 98.3089 281.577C98.0965 281.577 97.9009 281.623 97.7221 281.714C97.5434 281.801 97.3899 281.933 97.2618 282.108C97.1336 282.284 97.0342 282.498 96.9633 282.751C96.8925 283.004 96.8571 283.295 96.8571 283.626V283.838C96.8571 284.098 96.8925 284.343 96.9633 284.572C97.0375 284.798 97.1438 284.997 97.282 285.169C97.4237 285.341 97.594 285.476 97.793 285.573C97.9953 285.671 98.2246 285.72 98.4809 285.72C98.8114 285.72 99.0913 285.653 99.3206 285.518C99.55 285.383 99.7506 285.202 99.9226 284.977L100.489 285.427C100.371 285.605 100.221 285.776 100.039 285.938C99.8569 286.1 99.6326 286.231 99.3662 286.332C99.1031 286.433 98.7912 286.484 98.4303 286.484ZM108.32 285.321V278.613H109.261V286.383H108.401L108.32 285.321ZM104.637 283.707V283.601C104.637 283.182 104.688 282.803 104.789 282.462C104.894 282.118 105.04 281.823 105.229 281.577C105.421 281.331 105.649 281.142 105.912 281.011C106.178 280.876 106.475 280.808 106.802 280.808C107.146 280.808 107.446 280.869 107.703 280.99C107.962 281.108 108.182 281.282 108.36 281.511C108.542 281.737 108.686 282.011 108.79 282.331C108.895 282.651 108.967 283.014 109.008 283.418V283.884C108.971 284.285 108.898 284.646 108.79 284.966C108.686 285.287 108.542 285.56 108.36 285.786C108.182 286.012 107.962 286.186 107.703 286.307C107.443 286.425 107.14 286.484 106.792 286.484C106.472 286.484 106.178 286.415 105.912 286.277C105.649 286.138 105.421 285.944 105.229 285.695C105.04 285.445 104.894 285.152 104.789 284.815C104.688 284.474 104.637 284.105 104.637 283.707ZM105.578 283.601V283.707C105.578 283.98 105.605 284.236 105.659 284.476C105.716 284.715 105.804 284.926 105.922 285.108C106.04 285.29 106.19 285.433 106.372 285.538C106.554 285.639 106.772 285.69 107.025 285.69C107.335 285.69 107.59 285.624 107.789 285.492C107.991 285.361 108.153 285.187 108.274 284.971C108.396 284.756 108.49 284.521 108.558 284.268V283.049C108.517 282.864 108.458 282.685 108.381 282.513C108.306 282.338 108.209 282.182 108.087 282.048C107.969 281.909 107.822 281.8 107.647 281.719C107.475 281.638 107.271 281.597 107.035 281.597C106.779 281.597 106.558 281.651 106.372 281.759C106.19 281.864 106.04 282.009 105.922 282.194C105.804 282.376 105.716 282.589 105.659 282.832C105.605 283.071 105.578 283.327 105.578 283.601ZM113.313 286.484C112.932 286.484 112.586 286.42 112.276 286.292C111.969 286.16 111.704 285.976 111.482 285.74C111.262 285.504 111.094 285.224 110.976 284.901C110.858 284.577 110.799 284.223 110.799 283.838V283.626C110.799 283.181 110.864 282.784 110.996 282.437C111.127 282.086 111.306 281.79 111.532 281.547C111.758 281.304 112.014 281.12 112.301 280.995C112.588 280.871 112.884 280.808 113.191 280.808C113.583 280.808 113.92 280.876 114.203 281.011C114.49 281.145 114.724 281.334 114.906 281.577C115.088 281.817 115.223 282.1 115.311 282.427C115.399 282.751 115.442 283.105 115.442 283.489V283.909H111.355V283.145H114.507V283.074C114.493 282.832 114.442 282.596 114.355 282.366C114.27 282.137 114.136 281.948 113.95 281.8C113.765 281.651 113.512 281.577 113.191 281.577C112.979 281.577 112.783 281.623 112.605 281.714C112.426 281.801 112.272 281.933 112.144 282.108C112.016 282.284 111.917 282.498 111.846 282.751C111.775 283.004 111.739 283.295 111.739 283.626V283.838C111.739 284.098 111.775 284.343 111.846 284.572C111.92 284.798 112.026 284.997 112.164 285.169C112.306 285.341 112.476 285.476 112.675 285.573C112.878 285.671 113.107 285.72 113.363 285.72C113.694 285.72 113.974 285.653 114.203 285.518C114.432 285.383 114.633 285.202 114.805 284.977L115.372 285.427C115.254 285.605 115.103 285.776 114.921 285.938C114.739 286.1 114.515 286.231 114.249 286.332C113.986 286.433 113.674 286.484 113.313 286.484ZM119.15 280.909V281.628H116.191V280.909H119.15ZM117.193 279.579H118.128V285.027C118.128 285.213 118.157 285.353 118.214 285.447C118.272 285.541 118.346 285.604 118.437 285.634C118.528 285.664 118.626 285.68 118.73 285.68C118.808 285.68 118.889 285.673 118.973 285.659C119.061 285.643 119.127 285.629 119.171 285.619L119.176 286.383C119.101 286.406 119.004 286.428 118.882 286.449C118.764 286.472 118.621 286.484 118.452 286.484C118.223 286.484 118.012 286.438 117.82 286.347C117.628 286.256 117.474 286.105 117.36 285.892C117.248 285.676 117.193 285.386 117.193 285.022V279.579ZM122.843 286.484C122.462 286.484 122.116 286.42 121.806 286.292C121.499 286.16 121.234 285.976 121.012 285.74C120.793 285.504 120.624 285.224 120.506 284.901C120.388 284.577 120.329 284.223 120.329 283.838V283.626C120.329 283.181 120.395 282.784 120.526 282.437C120.658 282.086 120.837 281.79 121.062 281.547C121.288 281.304 121.545 281.12 121.831 280.995C122.118 280.871 122.415 280.808 122.722 280.808C123.113 280.808 123.45 280.876 123.733 281.011C124.02 281.145 124.254 281.334 124.437 281.577C124.619 281.817 124.754 282.1 124.841 282.427C124.929 282.751 124.973 283.105 124.973 283.489V283.909H120.885V283.145H124.037V283.074C124.023 282.832 123.973 282.596 123.885 282.366C123.801 282.137 123.666 281.948 123.48 281.8C123.295 281.651 123.042 281.577 122.722 281.577C122.509 281.577 122.314 281.623 122.135 281.714C121.956 281.801 121.803 281.933 121.675 282.108C121.546 282.284 121.447 282.498 121.376 282.751C121.305 283.004 121.27 283.295 121.27 283.626V283.838C121.27 284.098 121.305 284.343 121.376 284.572C121.45 284.798 121.557 284.997 121.695 285.169C121.836 285.341 122.007 285.476 122.206 285.573C122.408 285.671 122.637 285.72 122.894 285.72C123.224 285.72 123.504 285.653 123.733 285.518C123.963 285.383 124.163 285.202 124.335 284.977L124.902 285.427C124.784 285.605 124.634 285.776 124.452 285.938C124.27 286.1 124.045 286.231 123.779 286.332C123.516 286.433 123.204 286.484 122.843 286.484ZM128.58 285.715C128.802 285.715 129.008 285.67 129.197 285.578C129.386 285.487 129.541 285.363 129.662 285.204C129.783 285.042 129.853 284.858 129.869 284.653H130.76C130.743 284.977 130.633 285.278 130.431 285.558C130.232 285.835 129.971 286.059 129.647 286.231C129.323 286.4 128.967 286.484 128.58 286.484C128.168 286.484 127.809 286.411 127.502 286.266C127.199 286.121 126.946 285.922 126.743 285.67C126.544 285.417 126.394 285.127 126.293 284.799C126.195 284.469 126.146 284.12 126.146 283.752V283.54C126.146 283.172 126.195 282.825 126.293 282.498C126.394 282.167 126.544 281.876 126.743 281.623C126.946 281.37 127.199 281.171 127.502 281.026C127.809 280.881 128.168 280.808 128.58 280.808C129.008 280.808 129.382 280.896 129.703 281.071C130.023 281.243 130.274 281.479 130.456 281.779C130.642 282.076 130.743 282.414 130.76 282.791H129.869C129.853 282.565 129.789 282.361 129.677 282.179C129.569 281.997 129.421 281.852 129.232 281.744C129.047 281.633 128.829 281.577 128.58 281.577C128.293 281.577 128.052 281.634 127.856 281.749C127.664 281.86 127.511 282.012 127.396 282.204C127.285 282.393 127.204 282.604 127.153 282.837C127.106 283.066 127.082 283.3 127.082 283.54V283.752C127.082 283.992 127.106 284.228 127.153 284.461C127.2 284.693 127.279 284.904 127.391 285.093C127.505 285.282 127.659 285.433 127.851 285.548C128.047 285.659 128.29 285.715 128.58 285.715ZM134.427 280.909V281.628H131.468V280.909H134.427ZM132.47 279.579H133.405V285.027C133.405 285.213 133.434 285.353 133.491 285.447C133.549 285.541 133.623 285.604 133.714 285.634C133.805 285.664 133.903 285.68 134.007 285.68C134.085 285.68 134.166 285.673 134.25 285.659C134.338 285.643 134.404 285.629 134.448 285.619L134.453 286.383C134.378 286.406 134.281 286.428 134.159 286.449C134.041 286.472 133.898 286.484 133.729 286.484C133.5 286.484 133.289 286.438 133.097 286.347C132.905 286.256 132.751 286.105 132.637 285.892C132.525 285.676 132.47 285.386 132.47 285.022V279.579ZM136.866 280.909V286.383H135.925V280.909H136.866ZM135.854 279.458C135.854 279.306 135.899 279.178 135.99 279.073C136.085 278.969 136.223 278.916 136.405 278.916C136.584 278.916 136.721 278.969 136.815 279.073C136.913 279.178 136.962 279.306 136.962 279.458C136.962 279.603 136.913 279.727 136.815 279.832C136.721 279.933 136.584 279.984 136.405 279.984C136.223 279.984 136.085 279.933 135.99 279.832C135.899 279.727 135.854 279.603 135.854 279.458ZM138.444 283.707V283.59C138.444 283.196 138.501 282.83 138.616 282.493C138.73 282.152 138.896 281.857 139.112 281.607C139.327 281.355 139.589 281.159 139.896 281.021C140.203 280.879 140.547 280.808 140.928 280.808C141.312 280.808 141.658 280.879 141.965 281.021C142.275 281.159 142.538 281.355 142.754 281.607C142.973 281.857 143.14 282.152 143.255 282.493C143.369 282.83 143.427 283.196 143.427 283.59V283.707C143.427 284.101 143.369 284.467 143.255 284.805C143.14 285.142 142.973 285.437 142.754 285.69C142.538 285.939 142.277 286.135 141.97 286.277C141.666 286.415 141.322 286.484 140.938 286.484C140.553 286.484 140.208 286.415 139.901 286.277C139.594 286.135 139.331 285.939 139.112 285.69C138.896 285.437 138.73 285.142 138.616 284.805C138.501 284.467 138.444 284.101 138.444 283.707ZM139.38 283.59V283.707C139.38 283.98 139.412 284.238 139.476 284.481C139.54 284.72 139.636 284.933 139.764 285.118C139.896 285.304 140.059 285.45 140.255 285.558C140.45 285.663 140.678 285.715 140.938 285.715C141.194 285.715 141.418 285.663 141.61 285.558C141.806 285.45 141.968 285.304 142.096 285.118C142.224 284.933 142.32 284.72 142.384 284.481C142.452 284.238 142.486 283.98 142.486 283.707V283.59C142.486 283.321 142.452 283.066 142.384 282.827C142.32 282.584 142.223 282.37 142.091 282.184C141.963 281.995 141.801 281.847 141.605 281.739C141.413 281.631 141.187 281.577 140.928 281.577C140.671 281.577 140.445 281.631 140.25 281.739C140.058 281.847 139.896 281.995 139.764 282.184C139.636 282.37 139.54 282.584 139.476 282.827C139.412 283.066 139.38 283.321 139.38 283.59ZM145.86 282.078V286.383H144.924V280.909H145.809L145.86 282.078ZM145.637 283.439L145.248 283.424C145.251 283.049 145.307 282.704 145.415 282.387C145.522 282.066 145.674 281.788 145.87 281.552C146.065 281.316 146.298 281.134 146.568 281.006C146.841 280.874 147.143 280.808 147.473 280.808C147.743 280.808 147.986 280.845 148.202 280.92C148.418 280.99 148.601 281.105 148.753 281.264C148.908 281.422 149.026 281.628 149.107 281.881C149.188 282.13 149.229 282.435 149.229 282.796V286.383H148.288V282.786C148.288 282.499 148.246 282.27 148.161 282.098C148.077 281.923 147.954 281.796 147.792 281.719C147.63 281.638 147.431 281.597 147.195 281.597C146.962 281.597 146.75 281.646 146.558 281.744C146.369 281.842 146.205 281.977 146.067 282.149C145.932 282.321 145.826 282.518 145.748 282.741C145.674 282.96 145.637 283.193 145.637 283.439ZM153.62 283.707V283.59C153.62 283.196 153.677 282.83 153.792 282.493C153.906 282.152 154.071 281.857 154.287 281.607C154.503 281.355 154.765 281.159 155.071 281.021C155.378 280.879 155.722 280.808 156.103 280.808C156.488 280.808 156.833 280.879 157.14 281.021C157.451 281.159 157.714 281.355 157.93 281.607C158.149 281.857 158.316 282.152 158.43 282.493C158.545 282.83 158.602 283.196 158.602 283.59V283.707C158.602 284.101 158.545 284.467 158.43 284.805C158.316 285.142 158.149 285.437 157.93 285.69C157.714 285.939 157.452 286.135 157.145 286.277C156.842 286.415 156.498 286.484 156.113 286.484C155.729 286.484 155.383 286.415 155.076 286.277C154.77 286.135 154.507 285.939 154.287 285.69C154.071 285.437 153.906 285.142 153.792 284.805C153.677 284.467 153.62 284.101 153.62 283.707ZM154.555 283.59V283.707C154.555 283.98 154.587 284.238 154.652 284.481C154.716 284.72 154.812 284.933 154.94 285.118C155.071 285.304 155.235 285.45 155.431 285.558C155.626 285.663 155.854 285.715 156.113 285.715C156.37 285.715 156.594 285.663 156.786 285.558C156.982 285.45 157.144 285.304 157.272 285.118C157.4 284.933 157.496 284.72 157.56 284.481C157.628 284.238 157.661 283.98 157.661 283.707V283.59C157.661 283.321 157.628 283.066 157.56 282.827C157.496 282.584 157.398 282.37 157.267 282.184C157.139 281.995 156.977 281.847 156.781 281.739C156.589 281.631 156.363 281.577 156.103 281.577C155.847 281.577 155.621 281.631 155.426 281.739C155.233 281.847 155.071 281.995 154.94 282.184C154.812 282.37 154.716 282.584 154.652 282.827C154.587 283.066 154.555 283.321 154.555 283.59ZM161.035 281.769V286.383H160.1V280.909H161.01L161.035 281.769ZM162.745 280.879L162.74 281.749C162.663 281.732 162.588 281.722 162.518 281.719C162.45 281.712 162.373 281.709 162.285 281.709C162.069 281.709 161.879 281.742 161.713 281.81C161.548 281.877 161.408 281.972 161.293 282.093C161.179 282.215 161.088 282.36 161.02 282.528C160.956 282.693 160.914 282.876 160.894 283.074L160.631 283.226C160.631 282.896 160.663 282.585 160.727 282.295C160.794 282.005 160.897 281.749 161.035 281.527C161.174 281.301 161.349 281.125 161.562 281C161.777 280.872 162.034 280.808 162.33 280.808C162.398 280.808 162.475 280.817 162.563 280.834C162.651 280.847 162.712 280.862 162.745 280.879ZM170.014 284.931C170.014 284.796 169.984 284.671 169.923 284.557C169.866 284.439 169.746 284.332 169.564 284.238C169.386 284.14 169.116 284.056 168.755 283.985C168.451 283.921 168.177 283.845 167.93 283.757C167.688 283.67 167.48 283.563 167.308 283.439C167.14 283.314 167.01 283.167 166.919 282.999C166.828 282.83 166.782 282.633 166.782 282.407C166.782 282.191 166.829 281.987 166.924 281.795C167.021 281.602 167.158 281.432 167.333 281.284C167.512 281.135 167.726 281.019 167.976 280.935C168.225 280.85 168.504 280.808 168.811 280.808C169.249 280.808 169.623 280.886 169.934 281.041C170.244 281.196 170.482 281.403 170.647 281.663C170.812 281.919 170.895 282.204 170.895 282.518H169.959C169.959 282.366 169.913 282.22 169.822 282.078C169.735 281.933 169.605 281.813 169.433 281.719C169.264 281.624 169.057 281.577 168.811 281.577C168.551 281.577 168.34 281.618 168.178 281.699C168.02 281.776 167.903 281.876 167.829 281.997C167.758 282.118 167.723 282.247 167.723 282.381C167.723 282.483 167.74 282.574 167.774 282.655C167.811 282.732 167.875 282.805 167.966 282.872C168.057 282.936 168.185 282.997 168.35 283.054C168.515 283.112 168.726 283.169 168.983 283.226C169.431 283.327 169.8 283.449 170.09 283.59C170.38 283.732 170.596 283.906 170.738 284.112C170.88 284.317 170.95 284.567 170.95 284.86C170.95 285.1 170.9 285.319 170.799 285.518C170.701 285.717 170.557 285.889 170.369 286.034C170.183 286.175 169.961 286.287 169.701 286.368C169.445 286.445 169.156 286.484 168.836 286.484C168.354 286.484 167.946 286.398 167.612 286.226C167.278 286.054 167.025 285.831 166.853 285.558C166.681 285.285 166.595 284.997 166.595 284.693H167.536C167.549 284.95 167.623 285.154 167.758 285.305C167.893 285.454 168.059 285.56 168.254 285.624C168.45 285.685 168.644 285.715 168.836 285.715C169.092 285.715 169.306 285.681 169.478 285.614C169.654 285.546 169.787 285.454 169.878 285.336C169.969 285.218 170.014 285.083 170.014 284.931ZM174.775 286.484C174.394 286.484 174.048 286.42 173.738 286.292C173.431 286.16 173.166 285.976 172.943 285.74C172.724 285.504 172.556 285.224 172.438 284.901C172.32 284.577 172.261 284.223 172.261 283.838V283.626C172.261 283.181 172.326 282.784 172.458 282.437C172.589 282.086 172.768 281.79 172.994 281.547C173.22 281.304 173.476 281.12 173.763 280.995C174.05 280.871 174.346 280.808 174.653 280.808C175.044 280.808 175.382 280.876 175.665 281.011C175.952 281.145 176.186 281.334 176.368 281.577C176.55 281.817 176.685 282.1 176.773 282.427C176.86 282.751 176.904 283.105 176.904 283.489V283.909H172.817V283.145H175.968V283.074C175.955 282.832 175.904 282.596 175.817 282.366C175.732 282.137 175.598 281.948 175.412 281.8C175.227 281.651 174.974 281.577 174.653 281.577C174.441 281.577 174.245 281.623 174.066 281.714C173.888 281.801 173.734 281.933 173.606 282.108C173.478 282.284 173.378 282.498 173.308 282.751C173.237 283.004 173.201 283.295 173.201 283.626V283.838C173.201 284.098 173.237 284.343 173.308 284.572C173.382 284.798 173.488 284.997 173.626 285.169C173.768 285.341 173.938 285.476 174.137 285.573C174.34 285.671 174.569 285.72 174.825 285.72C175.156 285.72 175.436 285.653 175.665 285.518C175.894 285.383 176.095 285.202 176.267 284.977L176.833 285.427C176.715 285.605 176.565 285.776 176.383 285.938C176.201 286.1 175.977 286.231 175.71 286.332C175.447 286.433 175.135 286.484 174.775 286.484ZM180.612 280.909V281.628H177.653V280.909H180.612ZM178.655 279.579H179.59V285.027C179.59 285.213 179.619 285.353 179.676 285.447C179.734 285.541 179.808 285.604 179.899 285.634C179.99 285.664 180.088 285.68 180.192 285.68C180.27 285.68 180.351 285.673 180.435 285.659C180.523 285.643 180.589 285.629 180.632 285.619L180.638 286.383C180.563 286.406 180.466 286.428 180.344 286.449C180.226 286.472 180.083 286.484 179.914 286.484C179.685 286.484 179.474 286.438 179.282 286.347C179.09 286.256 178.936 286.105 178.822 285.892C178.71 285.676 178.655 285.386 178.655 285.022V279.579ZM188.155 285.447V282.629C188.155 282.414 188.111 282.226 188.023 282.068C187.939 281.906 187.811 281.781 187.639 281.693C187.467 281.606 187.254 281.562 187.001 281.562C186.765 281.562 186.558 281.602 186.379 281.683C186.204 281.764 186.065 281.871 185.964 282.002C185.866 282.134 185.818 282.275 185.818 282.427H184.882C184.882 282.231 184.932 282.037 185.033 281.845C185.135 281.653 185.28 281.479 185.468 281.324C185.661 281.166 185.89 281.041 186.156 280.95C186.426 280.855 186.726 280.808 187.057 280.808C187.455 280.808 187.806 280.876 188.109 281.011C188.416 281.145 188.655 281.35 188.827 281.623C189.003 281.892 189.09 282.231 189.09 282.639V285.189C189.09 285.371 189.106 285.565 189.136 285.771C189.17 285.976 189.219 286.153 189.283 286.302V286.383H188.306C188.259 286.275 188.222 286.132 188.195 285.953C188.168 285.771 188.155 285.602 188.155 285.447ZM188.316 283.064L188.327 283.722H187.381C187.114 283.722 186.876 283.744 186.667 283.788C186.458 283.828 186.283 283.891 186.141 283.975C186 284.059 185.892 284.165 185.818 284.294C185.743 284.418 185.706 284.565 185.706 284.734C185.706 284.906 185.745 285.063 185.823 285.204C185.9 285.346 186.017 285.459 186.172 285.543C186.33 285.624 186.524 285.664 186.753 285.664C187.04 285.664 187.293 285.604 187.512 285.482C187.731 285.361 187.905 285.213 188.033 285.037C188.165 284.862 188.236 284.692 188.246 284.526L188.645 284.977C188.622 285.118 188.558 285.275 188.453 285.447C188.349 285.619 188.209 285.784 188.033 285.943C187.861 286.098 187.655 286.228 187.416 286.332C187.18 286.433 186.914 286.484 186.617 286.484C186.246 286.484 185.92 286.411 185.64 286.266C185.364 286.121 185.148 285.928 184.993 285.685C184.841 285.439 184.765 285.164 184.765 284.86C184.765 284.567 184.823 284.309 184.937 284.086C185.052 283.86 185.217 283.673 185.433 283.525C185.649 283.373 185.909 283.258 186.212 283.181C186.516 283.103 186.855 283.064 187.229 283.064H188.316ZM66.8344 297.962V304.487H65.8935V296.909H66.7534L66.8344 297.962ZM70.5221 299.601V299.707C70.5221 300.105 70.4749 300.474 70.3804 300.815C70.286 301.152 70.1477 301.445 69.9656 301.695C69.7869 301.944 69.566 302.138 69.303 302.277C69.0399 302.415 68.7381 302.484 68.3975 302.484C68.0501 302.484 67.7432 302.427 67.4768 302.312C67.2104 302.197 66.9844 302.03 66.7989 301.811C66.6135 301.592 66.4651 301.329 66.3538 301.022C66.2459 300.715 66.1717 300.369 66.1312 299.985V299.418C66.1717 299.014 66.2476 298.651 66.3589 298.331C66.4701 298.011 66.6168 297.737 66.7989 297.511C66.9844 297.282 67.2087 297.108 67.4717 296.99C67.7348 296.869 68.0383 296.808 68.3823 296.808C68.7263 296.808 69.0315 296.876 69.2979 297.011C69.5643 297.142 69.7886 297.331 69.9707 297.577C70.1528 297.823 70.2894 298.118 70.3804 298.462C70.4749 298.803 70.5221 299.182 70.5221 299.601ZM69.5812 299.707V299.601C69.5812 299.327 69.5525 299.071 69.4952 298.832C69.4378 298.589 69.3485 298.376 69.2271 298.194C69.109 298.009 68.9573 297.864 68.7718 297.759C68.5863 297.651 68.3654 297.597 68.1091 297.597C67.8731 297.597 67.6673 297.638 67.492 297.719C67.32 297.8 67.1733 297.909 67.0519 298.048C66.9305 298.182 66.831 298.338 66.7534 298.513C66.6792 298.685 66.6236 298.864 66.5865 299.049V300.359C66.6539 300.595 66.7484 300.818 66.8698 301.027C66.9912 301.233 67.1531 301.4 67.3554 301.528C67.5577 301.653 67.8124 301.715 68.1192 301.715C68.3722 301.715 68.5897 301.663 68.7718 301.558C68.9573 301.45 69.109 301.304 69.2271 301.118C69.3485 300.933 69.4378 300.72 69.4952 300.481C69.5525 300.238 69.5812 299.98 69.5812 299.707ZM73.0564 296.909V302.383H72.1155V296.909H73.0564ZM72.0447 295.458C72.0447 295.306 72.0902 295.178 72.1813 295.073C72.2757 294.969 72.414 294.916 72.5961 294.916C72.7748 294.916 72.9114 294.969 73.0058 295.073C73.1036 295.178 73.1525 295.306 73.1525 295.458C73.1525 295.603 73.1036 295.727 73.0058 295.832C72.9114 295.933 72.7748 295.984 72.5961 295.984C72.414 295.984 72.2757 295.933 72.1813 295.832C72.0902 295.727 72.0447 295.603 72.0447 295.458ZM75.8184 298.078V302.383H74.8826V296.909H75.7678L75.8184 298.078ZM75.5958 299.439L75.2063 299.424C75.2097 299.049 75.2653 298.704 75.3733 298.387C75.4812 298.066 75.6329 297.788 75.8285 297.552C76.0241 297.316 76.2568 297.134 76.5266 297.006C76.7998 296.874 77.1016 296.808 77.4321 296.808C77.7019 296.808 77.9447 296.845 78.1605 296.92C78.3764 296.99 78.5602 297.105 78.7119 297.264C78.8671 297.422 78.9851 297.628 79.066 297.881C79.147 298.13 79.1874 298.435 79.1874 298.796V302.383H78.2465V298.786C78.2465 298.499 78.2044 298.27 78.1201 298.098C78.0358 297.923 77.9127 297.796 77.7508 297.719C77.5889 297.638 77.39 297.597 77.1539 297.597C76.9212 297.597 76.7087 297.646 76.5165 297.744C76.3277 297.842 76.1641 297.977 76.0258 298.149C75.8909 298.321 75.7847 298.518 75.7071 298.741C75.6329 298.96 75.5958 299.193 75.5958 299.439ZM85.2223 302.383H84.2865V296.333C84.2865 295.938 84.3573 295.606 84.499 295.336C84.644 295.063 84.8514 294.857 85.1212 294.719C85.391 294.577 85.7113 294.507 86.0823 294.507C86.1902 294.507 86.2981 294.513 86.4061 294.527C86.5173 294.54 86.6253 294.561 86.7298 294.588L86.6792 295.351C86.6084 295.335 86.5275 295.323 86.4364 295.316C86.3487 295.309 86.261 295.306 86.1734 295.306C85.9744 295.306 85.8024 295.346 85.6574 295.427C85.5157 295.505 85.4078 295.619 85.3336 295.771C85.2594 295.923 85.2223 296.11 85.2223 296.333V302.383ZM86.3858 296.909V297.628H83.4215V296.909H86.3858ZM87.5038 299.707V299.59C87.5038 299.196 87.5611 298.83 87.6758 298.493C87.7904 298.152 87.9557 297.857 88.1715 297.607C88.3873 297.355 88.6487 297.159 88.9556 297.021C89.2625 296.879 89.6065 296.808 89.9875 296.808C90.372 296.808 90.7177 296.879 91.0246 297.021C91.3348 297.159 91.5979 297.355 91.8137 297.607C92.0329 297.857 92.1998 298.152 92.3145 298.493C92.4292 298.83 92.4865 299.196 92.4865 299.59V299.707C92.4865 300.101 92.4292 300.467 92.3145 300.805C92.1998 301.142 92.0329 301.437 91.8137 301.69C91.5979 301.939 91.3365 302.135 91.0296 302.277C90.7261 302.415 90.3821 302.484 89.9977 302.484C89.6132 302.484 89.2675 302.415 88.9606 302.277C88.6538 302.135 88.3907 301.939 88.1715 301.69C87.9557 301.437 87.7904 301.142 87.6758 300.805C87.5611 300.467 87.5038 300.101 87.5038 299.707ZM88.4396 299.59V299.707C88.4396 299.98 88.4717 300.238 88.5357 300.481C88.5998 300.72 88.6959 300.933 88.8241 301.118C88.9556 301.304 89.1192 301.45 89.3148 301.558C89.5103 301.663 89.738 301.715 89.9977 301.715C90.254 301.715 90.4782 301.663 90.6705 301.558C90.8661 301.45 91.0279 301.304 91.1561 301.118C91.2842 300.933 91.3803 300.72 91.4444 300.481C91.5119 300.238 91.5456 299.98 91.5456 299.707V299.59C91.5456 299.321 91.5119 299.066 91.4444 298.827C91.3803 298.584 91.2825 298.37 91.151 298.184C91.0229 297.995 90.861 297.847 90.6654 297.739C90.4732 297.631 90.2472 297.577 89.9875 297.577C89.7312 297.577 89.5053 297.631 89.3097 297.739C89.1175 297.847 88.9556 297.995 88.8241 298.184C88.6959 298.37 88.5998 298.584 88.5357 298.827C88.4717 299.066 88.4396 299.321 88.4396 299.59ZM94.9197 297.769V302.383H93.9838V296.909H94.8944L94.9197 297.769ZM96.6295 296.879L96.6244 297.749C96.5469 297.732 96.4727 297.722 96.4018 297.719C96.3344 297.712 96.2568 297.709 96.1691 297.709C95.9533 297.709 95.7628 297.742 95.5975 297.81C95.4323 297.877 95.2923 297.972 95.1777 298.093C95.063 298.215 94.9719 298.36 94.9045 298.528C94.8404 298.693 94.7983 298.876 94.778 299.074L94.515 299.226C94.515 298.896 94.547 298.585 94.6111 298.295C94.6785 298.005 94.7814 297.749 94.9197 297.527C95.0579 297.301 95.2333 297.125 95.4458 297C95.6616 296.872 95.9179 296.808 96.2147 296.808C96.2821 296.808 96.3597 296.817 96.4474 296.834C96.535 296.847 96.5958 296.862 96.6295 296.879ZM102.983 302.484C102.602 302.484 102.256 302.42 101.946 302.292C101.639 302.16 101.374 301.976 101.152 301.74C100.933 301.504 100.764 301.224 100.646 300.901C100.528 300.577 100.469 300.223 100.469 299.838V299.626C100.469 299.181 100.535 298.784 100.666 298.437C100.798 298.086 100.976 297.79 101.202 297.547C101.428 297.304 101.685 297.12 101.971 296.995C102.258 296.871 102.555 296.808 102.862 296.808C103.253 296.808 103.59 296.876 103.873 297.011C104.16 297.145 104.394 297.334 104.577 297.577C104.759 297.817 104.894 298.1 104.981 298.427C105.069 298.751 105.113 299.105 105.113 299.489V299.909H101.025V299.145H104.177V299.074C104.163 298.832 104.113 298.596 104.025 298.366C103.941 298.137 103.806 297.948 103.62 297.8C103.435 297.651 103.182 297.577 102.862 297.577C102.649 297.577 102.454 297.623 102.275 297.714C102.096 297.801 101.943 297.933 101.815 298.108C101.686 298.284 101.587 298.498 101.516 298.751C101.445 299.004 101.41 299.295 101.41 299.626V299.838C101.41 300.098 101.445 300.343 101.516 300.572C101.59 300.798 101.697 300.997 101.835 301.169C101.976 301.341 102.147 301.476 102.346 301.573C102.548 301.671 102.777 301.72 103.034 301.72C103.364 301.72 103.644 301.653 103.873 301.518C104.103 301.383 104.303 301.202 104.475 300.977L105.042 301.427C104.924 301.605 104.774 301.776 104.592 301.938C104.41 302.1 104.185 302.231 103.919 302.332C103.656 302.433 103.344 302.484 102.983 302.484ZM107.161 296.909L108.36 298.902L109.574 296.909H110.672L108.881 299.611L110.728 302.383H109.645L108.381 300.329L107.116 302.383H106.028L107.87 299.611L106.084 296.909H107.161ZM114.284 296.909V297.628H111.325V296.909H114.284ZM112.326 295.579H113.262V301.027C113.262 301.213 113.291 301.353 113.348 301.447C113.405 301.541 113.48 301.604 113.571 301.634C113.662 301.664 113.76 301.68 113.864 301.68C113.942 301.68 114.023 301.673 114.107 301.659C114.195 301.643 114.26 301.629 114.304 301.619L114.309 302.383C114.235 302.406 114.137 302.428 114.016 302.449C113.898 302.472 113.755 302.484 113.586 302.484C113.357 302.484 113.146 302.438 112.954 302.347C112.761 302.256 112.608 302.105 112.493 301.892C112.382 301.676 112.326 301.386 112.326 301.022V295.579ZM116.641 297.769V302.383H115.705V296.909H116.616L116.641 297.769ZM118.351 296.879L118.346 297.749C118.268 297.732 118.194 297.722 118.123 297.719C118.056 297.712 117.978 297.709 117.891 297.709C117.675 297.709 117.484 297.742 117.319 297.81C117.154 297.877 117.014 297.972 116.899 298.093C116.785 298.215 116.694 298.36 116.626 298.528C116.562 298.693 116.52 298.876 116.5 299.074L116.237 299.226C116.237 298.896 116.269 298.585 116.333 298.295C116.4 298.005 116.503 297.749 116.641 297.527C116.78 297.301 116.955 297.125 117.167 297C117.383 296.872 117.64 296.808 117.936 296.808C118.004 296.808 118.081 296.817 118.169 296.834C118.257 296.847 118.317 296.862 118.351 296.879ZM122.565 301.447V298.629C122.565 298.414 122.521 298.226 122.433 298.068C122.349 297.906 122.221 297.781 122.049 297.693C121.877 297.606 121.664 297.562 121.412 297.562C121.175 297.562 120.968 297.602 120.789 297.683C120.614 297.764 120.476 297.871 120.375 298.002C120.277 298.134 120.228 298.275 120.228 298.427H119.292C119.292 298.231 119.343 298.037 119.444 297.845C119.545 297.653 119.69 297.479 119.879 297.324C120.071 297.166 120.3 297.041 120.567 296.95C120.837 296.855 121.137 296.808 121.467 296.808C121.865 296.808 122.216 296.876 122.519 297.011C122.826 297.145 123.066 297.35 123.238 297.623C123.413 297.892 123.501 298.231 123.501 298.639V301.189C123.501 301.371 123.516 301.565 123.546 301.771C123.58 301.976 123.629 302.153 123.693 302.302V302.383H122.717C122.669 302.275 122.632 302.132 122.605 301.953C122.578 301.771 122.565 301.602 122.565 301.447ZM122.727 299.064L122.737 299.722H121.791C121.525 299.722 121.287 299.744 121.078 299.788C120.869 299.828 120.693 299.891 120.552 299.975C120.41 300.059 120.302 300.165 120.228 300.294C120.154 300.418 120.117 300.565 120.117 300.734C120.117 300.906 120.155 301.063 120.233 301.204C120.31 301.346 120.427 301.459 120.582 301.543C120.74 301.624 120.934 301.664 121.164 301.664C121.45 301.664 121.703 301.604 121.922 301.482C122.142 301.361 122.315 301.213 122.443 301.037C122.575 300.862 122.646 300.692 122.656 300.526L123.056 300.977C123.032 301.118 122.968 301.275 122.863 301.447C122.759 301.619 122.619 301.784 122.443 301.943C122.271 302.098 122.066 302.228 121.826 302.332C121.59 302.433 121.324 302.484 121.027 302.484C120.656 302.484 120.331 302.411 120.051 302.266C119.774 302.121 119.558 301.928 119.403 301.685C119.252 301.439 119.176 301.164 119.176 300.86C119.176 300.567 119.233 300.309 119.348 300.086C119.462 299.86 119.628 299.673 119.843 299.525C120.059 299.373 120.319 299.258 120.622 299.181C120.926 299.103 121.265 299.064 121.639 299.064H122.727ZM131.377 300.931C131.377 300.796 131.347 300.671 131.286 300.557C131.229 300.439 131.109 300.332 130.927 300.238C130.748 300.14 130.478 300.056 130.117 299.985C129.814 299.921 129.539 299.845 129.293 299.757C129.05 299.67 128.843 299.563 128.671 299.439C128.502 299.314 128.372 299.167 128.281 298.999C128.19 298.83 128.145 298.633 128.145 298.407C128.145 298.191 128.192 297.987 128.286 297.795C128.384 297.602 128.521 297.432 128.696 297.284C128.875 297.135 129.089 297.019 129.338 296.935C129.588 296.85 129.866 296.808 130.173 296.808C130.611 296.808 130.986 296.886 131.296 297.041C131.606 297.196 131.844 297.403 132.009 297.663C132.175 297.919 132.257 298.204 132.257 298.518H131.321C131.321 298.366 131.276 298.22 131.185 298.078C131.097 297.933 130.967 297.813 130.795 297.719C130.627 297.624 130.419 297.577 130.173 297.577C129.913 297.577 129.703 297.618 129.541 297.699C129.382 297.776 129.266 297.876 129.192 297.997C129.121 298.118 129.085 298.247 129.085 298.381C129.085 298.483 129.102 298.574 129.136 298.655C129.173 298.732 129.237 298.805 129.328 298.872C129.419 298.936 129.547 298.997 129.713 299.054C129.878 299.112 130.089 299.169 130.345 299.226C130.794 299.327 131.163 299.449 131.453 299.59C131.743 299.732 131.959 299.906 132.1 300.112C132.242 300.317 132.313 300.567 132.313 300.86C132.313 301.1 132.262 301.319 132.161 301.518C132.063 301.717 131.92 301.889 131.731 302.034C131.546 302.175 131.323 302.287 131.063 302.368C130.807 302.445 130.519 302.484 130.198 302.484C129.716 302.484 129.308 302.398 128.974 302.226C128.64 302.054 128.387 301.831 128.215 301.558C128.043 301.285 127.957 300.997 127.957 300.693H128.898C128.912 300.95 128.986 301.154 129.121 301.305C129.256 301.454 129.421 301.56 129.617 301.624C129.812 301.685 130.006 301.715 130.198 301.715C130.455 301.715 130.669 301.681 130.841 301.614C131.016 301.546 131.149 301.454 131.24 301.336C131.331 301.218 131.377 301.083 131.377 300.931ZM136.137 302.484C135.756 302.484 135.41 302.42 135.1 302.292C134.793 302.16 134.528 301.976 134.306 301.74C134.087 301.504 133.918 301.224 133.8 300.901C133.682 300.577 133.623 300.223 133.623 299.838V299.626C133.623 299.181 133.689 298.784 133.82 298.437C133.952 298.086 134.131 297.79 134.356 297.547C134.582 297.304 134.839 297.12 135.125 296.995C135.412 296.871 135.709 296.808 136.016 296.808C136.407 296.808 136.744 296.876 137.027 297.011C137.314 297.145 137.548 297.334 137.731 297.577C137.913 297.817 138.048 298.1 138.135 298.427C138.223 298.751 138.267 299.105 138.267 299.489V299.909H134.179V299.145H137.331V299.074C137.317 298.832 137.267 298.596 137.179 298.366C137.095 298.137 136.96 297.948 136.774 297.8C136.589 297.651 136.336 297.577 136.016 297.577C135.803 297.577 135.608 297.623 135.429 297.714C135.25 297.801 135.097 297.933 134.969 298.108C134.84 298.284 134.741 298.498 134.67 298.751C134.599 299.004 134.564 299.295 134.564 299.626V299.838C134.564 300.098 134.599 300.343 134.67 300.572C134.744 300.798 134.851 300.997 134.989 301.169C135.13 301.341 135.301 301.476 135.5 301.573C135.702 301.671 135.931 301.72 136.188 301.72C136.518 301.72 136.798 301.653 137.027 301.518C137.257 301.383 137.457 301.202 137.629 300.977L138.196 301.427C138.078 301.605 137.928 301.776 137.746 301.938C137.564 302.1 137.339 302.231 137.073 302.332C136.81 302.433 136.498 302.484 136.137 302.484ZM141.874 301.715C142.096 301.715 142.302 301.67 142.491 301.578C142.68 301.487 142.835 301.363 142.956 301.204C143.077 301.042 143.147 300.858 143.163 300.653H144.054C144.037 300.977 143.927 301.278 143.725 301.558C143.526 301.835 143.265 302.059 142.941 302.231C142.617 302.4 142.261 302.484 141.874 302.484C141.462 302.484 141.103 302.411 140.796 302.266C140.493 302.121 140.24 301.922 140.037 301.67C139.838 301.417 139.688 301.127 139.587 300.799C139.489 300.469 139.44 300.12 139.44 299.752V299.54C139.44 299.172 139.489 298.825 139.587 298.498C139.688 298.167 139.838 297.876 140.037 297.623C140.24 297.37 140.493 297.171 140.796 297.026C141.103 296.881 141.462 296.808 141.874 296.808C142.302 296.808 142.676 296.896 142.997 297.071C143.317 297.243 143.568 297.479 143.75 297.779C143.936 298.076 144.037 298.414 144.054 298.791H143.163C143.147 298.565 143.083 298.361 142.971 298.179C142.863 297.997 142.715 297.852 142.526 297.744C142.341 297.633 142.123 297.577 141.874 297.577C141.587 297.577 141.346 297.634 141.15 297.749C140.958 297.86 140.804 298.012 140.69 298.204C140.579 298.393 140.498 298.604 140.447 298.837C140.4 299.066 140.376 299.3 140.376 299.54V299.752C140.376 299.992 140.4 300.228 140.447 300.461C140.494 300.693 140.573 300.904 140.685 301.093C140.799 301.282 140.953 301.433 141.145 301.548C141.341 301.659 141.584 301.715 141.874 301.715ZM148.779 301.118V296.909H149.719V302.383H148.824L148.779 301.118ZM148.956 299.965L149.345 299.955C149.345 300.319 149.306 300.656 149.229 300.966C149.155 301.273 149.033 301.54 148.865 301.766C148.696 301.992 148.475 302.169 148.202 302.297C147.929 302.422 147.597 302.484 147.205 302.484C146.939 302.484 146.694 302.445 146.472 302.368C146.253 302.29 146.064 302.17 145.905 302.008C145.747 301.847 145.624 301.636 145.536 301.376C145.452 301.116 145.41 300.805 145.41 300.44V296.909H146.345V300.45C146.345 300.697 146.372 300.901 146.426 301.063C146.484 301.221 146.559 301.347 146.654 301.442C146.752 301.533 146.86 301.597 146.978 301.634C147.099 301.671 147.224 301.69 147.352 301.69C147.75 301.69 148.065 301.614 148.298 301.462C148.531 301.307 148.698 301.1 148.799 300.84C148.903 300.577 148.956 300.285 148.956 299.965ZM152.406 297.769V302.383H151.47V296.909H152.38L152.406 297.769ZM154.115 296.879L154.11 297.749C154.033 297.732 153.959 297.722 153.888 297.719C153.82 297.712 153.743 297.709 153.655 297.709C153.439 297.709 153.249 297.742 153.083 297.81C152.918 297.877 152.778 297.972 152.664 298.093C152.549 298.215 152.458 298.36 152.39 298.528C152.326 298.693 152.284 298.876 152.264 299.074L152.001 299.226C152.001 298.896 152.033 298.585 152.097 298.295C152.164 298.005 152.267 297.749 152.406 297.527C152.544 297.301 152.719 297.125 152.932 297C153.147 296.872 153.404 296.808 153.701 296.808C153.768 296.808 153.846 296.817 153.933 296.834C154.021 296.847 154.082 296.862 154.115 296.879ZM156.321 296.909V302.383H155.38V296.909H156.321ZM155.309 295.458C155.309 295.306 155.355 295.178 155.446 295.073C155.54 294.969 155.678 294.916 155.861 294.916C156.039 294.916 156.176 294.969 156.27 295.073C156.368 295.178 156.417 295.306 156.417 295.458C156.417 295.603 156.368 295.727 156.27 295.832C156.176 295.933 156.039 295.984 155.861 295.984C155.678 295.984 155.54 295.933 155.446 295.832C155.355 295.727 155.309 295.603 155.309 295.458ZM160.439 296.909V297.628H157.479V296.909H160.439ZM158.481 295.579H159.417V301.027C159.417 301.213 159.445 301.353 159.503 301.447C159.56 301.541 159.634 301.604 159.725 301.634C159.816 301.664 159.914 301.68 160.019 301.68C160.096 301.68 160.177 301.673 160.262 301.659C160.349 301.643 160.415 301.629 160.459 301.619L160.464 302.383C160.39 302.406 160.292 302.428 160.17 302.449C160.052 302.472 159.909 302.484 159.74 302.484C159.511 302.484 159.3 302.438 159.108 302.347C158.916 302.256 158.763 302.105 158.648 301.892C158.537 301.676 158.481 301.386 158.481 301.022V295.579ZM163.398 301.816L164.921 296.909H165.922L163.727 303.228C163.676 303.362 163.609 303.508 163.524 303.663C163.443 303.821 163.339 303.971 163.211 304.113C163.083 304.254 162.927 304.369 162.745 304.457C162.567 304.548 162.352 304.593 162.103 304.593C162.029 304.593 161.934 304.583 161.82 304.563C161.705 304.543 161.624 304.526 161.577 304.512L161.572 303.754C161.599 303.757 161.641 303.76 161.698 303.764C161.759 303.771 161.801 303.774 161.825 303.774C162.037 303.774 162.218 303.745 162.366 303.688C162.514 303.634 162.639 303.541 162.74 303.41C162.845 303.282 162.934 303.105 163.008 302.879L163.398 301.816ZM162.28 296.909L163.701 301.159L163.944 302.145L163.271 302.489L161.258 296.909H162.28ZM166.559 301.887C166.559 301.729 166.608 301.595 166.706 301.487C166.807 301.376 166.952 301.321 167.141 301.321C167.33 301.321 167.473 301.376 167.571 301.487C167.672 301.595 167.723 301.729 167.723 301.887C167.723 302.042 167.672 302.174 167.571 302.282C167.473 302.39 167.33 302.444 167.141 302.444C166.952 302.444 166.807 302.39 166.706 302.282C166.608 302.174 166.559 302.042 166.559 301.887Z" fill="#777777"/>
<g clip-path="url(#clip1_267_10494)">
<rect x="94.2114" y="426.891" width="6.475" height="6.475" rx="3.2375" fill="#DEDEDE"/>
<circle cx="98.0964" cy="430.776" r="3.885" fill="#DEDEDE"/>
</g>
<g clip-path="url(#clip2_267_10494)">
<rect x="113.636" y="426.891" width="6.475" height="6.475" rx="3.2375" fill="#DEDEDE"/>
<circle cx="117.521" cy="430.776" r="3.885" fill="#DEDEDE"/>
</g>
<rect x="133.061" y="426.891" width="6.475" height="6.475" rx="3.2375" fill="#F7931A"/>
<rect x="8.41772" y="452.789" width="216.913" height="34.13" rx="3.2375" fill="#F7931A"/>
<path d="M111.895 465.49V472.855H110.913L107.205 467.175V472.855H106.229V465.49H107.205L110.928 471.186V465.49H111.895ZM116.078 472.957C115.697 472.957 115.351 472.893 115.041 472.764C114.734 472.633 114.469 472.449 114.247 472.213C114.028 471.977 113.859 471.697 113.741 471.373C113.623 471.05 113.564 470.695 113.564 470.311V470.099C113.564 469.653 113.63 469.257 113.761 468.91C113.893 468.559 114.071 468.262 114.297 468.019C114.523 467.777 114.78 467.593 115.066 467.468C115.353 467.343 115.65 467.281 115.957 467.281C116.348 467.281 116.685 467.348 116.968 467.483C117.255 467.618 117.489 467.807 117.671 468.05C117.854 468.289 117.988 468.573 118.076 468.9C118.164 469.223 118.208 469.577 118.208 469.962V470.382H114.12V469.618H117.272V469.547C117.258 469.304 117.208 469.068 117.12 468.839C117.036 468.61 116.901 468.421 116.715 468.272C116.53 468.124 116.277 468.05 115.957 468.05C115.744 468.05 115.549 468.095 115.37 468.186C115.191 468.274 115.038 468.406 114.909 468.581C114.781 468.756 114.682 468.97 114.611 469.223C114.54 469.476 114.505 469.768 114.505 470.099V470.311C114.505 470.571 114.54 470.815 114.611 471.044C114.685 471.27 114.791 471.469 114.93 471.641C115.071 471.813 115.242 471.948 115.441 472.046C115.643 472.144 115.872 472.193 116.129 472.193C116.459 472.193 116.739 472.125 116.968 471.99C117.198 471.856 117.398 471.675 117.57 471.449L118.137 471.899C118.019 472.078 117.869 472.248 117.687 472.41C117.505 472.572 117.28 472.704 117.014 472.805C116.751 472.906 116.439 472.957 116.078 472.957ZM120.256 467.382L121.455 469.375L122.669 467.382H123.767L121.976 470.083L123.823 472.855H122.74L121.476 470.802L120.211 472.855H119.123L120.965 470.083L119.179 467.382H120.256ZM127.379 467.382V468.1H124.42V467.382H127.379ZM125.421 466.052H126.357V471.5C126.357 471.685 126.386 471.825 126.443 471.92C126.5 472.014 126.575 472.076 126.666 472.107C126.757 472.137 126.855 472.152 126.959 472.152C127.037 472.152 127.118 472.146 127.202 472.132C127.29 472.115 127.355 472.102 127.399 472.092L127.404 472.855C127.33 472.879 127.232 472.901 127.111 472.921C126.993 472.945 126.849 472.957 126.681 472.957C126.451 472.957 126.241 472.911 126.048 472.82C125.856 472.729 125.703 472.577 125.588 472.365C125.477 472.149 125.421 471.859 125.421 471.495V466.052Z" fill="white"/>
</g>
<defs>
<clipPath id="clip0_267_10494">
<rect width="233.1" height="518" fill="white"/>
</clipPath>
<clipPath id="clip1_267_10494">
<rect x="94.2114" y="426.891" width="6.475" height="6.475" rx="3.2375" fill="white"/>
</clipPath>
<clipPath id="clip2_267_10494">
<rect x="113.636" y="426.891" width="6.475" height="6.475" rx="3.2375" fill="white"/>
</clipPath>
</defs>
</svg>
