<svg width="90" height="25" viewBox="0 0 90 25" fill="none" xmlns="http://www.w3.org/2000/svg">
<path d="M3.23009 24.2864L0.352051 8.36282H4.66911L6.50916 21.3612H6.55634L9.06873 8.36282H14.3294L16.8536 21.3612H16.889L18.8116 8.36282H23.1404L20.168 24.2864H14.0463L11.7227 11.0875H11.6873L9.35181 24.2864H3.23009Z" fill="black"/>
<path d="M23.3163 24.2864V10.2972H27.2913V24.2864H23.3163ZM23.3163 6.09813H27.2913V8.87001H23.3163V6.09813Z" fill="black"/>
<path d="M34.9556 24.3925C33.1077 24.3925 31.5546 24.1173 30.2965 23.5669C29.0462 23.0086 28.2323 22.0453 27.8548 20.677L31.3344 19.415C31.5153 20.217 31.9242 20.8186 32.5611 21.2196C33.1981 21.6207 34.0159 21.8212 35.0146 21.8212C35.8402 21.8212 36.4811 21.6914 36.9372 21.4319C37.3933 21.1724 37.6213 20.8147 37.6213 20.3586C37.6213 19.7374 37.2085 19.3442 36.3828 19.179C35.565 19.0061 34.5231 18.8134 33.2571 18.6011C31.6608 18.3652 30.379 17.9288 29.4118 17.2918C28.4446 16.6549 27.961 15.6287 27.961 14.2133C27.961 12.8371 28.5547 11.8228 29.7421 11.1701C30.9295 10.5096 32.4904 10.1793 34.4248 10.1793C36.3042 10.1793 37.8375 10.4545 39.0249 11.005C40.2202 11.5554 40.9869 12.4911 41.325 13.8122L37.8454 15.0625C37.6724 14.3548 37.2792 13.7926 36.6659 13.3758C36.0525 12.959 35.2898 12.7506 34.3776 12.7506C33.5205 12.7506 32.8875 12.8804 32.4786 13.1399C32.0775 13.3915 31.877 13.7454 31.877 14.2015C31.877 14.7991 32.2663 15.1883 33.0448 15.3692C33.8232 15.5422 34.818 15.727 36.0289 15.9236C37.6016 16.1437 38.9109 16.5369 39.9568 17.1031C41.0105 17.6614 41.5373 18.6483 41.5373 20.0637C41.5373 21.6207 40.9672 22.7333 39.827 23.4017C38.6868 24.0623 37.063 24.3925 34.9556 24.3925Z" fill="black"/>
<path d="M51.378 24.2864L51.1068 22.1986V0.607452H55.07V24.2864H51.378ZM46.6953 24.3689C44.8002 24.3689 43.4241 23.7399 42.567 22.4817C41.7099 21.2157 41.2813 19.4779 41.2813 17.2682C41.2813 15.0507 41.7099 13.3168 42.567 12.0665C43.4241 10.8084 44.8002 10.1793 46.6953 10.1793C48.3624 10.1793 49.8053 10.5685 51.0242 11.347C52.2509 12.1255 52.8642 12.9865 52.8642 13.9302L51.1068 15.6405C51.1068 14.8699 50.8079 14.2211 50.2103 13.6943C49.6127 13.1674 48.901 12.904 48.0754 12.904C47.1947 12.904 46.5105 13.1989 46.023 13.7886C45.5355 14.3705 45.2917 15.5343 45.2917 17.28C45.2917 19.0336 45.5355 20.2052 46.023 20.795C46.5105 21.3769 47.1947 21.6678 48.0754 21.6678C48.901 21.6678 49.6127 21.4044 50.2103 20.8776C50.8079 20.3428 51.1068 19.6862 51.1068 18.9078L52.8642 20.6535C52.8642 21.5892 52.2509 22.4424 51.0242 23.213C49.8053 23.9836 48.3624 24.3689 46.6953 24.3689Z" fill="black"/>
<path d="M62.2855 24.3925C59.722 24.3925 57.8937 23.7753 56.8007 22.5407C55.7156 21.3061 55.173 19.5408 55.173 17.2446C55.173 14.9406 55.7156 13.1831 56.8007 11.9722C57.8937 10.7533 59.722 10.1439 62.2855 10.1439C64.849 10.1439 66.6733 10.7533 67.7585 11.9722C68.8437 13.1831 69.3862 14.9406 69.3862 17.2446C69.3862 19.5408 68.8437 21.3061 67.7585 22.5407C66.6733 23.7753 64.849 24.3925 62.2855 24.3925ZM62.2855 21.7032C63.2055 21.7032 63.9565 21.4162 64.5384 20.8422C65.1282 20.2603 65.423 19.065 65.423 17.2564C65.423 15.4478 65.1282 14.2604 64.5384 13.6943C63.9565 13.1202 63.2055 12.8332 62.2855 12.8332C61.3655 12.8332 60.6106 13.1202 60.0208 13.6943C59.4311 14.2604 59.1362 15.4478 59.1362 17.2564C59.1362 19.065 59.4311 20.2603 60.0208 20.8422C60.6106 21.4162 61.3655 21.7032 62.2855 21.7032Z" fill="black"/>
<path d="M69.4882 24.2864V10.309H72.5549L73.4513 12.4086V24.2864H69.4882ZM77.7802 24.2864V16.4426C77.7802 15.1608 77.6269 14.2526 77.3202 13.7179C77.0214 13.1831 76.5299 12.9158 75.8458 12.9158C75.1302 12.9158 74.5444 13.2185 74.0883 13.824C73.6401 14.4295 73.416 15.3417 73.416 16.5605L71.3164 15.723C71.3164 14.3941 71.8983 13.1399 73.0621 11.9604C74.2259 10.7808 75.5942 10.1911 77.1668 10.1911C78.9912 10.1911 80.21 10.7808 80.8234 11.9604C81.4367 13.132 81.7434 14.5199 81.7434 16.1241V24.2864H77.7802ZM86.0369 24.2864V16.4426C86.0369 15.1608 85.8914 14.2526 85.6004 13.7179C85.3095 13.1831 84.8259 12.9158 84.1496 12.9158C83.4341 12.9158 82.8521 13.2185 82.4039 13.824C81.9557 14.4295 81.7316 15.3417 81.7316 16.5605L79.6203 15.723C79.6203 14.4256 80.2022 13.1792 81.366 11.984C82.5297 10.7887 83.898 10.1911 85.4707 10.1911C87.295 10.1911 88.506 10.7808 89.1036 11.9604C89.7012 13.132 90.0001 14.5199 90.0001 16.1241V24.2864H86.0369Z" fill="black"/>
</svg>
